<svg id="Laag_1" width='64px' height='64px' data-name="Laag 1" xmlns="http://www.w3.org/2000/svg" viewBox="0 0 1000 1000"><defs><style>.cls-1{fill:#3b6f6f;}.cls-2{fill:#77bcbc;}.cls-3{fill:#fff;}.cls-4{fill:#93278f;}.cls-5{fill:#1e3838;}</style></defs><title>celltje</title><circle class="cls-1" cx="500" cy="500" r="493.09"/><circle class="cls-2" cx="500" cy="500" r="448.33"/><circle class="cls-3" cx="500" cy="381.23" r="231.8"/><circle class="cls-4" cx="500" cy="381.23" r="112.98"/><circle class="cls-5" cx="500" cy="381.23" r="70.98"/><circle class="cls-3" cx="452.59" cy="395.46" r="32.58"/><path class="cls-1" d="M253.83,698.6c1.09,1.38,11.64,14.41,33,30.18,21.64,15.94,54.39,34.66,99.68,47,29.6,8,64.54,13.37,105.26,13.37,45.64,0,85.21-6.66,118.65-16.32,45-13,78.92-31.51,101.47-46.66,20.88-14,32-25.22,33.29-26.48,5.38-5.51,7.1-17.32,3.86-26.42s-10.25-12-15.64-6.56a175.55,175.55,0,0,1-17.31,14.43c-21.48,16.1-62.8,41.86-122.82,57.08a411.45,411.45,0,0,1-101.5,12.4,390,390,0,0,1-87.63-9.55C341.55,726.65,302,699.28,282.4,682.37a133.82,133.82,0,0,1-14.89-14.6c-2.05-2.59-4.45-3.85-6.83-3.85-3.46,0-6.89,2.66-9.13,7.71C247.78,680.14,248.8,692.21,253.83,698.6Z"/></svg>