<svg xmlns="http://www.w3.org/2000/svg" id="Laag_1" width="64" height="64" data-name="Laag 1" viewBox="0 0 1000 1000"><defs><style>.cls-1{fill:#3b6f6f}.cls-2{fill:#77bcbc}.cls-3{fill:#fff}.cls-4{fill:#93278f}.cls-5{fill:#1e3838}</style></defs><title>Celltje_gewond</title><circle cx="500" cy="500" r="493.09" class="cls-1"/><circle cx="500" cy="500" r="448.33" class="cls-2"/><circle cx="500" cy="381.23" r="231.8" class="cls-3"/><circle cx="500" cy="381.23" r="112.98" class="cls-4"/><circle cx="500" cy="381.23" r="70.98" class="cls-5"/><circle cx="452.59" cy="395.46" r="32.58" class="cls-3"/><path d="M621.13,681.76a448.76,448.76,0,0,0-217.37,0c-59.58,14.89-87.69,68.65-67.24,103h0c.76,1.3,1.56,2.56,2.38,3.79A77.45,77.45,0,0,0,360.55,810h0C383,824.91,412.75,829,439,822.8c1.76-.44,3.54-.83,5.31-1.24a303.37,303.37,0,0,1,141.63,1.24c2.85.68,5.74,1.21,8.66,1.65h0c28.43,4.2,59.48-3.21,80.37-22.88h0a75.69,75.69,0,0,0,11-13c.82-1.23,1.64-2.47,2.4-3.77h0C708.82,750.41,680.71,696.65,621.13,681.76Z" class="cls-1"/></svg>