<svg id="Laag_1" data-name="Laag 1" xmlns="http://www.w3.org/2000/svg" viewBox="0 0 1000 1000"><defs><style>.cls-1{fill:#39b54a;}.cls-2{fill:#0071bc;}.cls-3{fill:#fff496;}.cls-4{fill:#c00027;}.cls-5{fill:#29abe2;}</style></defs><title>dna_energy</title><path class="cls-1" d="M248.09,925.17a17.38,17.38,0,0,0,24.58-24.57L180.1,808,155.52,832.6Z"/><path class="cls-1" d="M65.41,717.91a17.39,17.39,0,0,0,0,24.58l90.11,90.11L180.1,808,90,717.91A17.39,17.39,0,0,0,65.41,717.91Z"/><path class="cls-2" d="M139.14,680.23a17.38,17.38,0,0,0,0,24.58l72.09,72.09,24.58-24.58-72.09-72.09A17.38,17.38,0,0,0,139.14,680.23Z"/><path class="cls-2" d="M290.69,856.36a17.38,17.38,0,0,0,24.58-24.58l-79.46-79.46L211.23,776.9Z"/><path class="cls-3" d="M306.26,513.11a17.38,17.38,0,0,0,0,24.58l72.09,72.09,24.57-24.58-72.09-72.09A17.38,17.38,0,0,0,306.26,513.11Z"/><path class="cls-3" d="M457.81,689.24a17.38,17.38,0,0,0,24.58-24.57L402.92,585.2l-24.57,24.58Z"/><path class="cls-4" d="M526.62,646.64a17.38,17.38,0,1,0,24.58-24.57L458.63,529.5l-24.58,24.57Z"/><path class="cls-4" d="M343.94,439.38a17.39,17.39,0,0,0,0,24.58l90.11,90.11,24.58-24.57-90.11-90.12A17.39,17.39,0,0,0,343.94,439.38Z"/><path class="cls-1" d="M399.65,383.68a17.36,17.36,0,0,0,0,24.57l90.11,90.12,24.58-24.58-90.12-90.11A17.36,17.36,0,0,0,399.65,383.68Z"/><path class="cls-1" d="M582.33,590.94a17.38,17.38,0,1,0,24.58-24.58l-92.57-92.57-24.58,24.58Z"/><path class="cls-2" d="M638,535.23a17.37,17.37,0,1,0,24.57-24.57L570,418.09l-24.57,24.57Z"/><path class="cls-2" d="M455.35,328a17.39,17.39,0,0,0,0,24.58l90.12,90.11L570,418.09,479.93,328A17.39,17.39,0,0,0,455.35,328Z"/><path class="cls-3" d="M529.08,290.29a17.39,17.39,0,0,0,0,24.58L601.17,387l24.58-24.58-72.09-72.09A17.38,17.38,0,0,0,529.08,290.29Z"/><path class="cls-3" d="M680.63,466.42a17.38,17.38,0,1,0,24.58-24.58l-79.46-79.46L601.17,387Z"/><path class="cls-4" d="M857.58,309.13a17.38,17.38,0,1,0,24.58-24.58l-89.29-89.29-24.58,24.58Z"/><path class="cls-4" d="M696.2,123.17a17.38,17.38,0,0,0,0,24.58l72.09,72.09,24.58-24.58-72.09-72.09A17.39,17.39,0,0,0,696.2,123.17Z"/><path class="cls-1" d="M758.46,49.44A17.38,17.38,0,0,0,733.88,74L824,164.13l24.57-24.57Z"/><path class="cls-1" d="M824,164.13l92.57,92.57a17.37,17.37,0,0,0,24.57-24.57l-92.57-92.57Z"/><path class="cls-5" d="M624.93,620.43C579.38,666,528.44,694.13,469.2,706.5,417.89,717.21,367,715,317.7,712.85c-92.77-4-180.4-7.84-263.76,75.52a29,29,0,0,1-41-41c45.55-45.55,96.49-73.7,155.73-86.07C220,650.62,271,652.84,320.21,655c92.78,4,180.4,7.84,263.76-75.51s79.54-171,75.51-263.76c-2.14-49.25-4.36-100.19,6.36-151.5C678.21,105,706.36,54,751.91,8.48a29,29,0,0,1,41,41c-83.36,83.36-79.55,171-75.52,263.76,2.14,49.25,4.36,100.19-6.35,151.5C698.63,523.94,670.47,574.88,624.93,620.43Z"/><path class="cls-4" d="M987,243.59c-45.55,45.55-96.49,73.7-155.73,86.07C780,340.38,729,338.16,679.79,336,587,332,499.39,328.18,416,411.53s-79.54,171-75.51,263.76c2.14,49.25,4.36,100.19-6.36,151.5C321.79,886,293.64,937,248.09,982.52a29,29,0,0,1-41-41c83.36-83.36,79.55-171,75.52-263.76-2.14-49.25-4.36-100.19,6.35-151.5,12.37-59.24,40.53-110.18,86.07-155.73s96.49-73.7,155.73-86.07c51.31-10.71,102.25-8.49,151.5-6.35,92.77,4,180.4,7.84,263.76-75.52a29,29,0,0,1,41,41Z"/></svg>