<svg xmlns="http://www.w3.org/2000/svg" viewBox="0 0 410.73 176.1"><defs><style>.cls-1{fill:#f8000d;}.cls-2{fill:#fff;}.cls-3{fill:#007070;}.cls-4{fill:#44bcbc;}.cls-5{fill:#ab2292;}.cls-6{fill:#003535;}.cls-7{fill:#00b53e;}.cls-8{fill:#0072bf;}.cls-9{fill:#fff591;}.cls-10{fill:#e10023;}.cls-11{fill:#00ace4;}</style></defs><title>viruspel_svg3</title><g id="Laag_2" data-name="Laag 2"><g id="Laag_6" data-name="Laag 6"><path class="cls-1" d="M224.16,37.74c0,19.44,32.23,41.17,32.23,41.17s32.23-21.73,32.23-41.17S271.53,9.07,256.39,25.62C241.24,9.07,224.16,18.3,224.16,37.74Z"/><path class="cls-2" d="M249.72,32.74a5.14,5.14,0,0,1,1.48.17,2.77,2.77,0,0,1,.89.39,1.37,1.37,0,0,1,.47.73,3.52,3.52,0,0,1,.17.82c0,.22,0,.56,0,1V55a8.7,8.7,0,0,1-.06,1.19,2.77,2.77,0,0,1-.32.91,1.54,1.54,0,0,1-.93.72,5.92,5.92,0,0,1-1.75.21,5.75,5.75,0,0,1-1.72-.21,1.52,1.52,0,0,1-.93-.71,2.53,2.53,0,0,1-.32-.92,9.91,9.91,0,0,1-.06-1.26V42.67l-.44.41a4.25,4.25,0,0,1-2.34,1.06,2.67,2.67,0,0,1-2-1,3.83,3.83,0,0,1-1.24-2.33,3,3,0,0,1,1.24-2l5.63-5.08.11-.07A2.83,2.83,0,0,1,249.72,32.74Z"/><path class="cls-2" d="M266.66,45.83h2.78a7.11,7.11,0,0,1,1.07.05,2.41,2.41,0,0,1,.79.29,1.38,1.38,0,0,1,.64.83,5.53,5.53,0,0,1,.18,1.58,5.41,5.41,0,0,1-.17,1.54,1.27,1.27,0,0,1-.58.81,2.24,2.24,0,0,1-.74.27,6.2,6.2,0,0,1-1,.06h-3V54a8.6,8.6,0,0,1-.05,1.06,2.33,2.33,0,0,1-.29.79,1.38,1.38,0,0,1-.83.64,5.15,5.15,0,0,1-1.58.19,5,5,0,0,1-1.54-.19,1.31,1.31,0,0,1-.81-.64,2.74,2.74,0,0,1-.28-.8,9.31,9.31,0,0,1,0-1.09V51.26h-3a6.12,6.12,0,0,1-1-.06,2.24,2.24,0,0,1-.74-.27,1.27,1.27,0,0,1-.58-.82,5.69,5.69,0,0,1-.18-1.57,5.52,5.52,0,0,1,.19-1.56,1.32,1.32,0,0,1,.66-.83,3,3,0,0,1,.82-.27,7.43,7.43,0,0,1,1.08-.05h2.75V43a8.72,8.72,0,0,1,0-1.06,2.91,2.91,0,0,1,.28-.79,1.3,1.3,0,0,1,.82-.64,5.6,5.6,0,0,1,1.57-.19,5.52,5.52,0,0,1,1.56.19,1.28,1.28,0,0,1,.82.64,2.61,2.61,0,0,1,.28.81,9.24,9.24,0,0,1,.05,1.08Z"/><circle class="cls-3" cx="143.77" cy="104.74" r="71.36"/><circle class="cls-4" cx="143.77" cy="104.74" r="64.88"/><circle class="cls-2" cx="143.77" cy="87.55" r="33.55"/><circle class="cls-5" cx="143.77" cy="87.55" r="16.35"/><circle class="cls-6" cx="143.77" cy="87.55" r="10.27"/><circle class="cls-2" cx="136.91" cy="89.61" r="4.72"/><path class="cls-3" d="M108.15,133.48a25.55,25.55,0,0,0,4.78,4.37,43.3,43.3,0,0,0,14.42,6.8,58.1,58.1,0,0,0,15.24,1.93,61.58,61.58,0,0,0,17.17-2.36,52.49,52.49,0,0,0,14.68-6.75,33.06,33.06,0,0,0,4.82-3.83,4,4,0,0,0,.56-3.83c-.47-1.31-1.48-1.74-2.27-.95a23.2,23.2,0,0,1-2.5,2.09,50.51,50.51,0,0,1-17.77,8.26,59.57,59.57,0,0,1-14.69,1.8,56.78,56.78,0,0,1-12.69-1.38,40.93,40.93,0,0,1-17.62-8.5,18.22,18.22,0,0,1-2.15-2.11,1.32,1.32,0,0,0-1-.56c-.5,0-1,.39-1.32,1.12A4.16,4.16,0,0,0,108.15,133.48Z"/><path class="cls-7" d="M74,10.16a2.51,2.51,0,1,0-2.36,4.44l16.72,8.91,2.36-4.44Z"/><path class="cls-7" d="M108.06,31.14a2.52,2.52,0,0,0-1-3.4L90.74,19.07l-2.36,4.44,16.27,8.67A2.52,2.52,0,0,0,108.06,31.14Z"/><path class="cls-8" d="M99.44,39.47a2.51,2.51,0,0,0-1-3.4l-13-6.94L83,33.57l13,6.94A2.52,2.52,0,0,0,99.44,39.47Z"/><path class="cls-8" d="M71,21.48a2.52,2.52,0,0,0-2.37,4.44L83,33.57l2.36-4.44Z"/><path class="cls-9" d="M83.36,69.65a2.52,2.52,0,0,0-1-3.4l-13-6.94-2.37,4.44,13,6.94A2.52,2.52,0,0,0,83.36,69.65Z"/><path class="cls-9" d="M55,51.67a2.52,2.52,0,1,0-2.37,4.44l14.35,7.64,2.37-4.44Z"/><path class="cls-10" d="M47.22,60.47a2.52,2.52,0,0,0-2.37,4.44l16.72,8.91,2.37-4.44Z"/><path class="cls-10" d="M81.25,81.45a2.51,2.51,0,0,0-1-3.4L63.94,69.38l-2.37,4.44,16.28,8.67A2.51,2.51,0,0,0,81.25,81.45Z"/><path class="cls-7" d="M75.89,91.51a2.51,2.51,0,0,0-1-3.4L58.58,79.44l-2.37,4.44,16.28,8.67A2.51,2.51,0,0,0,75.89,91.51Z"/><path class="cls-7" d="M41.86,70.53A2.52,2.52,0,0,0,39.49,75l16.72,8.91,2.37-4.44Z"/><path class="cls-8" d="M36.5,80.59A2.52,2.52,0,1,0,34.13,85l16.72,8.91,2.37-4.44Z"/><path class="cls-8" d="M70.53,101.57a2.52,2.52,0,0,0-1-3.4L53.22,89.5l-2.37,4.44,16.28,8.67A2.51,2.51,0,0,0,70.53,101.57Z"/><path class="cls-9" d="M61.91,109.9a2.51,2.51,0,0,0-1-3.4l-13-6.94L45.49,104l13,6.94A2.51,2.51,0,0,0,61.91,109.9Z"/><path class="cls-9" d="M33.5,91.92a2.51,2.51,0,1,0-2.36,4.43L45.49,104l2.37-4.44Z"/><path class="cls-10" d="M15.65,121.15a2.52,2.52,0,1,0-2.37,4.44l16.13,8.6,2.36-4.44Z"/><path class="cls-10" d="M45.83,140.09a2.52,2.52,0,0,0-1-3.41l-13-6.93-2.36,4.44,13,6.93A2.51,2.51,0,0,0,45.83,140.09Z"/><path class="cls-7" d="M40.32,152.92a2.52,2.52,0,1,0,2.37-4.44l-16.28-8.67-2.36,4.44Z"/><path class="cls-7" d="M26.41,139.81,9.69,130.9a2.51,2.51,0,1,0-2.36,4.44l16.72,8.91Z"/><path class="cls-11" d="M34.72,68.25A43.73,43.73,0,0,1,52.64,49.76c6.65-3.65,13.8-5.49,20.71-7.27,13-3.36,25.3-6.53,33.32-21.58a4.19,4.19,0,1,1,7.4,3.94A43.78,43.78,0,0,1,96.14,43.33C89.49,47,82.35,48.82,75.44,50.6c-13,3.36-25.3,6.53-33.33,21.59s-3.79,27,.68,39.69c2.38,6.73,4.83,13.69,5.51,21.24A43.76,43.76,0,0,1,43,158.31a4.19,4.19,0,0,1-7.4-3.94c8-15.05,3.8-27-.67-39.7C32.51,108,30.05,101,29.37,93.43A43.75,43.75,0,0,1,34.72,68.25Z"/><path class="cls-10" d="M.49,135.69A43.8,43.8,0,0,1,18.42,117.2c6.65-3.65,13.79-5.49,20.7-7.27,13-3.36,25.31-6.53,33.33-21.58s3.79-27-.68-39.7C69.4,41.92,66.94,35,66.26,27.41A43.79,43.79,0,0,1,71.6,2.22,4.19,4.19,0,0,1,79,6.16c-8,15.06-3.8,27,.68,39.7,2.37,6.73,4.83,13.69,5.51,21.24a43.79,43.79,0,0,1-5.34,25.19,43.86,43.86,0,0,1-17.93,18.49c-6.65,3.64-13.79,5.49-20.7,7.27-13,3.35-25.31,6.52-33.33,21.58a4.19,4.19,0,1,1-7.4-3.94Z"/><path class="cls-1" d="M302.77,40.86c0,13.52,22.4,28.62,22.4,28.62s22.4-15.1,22.4-28.62-11.87-19.93-22.4-8.43C314.64,20.93,302.77,27.34,302.77,40.86Z"/><path class="cls-1" d="M365.93,40.86c0,13.52,22.4,28.62,22.4,28.62s22.4-15.1,22.4-28.62-11.87-19.93-22.4-8.43C377.8,20.93,365.93,27.34,365.93,40.86Z"/></g></g></svg>