<svg id="Laag_1" width='64px' height='64px' data-name="Laag 1" xmlns="http://www.w3.org/2000/svg" viewBox="0 0 1000 1000"><defs><style>.cls-1{fill:#c8d79f;}.cls-2{fill:#7d8a59;}.cls-3{fill:#fff496;}.cls-4{fill:#c10e1a;}.cls-5{fill:#761e1e;}.cls-6{fill:#fff;}.cls-7{fill:none;}.cls-8{fill:#756959;}.cls-9{fill:#7d3559;}.cls-10{fill:#fffce3;}</style></defs><title>Virus_1</title><circle class="cls-1" cx="503.82" cy="480.42" r="427.57"/><path class="cls-2" d="M503.82,920.42c-242.61,0-440-197.38-440-440s197.39-440,440-440,440,197.38,440,440S746.44,920.42,503.82,920.42Zm0-855.14c-228.91,0-415.14,186.23-415.14,415.14S274.91,895.56,503.82,895.56,919,709.33,919,480.42,732.74,65.28,503.82,65.28Z"/><path class="cls-1" d="M665.24,815.36q-.32,3.52-.31,7.13a81.43,81.43,0,1,0,121.29-71"/><path class="cls-2" d="M746.35,912.62a90.23,90.23,0,0,1-90.12-90.13c0-2.62.11-5.27.34-7.88a8.7,8.7,0,1,1,17.33,1.5c-.18,2.11-.27,4.26-.27,6.38A72.73,72.73,0,1,0,782,759.06a8.7,8.7,0,0,1,8.53-15.17,90.14,90.14,0,0,1-44.13,168.73Z"/><path class="cls-1" d="M399.6,842.05q-1.53,2.07-2.89,4.31a59.17,59.17,0,1,0,102.11,1.91"/><path class="cls-2" d="M462.82,941.92a66.58,66.58,0,0,1-72.46-99.44c1-1.66,2.11-3.29,3.25-4.84a7.43,7.43,0,0,1,12,8.82c-.89,1.21-1.74,2.48-2.53,3.77a51.74,51.74,0,1,0,89.28,1.67,7.44,7.44,0,1,1,13-7.26,66.58,66.58,0,0,1-42.49,97.28Z"/><path class="cls-1" d="M160.5,656.57c-1.78-.16-3.57-.23-5.39-.23A61.56,61.56,0,1,0,208.8,748"/><path class="cls-2" d="M155.11,787.2a69.3,69.3,0,0,1,0-138.6c2,0,4.07.09,6.06.26a7.74,7.74,0,0,1-1.34,15.42c-1.55-.14-3.14-.21-4.72-.21a53.83,53.83,0,1,0,46.95,80.17,7.74,7.74,0,0,1,13.49,7.59A69.43,69.43,0,0,1,155.11,787.2Z"/><path class="cls-1" d="M116.32,372.79c-.8-1-1.64-1.87-2.53-2.76a42.75,42.75,0,1,0-18.67,71.39"/><path class="cls-2" d="M83.6,448.38a48.12,48.12,0,1,1,34-82.15c1,1,2,2,2.84,3.1a5.37,5.37,0,1,1-8.22,6.92c-.7-.84-1.45-1.65-2.23-2.43a37.38,37.38,0,1,0-16.31,62.43,5.37,5.37,0,1,1,2.9,10.34A48,48,0,0,1,83.6,448.38Z"/><path class="cls-1" d="M368.28,149.57q.36-4.11.36-8.33A95.24,95.24,0,1,0,226.77,224.3"/><path class="cls-2" d="M226.77,233a8.64,8.64,0,0,1-4.26-1.12,103.94,103.94,0,1,1,154.83-90.64c0,3-.13,6.09-.39,9.09a8.7,8.7,0,0,1-17.34-1.51c.22-2.5.33-5,.33-7.58A86.54,86.54,0,1,0,231,216.72,8.7,8.7,0,0,1,226.77,233Z"/><path class="cls-1" d="M848.1,285.47c1.53.14,3.08.2,4.65.2a53.16,53.16,0,1,0-46.36-79.18"/><path class="cls-2" d="M852.75,292.36c-1.75,0-3.51-.08-5.23-.23a6.68,6.68,0,1,1,1.16-13.31c1.34.12,2.71.17,4.07.17a46.48,46.48,0,1,0-40.54-69.22,6.68,6.68,0,0,1-11.64-6.56,59.84,59.84,0,1,1,52.18,89.15Z"/><path class="cls-1" d="M635.58,108.72q1.53-1.74,2.91-3.63a53.16,53.16,0,1,0-91.27-9.39"/><path class="cls-2" d="M643.88,109c-1,1.42-2.13,2.79-3.27,4.09a6.68,6.68,0,1,1-10.05-8.8c.88-1,1.74-2.08,2.54-3.18a46.48,46.48,0,1,0-79.8-8.2,6.68,6.68,0,0,1-12.17,5.52A59.84,59.84,0,1,1,643.88,109Z"/><path class="cls-1" d="M876.36,588.29c1.1,1.32,2.28,2.6,3.51,3.83A59.34,59.34,0,1,0,905.78,493"/><path class="cls-2" d="M921.84,617A66.35,66.35,0,0,1,874.6,597.4c-1.38-1.38-2.71-2.83-4-4.31a7.46,7.46,0,0,1,11.41-9.6c1,1.15,2,2.29,3.09,3.37a51.89,51.89,0,1,0,22.64-86.66,7.46,7.46,0,0,1-4-14.36A66.8,66.8,0,1,1,921.84,617Z"/><path class="cls-3" d="M678.92,301.26c0,100.82-81.74,182.55-182.55,182.55A182.67,182.67,0,0,1,324.94,238.38c20.54,21.06,49.44,38.09,83.53,48.95a257.81,257.81,0,0,0,31.48,8,12.06,12.06,0,0,1,1-1.05c-.08.41-.11.78-.15,1.19a285.6,285.6,0,0,0,40.85,4.78c4.85.27,9.78.38,14.75.38a297.55,297.55,0,0,0,55.6-5.16,260.09,260.09,0,0,0,32.29-8.14c34.09-10.86,63-27.89,83.53-48.95A181.8,181.8,0,0,1,678.92,301.26Z"/><path class="cls-4" d="M585.35,301.26a89,89,0,0,1-178,0,90.28,90.28,0,0,1,1.08-13.93,257.81,257.81,0,0,0,31.48,8,12.06,12.06,0,0,1,1-1.05c-.08.41-.11.78-.15,1.19a285.6,285.6,0,0,0,40.85,4.78c4.85.27,9.78.38,14.75.38a297.55,297.55,0,0,0,55.6-5.16,260.09,260.09,0,0,0,32.29-8.14A90.28,90.28,0,0,1,585.35,301.26Z"/><path class="cls-5" d="M552.26,301.26a55.9,55.9,0,0,1-111.79,0c0-1.94.11-3.88.3-5.79a285.6,285.6,0,0,0,40.85,4.78c4.85.27,9.78.38,14.75.38a297.55,297.55,0,0,0,55.6-5.16C552.15,297.38,552.26,299.32,552.26,301.26Z"/><path class="cls-6" d="M484.68,312.46A25.65,25.65,0,0,1,459,338.12a25.33,25.33,0,0,1-5.12-.53,25.64,25.64,0,0,1-14-42.26,12.06,12.06,0,0,1,1-1.05c-.08.41-.11.78-.15,1.19a285.6,285.6,0,0,0,40.85,4.78A25.91,25.91,0,0,1,484.68,312.46Z"/><path class="cls-3" d="M440.92,294.28c-.08.41-.11.78-.15,1.19a5.86,5.86,0,0,1-.82-.14A12.06,12.06,0,0,1,440.92,294.28Z"/><path class="cls-7" d="M346.23,642l-10.18,18.79a449.5,449.5,0,0,1,47.65-10.89l-2.46-6C374.35,627,354.9,626,346.23,642Z"/><path class="cls-7" d="M632.33,643.86l-3.83,9.35a370,370,0,0,1,53.08,15L667.34,642C658.67,626,639.22,627,632.33,643.86Z"/><path class="cls-8" d="M346.23,642c8.67-16,28.12-14.94,35,1.89l2.46,6c34.09-6,72.76-9.35,113.75-9.35,48.1,0,93,4.65,131.05,12.69l3.83-9.35c6.89-16.83,26.34-17.88,35-1.89l14.24,26.29a204.5,204.5,0,0,1,29.65,13.63c1-1.52,2-3,3-4.64h0c25.2-42.35-9.43-108.59-82.84-126.94a553.19,553.19,0,0,0-267.8,0c-73.41,18.35-108,84.59-82.84,126.94h0q1.4,2.38,2.93,4.66c14-8,31.72-15.14,52.41-21.15Z"/><path class="cls-9" d="M697.66,697.92a93.34,93.34,0,0,0,13.57-16,204.5,204.5,0,0,0-29.65-13.63Z"/><path class="cls-9" d="M383.7,649.87l29.77,72.69A373.7,373.7,0,0,1,588,724.08c3.52.84,7.08,1.5,10.68,2l29.86-72.9c-38-8-83-12.69-131-12.69C456.46,640.52,417.79,643.89,383.7,649.87Z"/><path class="cls-9" d="M310.3,708.26l25.75-47.5c-20.69,6-38.43,13.15-52.41,21.15A95.5,95.5,0,0,0,310.3,708.26Z"/><path class="cls-10" d="M697.66,697.92,667.34,642c-8.67-16-28.12-14.94-35,1.89l-33.69,82.25C633.67,731.29,671.92,722.15,697.66,697.92Z"/><path class="cls-10" d="M346.23,642,310.3,708.26c27.69,18.42,64.32,23.48,96.63,15.82,2.18-.54,4.36-1,6.54-1.52l-32.23-78.7C374.35,627,354.9,626,346.23,642Z"/></svg>