<svg xmlns="http://www.w3.org/2000/svg" viewBox="0 0 459.05 190.41"><defs><style>.cls-1{fill:#f8000d;}.cls-2{fill:#007070;}.cls-3{fill:#44bcbc;}.cls-4{fill:#fff;}.cls-5{fill:#ab2292;}.cls-6{fill:#003535;}.cls-7{fill:#c2d79d;}.cls-8{fill:#788a55;}.cls-9{fill:#fff591;}.cls-10{fill:#e10614;}.cls-11{fill:#891818;}.cls-12{fill:none;}.cls-13{fill:#7a6958;}.cls-14{fill:#90325a;}.cls-15{fill:#fffce1;}</style></defs><title> viruspel_svg2</title><g id="Laag_2" data-name="Laag 2"><g id="Laag_6" data-name="Laag 6"><path class="cls-1" d="M351.08,73.74c0,13.51,22.4,28.61,22.4,28.61s22.41-15.1,22.41-28.61S384,53.81,373.48,65.31C363,53.81,351.08,60.22,351.08,73.74Z"/><path class="cls-1" d="M414.24,73.74c0,13.51,22.4,28.61,22.4,28.61s22.41-15.1,22.41-28.61-11.88-19.93-22.41-8.43C426.11,53.81,414.24,60.22,414.24,73.74Z"/><path class="cls-1" d="M305.63,57.75l-6.27,8.75,10.41,4.39L293.93,87.53l15.49,6.94-3.88,16.62,0,0S337.8,89.38,337.8,69.94,320.76,41.29,305.63,57.75Z"/><path class="cls-1" d="M284.42,88.21l15.84-16.64-10.4-4.4,6.26-8.74-.06.06C280.91,42,263.83,51.17,263.83,70.61c0,19.14,31.2,40.48,32.2,41.16l3.88-16.62Z"/><circle class="cls-2" cx="180.88" cy="119.05" r="71.36"/><circle class="cls-3" cx="180.88" cy="119.05" r="64.88"/><circle class="cls-4" cx="180.88" cy="101.86" r="33.55"/><circle class="cls-5" cx="169.3" cy="96.52" r="16.35"/><circle class="cls-6" cx="169.3" cy="96.52" r="10.27"/><circle class="cls-4" cx="162.44" cy="98.58" r="4.72"/><path class="cls-2" d="M198.41,145.35a65.07,65.07,0,0,0-31.46,0c-8.62,2.16-12.69,9.94-9.73,14.91h0c.11.19.23.37.35.55a11.22,11.22,0,0,0,3.13,3.09h0a14.72,14.72,0,0,0,11.35,1.86l.77-.18a43.94,43.94,0,0,1,20.49.18q.63.15,1.26.24h0a14.12,14.12,0,0,0,11.63-3.31h0a11.06,11.06,0,0,0,1.59-1.88c.12-.18.24-.36.35-.55h0C211.1,155.29,207,147.51,198.41,145.35Z"/><circle class="cls-7" cx="76.89" cy="73.62" r="64.78"/><path class="cls-8" d="M33.29,23.19a66.66,66.66,0,1,1-6.83,94A66.74,66.74,0,0,1,33.29,23.19ZM35.75,26a62.9,62.9,0,1,0,88.72,6.44A63,63,0,0,0,35.75,26Z"/><path class="cls-7" d="M22.51,88.31c-.25.26-.52.51-.79.74a12.34,12.34,0,1,1-3.88-20.94"/><path class="cls-8" d="M3.32,88.65a13.66,13.66,0,0,0,19.26,1.4c.3-.26.59-.53.87-.82a1.32,1.32,0,0,0-1.89-1.84c-.22.23-.46.46-.7.67a11,11,0,1,1-3.47-18.7,1.32,1.32,0,0,0,.9-2.49,13.66,13.66,0,0,0-15,21.78Z"/><path class="cls-7" d="M45.77,121.4c-.06.26-.13.51-.21.76a9,9,0,1,1-10.34-11.51"/><path class="cls-8" d="M28.06,124.05a10.09,10.09,0,0,0,18.58-1.55c.09-.28.16-.56.23-.85a1.13,1.13,0,0,0-2.2-.5c-.05.23-.11.45-.18.67a7.84,7.84,0,1,1-9-10.07,1.13,1.13,0,0,0-.45-2.21,10.13,10.13,0,0,0-7.59,6.82A10,10,0,0,0,28.06,124.05Z"/><path class="cls-7" d="M90.72,130.43a7.81,7.81,0,0,1,.56.59A9.33,9.33,0,1,1,75.45,134"/><path class="cls-8" d="M76.28,144a10.5,10.5,0,1,0,15.89-13.73,8,8,0,0,0-.63-.67,1.17,1.17,0,1,0-1.63,1.68c.16.16.33.34.49.52a8.16,8.16,0,1,1-13.85,2.56,1.17,1.17,0,1,0-2.2-.79A10.52,10.52,0,0,0,76.28,144Z"/><path class="cls-7" d="M127.63,107.37a5.33,5.33,0,0,1,.56,0,6.48,6.48,0,1,1-6.33,9.21"/><path class="cls-8" d="M122.2,118.61a7.29,7.29,0,1,0,6-12c-.21,0-.42,0-.63,0a.81.81,0,1,0,0,1.62l.5,0a5.67,5.67,0,1,1-5.54,8,.82.82,0,1,0-1.48.7A7.77,7.77,0,0,0,122.2,118.61Z"/><path class="cls-7" d="M128.24,56.37c.29-.3.6-.59.92-.87A14.43,14.43,0,1,1,133.7,80"/><path class="cls-8" d="M132.7,80.86a1.43,1.43,0,0,0,.55.38,15.75,15.75,0,1,0-4.95-26.73c-.35.3-.69.62-1,.94a1.32,1.32,0,1,0,1.89,1.84c.26-.27.54-.54.83-.79a13.12,13.12,0,1,1,4.13,22.26,1.32,1.32,0,0,0-1.45,2.1Z"/><path class="cls-7" d="M65.12,14.84c-.17-.16-.33-.33-.49-.51A8.06,8.06,0,1,1,78.3,11.8"/><path class="cls-8" d="M63.87,15a7.41,7.41,0,0,0,.54.58,1,1,0,1,0,1.41-1.45c-.14-.14-.29-.3-.42-.45a7,7,0,1,1,11.95-2.21,1,1,0,0,0,1.91.68A9.07,9.07,0,1,0,63.87,15Z"/><path class="cls-7" d="M106.44,21.69c0-.23.07-.47.12-.7a8.05,8.05,0,1,1,10.13,9.53"/><path class="cls-8" d="M105.58,20.77c-.06.25-.11.52-.15.78a1,1,0,0,0,2,.28,6,6,0,0,1,.11-.61,7,7,0,1,1,8.85,8.33,1,1,0,1,0,.57,1.94,9.06,9.06,0,1,0-11.39-10.72Z"/><path class="cls-7" d="M27.61,41.61a7,7,0,0,1-.79,0A9,9,0,1,1,35.61,28.8"/><path class="cls-8" d="M19.82,39.24a10,10,0,0,0,6.92,3.48,8.68,8.68,0,0,0,.88,0,1.13,1.13,0,1,0,0-2.26,5.35,5.35,0,0,1-.69,0A7.86,7.86,0,1,1,28,24.78a7.89,7.89,0,0,1,6.55,4.5,1.13,1.13,0,0,0,2-1A10.13,10.13,0,0,0,20.85,25a10.12,10.12,0,0,0-1,14.27Z"/><path class="cls-9" d="M80.07,35.8a27.74,27.74,0,0,1,8.31-5,30.68,30.68,0,0,0,2.67,14.43,39.66,39.66,0,0,0,2.27,4.51c.33.58.69,1.15,1.06,1.73a13.47,13.47,0,0,0,19.83,17.95c.31-.27.61-.56.9-.86a26.6,26.6,0,0,0,7.25,1.54A27.66,27.66,0,1,1,80.07,35.8Z"/><path class="cls-10" d="M95.19,68.08a13.47,13.47,0,0,1-.81-16.57,43.94,43.94,0,0,0,3.24,4.4,8.46,8.46,0,0,0,7.81,11.82,3.89,3.89,0,0,0,4.92-.14,4.29,4.29,0,0,0,.66-.76,33.82,33.82,0,0,0,4.1,1.77c-.29.3-.59.59-.9.86A13.49,13.49,0,0,1,95.19,68.08Z"/><path class="cls-11" d="M99.74,58.31a44,44,0,0,0,4.6,4.21s0,0,.09.08l.07,0a3.86,3.86,0,0,0,.37,4.54,4.07,4.07,0,0,0,.56.54,8.46,8.46,0,0,1-7.81-11.82c.21.25.4.5.62.75Q99,57.52,99.74,58.31Z"/><path class="cls-4" d="M111,66.83a4.29,4.29,0,0,1-.66.76,3.89,3.89,0,0,1-4.92.14,8.48,8.48,0,0,0,4.6-1.41Z"/><path class="cls-4" d="M104.5,62.65a39.41,39.41,0,0,0,4,2.77q.78.47,1.56.9a8.48,8.48,0,0,1-4.6,1.41,4.07,4.07,0,0,1-.56-.54A3.86,3.86,0,0,1,104.5,62.65Z"/><path class="cls-12" d="M74,107.69l-1.14,3a68.08,68.08,0,0,0-3.48-6.54l.93-.31A2.82,2.82,0,0,1,74,107.69Z"/><path class="cls-12" d="M45.42,75.09l-.69,1.36a56.91,56.91,0,0,0-7-4.59l4.42-1A2.82,2.82,0,0,1,45.42,75.09Z"/><path class="cls-13" d="M74,107.69a2.82,2.82,0,0,0-3.69-3.82l-.93.31a100.84,100.84,0,0,0-10.2-14A97.36,97.36,0,0,0,44.73,76.45l.69-1.36a2.82,2.82,0,0,0-3.25-4.2l-4.42,1a32.72,32.72,0,0,0-4.5-2c.07-.26.14-.53.23-.79h0c2.36-7.09,13.38-9.68,22.76-3.09a83.73,83.73,0,0,1,26.54,30.7c5.17,10.23,1,20.76-6.34,22.07h0l-.82.13a37.14,37.14,0,0,0-2.77-8.11Z"/><path class="cls-14" d="M32.75,73a14.35,14.35,0,0,1,.5-3.15,32.72,32.72,0,0,1,4.5,2Z"/><path class="cls-14" d="M69.37,104.18,58.09,108A56.71,56.71,0,0,0,40.62,88.12q-.66-.48-1.29-1l5.4-10.65A97.36,97.36,0,0,1,59.17,90.22,100.84,100.84,0,0,1,69.37,104.18Z"/><path class="cls-14" d="M70,118.38l2.9-7.66a37.14,37.14,0,0,1,2.77,8.11A14.57,14.57,0,0,1,70,118.38Z"/><path class="cls-15" d="M32.75,73l9.42-2.07a2.82,2.82,0,0,1,3.25,4.2l-6.09,12C35.27,83.6,32.53,78.31,32.75,73Z"/><path class="cls-15" d="M74,107.69l-4,10.69a19.05,19.05,0,0,1-11.39-9.51c-.15-.3-.31-.6-.47-.9l12.21-4.1A2.82,2.82,0,0,1,74,107.69Z"/></g></g></svg>