<svg id="Laag_1" width='64px' height='64px' data-name="Laag 1" xmlns="http://www.w3.org/2000/svg" viewBox="0 0 1000 1000"><defs><style>.cls-1{fill:#93278f;}.cls-2{fill:#573f6a;}.cls-3{fill:#fffce3;}.cls-4{fill:#1b1464;}.cls-5{fill:#fff496;}.cls-6{fill:#75a9a9;}.cls-7{fill:#375d5d;}.cls-8{fill:#fff;}.cls-9{fill:#3e3e3d;}</style></defs><title>Virus_3</title><path class="cls-1" d="M785.54,943.23c-68.09,9.4-80-76.69-148.07-67.28s-56.21,95.49-124.3,104.9-80-76.68-148.08-67.28c-40.66,5.62-90.93,83.17-126.53,68.57-36.62-15-18.16-106.4-42.54-137.58-23.7-30.32-117.24-34.31-122.85-75-9.41-68.1,76.68-80,67.27-148.08S45,565.32,35.54,497.22s76.69-80,67.28-148.08c-5.62-40.65-83.16-90.93-68.57-126.53,15-36.62,106.41-18.15,137.59-42.53,30.31-23.7,34.3-117.24,75-122.86,68.09-9.4,80,76.68,148.07,67.28S451.07,29,519.17,19.6s80,76.68,148.08,67.27c40.66-5.61,90.93-83.16,126.53-68.56,36.62,15,18.16,106.4,42.54,137.58,23.7,30.31,117.24,34.3,122.85,75,9.41,68.09-76.68,80-67.27,148.08s95.49,56.2,104.9,124.29-76.69,80-67.28,148.08c5.62,40.66,83.16,90.93,68.57,126.53-15,36.63-106.41,18.16-137.59,42.54C830.19,844.07,826.2,937.61,785.54,943.23Z"/><ellipse class="cls-2" cx="635.39" cy="768.99" rx="84.21" ry="51.41"/><ellipse class="cls-2" cx="532.47" cy="812.45" rx="14.65" ry="24" transform="translate(-167.29 138.7) rotate(-12.84)"/><ellipse class="cls-2" cx="221.44" cy="588.32" rx="50.95" ry="83.46" transform="translate(-351.15 328.9) rotate(-45)"/><ellipse class="cls-2" cx="893.82" cy="741.55" rx="32.98" ry="54.02" transform="translate(-262.56 849.22) rotate(-45)"/><ellipse class="cls-2" cx="870.73" cy="520.24" rx="36.21" ry="59.32" transform="translate(-112.83 768.07) rotate(-45)"/><ellipse class="cls-2" cx="132.25" cy="265.86" rx="32.93" ry="53.93" transform="translate(-149.25 171.38) rotate(-45)"/><ellipse class="cls-2" cx="749.74" cy="137.78" rx="32.93" ry="53.93" transform="translate(122.16 570.5) rotate(-45)"/><ellipse class="cls-2" cx="252.1" cy="919.84" rx="47.04" ry="32.93" transform="translate(-699.38 985.8) rotate(-78.64)"/><ellipse class="cls-2" cx="461.57" cy="199.53" rx="112.4" ry="68.62" transform="translate(-25.67 323.86) rotate(-37.69)"/><ellipse class="cls-2" cx="612.52" cy="265.86" rx="33.35" ry="54.62" transform="translate(-35.56 105.07) rotate(-9.53)"/><ellipse class="cls-2" cx="118.52" cy="768.99" rx="12.27" ry="20.1" transform="matrix(0.99, -0.17, 0.17, 0.99, -125.67, 30.23)"/><ellipse class="cls-2" cx="152.83" cy="730.12" rx="19.93" ry="32.64" transform="translate(-407.09 237.25) rotate(-36.82)"/><path class="cls-3" d="M344.78,603.84c-13.47-15.54-31.41-7.31-32.28,14.81l-5.16,130.64c25.73-15.94,64.77-36.14,117.66-52.91Z"/><path class="cls-4" d="M746.55,657c-1.2-.55-12.75-5.64-34.88-10-22.36-4.42-55.56-8.1-99.79-5.61C583,643,549.35,647.22,510.93,655.64a679.83,679.83,0,0,0-110,33.64c-40.89,16.58-70.61,33.91-90,47C293,748.47,283.78,757,282.77,758a11,11,0,0,0,15.15,16,179.74,179.74,0,0,1,14.57-11.63c18.3-13.43,54.13-36.35,108.9-57.26a659.64,659.64,0,0,1,94.25-27.91,628.41,628.41,0,0,1,83.85-12.79c60.86-4.91,101.52,2.19,122.09,7.59A121.68,121.68,0,0,1,737.41,677a11,11,0,1,0,9.14-20Z"/><circle class="cls-5" cx="315.06" cy="406.85" r="111.82"/><circle class="cls-6" cx="315.06" cy="406.85" r="54.5"/><circle class="cls-7" cx="315.06" cy="406.85" r="34.24"/><circle class="cls-8" cx="292.19" cy="413.71" r="15.72"/><path class="cls-9" d="M423.31,402.34,178,267.55l38.89-84.08,218,171.77a9.25,9.25,0,0,0,12-.45l23.38-21.52,5.94,29.18c5.94,29.22-23.92,53.76-50.84,40.95C424.69,403.07,424,402.72,423.31,402.34Z"/><circle class="cls-5" cx="717.28" cy="406.85" r="111.82"/><circle class="cls-6" cx="717.28" cy="406.85" r="54.5"/><circle class="cls-7" cx="717.28" cy="406.85" r="34.24"/><circle class="cls-8" cx="694.41" cy="413.71" r="15.72"/><path class="cls-9" d="M609,402.34l245.3-134.79-38.89-84.08-218,171.77a9.25,9.25,0,0,1-12-.45l-23.38-21.52-5.94,29.18C550.18,391.67,580,416.21,607,403.4,607.65,403.07,608.35,402.72,609,402.34Z"/></svg>