<svg xmlns="http://www.w3.org/2000/svg" viewBox="0 0 317.47 159.37"><defs><style>.cls-1{fill:#007070;}.cls-2{fill:#44bcbc;}.cls-3{fill:#fff;}.cls-4{fill:#ab2292;}.cls-5{fill:#003535;}.cls-6{fill:#c2d79d;}.cls-7{fill:#788a55;}.cls-8{fill:#fff591;}.cls-9{fill:#e10614;}.cls-10{fill:#891818;}.cls-11{fill:none;}.cls-12{fill:#7a6958;}.cls-13{fill:#90325a;}.cls-14{fill:#fffce1;}.cls-15{fill:#5e3d6c;}.cls-16{fill:#170c66;}.cls-17{fill:#55abab;}.cls-18{fill:#0e5d5d;}.cls-19{fill:#3c3c3a;}.cls-20{fill:#ff7a67;}.cls-21{fill:#e10023;}.cls-22{fill:#00b7ad;}.cls-23{fill:#005952;}</style></defs><title>viruspel_svg1</title><g id="Laag_2" data-name="Laag 2"><g id="Laag_6" data-name="Laag 6"><circle class="cls-1" cx="71.37" cy="87.99" r="71.36"/><circle class="cls-2" cx="71.37" cy="87.99" r="64.88"/><circle class="cls-3" cx="67.7" cy="71.21" r="33.55"/><circle class="cls-4" cx="82.64" cy="69.85" r="16.35"/><circle class="cls-5" cx="82.64" cy="69.85" r="10.27"/><circle class="cls-3" cx="76.38" cy="73.33" r="4.72"/><path class="cls-1" d="M42.72,123.69a26,26,0,0,0,5.61,3.24,43.26,43.26,0,0,0,15.54,3.56,58,58,0,0,0,15.3-1.37,61.62,61.62,0,0,0,16.27-6,52.2,52.2,0,0,0,12.89-9.74,32,32,0,0,0,3.89-4.77,4,4,0,0,0-.27-3.85c-.74-1.19-1.82-1.39-2.41-.45a28.08,28.08,0,0,1-2,2.58,50.64,50.64,0,0,1-15.6,11.87,59.64,59.64,0,0,1-14,4.89A56.11,56.11,0,0,1,65.29,125a40.8,40.8,0,0,1-19-4.53,20.41,20.41,0,0,1-2.56-1.6,1.26,1.26,0,0,0-1.08-.33A1.58,1.58,0,0,0,41.56,120,4.18,4.18,0,0,0,42.72,123.69Z"/><circle class="cls-6" cx="209.13" cy="66.25" r="30.93"/><path class="cls-7" d="M213.55,97.77a31.83,31.83,0,1,1,27.1-35.95A31.86,31.86,0,0,1,213.55,97.77ZM205,36.51a30,30,0,1,0,33.91,25.56A30.06,30.06,0,0,0,205,36.51Z"/><path class="cls-6" d="M224.06,88.62c0,.17,0,.34.05.52a5.89,5.89,0,1,0,8-6.31"/><path class="cls-7" d="M230.85,94.78a6.54,6.54,0,0,1-7.36-5.56,5.32,5.32,0,0,1-.06-.56A.64.64,0,0,1,224,88a.63.63,0,0,1,.66.6,3.59,3.59,0,0,0,.05.46,5.26,5.26,0,1,0,7.12-5.63.63.63,0,0,1,.46-1.18,6.53,6.53,0,0,1-1.47,12.54Z"/><path class="cls-6" d="M205.3,93.21c-.06.1-.11.22-.17.33a4.28,4.28,0,1,0,7.34-.89"/><path class="cls-7" d="M210.83,99.73a4.82,4.82,0,0,1-6.19-6.4c.06-.13.12-.26.19-.38a.53.53,0,1,1,.94.51c-.05.1-.1.2-.14.3a3.69,3.69,0,0,0,0,2.86A3.74,3.74,0,1,0,212,93a.54.54,0,0,1,.86-.65,4.83,4.83,0,0,1-2.07,7.4Z"/><path class="cls-6" d="M186.3,82.32l-.38,0a4.45,4.45,0,1,0,4.76,6"/><path class="cls-7" d="M187.23,91.73a5,5,0,0,1-1.39-9.93l.43,0a.55.55,0,0,1,.59.53.56.56,0,0,1-.53.59l-.34,0a3.89,3.89,0,1,0,4.17,5.27.56.56,0,0,1,.73-.31.55.55,0,0,1,.32.72A5,5,0,0,1,187.23,91.73Z"/><path class="cls-6" d="M180.29,62.43l-.21-.17a3.1,3.1,0,1,0-.62,5.3"/><path class="cls-7" d="M178.7,68.18a3.49,3.49,0,0,1-3.27-5.55,3.49,3.49,0,0,1,4.88-.68l.24.19a.39.39,0,0,1,0,.55.37.37,0,0,1-.54,0l-.19-.15a2.7,2.7,0,1,0-.54,4.64.38.38,0,0,1,.51.2.38.38,0,0,1-.2.51A3.64,3.64,0,0,1,178.7,68.18Z"/><path class="cls-6" d="M196.09,43.91c0-.2,0-.4-.05-.6a6.89,6.89,0,1,0-9.33,7.37"/><path class="cls-7" d="M186.79,51.31a.67.67,0,0,1-.31,0,7.52,7.52,0,1,1,10.18-8.05c0,.22.05.44.06.65a.64.64,0,0,1-.59.67.64.64,0,0,1-.67-.6,3.51,3.51,0,0,0-.05-.55,6.26,6.26,0,1,0-8.47,6.71.63.63,0,0,1-.15,1.21Z"/><path class="cls-6" d="M231.84,48.82l.33,0a3.85,3.85,0,1,0-4.12-5.21"/><path class="cls-7" d="M232.24,49.27c-.13,0-.25,0-.38,0a.48.48,0,1,1-.05-1l.29,0a3.36,3.36,0,1,0-3.6-4.55.47.47,0,0,1-.62.27.5.5,0,0,1-.28-.63,4.33,4.33,0,1,1,4.64,5.87Z"/><path class="cls-6" d="M214.83,38.29,215,38a3.85,3.85,0,1,0-6.64.25"/><path class="cls-7" d="M215.43,38.23c-.06.11-.12.22-.19.33a.49.49,0,0,1-.67.14.49.49,0,0,1-.14-.67l.15-.26a3.36,3.36,0,1,0-5.8.22.49.49,0,0,1-.15.67.5.5,0,0,1-.67-.15,4.33,4.33,0,1,1,7.47-.28Z"/><path class="cls-6" d="M236.91,70.23a3.7,3.7,0,0,0,.29.24,4.3,4.3,0,1,0,.86-7.36"/><path class="cls-7" d="M240.45,71.83a4.78,4.78,0,0,1-3.58-.93,3.92,3.92,0,0,1-.33-.27.54.54,0,0,1,0-.76.55.55,0,0,1,.77,0l.25.21a3.75,3.75,0,1,0,.75-6.44.54.54,0,1,1-.43-1,4.83,4.83,0,0,1,6.73,3.75,4.84,4.84,0,0,1-4.12,5.46Z"/><path class="cls-8" d="M219.87,51.65a13,13,0,0,0-1.43-4.39A14.63,14.63,0,0,1,213,51.61a18.53,18.53,0,0,1-2.23.9c-.3.11-.61.2-.92.29A6.44,6.44,0,0,1,197,53c0-.19,0-.39-.05-.59a12.94,12.94,0,0,1-3.09-1.72,12.92,12.92,0,0,0-.16,4.61,13.2,13.2,0,1,0,26.15-3.67Z"/><path class="cls-9" d="M204.29,58.5a6.45,6.45,0,0,0,5.51-5.7,21,21,0,0,1-2.55.57A4,4,0,0,1,204,56.13a4,4,0,0,1-3.24-1A1.84,1.84,0,0,1,199,53.57a2,2,0,0,1,0-.49,15.54,15.54,0,0,1-2-.65c0,.2,0,.4.05.59A6.44,6.44,0,0,0,204.29,58.5Z"/><path class="cls-10" d="M205.73,53.56a19.93,19.93,0,0,1-3,.07h-.09a1.85,1.85,0,0,1-1.57,1.51,1.53,1.53,0,0,1-.37,0,4,4,0,0,0,3.24,1,4,4,0,0,0,3.29-2.76l-.46.07Z"/><path class="cls-3" d="M199,53.08a2,2,0,0,0,0,.49,1.84,1.84,0,0,0,1.72,1.59,4,4,0,0,1-1.2-1.95Z"/><path class="cls-3" d="M202.66,53.63a18.8,18.8,0,0,1-2.3-.26l-.84-.16a4,4,0,0,0,1.2,1.95,1.53,1.53,0,0,0,.37,0A1.85,1.85,0,0,0,202.66,53.63Z"/><path class="cls-11" d="M199.46,79.41l-.54,1.45a30.61,30.61,0,0,1,3.31-1.26l-.24-.41A1.35,1.35,0,0,0,199.46,79.41Z"/><path class="cls-11" d="M220,76.67l-.18.7a26.88,26.88,0,0,1,3.95.55l-1.28-1.74A1.35,1.35,0,0,0,220,76.67Z"/><path class="cls-12" d="M199.46,79.41a1.35,1.35,0,0,1,2.53-.22l.24.41a48.07,48.07,0,0,1,8.05-1.82,47.15,47.15,0,0,1,9.52-.41l.18-.7a1.35,1.35,0,0,1,2.49-.49l1.28,1.74a14.58,14.58,0,0,1,2.27.68l.16-.36h0C227.56,75,224.41,70.55,219,70a40.32,40.32,0,0,0-9.76.17,39.87,39.87,0,0,0-9.43,2.53c-5.07,2-6.89,7.14-4.66,9.92h0l.26.31a17,17,0,0,1,3.54-2Z"/><path class="cls-13" d="M225.2,79.88A6.81,6.81,0,0,0,226,78.6a14.58,14.58,0,0,0-2.27-.68Z"/><path class="cls-13" d="M202.23,79.6l2.86,4.9a27.1,27.1,0,0,1,12.52-1.64c.26,0,.52,0,.78,0l1.41-5.53a47.15,47.15,0,0,0-9.52.41A48.07,48.07,0,0,0,202.23,79.6Z"/><path class="cls-13" d="M197.56,84.52l1.36-3.66a17,17,0,0,0-3.54,2A6.9,6.9,0,0,0,197.56,84.52Z"/><path class="cls-14" d="M225.2,79.88l-2.73-3.7a1.35,1.35,0,0,0-2.49.49l-1.59,6.23A8.68,8.68,0,0,0,225.2,79.88Z"/><path class="cls-14" d="M199.46,79.41l-1.9,5.11a9.1,9.1,0,0,0,7.08.16l.45-.18L202,79.19A1.35,1.35,0,0,0,199.46,79.41Z"/><path class="cls-4" d="M303.85,66.4c-4.78,1.36-6.5-4.69-11.29-3.33s-3.06,7.41-7.85,8.77-6.5-4.69-11.28-3.33c-2.86.81-5.68,6.87-8.38,6.18s-2.37-7.44-4.43-9.43-8.74-1.28-9.55-4.13c-1.36-4.79,4.68-6.51,3.33-11.29S247,46.77,245.63,42s4.69-6.5,3.33-11.29c-.81-2.85-6.87-5.67-6.18-8.37s7.44-2.37,9.43-4.43,1.28-8.75,4.13-9.56c4.79-1.36,6.5,4.69,11.29,3.33s3.07-7.4,7.85-8.76S282,7.6,286.76,6.24c2.86-.81,5.68-6.87,8.38-6.19s2.37,7.45,4.43,9.43,8.75,1.28,9.56,4.14c1.36,4.78-4.69,6.5-3.33,11.28s7.4,3.07,8.76,7.86-4.69,6.5-3.33,11.28c.81,2.86,6.87,5.68,6.18,8.38S310,54.79,308,56.85,306.71,65.59,303.85,66.4Z"/><ellipse class="cls-15" cx="291.34" cy="55.43" rx="6.09" ry="3.72" transform="translate(-4.88 41.02) rotate(-7.99)"/><ellipse class="cls-15" cx="284.4" cy="59.58" rx="1.06" ry="1.74" transform="translate(-2.6 105.04) rotate(-20.83)"/><ellipse class="cls-15" cx="259.87" cy="46.65" rx="3.69" ry="6.04" transform="translate(66.18 226.07) rotate(-52.99)"/><ellipse class="cls-15" cx="309.58" cy="50.87" rx="2.39" ry="3.91" transform="translate(82.6 267.45) rotate(-52.99)"/><ellipse class="cls-15" cx="305.7" cy="35.24" rx="2.62" ry="4.29" transform="translate(93.53 258.13) rotate(-52.99)"/><ellipse class="cls-15" cx="250.23" cy="24.44" rx="2.38" ry="3.9" transform="translate(80.08 209.54) rotate(-52.99)"/><ellipse class="cls-15" cx="293.19" cy="9.06" rx="2.38" ry="3.9" transform="translate(109.46 237.72) rotate(-52.99)"/><ellipse class="cls-15" cx="265.4" cy="70.09" rx="3.4" ry="2.38" transform="translate(179.81 330.9) rotate(-86.63)"/><ellipse class="cls-15" cx="273.16" cy="16.38" rx="8.13" ry="4.96" transform="translate(70.6 200.37) rotate(-45.68)"/><ellipse class="cls-15" cx="284.64" cy="19.61" rx="2.41" ry="3.95" transform="translate(7.3 86.58) rotate(-17.52)"/><ellipse class="cls-15" cx="254.31" cy="60.63" rx="0.89" ry="1.45" transform="translate(-6.46 79.35) rotate(-17.52)"/><ellipse class="cls-15" cx="256.38" cy="57.5" rx="1.44" ry="2.36" transform="translate(33.97 197.39) rotate(-44.81)"/><path class="cls-14" d="M268.86,46.52c-1.12-1-2.33-.21-2.17,1.38l.95,9.42a38.23,38.23,0,0,1,7.9-5Z"/><path class="cls-16" d="M298.18,46.29a11.84,11.84,0,0,0-2.6-.37,29.26,29.26,0,0,0-7.21.6,46.8,46.8,0,0,0-7.09,2,49.37,49.37,0,0,0-7.54,3.52,34.73,34.73,0,0,0-6,4.27,15.69,15.69,0,0,0-1.8,1.84.78.78,0,0,0,.12,1.11.79.79,0,0,0,1.12-.12,11,11,0,0,1,.93-1,33.36,33.36,0,0,1,7.23-5.2,48.41,48.41,0,0,1,12.35-4.71,26.8,26.8,0,0,1,8.82-.68,9.63,9.63,0,0,1,1.18.2.74.74,0,0,0,.51,0,.8.8,0,0,0,.48-.52A.79.79,0,0,0,298.18,46.29Z"/><circle class="cls-8" cx="264.75" cy="32.7" r="8.09"/><circle class="cls-17" cx="262.71" cy="32.7" r="3.94"/><circle class="cls-18" cx="262.71" cy="32.7" r="2.48"/><circle class="cls-3" cx="261.14" cy="33.43" r="1.14"/><path class="cls-19" d="M272.46,31.29,253.53,24.1l1.94-6.41L272.82,27.8a.66.66,0,0,0,.85-.15l1.46-1.78.72,2a2.65,2.65,0,0,1-3.23,3.45Z"/><circle class="cls-8" cx="293.57" cy="28.66" r="8.09"/><circle class="cls-17" cx="291.53" cy="28.66" r="3.94"/><circle class="cls-18" cx="291.53" cy="28.66" r="2.48"/><circle class="cls-3" cx="289.96" cy="29.38" r="1.14"/><path class="cls-19" d="M285.77,29.43,302,17.3l-3.63-5.63-13.89,14.5a.67.67,0,0,1-.86.09L281.71,25l-.14,2.15a2.65,2.65,0,0,0,4.06,2.42Z"/><path class="cls-20" d="M242.3,46.49c1.63-4.31,6.55-5,9.32-1.3,6,8.1,12.68,16.28,19,24.52a210,210,0,0,1,16.94,24.93c2.11,3.83-.88,9.35-4.93,9.92L258.21,108l-2.49.35-26.9,3.78c-4,.57-8.41-3.92-7.42-8.19a216.67,216.67,0,0,1,9.46-28.63C234.65,65.63,238.77,55.94,242.3,46.49Z"/><path class="cls-21" d="M242.19,46.44a6.13,6.13,0,0,1,1.94-2.72,5.12,5.12,0,0,1,6-.27,6.38,6.38,0,0,1,1.33,1.12,8.64,8.64,0,0,1,.56.67l.54.67c.71.9,1.43,1.8,2.16,2.69l2.22,2.68q2.24,2.69,4.52,5.38c3,3.6,6.07,7.22,9,10.93s5.72,7.46,8.32,11.26c1.3,1.91,2.56,3.83,3.76,5.75s2.34,3.86,3.42,5.8c.55,1,1.08,1.93,1.59,2.9.13.24.26.48.38.72a8.34,8.34,0,0,1,.38.79,6.31,6.31,0,0,1,.42,1.8,8.44,8.44,0,0,1-3,6.92,6.12,6.12,0,0,1-3.13,1.44l-3,.43c-2,.29-4.05.57-6.08.9l-3,.47-3,.49c-2,.32-4,.68-6.05,1l-6,1-3,.51-3,.5c-4,.65-8,1.26-12,1.88l-6,.92-1.5.22c-.26,0-.48.08-.81.11a6,6,0,0,1-.95,0,7,7,0,0,1-2-.4,9,9,0,0,1-1.93-1,10,10,0,0,1-3.07-3.25,8.3,8.3,0,0,1-.87-2,7.23,7.23,0,0,1-.25-2.1c0-.17,0-.35,0-.51a4,4,0,0,1,.08-.5,1.84,1.84,0,0,1,.05-.25v-.11l0-.1.09-.4c.13-.52.26-1.06.4-1.59.27-1.06.56-2.12.87-3.19,1.22-4.27,2.69-8.58,4.32-12.9s3.47-8.64,5.38-13c1-2.15,1.92-4.3,2.89-6.45l1.45-3.22c.47-1.08.95-2.15,1.42-3.22C238.81,55,240.59,50.71,242.19,46.44Zm.22.1c-1.59,4.29-3.24,8.64-4.87,13.05-.4,1.1-.81,2.2-1.22,3.31l-1.2,3.32c-.8,2.22-1.6,4.45-2.38,6.67-1.58,4.44-3.12,8.88-4.6,13.25s-2.86,8.71-4,13c-.3,1.07-.58,2.13-.85,3.2l-.39,1.58c0,.14-.06.27-.1.4l0,.1v.09l0,.15c0,.11,0,.21,0,.32s0,.21,0,.32a4.75,4.75,0,0,0,.13,1.29,5.46,5.46,0,0,0,.51,1.26,6.23,6.23,0,0,0,1.87,2.08,4.87,4.87,0,0,0,2.45.9,5.87,5.87,0,0,0,1.34-.08l1.54-.2,6.15-.79c4.11-.53,8.21-1.06,12.31-1.54l3.08-.36,3.07-.34,6.14-.68c2-.23,4.09-.45,6.13-.7l3.06-.36,3-.38c2-.25,4.07-.54,6.11-.81l3.05-.43a5.25,5.25,0,0,0,2.73-1.3,7.16,7.16,0,0,0,1.92-2.72,6.49,6.49,0,0,0,.45-3.22,5.37,5.37,0,0,0-.43-1.46c-.2-.43-.51-.9-.78-1.36-.57-.93-1.15-1.86-1.74-2.78Q283,88.54,281,85.78c-1.29-1.85-2.63-3.69-4-5.54-2.72-3.71-5.55-7.43-8.38-11.19S263,61.5,260.22,57.7q-2.07-2.87-4.11-5.71c-.68-1-1.36-1.9-2-2.84s-1.35-1.89-2-2.83c-.33-.46-.66-1-1-1.37a6,6,0,0,0-1.17-1.08,5.12,5.12,0,0,0-1.39-.68,4.63,4.63,0,0,0-1.47-.21,4.58,4.58,0,0,0-2.79,1A5.78,5.78,0,0,0,242.41,46.54Z"/><path class="cls-8" d="M270.38,96.56q-1.25,3.93-2.87,7.82a78.59,78.59,0,0,1-6.33-4.87c-1.11,2.46-2.35,4.9-3.71,7.29-2-1.84-4-3.75-5.77-5.73-1.38,2.26-2.88,4.48-4.51,6.64q-2.73-3.17-5.12-6.5a74.58,74.58,0,0,1-5.26,5.89,122.57,122.57,0,0,1-4.51-14c1.67,1.26,3.41,2.45,5.2,3.56a69.34,69.34,0,0,0,4.67-6c1.39,2.21,2.9,4.38,4.53,6.49a75.65,75.65,0,0,0,3.92-6.62c1.62,2,3.35,3.94,5.19,5.81q1.76-3.54,3.13-7.17a73.44,73.44,0,0,0,5.77,5q1.35-3.8,2.31-7.62,2.75,2.3,5.75,4.33c.74-1.07,1.45-2.16,2.13-3.26A99.42,99.42,0,0,1,273.1,98C272.18,97.55,271.27,97.06,270.38,96.56Z"/><path class="cls-8" d="M261.09,70.32a11.48,11.48,0,0,0-1.23-3.79,12.6,12.6,0,0,1-4.74,3.75,15.89,15.89,0,0,1-1.93.79l-.8.25a5.55,5.55,0,0,1-11,.19,4.87,4.87,0,0,1,0-.51,11,11,0,0,1-2.66-1.49,11.25,11.25,0,0,0-.15,4,11.4,11.4,0,1,0,22.57-3.17Z"/><path class="cls-22" d="M247.65,76.23a5.54,5.54,0,0,0,4.74-4.91,18.6,18.6,0,0,1-2.2.48,3.48,3.48,0,0,1-5.62,1.55A1.61,1.61,0,0,1,243.08,72a1.87,1.87,0,0,1,0-.41,15.56,15.56,0,0,1-1.75-.56,4.87,4.87,0,0,0,0,.51A5.54,5.54,0,0,0,247.65,76.23Z"/><path class="cls-23" d="M248.89,72a18.56,18.56,0,0,1-2.57.06s0,0,0,0h0a1.61,1.61,0,0,1-1.35,1.31h-.32a3.48,3.48,0,0,0,5.62-1.55l-.39.07C249.49,71.91,249.19,72,248.89,72Z"/><path class="cls-3" d="M243.08,71.56a1.87,1.87,0,0,0,0,.41,1.61,1.61,0,0,0,1.49,1.38,3.41,3.41,0,0,1-1-1.69Z"/><path class="cls-3" d="M246.24,72a18.07,18.07,0,0,1-2-.22q-.36-.06-.72-.15a3.41,3.41,0,0,0,1,1.69h.32A1.61,1.61,0,0,0,246.24,72Z"/><path class="cls-8" d="M255.66,57.88a7.57,7.57,0,0,0-.79-2.42,8.07,8.07,0,0,1-3,2.4,11.28,11.28,0,0,1-1.23.5l-.51.16a3.55,3.55,0,0,1-7,.12l0-.33a6.8,6.8,0,0,1-1.7-1,7.28,7.28,0,1,0,14.33.52Z"/><path class="cls-22" d="M247.07,61.66a3.53,3.53,0,0,0,3-3.14,12.4,12.4,0,0,1-1.4.31,2.24,2.24,0,0,1-3.6,1,1,1,0,0,1-.95-.88,1.22,1.22,0,0,1,0-.27,9.77,9.77,0,0,1-1.12-.36l0,.33A3.56,3.56,0,0,0,247.07,61.66Z"/><path class="cls-23" d="M247.86,58.94a11.3,11.3,0,0,1-1.64,0h-.05a1,1,0,0,1-.86.84h-.21a2.24,2.24,0,0,0,3.6-1l-.26,0Z"/><path class="cls-3" d="M244.15,58.67a1.22,1.22,0,0,0,0,.27,1,1,0,0,0,.95.88,2.19,2.19,0,0,1-.66-1.08Z"/><path class="cls-3" d="M246.17,59a10.28,10.28,0,0,1-1.27-.14c-.16,0-.31-.06-.46-.09a2.19,2.19,0,0,0,.66,1.08h.21A1,1,0,0,0,246.17,59Z"/></g></g></svg>