<svg id="Laag_1" width='64px' height='64px' data-name="Laag 1" xmlns="http://www.w3.org/2000/svg" viewBox="0 0 1000 1000"><defs><style>.cls-1{fill:#ff7d6d;}.cls-2{fill:#c00027;}.cls-3{fill:#fff496;}.cls-4{fill:#67b7ad;}.cls-5{fill:#2c5953;}.cls-6{fill:#fff;}</style></defs><title>Virus_2</title><path class="cls-1" d="M452.61,53.16c30.57-55.86,99.2-55.86,130,0,67,122.56,142.35,247.25,212.87,372.2S931.74,675.52,979.44,799.1c21.63,56.5-29.93,126.35-86.42,126.31H142.12c-56.5,0-107.7-69.81-85.88-126.31,48.14-123.59,114-248.79,184.47-373.74S386.19,175.72,452.61,53.16Z"/><path class="cls-2" d="M451.21,52.24c7.61-14.22,18.75-26,31.69-33.5a69.11,69.11,0,0,1,42-9.5c14.42,1.22,28.63,7.29,40.63,17.36a89.75,89.75,0,0,1,16.06,17.78c2.34,3.33,4.48,7,6.43,10.31l6,10.22q12.07,20.45,24.46,41t25.21,41q25.44,41,51.54,82.25C729.75,284.15,764.43,339.66,797.13,396s63.94,113,92.3,170.18q21.2,42.9,40.33,85.88,19,43,35.77,85.89,8.38,21.41,16.13,42.76,2,5.33,3.85,10.65a111.73,111.73,0,0,1,3.63,11.51,86.61,86.61,0,0,1,2.35,25.45c-1.56,35.15-24.65,70.92-54,89-14.64,9.22-30.71,13.86-45.65,13.74-14.12-.06-28.24-.12-42.38,0-28.29.2-56.53.12-84.84.65l-42.43.6-42.43,1c-28.27.56-56.54,1.5-84.76,2.26l-84.58,2.47-42.22,1.22-42.17,1c-56.21,1.26-112.36,1.92-168.47,2.61l-84.12,1-21,.21c-3.59,0-6.66.14-11.28-.06a84.42,84.42,0,0,1-13-1.56,99.1,99.1,0,0,1-26.3-9.31A123,123,0,0,1,77.2,916a136,136,0,0,1-35.84-50.31,119,119,0,0,1-7.88-29.58,100.53,100.53,0,0,1,.57-29.29c.43-2.33.82-4.7,1.46-6.94a69.29,69.29,0,0,1,2-6.71c.38-1.09.76-2.18,1.15-3.27.09-.27.19-.54.29-.81s.17-.44.26-.66l.51-1.31,2.07-5.25q4.17-10.49,8.51-21,8.68-21,18-42.07c25-56.06,53.29-112.27,83.91-168.31S216.31,439,250.68,383.68q25.85-41.43,52-82.76l26-41.32q12.85-20.72,25.64-41.4C388.41,163.08,421,107.66,451.21,52.24Zm2.8,1.84c-30,55.54-61,112-91.66,169.2q-11.49,21.47-23.07,43-11.43,21.58-22.88,43.21Q293.57,352.74,271,396.12c-30.08,57.79-59.68,115.51-88.36,172.55s-55.9,113.72-80.16,170q-9.15,21.09-17.72,42.12-4.27,10.51-8.41,21c-.68,1.74-1.37,3.49-2,5.24l-.51,1.31-.25.66-.18.52c-.24.69-.47,1.38-.71,2.08a37,37,0,0,0-1.26,4.2,41.17,41.17,0,0,0-1,4.3,63.21,63.21,0,0,0-.63,18,73.68,73.68,0,0,0,4.5,18.29,87.91,87.91,0,0,0,9,17.26,85.36,85.36,0,0,0,12.68,14.72c9.41,8.73,20.49,14.74,31.76,17.09,5.81,1.27,10.67,1.37,18.48,1.39l21.45.2,85.8,1c57.18.69,114.31,1.35,171.4,2.62l42.79,1,42.76,1.22,85.37,2.48c28.43.76,56.82,1.7,85.2,2.26l42.55,1,42.55.61c28.35.53,56.76.45,85.13.64,14.18.11,28.39,0,42.6,0,13.33.09,27.28-4.35,39.86-12.53a99.11,99.11,0,0,0,31.51-33.61c7.83-13.57,12.32-28.8,12.29-43.22a70.38,70.38,0,0,0-3-20.75c-1.94-6.23-5.25-13.33-8.1-20.19q-8.91-20.65-18.48-41.35-19.15-41.37-40.6-82.92Q886,623.65,863.16,581.77C833,525.85,801.53,469.41,770,412.57S707.07,298.35,676.42,241q-22.87-43.11-45.37-86-11.2-21.43-22.23-42.81t-22-42.51c-3.67-7-7.14-14.41-10.92-20.7a80.47,80.47,0,0,0-14-17,70.37,70.37,0,0,0-17.6-12,66.25,66.25,0,0,0-19.81-5.76,64.48,64.48,0,0,0-40,8C472,29.21,461.36,40.48,454,54.08Z"/><path class="cls-3" d="M666.39,438.42c0,98.33-69.08,178.05-154.27,178.05s-154.27-79.72-154.27-178a202,202,0,0,1,9.4-61.33c17.36,20.54,41.78,37.14,70.59,47.74a194.9,194.9,0,0,0,26.6,7.8,10.44,10.44,0,0,1,.82-1c-.06.4-.09.76-.13,1.16a212.31,212.31,0,0,0,34.52,4.66c4.11.26,8.27.37,12.47.37a219.26,219.26,0,0,0,47-5,197.7,197.7,0,0,0,27.3-7.94c28.81-10.6,53.23-27.2,70.58-47.74A202,202,0,0,1,666.39,438.42Z"/><path class="cls-4" d="M587.31,438.42c0,47.92-33.67,86.78-75.19,86.78s-75.19-38.86-75.19-86.78a101.37,101.37,0,0,1,.91-13.59,194.9,194.9,0,0,0,26.6,7.8,10.44,10.44,0,0,1,.82-1c-.06.4-.09.76-.13,1.16a212.31,212.31,0,0,0,34.52,4.66c4.11.26,8.27.37,12.47.37a219.26,219.26,0,0,0,47-5,197.7,197.7,0,0,0,27.3-7.94A101.37,101.37,0,0,1,587.31,438.42Z"/><path class="cls-5" d="M559.35,438.42c0,30.11-21.14,54.52-47.23,54.52-14.39,0-27.26-7.4-35.88-19.09a59.51,59.51,0,0,1-11.36-35.43c0-1.9.1-3.79.25-5.65a212.31,212.31,0,0,0,34.52,4.66c4.11.26,8.27.37,12.47.37a219.26,219.26,0,0,0,47-5C559.26,434.63,559.35,436.52,559.35,438.42Z"/><path class="cls-6" d="M502.24,449.34c0,13.84-9.72,25-21.68,25a18.71,18.71,0,0,1-4.32-.51c-9.91-2.29-17.35-12.38-17.35-24.51a27.15,27.15,0,0,1,5.55-16.71,10.44,10.44,0,0,1,.82-1c-.06.4-.09.76-.13,1.16a212.31,212.31,0,0,0,34.52,4.66A28.23,28.23,0,0,1,502.24,449.34Z"/><path class="cls-3" d="M465.26,431.61c-.06.4-.09.76-.13,1.16a4.22,4.22,0,0,1-.69-.14A10.44,10.44,0,0,1,465.26,431.61Z"/><path class="cls-3" d="M615.05,222.65c0,65.61-46.08,118.81-102.93,118.81s-102.94-53.2-102.94-118.81a134.55,134.55,0,0,1,6.28-40.92c11.58,13.7,27.87,24.79,47.1,31.86a130.22,130.22,0,0,0,17.75,5.2,6,6,0,0,1,.54-.68c0,.26-.06.51-.08.77a140.86,140.86,0,0,0,23,3.11c2.74.17,5.52.25,8.32.25a146.29,146.29,0,0,0,31.35-3.36,131.8,131.8,0,0,0,18.21-5.29c19.22-7.07,35.52-18.16,47.1-31.86A134.85,134.85,0,0,1,615.05,222.65Z"/><path class="cls-4" d="M562.29,222.65c0,32-22.46,57.91-50.17,57.91S462,254.63,462,222.65a67.47,67.47,0,0,1,.61-9.06,130.22,130.22,0,0,0,17.75,5.2,6,6,0,0,1,.54-.68c0,.26-.06.51-.08.77a140.86,140.86,0,0,0,23,3.11c2.74.17,5.52.25,8.32.25a146.29,146.29,0,0,0,31.35-3.36,131.8,131.8,0,0,0,18.21-5.29A67.47,67.47,0,0,1,562.29,222.65Z"/><path class="cls-5" d="M543.64,222.65c0,20.1-14.11,36.38-31.52,36.38-9.6,0-18.19-4.93-23.94-12.73a39.72,39.72,0,0,1-7.58-23.65c0-1.26.06-2.53.17-3.77a140.86,140.86,0,0,0,23,3.11c2.74.17,5.52.25,8.32.25a146.29,146.29,0,0,0,31.35-3.36C543.57,220.12,543.64,221.39,543.64,222.65Z"/><path class="cls-6" d="M505.53,229.94c0,9.23-6.49,16.7-14.47,16.7a13,13,0,0,1-2.88-.34c-6.61-1.54-11.58-8.27-11.58-16.36a18.09,18.09,0,0,1,3.71-11.15,6,6,0,0,1,.54-.68c0,.26-.06.51-.08.77a140.86,140.86,0,0,0,23,3.11A18.86,18.86,0,0,1,505.53,229.94Z"/><path class="cls-3" d="M480.85,218.11c0,.26-.06.51-.08.77a2.34,2.34,0,0,1-.46-.09A6,6,0,0,1,480.85,218.11Z"/><path class="cls-3" d="M740.73,792.46Q716.19,843.9,686.5,893.9a1093.5,1093.5,0,0,1-77.37-78.77q-29.88,47.37-64.77,92.6-36.4-43.49-67.9-89.52Q441.6,860.8,402,900.51,370.6,852,344.34,801.69A1041.72,1041.72,0,0,1,261,872.24a1695.59,1695.59,0,0,1-34.69-201Q257,701.86,290.64,730A978.93,978.93,0,0,0,366,657.49q22.25,49.43,49.57,97.51A1046.33,1046.33,0,0,0,482,672q27.42,45.75,59.79,89.42,30.82-45,56.68-92.11a1023.49,1023.49,0,0,0,69.29,79.86Q693.39,699.95,714,649.4q33.21,36.58,70.35,70.3,18.36-19.89,35.5-40.58a1351.29,1351.29,0,0,1-44.58,138.42Q757.63,805.33,740.73,792.46Z"/></svg>