<svg id="Laag_1" data-name="Laag 1" xmlns="http://www.w3.org/2000/svg" xmlns:xlink="http://www.w3.org/1999/xlink" viewBox="0 0 667.18 667.18"><defs><style>.cls-1{fill:none;}.cls-2{fill:#f4427a;}.cls-3{fill:#f4b8d9;}.cls-4{clip-path:url(#clip-path);}.cls-5{fill:#ecd1bc;}.cls-6{fill:#dcae91;}.cls-7{fill:#c35f61;}.cls-8{fill:#ff9dbe;}.cls-9{fill:#fff;}.cls-10{fill:#00a9de;}.cls-11{fill:#ff9a39;}.cls-12{fill:#653814;}.cls-13{fill:#9d328e;}.cls-14{fill:#bbccd3;}.cls-15{fill:#526499;}.cls-16{fill:#00b175;}.cls-17{fill:#ff86ae;}.cls-18{fill:#f9374b;}</style><clipPath id="clip-path"><circle class="cls-1" cx="352.38" cy="323.11" r="283.65"/></clipPath></defs><title>lichaamspel</title><circle class="cls-2" cx="333.59" cy="333.59" r="319.65"/><circle class="cls-3" cx="352.38" cy="321.93" r="283.65"/><g class="cls-4"><path class="cls-5" d="M411.7,605.24H282.11a50,50,0,0,1-50-51.1c.48-23.18.31-51.51-1.76-79-1.86-24.59-13.11-48.49-15-67.39-5.6-56.13-20.4-115.07-25.11-132.93A48.47,48.47,0,0,1,188.6,263c-.72-51,17.77-93.24,59.42-97.23a49.71,49.71,0,0,0,15.21-4.08l25.27-11.05a50,50,0,0,1,20.06-4.19h75.63a50,50,0,0,1,20.06,4.19l25.27,11.05a49.71,49.71,0,0,0,15.21,4.08c41.72,4,60.19,46.34,59.42,97.49a48.85,48.85,0,0,1-1.54,11.34c-4.68,18.43-20.21,82.05-24.95,133.13C476,425.28,466.17,450,464.25,475.15c-2.09,27.5-2.58,56.32-2.49,79.83A50.05,50.05,0,0,1,411.7,605.24Z"/><path class="cls-5" d="M387,109v30c-11,7.69-23.66,12.37-36.81,12.37h-9.09c-12.6,0-24.79-4.3-35.44-11.44V109Z"/><polygon class="cls-5" points="394.63 213.99 345.94 275.98 298.06 213.99 298.06 75.83 394.63 75.83 394.63 213.99"/><path class="cls-6" d="M394.63,88.2v42.59c-13,10.91-28.09,17.55-43.7,17.55h-10.8c-15,0-29.43-6.1-42.07-16.23V88.2Z"/><ellipse class="cls-5" cx="260.56" cy="17.42" rx="17.09" ry="33.49" transform="translate(-0.56 20.75) rotate(-4.55)"/><ellipse class="cls-5" cx="431.44" cy="17.42" rx="33.49" ry="17.09" transform="translate(379.82 446.11) rotate(-85.45)"/><path class="cls-5" d="M345.82-102.06c-53.2,0-79.28,35.59-79.28,73.4l3.1,80.44c0,37.81,34,76.51,71.85,76.51h9.09c37.81,0,71.85-38.7,71.85-76.51l3.1-80.44c0-37.81-26.51-73.4-79.71-73.4"/><path class="cls-7" d="M389,74.78a37.58,37.58,0,0,1-12.88,22.84,47,47,0,0,1-60.62-.32A37.54,37.54,0,0,1,303,74.78a4.6,4.6,0,0,1,3.33-4.91,5.53,5.53,0,0,1,1.83-.3h75.72a5.43,5.43,0,0,1,1.82.3A4.58,4.58,0,0,1,389,74.78Z"/><path class="cls-8" d="M376.13,97.62a47,47,0,0,1-60.62-.32c7.74-2.36,18.23-3.81,29.81-3.81C357.39,93.49,368.31,95.07,376.13,97.62Z"/><path class="cls-9" d="M385.68,69.87C383,78.2,366.26,84.61,346,84.61s-37-6.41-39.69-14.74a5.53,5.53,0,0,1,1.83-.3h75.72A5.43,5.43,0,0,1,385.68,69.87Z"/><path class="cls-6" d="M357.16,55.42a28.14,28.14,0,0,1-2.64,1.19c-.89.35-1.78.69-2.68,1l-.07,0-.35,0A8.74,8.74,0,0,1,345.59,56a10,10,0,0,1-3.66-4.88,10.2,10.2,0,0,1-.56-3l0-2.57.07-5c.08-3.35.17-6.7.3-10s.28-6.7.53-10a1,1,0,0,1,1-.89,1,1,0,0,1,.89.89c.24,3.35.38,6.7.52,10.05s.22,6.7.3,10.05l.08,5,0,2.46a6,6,0,0,0,.36,1.88,6.21,6.21,0,0,0,2.29,3,8,8,0,0,0,3.6,1.33l-.42.05c.93-.17,1.88-.28,2.83-.39s1.91-.18,2.89-.18a1,1,0,0,1,.94,1A1,1,0,0,1,357.16,55.42Z"/><ellipse class="cls-9" cx="310.33" cy="3" rx="19.82" ry="15.62"/><circle class="cls-10" cx="311.7" cy="3" r="9.53"/><circle cx="311.7" cy="3" r="4.96"/><circle class="cls-9" cx="309.03" cy="-1.19" r="3.81"/><path class="cls-9" d="M402.05,3c0,8.63-8.87,15.62-19.82,15.62s-19.82-7-19.82-15.62a13.73,13.73,0,0,1,4.45-9.87,23.4,23.4,0,0,1,30.73,0A13.74,13.74,0,0,1,402.05,3Z"/><circle class="cls-10" cx="380.86" cy="3" r="9.53"/><circle cx="380.86" cy="3" r="4.96"/><circle class="cls-9" cx="378.19" cy="-1.19" r="3.81"/><path class="cls-5" d="M90.85,510.64,43.47,486.23,123.84,334l81.06-149.8s20.84-33.61,55.34-12.48,13.92,53.49,13.92,53.49l-92.37,143.1Z"/><path class="cls-5" d="M-33.56,528.74l20.11-9-.72.3L6.57,506.55l1.72-.62,17.87-3.88c.68-.24,3.62-.72,4.36-.84a37.59,37.59,0,0,1,4.82-.38l11.54-20.74L93.44,506,81.88,526.77a12.75,12.75,0,0,1,.6,13L65.28,577,44.91,629.08a6,6,0,0,1-7.42,3.29A6.34,6.34,0,0,1,33,624.81S44.84,586.69,43.56,586s-26.21,48.81-26.21,48.81a6.07,6.07,0,0,1-7.8,2.45,6.24,6.24,0,0,1-3.57-8s21.6-49.4,19.87-50.36S-4.37,632.68-4.37,632.68a6.09,6.09,0,0,1-7.9,2.29,6.2,6.2,0,0,1-3.36-8s24.18-54.7,22.91-55.41-31.81,41.75-31.81,41.75"/><path class="cls-5" d="M-35.06,606.32l31.2-51.86a11.58,11.58,0,0,1,1.06-2.59s13.69-21.08,13.35-22.39S-5.6,535.65-5.6,535.65l-.72.3-21.43,6"/><ellipse class="cls-5" cx="106.8" cy="426.51" rx="79.06" ry="34.77" transform="translate(-323.33 335.38) rotate(-63.98)"/><path class="cls-5" d="M604,510.64l47.39-24.41L571,334l-81.06-149.8s-20.84-33.61-55.34-12.48-13.92,53.49-13.92,53.49L513,368.29Z"/><path class="cls-5" d="M657.33,632.37a6.36,6.36,0,0,0,4.46-7.56S650,586.69,651.26,586s26.21,48.81,26.21,48.81a6.08,6.08,0,0,0,7.81,2.45,6.26,6.26,0,0,0,3.57-8s-21.61-49.4-19.88-50.36,30.22,53.75,30.22,53.75a6.1,6.1,0,0,0,7.9,2.29,6.21,6.21,0,0,0,3.37-8s-24.19-54.7-22.92-55.41,31.81,41.75,31.81,41.75a6.25,6.25,0,0,0,8.14,1.31,6.08,6.08,0,0,0,2.39-8.28l-31.2-51.86a11.58,11.58,0,0,0-1.06-2.59s-13.68-21.08-13.34-22.39,16.14,6.17,16.14,6.17l.72.3,21.43,6a7.83,7.83,0,0,0,8.89-3.89,6.61,6.61,0,0,0-3.08-9.3l-20.11-9,.72.3-20.74-13.52-1.72-.62-17.87-3.88c-.68-.24-3.61-.72-4.36-.84a37.59,37.59,0,0,0-4.82-.38l-11.54-20.74L601.38,506l11.56,20.79a12.77,12.77,0,0,0-.6,13L629.54,577l20.38,52.08A6,6,0,0,0,657.33,632.37Z"/><ellipse class="cls-5" cx="588.03" cy="426.51" rx="34.77" ry="79.06" transform="translate(-127.5 301.18) rotate(-26.02)"/><path class="cls-11" d="M246.54,420.24s28.26-.85,44.48-19.08c42.46,8.18,67.39-46.34,67.39-46.34s-26.75-12.9-75.83-12.9S246.54,420.24,246.54,420.24Z"/><path class="cls-12" d="M353.31,579.29a28.14,28.14,0,0,1-2.85-.18c-2.35-.24-5.35-.69-8.24-1.13s-6.87-1-8.77-1.15a6.48,6.48,0,0,1-3.76.16c-4.28-1.09-6.27-6.4-4-10.3,1.72-3,5.14-3.48,7.76-3.45-2.29-2.2-4.94-5.83-2.36-10.19,2.14-3.62,5.55-3.72,8.32-3-1.26-2.6-1.95-6,.89-9a6.59,6.59,0,0,1,7.53-1.57,7,7,0,0,1,2.51-7.42,6.42,6.42,0,0,1,6.95-.83,6.77,6.77,0,0,1,3.2-6.34,6.36,6.36,0,0,1,6.5-.44,6.69,6.69,0,0,1,3.46-5.62,6.37,6.37,0,0,1,6-.37,6.62,6.62,0,0,1,3.41-5,6.42,6.42,0,0,1,4.72-.8,6.48,6.48,0,0,1,2.28-3.49,10.32,10.32,0,0,1,.32-1.1A6.3,6.3,0,0,1,391,503.9a6.93,6.93,0,0,1-1-5.76,6.74,6.74,0,0,1,4.23-4.94,7,7,0,0,1-1.88-6.34,6.82,6.82,0,0,1,4.17-5.26,7,7,0,0,1-2.25-6.4,6.85,6.85,0,0,1,4-5.45,7,7,0,0,1-2.51-6.34,6.9,6.9,0,0,1,3.76-5.55,7.25,7.25,0,0,1,.52-11.65,7,7,0,0,1-2.11-2.6,7.47,7.47,0,0,1-3.33.46c-4.75-.34-6.67-4-8.13-10-2.1,5.8-4.47,9.29-9.3,9.13s-6.93-3.89-8.62-9.94c-1.95,5.94-4.22,9.56-9,9.56h-.1c-4.87-.05-7.06-3.75-8.89-9.81-1.85,6.06-4,9.76-8.92,9.8h-.09c-4.81,0-7.07-3.64-9-9.61-1.71,6.06-3.82,9.79-8.68,9.94s-7.2-3.38-9.28-9.25c-1.52,6-3.5,9.73-8.29,10-4.58.29-7.09-2.81-9.32-8.09a19.24,19.24,0,0,1-2.11,6.37,6.86,6.86,0,0,1,2,4.17,7,7,0,0,1-2.59,6.52,6.53,6.53,0,0,1,4.34,5.55,7.13,7.13,0,0,1-2.57,6.81,6.54,6.54,0,0,1,4.66,5.55,6.7,6.7,0,0,1-2.55,6.95A6.53,6.53,0,0,1,303,483.3a6.71,6.71,0,0,1-2.54,7,6.54,6.54,0,0,1,4.93,5.52,6.81,6.81,0,0,1-2.6,7.15,6.93,6.93,0,0,1,5,5.56c.89,4.72-2.51,7.46-5.28,9,6.66.76,8.84,8.7,8.85,11a6.71,6.71,0,0,1-6.6,6.81,11.16,11.16,0,0,1-3.07-.26c-1-.12-2.24-.42-3.9-.55-13.86-1-22.22-1.67-23.5-9-.56-3.15-.4-9.23,1.31-10.72a6.63,6.63,0,0,1-4.8-5.55,7.11,7.11,0,0,1,2.58-7.06,6.62,6.62,0,0,1-5-5.59,6.74,6.74,0,0,1,2.68-7.15,6.61,6.61,0,0,1-5.07-5.64,6.75,6.75,0,0,1,2.79-7.19,6.59,6.59,0,0,1-5.07-5.73,6.79,6.79,0,0,1,3-7.25,6.62,6.62,0,0,1-5.09-5.89c-.53-3.65,1.39-6,3.57-7.48-2.44-.87-4.92-2.61-5.26-6.31-.57-6.39,5.87-8.39,8.62-9.24.88-.28-7.72-2.25-7.72-7.57s3.27-13.54,7.67-14.11,11.51,3,13.41,4c1.32-9.58,6.13-9.3,12.65-9.89,5.22-.47,7.62,3.53,10,10.12,1.65-6.84,3.68-11.1,8.92-11.33h.41c4.83,0,7.07,3.87,9.15,10.12,1.79-6.54,3.92-10.58,9-10.67s7.33,3.82,9.33,10.24c1.89-6.45,4.08-10.4,9.16-10.4h0c5.09,0,7.28,4,9.17,10.41,2-6.41,4.19-10.33,9.33-10.22s7.26,4.17,9,10.74c2.16-6.44,4.46-10.35,9.58-10.12,5.39.27,7.4,4.74,9,11.9,2.57-6.85,4.95-11.06,10.34-10.41a8.09,8.09,0,0,1,5.67,3.44c2.63,3.73,2.35,9.19,1,16.75,9.15-2.52,13.27-3.08,16.57-.75a7.44,7.44,0,0,1,3.11,5.41c.39,4.3-2.45,6.47-5,7.62,2.64,1.18,5.34,3.32,5.17,7.46a7,7,0,0,1-4.56,6.43,7.2,7.2,0,0,1,3.62,7A7,7,0,0,1,428,467.2a6.68,6.68,0,0,1,3.2,7,7,7,0,0,1-4.84,5.92,7.15,7.15,0,0,1,2.93,7.12,7,7,0,0,1-5.14,5.79,7.3,7.3,0,0,1-3.1,13c1.94,1.72,3.58,4.25,2.58,7.78-1.44,5.12-6.3,5.54-9.51,5.41,2.07,1.77,6.1,5.79,3.09,10.82l-1.48,2.47-2.86.67c-2.53.56-4.35-.08-8.26-2.62,1.1,2.81,3.5,9.2-1.87,12.5a6.31,6.31,0,0,1-6.37.36,6.73,6.73,0,0,1-3.5,5.37,6.27,6.27,0,0,1-5.64.46A6.59,6.59,0,0,1,384,554a6.25,6.25,0,0,1-5.14.77,6.66,6.66,0,0,1-2.88,4.43,6.36,6.36,0,0,1-4.56,1.23,6.71,6.71,0,0,1-2.31,4.14,6.53,6.53,0,0,1-3.65,1.71,7,7,0,0,1-1.5,3.68,7.49,7.49,0,0,1-2.25,2,8,8,0,0,1-.62,2.79C359.57,578.55,356.19,579.29,353.31,579.29Zm-15.54-7.45Zm-40.85-47.09a7,7,0,0,0,.58,2.76A7,7,0,0,1,296.92,524.75Z"/><path class="cls-13" d="M349.94,537.09c-8.88,0-17.69-.63-25.5-1.19l-4.27-.31c-9.86-.68-24,0-24.15,0-4.74.23-8.77-4-9-9.49s3.48-10.11,8.23-10.34c.62,0,15.17-.73,25.92,0l4.31.3c32.44,2.33,65.68-2.33,62.61-15.35-3.5-9.36-22.51-1.4-34,.15-24.34,3.3-49.51,6.7-61.88-5.95-4.68-4.78-7.16-11.43-7.18-19.22s2.39-14.64,7-19.69c12-13.24,36.57-11.87,60.3-10.55,9.74.54,18.94,1,26.31.5,8.11-.61,10.53-2.33,11-2.8,0-1.13-.2-1.38-.52-1.72-1.06-1.12-5.89-4.72-23.8-4.27-12.72.32-27.32,2.49-40.19,4.39-11.86,1.76-21.23,3.14-27.19,2.87a13.66,13.66,0,0,1-10.34-5.69c-5.16-6.91-4.62-22.88-4.43-24.91.51-5.45,4.76-9.39,9.49-8.81s8.12,5.45,7.64,10.88c-.08,1,.1,7.71.22,8.7,5-.14,13.48-1.4,22.41-2.72,36.37-5.4,65.2-8.45,77.84,4.94a23.15,23.15,0,0,1,6.07,17.22,20.6,20.6,0,0,1-5.52,13.71c-9.31,9.79-28.11,8.75-49.87,7.53-17.26-1-40.9-2.27-47.57,5.08-.82.91-1.67,2.25-1.66,5.28,0,2.65.67,3.7,1.39,4.43,6.6,6.75,30.78,3.48,48.44,1.09,23.2-3.14,41.53-5.62,50.34,4.47,2.41,2.76,5.14,7.66,4.41,15.31C404,531.39,376.62,537.09,349.94,537.09Zm39.75-93.74Z"/><path class="cls-14" d="M373.33,558c0,9-17.15,17.78-24.73,21.23a8.5,8.5,0,0,1-7.08,0c-7.59-3.45-24.73-12.25-24.73-21.23,0-11.52,12.66-17.15,28.27-17.15S373.33,546.43,373.33,558Z"/><path class="cls-15" d="M248.83,468.78c0,15.28,10.43,32.48,25.57,27.67s4-22.95,4-27.67,11.61-22-4-27.67S248.83,453.5,248.83,468.78Z"/><path class="cls-15" d="M276.45,465.78a39.34,39.34,0,0,1,8.52-1.3,29.45,29.45,0,0,1,8.79.82,18.31,18.31,0,0,1,8.39,4.57,17.06,17.06,0,0,1,4.49,8.66,28.33,28.33,0,0,1,.25,9l-1.12,8-2.25,15.94-2.25,15.94-1.13,8-.56,3.92a20,20,0,0,0-.2,3.6,10.69,10.69,0,0,0,2.09,6.29,12.85,12.85,0,0,0,5.71,3.92,41.12,41.12,0,0,0,7.41,2,54.47,54.47,0,0,1,7.93,1.84,1,1,0,0,1-.54,1.91l-.07,0c-4.88-1.08-10.41-.86-15.82-2.52a16.19,16.19,0,0,1-7.58-4.58,13.77,13.77,0,0,1-2.45-4,17.86,17.86,0,0,1-1.07-4.47,25.26,25.26,0,0,1,0-4.43c.09-1.47.27-2.71.41-4.07l.91-8,1.82-16,1.82-16,.89-7.93a22.17,22.17,0,0,0-.31-7c-.94-4.37-3.94-7.15-8.35-8.32s-9.59-.92-14.24,0l-.16,0a3,3,0,0,1-1.29-5.78Z"/><path class="cls-15" d="M441.09,468.78c0,15.28-10.44,32.48-25.57,27.67s-4-22.95-4-27.67-11.61-22,4-27.67S441.09,453.5,441.09,468.78Z"/><path class="cls-15" d="M413.47,465.78a39.43,39.43,0,0,0-8.53-1.3,29.36,29.36,0,0,0-8.78.82,18.21,18.21,0,0,0-8.39,4.57,16.91,16.91,0,0,0-4.49,8.66,28.63,28.63,0,0,0-.26,9l1.12,8,2.26,15.94,2.25,15.94,1.13,8,.56,3.92a20.92,20.92,0,0,1,.2,3.6,10.69,10.69,0,0,1-2.09,6.29,12.91,12.91,0,0,1-5.71,3.92,41.45,41.45,0,0,1-7.42,2A54.65,54.65,0,0,0,367.4,557a1,1,0,0,0,.53,1.91l.07,0c4.89-1.08,10.41-.86,15.83-2.52a16.19,16.19,0,0,0,7.58-4.58,13.77,13.77,0,0,0,2.45-4,17.41,17.41,0,0,0,1.06-4.47,25.28,25.28,0,0,0,.05-4.43c-.1-1.47-.27-2.71-.41-4.07l-.91-8-1.82-16-1.82-16-.89-7.93a21.88,21.88,0,0,1,.31-7c.93-4.37,3.93-7.15,8.34-8.32s9.6-.92,14.25,0l.16,0a2.94,2.94,0,0,0,3.41-2.38A3,3,0,0,0,413.47,465.78Z"/><path class="cls-16" d="M421.57,333.36c-10.71-7.05-11.79-8.32-17.51-12.46a4.92,4.92,0,0,1-2-5c4.37-19.58-1.43-40.66-22.95-57.1a9.06,9.06,0,0,0-10.35,0c-2.78,2.11-2.64,5.73.13,7.86C390.4,283.15,389,305.84,381,325.81c-4,6.87-7.36,15.09-10.19,17.72-5.81,5.4-19.95,23.69-23.48,36.05-4.46,15.56-7,17.46-26.05,19.42s-23.77-.16-34.49,7.89c-5.23,3.93-3.24,12.67-3.23,18.34,0,3.14,5.25,6.24,9.26,6.24h0c4,0,9.93-1.79,9.88-4.9,0-2.63-1.59-8,.81-9.81,6.55-4.93,12.6-4.09,30.19-4.43s66.17-1.22,81.66-14.67C434.63,381,441.66,346.58,421.57,333.36Z"/><rect class="cls-13" x="338.06" y="138.98" width="18.77" height="82.12"/><polygon class="cls-13" points="394.61 247.7 382.01 258.37 338.06 221.16 350.66 210.49 394.61 247.7"/><polygon class="cls-13" points="300.21 247.7 312.81 258.37 356.75 221.16 344.15 210.49 300.21 247.7"/><path class="cls-17" d="M327.52,309.74c4.37-20.39,6.63-127.81-16.44-124.5-59.44,8.55-83,116.63-87.37,137s42.72,11.28,65.76,14.82S323.16,330.12,327.52,309.74Z"/><path class="cls-17" d="M367.21,309.74c-4.37-20.39-6.63-127.81,16.44-124.5,59.44,8.55,83,116.63,87.37,137s-42.72,11.28-65.76,14.82S371.57,330.12,367.21,309.74Z"/><path class="cls-18" d="M387,255.62c0,24,42.15,58.59,42.15,58.59s42.15-34.56,42.15-58.59c0-21.78-34.63-28.91-41.11-11.87a1.09,1.09,0,0,1-2.06,0C421.7,226.54,387,233.82,387,255.62Z"/></g></svg>