<svg id="Laag_1" data-name="Laag 1" xmlns="http://www.w3.org/2000/svg" viewBox="0 0 1000 1024.79"><defs><style>.cls-1{fill:#8c6239;}.cls-2,.cls-6{fill:#dcbea7;}.cls-2{fill-rule:evenodd;}.cls-3{fill:#29abe2;}.cls-4{fill:#e9d0ba;}.cls-5{fill:#e9f0f3;}.cls-7{fill:#a58f7d;}.cls-8{fill:#b8585e;}.cls-9{fill:#ff95bd;}.cls-10{fill:#fff;}.cls-11{fill:#b3b3b3;}.cls-12{fill:#1f80aa;}.cls-13{fill:#809471;}.cls-14{fill:#9a6233;}.cls-15{fill:#ccc;}.cls-16{fill:#fcb321;}.cls-17{fill:#bd9219;}</style></defs><title>kuisvrouw</title><path class="cls-1" d="M614,534.5a632.68,632.68,0,0,1-228.76,0c9.85-72,29.56-143.12,29.56-216H584.41C584.41,391.38,604.11,462.49,614,534.5Z"/><ellipse class="cls-1" cx="499.58" cy="271.26" rx="145.99" ry="172.96"/><polygon class="cls-2" points="888.04 1024.79 836.66 837.46 799.09 632.38 683.24 658.82 738.39 859.89 768.78 1025.79 888.04 1024.79"/><polygon class="cls-2" points="112.66 1025.79 164.31 837.46 201.88 632.38 317.73 658.82 262.58 859.89 232.19 1025.79 112.66 1025.79"/><polygon class="cls-3" points="720.42 1024.79 280.57 1024.79 289.86 546.13 415.25 523.18 442.05 518.27 559.08 518.27 585.88 523.19 711.13 546.13 720.42 1024.79"/><path class="cls-4" d="M559.08,450.25v43.17c-15.77,11.07-34,17.8-53,17.8H493c-18.13,0-35.67-6.18-51-16.45V450.25Z"/><path class="cls-5" d="M285.12,773.92s-43.58,1.2-76.77-5.1-69.84-45.26-69.84-45.26S252,559.29,261.23,555s28.63-8.83,28.63-8.83Z"/><path class="cls-5" d="M715.85,773.92s43.58,1.2,76.77-5.1,69.84-45.26,69.84-45.26S748.94,559.29,739.74,555s-28.63-8.83-28.63-8.83Z"/><polygon class="cls-6" points="570.04 523.3 499.98 612.49 431.1 523.3 431.1 402.52 570.04 402.52 570.04 523.3"/><path class="cls-7" d="M570,420.31v61.27c-18.73,15.7-40.41,25.26-62.88,25.26H491.64c-21.53,0-42.35-8.78-60.54-23.35V420.31Z"/><ellipse class="cls-6" cx="377.14" cy="318.47" rx="24.59" ry="48.19" transform="translate(-24.1 30.96) rotate(-4.55)"/><ellipse class="cls-6" cx="623.01" cy="318.47" rx="48.19" ry="24.59" transform="translate(256.07 914.22) rotate(-85.45)"/><path class="cls-6" d="M505.13,481.72c14.78,0,58.9-.12,96.87-90.72a107.65,107.65,0,0,0,8.2-37.41L614,255.91c0-54.41-32.23-105.61-86.64-105.61H471.85c-54.41,0-86.65,51.2-86.65,105.61L389,353.06a108.76,108.76,0,0,0,9.16,39.65C438.63,484.77,490.42,481.72,505.13,481.72Z"/><path class="cls-1" d="M467.16,245.1A110.08,110.08,0,0,0,414,258.3a2.22,2.22,0,0,0-1,3.05,2.3,2.3,0,0,0,2.74.93A101,101,0,0,1,466,258.57a7.42,7.42,0,0,0,8.48-5.1c1-3.6-1.52-7.44-5.83-8.23A9.13,9.13,0,0,0,467.16,245.1Z"/><path class="cls-1" d="M532.51,245.1a110.08,110.08,0,0,1,53.17,13.2,2.22,2.22,0,0,1,1,3.05,2.3,2.3,0,0,1-2.74.93,101,101,0,0,0-50.24-3.71,7.42,7.42,0,0,1-8.48-5.1c-1-3.6,1.52-7.44,5.83-8.23A9,9,0,0,1,532.51,245.1Z"/><path class="cls-8" d="M549.53,395a43.22,43.22,0,0,1-14.81,26.26,54.06,54.06,0,0,1-69.7-.37A43.08,43.08,0,0,1,450.62,395a5.26,5.26,0,0,1,3.83-5.64,6.29,6.29,0,0,1,2.1-.34H543.6a6.29,6.29,0,0,1,2.1.34A5.26,5.26,0,0,1,549.53,395Z"/><path class="cls-9" d="M534.72,421.25a54.06,54.06,0,0,1-69.7-.37c8.9-2.7,21-4.37,34.27-4.37C513.18,416.51,525.73,418.33,534.72,421.25Z"/><path class="cls-10" d="M545.7,389.35c-3.08,9.57-22.33,16.95-45.62,16.95s-42.55-7.38-45.63-16.95a6.29,6.29,0,0,1,2.1-.34H543.6A6.29,6.29,0,0,1,545.7,389.35Z"/><path class="cls-7" d="M492.24,366.1c1.33.46,2.67.78,4,1.1s2.69.59,4,.8l.1,0,.5,0a12.72,12.72,0,0,0,7.92-3.67,14.47,14.47,0,0,0,4.12-7.76,14.77,14.77,0,0,0,.11-4.45l-.62-3.64-1.23-7.12c-.86-4.75-1.72-9.49-2.65-14.22s-1.89-9.46-3-14.17a1.39,1.39,0,0,0-2.73.43c.39,4.81.93,9.61,1.49,14.4s1.18,9.57,1.81,14.35l1,7.16.49,3.5a9.13,9.13,0,0,1-.09,2.76,9,9,0,0,1-2.6,4.78,11.37,11.37,0,0,1-4.81,2.69l.61,0c-1.37,0-2.74,0-4.12.08s-2.75.17-4.14.39a1.36,1.36,0,0,0-.23,2.63Z"/><rect class="cls-10" x="513.73" y="671.92" width="193.02" height="45.12"/><path class="cls-11" d="M675.05,688.41H545.43c-4.52,0-8.19-1.89-8.19-4.22s3.67-4.22,8.19-4.22H675.05c4.53,0,8.19,1.89,8.19,4.22S679.58,688.41,675.05,688.41Z"/><path class="cls-11" d="M660.92,706.61H559.56c-4.52,0-8.19-1.89-8.19-4.22s3.67-4.22,8.19-4.22H660.92c4.52,0,8.19,1.89,8.19,4.22S665.44,706.61,660.92,706.61Z"/><path class="cls-12" d="M445.45,696.44V680H311.92v31.78h0v51.44A66.76,66.76,0,0,0,378.69,830h0a66.76,66.76,0,0,0,66.76-66.76V696.44ZM378.69,821.53a58.39,58.39,0,0,1-58.33-58.32V711.77H437v51.44A58.38,58.38,0,0,1,378.69,821.53Z"/><ellipse class="cls-1" cx="437.82" cy="190.56" rx="78.93" ry="36.53" transform="translate(-6.51 365.4) rotate(-45)"/><ellipse class="cls-1" cx="556" cy="179.36" rx="42.52" ry="100.56" transform="translate(36.02 445.69) rotate(-45)"/><ellipse class="cls-10" cx="448.3" cy="290.42" rx="25.44" ry="20.18"/><ellipse class="cls-10" cx="551.37" cy="290.42" rx="25.44" ry="20.18"/><circle class="cls-13" cx="450.05" cy="288.82" r="12.23"/><circle cx="450.05" cy="288.82" r="6.36"/><circle class="cls-10" cx="446.63" cy="283.44" r="4.89"/><circle class="cls-13" cx="549.62" cy="288.82" r="12.23"/><circle cx="549.62" cy="288.82" r="6.36"/><circle class="cls-10" cx="546.19" cy="283.44" r="4.89"/><rect class="cls-14" x="171.02" y="545.57" width="24.36" height="479.21"/><rect class="cls-15" x="171.02" y="508.03" width="24.36" height="62.42"/><path class="cls-16" d="M292.28,415.5c0,.81,0,1.6,0,2.4-.06,2.59-.21,5.16-.46,7.69a103.43,103.43,0,0,1-2.94,16.34c-.73,2.77-1.58,5.51-2.53,8.18-14.79,41.45-55.38,71.23-103.12,71.23s-88.11-29.61-103-70.88c-1-2.68-1.83-5.42-2.57-8.19a101.47,101.47,0,0,1-3-16.34c-.2-1.85-.34-3.74-.42-5.62,0-.69-.06-1.38-.07-2.07,0-.91,0-1.82,0-2.74A103.87,103.87,0,0,1,74.88,403c.29-2.43.68-4.84,1.14-7.22,9.54-49,53.89-86.07,107.18-86.07s97.45,36.91,107.12,85.76q.71,3.57,1.16,7.21c.22,1.81.41,3.65.53,5.49C292.19,410.57,292.28,413,292.28,415.5Z"/><path class="cls-16" d="M330.7,200c-11.24,65-33.07,129.28-37.94,194.74q-.28,3.85-.49,7.7c-.1,1.91-.19,3.81-.26,5.72q-.19,5-.22,9.91c0,.76,0,1.51,0,2.27h-218c0-.73,0-1.45,0-2.17q-.06-7.83-.46-15.62c-.13-2.57-.29-5.13-.48-7.7C68.16,329.32,47,265,35.7,200c2.17-.31,7.11-1,7.11-1l16.67,57.38L55.3,197.46l44.07-4.7,20.85,91.87-6.29-93.08,63.16-2.19,3.57,68.13,5.2-68.14,105.41,5.38-9.11,106.58,19.55-105.12S321.05,198.58,330.7,200Z"/><path class="cls-17" d="M288.81,441.93c-.74,2.77-1.59,5.51-2.54,8.18-27.41,7.05-64.68,11.11-103.68,11.11s-75.14-3.86-102.43-10.76c-1-2.68-1.82-5.42-2.57-8.19,27,7.4,65.11,11.72,105,11.72C223.19,454,261.76,449.55,288.81,441.93Z"/><path class="cls-17" d="M292.42,417.9c-.06,2.59-.2,5.16-.46,7.69-27.8,8-67.49,12.6-109.15,12.6s-80.15-4.42-108-12.26c-.19-1.85-.33-3.74-.41-5.62H74c0-.73,0-1.45,0-2.17l.36.1c2.42.72,5,1.41,7.57,2.07,26.67,6.74,63,10.64,100.91,10.64s74.27-3.89,100.93-10.64c2.85-.73,5.61-1.49,8.23-2.27Z"/><path class="cls-17" d="M293.15,394.71c-.19,2.57-.36,5.14-.49,7.7l-.79.23c-27.79,7.9-67.34,12.5-108.85,12.5S103.08,410.75,75.27,403c-.53-.14-1-.29-1.55-.44-.12-2.57-.29-5.13-.47-7.7,1,.31,2.08.62,3.16.92,27.06,7.69,65.92,12.17,106.61,12.17,41.35,0,80.57-4.6,107.69-12.48C291.53,395.19,292.35,395,293.15,394.71Z"/><path class="cls-7" d="M472.23,283c-19.24-4.16-27.68-4.7-47.53,0,4.21-7.59,10.43-12.78,23.76-12.78S467.16,275.32,472.23,283Z"/><path class="cls-7" d="M575.38,283c-19.46-4.16-28-4.7-48.06,0,4.25-7.59,10.55-12.78,24-12.78S570.25,275.32,575.38,283Z"/></svg>