<svg id="Laag_1" data-name="Laag 1" xmlns="http://www.w3.org/2000/svg" viewBox="0 0 1000 1035.98"><defs><style>.cls-1,.cls-3{fill:#e9d0ba;}.cls-1,.cls-6,.cls-7,.cls-8{fill-rule:evenodd;}.cls-2{fill:#92b6c1;}.cls-4{fill:#e9f0f3;}.cls-5{fill:#c7d5dd;}.cls-21,.cls-6{fill:#fff;}.cls-12,.cls-7{fill:#e6e6e6;}.cls-8{fill:#999;}.cls-9{fill:#f2f2f2;}.cls-10{fill:#bdccd4;}.cls-11{fill:#b3b3b3;}.cls-13{fill:#ccc;}.cls-14{fill:gray;}.cls-15{fill:#4d4d4d;}.cls-16{fill:#333;}.cls-17{fill:#543f2f;}.cls-18{fill:#d6ac8e;}.cls-19{fill:#b8585e;}.cls-20{fill:#ff95bd;}.cls-22{fill:#29abe2;}</style></defs><title>kuisvrouw</title><polygon class="cls-1" points="936.71 1036.98 896.68 891.05 852.19 648.13 714.96 679.46 780.29 917.63 802.15 1036.98 936.71 1036.98"/><polygon class="cls-1" points="62.26 1036.98 102.29 891.05 146.78 648.13 284.01 679.46 218.68 917.63 196.82 1036.98 62.26 1036.98"/><polygon class="cls-2" points="761 1036.98 240 1036.98 251 545.98 399.53 518.79 431.27 512.98 569.89 512.98 601.63 518.8 750 545.98 761 1036.98"/><path class="cls-3" d="M569.89,432.4v51.14c-18.68,13.11-40.31,21.09-62.73,21.09H491.67c-21.48,0-42.25-7.33-60.4-19.49V432.4Z"/><polygon class="cls-3" points="643.99 526.58 499.37 678.97 357.17 526.56 429.11 513.4 576.85 514.27 643.99 526.58"/><path class="cls-4" d="M244.87,840.38s-56.32,1.56-99.22-6.59S55.38,775.3,55.38,775.3,202.11,563,214,557.39,250.45,546,250.45,546Z"/><path class="cls-4" d="M755.16,839.32s56.32,1.56,99.22-6.59,90.27-58.49,90.27-58.49S797.92,561.92,786,556.33s-37-11.41-37-11.41Z"/><polygon class="cls-4" points="762.06 1035.92 598.87 1035.92 598.87 516.68 602.28 517.74 751.03 544.92 762.06 1035.92"/><polygon class="cls-4" points="402.9 516.72 402.9 1035.92 239.71 1035.92 250.73 544.92 399.65 517.73 402.9 516.72"/><path class="cls-5" d="M244.92,839.4h0a2.5,2.5,0,0,1-2.46-2.54l4.68-288.09a2.5,2.5,0,0,1,2.5-2.46h0a2.5,2.5,0,0,1,2.46,2.54l-4.68,288.09A2.49,2.49,0,0,1,244.92,839.4Z"/><path class="cls-5" d="M755.66,838.34a2.5,2.5,0,0,1-2.5-2.46l-4.68-288.09a2.5,2.5,0,0,1,5-.08l4.68,288.09a2.5,2.5,0,0,1-2.46,2.54Z"/><path class="cls-6" d="M728.09,715.77a13.54,13.54,0,0,0-13.53-13.54H555.24a13.54,13.54,0,0,0-13.53,13.54V809.9H728.09Z"/><path class="cls-7" d="M555.24,831.94H714.56a13.53,13.53,0,0,0,13.53-13.53V803.9H541.71v14.51A13.53,13.53,0,0,0,555.24,831.94Z"/><path class="cls-8" d="M634.9,717.51h0a13.79,13.79,0,0,1-13.79-13.79V685.43h27.58v18.29A13.78,13.78,0,0,1,634.9,717.51Z"/><rect class="cls-9" x="626.68" y="690.75" width="16.45" height="2.61"/><rect class="cls-9" x="626.68" y="696.91" width="16.45" height="2.61"/><rect class="cls-9" x="626.68" y="703.06" width="16.45" height="2.61"/><path class="cls-10" d="M616.52,785.39H562.65V724h53.87Zm-51.11-2.77h48.34V726.79H565.41Z"/><path class="cls-11" d="M594.53,750.39a10.65,10.65,0,1,0-9.89,0,19.82,19.82,0,0,0-14.89,19.18c0,10.95,39.66,10.95,39.66,0A19.82,19.82,0,0,0,594.53,750.39Z"/><path class="cls-12" d="M711.92,739.06H632.77a5,5,0,0,1,0-10h79.15a5,5,0,1,1,0,10Z"/><path class="cls-12" d="M694.67,765.62h-61.9a5,5,0,0,1,0-10h61.9a5,5,0,0,1,0,10Z"/><path class="cls-5" d="M380.84,854.74v68.57a53.63,53.63,0,1,1-107.26,0V854.74H380.84m7-7H266.58v28.85h0v46.72a60.63,60.63,0,0,0,60.63,60.63h0a60.62,60.62,0,0,0,60.63-60.63V862.68h0V847.74Z"/><circle class="cls-13" cx="634.9" cy="646.35" r="33.93"/><circle class="cls-14" cx="634.9" cy="646.35" r="21.18"/><path class="cls-13" d="M362,591.76c27.24-.64,49.52,7.91,66.2,25.41s27.7,43.9,32.71,78.45c3.32,22.87,4,48.78,2,77-1.18,16.55-23.78,25-26.35,25.85a4.89,4.89,0,1,1-3.24-9.23c4.94-1.75,19.22-8.7,19.83-17.31,2-27.53,1.32-52.73-1.89-74.9-4.72-32.5-14.85-57.1-30.11-73.11-14.7-15.42-34.52-22.95-58.89-22.38-23.35.55-42.18,8.76-56,24.4-33.35,37.82-31.51,110.31-27.45,150.15,1.39,13.62,20.21,16.08,20.4,16.1a4.89,4.89,0,0,1-1.14,9.72,45.9,45.9,0,0,1-13.24-4c-9.38-4.56-14.83-11.76-15.75-20.81-4.23-41.43-6-117,29.85-157.61C314.59,601.7,335.82,592.38,362,591.76Z"/><path class="cls-15" d="M426.2,780.63c7.45-6.06,27.79,18.92,20.34,25a17.64,17.64,0,0,1-16.74,3.26,15.08,15.08,0,0,1-10.19-12.51A17.64,17.64,0,0,1,426.2,780.63Z"/><path class="cls-16" d="M421.65,795.69c3.74.49,9.49,7.55,9.23,11.32a1.19,1.19,0,0,1-1.65,1,15.09,15.09,0,0,1-8.91-10.93A1.2,1.2,0,0,1,421.65,795.69Z"/><path class="cls-15" d="M312,783.31c-7.72-5.71-26.87,20.19-19.15,25.9a17.64,17.64,0,0,0,16.87,2.48,15.1,15.1,0,0,0,9.6-13A17.63,17.63,0,0,0,312,783.31Z"/><path class="cls-16" d="M317.23,798.13c-3.71.67-9.13,8-8.69,11.75a1.19,1.19,0,0,0,1.69.93,15,15,0,0,0,8.39-11.34A1.2,1.2,0,0,0,317.23,798.13Z"/><path class="cls-14" d="M633.26,626.74H633c-2.75-.12-4.87-2.06-4.71-4.32,0-.59,1.59-88.47-40-124.45-21.22-18.37-50.73-27.68-87.7-27.68S434.07,479.6,412.79,498c-41.67,36-38.39,95.31-38.35,95.91.14,2.26-2,4.19-4.73,4.3s-5.11-1.61-5.26-3.87c-.17-2.57-3.59-63.37,41-101.94,23.25-20.1,55.25-30.28,95.09-30.28s71.81,10.18,95,30.28c44.53,38.57,42.83,127.93,42.65,130.5C638.09,625.05,635.89,626.74,633.26,626.74Z"/><ellipse class="cls-17" cx="499.89" cy="188" rx="151.91" ry="159.72"/><polygon class="cls-3" points="582.87 518.93 499.89 624.58 418.3 518.93 418.3 375.87 582.87 375.87 582.87 518.93"/><path class="cls-18" d="M582.87,396.94v72.57c-22.18,18.6-47.86,29.93-74.47,29.93H490c-25.5,0-50.16-10.4-71.71-27.66V396.94Z"/><ellipse class="cls-3" cx="354.39" cy="276.31" rx="29.12" ry="57.08" transform="translate(-20.82 29.02) rotate(-4.55)"/><ellipse class="cls-3" cx="645.61" cy="276.31" rx="57.08" ry="29.12" transform="translate(318.91 897.94) rotate(-85.45)"/><path class="cls-3" d="M492.32,465.25h15.49c64.44,0,122.45-65.94,122.45-130.38l5.29-137.09c0-64.44-38.19-125.1-102.63-125.1H467.21c-64.44,0-102.63,60.66-102.63,125.1l5.29,137.09C369.87,399.31,427.88,465.25,492.32,465.25Z"/><path class="cls-19" d="M573.31,374.07c-2.26,15.2-10.24,28.77-22,38.92A78.32,78.32,0,0,1,500,431.59c-20.26,0-38.61-7.3-52-19.15-11.38-10.08-19.12-23.44-21.34-38.37-.56-3.74,2-7.13,5.68-8.37a9.31,9.31,0,0,1,3.11-.51h129a9.31,9.31,0,0,1,3.11.51C571.35,366.94,573.87,370.33,573.31,374.07Z"/><path class="cls-20" d="M551.35,413A78.32,78.32,0,0,1,500,431.59c-20.26,0-38.61-7.3-52-19.15,13.2-4,31.08-6.48,50.81-6.48C519.42,406,538,408.65,551.35,413Z"/><path class="cls-21" d="M567.63,365.7c-4.56,14.19-33.1,25.12-67.63,25.12s-63.07-10.93-67.63-25.12a9.31,9.31,0,0,1,3.11-.51h129A9.31,9.31,0,0,1,567.63,365.7Z"/><path class="cls-18" d="M519,341.08c-1.47.78-3,1.4-4.49,2s-3,1.17-4.57,1.67l-.12,0-.6.05A15,15,0,0,1,499.3,342a17.2,17.2,0,0,1-6.24-8.33,16.74,16.74,0,0,1-.94-5.18l.05-4.38.13-8.56c.14-5.71.29-11.42.51-17.13s.48-11.42.89-17.12a1.64,1.64,0,0,1,3.28,0c.41,5.7.66,11.41.89,17.12s.37,11.42.51,17.13l.13,8.56.07,4.19a10.65,10.65,0,0,0,4.53,8.33,13.37,13.37,0,0,0,6.12,2.27l-.71.09c1.59-.28,3.21-.48,4.83-.66a46.89,46.89,0,0,1,4.91-.3,1.61,1.61,0,0,1,.75,3Z"/><path class="cls-17" d="M571.49,185.86C431.66,174.91,322.81,57.37,481.33,56,693.07,54.07,542.18,133.87,571.49,185.86Z"/><polygon class="cls-17" points="385.94 291.7 360.75 295.79 351.21 184.64 363.93 167.79 385.94 291.7"/><ellipse class="cls-17" cx="394.65" cy="138.98" rx="78.58" ry="26.54" transform="translate(76.96 411.27) rotate(-60)"/><polygon class="cls-17" points="611.37 291.7 636.56 295.79 646.09 184.64 633.37 167.79 611.37 291.7"/><ellipse class="cls-17" cx="602.65" cy="138.98" rx="26.54" ry="78.58" transform="translate(11.25 319.95) rotate(-30)"/><path class="cls-21" d="M595.52,251.74c0,14.7-15.12,26.62-33.78,26.62S528,266.44,528,251.74a23.37,23.37,0,0,1,7.59-16.82c6.2-6,15.63-9.8,26.19-9.8s20,3.81,26.19,9.8A23.37,23.37,0,0,1,595.52,251.74Z"/><circle class="cls-22" cx="559.41" cy="251.74" r="16.24"/><circle cx="559.41" cy="251.74" r="8.45"/><circle class="cls-21" cx="554.86" cy="244.59" r="6.5"/><ellipse class="cls-21" cx="444.81" cy="251.74" rx="33.78" ry="26.62"/><circle class="cls-22" cx="447.14" cy="251.74" r="16.24"/><circle cx="447.14" cy="251.74" r="8.45"/><circle class="cls-21" cx="442.59" cy="244.59" r="6.5"/><path class="cls-17" d="M474.69,197.81a146.08,146.08,0,0,0-70.6,17.52,3,3,0,0,0-1.33,4.06,3.06,3.06,0,0,0,3.64,1.22,134.09,134.09,0,0,1,66.71-4.92,9.84,9.84,0,0,0,11.26-6.77c1.37-4.78-2-9.87-7.74-10.93A12.84,12.84,0,0,0,474.69,197.81Z"/><path class="cls-17" d="M532.36,197.81A146.11,146.11,0,0,1,603,215.33a3,3,0,0,1,1.33,4.06,3.07,3.07,0,0,1-3.64,1.22,134.12,134.12,0,0,0-66.72-4.92,9.84,9.84,0,0,1-11.25-6.77c-1.37-4.78,2-9.87,7.74-10.93A12.84,12.84,0,0,1,532.36,197.81Z"/><path class="cls-18" d="M473.94,237.84c-23.59-4.1-33.93-4.63-58.25,0,6.21-7.57,16.94-12.57,29.11-12.57S467.72,230.27,473.94,237.84Z"/><path class="cls-18" d="M591.21,237.84c-23.87-4.1-34.33-4.63-58.94,0,6.28-7.57,17.13-12.57,29.46-12.57S584.92,230.27,591.21,237.84Z"/></svg>