<svg xmlns="http://www.w3.org/2000/svg" viewBox="0 0 1000 1039.6"><defs><style>.cls-1{isolation:isolate;}.cls-2,.cls-4{fill:#e9d0ba;}.cls-2{fill-rule:evenodd;}.cls-3{fill:#f7931e;}.cls-5{fill:#fcb321;}.cls-15,.cls-6{fill:#d6ac8e;}.cls-7{fill:#b1041e;}.cls-8{fill:#ff1d25;}.cls-9{fill:#b8585e;}.cls-10{fill:#ff95bd;}.cls-11{fill:#fff;}.cls-12{fill:#4d4d4d;}.cls-13{fill:#fbb03b;}.cls-14{fill:#666;}.cls-15{mix-blend-mode:darken;}.cls-16{fill:#006e6e;}.cls-17{fill:#00a99d;}.cls-18{fill:#754c24;}</style></defs><title>kuisvrouw</title><g class="cls-1"><g id="Laag_1" data-name="Laag 1"><polygon class="cls-2" points="906.57 1039.6 859.47 867.86 819.35 648.87 695.64 677.11 754.54 891.82 781.61 1039.6 906.57 1039.6"/><polygon class="cls-2" points="94.4 1039.6 141.5 867.86 181.62 648.87 305.33 677.11 246.43 891.82 219.37 1039.6 94.4 1039.6"/><polygon class="cls-3" points="736.35 1039.6 266.65 1039.6 276.57 556.84 410.47 532.27 439.09 527.02 564.05 527.02 592.67 532.28 726.43 556.84 736.35 1039.6"/><path class="cls-4" d="M563.06,454.38v46.1c-16.85,11.82-36.35,19-56.55,19h-14c-19.37,0-38.09-6.61-54.45-17.57V454.38Z"/><path class="cls-5" d="M270.5,800s-46.53,1.28-82-5.44S114,746.23,114,746.23s121.22-175.41,131-180,34.56-9.43,34.56-9.43Z"/><path class="cls-5" d="M730.47,800s46.53,1.28,82-5.44S887,746.23,887,746.23,765.8,570.82,756,566.2s-30.58-9.43-30.58-9.43Z"/><path class="cls-4" d="M574.76,532.38s-1.25,57.09-74.81,57.09-73.56-57.09-73.56-57.09v-129H574.76Z"/><path class="cls-6" d="M574.76,422.41v65.42c-20,16.77-43.15,27-67.14,27H491c-23,0-45.23-9.37-64.65-24.93V422.41Z"/><ellipse class="cls-4" cx="368.77" cy="313.65" rx="26.25" ry="51.46" transform="translate(-23.74 30.28) rotate(-4.55)"/><ellipse class="cls-4" cx="631.32" cy="313.65" rx="51.46" ry="26.25" transform="translate(268.52 918.07) rotate(-85.45)"/><path class="cls-4" d="M621.66,246.85l-.86,22.32L617.3,360l-.4,10.4C616.9,428.53,564.6,488,506.5,488h-14c-58.09,0-110.39-59.45-110.39-117.54l-.37-9.47-3.58-92.9-.82-21.22a145.54,145.54,0,0,1,.92-16.35c5.8-51.6,39-96.43,91.6-96.43h59.24c52.33,0,85.45,44.36,91.51,95.63A145.68,145.68,0,0,1,621.66,246.85Z"/><path class="cls-7" d="M534.72,337.87A34.15,34.15,0,1,1,525,314,34.14,34.14,0,0,1,534.72,337.87Z"/><path class="cls-8" d="M528.29,328.65a34.14,34.14,0,0,1-58.58,23.85A34.15,34.15,0,0,1,525,314,34.13,34.13,0,0,1,528.29,328.65Z"/><path class="cls-9" d="M566.14,391c-2,13.7-9.24,25.94-19.8,35.09a72.23,72.23,0,0,1-93.14-.5A57.57,57.57,0,0,1,434,391c-.5-3.37,1.76-6.43,5.11-7.54a8.41,8.41,0,0,1,2.81-.46H558.22a8.35,8.35,0,0,1,2.8.46C564.37,384.54,566.64,387.6,566.14,391Z"/><path class="cls-10" d="M546.34,426.06a72.23,72.23,0,0,1-93.14-.5c11.9-3.61,28-5.84,45.8-5.84C517.55,419.72,534.33,422.15,546.34,426.06Z"/><path class="cls-11" d="M561,383.43c-4.12,12.79-29.84,22.64-61,22.64s-56.86-9.85-61-22.64a8.41,8.41,0,0,1,2.81-.46H558.22A8.35,8.35,0,0,1,561,383.43Z"/><path class="cls-12" d="M386.87,1039.6H324.26V550.32a9.14,9.14,0,0,1,7.62-9l44.33-7.49a9.13,9.13,0,0,1,10.66,9Z"/><path class="cls-13" d="M386.66,847.45V887H324.19V847.45Zm10.77-10h-84V897h84V837.45Z"/><path class="cls-12" d="M615,1039.6h62.61V550.32a9.14,9.14,0,0,0-7.62-9l-44.32-7.49a9.14,9.14,0,0,0-10.67,9Z"/><path class="cls-13" d="M615.19,847.45h62.47V887H615.19V847.45Zm-10.76-10V897h84V837.45Z"/><path class="cls-14" d="M497.36,620.64a11.09,11.09,0,1,0,11.09,11.09A11.09,11.09,0,0,0,497.36,620.64Zm-2.52,15.11a1.5,1.5,0,1,1,1.5-1.5A1.5,1.5,0,0,1,494.84,635.75Zm0-5a1.5,1.5,0,1,1,1.5-1.5A1.5,1.5,0,0,1,494.84,630.71Zm5,5a1.5,1.5,0,1,1,1.5-1.5A1.5,1.5,0,0,1,499.88,635.75Zm0-5a1.5,1.5,0,1,1,1.5-1.5A1.5,1.5,0,0,1,499.88,630.71Z"/><path class="cls-12" d="M497.36,640.77a9,9,0,1,1,9-9A9,9,0,0,1,497.36,640.77Zm0-17.54a8.5,8.5,0,1,0,8.5,8.5A8.5,8.5,0,0,0,497.36,623.23Z"/><path class="cls-14" d="M497.36,657.29a11.09,11.09,0,1,0,11.09,11.09A11.09,11.09,0,0,0,497.36,657.29Zm-2.52,15.11a1.5,1.5,0,1,1,1.5-1.5A1.5,1.5,0,0,1,494.84,672.4Zm0-5a1.5,1.5,0,1,1,1.5-1.5A1.5,1.5,0,0,1,494.84,667.36Zm5,5a1.5,1.5,0,1,1,1.5-1.5A1.5,1.5,0,0,1,499.88,672.4Zm0-5a1.5,1.5,0,1,1,1.5-1.5A1.5,1.5,0,0,1,499.88,667.36Z"/><path class="cls-12" d="M497.36,677.42a9,9,0,1,1,9-9A9,9,0,0,1,497.36,677.42Zm0-17.53a8.49,8.49,0,1,0,8.5,8.49A8.5,8.5,0,0,0,497.36,659.89Z"/><path class="cls-14" d="M497.36,693.94A11.09,11.09,0,1,0,508.45,705,11.09,11.09,0,0,0,497.36,693.94Zm-2.52,15.11a1.5,1.5,0,1,1,1.5-1.5A1.5,1.5,0,0,1,494.84,709.05Zm0-5a1.5,1.5,0,1,1,1.5-1.5A1.5,1.5,0,0,1,494.84,704Zm5,5a1.5,1.5,0,1,1,1.5-1.5A1.5,1.5,0,0,1,499.88,709.05Zm0-5a1.5,1.5,0,1,1,1.5-1.5A1.5,1.5,0,0,1,499.88,704Z"/><path class="cls-12" d="M497.36,714.07a9,9,0,1,1,9-9A9,9,0,0,1,497.36,714.07Zm0-17.53a8.5,8.5,0,1,0,8.5,8.49A8.5,8.5,0,0,0,497.36,696.54Z"/><path class="cls-15" d="M620.65,229.7c-4.55-.68-9.4-1.62-14.51-2.72C583,238.2,544.71,245.54,501.37,245.54c-42.79,0-80.67-7.16-103.88-18.14a170.9,170.9,0,0,1-19.19,3.1c5.8-51.6,39-96.43,91.6-96.43h59.24C581.47,134.07,614.59,178.43,620.65,229.7Z"/><ellipse class="cls-16" cx="501.5" cy="197.37" rx="116.61" ry="39.67"/><path class="cls-17" d="M650.79,188.6c0,68.13-66.25,16-148,16s-148,52.12-148-16,66.26-123.37,148-123.37S650.79,120.46,650.79,188.6Z"/><path class="cls-16" d="M522.62,75.63c0,7.93-39.62,7.93-39.62,0s8.87-14.35,19.81-14.35S522.62,67.7,522.62,75.63Z"/><path class="cls-11" d="M595.52,288.34c0,14.7-15.12,26.61-33.78,26.61S528,303,528,288.34c0-6.39,2.85-12.24,7.59-16.83,6.2-6,15.63-9.79,26.19-9.79s20,3.81,26.19,9.79C592.67,276.1,595.52,282,595.52,288.34Z"/><circle class="cls-18" cx="559.41" cy="288.34" r="16.24"/><circle cx="559.41" cy="288.34" r="8.45"/><circle class="cls-11" cx="554.86" cy="281.19" r="6.5"/><ellipse class="cls-11" cx="444.81" cy="288.34" rx="33.78" ry="26.62"/><circle class="cls-18" cx="447.14" cy="288.34" r="16.24"/><circle cx="447.14" cy="288.34" r="8.45"/><circle class="cls-11" cx="442.59" cy="281.19" r="6.5"/><path d="M474.69,234.4a146.09,146.09,0,0,0-70.6,17.53,2.94,2.94,0,0,0-1.33,4,3.07,3.07,0,0,0,3.64,1.23,134,134,0,0,1,66.71-4.93,9.83,9.83,0,0,0,11.26-6.76c1.37-4.78-2-9.88-7.74-10.93A11.69,11.69,0,0,0,474.69,234.4Z"/><path d="M532.36,234.4A146.12,146.12,0,0,1,603,251.93a2.94,2.94,0,0,1,1.33,4,3.08,3.08,0,0,1-3.64,1.23,134,134,0,0,0-66.72-4.93,9.83,9.83,0,0,1-11.25-6.76c-1.37-4.78,2-9.88,7.74-10.93A11.69,11.69,0,0,1,532.36,234.4Z"/><polygon class="cls-5" points="467.28 621.54 379.71 537.91 426.57 511.66 500.78 589.47 467.28 621.54"/><polygon class="cls-5" points="534.07 621.54 621.64 537.91 574.78 511.66 500.57 589.47 534.07 621.54"/><path class="cls-6" d="M473.1,273.84c-22.91-4.1-33-4.63-56.58,0,6-7.57,16.45-12.57,28.28-12.57S467.06,266.27,473.1,273.84Z"/><path class="cls-6" d="M590,273.84c-22.91-4.1-33-4.63-56.58,0,6-7.57,16.45-12.57,28.28-12.57S584,266.27,590,273.84Z"/></g></g></svg>