<svg xmlns="http://www.w3.org/2000/svg" id="Laag_1" data-name="Laag 1" viewBox="0 0 1000 1035.98"><defs><style>.cls-1{fill:#fcb321}.cls-2,.cls-4{fill:#e9d0ba}.cls-10,.cls-11,.cls-12,.cls-2{fill-rule:evenodd}.cls-3{fill:#e9f0f3}.cls-5{fill:#d6ac8e}.cls-10,.cls-6{fill:#fff}.cls-7{fill:#754c24}.cls-8{fill:#b8585e}.cls-9{fill:#ff95bd}.cls-11,.cls-16{fill:#e6e6e6}.cls-12{fill:#999}.cls-13{fill:#f2f2f2}.cls-14{fill:#bdccd4}.cls-15{fill:#b3b3b3}.cls-17{fill:#92b6c1}.cls-18{fill:#c7d5dd}.cls-19{fill:#c1272d}.cls-20{fill:#611417}</style></defs><title>kuisvrouw</title><path d="M389.22,89.21S374.61,91,409.71,78.36c9-3.25,27.12-49.55,118.27-67.17a289.32,289.32,0,0,0-25.43,36.69S558.11,27.79,666.62,27c-24.17,19.51-34.79,48.53-34.79,48.53s48.91-8,97.6,26.37c-17.62,4.16-44.94,8.86-52.09,31,20.09-6.8,40.7,2,55.49,17.87-65.36,6.64-80.39,59.62-80.39,59.62Z" class="cls-1"/><path d="M574.82,276.31H425.18c-40.16,0-73.75-28.54-77.62-65.93l-4.89-47.18c-4.44-42.88,31.58-80,77.62-80H579.71c46,0,82.06,37.13,77.62,80l-4.89,47.18C648.57,247.77,615,276.31,574.82,276.31Z" class="cls-1"/><polygon points="938.43 1035.98 898.68 891.05 854.19 648.13 716.96 679.46 782.29 917.63 804.15 1036.98 938.43 1035.98" class="cls-2"/><polygon points="62.26 1036.98 102.29 891.05 146.78 648.13 284.01 679.46 218.68 917.63 196.82 1036.98 62.26 1036.98" class="cls-2"/><polygon points="761 1036.98 240 1036.98 251 545.98 399.53 518.79 431.27 512.98 569.89 512.98 601.63 518.8 750 545.98 761 1036.98" class="cls-3"/><path d="M569.89,432.4v51.14c-18.68,13.11-40.31,21.09-62.73,21.09H491.67c-21.48,0-42.25-7.33-60.4-19.49V432.4Z" class="cls-4"/><path d="M245.38,815.79s-51.61,1.42-90.93-6-82.73-53.61-82.73-53.61,134.47-194.58,145.37-199.7S251,546,251,546Z" class="cls-3"/><path d="M755.59,815.79s51.61,1.42,90.93-6,82.73-53.61,82.73-53.61S794.78,561.56,783.88,556.44,750,546,750,546Z" class="cls-3"/><polygon points="582.87 515.36 499.89 591.28 418.3 515.35 418.3 375.87 582.87 375.87 582.87 515.36" class="cls-4"/><path d="M582.87,396.94v72.57c-22.18,18.6-47.86,29.93-74.47,29.93H490c-25.5,0-50.16-10.4-71.71-27.66V396.94Z" class="cls-5"/><ellipse cx="354.39" cy="276.31" class="cls-4" rx="29.12" ry="57.08" transform="translate(-20.82 29.02) rotate(-4.55)"/><ellipse cx="645.61" cy="276.31" class="cls-4" rx="57.08" ry="29.12" transform="translate(318.91 897.94) rotate(-85.45)"/><path d="M491.68,469.68h15.48c64.44,0,122.45-65.94,122.45-130.39l5.29-137.08c0-64.45-18.18-50.08-82.63-50.08l-52.85,23.32-52.86-23.32c-64.44,0-82.63-14.37-82.63,50.08l5.29,137.08C369.22,403.74,427.23,469.68,491.68,469.68Z" class="cls-4"/><ellipse cx="561.74" cy="254.44" class="cls-6" rx="33.78" ry="29.17"/><circle cx="559.41" cy="254.44" r="16.24" class="cls-7"/><circle cx="559.41" cy="254.44" r="8.45"/><circle cx="554.86" cy="247.3" r="6.5" class="cls-6"/><ellipse cx="444.81" cy="254.44" class="cls-6" rx="33.78" ry="29.17"/><circle cx="447.14" cy="254.44" r="16.24" class="cls-7"/><circle cx="447.14" cy="254.44" r="8.45"/><circle cx="442.59" cy="247.3" r="6.5" class="cls-6"/><path d="M474.69,188.51A146.19,146.19,0,0,0,404.09,206a3,3,0,0,0-1.33,4.06,3.07,3.07,0,0,0,3.64,1.23,134,134,0,0,1,66.71-4.93,9.83,9.83,0,0,0,11.26-6.77c1.37-4.78-2-9.87-7.74-10.92A11.69,11.69,0,0,0,474.69,188.51Z" class="cls-1"/><path d="M532.36,188.51A146.22,146.22,0,0,1,603,206a3,3,0,0,1,1.33,4.06,3.08,3.08,0,0,1-3.64,1.23,134,134,0,0,0-66.72-4.93,9.83,9.83,0,0,1-11.25-6.77c-1.37-4.78,2-9.87,7.74-10.92A11.69,11.69,0,0,1,532.36,188.51Z" class="cls-1"/><path d="M573.31,374.07c-2.26,15.2-10.24,28.77-22,38.92A78.32,78.32,0,0,1,500,431.59c-20.26,0-38.61-7.3-52-19.15-11.38-10.08-19.12-23.44-21.34-38.37-.56-3.74,2-7.13,5.68-8.37a9.31,9.31,0,0,1,3.11-.51h129a9.31,9.31,0,0,1,3.11.51C571.35,366.94,573.87,370.33,573.31,374.07Z" class="cls-8"/><path d="M551.35,413A78.32,78.32,0,0,1,500,431.59c-20.26,0-38.61-7.3-52-19.15,13.2-4,31.08-6.48,50.81-6.48C519.42,406,538,408.65,551.35,413Z" class="cls-9"/><path d="M567.63,365.7c-4.56,14.19-33.1,25.12-67.63,25.12s-63.07-10.93-67.63-25.12a9.31,9.31,0,0,1,3.11-.51h129A9.31,9.31,0,0,1,567.63,365.7Z" class="cls-6"/><path d="M519,341.08c-1.47.78-3,1.4-4.49,2s-3,1.17-4.57,1.67l-.12,0-.6.05A15,15,0,0,1,499.3,342a17.2,17.2,0,0,1-6.24-8.33,16.74,16.74,0,0,1-.94-5.18l.05-4.38.13-8.56c.14-5.71.29-11.42.51-17.13s.48-11.42.89-17.12a1.64,1.64,0,0,1,3.28,0c.41,5.7.66,11.41.89,17.12s.37,11.42.51,17.13l.13,8.56.07,4.19a10.65,10.65,0,0,0,4.53,8.33,13.37,13.37,0,0,0,6.12,2.27l-.71.09c1.59-.28,3.21-.48,4.83-.66a46.89,46.89,0,0,1,4.91-.3,1.61,1.61,0,0,1,.75,3Z" class="cls-5"/><path d="M738.8,646.33a13.52,13.52,0,0,0-13.53-13.53H566a13.53,13.53,0,0,0-13.53,13.53v94.13H738.8Z" class="cls-10"/><path d="M566,762.5H725.27A13.53,13.53,0,0,0,738.8,749V734.46H552.42V749A13.53,13.53,0,0,0,566,762.5Z" class="cls-11"/><path d="M645.61,648.07h0a13.78,13.78,0,0,1-13.78-13.78V616H659.4v18.3A13.78,13.78,0,0,1,645.61,648.07Z" class="cls-12"/><rect width="16.45" height="2.61" x="637.39" y="621.32" class="cls-13"/><rect width="16.45" height="2.61" x="637.39" y="627.47" class="cls-13"/><rect width="16.45" height="2.61" x="637.39" y="633.62" class="cls-13"/><path d="M627.23,716H573.36V654.58h53.87Zm-51.1-2.77h48.33V657.35H576.13Z" class="cls-14"/><path d="M605.24,681a10.65,10.65,0,1,0-9.89,0,19.82,19.82,0,0,0-14.88,19.18c0,11,39.65,11,39.65,0A19.82,19.82,0,0,0,605.24,681Z" class="cls-15"/><path d="M722.63,669.63H643.49a5,5,0,0,1,0-10h79.14a5,5,0,0,1,0,10Z" class="cls-16"/><path d="M705.38,696.18H643.49a5,5,0,0,1,0-10h61.89a5,5,0,0,1,0,10Z" class="cls-16"/><path d="M427.06,653.62V634.13H268.9v37.64h0V732.7A79.07,79.07,0,0,0,348,811.78h0a79.07,79.07,0,0,0,79.08-79.08V653.62ZM348,801.78A69.16,69.16,0,0,1,278.9,732.7V671.77H417.06V732.7A69.16,69.16,0,0,1,348,801.78Z" class="cls-17"/><path d="M755.66,816.8a2.42,2.42,0,0,1-2.5-2.28l-4.68-266.91a2.51,2.51,0,0,1,5-.08l4.68,266.92a2.41,2.41,0,0,1-2.46,2.35Z" class="cls-18"/><path d="M246,816.8a2.41,2.41,0,0,0,2.5-2.28l4.68-266.91a2.51,2.51,0,0,0-5-.08l-4.68,266.92a2.41,2.41,0,0,0,2.46,2.35Z" class="cls-18"/><polygon points="515.81 617.62 485.76 617.62 460.28 562.21 541.3 562.21 515.81 617.62" class="cls-19"/><path d="M515.81,617.62h-30l-35.48,310.7,40,42.16a14.19,14.19,0,0,0,20.54.06l40.5-42.22Z" class="cls-19"/><rect width="30.46" height="3.01" x="485.54" y="616.2" class="cls-20"/><polygon points="459.21 602 366.6 524.82 418.54 492.89 500.79 562.21 459.21 602" class="cls-17"/><polygon points="542.16 602 634.77 524.82 582.83 492.89 500.58 562.21 542.16 602" class="cls-17"/><path d="M449.09,83.19s-71.95-13-106.79-6.81c24.7,14.32,34.19,19.4,34.19,19.4s-41.62,4.09-69.87,36.43c32.13,0,38.6,2,38.6,2s-33.33,22.9-42.69,60.6c19.92-13.53,42.31-10.76,42.31-10.76Z" class="cls-1"/><polygon points="410.21 82.56 398.01 60.55 413.59 49.68 414.51 83.19 410.21 82.56" class="cls-1"/><path d="M473.1,237.84c-22.91-4.1-33-4.63-56.58,0,6-7.57,16.45-12.57,28.28-12.57S467.06,230.27,473.1,237.84Z" class="cls-5"/><path d="M590,237.84c-22.91-4.1-33-4.63-56.58,0,6-7.57,16.45-12.57,28.28-12.57S584,230.27,590,237.84Z" class="cls-5"/></svg>