<svg id="Laag_1" data-name="Laag 1" xmlns="http://www.w3.org/2000/svg" viewBox="0 0 1000 1072.28"><defs><style>.cls-1{fill:#f7931e;}.cls-2,.cls-5{fill:#efe2d6;}.cls-10,.cls-11,.cls-12,.cls-2{fill-rule:evenodd;}.cls-3{fill:#92b6c1;}.cls-4{fill:#e9d0ba;}.cls-6{fill:#dcbea7;}.cls-7{fill:#b8585e;}.cls-8{fill:#ff95bd;}.cls-10,.cls-9{fill:#fff;}.cls-11,.cls-16{fill:#e6e6e6;}.cls-12{fill:#999;}.cls-13{fill:#f2f2f2;}.cls-14{fill:#bdccd4;}.cls-15{fill:#b3b3b3;}.cls-17{fill:#4c6b74;}.cls-18{fill:#a67c52;}</style></defs><title>kuisvrouw</title><path class="cls-1" d="M696.44,632a1258.21,1258.21,0,0,1-393.71,0c16.95-107,50.86-212.75,50.86-321.13h292C645.58,419.25,679.49,525,696.44,632Z"/><ellipse class="cls-1" cx="499.58" cy="318.75" rx="145.99" ry="172.96"/><polygon class="cls-2" points="888.04 1072.28 836.66 884.95 799.09 679.87 683.24 706.31 738.39 907.38 768.6 1072.28 888.04 1072.28"/><polygon class="cls-2" points="112.93 1072.28 164.31 884.95 201.88 679.87 317.73 706.31 262.58 907.38 232.37 1072.28 112.93 1072.28"/><polygon class="cls-3" points="720.42 1072.28 280.57 1072.28 289.86 593.62 415.25 570.67 442.05 565.76 559.08 565.76 585.88 570.68 711.13 593.62 720.42 1072.28"/><path class="cls-4" d="M559.08,497.74v43.17c-15.77,11.07-34,17.8-53,17.8H493c-18.13,0-35.67-6.18-51-16.45V497.74Z"/><polygon class="cls-5" points="621.63 577.25 499.55 705.9 379.5 577.23 440.23 566.12 564.96 566.85 621.63 577.25"/><path class="cls-3" d="M285.12,821.41s-43.58,1.2-76.77-5.1-69.84-45.26-69.84-45.26S252,606.78,261.23,602.45s28.63-8.83,28.63-8.83Z"/><path class="cls-3" d="M715.85,821.41s43.58,1.2,76.77-5.1,69.84-45.26,69.84-45.26S748.94,606.78,739.74,602.45s-28.63-8.83-28.63-8.83Z"/><polygon class="cls-5" points="570.04 570.79 499.98 659.98 431.1 570.79 431.1 450.01 570.04 450.01 570.04 570.79"/><path class="cls-6" d="M570,467.8v61.27c-18.73,15.7-40.41,25.26-62.88,25.26H491.64c-21.53,0-42.35-8.78-60.54-23.35V467.8Z"/><ellipse class="cls-5" cx="377.14" cy="365.96" rx="24.59" ry="48.19" transform="translate(-27.87 31.11) rotate(-4.55)"/><ellipse class="cls-5" cx="623.01" cy="365.96" rx="48.19" ry="24.59" transform="translate(208.73 957.93) rotate(-85.45)"/><path class="cls-5" d="M505.13,529.21c14.78,0,58.9-.12,96.87-90.72a107.7,107.7,0,0,0,8.2-37.41L614,303.4c0-54.41-32.23-105.61-86.64-105.61H471.85c-54.41,0-86.65,51.2-86.65,105.61L389,400.55a108.76,108.76,0,0,0,9.16,39.65C438.63,532.26,490.42,529.21,505.13,529.21Z"/><path class="cls-1" d="M467.16,292.59A110,110,0,0,0,414,305.79a2.22,2.22,0,0,0-1,3,2.3,2.3,0,0,0,2.74.93A101,101,0,0,1,466,306.06a7.42,7.42,0,0,0,8.48-5.1c1-3.6-1.52-7.44-5.83-8.23A9.13,9.13,0,0,0,467.16,292.59Z"/><path class="cls-1" d="M532.51,292.59a110,110,0,0,1,53.17,13.2,2.22,2.22,0,0,1,1,3,2.3,2.3,0,0,1-2.74.93,101,101,0,0,0-50.24-3.71,7.42,7.42,0,0,1-8.48-5.1c-1-3.6,1.52-7.44,5.83-8.23A9,9,0,0,1,532.51,292.59Z"/><path class="cls-7" d="M549.53,442.48a43.25,43.25,0,0,1-14.81,26.26,54.06,54.06,0,0,1-69.7-.37,43.08,43.08,0,0,1-14.4-25.89,5.26,5.26,0,0,1,3.83-5.64,6.29,6.29,0,0,1,2.1-.34H543.6a6.29,6.29,0,0,1,2.1.34A5.26,5.26,0,0,1,549.53,442.48Z"/><path class="cls-8" d="M534.72,468.74a54.06,54.06,0,0,1-69.7-.37c8.9-2.7,21-4.37,34.27-4.37C513.18,464,525.73,465.82,534.72,468.74Z"/><path class="cls-9" d="M545.7,436.84c-3.08,9.57-22.33,16.94-45.62,16.94s-42.55-7.37-45.63-16.94a6.29,6.29,0,0,1,2.1-.34H543.6A6.29,6.29,0,0,1,545.7,436.84Z"/><path class="cls-6" d="M492.24,413.59c1.33.46,2.67.78,4,1.1s2.69.59,4,.8h.1l.5,0a12.72,12.72,0,0,0,7.92-3.67,14.47,14.47,0,0,0,4.12-7.77,14.69,14.69,0,0,0,.11-4.44l-.62-3.64-1.23-7.12c-.86-4.75-1.72-9.49-2.65-14.22s-1.89-9.46-3-14.17a1.39,1.39,0,0,0-2.73.43c.39,4.81.93,9.61,1.49,14.4s1.18,9.57,1.81,14.35l1,7.16.49,3.5a9.13,9.13,0,0,1-.09,2.76,9,9,0,0,1-2.6,4.78,11.37,11.37,0,0,1-4.81,2.69l.61,0c-1.37,0-2.74,0-4.12.08s-2.75.17-4.14.39a1.36,1.36,0,0,0-.23,2.63Z"/><path class="cls-10" d="M692.64,737a11.43,11.43,0,0,0-11.42-11.42H546.71A11.42,11.42,0,0,0,535.29,737v79.47H692.64Z"/><path class="cls-11" d="M546.71,835H681.22a11.43,11.43,0,0,0,11.42-11.42V811.37H535.29v12.25A11.42,11.42,0,0,0,546.71,835Z"/><path class="cls-12" d="M614,738.44h0a11.64,11.64,0,0,1-11.64-11.64V711.35H625.6V726.8A11.64,11.64,0,0,1,614,738.44Z"/><rect class="cls-13" x="607.02" y="715.85" width="13.89" height="2.2"/><rect class="cls-13" x="607.02" y="721.04" width="13.89" height="2.2"/><rect class="cls-13" x="607.02" y="726.24" width="13.89" height="2.2"/><path class="cls-14" d="M598.44,795.74H553V743.93h45.48ZM555.3,793.4h40.81V746.27H555.3Z"/><path class="cls-15" d="M579.88,766.19a9,9,0,1,0-8.35,0A16.75,16.75,0,0,0,559,782.39c0,9.24,33.48,9.24,33.48,0A16.74,16.74,0,0,0,579.88,766.19Z"/><path class="cls-16" d="M679,756.63H612.17a4.22,4.22,0,1,1,0-8.44H679a4.22,4.22,0,1,1,0,8.44Z"/><path class="cls-16" d="M664.42,779.05H612.17a4.22,4.22,0,0,1,0-8.44h52.25a4.22,4.22,0,0,1,0,8.44Z"/><path class="cls-17" d="M445.45,743.93V727.48H311.92v31.78h0V810.7a66.76,66.76,0,0,0,66.77,66.76h0a66.76,66.76,0,0,0,66.76-66.76V743.93ZM378.69,869a58.39,58.39,0,0,1-58.33-58.32V759.26H437V810.7A58.38,58.38,0,0,1,378.69,869Z"/><ellipse class="cls-1" cx="437.82" cy="238.05" rx="78.93" ry="36.53" transform="translate(-40.09 379.31) rotate(-45)"/><ellipse class="cls-1" cx="556" cy="226.85" rx="42.52" ry="100.56" transform="translate(2.44 459.59) rotate(-45)"/><ellipse class="cls-9" cx="448.3" cy="335.59" rx="25.44" ry="20.18"/><ellipse class="cls-9" cx="551.37" cy="335.59" rx="25.44" ry="20.18"/><circle class="cls-18" cx="450.05" cy="336.31" r="12.23"/><circle cx="450.05" cy="336.31" r="6.36"/><circle class="cls-9" cx="446.63" cy="330.93" r="4.89"/><circle class="cls-18" cx="549.62" cy="336.31" r="12.23"/><circle cx="549.62" cy="336.31" r="6.36"/><circle class="cls-9" cx="546.19" cy="330.93" r="4.89"/><path class="cls-6" d="M472.23,328c-19.24-4.09-27.68-4.62-47.53,0,4.21-7.47,10.43-12.57,23.76-12.57S467.16,320.45,472.23,328Z"/><path class="cls-6" d="M574.85,328c-19.25-4.09-27.69-4.62-47.53,0,4.2-7.47,10.43-12.57,23.75-12.57S569.77,320.45,574.85,328Z"/><path class="cls-17" d="M713.61,822.83a2.4,2.4,0,0,1-2.5-2.24l-4.84-224.65a2.51,2.51,0,0,1,5-.07l4.84,224.65a2.39,2.39,0,0,1-2.46,2.31Z"/><path class="cls-17" d="M284.77,822.83a2.4,2.4,0,0,0,2.5-2.24l4.84-224.65a2.51,2.51,0,0,0-5-.07l-4.84,224.65a2.39,2.39,0,0,0,2.46,2.31Z"/></svg>