<svg xmlns="http://www.w3.org/2000/svg" id="Laag_1" data-name="Laag 1" viewBox="0 0 1000 1072.28"><defs><style>.cls-1,.cls-4{fill:#dcbea7}.cls-1,.cls-10,.cls-11,.cls-12{fill-rule:evenodd}.cls-2{fill:#92b6c1}.cls-3{fill:#e9d0ba}.cls-5{fill:#a6907f}.cls-10,.cls-6{fill:#fff}.cls-7{fill:#754c24}.cls-8{fill:#b8585e}.cls-9{fill:#ff95bd}.cls-11,.cls-16{fill:#e6e6e6}.cls-12{fill:#999}.cls-13{fill:#f2f2f2}.cls-14{fill:#bdccd4}.cls-15{fill:#b3b3b3}.cls-17{fill:#4c6b74}</style></defs><title>kuisvrouw</title><ellipse cx="499.89" cy="229.28" rx="151.91" ry="159.72"/><polygon points="938.71 1073.28 898.68 927.35 854.19 684.43 716.96 715.76 782.29 953.92 804.15 1073.28 938.71 1073.28" class="cls-1"/><polygon points="62.26 1073.28 102.29 927.35 146.78 684.43 284.01 715.76 218.68 953.92 196.82 1073.28 62.26 1073.28" class="cls-1"/><polygon points="761 1073.28 240 1073.28 251 582.28 399.53 555.09 431.27 549.28 569.89 549.28 601.63 555.1 750 582.28 761 1073.28" class="cls-2"/><path d="M569.89,468.7v51.14c-18.68,13.11-40.31,21.08-62.73,21.08H491.67c-21.48,0-42.25-7.32-60.4-19.48V468.7Z" class="cls-3"/><polygon points="643.99 562.88 499.37 715.27 357.17 562.86 429.11 549.69 576.85 550.57 643.99 562.88" class="cls-4"/><path d="M245.38,852.09s-51.61,1.42-90.93-6-82.73-53.61-82.73-53.61S206.19,597.86,217.09,592.73,251,582.28,251,582.28Z" class="cls-2"/><path d="M755.59,852.09s51.61,1.42,90.93-6,82.73-53.61,82.73-53.61S794.78,597.86,783.88,592.73,750,582.28,750,582.28Z" class="cls-2"/><polygon points="582.87 555.23 499.89 660.87 418.3 555.23 418.3 412.16 582.87 412.16 582.87 555.23" class="cls-4"/><path d="M582.87,433.24v72.57c-22.18,18.6-47.86,29.92-74.47,29.92H490c-25.5,0-50.16-10.39-71.71-27.65V433.24Z" class="cls-5"/><ellipse cx="354.39" cy="312.6" class="cls-4" rx="29.12" ry="57.08" transform="translate(-23.71 29.13) rotate(-4.55)"/><ellipse cx="645.61" cy="312.6" class="cls-4" rx="57.08" ry="29.12" transform="translate(282.73 931.35) rotate(-85.45)"/><path d="M491.68,506h15.48c64.44,0,122.45-66,122.45-130.39L634.9,238.5c0-64.44-38.18-125.1-102.63-125.1H466.56c-64.44,0-102.63,60.66-102.63,125.1l5.29,137.09C369.22,440,427.23,506,491.68,506Z" class="cls-4"/><path d="M595.52,278.74c0,14.7-15.12,26.62-33.78,26.62S528,293.44,528,278.74a23.37,23.37,0,0,1,7.59-16.82c6.2-6,15.63-9.8,26.19-9.8s20,3.81,26.19,9.8A23.37,23.37,0,0,1,595.52,278.74Z" class="cls-6"/><circle cx="559.41" cy="278.74" r="16.24" class="cls-7"/><circle cx="559.41" cy="278.74" r="8.45"/><circle cx="554.86" cy="271.59" r="6.5" class="cls-6"/><ellipse cx="444.81" cy="278.74" class="cls-6" rx="33.78" ry="26.62"/><circle cx="447.14" cy="278.74" r="16.24" class="cls-7"/><circle cx="447.14" cy="278.74" r="8.45"/><circle cx="442.59" cy="271.59" r="6.5" class="cls-6"/><path d="M474.69,224.81a146.08,146.08,0,0,0-70.6,17.52,3,3,0,0,0-1.33,4.06,3.06,3.06,0,0,0,3.64,1.22,134.09,134.09,0,0,1,66.71-4.92,9.84,9.84,0,0,0,11.26-6.77c1.37-4.78-2-9.87-7.74-10.93A12.84,12.84,0,0,0,474.69,224.81Z"/><path d="M532.36,224.81A146.11,146.11,0,0,1,603,242.33a3,3,0,0,1,1.33,4.06,3.07,3.07,0,0,1-3.64,1.22,134.12,134.12,0,0,0-66.72-4.92,9.84,9.84,0,0,1-11.25-6.77c-1.37-4.78,2-9.87,7.74-10.93A12.84,12.84,0,0,1,532.36,224.81Z"/><path d="M573.31,398.36c-2.26,15.21-10.24,28.78-22,38.92A78.33,78.33,0,0,1,500,455.89c-20.26,0-38.61-7.31-52-19.15-11.38-10.08-19.12-23.44-21.34-38.38-.56-3.74,2-7.13,5.68-8.36a9.31,9.31,0,0,1,3.11-.51h129a9.31,9.31,0,0,1,3.11.51C571.35,391.23,573.87,394.62,573.31,398.36Z" class="cls-8"/><path d="M551.35,437.28A78.33,78.33,0,0,1,500,455.89c-20.26,0-38.61-7.31-52-19.15,13.2-4,31.08-6.48,50.81-6.48C519.42,430.26,538,433,551.35,437.28Z" class="cls-9"/><path d="M567.63,390c-4.56,14.19-33.1,25.11-67.63,25.11S436.93,404.19,432.37,390a9.31,9.31,0,0,1,3.11-.51h129A9.31,9.31,0,0,1,567.63,390Z" class="cls-6"/><path d="M519,365.37a47.26,47.26,0,0,1-4.49,2c-1.51.59-3,1.18-4.57,1.67l-.12,0-.6.05a15,15,0,0,1-9.93-2.85,17.15,17.15,0,0,1-6.24-8.33,16.62,16.62,0,0,1-.94-5.17l.05-4.38.13-8.56c.14-5.71.29-11.42.51-17.13s.48-11.42.89-17.13a1.65,1.65,0,0,1,3.28,0c.41,5.71.66,11.42.89,17.13s.37,11.42.51,17.13l.13,8.56.07,4.19a10.68,10.68,0,0,0,4.53,8.33,13.6,13.6,0,0,0,6.12,2.27l-.71.08c1.59-.28,3.21-.47,4.83-.66s3.25-.31,4.91-.3a1.61,1.61,0,0,1,.75,3Z" class="cls-5"/><path d="M728.09,752.06a13.53,13.53,0,0,0-13.53-13.53H555.24a13.53,13.53,0,0,0-13.53,13.53v94.13H728.09Z" class="cls-10"/><path d="M555.24,868.23H714.56a13.53,13.53,0,0,0,13.53-13.53V840.19H541.71V854.7A13.53,13.53,0,0,0,555.24,868.23Z" class="cls-11"/><path d="M634.9,753.81h0A13.79,13.79,0,0,1,621.11,740v-18.3h27.58V740A13.78,13.78,0,0,1,634.9,753.81Z" class="cls-12"/><rect width="16.45" height="2.61" x="626.68" y="727.05" class="cls-13"/><rect width="16.45" height="2.61" x="626.68" y="733.21" class="cls-13"/><rect width="16.45" height="2.61" x="626.68" y="739.36" class="cls-13"/><path d="M616.52,821.68H562.65V760.32h53.87Zm-51.11-2.76h48.34V763.09H565.41Z" class="cls-14"/><path d="M594.53,786.69a10.65,10.65,0,1,0-9.89,0,19.82,19.82,0,0,0-14.89,19.18c0,11,39.66,11,39.66,0A19.82,19.82,0,0,0,594.53,786.69Z" class="cls-15"/><path d="M711.92,775.36H632.77a5,5,0,0,1,0-10h79.15a5,5,0,0,1,0,10Z" class="cls-16"/><path d="M694.67,801.91h-61.9a5,5,0,0,1,0-10h61.9a5,5,0,0,1,0,10Z" class="cls-16"/><path d="M435.3,760.32V740.83H277.13v37.64h0V839.4a79.08,79.08,0,0,0,79.08,79.08h0A79.08,79.08,0,0,0,435.3,839.4V760.32ZM356.21,908.48a69.16,69.16,0,0,1-69.08-69.08V778.47H425.3V839.4A69.16,69.16,0,0,1,356.21,908.48Z" class="cls-17"/><path d="M452.05,224.81c-57.41-29.17-60.88-152.66,9.44-132.39C555.42,119.5,458.82,172.74,452.05,224.81Z"/><path d="M512.28,229.28c33.3-18.64,17-133.51-26.07-125.12C428.62,115.36,500,179.61,512.28,229.28Z"/><path d="M570.26,227.34c30.47-23-1.19-134.59-42.76-120.45C472,125.79,551.39,179.78,570.26,227.34Z"/><polygon points="385.94 331.98 360.75 336.06 351.21 224.91 363.93 208.06 385.94 331.98"/><ellipse cx="394.65" cy="173.26" rx="78.58" ry="26.54" transform="translate(47.28 428.41) rotate(-60)"/><polygon points="611.37 331.98 636.56 336.06 646.09 224.91 633.37 208.06 611.37 331.98"/><ellipse cx="602.65" cy="173.26" rx="26.54" ry="78.58" transform="translate(-5.89 324.54) rotate(-30)"/><path d="M354.39,183.26s5.66-46.74,48-87.95a182.7,182.7,0,0,1,25.13-20.42c28.67-19.4,68.41-35,123.44-39.66-14.56,18.9-23,29.11-23,29.11S603.61,70,628.73,45.45c-12.67,47.49-17.36,52-17.36,52S657.8,86,667,66.89c12.25,47.75-23.49,76-23.49,76s20-6.54,48.65-15.73c-13.28,43.91-38.52,54.16-38.52,54.16s14.52,4.05,36.48-8.05C683,209.52,651.42,233.8,651,246.18s-103.33-115-147.76-113.92S354.39,183.26,354.39,183.26Z"/><path d="M473.1,263.84c-22.91-4.1-33-4.63-56.58,0,6-7.57,16.45-12.57,28.28-12.57S467.06,256.27,473.1,263.84Z" class="cls-5"/><path d="M590,263.84c-22.91-4.1-33-4.63-56.58,0,6-7.57,16.45-12.57,28.28-12.57S584,256.27,590,263.84Z" class="cls-5"/><path d="M244.92,854.64h0a2.42,2.42,0,0,1-2.46-2.36l4.68-266.74a2.42,2.42,0,0,1,2.5-2.28h0a2.4,2.4,0,0,1,2.46,2.35l-4.68,266.75A2.42,2.42,0,0,1,244.92,854.64Z" class="cls-17"/><path d="M755.66,853.65a2.42,2.42,0,0,1-2.5-2.27l-4.68-266.75a2.51,2.51,0,0,1,5-.08l4.68,266.75a2.4,2.4,0,0,1-2.46,2.35Z" class="cls-17"/></svg>