<svg id="Laag_1" data-name="Laag 1" xmlns="http://www.w3.org/2000/svg" viewBox="0 0 1000 1072.28"><defs><style>.cls-1{fill:#746254;}.cls-2,.cls-5{fill:#efe2d6;}.cls-2{fill-rule:evenodd;}.cls-3{fill:#c4b9d5;}.cls-4{fill:#e9d0ba;}.cls-6{fill:#a29181;}.cls-7{fill:#fff;}.cls-8{fill:#7ac943;}.cls-9{fill:#b8585e;}.cls-10{fill:#ff95bd;}.cls-11{fill:#938ba0;}.cls-12{fill:#a6907f;}</style></defs><title>kuisvrouw</title><ellipse class="cls-1" cx="499.89" cy="229.28" rx="151.91" ry="159.72"/><polygon class="cls-2" points="938.71 1073.28 898.68 927.35 854.19 684.43 716.96 715.76 782.29 953.92 804.15 1073.28 938.71 1073.28"/><polygon class="cls-2" points="62.26 1073.28 102.29 927.35 146.78 684.43 284.01 715.76 218.68 953.92 196.82 1073.28 62.26 1073.28"/><polygon class="cls-3" points="761 1073.28 240 1073.28 251 582.28 399.53 555.09 431.27 549.28 569.89 549.28 601.63 555.1 750 582.28 761 1073.28"/><path class="cls-4" d="M569.89,468.7v51.14c-18.68,13.11-40.31,21.08-62.73,21.08H491.67c-21.48,0-42.25-7.32-60.4-19.48V468.7Z"/><path class="cls-3" d="M245.38,852.09s-51.61,1.42-90.93-6-82.73-53.61-82.73-53.61S206.19,597.86,217.09,592.73,251,582.28,251,582.28Z"/><path class="cls-3" d="M755.59,852.09s51.61,1.42,90.93-6,82.73-53.61,82.73-53.61S794.78,597.86,783.88,592.73,750,582.28,750,582.28Z"/><polygon class="cls-5" points="582.87 555.23 499.89 630.87 418.3 555.23 418.3 412.16 582.87 412.16 582.87 555.23"/><path class="cls-6" d="M582.87,433.24v72.57c-22.18,18.6-47.86,29.92-74.47,29.92H490c-25.5,0-50.16-10.39-71.71-27.65V433.24Z"/><ellipse class="cls-5" cx="354.39" cy="312.6" rx="29.12" ry="57.08" transform="translate(-23.71 29.13) rotate(-4.55)"/><ellipse class="cls-5" cx="645.61" cy="312.6" rx="57.08" ry="29.12" transform="translate(282.73 931.35) rotate(-85.45)"/><path class="cls-5" d="M491.68,506h15.48c64.44,0,122.45-66,122.45-130.39L634.9,238.5c0-64.44-38.18-125.1-102.63-125.1H466.56c-64.44,0-102.63,60.66-102.63,125.1l5.29,137.09C369.22,440,427.23,506,491.68,506Z"/><path class="cls-7" d="M595.52,278.74c0,14.7-15.12,26.62-33.78,26.62S528,293.44,528,278.74a23.37,23.37,0,0,1,7.59-16.82c6.2-6,15.63-9.8,26.19-9.8s20,3.81,26.19,9.8A23.37,23.37,0,0,1,595.52,278.74Z"/><circle class="cls-8" cx="559.41" cy="278.74" r="16.24"/><circle cx="559.41" cy="278.74" r="8.45"/><circle class="cls-7" cx="554.86" cy="271.59" r="6.5"/><ellipse class="cls-7" cx="444.81" cy="278.74" rx="33.78" ry="26.62"/><circle class="cls-8" cx="447.14" cy="278.74" r="16.24"/><circle cx="447.14" cy="278.74" r="8.45"/><circle class="cls-7" cx="442.59" cy="271.59" r="6.5"/><path class="cls-1" d="M474.69,224.81a146.08,146.08,0,0,0-70.6,17.52,3,3,0,0,0-1.33,4.06,3.06,3.06,0,0,0,3.64,1.22,134.09,134.09,0,0,1,66.71-4.92,9.84,9.84,0,0,0,11.26-6.77c1.37-4.78-2-9.87-7.74-10.93A12.84,12.84,0,0,0,474.69,224.81Z"/><path class="cls-1" d="M532.36,224.81A146.11,146.11,0,0,1,603,242.33a3,3,0,0,1,1.33,4.06,3.07,3.07,0,0,1-3.64,1.22,134.12,134.12,0,0,0-66.72-4.92,9.84,9.84,0,0,1-11.25-6.77c-1.37-4.78,2-9.87,7.74-10.93A12.84,12.84,0,0,1,532.36,224.81Z"/><path class="cls-9" d="M573.31,398.36c-2.26,15.21-10.24,28.78-22,38.92A78.33,78.33,0,0,1,500,455.89c-20.26,0-38.61-7.31-52-19.15-11.38-10.08-19.12-23.44-21.34-38.38-.56-3.74,2-7.13,5.68-8.36a9.31,9.31,0,0,1,3.11-.51h129a9.31,9.31,0,0,1,3.11.51C571.35,391.23,573.87,394.62,573.31,398.36Z"/><path class="cls-10" d="M551.35,437.28A78.33,78.33,0,0,1,500,455.89c-20.26,0-38.61-7.31-52-19.15,13.2-4,31.08-6.48,50.81-6.48C519.42,430.26,538,433,551.35,437.28Z"/><path class="cls-7" d="M567.63,390c-4.56,14.19-33.1,25.11-67.63,25.11S436.93,404.19,432.37,390a9.31,9.31,0,0,1,3.11-.51h129A9.31,9.31,0,0,1,567.63,390Z"/><path class="cls-6" d="M519,365.37a47.26,47.26,0,0,1-4.49,2c-1.51.59-3,1.18-4.57,1.67l-.12,0-.6.05a15,15,0,0,1-9.93-2.85,17.15,17.15,0,0,1-6.24-8.33,16.62,16.62,0,0,1-.94-5.17l.05-4.38.13-8.56c.14-5.71.29-11.42.51-17.13s.48-11.42.89-17.13a1.65,1.65,0,0,1,3.28,0c.41,5.71.66,11.42.89,17.13s.37,11.42.51,17.13l.13,8.56.07,4.19a10.68,10.68,0,0,0,4.53,8.33,13.6,13.6,0,0,0,6.12,2.27l-.71.08c1.59-.28,3.21-.47,4.83-.66s3.25-.31,4.91-.3a1.61,1.61,0,0,1,.75,3Z"/><path class="cls-1" d="M452.05,224.81c-57.41-29.17-60.88-152.66,9.44-132.39C555.42,119.5,458.82,172.74,452.05,224.81Z"/><path class="cls-1" d="M512.28,229.28c33.3-18.64,17-133.51-26.07-125.12C428.62,115.36,500,179.61,512.28,229.28Z"/><path class="cls-1" d="M570.26,227.34c30.47-23-1.19-134.59-42.76-120.45C472,125.79,551.39,179.78,570.26,227.34Z"/><ellipse class="cls-1" cx="394.65" cy="173.26" rx="78.58" ry="26.54" transform="translate(47.28 428.41) rotate(-60)"/><ellipse class="cls-1" cx="602.65" cy="173.26" rx="26.54" ry="78.58" transform="translate(-5.89 324.54) rotate(-30)"/><path class="cls-1" d="M645.79,185s-5.67-46.75-48-87.95a183.31,183.31,0,0,0-25.13-20.42c-28.67-19.41-68.42-35-123.45-39.66,14.56,18.89,23,29.1,23,29.1s-75.65,5.62-100.77-18.89c12.67,47.49,17.36,52,17.36,52s-46.42-11.43-55.61-30.58c-12.26,47.74,23.49,76,23.49,76S336.62,138,308,128.83C321.3,172.75,346.54,183,346.54,183s-14.52,4.06-36.47-8.05c7.15,36.26,38.69,60.54,39.14,72.92S452.54,132.92,497,133.94,645.79,185,645.79,185Z"/><path class="cls-11" d="M757.21,855a2.85,2.85,0,0,1-2.94-2.69l-5.69-268.51a2.95,2.95,0,0,1,5.88-.09l5.69,268.52a2.82,2.82,0,0,1-2.89,2.76Z"/><path class="cls-11" d="M247,855a2.85,2.85,0,0,0,2.94-2.69l5.69-268.51a2.95,2.95,0,0,0-5.88-.09L244,852.27A2.82,2.82,0,0,0,246.9,855Z"/><path class="cls-12" d="M473.1,263.84c-22.91-4.1-33-4.63-56.58,0,6-7.57,16.45-12.57,28.28-12.57S467.06,256.27,473.1,263.84Z"/><path class="cls-12" d="M590,263.84c-22.91-4.1-33-4.63-56.58,0,6-7.57,16.45-12.57,28.28-12.57S584,256.27,590,263.84Z"/></svg>