<svg id="Laag_1" data-name="Laag 1" xmlns="http://www.w3.org/2000/svg" viewBox="0 0 1000 1069.55"><defs><style>.cls-1,.cls-4{fill:#9b743d;}.cls-1{fill-rule:evenodd;}.cls-2{fill:#e2b7a8;}.cls-3{fill:#e9d0ba;}.cls-5{fill:#74572e;}.cls-6{fill:#b8585e;}.cls-7{fill:#ff95bd;}.cls-8{fill:#fff;}.cls-9{fill:#999;}.cls-10{fill:#aa897e;}</style></defs><title>kuisvrouw</title><ellipse cx="499.58" cy="401.58" rx="164.99" ry="258.51"/><polygon class="cls-1" points="887.98 1069.33 836.66 882.23 799.09 677.14 683.24 703.59 738.39 904.66 768.6 1069.55 887.98 1069.33"/><polygon class="cls-1" points="112.93 1069.55 164.31 882.23 201.88 677.14 317.73 703.59 262.58 904.66 232.37 1069.55 112.93 1069.55"/><polygon class="cls-2" points="720.42 1069.55 280.57 1069.55 289.86 590.9 415.25 567.95 442.05 563.04 559.08 563.04 585.88 567.96 711.13 590.9 720.42 1069.55"/><path class="cls-3" d="M559.08,495v43.17c-15.77,11.06-34,17.8-53,17.8H493c-18.13,0-35.67-6.19-51-16.45V495Z"/><path class="cls-2" d="M285.12,818.68s-43.58,1.21-76.77-5.09-69.84-45.26-69.84-45.26S252,604.06,261.23,599.73s28.63-8.83,28.63-8.83Z"/><path class="cls-2" d="M715.85,818.68s43.58,1.21,76.77-5.09,69.84-45.26,69.84-45.26S748.94,604.06,739.74,599.73s-28.63-8.83-28.63-8.83Z"/><polygon class="cls-4" points="570.04 568.07 499.98 627.25 431.1 568.07 431.1 447.29 570.04 447.29 570.04 568.07"/><path class="cls-5" d="M570,465.08v61.27c-18.73,15.7-40.41,25.26-62.88,25.26H491.64c-21.53,0-42.35-8.78-60.54-23.35V465.08Z"/><ellipse class="cls-4" cx="377.14" cy="363.23" rx="24.59" ry="48.19" transform="translate(-27.65 31.1) rotate(-4.55)"/><ellipse class="cls-4" cx="623.01" cy="363.23" rx="48.19" ry="24.59" transform="matrix(0.08, -1, 1, 0.08, 211.45, 955.43)"/><path class="cls-4" d="M505.13,526.49c14.78,0,58.9-.13,96.87-90.73a107.59,107.59,0,0,0,8.2-37.4L614,300.68c0-54.41-32.23-105.62-86.64-105.62H471.85c-54.41,0-86.65,51.21-86.65,105.62L389,397.82a108.81,108.81,0,0,0,9.16,39.66C438.63,529.54,490.42,526.49,505.13,526.49Z"/><path d="M467.16,289.87A110,110,0,0,0,414,303.07a2.22,2.22,0,0,0-1,3.05,2.31,2.31,0,0,0,2.74.93A100.85,100.85,0,0,1,466,303.33a7.4,7.4,0,0,0,8.48-5.09c1-3.6-1.52-7.44-5.83-8.23A9.13,9.13,0,0,0,467.16,289.87Z"/><path d="M532.51,289.87a110,110,0,0,1,53.17,13.2,2.22,2.22,0,0,1,1,3.05,2.31,2.31,0,0,1-2.74.93,100.85,100.85,0,0,0-50.24-3.72,7.4,7.4,0,0,1-8.48-5.09c-1-3.6,1.52-7.44,5.83-8.23A9,9,0,0,1,532.51,289.87Z"/><path class="cls-6" d="M549.53,439.76A43.25,43.25,0,0,1,534.72,466a54.06,54.06,0,0,1-69.7-.37,43.08,43.08,0,0,1-14.4-25.89,5.26,5.26,0,0,1,3.83-5.64,6.3,6.3,0,0,1,2.1-.35H543.6a6.3,6.3,0,0,1,2.1.35A5.26,5.26,0,0,1,549.53,439.76Z"/><path class="cls-7" d="M534.72,466a54.06,54.06,0,0,1-69.7-.37c8.9-2.71,21-4.37,34.27-4.37C513.18,461.28,525.73,463.09,534.72,466Z"/><path class="cls-8" d="M545.7,434.12c-3.08,9.57-22.33,16.94-45.62,16.94s-42.55-7.37-45.63-16.94a6.3,6.3,0,0,1,2.1-.35H543.6A6.3,6.3,0,0,1,545.7,434.12Z"/><path class="cls-5" d="M492.24,410.86a39.22,39.22,0,0,0,4,1.11c1.34.29,2.69.58,4,.8h.1l.5,0a12.68,12.68,0,0,0,7.92-3.68,14.44,14.44,0,0,0,4.12-7.76,14.69,14.69,0,0,0,.11-4.44l-.62-3.64-1.23-7.13c-.86-4.74-1.72-9.48-2.65-14.22s-1.89-9.46-3-14.16a1.38,1.38,0,0,0-2.73.42c.39,4.82.93,9.61,1.49,14.4s1.18,9.58,1.81,14.36l1,7.16.49,3.5a8.93,8.93,0,0,1-2.69,7.54,11.37,11.37,0,0,1-4.81,2.69l.61,0c-1.37,0-2.74,0-4.12.08a39.11,39.11,0,0,0-4.14.39,1.36,1.36,0,0,0-.23,2.62Z"/><ellipse cx="437.82" cy="235.33" rx="78.93" ry="36.53" transform="translate(-38.17 378.51) rotate(-45)"/><ellipse cx="556" cy="224.13" rx="42.52" ry="100.56" transform="translate(4.37 458.8) rotate(-45)"/><ellipse class="cls-8" cx="448.3" cy="332.87" rx="25.44" ry="20.18"/><ellipse class="cls-8" cx="551.37" cy="332.87" rx="25.44" ry="20.18"/><circle class="cls-9" cx="450.05" cy="333.59" r="12.23"/><circle cx="450.05" cy="333.59" r="6.36"/><circle class="cls-8" cx="446.63" cy="328.21" r="4.89"/><circle class="cls-9" cx="549.62" cy="333.59" r="12.23"/><circle cx="549.62" cy="333.59" r="6.36"/><circle class="cls-8" cx="546.19" cy="328.21" r="4.89"/><path class="cls-10" d="M713.61,822.83a2.42,2.42,0,0,1-2.5-2.28L706.27,592.3a2.51,2.51,0,0,1,5-.08l4.84,228.26a2.4,2.4,0,0,1-2.46,2.35Z"/><path class="cls-10" d="M284.77,822.83a2.42,2.42,0,0,0,2.5-2.28l4.84-228.25a2.51,2.51,0,0,0-5-.08l-4.84,228.26a2.4,2.4,0,0,0,2.46,2.35Z"/><path class="cls-5" d="M472.23,325c-19.24-4.09-27.68-4.62-47.53,0,4.21-7.47,10.43-12.57,23.76-12.57S467.16,317.45,472.23,325Z"/><path class="cls-5" d="M574.85,325c-19.25-4.09-27.69-4.62-47.53,0,4.2-7.47,10.43-12.57,23.75-12.57S569.77,317.45,574.85,325Z"/></svg>