<svg id="Laag_1" data-name="Laag 1" xmlns="http://www.w3.org/2000/svg" viewBox="0 0 1000 1035.98"><defs><style>.cls-1,.cls-2{fill:#efe2d6;}.cls-2,.cls-7,.cls-8,.cls-9{fill-rule:evenodd;}.cls-3{fill:#92b6c1;}.cls-4{fill:#e9d0ba;}.cls-5{fill:#e9f0f3;}.cls-6{fill:#c7d5dd;}.cls-19,.cls-7{fill:#fff;}.cls-13,.cls-8{fill:#e6e6e6;}.cls-9{fill:#999;}.cls-10{fill:#f2f2f2;}.cls-11{fill:#bdccd4;}.cls-12{fill:#b3b3b3;}.cls-14{fill:#ccc;}.cls-15{fill:gray;}.cls-16{fill:#4d4d4d;}.cls-17{fill:#333;}.cls-18{fill:#dcbea7;}.cls-20{fill:#8cc63f;}.cls-21{fill:#b8585e;}.cls-22{fill:#ff95bd;}</style></defs><title>kuisvrouw</title><path class="cls-1" d="M582.87,482.91v10.7c-20.73-15.49-48.37-23.33-82.28-23.33s-61.52,7.82-82.29,23.28V482.87c21.71-13.81,49.31-20.79,82.29-20.79S561.19,469.07,582.87,482.91Z"/><path d="M584.14,402.73a9.29,9.29,0,0,0,2.48,2.22c.88.62,1.82,1.15,2.74,1.7,1.84,1.05,3.66,2,5.5,3l10.77,5.53c7,3.64,13.83,7.31,20.3,11.18A283.5,283.5,0,0,1,662,451.73c1.38,1.15,2.77,2.32,4.13,3.5l2,1.77,1,.9.59.5c1.5,1.39,3.13,2.57,4.7,3.78A67.53,67.53,0,0,0,685,468.3a86.74,86.74,0,0,0,12.59,4.7,142.26,142.26,0,0,0,14.83,3.32,309.46,309.46,0,0,0,34.7,3.65c12.44.7,25.56,1,39.21,1.11,6.82.05,13.79.12,20.87.1l21.71,0h22.67c7.79,0,15.68,0,24.33-.15a72.35,72.35,0,0,1-6.56,11.07,111.4,111.4,0,0,1-7.89,9.94,157.86,157.86,0,0,1-18,17.28,193.42,193.42,0,0,1-41.91,26.06,198.79,198.79,0,0,1-48,15.11,176.77,176.77,0,0,1-53.53,1.53,157.69,157.69,0,0,1-28.27-6.34c-2.37-.78-4.74-1.57-7.1-2.5s-4.73-1.88-7.07-2.89a136.94,136.94,0,0,1-13.89-7.12,126.66,126.66,0,0,1-25.39-19.51c-1.88-1.94-3.79-3.85-5.53-5.91l-2.63-3-2.48-3.17L606.34,510l-.76-1.23-1.48-2.5c-1-1.67-2-3.33-2.87-5.05a195.42,195.42,0,0,1-10.17-21.38,176.05,176.05,0,0,1-7.63-23.37c-.51-2.06-1-4.1-1.42-6.19s-.84-4.19-1.15-6.36a124,124,0,0,1-1.43-13.2,87.88,87.88,0,0,1,.26-13.91,51.5,51.5,0,0,1,1.25-7.22,28.48,28.48,0,0,1,1.17-3.6,12.62,12.62,0,0,1,.84-1.74A4.82,4.82,0,0,1,584.14,402.73Z"/><polygon class="cls-2" points="936.42 1035.92 896.68 891.05 852.19 648.13 714.96 679.46 780.29 917.63 802.15 1036.98 936.42 1035.92"/><polygon class="cls-2" points="62.26 1036.98 102.29 891.05 146.78 648.13 284.01 679.46 218.68 917.63 196.82 1036.98 62.26 1036.98"/><polygon class="cls-3" points="761 1036.98 240 1036.98 251 545.98 399.53 518.79 431.27 512.98 569.89 512.98 601.63 518.8 750 545.98 761 1036.98"/><path class="cls-4" d="M569.89,432.4v51.14c-18.68,13.11-40.31,21.09-62.73,21.09H491.67c-21.48,0-42.25-7.33-60.4-19.49V432.4Z"/><polygon class="cls-1" points="643.99 526.58 499.37 678.97 357.17 526.56 429.11 513.4 576.85 514.27 643.99 526.58"/><path class="cls-5" d="M244.87,840.38s-56.32,1.56-99.22-6.59S55.38,775.3,55.38,775.3,202.11,563,214,557.39,250.45,546,250.45,546Z"/><path class="cls-5" d="M755.16,839.32s56.32,1.56,99.22-6.59,90.27-58.49,90.27-58.49S797.92,561.92,786,556.33s-37-11.41-37-11.41Z"/><polygon class="cls-5" points="762.06 1035.92 598.87 1035.92 598.87 516.68 602.28 517.74 751.03 544.92 762.06 1035.92"/><polygon class="cls-5" points="402.9 516.72 402.9 1035.92 239.71 1035.92 250.73 544.92 399.65 517.73 402.9 516.72"/><path class="cls-6" d="M244.92,839.4h0a2.5,2.5,0,0,1-2.46-2.54l4.68-288.09a2.5,2.5,0,0,1,2.5-2.46h0a2.5,2.5,0,0,1,2.46,2.54l-4.68,288.09A2.49,2.49,0,0,1,244.92,839.4Z"/><path class="cls-6" d="M755.66,838.34a2.5,2.5,0,0,1-2.5-2.46l-4.68-288.09a2.5,2.5,0,0,1,5-.08l4.68,288.09a2.5,2.5,0,0,1-2.46,2.54Z"/><path class="cls-7" d="M728.09,715.77a13.54,13.54,0,0,0-13.53-13.54H555.24a13.54,13.54,0,0,0-13.53,13.54V809.9H728.09Z"/><path class="cls-8" d="M555.24,831.94H714.56a13.53,13.53,0,0,0,13.53-13.53V803.9H541.71v14.51A13.53,13.53,0,0,0,555.24,831.94Z"/><path class="cls-9" d="M634.9,717.51h0a13.79,13.79,0,0,1-13.79-13.79V685.43h27.58v18.29A13.78,13.78,0,0,1,634.9,717.51Z"/><rect class="cls-10" x="626.68" y="690.75" width="16.45" height="2.61"/><rect class="cls-10" x="626.68" y="696.91" width="16.45" height="2.61"/><rect class="cls-10" x="626.68" y="703.06" width="16.45" height="2.61"/><path class="cls-11" d="M616.52,785.39H562.65V724h53.87Zm-51.11-2.77h48.34V726.79H565.41Z"/><path class="cls-12" d="M594.53,750.39a10.65,10.65,0,1,0-9.89,0,19.82,19.82,0,0,0-14.89,19.18c0,10.95,39.66,10.95,39.66,0A19.82,19.82,0,0,0,594.53,750.39Z"/><path class="cls-13" d="M711.92,739.06H632.77a5,5,0,0,1,0-10h79.15a5,5,0,1,1,0,10Z"/><path class="cls-13" d="M694.67,765.62h-61.9a5,5,0,0,1,0-10h61.9a5,5,0,0,1,0,10Z"/><path class="cls-6" d="M380.84,854.74v68.57a53.63,53.63,0,1,1-107.26,0V854.74H380.84m7-7H266.58v28.85h0v46.72a60.63,60.63,0,0,0,60.63,60.63h0a60.62,60.62,0,0,0,60.63-60.63V862.68h0V847.74Z"/><circle class="cls-14" cx="634.9" cy="646.35" r="33.93"/><circle class="cls-15" cx="634.9" cy="646.35" r="21.18"/><path class="cls-14" d="M362,591.76c27.24-.64,49.52,7.91,66.2,25.41s27.7,43.9,32.71,78.45c3.32,22.87,4,48.78,2,77-1.18,16.55-23.78,25-26.35,25.85a4.89,4.89,0,1,1-3.24-9.23c4.94-1.75,19.22-8.7,19.83-17.31,2-27.53,1.32-52.73-1.89-74.9-4.72-32.5-14.85-57.1-30.11-73.11-14.7-15.42-34.52-22.95-58.89-22.38-23.35.55-42.18,8.76-56,24.4-33.35,37.82-31.51,110.31-27.45,150.15,1.39,13.62,20.21,16.08,20.4,16.1a4.89,4.89,0,0,1-1.14,9.72,45.9,45.9,0,0,1-13.24-4c-9.38-4.56-14.83-11.76-15.75-20.81-4.23-41.43-6-117,29.85-157.61C314.59,601.7,335.82,592.38,362,591.76Z"/><path class="cls-16" d="M426.2,780.63c7.45-6.06,27.79,18.92,20.34,25a17.64,17.64,0,0,1-16.74,3.26,15.08,15.08,0,0,1-10.19-12.51A17.64,17.64,0,0,1,426.2,780.63Z"/><path class="cls-17" d="M421.65,795.69c3.74.49,9.49,7.55,9.23,11.32a1.19,1.19,0,0,1-1.65,1,15.09,15.09,0,0,1-8.91-10.93A1.2,1.2,0,0,1,421.65,795.69Z"/><path class="cls-16" d="M312,783.31c-7.72-5.71-26.87,20.19-19.15,25.9a17.64,17.64,0,0,0,16.87,2.48,15.1,15.1,0,0,0,9.6-13A17.63,17.63,0,0,0,312,783.31Z"/><path class="cls-17" d="M317.23,798.13c-3.71.67-9.13,8-8.69,11.75a1.19,1.19,0,0,0,1.69.93,15,15,0,0,0,8.39-11.34A1.2,1.2,0,0,0,317.23,798.13Z"/><path class="cls-15" d="M638.25,622.87a3.72,3.72,0,0,1-1.16,2.4,5.5,5.5,0,0,1-3.83,1.47H633a5.69,5.69,0,0,1-3-1,3.8,3.8,0,0,1-1.73-3.33c0-.12.07-3.57-.13-9.32-.87-23.66-6.4-86.19-39.84-115.13q-2.62-2.28-5.42-4.35c-20.73-15.49-48.37-23.33-82.28-23.33s-61.52,7.82-82.29,23.28c-1.9,1.4-3.73,2.87-5.51,4.41-37.64,32.5-38.6,84-38.41,94.16,0,1.08.05,1.69.06,1.75.14,2.26-2,4.18-4.73,4.3s-5.11-1.61-5.26-3.87c0-.26-.07-1.15-.1-2.57-.26-12.3,1.11-64.78,41.15-99.37a106.85,106.85,0,0,1,12.8-9.5c21.71-13.81,49.31-20.79,82.29-20.79s60.6,7,82.28,20.83a106.74,106.74,0,0,1,12.72,9.46c35.89,31.09,41.75,95.16,42.58,120.2C638.37,618.6,638.28,622.37,638.25,622.87Z"/><polygon class="cls-1" points="582.87 518.93 499.89 624.58 418.3 518.93 418.3 375.87 582.87 375.87 582.87 518.93"/><path class="cls-18" d="M582.87,396.94v72.57c-22.18,18.6-47.86,29.93-74.47,29.93H490c-25.5,0-50.16-10.4-71.71-27.66V396.94Z"/><ellipse cx="497.86" cy="249.67" rx="165.48" ry="196.05"/><ellipse class="cls-1" cx="359.08" cy="303.18" rx="27.87" ry="54.62" transform="translate(-22.94 29.47) rotate(-4.55)"/><ellipse class="cls-1" cx="637.75" cy="303.18" rx="54.62" ry="27.87" transform="translate(284.88 914.84) rotate(-85.45)"/><path class="cls-1" d="M504.15,488.22c16.74,0,66.75-.14,109.79-102.83a121.7,121.7,0,0,0,9.29-42.4l4.27-110.72c0-61.66-36.54-119.71-98.2-119.71H466.42c-61.67,0-98.21,58.05-98.21,119.71l4.25,110.11a123.4,123.4,0,0,0,10.38,44.95C428.77,491.68,487.47,488.22,504.15,488.22Z"/><ellipse class="cls-19" cx="439.73" cy="269.58" rx="28.84" ry="20.93"/><circle class="cls-20" cx="441.72" cy="269.58" r="13.86"/><circle cx="441.72" cy="269.58" r="7.21"/><circle class="cls-19" cx="437.83" cy="263.48" r="5.55"/><path d="M461.1,220a124.7,124.7,0,0,0-60.26,15,2.52,2.52,0,0,0-1.14,3.46,2.62,2.62,0,0,0,3.11,1.05,114.35,114.35,0,0,1,56.95-4.21,8.4,8.4,0,0,0,9.61-5.77c1.17-4.08-1.72-8.43-6.61-9.33A10.48,10.48,0,0,0,461.1,220Z"/><ellipse class="cls-19" cx="556.55" cy="269.58" rx="28.84" ry="20.93"/><circle class="cls-20" cx="554.56" cy="269.58" r="13.86"/><circle cx="554.56" cy="269.58" r="7.21"/><circle class="cls-19" cx="550.68" cy="263.48" r="5.55"/><path d="M535.18,220a124.7,124.7,0,0,1,60.26,15,2.52,2.52,0,0,1,1.14,3.46,2.62,2.62,0,0,1-3.11,1.05,114.35,114.35,0,0,0-57-4.21,8.4,8.4,0,0,1-9.61-5.77c-1.17-4.08,1.72-8.43,6.61-9.33A10.48,10.48,0,0,1,535.18,220Z"/><path class="cls-21" d="M554.47,389.92a49,49,0,0,1-16.79,29.76,61.28,61.28,0,0,1-79-.42,48.87,48.87,0,0,1-16.32-29.34,6,6,0,0,1,4.34-6.4,7.16,7.16,0,0,1,2.38-.39h98.67a7.16,7.16,0,0,1,2.38.39A6,6,0,0,1,554.47,389.92Z"/><path class="cls-22" d="M537.68,419.68a61.28,61.28,0,0,1-79-.42c10.09-3.07,23.76-4.95,38.84-4.95C513.26,414.31,527.49,416.36,537.68,419.68Z"/><path class="cls-19" d="M550.13,383.52c-3.49,10.85-25.31,19.21-51.72,19.21s-48.22-8.36-51.71-19.21a7.16,7.16,0,0,1,2.38-.39h98.67A7.16,7.16,0,0,1,550.13,383.52Z"/><path class="cls-18" d="M489.54,357.16a46.42,46.42,0,0,0,4.54,1.26c1.52.33,3,.66,4.57.9l.12,0,.57,0a14.41,14.41,0,0,0,9-4.16,16.36,16.36,0,0,0,4.67-8.8,16.08,16.08,0,0,0,.12-5l-.69-4.13L511,329.1c-1-5.38-1.95-10.75-3-16.12s-2.14-10.72-3.37-16.06a1.57,1.57,0,0,0-3.1.49c.45,5.46,1.06,10.89,1.69,16.32s1.34,10.85,2,16.27l1.14,8.11.55,4a10.13,10.13,0,0,1-3,8.55,13,13,0,0,1-5.46,3.05l.69,0c-1.55,0-3.1,0-4.66.09a46.77,46.77,0,0,0-4.69.45,1.54,1.54,0,0,0-.26,3Z"/><ellipse cx="427.85" cy="158.2" rx="89.47" ry="41.4" transform="translate(13.45 348.87) rotate(-45)"/><ellipse cx="561.8" cy="145.51" rx="48.19" ry="113.98" transform="translate(61.66 439.87) rotate(-45)"/><path class="cls-18" d="M467.72,263c-22.51-4.69-32.37-5.3-55.58,0,4.91-8.55,12.2-14.39,27.78-14.39S461.79,254.37,467.72,263Z"/><path class="cls-18" d="M584.35,263c-22.51-4.69-32.38-5.3-55.59,0,4.92-8.55,12.2-14.39,27.78-14.39S578.41,254.37,584.35,263Z"/></svg>