<svg xmlns="http://www.w3.org/2000/svg" id="Laag_1" data-name="Laag 1" viewBox="0 0 1000 1039.6"><defs><style>.cls-1,.cls-7{fill:#e9d0ba}.cls-1{fill-rule:evenodd}.cls-2{fill:red}.cls-3{fill:#890200}.cls-4{fill:#42210b}.cls-5{fill:#8c6239}.cls-6{fill:#ff1d25}.cls-8{fill:#d3b79c}.cls-9{fill:#fff}.cls-10{fill:#00a99d}.cls-11{fill:#b8585e}.cls-12{fill:#ff95bd}.cls-13{fill:#b1041e}.cls-14{fill:#4d4d4d}.cls-15{fill:#fbb03b}.cls-16{fill:#fcb321}.cls-17{fill:#b38701}</style></defs><title>kuisvrouw</title><polygon points="888.15 1040 836.66 852.27 799.09 647.19 683.24 673.63 738.39 874.7 768.67 1040 888.15 1040" class="cls-1"/><polygon points="112.82 1040 164.31 852.27 201.88 647.19 317.73 673.63 262.58 874.7 232.3 1040 112.82 1040" class="cls-1"/><polygon points="720.16 1039.08 280.31 1039.08 280.77 1015.61 281.88 958.75 282.88 907.43 283.97 850.57 284.96 799.25 286.07 742.39 287.06 691.07 288.18 634.21 289.17 582.89 289.6 560.43 415 537.48 441.79 532.57 558.82 532.57 585.62 537.49 710.87 560.43 711.31 582.89 712.3 634.21 713.41 691.07 714.4 742.39 715.51 799.25 716.5 850.57 717.6 907.43 718.6 958.75 719.7 1015.61 720.16 1039.08" class="cls-2"/><path d="M285.12,788.73s-43.58,1.2-76.77-5.1-69.84-45.26-69.84-45.26S252,574.1,261.23,569.77s28.63-8.83,28.63-8.83Z" class="cls-3"/><path d="M715.09,788.85s43.57,1.21,76.77-5.09,69.83-45.26,69.83-45.26S748.17,574.23,739,569.9s-28.63-8.83-28.63-8.83Z" class="cls-3"/><polygon points="712.3 634.21 288.18 634.21 289.17 582.89 711.31 582.89 712.3 634.21" class="cls-4"/><polygon points="713.41 691.07 287.06 691.07 286.07 742.39 714.4 742.39 713.41 691.07" class="cls-4"/><polygon points="716.5 850.57 283.97 850.57 284.96 799.25 715.51 799.25 716.5 850.57" class="cls-4"/><polygon points="717.6 907.43 282.87 907.43 281.87 958.75 718.6 958.75 717.6 907.43" class="cls-4"/><polygon points="720.16 1039.08 280.31 1039.08 280.77 1015.61 719.7 1015.61 720.16 1039.08" class="cls-4"/><circle cx="499.58" cy="62.92" r="56.42" class="cls-5"/><ellipse cx="499.58" cy="131.7" class="cls-6" rx="43.67" ry="30.18"/><ellipse cx="499.58" cy="286.07" class="cls-5" rx="145.99" ry="172.96"/><path d="M559.08,465.06v43.17c-15.77,11.07-34,17.8-53,17.8H493c-18.13,0-35.67-6.18-51-16.45V465.06Z" class="cls-7"/><path d="M570,538.11S556.28,578.3,500,578.3s-68.88-40.19-68.88-40.19V417.33H570Z" class="cls-7"/><path d="M570,435.12v61.27c-18.73,15.7-40.41,25.26-62.88,25.26H491.64c-21.53,0-42.35-8.78-60.54-23.35V435.12Z" class="cls-8"/><ellipse cx="379.43" cy="330.33" class="cls-7" rx="20.68" ry="40.53" transform="translate(-25.03 31.18) rotate(-4.55)"/><ellipse cx="619.43" cy="330.33" class="cls-7" rx="40.53" ry="20.68" transform="translate(240.95 921.57) rotate(-85.45)"/><path d="M505.13,496.53c14.78,0,58.9-.12,96.87-90.72a107.7,107.7,0,0,0,8.2-37.41L614,270.72c0-54.41-32.23-105.62-86.64-105.62H471.85c-54.41,0-86.65,51.21-86.65,105.62L389,367.87a108.76,108.76,0,0,0,9.16,39.65C438.63,499.58,490.42,496.53,505.13,496.53Z" class="cls-7"/><ellipse cx="448.3" cy="303.63" class="cls-9" rx="25.44" ry="20.18"/><circle cx="450.05" cy="303.63" r="12.23" class="cls-10"/><circle cx="450.05" cy="303.63" r="6.36"/><circle cx="446.63" cy="298.25" r="4.89" class="cls-9"/><path d="M467.16,259.91A110,110,0,0,0,414,273.11a2.22,2.22,0,0,0-1,3.05,2.3,2.3,0,0,0,2.74.93A100.85,100.85,0,0,1,466,273.37a7.4,7.4,0,0,0,8.48-5.09c1-3.6-1.52-7.44-5.83-8.23A9.13,9.13,0,0,0,467.16,259.91Z" class="cls-5"/><ellipse cx="551.37" cy="303.63" class="cls-9" rx="25.44" ry="20.18"/><circle cx="549.62" cy="303.63" r="12.23" class="cls-10"/><circle cx="549.62" cy="303.63" r="6.36"/><circle cx="546.19" cy="298.25" r="4.89" class="cls-9"/><path d="M532.51,259.91a110,110,0,0,1,53.17,13.2,2.22,2.22,0,0,1,1,3.05,2.3,2.3,0,0,1-2.74.93,100.85,100.85,0,0,0-50.24-3.72,7.4,7.4,0,0,1-8.48-5.09c-1-3.6,1.52-7.44,5.83-8.23A9,9,0,0,1,532.51,259.91Z" class="cls-5"/><path d="M549.53,409.8a43.25,43.25,0,0,1-14.81,26.26,54.06,54.06,0,0,1-69.7-.37,43.08,43.08,0,0,1-14.4-25.89,5.26,5.26,0,0,1,3.83-5.64,6.3,6.3,0,0,1,2.1-.35H543.6a6.3,6.3,0,0,1,2.1.35A5.26,5.26,0,0,1,549.53,409.8Z" class="cls-11"/><path d="M534.72,436.06a54.06,54.06,0,0,1-69.7-.37c8.9-2.7,21-4.37,34.27-4.37C513.18,431.32,525.73,433.14,534.72,436.06Z" class="cls-12"/><path d="M545.7,404.16c-3.08,9.57-22.33,16.94-45.62,16.94s-42.55-7.37-45.63-16.94a6.3,6.3,0,0,1,2.1-.35H543.6A6.3,6.3,0,0,1,545.7,404.16Z" class="cls-9"/><ellipse cx="437.82" cy="205.37" class="cls-5" rx="78.93" ry="36.53" transform="translate(-16.98 369.74) rotate(-45)"/><ellipse cx="556" cy="194.17" class="cls-5" rx="42.52" ry="100.56" transform="translate(25.55 450.02) rotate(-45)"/><path d="M533.73,358A34.17,34.17,0,1,1,524,334.12,34.14,34.14,0,0,1,533.73,358Z" class="cls-13"/><path d="M527.3,348.75a34.13,34.13,0,0,1-58.58,23.84A34.15,34.15,0,0,1,524,334.12,34.07,34.07,0,0,1,527.3,348.75Z" class="cls-6"/><path d="M386.87,1040H324.26V550.73a9.15,9.15,0,0,1,7.62-9l44.33-7.49a9.15,9.15,0,0,1,10.66,9Z" class="cls-14"/><path d="M386.66,847.85v39.58H324.19V847.85Zm10.77-10h-84v59.58h84V837.85Z" class="cls-15"/><path d="M615,1040h62.61V550.73a9.15,9.15,0,0,0-7.62-9l-44.32-7.49a9.15,9.15,0,0,0-10.67,9Z" class="cls-14"/><path d="M615.19,847.85h62.47v39.58H615.19V847.85Zm-10.76-10v59.58h84V837.85Z" class="cls-15"/><path d="M631.37,617.46c0,18.31-6.09,33.55-14.13,36.85A8.64,8.64,0,0,1,614,655a8.51,8.51,0,0,1-3.28-.67c-8-3.3-14.12-18.54-14.12-36.84,0-20.72,7.78-37.51,17.4-37.51S631.37,596.74,631.37,617.46Z" class="cls-16"/><path d="M617.24,654.31A8.64,8.64,0,0,1,614,655a8.51,8.51,0,0,1-3.28-.67l3.28-53Z" class="cls-17"/><path d="M665.08,645.84c-13,12.95-28,19.42-36.05,16.07a8.78,8.78,0,0,1-2.78-1.85,8.55,8.55,0,0,1-1.85-2.79c-3.35-8,3.13-23.09,16.07-36,14.65-14.65,32-21,38.83-14.22S679.73,631.19,665.08,645.84Z" class="cls-16"/><path d="M629,661.91a8.78,8.78,0,0,1-2.78-1.85,8.55,8.55,0,0,1-1.85-2.79l39.81-35.17Z" class="cls-17"/><path d="M668.85,689.75c-18.31,0-33.55-6.09-36.85-14.13a8.45,8.45,0,0,1-.66-3.27,8.33,8.33,0,0,1,.67-3.28c3.3-8.05,18.53-14.13,36.84-14.13,20.71,0,37.51,7.79,37.51,17.41S689.56,689.75,668.85,689.75Z" class="cls-16"/><path d="M632,675.62a8.45,8.45,0,0,1-.66-3.27,8.33,8.33,0,0,1,.67-3.28l53,3.28Z" class="cls-17"/><path d="M640.47,723.46c-13-13-19.42-28-16.07-36.05a8.36,8.36,0,0,1,1.85-2.78,8.55,8.55,0,0,1,2.79-1.85c8-3.35,23.09,3.12,36,16.07,14.65,14.65,21,32,14.22,38.83S655.12,738.11,640.47,723.46Z" class="cls-16"/><path d="M624.4,687.41a8.36,8.36,0,0,1,1.85-2.78,8.55,8.55,0,0,1,2.79-1.85l35.17,39.81Z" class="cls-17"/><path d="M596.56,727.22c0-18.3,6.09-33.54,14.13-36.84a8.34,8.34,0,0,1,6.55,0c8,3.3,14.12,18.54,14.12,36.84,0,20.72-7.78,37.51-17.4,37.51S596.56,747.94,596.56,727.22Z" class="cls-16"/><path d="M610.69,690.38a8.34,8.34,0,0,1,6.55,0l-3.28,53Z" class="cls-17"/><path d="M562.85,698.84c12.95-12.94,28-19.41,36-16.06a8.29,8.29,0,0,1,4.63,4.64c3.36,8-3.12,23.09-16.06,36-14.65,14.65-32,21-38.83,14.22S548.2,713.49,562.85,698.84Z" class="cls-16"/><path d="M598.89,682.78a8.29,8.29,0,0,1,4.63,4.64l-39.8,35.16Z" class="cls-17"/><path d="M559.08,654.94c18.31,0,33.55,6.08,36.85,14.13a8.64,8.64,0,0,1,.66,3.27,8.51,8.51,0,0,1-.67,3.28c-3.3,8-18.53,14.12-36.84,14.12-20.72,0-37.51-7.79-37.51-17.4S538.36,654.94,559.08,654.94Z" class="cls-16"/><path d="M595.93,669.07a8.64,8.64,0,0,1,.66,3.27,8.51,8.51,0,0,1-.67,3.28l-53-3.28Z" class="cls-17"/><path d="M587.46,621.23c12.95,12.95,19.42,28,16.07,36a8.66,8.66,0,0,1-1.85,2.79,8.53,8.53,0,0,1-2.79,1.84c-8,3.36-23.09-3.12-36-16.06-14.65-14.65-21-32-14.22-38.83S572.81,606.58,587.46,621.23Z" class="cls-16"/><path d="M603.53,657.27a8.66,8.66,0,0,1-1.85,2.79,8.53,8.53,0,0,1-2.79,1.84l-35.17-39.8Z" class="cls-17"/><circle cx="613.96" cy="672.34" r="38.81" class="cls-4"/><path d="M472.23,296c-19.24-4.09-27.68-4.62-47.53,0,4.21-7.47,10.43-12.57,23.76-12.57S467.16,288.45,472.23,296Z" class="cls-8"/><path d="M575.15,296c-19.37-4.09-27.86-4.62-47.83,0,4.23-7.47,10.5-12.57,23.9-12.57S570,288.45,575.15,296Z" class="cls-8"/></svg>