<svg xmlns="http://www.w3.org/2000/svg" xmlns:xlink="http://www.w3.org/1999/xlink" viewBox="0 0 171.96 252.18"><defs><style>.cls-1,.cls-32{fill:none;}.cls-2{isolation:isolate;}.cls-3{clip-path:url(#clip-path);}.cls-4{fill:url(#Naamloos_verloop_47);}.cls-5{fill:#c7c7c7;}.cls-5,.cls-6{opacity:0.59;}.cls-25,.cls-27,.cls-28,.cls-33,.cls-5,.cls-6{mix-blend-mode:multiply;}.cls-6{fill:#9f9d9d;}.cls-7{fill:#9bc761;}.cls-8{fill:#bcb1a0;}.cls-9{fill:#80ab38;}.cls-10{fill:#508230;}.cls-11{fill:#936138;}.cls-12{fill:#878888;}.cls-13{fill:#3d3c3c;}.cls-14{fill:#dfd7c6;}.cls-15{fill:#c31729;}.cls-16{fill:#aba395;}.cls-17{fill:#2271b8;}.cls-18{fill:#1d2a4d;}.cls-19{fill:#64b1c6;}.cls-20{fill:#b1dacb;}.cls-21,.cls-24{fill:#fff;}.cls-22{fill:#c2b9ac;}.cls-23{fill:#681318;}.cls-24,.cls-28,.cls-33{opacity:0.5;}.cls-25{fill:#70706f;opacity:0.39;}.cls-26,.cls-27{fill:#dadada;}.cls-28{fill:#b3b3b2;}.cls-29{fill:#638c84;}.cls-30{fill:#d1bdaa;}.cls-31{fill:#f7f6f6;}.cls-32{stroke:#878888;stroke-linecap:round;stroke-miterlimit:10;stroke-width:2px;}.cls-34{fill:#8d7462;}.cls-35{fill:#348cc9;}.cls-36{fill:#d7926c;}.cls-37{fill:#be1823;}.cls-38{fill:#d9d9d9;}.cls-39{fill:#d9effd;}.cls-40{fill:#57659b;}.cls-41{fill:#25b5be;}.cls-42{fill:#1d1d1c;}.cls-43{fill:#82c17b;}.cls-44{fill:#885333;}.cls-45{fill:#e10718;}</style><clipPath id="clip-path"><rect class="cls-1" x="2.86" y="2.54" width="166.24" height="247.1" rx="26.54"/></clipPath><linearGradient id="Naamloos_verloop_47" x1="85.98" y1="254.47" x2="85.98" y2="-153.44" gradientTransform="translate(1.06 0.01)" gradientUnits="userSpaceOnUse"><stop offset="0" stop-color="#b1dacb"/><stop offset="0.08" stop-color="#acd7cb"/><stop offset="0.17" stop-color="#9ccfca"/><stop offset="0.28" stop-color="#83c1c8"/><stop offset="0.37" stop-color="#64b1c6"/><stop offset="0.66" stop-color="#253886"/><stop offset="0.98" stop-color="#29265c"/></linearGradient></defs><title>back</title><g class="cls-2"><g id="Laag_1" data-name="Laag 1"><g class="cls-3"><rect class="cls-4" x="2.38" y="-153.43" width="169.32" height="407.92" transform="translate(0.72 -1.22) rotate(0.8)"/><polygon class="cls-5" points="0.29 199.05 1.01 147.76 21.18 148.04 21 160.55 29.34 160.66 29.71 134.7 48.77 116.17 48.35 146.16 58.89 146.31 58.71 158.96 67.41 159.08 67.73 136.27 81.86 122.54 95.4 136.47 95.26 146.55 104.23 146.68 120.66 130.71 140.95 147.19 140.77 159.62 152.25 159.78 152.33 153.6 170.26 153.85 169.58 202.16 0.29 199.05"/><polygon class="cls-6" points="0.13 210.34 0.6 176.79 16.88 160.97 31.9 176.42 32.2 154.6 48.84 154.83 48.67 166.97 68.62 167.25 83.34 152.94 97.62 167.63 106.92 158.59 114.63 167.87 114.52 175.74 122.39 175.85 122.49 168.44 129.25 168.54 129.29 165.46 140.06 165.61 140.02 168.69 147.08 168.79 146.97 176.19 169.94 176.52 169.43 212.71 0.13 210.34"/><rect class="cls-7" x="-0.04" y="190.99" width="169.32" height="63.85" transform="translate(3.14 -1.17) rotate(0.8)"/><rect class="cls-8" x="-0.29" y="226.87" width="169.32" height="27.98" transform="translate(3.39 -1.16) rotate(0.8)"/><path class="cls-9" d="M156.24,189.37a5.06,5.06,0,0,0,5,5.13l.2-13.8C158.63,180.67,156.28,186.58,156.24,189.37Z"/><path class="cls-10" d="M161.42,180.7l-.2,13.8a5.05,5.05,0,0,0,5.13-5C166.39,186.72,164.21,180.74,161.42,180.7Z"/><path class="cls-11" d="M161.47,189.21l.25,11.8a.67.67,0,0,1-.57.73.64.64,0,0,1-.61-.68V201l.59-11.79c0-.11.09-.2.18-.19S161.46,189.11,161.47,189.21Z"/><path class="cls-9" d="M132.89,183.46a5,5,0,0,0,5,5.12l.2-13.79C135.28,174.75,132.93,180.67,132.89,183.46Z"/><path class="cls-10" d="M138.07,174.79l-.2,13.79a5.05,5.05,0,0,0,5.13-5C143,180.81,140.86,174.83,138.07,174.79Z"/><path class="cls-11" d="M138.12,183.3l.25,11.8a.66.66,0,0,1-.57.72.64.64,0,0,1-.61-.68v-.06l.59-11.79a.2.2,0,0,1,.18-.19A.21.21,0,0,1,138.12,183.3Z"/><path class="cls-9" d="M2.81,178.07a7.7,7.7,0,0,0,7.58,7.8l.3-21C6.44,164.83,2.87,173.83,2.81,178.07Z"/><path class="cls-10" d="M10.69,164.89l-.3,21a7.69,7.69,0,0,0,7.8-7.58C18.25,174,14.93,165,10.69,164.89Z"/><path class="cls-11" d="M10.76,177.83l.39,17.95a1,1,0,0,1-.87,1.1,1,1,0,0,1-.92-1v-.09l.89-17.93a.28.28,0,0,1,.27-.28A.27.27,0,0,1,10.76,177.83Z"/><path class="cls-9" d="M118.58,175.48a7.68,7.68,0,0,0,7.58,7.79l.29-21C122.21,162.24,118.64,171.23,118.58,175.48Z"/><path class="cls-10" d="M126.45,162.3l-.29,21a7.68,7.68,0,0,0,7.79-7.58C134,171.45,130.7,162.36,126.45,162.3Z"/><path class="cls-11" d="M126.53,175.24l.38,17.94a1,1,0,0,1-.87,1.11,1,1,0,0,1-.92-1v-.09l.89-17.93a.28.28,0,0,1,.27-.29A.3.3,0,0,1,126.53,175.24Z"/><path class="cls-10" d="M123.92,187.19a8.39,8.39,0,0,0-5.39,1.87,8.17,8.17,0,0,0-10.21-.08,8.46,8.46,0,0,0-6.79-3.7c-4.77-.06-8.69,4-8.77,9.12l39.71.56A9,9,0,0,0,123.92,187.19Z"/><path class="cls-10" d="M20.5,193.46a1.55,1.55,0,0,0,0-.22A2.25,2.25,0,0,0,17,191.31a4.33,4.33,0,0,0-6.15-.95,2.85,2.85,0,0,0-1-.2A2.93,2.93,0,0,0,7,192.22a4.42,4.42,0,0,0-3.56,4.27,4.57,4.57,0,0,0,.07.83l19.88.28A4.33,4.33,0,0,0,20.5,193.46Z"/><path class="cls-10" d="M151.7,189.93a4.91,4.91,0,0,0-.86.07,3.7,3.7,0,0,0-7.05-.78,5,5,0,0,0-3.46,3.67l15.59.21A4.49,4.49,0,0,0,151.7,189.93Z"/><polygon class="cls-12" points="65.81 155.66 66.76 158.32 68.07 158.34 67.61 155.69 65.81 155.66"/><polygon class="cls-12" points="67.93 155.69 68.39 158.34 69.71 158.36 69.75 155.72 67.93 155.69"/><path class="cls-12" d="M64.35,155.64c.32.94.7,1.83,1.07,2.66h1l-1-2.65Z"/><polygon class="cls-12" points="70.06 155.72 70.02 158.37 71.34 158.38 71.87 155.75 70.06 155.72"/><path class="cls-12" d="M74.33,155.78l-1,2.63,1.08,0a20,20,0,0,0,1-2.63Z"/><polygon class="cls-12" points="72.19 155.75 71.66 158.39 72.97 158.41 73.99 155.78 72.19 155.75"/><polygon class="cls-13" points="65.48 155.66 66.43 158.31 66.76 158.32 65.81 155.66 65.48 155.66"/><polygon class="cls-13" points="67.61 155.69 68.07 158.34 68.39 158.34 67.93 155.69 67.61 155.69"/><rect class="cls-13" x="68.56" y="156.89" width="2.65" height="0.31" transform="translate(-88.12 224.71) rotate(-89.2)"/><polygon class="cls-13" points="71.87 155.75 71.34 158.38 71.66 158.39 72.19 155.75 71.87 155.75"/><polygon class="cls-13" points="73.99 155.78 72.97 158.41 73.3 158.41 74.33 155.78 73.99 155.78"/><path class="cls-14" d="M78.82,146.74c.14-10.19-6.59-18.54-8.61-18.57s-9,8.13-9.14,18.32c0,3.71,1.31,7.19,2.63,10.1l12.56.18A25.12,25.12,0,0,0,78.82,146.74Z"/><path class="cls-15" d="M74.71,132.63a33.62,33.62,0,0,0-4.56-.38,33.22,33.22,0,0,0-4.58.25c1.83-2.71,3.73-4.34,4.64-4.33S73,129.86,74.71,132.63Z"/><path class="cls-16" d="M78.85,145.28A70.92,70.92,0,0,0,61.08,145a.5.5,0,0,1-.51-.52.55.55,0,0,1,.43-.63,72,72,0,0,1,18,.25.57.57,0,0,1,.41.64A.52.52,0,0,1,78.85,145.28Z"/><circle class="cls-17" cx="70.07" cy="137.61" r="3.76"/><circle class="cls-18" cx="70.07" cy="137.88" r="3.11"/><path class="cls-19" d="M73.25,137.65a3.16,3.16,0,1,1-.51-1.78A3.22,3.22,0,0,1,73.25,137.65Z"/><path class="cls-20" d="M73.25,137.65a3.17,3.17,0,0,1-5,2.57A3.18,3.18,0,0,1,71,135.31a3.26,3.26,0,0,1,1.77.56A3.22,3.22,0,0,1,73.25,137.65Z"/><circle class="cls-21" cx="69.21" cy="136.72" r="1.04"/><circle class="cls-21" cx="70.26" cy="135.3" r="0.3"/><path class="cls-22" d="M71.92,155.88l-4.2-.06-.4-5a1.53,1.53,0,0,1,1.57-1.65l2,0a1.53,1.53,0,0,1,1.53,1.69Z"/><path class="cls-23" d="M59.91,160.1h-.55c-.72-6.68,2-10.12,2-10.12a1,1,0,0,1,.56-.14c.65,1.68,1.84,6.1,2,6.71C61.82,156.93,59.91,160.1,59.91,160.1Z"/><path class="cls-15" d="M60.44,160.1h-.75c-.48-6.66,2.2-10.26,2.2-10.26a15.53,15.53,0,0,1,2.48,6.38.35.35,0,0,1-.22.41C62.18,157.22,60.44,160.1,60.44,160.1Z"/><path class="cls-23" d="M79.61,160.37h.55c.91-6.66-1.68-10.17-1.68-10.17a1.13,1.13,0,0,0-.56-.16c-.7,1.66-2,6-2.2,6.66C77.79,157.15,79.61,160.37,79.61,160.37Z"/><path class="cls-15" d="M79.08,160.37h.75c.67-6.65-1.91-10.33-1.91-10.33a15.57,15.57,0,0,0-2.66,6.32.34.34,0,0,0,.21.41C77.43,157.43,79.08,160.37,79.08,160.37Z"/><path class="cls-21" d="M62.21,80.44a6.73,6.73,0,0,0-3.91,1.17,10.3,10.3,0,0,0-20.37,2v.12a6.37,6.37,0,0,0-5.83,0,8.84,8.84,0,0,0-16.51,1.41,5.44,5.44,0,0,0-1.47-.23,5.28,5.28,0,0,0-4.69,2.72l5.85.08,3.46.05,10.08.14,4.12.06,5.92.08,2.4,0,14.15.2,2.05,0,11.33.16a6.31,6.31,0,0,0,.11-1.15A6.78,6.78,0,0,0,62.21,80.44Z"/><path class="cls-21" d="M100.79,111.32a4.71,4.71,0,0,1,2.72.9,7.23,7.23,0,0,1,14.26,1.8v.08a4.42,4.42,0,0,1,2-.43,4.53,4.53,0,0,1,2.1.55,6.2,6.2,0,0,1,11.55,1.32,3.58,3.58,0,0,1,1-.13,3.72,3.72,0,0,1,3.24,2l-4.1-.06-2.44,0-7.07-.1-2.9,0-4.15-.06-1.69,0-9.93-.14-1.44,0-8-.12A5.29,5.29,0,0,1,96,116,4.78,4.78,0,0,1,100.79,111.32Z"/><path class="cls-21" d="M156.85,128.28a6.41,6.41,0,0,0-2.2.33,10.34,10.34,0,0,0-15.77-.82,8,8,0,0,0-4.23-1.25,7.91,7.91,0,0,0-2.29.29A10,10,0,0,0,118,129a6,6,0,0,0-1.66-.27,5.77,5.77,0,0,0-5.84,5.68l5.76.08,5.76.08,4.4.06,9.71.14,6.62.09,7.32.11,6.73.09,6.74.1A6.74,6.74,0,0,0,156.85,128.28Z"/><path class="cls-24" d="M83.37,101.93a5.15,5.15,0,0,0-1.92.34,8.63,8.63,0,0,0-7-4.07,8.49,8.49,0,0,0-6.7,3.27,6.37,6.37,0,0,0-5.68-1,8,8,0,0,0-5.28-2.17,8.44,8.44,0,0,0-7.27,4.32,4.33,4.33,0,0,0-1.45-.26c-2.76,0-5,2.5-5.09,5.69l5,.07,5,.07,3.84.05,8.45.12,5.77.08,6.37.09,5.86.08,5.87.08C89.19,105,86.61,102,83.37,101.93Z"/><path class="cls-24" d="M151.16,90.6a3.83,3.83,0,0,0-.83.07,6.67,6.67,0,0,0-10.75-.25,9.53,9.53,0,0,0-1.33-.12,8,8,0,0,0-3.48.7,4.63,4.63,0,0,0-7.88,3.24l5.28.08,4,.05,2,0,6,.09,2.91,0,4.42.06,3.55,0A4,4,0,0,0,151.16,90.6Z"/><path class="cls-21" d="M38.93,124.78a2.61,2.61,0,0,0-.69.08,5.14,5.14,0,0,0-9.07-.23,5.82,5.82,0,0,0-1.12-.12,5.9,5.9,0,0,0-2.94.71,3.56,3.56,0,0,0-2.68-1.32c-2.16,0-3.93,2-4,4.58l4.45.06,3.37.05,1.71,0,5.08.07,2.45,0,3.72.05,3,0C42.27,126.61,40.79,124.81,38.93,124.78Z"/><rect class="cls-25" x="19.62" y="199.16" width="80.89" height="9.7" transform="translate(2.87 -0.82) rotate(0.8)"/><rect class="cls-26" x="54.19" y="160.74" width="34.54" height="6.4" transform="translate(2.31 -0.99) rotate(0.8)"/><rect class="cls-26" x="23.58" y="166.39" width="73.63" height="37.11" transform="translate(2.6 -0.83) rotate(0.8)"/><rect class="cls-26" x="23.92" y="142.42" width="19.49" height="22.79" transform="translate(2.16 -0.46) rotate(0.8)"/><rect class="cls-27" x="23.78" y="162.35" width="19.49" height="2.87" transform="translate(2.3 -0.45) rotate(0.8)"/><polygon class="cls-27" points="43.52 145.25 24.03 145.78 24.08 142.29 43.56 142.56 43.52 145.25"/><polygon class="cls-28" points="97.13 190.55 23.49 190.58 23.54 187.04 97.16 188.07 97.13 190.55"/><rect class="cls-27" x="54.22" y="160.74" width="34.54" height="1.58" transform="translate(2.28 -0.99) rotate(0.8)"/><rect class="cls-20" x="30.28" y="192.45" width="14.66" height="10.73" transform="translate(2.78 -0.51) rotate(0.8)"/><rect class="cls-29" x="30.35" y="192.45" width="14.66" height="1.36" transform="translate(2.72 -0.51) rotate(0.8)"/><rect class="cls-30" x="22.11" y="165.87" width="76.75" height="15.01" transform="translate(2.44 -0.83) rotate(0.8)"/><rect class="cls-20" x="26.45" y="168.76" width="5.52" height="7.59" transform="translate(2.43 -0.39) rotate(0.8)"/><rect class="cls-29" x="26.5" y="168.76" width="5.52" height="1.42" transform="translate(2.38 -0.39) rotate(0.8)"/><rect class="cls-20" x="34.27" y="168.87" width="5.52" height="7.59" transform="translate(2.43 -0.5) rotate(0.8)"/><rect class="cls-29" x="34.32" y="168.87" width="5.52" height="1.42" transform="translate(2.38 -0.5) rotate(0.8)"/><rect class="cls-20" x="42.09" y="168.98" width="5.52" height="7.59" transform="translate(2.43 -0.61) rotate(0.8)"/><rect class="cls-29" x="42.14" y="168.98" width="5.52" height="1.42" transform="translate(2.39 -0.61) rotate(0.8)"/><rect class="cls-20" x="49.91" y="169.09" width="5.52" height="7.59" transform="translate(2.43 -0.72) rotate(0.8)"/><rect class="cls-29" x="49.96" y="169.09" width="5.52" height="1.42" transform="translate(2.39 -0.72) rotate(0.8)"/><rect class="cls-20" x="57.73" y="169.2" width="5.52" height="7.59" transform="translate(2.44 -0.83) rotate(0.8)"/><rect class="cls-29" x="57.78" y="169.2" width="5.52" height="1.42" transform="translate(2.39 -0.83) rotate(0.8)"/><rect class="cls-20" x="65.55" y="169.31" width="5.52" height="7.59" transform="translate(2.44 -0.94) rotate(0.8)"/><rect class="cls-29" x="65.6" y="169.31" width="5.52" height="1.42" transform="translate(2.39 -0.94) rotate(0.8)"/><rect class="cls-20" x="73.37" y="169.42" width="5.52" height="7.59" transform="translate(2.44 -1.05) rotate(0.8)"/><rect class="cls-29" x="73.42" y="169.42" width="5.52" height="1.42" transform="translate(2.4 -1.05) rotate(0.8)"/><rect class="cls-20" x="81.19" y="169.53" width="5.52" height="7.59" transform="translate(2.44 -1.16) rotate(0.8)"/><rect class="cls-29" x="81.24" y="169.53" width="5.52" height="1.42" transform="translate(2.4 -1.16) rotate(0.8)"/><rect class="cls-20" x="89.01" y="169.64" width="5.52" height="7.59" transform="translate(2.44 -1.27) rotate(0.8)"/><rect class="cls-29" x="89.06" y="169.64" width="5.52" height="1.42" transform="translate(2.4 -1.27) rotate(0.8)"/><rect class="cls-12" x="21.88" y="141.47" width="24.19" height="2.46" rx="1.23" transform="translate(2.01 -0.46) rotate(0.8)"/><rect class="cls-21" x="26.03" y="165.39" width="0.42" height="15.01" transform="translate(2.43 -0.35) rotate(0.8)"/><rect class="cls-21" x="31.97" y="165.47" width="0.42" height="15.01" transform="translate(2.43 -0.43) rotate(0.8)"/><rect class="cls-21" x="33.85" y="165.5" width="0.42" height="15.01" transform="translate(2.43 -0.46) rotate(0.8)"/><rect class="cls-21" x="39.79" y="165.58" width="0.42" height="15.01" transform="translate(2.43 -0.54) rotate(0.8)"/><rect class="cls-21" x="41.67" y="165.61" width="0.42" height="15.01" transform="translate(2.43 -0.57) rotate(0.8)"/><rect class="cls-21" x="47.61" y="165.69" width="0.42" height="15.01" transform="translate(2.44 -0.65) rotate(0.8)"/><rect class="cls-21" x="49.49" y="165.72" width="0.42" height="15.01" transform="translate(2.44 -0.68) rotate(0.8)"/><rect class="cls-21" x="55.43" y="165.8" width="0.42" height="15.01" transform="translate(2.44 -0.76) rotate(0.8)"/><rect class="cls-21" x="57.31" y="165.82" width="0.42" height="15.01" transform="translate(2.44 -0.79) rotate(0.8)"/><rect class="cls-21" x="63.25" y="165.91" width="0.42" height="15.01" transform="translate(2.44 -0.87) rotate(0.8)"/><rect class="cls-21" x="65.13" y="165.93" width="0.42" height="15.01" transform="translate(2.44 -0.9) rotate(0.8)"/><rect class="cls-21" x="71.07" y="166.02" width="0.42" height="15.01" transform="translate(2.44 -0.98) rotate(0.8)"/><rect class="cls-21" x="72.95" y="166.04" width="0.42" height="15.01" transform="translate(2.44 -1.01) rotate(0.8)"/><rect class="cls-21" x="78.89" y="166.13" width="0.42" height="15.01" transform="translate(2.45 -1.09) rotate(0.8)"/><rect class="cls-21" x="80.77" y="166.15" width="0.42" height="15.01" transform="translate(2.45 -1.12) rotate(0.8)"/><rect class="cls-21" x="86.71" y="166.24" width="0.42" height="15.01" transform="translate(2.45 -1.2) rotate(0.8)"/><rect class="cls-21" x="88.59" y="166.26" width="0.42" height="15.01" transform="translate(2.45 -1.23) rotate(0.8)"/><rect class="cls-21" x="94.53" y="166.35" width="0.42" height="15.01" transform="translate(2.45 -1.31) rotate(0.8)"/><rect class="cls-26" x="19.89" y="180.88" width="80.89" height="7" transform="translate(2.59 -0.83) rotate(0.8)"/><rect class="cls-31" x="26.53" y="186.57" width="3.78" height="18.74" transform="translate(2.75 -0.38) rotate(0.8)"/><rect class="cls-31" x="44.96" y="186.83" width="3.78" height="18.74" transform="translate(2.76 -0.64) rotate(0.8)"/><rect class="cls-31" x="88.27" y="187.44" width="3.78" height="18.74" transform="translate(2.77 -1.25) rotate(0.8)"/><rect class="cls-21" x="37.43" y="192.45" width="0.35" height="10.73" transform="translate(2.78 -0.51) rotate(0.8)"/><rect class="cls-20" x="49.32" y="192.89" width="38.1" height="7.56" transform="translate(2.77 -0.94) rotate(0.8)"/><rect class="cls-29" x="49.37" y="192.89" width="38.1" height="0.96" transform="translate(2.72 -0.94) rotate(0.8)"/><rect class="cls-20" x="92.94" y="193.25" width="3.17" height="7.56" transform="translate(2.78 -1.31) rotate(0.8)"/><rect class="cls-29" x="92.99" y="193.25" width="3.17" height="0.96" transform="translate(2.73 -1.31) rotate(0.8)"/><rect class="cls-21" x="56.92" y="192.73" width="0.35" height="7.56" transform="translate(2.76 -0.78) rotate(0.8)"/><rect class="cls-21" x="68.19" y="192.89" width="0.35" height="7.56" transform="translate(2.77 -0.94) rotate(0.8)"/><rect class="cls-21" x="79.45" y="193.04" width="0.35" height="7.56" transform="translate(2.77 -1.1) rotate(0.8)"/><rect class="cls-31" x="19.85" y="187.02" width="80.89" height="0.91" transform="translate(2.64 -0.83) rotate(0.8)"/><rect class="cls-12" x="24.56" y="183.33" width="6.14" height="0.32" transform="translate(-156.23 208.54) rotate(-89.2)"/><rect class="cls-12" x="33.93" y="183.46" width="6.14" height="0.32" transform="translate(-147.12 218.04) rotate(-89.2)"/><rect class="cls-12" x="43.3" y="183.59" width="6.14" height="0.32" transform="translate(-138.01 227.54) rotate(-89.2)"/><rect class="cls-12" x="52.68" y="183.73" width="6.14" height="0.32" transform="translate(-128.9 237.04) rotate(-89.2)"/><rect class="cls-12" x="62.05" y="183.86" width="6.14" height="0.32" transform="translate(-119.79 246.54) rotate(-89.2)"/><rect class="cls-12" x="71.42" y="183.99" width="6.14" height="0.32" transform="translate(-110.69 256.04) rotate(-89.2)"/><rect class="cls-12" x="80.79" y="184.12" width="6.14" height="0.32" transform="translate(-101.58 265.55) rotate(-89.2)"/><rect class="cls-12" x="90.16" y="184.25" width="6.14" height="0.32" transform="translate(-92.47 275.05) rotate(-89.2)"/><rect class="cls-12" x="22.67" y="153.53" width="21.99" height="0.32" transform="translate(-120.48 185.19) rotate(-89.2)"/><rect class="cls-12" x="33.5" y="143.94" width="0.32" height="19.49" transform="translate(-120.48 185.19) rotate(-89.2)"/><line class="cls-32" x1="52.08" y1="160.47" x2="90.92" y2="161.01"/><circle class="cls-21" cx="33.66" cy="153.82" r="4.72"/><g class="cls-33"><polygon class="cls-34" points="22.18 168.12 98.94 168.08 98.97 166.41 22.22 165.33 22.18 168.12"/></g><rect class="cls-12" x="20.29" y="163.93" width="80.76" height="2.46" rx="1.23" transform="translate(2.33 -0.84) rotate(0.8)"/><g class="cls-33"><rect class="cls-34" x="22.02" y="179.65" width="76.75" height="1.23" transform="translate(2.54 -0.83) rotate(0.8)"/></g><path class="cls-35" d="M30.26,151c-1.38,1.15,1.72,7.16,2.9,7.19s5.37-4.3,4.47-5.68S31.64,149.8,30.26,151Z"/><path class="cls-21" d="M33.4,153.57a1.9,1.9,0,0,1-.52,1.34,1.43,1.43,0,0,1-1,.39,1.07,1.07,0,0,1-1.1-1.18,2,2,0,0,1,.55-1.35,1.43,1.43,0,0,1,1-.38A1.05,1.05,0,0,1,33.4,153.57ZM31.69,153a1.6,1.6,0,0,0-.4,1.06c0,.43.18.78.65.79a.76.76,0,0,0,.55-.23,1.71,1.71,0,0,0,.4-1.08c0-.37-.12-.77-.64-.78A.78.78,0,0,0,31.69,153Z"/><path class="cls-21" d="M33.7,155.28l.61-3h.49l-.61,3Z"/><path class="cls-21" d="M35.57,153.27l.12,1c0,.24,0,.4.05.53h0a5.45,5.45,0,0,1,.23-.51l.52-1H37l-1.16,2h-.49l-.32-2Z"/><ellipse class="cls-25" cx="121.49" cy="237.45" rx="2.5" ry="12.69" transform="translate(-117.64 355.59) rotate(-89.2)"/><path class="cls-36" d="M110.78,221.64c-1.16-4.53.39-6.18.39-6.18s-1.45.7-4.52-.53c4.08-3.21,3.6-3.3,3.6-3.3s-.43-.55-3.16,1.09a7,7,0,0,1,2.93-5.26s-3.81-.4-2-6.09c2.53,3.66,4.13,1.61,4.13,1.61s.71-.61-2.38-3.17c4-1.18,6.23.72,6.23.72a3.5,3.5,0,0,1,3-2.73c-1.28,3.12,1.54,3.68,1.54,3.68s1.43-2.14.77-3.7a4,4,0,0,1,3,4.76s.79-1.85,4.28-1.89a6.89,6.89,0,0,0-1.1,6s.29,4.72.29,4.72c-.14,2.39-.11,4.4-4.34,5l-5.37,2-3,2.22-1.52-1.9S112.27,218.59,110.78,221.64Z"/><path class="cls-36" d="M123.35,227.92a15.47,15.47,0,0,1-4.85-.07,3.4,3.4,0,0,1-2.34-2.43,18,18,0,0,1-.19-5,3.32,3.32,0,0,1,2.45-2.46,15.66,15.66,0,0,1,5.29.08,3.31,3.31,0,0,1,2.38,2.52,18,18,0,0,1-.33,5A3.43,3.43,0,0,1,123.35,227.92Z"/><path class="cls-36" d="M112.17,226a1.29,1.29,0,0,1-.42-.1,1,1,0,0,1-.51-1.39,11.48,11.48,0,0,1,6.09-6.11,1,1,0,0,1,1.33.65,1.06,1.06,0,0,1-.65,1.33,9.46,9.46,0,0,0-4.87,5A1.06,1.06,0,0,1,112.17,226Z"/><path class="cls-36" d="M129.71,226.24a1,1,0,0,1-1-.63,9.49,9.49,0,0,0-4.72-5.15,1,1,0,0,1-.62-1.35,1.06,1.06,0,0,1,1.36-.61,11.55,11.55,0,0,1,5.91,6.28,1,1,0,0,1-1,1.46Z"/><path class="cls-36" d="M119.41,237.33l-6.93-.09a.55.55,0,0,1-.51-.75c.68-1.81,3.64-3.15,5.63-3.12s2.36,1.5,2.37,3.41A.54.54,0,0,1,119.41,237.33Z"/><path class="cls-36" d="M118.39,237.11a1,1,0,0,1-1-1l-.69-9.86a1,1,0,1,1,2.09-.14l.69,9.85a1,1,0,0,1-1,1.12Z"/><path class="cls-36" d="M122.19,237.37l6.93.1a.55.55,0,0,0,.53-.73c-.63-1.83-3.55-3.25-5.54-3.28s-2.4,1.43-2.47,3.34A.55.55,0,0,0,122.19,237.37Z"/><path class="cls-36" d="M123.21,237.18h-.09a1.05,1.05,0,0,1-.94-1.15l1-9.83a1,1,0,0,1,2.09.2l-1,9.84A1.05,1.05,0,0,1,123.21,237.18Z"/><path class="cls-37" d="M120.25,237a.61.61,0,0,1-.61.61l-7.54-.11a.6.6,0,0,1-.55-.81v0a5,5,0,0,1,2.27-2.28,8.06,8.06,0,0,1,3.84-1.08c2.15,0,2.53,1.51,2.57,3.48A1.62,1.62,0,0,1,120.25,237Z"/><path class="cls-38" d="M120.25,237a.61.61,0,0,1-.61.61l-7.54-.11a.6.6,0,0,1-.55-.81v0l8.68.12A1.62,1.62,0,0,1,120.25,237Z"/><path class="cls-39" d="M119.74,234.52l-3.44-1.07s0,0,0,0h0a.75.75,0,0,1,.77-.75l2.1,0a.76.76,0,0,1,.75.77l0,.95C119.88,234.48,119.91,234.55,119.74,234.52Z"/><path class="cls-37" d="M121.29,237a.61.61,0,0,0,.59.63l7.54.1a.59.59,0,0,0,.57-.79v0a4.94,4.94,0,0,0-2.2-2.35,8.2,8.2,0,0,0-3.81-1.19c-2.15,0-2.57,1.45-2.67,3.41C121.3,236.86,121.29,236.93,121.29,237Z"/><path class="cls-38" d="M121.29,237a.61.61,0,0,0,.59.63l7.54.1a.59.59,0,0,0,.57-.79v0l-8.68-.13C121.3,236.86,121.29,236.93,121.29,237Z"/><path class="cls-39" d="M121.87,234.54l3.46-1a0,0,0,0,0,0,0h0a.75.75,0,0,0-.75-.77l-2.1,0a.76.76,0,0,0-.77.75v.95C121.73,234.51,121.69,234.57,121.87,234.54Z"/><polygon class="cls-40" points="120.32 231.64 114.42 231.24 116.3 226.07 120.67 226.13 120.32 231.64"/><polygon class="cls-40" points="121.42 231.66 127.34 231.42 125.61 226.2 121.24 226.14 121.42 231.66"/><rect class="cls-40" x="119.76" y="225.38" width="2.61" height="3.58" transform="translate(3.2 -1.68) rotate(0.8)"/><rect class="cls-40" x="115.9" y="225.34" width="10.16" height="1.21" rx="0.61" transform="translate(3.18 -1.68) rotate(0.8)"/><path class="cls-41" d="M127,227a46.8,46.8,0,0,1-12.23-.17c.39-2.87,1.52-5.7,1.56-8.59,1.69,0,3-.48,4.68-.46s3,.56,4.67.59C125.68,221.23,126.74,224.09,127,227Z"/><polygon class="cls-41" points="112.9 220.28 115.21 222.76 116.87 221.6 116.37 218.21 112.9 220.28"/><polygon class="cls-41" points="129.11 220.51 126.73 222.93 125.11 221.72 125.7 218.34 129.11 220.51"/><path class="cls-36" d="M126.55,206.58l1.39,2.45s1.86-1.64,1.66-3.57a.18.18,0,0,0-.27-.14A19.86,19.86,0,0,1,126.55,206.58Z"/><circle class="cls-36" cx="120.89" cy="211.02" r="7.53"/><path class="cls-36" d="M118.47,215.28a3.23,3.23,0,0,0,3.18,3.27c4.25-.11,8.61-1.66,8.34-3.68,0-.63-1.32-.63-1.92-1.58C127.11,211.79,118.5,213.5,118.47,215.28Z"/><path class="cls-42" d="M129.22,215c.09.42.84.63,1.68.45s1.16-.66,1.07-1.09-.56-.63-1.4-.45S129.13,214.53,129.22,215Z"/><ellipse class="cls-21" cx="131.33" cy="214.16" rx="0.18" ry="0.35" transform="matrix(0.1, -1, 1, 0.1, -94.39, 324.45)"/><circle class="cls-21" cx="120.06" cy="211.29" r="2.23"/><circle class="cls-43" cx="119.36" cy="211.28" r="1.02"/><circle class="cls-42" cx="119.36" cy="211.28" r="0.58"/><circle class="cls-21" cx="119.58" cy="210.83" r="0.41"/><circle class="cls-21" cx="119.1" cy="211.79" r="0.16"/><circle class="cls-21" cx="125.78" cy="211.5" r="2.23"/><circle class="cls-43" cx="125.08" cy="211.49" r="1.02"/><circle class="cls-42" cx="125.08" cy="211.49" r="0.58"/><circle class="cls-21" cx="125.3" cy="211.04" r="0.41"/><circle class="cls-21" cx="124.82" cy="211.99" r="0.16"/><path class="cls-36" d="M117.32,207.54a8.12,8.12,0,0,0-3.2-1.81c-.13,0-.19.15-.14.27.5,1.5.88,2.93.88,2.93"/><path class="cls-44" d="M114.86,209a.1.1,0,0,1-.1-.07s-.39-1.44-.88-2.93a.35.35,0,0,1,.05-.33.2.2,0,0,1,.2-.07,7.91,7.91,0,0,1,3.26,1.84.11.11,0,1,1-.15.15,7.92,7.92,0,0,0-3.14-1.79h0a.14.14,0,0,0,0,.13c.49,1.48.88,2.92.88,2.93a.11.11,0,0,1-.07.13Z"/><path class="cls-44" d="M126.1,217.62a3.57,3.57,0,0,1-2.76-1.29.17.17,0,1,1,.27-.21,3.35,3.35,0,0,0,2.8,1.14.17.17,0,0,1,.19.16.16.16,0,0,1-.15.19A2.3,2.3,0,0,1,126.1,217.62Z"/><path class="cls-44" d="M121.39,208.81a.22.22,0,0,1-.13-.06c-.11-.11-1.15-1.08-3.22-.33a.18.18,0,0,1-.22-.11.17.17,0,0,1,.1-.22c2.27-.82,3.46.28,3.59.41a.24.24,0,0,1,.06.11.19.19,0,0,1-.16.2Z"/><path class="cls-44" d="M123.9,209h0a.17.17,0,0,1-.14-.2.14.14,0,0,1,.05-.11,3.35,3.35,0,0,1,3.61-.21.17.17,0,0,1,.09.23.17.17,0,0,1-.23.09c-2-.86-3.11,0-3.23.15A.21.21,0,0,1,123.9,209Z"/><circle class="cls-36" cx="112" cy="226.06" r="1.55"/><ellipse class="cls-36" cx="113.69" cy="226.28" rx="0.85" ry="1.81" transform="translate(-129.71 156.39) rotate(-47.3)"/><ellipse class="cls-36" cx="112.38" cy="227.87" rx="2.08" ry="0.82" transform="translate(-139.49 261.31) rotate(-71.31)"/><ellipse class="cls-36" cx="110.87" cy="227.4" rx="2.08" ry="0.82" transform="translate(-141.64 211.98) rotate(-60.51)"/><ellipse class="cls-36" cx="110.21" cy="226.21" rx="2.08" ry="0.82" transform="matrix(0.72, -0.7, 0.7, 0.72, -126.5, 140.85)"/><circle class="cls-36" cx="129.74" cy="226.31" r="1.55"/><ellipse class="cls-36" cx="128.04" cy="226.48" rx="1.81" ry="0.85" transform="translate(-117.31 139.93) rotate(-41.09)"/><ellipse class="cls-36" cx="129.31" cy="228.11" rx="0.82" ry="2.08" transform="translate(-61.29 48.04) rotate(-17.08)"/><ellipse class="cls-36" cx="130.83" cy="227.68" rx="0.82" ry="2.08" transform="translate(-91.27 87.59) rotate(-27.88)"/><ellipse class="cls-36" cx="131.52" cy="226.5" rx="0.82" ry="2.08" transform="translate(-120.67 155.79) rotate(-44.2)"/><ellipse class="cls-25" cx="148.14" cy="238.09" rx="2.5" ry="13.15" transform="translate(-92.01 382.88) rotate(-89.2)"/><path class="cls-36" d="M147,238.29l-6.94-.09a.56.56,0,0,1-.51-.75c.69-1.81,3.65-3.15,5.63-3.12s2.36,1.5,2.38,3.41A.54.54,0,0,1,147,238.29Z"/><path class="cls-36" d="M149.76,238.33l6.94.1a.55.55,0,0,0,.53-.73c-.64-1.84-3.56-3.25-5.54-3.28s-2.4,1.43-2.47,3.34A.54.54,0,0,0,149.76,238.33Z"/><path class="cls-36" d="M137.5,224.44a11.18,11.18,0,0,1,1.53-8.37,5.57,5.57,0,0,1-5.37.68c4-3.21,4.47-4.51,4.47-4.51s-1.33-.48-4,1.16a7,7,0,0,1,3.8-5.32s-3.74-.4-2-6.09c2.49,3.65,4.06,1.61,4.06,1.61s.7-.61-2.33-3.17c4-1.19,6.11.71,6.11.71a3.47,3.47,0,0,1,3-2.73c-1.26,3.12,1.5,3.69,1.5,3.69s1.41-2.15.76-3.71a4,4,0,0,1,2.91,4.76,7.88,7.88,0,0,1,5.14-1.67,11.19,11.19,0,0,0-2,5.83c.05-.05.29,4.72.29,4.72-.14,2.39-.11,4.4-4.26,5l-5.27,2-.42,1-1.77-.38S139,221.38,137.5,224.44Z"/><path class="cls-36" d="M150.92,228.88a15.41,15.41,0,0,1-4.84-.07,3.38,3.38,0,0,1-2.34-2.43,17.64,17.64,0,0,1-.19-5A3.32,3.32,0,0,1,146,218.9a15.72,15.72,0,0,1,5.3.08,3.3,3.3,0,0,1,2.37,2.52,17.61,17.61,0,0,1-.33,5A3.41,3.41,0,0,1,150.92,228.88Z"/><path class="cls-36" d="M159.48,225.41a1,1,0,0,0-.75-.86,9.39,9.39,0,0,1-5.71-4,1,1,0,0,0-1.85,1,11.52,11.52,0,0,0,7,5,1.06,1.06,0,0,0,1.3-.72A.94.94,0,0,0,159.48,225.41Z"/><path class="cls-36" d="M146,238.07a1,1,0,0,1-1-1l-.7-9.86a1.06,1.06,0,0,1,1-1.12,1,1,0,0,1,1.11,1L147,237a1.05,1.05,0,0,1-1,1.12Z"/><path class="cls-36" d="M150.79,238.14h-.09a1,1,0,0,1-.94-1.15l1-9.83a1,1,0,1,1,2.08.2l-1,9.84A1,1,0,0,1,150.79,238.14Z"/><path class="cls-37" d="M147.82,238a.6.6,0,0,1-.61.61l-7.53-.11a.59.59,0,0,1-.55-.81v0a4.85,4.85,0,0,1,2.27-2.28,8.06,8.06,0,0,1,3.84-1.08c2.14,0,2.53,1.51,2.57,3.48Z"/><path class="cls-38" d="M147.82,238a.6.6,0,0,1-.61.61l-7.53-.11a.59.59,0,0,1-.55-.81v0l8.68.12Z"/><path class="cls-37" d="M147.63,236l-3.71-1.65-.13-1.22a.3.3,0,0,1,.3-.32l3.57,0a.28.28,0,0,1,.28.32Z"/><path class="cls-37" d="M149,238a.6.6,0,0,0,.59.62l7.54.11a.6.6,0,0,0,.57-.8v0a5,5,0,0,0-2.2-2.35,8.07,8.07,0,0,0-3.81-1.18c-2.15,0-2.57,1.44-2.67,3.41C149,237.82,149,237.89,149,238Z"/><path class="cls-38" d="M149,238a.6.6,0,0,0,.59.62l7.54.11a.6.6,0,0,0,.57-.8v0l-8.68-.12C149,237.82,149,237.89,149,238Z"/><path class="cls-37" d="M149.24,236.05l3.76-1.54.15-1.22a.29.29,0,0,0-.28-.33l-3.57-.05a.29.29,0,0,0-.29.32Z"/><path class="cls-45" d="M156,230.67a38.63,38.63,0,0,1-15-.21c.8-3.48,2.71-7.27,2.89-10.78,0-.24,1-.7,1.85-.74a31,31,0,0,1,5.53.08,2.75,2.75,0,0,1,2.1,1.67C153.61,221.32,154.59,227.07,156,230.67Z"/><circle class="cls-36" cx="159.55" cy="225.43" r="1.55"/><ellipse class="cls-36" cx="159.5" cy="223.72" rx="1.81" ry="0.85" transform="translate(-115.11 232.69) rotate(-56.38)"/><ellipse class="cls-36" cx="161.28" cy="224.77" rx="0.82" ry="2.08" transform="translate(-87.25 346.28) rotate(-80.39)"/><ellipse class="cls-36" cx="161.05" cy="226.33" rx="0.82" ry="2.08" transform="translate(-107.23 298.37) rotate(-69.6)"/><ellipse class="cls-36" cx="159.98" cy="227.17" rx="0.82" ry="2.08" transform="translate(-117.76 219.56) rotate(-53.28)"/><path class="cls-36" d="M139.75,227a1.23,1.23,0,0,1-.42-.1,1,1,0,0,1-.52-1.39,11.52,11.52,0,0,1,6.09-6.11,1,1,0,0,1,1.33.65,1,1,0,0,1-.64,1.33,9.42,9.42,0,0,0-4.87,5A1.06,1.06,0,0,1,139.75,227Z"/><circle class="cls-36" cx="139.58" cy="227.02" r="1.55"/><ellipse class="cls-36" cx="141.27" cy="227.24" rx="0.85" ry="1.81" transform="translate(-121.54 176.97) rotate(-47.3)"/><ellipse class="cls-36" cx="139.95" cy="228.83" rx="2.08" ry="0.82" transform="translate(-121.66 288.08) rotate(-71.31)"/><ellipse class="cls-36" cx="138.45" cy="228.36" rx="2.08" ry="0.82" transform="matrix(0.49, -0.87, 0.87, 0.49, -128.48, 236.47)"/><ellipse class="cls-36" cx="137.79" cy="227.16" rx="2.08" ry="0.82" transform="translate(-119.36 160.35) rotate(-44.2)"/><path class="cls-36" d="M154.36,207.54l1.38,2.45s1.87-1.63,1.66-3.57a.18.18,0,0,0-.27-.14A19.47,19.47,0,0,1,154.36,207.54Z"/><circle class="cls-36" cx="148.7" cy="211.98" r="7.53"/><path class="cls-36" d="M146.27,216.24a3.24,3.24,0,0,0,3.19,3.28c4.24-.12,8.6-1.67,8.33-3.69,0-.62-1.32-.63-1.92-1.57C154.92,212.75,146.3,214.46,146.27,216.24Z"/><path class="cls-42" d="M157,215.92c.09.43.84.63,1.68.46s1.16-.67,1.07-1.1-.56-.62-1.39-.45S156.94,215.49,157,215.92Z"/><ellipse class="cls-21" cx="159.13" cy="215.12" rx="0.18" ry="0.35" transform="translate(-70.2 353) rotate(-84.52)"/><path class="cls-36" d="M146,207.87a8.09,8.09,0,0,0-3.2-1.82c-.13,0-.19.15-.15.28.51,1.5.89,2.92.89,2.92"/><path class="cls-44" d="M143.51,209.36a.1.1,0,0,1-.1-.08s-.39-1.44-.88-2.92a.37.37,0,0,1,.05-.34.21.21,0,0,1,.2-.07,8.11,8.11,0,0,1,3.26,1.84.11.11,0,0,1-.15.16,7.79,7.79,0,0,0-3.14-1.79h0a.17.17,0,0,0,0,.13c.5,1.49.89,2.92.89,2.94a.09.09,0,0,1-.07.12Z"/><path class="cls-44" d="M153.91,218.59a3.61,3.61,0,0,1-2.77-1.29.18.18,0,1,1,.28-.22,3.37,3.37,0,0,0,2.79,1.15.17.17,0,0,1,.2.15.18.18,0,0,1-.15.19A3.4,3.4,0,0,1,153.91,218.59Z"/><path class="cls-44" d="M149.19,209.77a.16.16,0,0,1-.12-.06c-.11-.11-1.16-1.08-3.22-.33a.18.18,0,0,1-.23-.11.18.18,0,0,1,.11-.22,3.33,3.33,0,0,1,3.59.42.28.28,0,0,1,.05.11.18.18,0,0,1-.16.19Z"/><path class="cls-44" d="M151.71,210h0a.18.18,0,0,1-.14-.2.24.24,0,0,1,.06-.11c.14-.13,1.4-1.15,3.6-.21a.19.19,0,0,1,.1.23.17.17,0,0,1-.23.09c-2-.86-3.12.05-3.24.15A.18.18,0,0,1,151.71,210Z"/><path class="cls-42" d="M146.73,211c-.18-.09-.33-.18-.49-.28a3.58,3.58,0,0,1-.45-.31,2.89,2.89,0,0,1-.4-.38,1.9,1.9,0,0,1-.31-.45,1.92,1.92,0,0,0,.36.39,3.11,3.11,0,0,0,.44.3,4.16,4.16,0,0,0,.47.24,3.23,3.23,0,0,0,.49.18h0a.16.16,0,0,1,.11.21.15.15,0,0,1-.2.1Z"/><path class="cls-42" d="M146.44,211.42a4,4,0,0,1-.52-.21,3.29,3.29,0,0,1-.49-.26,2.83,2.83,0,0,1-.45-.32,2.35,2.35,0,0,1-.36-.41,2,2,0,0,0,.41.35,4.16,4.16,0,0,0,.47.24,5,5,0,0,0,.5.18l.51.12h0a.16.16,0,0,1,.14.18.18.18,0,0,1-.19.14Z"/><circle class="cls-21" cx="147.87" cy="212.25" r="2.23"/><circle class="cls-43" cx="147.17" cy="212.24" r="1.02"/><circle class="cls-42" cx="147.17" cy="212.24" r="0.58"/><circle class="cls-21" cx="147.39" cy="211.8" r="0.41"/><circle class="cls-21" cx="146.91" cy="212.75" r="0.16"/><path class="cls-42" d="M154.76,211.14c.18-.08.34-.17.5-.26a4.53,4.53,0,0,0,.46-.3c.14-.12.28-.24.41-.37a2.75,2.75,0,0,0,.32-.44,2.67,2.67,0,0,1-.37.38,4.3,4.3,0,0,1-.45.29,3,3,0,0,1-.48.22,3.17,3.17,0,0,1-.49.17h0a.18.18,0,0,0-.11.2.16.16,0,0,0,.2.12Z"/><path class="cls-42" d="M155,211.54a5.62,5.62,0,0,0,.53-.19,3.78,3.78,0,0,0,.49-.25,3.37,3.37,0,0,0,.46-.31,2.28,2.28,0,0,0,.37-.39,2.65,2.65,0,0,1-.42.33,4.23,4.23,0,0,1-.48.23,4.16,4.16,0,0,1-.5.16,4.76,4.76,0,0,1-.52.1h0a.16.16,0,0,0-.14.18.18.18,0,0,0,.19.14Z"/><circle class="cls-21" cx="153.58" cy="212.33" r="2.23"/><circle class="cls-43" cx="152.88" cy="212.32" r="1.02"/><circle class="cls-42" cx="152.88" cy="212.32" r="0.58"/><circle class="cls-21" cx="153.1" cy="211.88" r="0.41"/><circle class="cls-21" cx="152.62" cy="212.83" r="0.16"/></g></g></g></svg>