<svg xmlns="http://www.w3.org/2000/svg" xmlns:xlink="http://www.w3.org/1999/xlink" viewBox="0 0 171.96 252.18"><defs><style>.cls-1,.cls-33{fill:none;}.cls-2{isolation:isolate;}.cls-3{clip-path:url(#clip-path);}.cls-4{fill:url(#Naamloos_verloop_47);}.cls-5{fill:#9bc761;}.cls-6{fill:#bcb1a0;}.cls-7{clip-path:url(#clip-path-2);}.cls-8{fill:#c7c7c7;}.cls-8,.cls-9{opacity:0.59;}.cls-26,.cls-28,.cls-29,.cls-34,.cls-8,.cls-9{mix-blend-mode:multiply;}.cls-9{fill:#9f9d9d;}.cls-10{fill:#80ab38;}.cls-11{fill:#508230;}.cls-12{fill:#936138;}.cls-13{fill:#878888;}.cls-14{fill:#3d3c3c;}.cls-15{fill:#dfd7c6;}.cls-16{fill:#c31729;}.cls-17{fill:#aba395;}.cls-18{fill:#2271b8;}.cls-19{fill:#1d2a4d;}.cls-20{fill:#64b1c6;}.cls-21{fill:#b1dacb;}.cls-22,.cls-25{fill:#fff;}.cls-23{fill:#c2b9ac;}.cls-24{fill:#681318;}.cls-25,.cls-29,.cls-34{opacity:0.5;}.cls-26{fill:#70706f;opacity:0.39;}.cls-27,.cls-28{fill:#dadada;}.cls-29{fill:#b3b3b2;}.cls-30{fill:#638c84;}.cls-31{fill:#d1bdaa;}.cls-32{fill:#f7f6f6;}.cls-33{stroke:#878888;stroke-linecap:round;stroke-miterlimit:10;stroke-width:2px;}.cls-35{fill:#8d7462;}.cls-36{fill:#348cc9;}.cls-37{fill:#d7926c;}.cls-38{fill:#be1823;}.cls-39{fill:#d9d9d9;}.cls-40{fill:#d9effd;}.cls-41{fill:#57659b;}.cls-42{fill:#25b5be;}.cls-43{fill:#1d1d1c;}.cls-44{fill:#82c17b;}.cls-45{fill:#885333;}.cls-46{fill:#e10718;}</style><clipPath id="clip-path"><rect class="cls-1" width="171.96" height="252.09"/></clipPath><linearGradient id="Naamloos_verloop_47" x1="85.98" y1="263.82" x2="85.98" y2="-162.79" gradientTransform="translate(1.06 0.01)" gradientUnits="userSpaceOnUse"><stop offset="0" stop-color="#b1dacb"/><stop offset="0.08" stop-color="#acd7cb"/><stop offset="0.17" stop-color="#9ccfca"/><stop offset="0.28" stop-color="#83c1c8"/><stop offset="0.37" stop-color="#64b1c6"/><stop offset="0.66" stop-color="#253886"/><stop offset="0.98" stop-color="#29265c"/></linearGradient><clipPath id="clip-path-2"><rect class="cls-1" x="-0.06" y="-1.99" width="172.18" height="255.92" rx="26.54"/></clipPath></defs><title>back</title><g class="cls-2"><g id="Laag_1" data-name="Laag 1"><g class="cls-3"><rect class="cls-4" x="-1.5" y="-162.78" width="177.08" height="426.61" transform="translate(0.72 -1.22) rotate(0.8)"/><rect class="cls-5" x="-3.06" y="193.19" width="175.37" height="66.14" transform="translate(3.19 -1.17) rotate(0.8)"/><rect class="cls-6" x="-3.32" y="230.35" width="175.37" height="28.98" transform="translate(3.45 -1.16) rotate(0.8)"/><g class="cls-7"><polygon class="cls-8" points="-2.72 201.54 -1.97 148.41 18.92 148.71 18.74 161.66 27.38 161.79 27.76 134.9 47.5 115.7 47.06 146.77 57.98 146.92 57.8 160.02 66.81 160.15 67.14 136.52 81.77 122.3 95.79 136.73 95.65 147.16 104.94 147.3 121.95 130.76 142.97 147.83 142.79 160.7 154.67 160.87 154.76 154.47 173.32 154.73 172.62 204.77 -2.72 201.54"/><polygon class="cls-9" points="-2.88 213.23 -2.39 178.49 14.46 162.1 30.02 178.1 30.34 155.5 47.58 155.74 47.4 168.32 68.06 168.61 83.3 153.79 98.1 169 107.73 159.64 115.71 169.25 115.6 177.4 123.75 177.51 123.85 169.84 130.85 169.94 130.9 166.75 142.05 166.9 142.01 170.1 149.32 170.2 149.21 177.87 172.99 178.2 172.47 215.69 -2.88 213.23"/><path class="cls-10" d="M158.81,191.52a5.24,5.24,0,0,0,5.16,5.31l.2-14.29C161.28,182.5,158.85,188.63,158.81,191.52Z"/><path class="cls-11" d="M164.17,182.54l-.2,14.29a5.24,5.24,0,0,0,5.31-5.16C169.32,188.77,167.06,182.58,164.17,182.54Z"/><path class="cls-12" d="M164.22,191.35l.27,12.23a.69.69,0,0,1-.6.75.67.67,0,0,1-.63-.71.13.13,0,0,1,0-.06l.6-12.21a.2.2,0,0,1,.19-.2A.2.2,0,0,1,164.22,191.35Z"/><path class="cls-10" d="M134.62,185.39a5.24,5.24,0,0,0,5.17,5.31l.2-14.28C137.09,176.37,134.66,182.5,134.62,185.39Z"/><path class="cls-11" d="M140,176.42l-.2,14.28a5.24,5.24,0,0,0,5.31-5.16C145.14,182.65,142.88,176.46,140,176.42Z"/><path class="cls-12" d="M140,185.23l.26,12.22a.69.69,0,0,1-.59.75.66.66,0,0,1-.63-.7v-.07l.61-12.21a.18.18,0,0,1,.18-.19A.2.2,0,0,1,140,185.23Z"/><path class="cls-10" d="M-.1,179.82a8,8,0,0,0,7.85,8.07l.31-21.73C3.66,166.1,0,175.42-.1,179.82Z"/><path class="cls-11" d="M8.06,166.16l-.31,21.73A8,8,0,0,0,15.83,180C15.89,175.64,12.45,166.23,8.06,166.16Z"/><path class="cls-12" d="M8.13,179.57l.41,18.58a1.06,1.06,0,0,1-.91,1.15,1,1,0,0,1-1-1.08v-.09l.92-18.57a.27.27,0,1,1,.53,0Z"/><path class="cls-10" d="M119.8,177.13a8,8,0,0,0,7.85,8.07l.3-21.72C123.56,163.42,119.86,172.73,119.8,177.13Z"/><path class="cls-11" d="M128,163.48l-.3,21.72a8,8,0,0,0,8.07-7.85C135.79,173,132.35,163.54,128,163.48Z"/><path class="cls-12" d="M128,176.88l.4,18.59a1,1,0,0,1-.9,1.14,1,1,0,0,1-1-1.08.27.27,0,0,1,0-.09l.92-18.57a.27.27,0,1,1,.53,0Z"/><path class="cls-11" d="M125.33,189.25a8.73,8.73,0,0,0-5.58,1.94,8.47,8.47,0,0,0-10.57-.08,8.76,8.76,0,0,0-7-3.83c-4.94-.07-9,4.16-9.08,9.45l41.13.58A9.33,9.33,0,0,0,125.33,189.25Z"/><path class="cls-11" d="M18.22,195.75a1.62,1.62,0,0,0,0-.22,2.33,2.33,0,0,0-2.31-2.38,2.36,2.36,0,0,0-1.31.37,4.48,4.48,0,0,0-6.36-1,3,3,0,0,0-4,1.93,4.59,4.59,0,0,0-3.69,4.42,4.83,4.83,0,0,0,.07.86l20.59.29A4.48,4.48,0,0,0,18.22,195.75Z"/><path class="cls-11" d="M154.1,192.1a5.14,5.14,0,0,0-.88.07,3.83,3.83,0,0,0-7.31-.81,5.18,5.18,0,0,0-3.59,3.8l16.16.22A4.65,4.65,0,0,0,154.1,192.1Z"/><polygon class="cls-13" points="65.15 156.6 66.13 159.36 67.49 159.38 67.02 156.63 65.15 156.6"/><polygon class="cls-13" points="67.34 156.63 67.82 159.38 69.19 159.4 69.22 156.66 67.34 156.63"/><path class="cls-13" d="M63.64,156.58a29.37,29.37,0,0,0,1.11,2.76h1l-1-2.75Z"/><polygon class="cls-13" points="69.55 156.66 69.51 159.4 70.88 159.42 71.43 156.69 69.55 156.66"/><path class="cls-13" d="M74,156.73l-1.06,2.72,1.12,0a24.27,24.27,0,0,0,1.08-2.73Z"/><polygon class="cls-13" points="71.75 156.69 71.2 159.43 72.56 159.45 73.62 156.72 71.75 156.69"/><polygon class="cls-14" points="64.8 156.6 65.78 159.35 66.13 159.36 65.15 156.6 64.8 156.6"/><polygon class="cls-14" points="67.02 156.63 67.49 159.38 67.82 159.38 67.34 156.63 67.02 156.63"/><rect class="cls-14" x="68" y="157.87" width="2.74" height="0.32" transform="translate(-89.62 225.17) rotate(-89.2)"/><polygon class="cls-14" points="71.43 156.69 70.88 159.42 71.2 159.43 71.75 156.69 71.43 156.69"/><polygon class="cls-14" points="73.62 156.72 72.56 159.45 72.91 159.45 73.97 156.73 73.62 156.72"/><path class="cls-15" d="M78.62,147.36c.15-10.55-6.82-19.2-8.92-19.23s-9.31,8.42-9.46,19c-.05,3.85,1.36,7.45,2.72,10.46l13,.19A25.9,25.9,0,0,0,78.62,147.36Z"/><path class="cls-16" d="M74.37,132.75a32.91,32.91,0,0,0-4.73-.39,35.54,35.54,0,0,0-4.74.25c1.9-2.81,3.86-4.49,4.8-4.48S72.55,129.88,74.37,132.75Z"/><path class="cls-17" d="M78.66,145.85a73.66,73.66,0,0,0-18.41-.26c-.27,0-.5-.21-.53-.54a.57.57,0,0,1,.44-.65,74.86,74.86,0,0,1,18.62.26.57.57,0,0,1,.42.66C79.16,145.65,78.92,145.89,78.66,145.85Z"/><circle class="cls-18" cx="69.56" cy="137.91" r="3.89"/><circle class="cls-19" cx="69.56" cy="138.19" r="3.22"/><path class="cls-20" d="M72.85,138a3.29,3.29,0,1,1-3.24-3.33A3.28,3.28,0,0,1,72.85,138Z"/><path class="cls-21" d="M72.85,138a3.28,3.28,0,0,1-5.16,2.66,3.23,3.23,0,0,1-.54-1.84,3.29,3.29,0,0,1,3.34-3.24,3.21,3.21,0,0,1,1.83.58A3.23,3.23,0,0,1,72.85,138Z"/><circle class="cls-22" cx="68.67" cy="136.99" r="1.07"/><circle class="cls-22" cx="69.76" cy="135.52" r="0.31"/><path class="cls-23" d="M71.48,156.83l-4.35-.06-.42-5.22a1.59,1.59,0,0,1,1.63-1.71l2.12,0a1.6,1.6,0,0,1,1.59,1.75Z"/><path class="cls-24" d="M59,161.2h-.56c-.75-6.92,2-10.48,2-10.48a1.13,1.13,0,0,1,.57-.15c.68,1.74,1.91,6.32,2.1,7C61,157.91,59,161.2,59,161.2Z"/><path class="cls-16" d="M59.58,161.2h-.77c-.5-6.9,2.27-10.63,2.27-10.63a16.23,16.23,0,0,1,2.58,6.62.37.37,0,0,1-.23.42C61.38,158.22,59.58,161.2,59.58,161.2Z"/><path class="cls-24" d="M79.44,161.48H80C81,154.6,78.27,151,78.27,151a1.09,1.09,0,0,0-.58-.16c-.72,1.71-2.08,6.26-2.28,6.89C77.56,158.15,79.44,161.48,79.44,161.48Z"/><path class="cls-16" d="M78.9,161.48h.76c.7-6.89-2-10.69-2-10.69a16.07,16.07,0,0,0-2.76,6.54.36.36,0,0,0,.22.42C77.18,158.44,78.9,161.48,78.9,161.48Z"/><path class="cls-22" d="M61.42,78.69a7,7,0,0,0-4.06,1.22A10.66,10.66,0,0,0,36.27,82v.12a6.65,6.65,0,0,0-6,0,9.16,9.16,0,0,0-17.09,1.46,5.55,5.55,0,0,0-1.53-.23,5.48,5.48,0,0,0-4.86,2.81l6.06.09,3.59,0,10.43.15,4.27.06,6.14.08,2.48,0,14.65.2,2.13,0L68.23,87a6.67,6.67,0,0,0,.12-1.19A7,7,0,0,0,61.42,78.69Z"/><path class="cls-22" d="M101.37,110.68a4.94,4.94,0,0,1,2.83.93A7.48,7.48,0,0,1,119,113.48v.08a4.57,4.57,0,0,1,2.06-.45,4.71,4.71,0,0,1,2.18.57,6.42,6.42,0,0,1,12,1.37,3.9,3.9,0,0,1,1.08-.14A3.84,3.84,0,0,1,139.6,117l-4.26-.06-2.52,0-7.32-.1-3,0-4.31-.07-1.74,0-10.29-.14-1.49,0-8.24-.11a4.62,4.62,0,0,1-.06-.84A4.93,4.93,0,0,1,101.37,110.68Z"/><path class="cls-22" d="M159.44,128.24a6.85,6.85,0,0,0-2.28.35,10.71,10.71,0,0,0-16.33-.86,8.39,8.39,0,0,0-4.38-1.29,8.54,8.54,0,0,0-2.38.3,10.29,10.29,0,0,0-14.92,2.2,6.07,6.07,0,0,0-1.72-.28,6,6,0,0,0-6.05,5.88l6,.09,6,.08,4.57.06,10.05.14,6.86.1,7.57.11,7,.1,7,.09A7,7,0,0,0,159.44,128.24Z"/><path class="cls-25" d="M83.33,101a5.26,5.26,0,0,0-2,.35,8.94,8.94,0,0,0-7.29-4.21,8.8,8.8,0,0,0-6.93,3.38,6.7,6.7,0,0,0-3.81-1.28,6.45,6.45,0,0,0-2.07.31,8.19,8.19,0,0,0-5.48-2.25,8.69,8.69,0,0,0-7.52,4.47,4.47,4.47,0,0,0-1.5-.27c-2.87,0-5.23,2.59-5.28,5.89l5.19.07,5.2.07,4,.06,8.76.12,6,.09,6.6.09,6.07.08,6.08.09C89.36,104.16,86.69,101,83.33,101Z"/><path class="cls-25" d="M153.55,89.22a4.05,4.05,0,0,0-.86.07A6.91,6.91,0,0,0,141.55,89a8.75,8.75,0,0,0-1.38-.12,8.39,8.39,0,0,0-3.6.72A4.81,4.81,0,0,0,128.4,93l5.48.08,4.13.06,2.11,0,6.23.08,3,.05,4.58.06,3.68.05A4.12,4.12,0,0,0,153.55,89.22Z"/><path class="cls-22" d="M37.31,124.62a2.84,2.84,0,0,0-.72.08,5.32,5.32,0,0,0-9.39-.24,6.25,6.25,0,0,0-1.16-.12,6.13,6.13,0,0,0-3,.73,3.78,3.78,0,0,0-2.78-1.37c-2.24,0-4.08,2.1-4.11,4.75l4.61.06,3.48.05,1.78,0,5.26.07,2.53,0,3.86.05,3.1,0C40.76,126.52,39.23,124.65,37.31,124.62Z"/><rect class="cls-26" x="17.3" y="201.66" width="83.78" height="10.05" transform="translate(2.91 -0.81) rotate(0.8)"/><rect class="cls-27" x="53.11" y="161.86" width="35.78" height="6.63" transform="translate(2.33 -0.98) rotate(0.8)"/><rect class="cls-27" x="21.41" y="167.71" width="76.26" height="38.44" transform="translate(2.63 -0.82) rotate(0.8)"/><rect class="cls-27" x="21.76" y="142.89" width="20.18" height="23.61" transform="translate(2.18 -0.43) rotate(0.8)"/><rect class="cls-28" x="21.61" y="163.53" width="20.18" height="2.97" transform="translate(2.32 -0.43) rotate(0.8)"/><polygon class="cls-28" points="42.06 145.82 21.87 146.37 21.92 142.75 42.1 143.04 42.06 145.82"/><polygon class="cls-29" points="97.58 192.74 21.32 192.77 21.37 189.1 97.62 190.17 97.58 192.74"/><rect class="cls-28" x="53.14" y="161.86" width="35.78" height="1.63" transform="translate(2.29 -0.98) rotate(0.8)"/><rect class="cls-21" x="28.35" y="194.71" width="15.18" height="11.11" transform="translate(2.82 -0.48) rotate(0.8)"/><rect class="cls-30" x="28.42" y="194.71" width="15.18" height="1.41" transform="translate(2.75 -0.49) rotate(0.8)"/><rect class="cls-31" x="19.89" y="167.17" width="79.49" height="15.55" transform="translate(2.46 -0.82) rotate(0.8)"/><rect class="cls-21" x="24.38" y="170.17" width="5.72" height="7.87" transform="translate(2.45 -0.37) rotate(0.8)"/><rect class="cls-30" x="24.43" y="170.17" width="5.72" height="1.47" transform="translate(2.4 -0.37) rotate(0.8)"/><rect class="cls-21" x="32.48" y="170.28" width="5.72" height="7.87" transform="translate(2.45 -0.48) rotate(0.8)"/><rect class="cls-30" x="32.53" y="170.28" width="5.72" height="1.47" transform="translate(2.4 -0.48) rotate(0.8)"/><rect class="cls-21" x="40.58" y="170.39" width="5.72" height="7.87" transform="translate(2.45 -0.59) rotate(0.8)"/><rect class="cls-30" x="40.63" y="170.4" width="5.72" height="1.47" transform="translate(2.41 -0.59) rotate(0.8)"/><rect class="cls-21" x="48.68" y="170.51" width="5.72" height="7.87" transform="translate(2.45 -0.71) rotate(0.8)"/><rect class="cls-30" x="48.73" y="170.51" width="5.72" height="1.47" transform="translate(2.41 -0.71) rotate(0.8)"/><rect class="cls-21" x="56.78" y="170.62" width="5.72" height="7.87" transform="translate(2.46 -0.82) rotate(0.8)"/><rect class="cls-30" x="56.83" y="170.62" width="5.72" height="1.47" transform="translate(2.41 -0.82) rotate(0.8)"/><rect class="cls-21" x="64.88" y="170.74" width="5.72" height="7.87" transform="translate(2.46 -0.93) rotate(0.8)"/><rect class="cls-30" x="64.93" y="170.74" width="5.72" height="1.47" transform="translate(2.41 -0.93) rotate(0.8)"/><rect class="cls-21" x="72.98" y="170.85" width="5.72" height="7.87" transform="translate(2.46 -1.05) rotate(0.8)"/><rect class="cls-30" x="73.03" y="170.85" width="5.72" height="1.47" transform="translate(2.42 -1.05) rotate(0.8)"/><rect class="cls-21" x="81.08" y="170.96" width="5.72" height="7.87" transform="translate(2.46 -1.16) rotate(0.8)"/><rect class="cls-30" x="81.12" y="170.96" width="5.72" height="1.47" transform="translate(2.42 -1.16) rotate(0.8)"/><rect class="cls-21" x="89.18" y="171.08" width="5.72" height="7.87" transform="translate(2.47 -1.28) rotate(0.8)"/><rect class="cls-30" x="89.22" y="171.08" width="5.72" height="1.47" transform="translate(2.42 -1.28) rotate(0.8)"/><rect class="cls-13" x="19.65" y="141.9" width="25.05" height="2.54" rx="1.23" transform="translate(2.01 -0.44) rotate(0.8)"/><rect class="cls-22" x="23.95" y="166.68" width="0.43" height="15.55" transform="translate(2.45 -0.32) rotate(0.8)"/><rect class="cls-22" x="30.1" y="166.76" width="0.43" height="15.55" transform="translate(2.45 -0.41) rotate(0.8)"/><rect class="cls-22" x="32.05" y="166.79" width="0.43" height="15.55" transform="translate(2.45 -0.44) rotate(0.8)"/><rect class="cls-22" x="38.2" y="166.88" width="0.43" height="15.55" transform="translate(2.46 -0.52) rotate(0.8)"/><rect class="cls-22" x="40.15" y="166.9" width="0.43" height="15.55" transform="translate(2.46 -0.55) rotate(0.8)"/><rect class="cls-22" x="46.3" y="166.99" width="0.43" height="15.55" transform="translate(2.46 -0.64) rotate(0.8)"/><rect class="cls-22" x="48.24" y="167.02" width="0.43" height="15.55" transform="translate(2.46 -0.66) rotate(0.8)"/><rect class="cls-22" x="54.4" y="167.1" width="0.43" height="15.55" transform="translate(2.46 -0.75) rotate(0.8)"/><rect class="cls-22" x="56.34" y="167.13" width="0.43" height="15.55" transform="translate(2.46 -0.78) rotate(0.8)"/><rect class="cls-22" x="62.5" y="167.22" width="0.43" height="15.55" transform="translate(2.46 -0.86) rotate(0.8)"/><rect class="cls-22" x="64.44" y="167.24" width="0.43" height="15.55" transform="translate(2.46 -0.89) rotate(0.8)"/><rect class="cls-22" x="70.6" y="167.33" width="0.43" height="15.55" transform="translate(2.47 -0.98) rotate(0.8)"/><rect class="cls-22" x="72.54" y="167.36" width="0.43" height="15.55" transform="translate(2.47 -1) rotate(0.8)"/><rect class="cls-22" x="78.69" y="167.44" width="0.43" height="15.55" transform="translate(2.47 -1.09) rotate(0.8)"/><rect class="cls-22" x="80.64" y="167.47" width="0.43" height="15.55" transform="translate(2.47 -1.12) rotate(0.8)"/><rect class="cls-22" x="86.79" y="167.56" width="0.43" height="15.55" transform="translate(2.47 -1.2) rotate(0.8)"/><rect class="cls-22" x="88.74" y="167.59" width="0.43" height="15.55" transform="translate(2.47 -1.23) rotate(0.8)"/><rect class="cls-22" x="94.89" y="167.67" width="0.43" height="15.55" transform="translate(2.47 -1.32) rotate(0.8)"/><rect class="cls-27" x="17.59" y="182.72" width="83.78" height="7.25" transform="translate(2.62 -0.82) rotate(0.8)"/><rect class="cls-32" x="24.46" y="188.62" width="3.91" height="19.41" transform="translate(2.79 -0.35) rotate(0.8)"/><rect class="cls-32" x="43.55" y="188.89" width="3.91" height="19.41" transform="translate(2.79 -0.62) rotate(0.8)"/><rect class="cls-32" x="88.41" y="189.52" width="3.91" height="19.41" transform="translate(2.81 -1.25) rotate(0.8)"/><rect class="cls-22" x="35.76" y="194.71" width="0.36" height="11.11" transform="translate(2.82 -0.48) rotate(0.8)"/><rect class="cls-21" x="48.07" y="195.16" width="39.46" height="7.83" transform="translate(2.8 -0.93) rotate(0.8)"/><rect class="cls-30" x="48.12" y="195.16" width="39.46" height="0.99" transform="translate(2.75 -0.93) rotate(0.8)"/><rect class="cls-21" x="93.25" y="195.54" width="3.29" height="7.83" transform="translate(2.81 -1.31) rotate(0.8)"/><rect class="cls-30" x="93.3" y="195.54" width="3.29" height="0.99" transform="translate(2.76 -1.31) rotate(0.8)"/><rect class="cls-22" x="55.94" y="194.99" width="0.36" height="7.83" transform="translate(2.8 -0.77) rotate(0.8)"/><rect class="cls-22" x="67.61" y="195.16" width="0.36" height="7.83" transform="translate(2.8 -0.93) rotate(0.8)"/><rect class="cls-22" x="79.28" y="195.32" width="0.36" height="7.83" transform="translate(2.81 -1.1) rotate(0.8)"/><rect class="cls-32" x="17.54" y="189.08" width="83.78" height="0.94" transform="translate(2.67 -0.82) rotate(0.8)"/><rect class="cls-13" x="22.43" y="185.26" width="6.36" height="0.33" transform="translate(-160.16 208.42) rotate(-89.2)"/><rect class="cls-13" x="32.13" y="185.4" width="6.36" height="0.33" transform="translate(-150.73 218.26) rotate(-89.2)"/><rect class="cls-13" x="41.84" y="185.53" width="6.36" height="0.33" transform="translate(-141.29 228.1) rotate(-89.2)"/><rect class="cls-13" x="51.54" y="185.67" width="6.36" height="0.33" transform="translate(-131.86 237.94) rotate(-89.2)"/><rect class="cls-13" x="61.25" y="185.81" width="6.36" height="0.33" transform="translate(-122.43 247.78) rotate(-89.2)"/><rect class="cls-13" x="70.96" y="185.94" width="6.36" height="0.33" transform="translate(-112.99 257.62) rotate(-89.2)"/><rect class="cls-13" x="80.66" y="186.08" width="6.36" height="0.33" transform="translate(-103.56 267.46) rotate(-89.2)"/><rect class="cls-13" x="90.37" y="186.22" width="6.36" height="0.33" transform="translate(-94.12 277.3) rotate(-89.2)"/><rect class="cls-13" x="20.46" y="154.4" width="22.77" height="0.33" transform="translate(-123.14 184.23) rotate(-89.2)"/><rect class="cls-13" x="31.68" y="144.47" width="0.33" height="20.18" transform="translate(-123.14 184.23) rotate(-89.2)"/><line class="cls-33" x1="50.93" y1="161.58" x2="91.16" y2="162.14"/><circle class="cls-22" cx="31.85" cy="154.7" r="4.89"/><g class="cls-34"><polygon class="cls-35" points="19.96 169.5 99.46 169.46 99.49 167.73 20 166.62 19.96 169.5"/></g><rect class="cls-13" x="18" y="165.17" width="83.64" height="2.54" rx="1.23" transform="translate(2.34 -0.82) rotate(0.8)"/><g class="cls-34"><rect class="cls-35" x="19.79" y="181.45" width="79.49" height="1.28" transform="translate(2.56 -0.82) rotate(0.8)"/></g><path class="cls-36" d="M28.33,151.73c-1.43,1.2,1.78,7.42,3,7.45s5.56-4.45,4.63-5.88S29.76,150.53,28.33,151.73Z"/><path class="cls-22" d="M31.58,154.44a2,2,0,0,1-.54,1.39,1.52,1.52,0,0,1-1.05.4A1.11,1.11,0,0,1,28.86,155a2,2,0,0,1,.57-1.4,1.43,1.43,0,0,1,1-.39A1.09,1.09,0,0,1,31.58,154.44Zm-1.77-.56a1.75,1.75,0,0,0-.42,1.11c0,.44.19.81.68.81a.76.76,0,0,0,.57-.24,1.78,1.78,0,0,0,.41-1.11c0-.38-.13-.8-.66-.81A.81.81,0,0,0,29.81,153.88Z"/><path class="cls-22" d="M31.89,156.21l.63-3.07H33l-.64,3.06Z"/><path class="cls-22" d="M33.83,154.12l.12,1c0,.25,0,.42,0,.55h0c.06-.13.12-.28.24-.53l.54-1.05h.56l-1.21,2.1h-.5l-.33-2.11Z"/><ellipse class="cls-26" cx="122.82" cy="241.31" rx="2.59" ry="13.14" transform="translate(-120.2 360.72) rotate(-89.2)"/><path class="cls-37" d="M111.72,224.94c-1.2-4.7.41-6.4.41-6.4s-1.5.72-4.69-.55c4.23-3.33,3.73-3.42,3.73-3.42s-.44-.56-3.27,1.13a7.26,7.26,0,0,1,3-5.44s-4-.42-2.11-6.31c2.62,3.79,4.28,1.67,4.28,1.67s.74-.63-2.46-3.29c4.18-1.22,6.45.74,6.45.74a3.62,3.62,0,0,1,3.15-2.82c-1.32,3.23,1.59,3.81,1.59,3.81s1.49-2.22.8-3.83a4.14,4.14,0,0,1,3.08,4.92s.82-1.91,4.43-2c-2.35,3.67-1.06,6.19-1.14,6.27s.3,4.9.3,4.9c-.14,2.47-.11,4.55-4.49,5.15l-5.56,2.11-3.08,2.29-1.57-2S113.27,221.78,111.72,224.94Z"/><path class="cls-37" d="M124.74,231.44a16,16,0,0,1-5-.07,3.5,3.5,0,0,1-2.42-2.52,18.1,18.1,0,0,1-.2-5.19,3.42,3.42,0,0,1,2.53-2.55,16.07,16.07,0,0,1,5.49.08,3.44,3.44,0,0,1,2.46,2.61,18.52,18.52,0,0,1-.35,5.19A3.5,3.5,0,0,1,124.74,231.44Z"/><path class="cls-37" d="M113.17,229.45a1,1,0,0,1-.44-.1,1.08,1.08,0,0,1-.53-1.44,12,12,0,0,1,6.3-6.33,1.09,1.09,0,0,1,1.38.68,1.07,1.07,0,0,1-.67,1.37,9.8,9.8,0,0,0-5,5.19A1.09,1.09,0,0,1,113.17,229.45Z"/><path class="cls-37" d="M131.33,229.71a1.11,1.11,0,0,1-1-.66,9.78,9.78,0,0,0-4.9-5.33,1.09,1.09,0,0,1,.77-2,12,12,0,0,1,6.13,6.5,1.1,1.1,0,0,1-.57,1.43A1.2,1.2,0,0,1,131.33,229.71Z"/><path class="cls-37" d="M120.66,241.19l-7.18-.1a.57.57,0,0,1-.53-.77c.71-1.88,3.78-3.26,5.84-3.23s2.44,1.55,2.45,3.53A.56.56,0,0,1,120.66,241.19Z"/><path class="cls-37" d="M119.61,241a1.1,1.1,0,0,1-1.07-1l-.72-10.21a1.09,1.09,0,1,1,2.17-.15l.72,10.2a1.09,1.09,0,0,1-1,1.16Z"/><path class="cls-37" d="M123.54,241.23l7.18.11a.58.58,0,0,0,.55-.76c-.66-1.9-3.68-3.37-5.74-3.4s-2.49,1.48-2.56,3.46A.57.57,0,0,0,123.54,241.23Z"/><path class="cls-37" d="M124.6,241h-.09a1.09,1.09,0,0,1-1-1.19l1-10.18a1.09,1.09,0,0,1,2.16.21l-1,10.19A1.09,1.09,0,0,1,124.6,241Z"/><path class="cls-38" d="M121.53,240.84a.63.63,0,0,1-.63.63l-7.8-.11a.63.63,0,0,1-.58-.85v0a5.19,5.19,0,0,1,2.35-2.36,8.44,8.44,0,0,1,4-1.12c2.22,0,2.62,1.57,2.67,3.61Z"/><path class="cls-39" d="M121.53,240.84a.63.63,0,0,1-.63.63l-7.8-.11a.63.63,0,0,1-.58-.85v0l9,.13Z"/><path class="cls-40" d="M121,238.27l-3.56-1.1s0,0,0,0h0a.8.8,0,0,1,.8-.78l2.18,0a.79.79,0,0,1,.77.8v1C121.15,238.24,121.18,238.31,121,238.27Z"/><path class="cls-38" d="M122.61,240.85a.63.63,0,0,0,.61.65l7.81.11a.62.62,0,0,0,.59-.83v0a5.14,5.14,0,0,0-2.28-2.43,8.52,8.52,0,0,0-3.94-1.23c-2.23,0-2.67,1.5-2.77,3.53C122.62,240.7,122.61,240.78,122.61,240.85Z"/><path class="cls-39" d="M122.61,240.85a.63.63,0,0,0,.61.65l7.81.11a.62.62,0,0,0,.59-.83v0l-9-.13C122.62,240.7,122.61,240.78,122.61,240.85Z"/><path class="cls-40" d="M123.21,238.31l3.59-1s0,0,0,0h0a.8.8,0,0,0-.78-.8l-2.17,0a.79.79,0,0,0-.8.78l0,1C123.06,238.27,123,238.34,123.21,238.31Z"/><polygon class="cls-41" points="121.61 235.3 115.5 234.88 117.44 229.53 121.97 229.59 121.61 235.3"/><polygon class="cls-41" points="122.75 235.31 128.87 235.06 127.08 229.66 122.55 229.6 122.75 235.31"/><rect class="cls-41" x="121.02" y="228.81" width="2.7" height="3.71" transform="translate(3.25 -1.7) rotate(0.8)"/><rect class="cls-41" x="117.03" y="228.77" width="10.52" height="1.25" rx="0.61" transform="translate(3.23 -1.69) rotate(0.8)"/><path class="cls-42" d="M128.57,230.46a48.85,48.85,0,0,1-12.67-.18c.4-3,1.57-5.9,1.62-8.9,1.75,0,3.09-.49,4.84-.47s3.09.59,4.84.61C127.16,224.52,128.25,227.48,128.57,230.46Z"/><polygon class="cls-42" points="113.92 223.53 116.31 226.1 118.03 224.9 117.52 221.38 113.92 223.53"/><polygon class="cls-42" points="130.71 223.77 128.25 226.27 126.56 225.02 127.17 221.52 130.71 223.77"/><path class="cls-37" d="M128.06,209.34l1.44,2.54s1.93-1.7,1.72-3.7a.19.19,0,0,0-.28-.15A20.65,20.65,0,0,1,128.06,209.34Z"/><circle class="cls-37" cx="122.2" cy="213.94" r="7.8"/><path class="cls-37" d="M119.69,218.35a3.33,3.33,0,0,0,3.29,3.39c4.4-.11,8.92-1.72,8.64-3.82,0-.64-1.37-.65-2-1.62C128.64,214.74,119.71,216.51,119.69,218.35Z"/><path class="cls-43" d="M130.82,218c.1.44.87.65,1.74.47s1.2-.69,1.11-1.13-.58-.65-1.45-.47S130.73,217.58,130.82,218Z"/><ellipse class="cls-22" cx="133" cy="217.19" rx="0.18" ry="0.36" transform="translate(-95.89 328.86) rotate(-84.52)"/><circle class="cls-22" cx="121.34" cy="214.22" r="2.31"/><circle class="cls-44" cx="120.61" cy="214.21" r="1.06"/><circle class="cls-43" cx="120.61" cy="214.21" r="0.6"/><circle class="cls-22" cx="120.84" cy="213.75" r="0.42"/><circle class="cls-22" cx="120.34" cy="214.73" r="0.17"/><circle class="cls-22" cx="127.26" cy="214.43" r="2.31"/><circle class="cls-44" cx="126.53" cy="214.42" r="1.06"/><circle class="cls-43" cx="126.53" cy="214.42" r="0.6"/><circle class="cls-22" cx="126.76" cy="213.96" r="0.42"/><circle class="cls-22" cx="126.26" cy="214.94" r="0.17"/><path class="cls-37" d="M118.49,210.34a8.32,8.32,0,0,0-3.31-1.88c-.13,0-.19.15-.15.28.52,1.56.92,3,.92,3"/><path class="cls-45" d="M116,211.88a.1.1,0,0,1-.1-.08s-.41-1.49-.92-3a.38.38,0,0,1,0-.35.27.27,0,0,1,.22-.08,8.28,8.28,0,0,1,3.37,1.91.11.11,0,0,1,0,.15.1.1,0,0,1-.15,0,8.26,8.26,0,0,0-3.26-1.85h0a.16.16,0,0,0,0,.14c.51,1.54.91,3,.92,3a.12.12,0,0,1-.08.13Z"/><path class="cls-45" d="M127.59,220.78a3.7,3.7,0,0,1-2.86-1.34.18.18,0,1,1,.28-.22,3.49,3.49,0,0,0,2.9,1.19.17.17,0,0,1,.2.15.17.17,0,0,1-.15.2A1.93,1.93,0,0,1,127.59,220.78Z"/><path class="cls-45" d="M122.71,211.65a.25.25,0,0,1-.13-.06c-.11-.12-1.2-1.12-3.34-.35a.17.17,0,0,1-.23-.11.19.19,0,0,1,.11-.23c2.35-.85,3.58.3,3.72.43a.17.17,0,0,1,0,.12.18.18,0,0,1-.16.2Z"/><path class="cls-45" d="M125.32,211.84h0a.18.18,0,0,1-.15-.2.17.17,0,0,1,.06-.11c.15-.14,1.45-1.2,3.74-.22a.18.18,0,0,1,.09.24.17.17,0,0,1-.23.09c-2.09-.89-3.23.05-3.36.16A.18.18,0,0,1,125.32,211.84Z"/><circle class="cls-37" cx="112.99" cy="229.51" r="1.61"/><ellipse class="cls-37" cx="114.74" cy="229.74" rx="0.88" ry="1.87" transform="translate(-131.92 158.28) rotate(-47.3)"/><ellipse class="cls-37" cx="113.38" cy="231.39" rx="2.15" ry="0.85" transform="matrix(0.32, -0.95, 0.95, 0.32, -142.14, 264.65)"/><ellipse class="cls-37" cx="111.82" cy="230.9" rx="2.15" ry="0.85" transform="translate(-144.21 214.59) rotate(-60.51)"/><ellipse class="cls-37" cx="111.14" cy="229.67" rx="2.15" ry="0.85" transform="translate(-128.65 142.48) rotate(-44.2)"/><circle class="cls-37" cx="131.36" cy="229.77" r="1.61"/><ellipse class="cls-37" cx="129.6" cy="229.95" rx="1.87" ry="0.88" transform="translate(-119.21 141.81) rotate(-41.09)"/><ellipse class="cls-37" cx="130.92" cy="231.64" rx="0.85" ry="2.15" transform="translate(-62.26 48.67) rotate(-17.08)"/><ellipse class="cls-37" cx="132.49" cy="231.19" rx="0.85" ry="2.15" transform="translate(-92.72 88.77) rotate(-27.88)"/><ellipse class="cls-37" cx="133.21" cy="229.98" rx="0.85" ry="2.15" transform="translate(-122.62 157.95) rotate(-44.2)"/><ellipse class="cls-26" cx="150.42" cy="241.98" rx="2.59" ry="13.62" transform="translate(-93.65 388.99) rotate(-89.2)"/><path class="cls-37" d="M149.22,242.19l-7.18-.1a.58.58,0,0,1-.52-.78c.7-1.88,3.77-3.26,5.83-3.23s2.44,1.55,2.45,3.53A.57.57,0,0,1,149.22,242.19Z"/><path class="cls-37" d="M152.1,242.23l7.18.1a.58.58,0,0,0,.55-.76c-.66-1.9-3.68-3.37-5.74-3.4s-2.48,1.49-2.56,3.46A.58.58,0,0,0,152.1,242.23Z"/><path class="cls-37" d="M139.4,227.84a11.59,11.59,0,0,1,1.58-8.67,5.75,5.75,0,0,1-5.56.7c4.15-3.32,4.63-4.67,4.63-4.67s-1.38-.49-4.16,1.21a7.28,7.28,0,0,1,3.93-5.52s-3.87-.41-2.06-6.3c2.57,3.78,4.2,1.66,4.2,1.66s.72-.63-2.42-3.28c4.1-1.23,6.33.74,6.33.74a3.6,3.6,0,0,1,3.1-2.83c-1.31,3.24,1.56,3.82,1.56,3.82s1.45-2.22.78-3.84a4.17,4.17,0,0,1,3,4.93,8.18,8.18,0,0,1,5.32-1.74,11.65,11.65,0,0,0-2.1,6c.06-.06.3,4.89.3,4.89-.14,2.47-.11,4.55-4.41,5.15L148,222.25l-.43,1-1.84-.4S140.92,224.67,139.4,227.84Z"/><path class="cls-37" d="M153.3,232.44a16.25,16.25,0,0,1-5-.07,3.54,3.54,0,0,1-2.42-2.53,18.09,18.09,0,0,1-.2-5.19,3.45,3.45,0,0,1,2.53-2.55,16.32,16.32,0,0,1,5.49.08,3.43,3.43,0,0,1,2.46,2.62,18.44,18.44,0,0,1-.34,5.18A3.56,3.56,0,0,1,153.3,232.44Z"/><path class="cls-37" d="M162.17,228.85a1.08,1.08,0,0,0-.78-.89,9.78,9.78,0,0,1-5.92-4.17,1.09,1.09,0,0,0-1.92,1,12,12,0,0,0,7.25,5.23,1.09,1.09,0,0,0,1.34-.75A1.17,1.17,0,0,0,162.17,228.85Z"/><path class="cls-37" d="M148.17,242a1.09,1.09,0,0,1-1.07-1l-.72-10.21a1.09,1.09,0,0,1,2.17-.15l.72,10.21a1.09,1.09,0,0,1-1,1.16Z"/><path class="cls-37" d="M153.16,242h-.09a1.09,1.09,0,0,1-1-1.19l1-10.19a1.09,1.09,0,1,1,2.16.22l-1,10.18A1.07,1.07,0,0,1,153.16,242Z"/><path class="cls-38" d="M150.09,241.83a.62.62,0,0,1-.63.63l-7.8-.11a.63.63,0,0,1-.58-.84l0,0a5.07,5.07,0,0,1,2.35-2.37,8.36,8.36,0,0,1,4-1.11c2.23,0,2.63,1.57,2.67,3.6Z"/><path class="cls-39" d="M150.09,241.83a.62.62,0,0,1-.63.63l-7.8-.11a.63.63,0,0,1-.58-.84l0,0,9,.12Z"/><path class="cls-38" d="M149.89,239.84l-3.84-1.7-.13-1.27a.3.3,0,0,1,.3-.33l3.7.05a.29.29,0,0,1,.29.33Z"/><path class="cls-38" d="M151.3,241.85a.63.63,0,0,0,.61.65l7.81.1a.61.61,0,0,0,.59-.82v0a5.14,5.14,0,0,0-2.28-2.43,8.4,8.4,0,0,0-3.94-1.23c-2.23,0-2.67,1.5-2.77,3.53C151.31,241.7,151.3,241.77,151.3,241.85Z"/><path class="cls-39" d="M151.3,241.85a.63.63,0,0,0,.61.65l7.81.1a.61.61,0,0,0,.59-.82v0l-9-.13C151.31,241.7,151.3,241.77,151.3,241.85Z"/><path class="cls-38" d="M151.56,239.86l3.89-1.59.16-1.26a.29.29,0,0,0-.29-.34l-3.7,0a.3.3,0,0,0-.31.32Z"/><path class="cls-46" d="M158.55,234.29a39.84,39.84,0,0,1-15.5-.22c.84-3.6,2.81-7.52,3-11.16,0-.25,1-.73,1.92-.76a31.24,31.24,0,0,1,5.72.08,2.81,2.81,0,0,1,2.17,1.73C156.08,224.61,157.1,230.56,158.55,234.29Z"/><circle class="cls-37" cx="162.24" cy="228.86" r="1.61"/><ellipse class="cls-37" cx="162.18" cy="227.1" rx="1.87" ry="0.88" transform="translate(-116.72 236.44) rotate(-56.38)"/><ellipse class="cls-37" cx="164.03" cy="228.18" rx="0.85" ry="2.15" transform="translate(-88.33 351.83) rotate(-80.39)"/><ellipse class="cls-37" cx="163.79" cy="229.8" rx="0.85" ry="2.15" transform="translate(-108.69 303.19) rotate(-69.6)"/><ellipse class="cls-37" cx="162.68" cy="230.67" rx="0.85" ry="2.15" transform="translate(-119.48 223.13) rotate(-53.28)"/><path class="cls-37" d="M141.73,230.44a1,1,0,0,1-.44-.1,1.09,1.09,0,0,1-.53-1.44,12,12,0,0,1,6.31-6.33,1.09,1.09,0,0,1,.7,2.06,9.76,9.76,0,0,0-5,5.18A1.07,1.07,0,0,1,141.73,230.44Z"/><circle class="cls-37" cx="141.55" cy="230.51" r="1.61"/><ellipse class="cls-37" cx="143.3" cy="230.74" rx="0.88" ry="1.87" transform="translate(-123.45 179.59) rotate(-47.3)"/><ellipse class="cls-37" cx="141.94" cy="232.39" rx="2.15" ry="0.85" transform="translate(-123.68 292.38) rotate(-71.31)"/><ellipse class="cls-37" cx="140.38" cy="231.89" rx="2.15" ry="0.85" transform="translate(-130.57 239.95) rotate(-60.51)"/><ellipse class="cls-37" cx="139.7" cy="230.66" rx="2.15" ry="0.85" transform="translate(-121.26 162.67) rotate(-44.2)"/><path class="cls-37" d="M156.86,210.34l1.43,2.54s1.93-1.7,1.72-3.7a.19.19,0,0,0-.28-.15A20.26,20.26,0,0,1,156.86,210.34Z"/><circle class="cls-37" cx="151" cy="214.93" r="7.8"/><path class="cls-37" d="M148.49,219.35a3.33,3.33,0,0,0,3.29,3.39c4.4-.12,8.92-1.73,8.64-3.82,0-.65-1.37-.65-2-1.63C157.44,215.73,148.51,217.5,148.49,219.35Z"/><path class="cls-43" d="M159.62,219c.09.45.87.66,1.73.48s1.21-.69,1.12-1.13-.59-.65-1.45-.47S159.53,218.57,159.62,219Z"/><ellipse class="cls-22" cx="161.8" cy="218.19" rx="0.18" ry="0.36" transform="translate(-70.83 358.43) rotate(-84.52)"/><path class="cls-37" d="M148.17,210.68a8.26,8.26,0,0,0-3.32-1.88c-.13,0-.19.15-.14.28.52,1.55.91,3,.91,3"/><path class="cls-45" d="M145.62,212.22a.1.1,0,0,1-.1-.08s-.4-1.49-.92-3a.37.37,0,0,1,.06-.34.21.21,0,0,1,.21-.08,8.2,8.2,0,0,1,3.37,1.91.11.11,0,0,1,0,.15.12.12,0,0,1-.16,0,8.15,8.15,0,0,0-3.26-1.86h0a.14.14,0,0,0,0,.13c.51,1.54.91,3,.92,3a.12.12,0,0,1-.08.14Z"/><path class="cls-45" d="M156.39,221.78a3.69,3.69,0,0,1-2.86-1.34.18.18,0,1,1,.28-.22,3.5,3.5,0,0,0,2.9,1.18.18.18,0,1,1,0,.36A3.47,3.47,0,0,1,156.39,221.78Z"/><path class="cls-45" d="M151.51,212.64a.19.19,0,0,1-.13,0c-.12-.12-1.2-1.12-3.34-.35a.19.19,0,0,1-.23-.11.18.18,0,0,1,.11-.23c2.35-.85,3.58.3,3.72.43a.16.16,0,0,1,.05.11.18.18,0,0,1-.16.2Z"/><path class="cls-45" d="M154.11,212.83h0a.18.18,0,0,1-.15-.21.24.24,0,0,1,.06-.11c.15-.13,1.45-1.19,3.74-.21a.17.17,0,0,1,.09.23.18.18,0,0,1-.24.1c-2.09-.9-3.23,0-3.35.15A.15.15,0,0,1,154.11,212.83Z"/><path class="cls-43" d="M149,214a3.57,3.57,0,0,1-.51-.29l-.47-.32a3.11,3.11,0,0,1-.41-.4,1.81,1.81,0,0,1-.32-.46,2.05,2.05,0,0,0,.37.41,5.27,5.27,0,0,0,.46.31,3.71,3.71,0,0,0,.49.24,3.41,3.41,0,0,0,.5.19h0a.18.18,0,0,1,.11.21.16.16,0,0,1-.21.11Z"/><path class="cls-43" d="M148.65,214.35a4.18,4.18,0,0,1-.53-.21,4.11,4.11,0,0,1-.51-.27,3.83,3.83,0,0,1-.46-.33,2.16,2.16,0,0,1-.37-.43,2.05,2.05,0,0,0,.42.36,2.82,2.82,0,0,0,.49.25,5.27,5.27,0,0,0,.51.19l.53.12h0a.16.16,0,0,1,.14.19.17.17,0,0,1-.19.14Z"/><circle class="cls-22" cx="150.13" cy="215.22" r="2.31"/><circle class="cls-44" cx="149.41" cy="215.21" r="1.06"/><circle class="cls-43" cx="149.41" cy="215.21" r="0.6"/><circle class="cls-22" cx="149.64" cy="214.74" r="0.42"/><circle class="cls-22" cx="149.14" cy="215.73" r="0.17"/><path class="cls-43" d="M157.28,214.06c.18-.08.34-.17.51-.26s.33-.21.48-.32a3.79,3.79,0,0,0,.42-.38,1.85,1.85,0,0,0,.33-.46,2.4,2.4,0,0,1-.38.4,3.75,3.75,0,0,1-1,.53l-.51.18h0a.16.16,0,0,0-.11.2.16.16,0,0,0,.2.12Z"/><path class="cls-43" d="M157.56,214.48a4.46,4.46,0,0,0,.55-.2c.17-.08.35-.16.51-.25a3.23,3.23,0,0,0,.47-.32,2.21,2.21,0,0,0,.39-.42,2.12,2.12,0,0,1-.44.35,3.71,3.71,0,0,1-.49.24,5.16,5.16,0,0,1-.52.16,3.58,3.58,0,0,1-.53.11h0a.18.18,0,0,0-.14.19.16.16,0,0,0,.19.14Z"/><circle class="cls-22" cx="156.05" cy="215.3" r="2.31"/><circle class="cls-44" cx="155.33" cy="215.29" r="1.06"/><circle class="cls-43" cx="155.33" cy="215.29" r="0.6"/><circle class="cls-22" cx="155.56" cy="214.83" r="0.42"/><circle class="cls-22" cx="155.06" cy="215.81" r="0.17"/></g></g></g></g></svg>