<svg id="Laag_1" data-name="Laag 1" xmlns="http://www.w3.org/2000/svg" viewBox="0 0 126 145.03"><defs><style>.cls-1{fill:#010101;}.cls-2{fill:#e68522;}.cls-3{fill:#cd6b14;}.cls-4{fill:#7a190f;}.cls-5{fill:#ad2316;}.cls-6{fill:#a63c16;}.cls-7{fill:#712f0e;}.cls-8{fill:#fff;}.cls-9{fill:#68280c;}.cls-10{fill:#914314;}.cls-11{fill:#c86f13;}.cls-12{fill:none;stroke:#68280c;stroke-linecap:round;stroke-miterlimit:10;stroke-width:2px;}</style></defs><title>Tekengebied 1</title><path class="cls-1" d="M75.81.11a1,1,0,0,1,1.06.1L75.8.1Z"/><path class="cls-2" d="M52.24,75.87l-.61.31A32.82,32.82,0,0,0,48.36,78a34.84,34.84,0,0,0-3.17,2.37,46.17,46.17,0,0,0-4,3.86c-.63.67-1.29,1.37-1.87,2.09l-.77.94c-.67.81-1.29,1.63-1.93,2.48-.88,1.18-1.71,2.41-2.51,3.64s-1.57,2.51-2.29,3.79c-.36.64-.71,1.28-1,1.9-.17.32-.34.63-.48.94l-.2.44-.09.19v.08h0A12.63,12.63,0,0,1,7.2,90a16,16,0,0,1,.69-1.45L8,88.35v-.1l.12-.2.24-.36L8.81,87c.29-.44.59-.85.88-1.29.58-.82,1.19-1.61,1.78-2.38q1.81-2.34,3.75-4.53c1.28-1.46,2.62-2.89,4-4.3s2.83-2.74,4.32-4.07a70.71,70.71,0,0,1,9.81-7.24,56.63,56.63,0,0,1,5.6-3A52.58,52.58,0,0,1,45,57.94a9.75,9.75,0,0,1,10,2.73,9.47,9.47,0,0,1,2.07,3.65A9.65,9.65,0,0,1,52.24,75.87Z"/><path class="cls-3" d="M28.56,101.84v1A12.62,12.62,0,0,1,7.2,90a14,14,0,0,1,21.4,11.84Z"/><path class="cls-2" d="M119.49,106.16a12.59,12.59,0,0,1-15.73-2.88,12.32,12.32,0,0,1-1.4-2h0v-.08l-.09-.2-.22-.44c-.14-.3-.29-.62-.46-.93-.32-.63-.67-1.28-1-1.9-.72-1.29-1.49-2.58-2.29-3.79s-1.65-2.45-2.58-3.64-1.63-2.14-2.48-3.16a2.75,2.75,0,0,1-.22-.26c-.8-.93-1.59-1.82-2.42-2.67h0a46.74,46.74,0,0,0-3.5-3.25,38.69,38.69,0,0,0-3.18-2.38,31,31,0,0,0-3.27-1.87l-.6-.3a9.66,9.66,0,0,1,7.17-17.87,51,51,0,0,1,6.1,2.31,56.63,56.63,0,0,1,5.6,3,71.34,71.34,0,0,1,9.79,7.24c1.51,1.29,2.94,2.68,4.33,4.07s2.72,2.83,4,4.3,2.58,3,3.73,4.52c.61.78,1.2,1.57,1.79,2.39.3.4.59.82.89,1.29l.45.67.23.34.13.21v.1l.1.16a12.69,12.69,0,0,1-4.94,17.15Z"/><path class="cls-3" d="M103.71,102.32v1a12.63,12.63,0,0,0,21.37-12.87,14,14,0,0,0-21.39,11.84Z"/><path class="cls-3" d="M93,86.82c-.8-.93-1.6-1.82-2.42-2.66L91,87.09l-50.19.19.38-3c-.63.67-1.28,1.36-1.86,2.08l-.78.94L39.72,78a26.37,26.37,0,0,1,12.7-19.31,9.61,9.61,0,0,1,2.68,2l.37-.18.22-.1.24-.11.27-.11.12-.07h.12L57,60l.64-.25.3-.1.64-.22.29-.08h.27l.49-.14.29-.08h.41l.69-.15h1.57l.49-.07h6.77l.54.11.54.1.54.13.43.1.25.07h.39l.32.09H73l.22.06h0l1.13.39h0a1.15,1.15,0,0,1,.31.11l.35.13h.22l.33.16.45.19.64.3.15.09.19.1.21.1h.1a9.65,9.65,0,0,1,2.67-2,25.45,25.45,0,0,1,3.29,2.47A26.39,26.39,0,0,1,92,78l1.17,9.08A1.43,1.43,0,0,1,93,86.82Z"/><path class="cls-2" d="M69.27,133.06H62.49a24.3,24.3,0,0,1-24.31-24.29,25,25,0,0,1,.2-3.12l2.37-18.42.39-3,.63-4.88c.09-.67.2-1.29.35-2a1.6,1.6,0,0,1,0-.31V77a3.75,3.75,0,0,1,.1-.4c.08-.34.17-.66.27-1a.81.81,0,0,1,0-.22.86.86,0,0,1,.1-.32c.17-.56.37-1.1.58-1.64.06-.16.14-.33.21-.49h0c.07-.16.14-.33.22-.49h0l.23-.5.28-.58c.08-.13.14-.25.21-.38s.19-.35.29-.53l.25-.43.24-.38.37-.58.27-.4.31-.44c.33-.43.65-.86,1-1.28a4.28,4.28,0,0,1,.29-.33L47.8,66l.26-.28.35-.35c0-.07.14-.14.22-.22l.86-.82.24-.21.6-.5.24-.2.58-.45.61-.43L52,62.4l.1-.06.27-.18.62-.4.32-.19.63-.36.26-.14.73-.39.37-.18.22-.1.23-.11.28-.11.12-.07h.12l.54-.22.64-.24.3-.1.64-.22.29-.08h.27l.49-.14.29-.08h.41l.69-.15h1.57l.49-.07h6.95l.54.11.54.1.54.13.43.1.25.07h.39l.32.09H73l.22.06h0l1.13.39h0a1.15,1.15,0,0,1,.31.11l.35.13h.22l.33.15.45.2.64.29.15.09.19.11.21.1h.1l.57.31.51.29.22.15L79,62l.12.09.46.31.72.5.45.36h0l.4.32.19.17.45.39A23.37,23.37,0,0,1,84,66.45a16.36,16.36,0,0,1,1,1.28A24.33,24.33,0,0,1,89.8,79.32l.62,4.77L90.79,87l2.4,18.55a24.3,24.3,0,0,1-20.92,27.27A21.4,21.4,0,0,1,69.27,133.06Z"/><path class="cls-2" d="M48.32,128.11l-3,1.46-.38.19-.4.18-1.12.5-1.29.6-.34.16-.33.18-.69.34c-1.85,1-3.78,2-5.73,3.17s-3.86,2.33-5.87,3.58c-1,.62-2,1.29-2.92,1.86l-1.39,1c-.47.31-1,.65-1.35.92A14.86,14.86,0,1,1,6.17,118.12a15.4,15.4,0,0,1,2.51-1.47l.69-.31,1.88-.81,1.82-.74,3.63-1.46c2.42-1,4.87-1.86,7.37-2.74s5.07-1.74,7.81-2.57l1-.3.52-.14.54-.14,2.2-.56,2.41-.5h.34l.35-.06.71-.1,1.4-.21a11.74,11.74,0,0,1,6.94,22.11Z"/><path class="cls-3" d="M18,144.67A14.86,14.86,0,0,1,3.26,120.85c5.26-2.5,12.3.49,16,7C22.86,134,22.19,141.15,18,144.67Z"/><path class="cls-2" d="M74.88,128.13l3,1.47.39.18.4.18,1.12.49,1.28.62.34.15.33.18.7.35c1.84.95,3.77,2,5.72,3.17S92,137.25,94,138.48l2.92,1.88,1.45.95c.46.31,1,.65,1.35.92A14.85,14.85,0,0,0,117,118.12a15.53,15.53,0,0,0-2.57-1.47l-.69-.31-1.88-.81-1.82-.74c-1.21-.51-2.42-1-3.63-1.46q-3.63-1.42-7.37-2.75c-2.51-.88-5.07-1.73-7.82-2.51l-1-.3-.52-.14-.54-.14-2.2-.55-2.41-.51-.35-.06h-.34l-.71-.12-1.4-.19a11.74,11.74,0,0,0-6.94,22.11Z"/><path class="cls-3" d="M105.22,144.7a14.87,14.87,0,0,0,14.72-23.83c-5.26-2.49-12.3.49-16,7C100.34,134,101,141.16,105.22,144.7Z"/><path class="cls-2" d="M69.27,133.06H62.49a24.3,24.3,0,0,1-24.31-24.29,25,25,0,0,1,.2-3.12l2.37-18.42.39-3,.63-4.88c.09-.67.2-1.29.35-2a1.6,1.6,0,0,1,0-.31V77a3.75,3.75,0,0,1,.1-.4c.08-.34.17-.66.27-1a.81.81,0,0,1,0-.22.86.86,0,0,1,.1-.32c.17-.56.37-1.1.58-1.64.06-.16.14-.33.21-.49h0c.07-.16.14-.33.22-.49h0l.23-.5.28-.58c.08-.13.14-.25.21-.38s.19-.35.29-.53l.25-.43.24-.38.37-.58.27-.4.31-.44c.33-.43.65-.86,1-1.28a4.28,4.28,0,0,1,.29-.33L47.8,66l.26-.28.35-.35c0-.07.14-.14.22-.22l.86-.82.24-.21.6-.5.24-.2.58-.45.61-.43L52,62.4l.1-.06.27-.18.62-.4.32-.19.63-.36.26-.14.73-.39.37-.18.22-.1.23-.11.28-.11.12-.07h.12l.54-.22.64-.24.3-.1.64-.22.29-.08h.27l.49-.14.29-.08h.41l.69-.15h1.57l.49-.07h6.95l.54.11.54.1.54.13.43.1.25.07h.39l.32.09H73l.22.06h0l1.13.39h0a1.15,1.15,0,0,1,.31.11l.35.13h.22l.33.15.45.2.64.29.15.09.19.11.21.1h.1l.57.31.51.29.22.15L79,62l.12.09.46.31.72.5.45.36h0l.4.32.19.17.45.39A23.37,23.37,0,0,1,84,66.45a16.36,16.36,0,0,1,1,1.28A24.33,24.33,0,0,1,89.8,79.32l.62,4.76h0L90.79,87l2.4,18.56a24.3,24.3,0,0,1-20.9,27.28A21.79,21.79,0,0,1,69.27,133.06Z"/><ellipse class="cls-2" cx="93.54" cy="18.37" rx="13.24" ry="10.39" transform="translate(28.38 87.95) rotate(-57.99)"/><ellipse class="cls-4" cx="93.89" cy="18.87" rx="7.84" ry="6.14" transform="translate(28.12 88.48) rotate(-57.99)"/><ellipse class="cls-5" cx="93.27" cy="19.49" rx="7.84" ry="6.14" transform="translate(27.3 88.24) rotate(-57.99)"/><ellipse class="cls-2" cx="41.05" cy="17.66" rx="10.39" ry="13.24" transform="translate(-3.12 24.45) rotate(-32.01)"/><ellipse class="cls-4" cx="40.61" cy="17.19" rx="6.23" ry="7.58" transform="translate(-2.94 24.14) rotate(-32.01)"/><ellipse class="cls-5" cx="41.21" cy="18.14" rx="6.14" ry="7.84" transform="translate(-3.35 24.6) rotate(-32.01)"/><ellipse class="cls-2" cx="66.41" cy="38.04" rx="33.53" ry="28.41"/><ellipse class="cls-6" cx="49.04" cy="31.67" rx="3.46" ry="3.38"/><ellipse class="cls-7" cx="49.04" cy="32.51" rx="3.46" ry="3.38"/><ellipse class="cls-8" cx="48.49" cy="31.19" rx="1.35" ry="1.43"/><ellipse class="cls-6" cx="83.67" cy="32.42" rx="3.54" ry="3.46"/><ellipse class="cls-7" cx="83.67" cy="33.27" rx="3.54" ry="3.46"/><ellipse class="cls-8" cx="83.11" cy="31.93" rx="1.39" ry="1.47"/><ellipse class="cls-9" cx="64.81" cy="41.4" rx="7.77" ry="6.11"/><ellipse class="cls-10" cx="64.01" cy="40.38" rx="6.45" ry="4.76"/><ellipse class="cls-11" cx="62.6" cy="38.25" rx="3.29" ry="2.43"/><path class="cls-12" d="M65.15,47.33s1.48,8.81-3.05,8.05-9.41-2.58-10.67-6.44"/><path class="cls-12" d="M49.86,50.09A3.52,3.52,0,0,1,53,48.23"/><path class="cls-12" d="M65.15,47.33s-.42,8.21,3.86,8.1S78.42,52.92,79.68,49"/><path class="cls-12" d="M81.31,50.13a3.48,3.48,0,0,0-3.14-1.84"/></svg>