<?xml version="1.0" encoding="utf-8"?>
<!-- Generator: Adobe Illustrator 24.0.2, SVG Export Plug-In . SVG Version: 6.00 Build 0)  -->
<svg version="1.1" id="Laag_1" xmlns="http://www.w3.org/2000/svg" xmlns:xlink="http://www.w3.org/1999/xlink" x="0px" y="0px"
	 viewBox="0 0 738.1 738.1" style="enable-background:new 0 0 738.1 738.1;" xml:space="preserve">
<style type="text/css">
	.st0{fill:#000203;}
	.st1{fill:#010202;}
	.st2{fill:#FFFFFF;}
	.st3{fill:#7EE3ED;}
	.st4{fill:#FEFFFF;}
</style>
<title>explain-icon</title>
<path class="st0" d="M342.8,9.3l-0.8,0.9c-0.1-0.3-0.2-0.6-0.3-0.9H342.8z"/>
<path class="st1" d="M392.8,9.3l-0.1,0.7l-0.9-0.7H392.8z"/>
<path class="st1" d="M728.7,346.2l-0.7-0.9l0.7-0.1V346.2z"/>
<path class="st1" d="M728.7,391.2l-0.6-0.1l0.6-0.9V391.2z"/>
<path class="st0" d="M341.8,729.1c-0.3-0.4-0.3-0.8,0.2-0.8c0.3,0,0.5,0.5,0.8,0.8H341.8z"/>
<path class="st1" d="M391.8,729.1l0.9-0.7l0.1,0.7H391.8z"/>
<polygon class="st2" points="175.8,612.2 176.1,612.3 175.8,612.1 "/>
<circle class="st3" cx="369" cy="369" r="369"/>
<path class="st4" d="M674.6,383c-1,71.3-25.9,132.8-75.6,184c-6.1,6.3-13.4,9.3-22.2,6.7c-8.3-2.4-13.4-7.9-15.2-16.3s1.2-15,7-20.8
	c20.3-20.5,36.6-43.8,46.6-70.9c32.5-88.2,17.3-167.3-46.4-236.7c-6.2-6.8-9.4-14.1-6.5-23.1c2.6-8.2,8.4-13.1,16.8-14.6
	c7.9-1.4,14.3,1.5,19.8,7c29.8,30,51.9,66.9,64.2,107.4C670.9,330.7,674.8,356.8,674.6,383z"/>
<path class="st4" d="M596.4,382.9c-0.5,50.4-18.1,93.8-53.1,130.1c-10.3,10.6-25.6,9.4-32.9-2.3c-5.1-8.3-4-17.8,3.5-25.5
	c13.4-13.8,24.4-29.2,31-47.2c21.7-58.5,11.4-111.1-30.8-157.2c-10.2-11.2-8.4-26.8,4.3-33.2c8-4.1,17.1-2.7,23.8,4.1
	c26.6,26.9,43.6,58.9,50.8,96C595.5,359.2,596.6,371,596.4,382.9z"/>
<path class="st4" d="M523.4,382.5c-0.5,30.3-10.7,56.5-31.5,78.4c-9.3,9.8-21.3,10.5-30,2.2c-8.4-8.1-8.1-20.3,0.7-29.8
	c27.3-29.3,27.2-71.3-0.2-101.1c-11.8-12.8-6.9-31.1,9.4-34.7c7.7-1.7,14,1,19.4,6.5C512.3,325.9,522.8,352.3,523.4,382.5z"/>
<path class="st2" d="M181.3,625.7c-15.8-11.5-29.6-25.3-42.3-40.1c-36.2-42-60.2-90.1-70-144.7c-16.6-92.6,4-176.4,61.5-250.8
	c24.2-31.3,54-56.4,88.2-76.4c3.1-1.8,5.5-1.9,8.7-0.3c51,26.3,81.9,67.7,92.6,124.1c2.5,12.3,3,24.9,1.6,37.3
	c-3.4,27.6,7.5,49.6,26.6,68.5c2.7,2.7,5.6,5.3,8.2,8.1c11.1,11.7,7,25.6-8.7,29.4c-4.1,0.8-8.1,1.9-12,3.2
	c-7.4,2.7-9.6,8.2-6.5,15.5c0.5,1.2,1.1,2.4,1.7,3.6c3.5,7.9,1.5,13.6-6.4,17.1c-5.6,2.5-11.6,4-17.4,6.2c-2.2,0.8-5.7,1.2-5.9,3.8
	c-0.2,2.2,2.8,3.4,4.8,4.7c4.9,3.1,9.9,6.1,14.8,9.2c6,3.8,8.9,12.3,1.2,17.8c-4.9,3.5-5.7,8.4-3.8,14.2c5.9,18.3-5,34-24.4,35.8
	c-12,1.1-24,0-35.9-0.6c-11-0.6-21.9-1-32.8,1.2c-14.7,2.9-24.9,11.3-31.5,24.5c-6.3,12.3-9,25.7-10.8,39.2
	c-1.7,13-3.4,26.1-2.4,39.3C180.5,618.9,182,622.3,181.3,625.7L181.3,625.7z"/>
</svg>
