<svg xmlns="http://www.w3.org/2000/svg" viewBox="0 0 405.3 220.1"><defs><style>.cls-1,.cls-8{fill:#fff;}.cls-1{stroke:#ff6c78;stroke-width:3px;}.cls-1,.cls-12{stroke-miterlimit:10;}.cls-2{fill:#e48422;}.cls-3{fill:#cc6a0f;}.cls-4{fill:#7c1000;}.cls-5{fill:#ac1b00;}.cls-6{fill:#a53900;}.cls-7{fill:#732a00;}.cls-9{fill:#6b2100;}.cls-10{fill:#8f4000;}.cls-11{fill:#c96c00;}.cls-12{fill:none;stroke:#6b2100;stroke-linecap:round;stroke-width:2px;}.cls-13{fill:#5eb9d7;}.cls-14,.cls-20{fill:#d4d3d8;}.cls-15{fill:#44b6e8;}.cls-16{fill:#a4e3fa;}.cls-17{fill:#a09fa8;}.cls-18{fill:#7a7a7a;}.cls-19{fill:#474747;}.cls-20{opacity:0.3;}.cls-21{fill:#f8000d;}</style></defs><title>Middel 57</title><g id="Laag_2" data-name="Laag 2"><g id="Laag_6" data-name="Laag 6"><rect class="cls-1" x="12.67" y="11.7" width="180.87" height="192.66" rx="26.54" transform="translate(-17.22 19.59) rotate(-10.02)"/><path d="M107.16,41.23a1.21,1.21,0,0,1,1.15-.11l-1.17.1Z"/><path class="cls-2" d="M93.83,113.17l-.61.39c-1.11.72-2.19,1.48-3.21,2.28s-2.07,1.77-3,2.71a49.05,49.05,0,0,0-3.73,4.21c-.57.72-1.17,1.46-1.67,2.21l-.68,1c-.59.85-1.13,1.7-1.68,2.58-.75,1.22-1.46,2.47-2.12,3.72s-1.28,2.53-1.86,3.81c-.28.64-.55,1.28-.8,1.89-.13.32-.26.62-.36.92l-.15.43-.07.19a.17.17,0,0,1,0,.07h0c-2.69,6.07-10.59,9.45-17.65,7.57-6.38-1.7-10-7.2-8.44-12.87.15-.47.32-.95.52-1.42l.08-.17v-.09l.1-.2.19-.37.38-.67c.25-.44.5-.86.75-1.31.49-.84,1-1.66,1.53-2.46q1.58-2.43,3.3-4.74t3.61-4.59q1.9-2.25,4-4.44a76.91,76.91,0,0,1,9.36-8.31,65.81,65.81,0,0,1,5.53-3.71,64.14,64.14,0,0,1,6.16-3.21,12.11,12.11,0,0,1,11.16.53A8.28,8.28,0,0,1,97.24,102C99.49,105.72,98.05,110.47,93.83,113.17Z"/><path class="cls-3" d="M72.55,140.79l.15.87c-4,5.61-12.39,7.73-18.81,4.74-5-2.34-7.51-7.25-6.1-12.16,6.36-4.89,15.91-4.76,21.34.29a11.1,11.1,0,0,1,3.45,6.21Z"/><path class="cls-2" d="M170.65,127.43c-5.17,3.6-12.42,3.77-17.3.41a10.46,10.46,0,0,1-1.82-1.53h0l0-.07-.13-.17-.3-.35c-.2-.24-.41-.49-.64-.74-.45-.5-.92-1-1.4-1.5-1-1-2-2-3-2.94s-2.16-1.87-3.34-2.75-2.08-1.6-3.15-2.35l-.28-.19c-1-.67-2-1.31-3-1.92h0A47.73,47.73,0,0,0,132,111.1c-1.23-.57-2.49-1.07-3.78-1.52a35,35,0,0,0-3.8-1l-.7-.15c-4.86-1.07-7.86-5-7.07-9.3A9.45,9.45,0,0,1,120.91,93a12.5,12.5,0,0,1,7.63-1.91,62.87,62.87,0,0,1,6.9.91q3.3.64,6.47,1.59a77.74,77.74,0,0,1,11.63,4.6c1.82.86,3.57,1.83,5.28,2.81s3.36,2,5,3.06,3.23,2.17,4.71,3.32c.78.59,1.53,1.17,2.3,1.8.38.3.76.62,1.15,1l.59.52.3.26.17.16,0,.09.13.12c4.53,4.81,3.37,12-2.59,16.22Z"/><path class="cls-3" d="M153.14,127l.15.86c5.65,3.91,14.29,3,19.3-2,3.94-3.93,4.57-9.39,1.57-13.52-7.65-2.42-16.57,1-19.94,7.56a11.11,11.11,0,0,0-1.12,7Z"/><path class="cls-3" d="M139.24,115.21c-1-.67-2-1.31-3-1.92l.86,2.55-53.75,9.67-.06-2.77c-.57.72-1.16,1.46-1.67,2.21l-.68,1-.18-8.51c-.15-7.36,3.75-14.59,10.57-19.6a10.38,10.38,0,0,1,3.19,1.32l.38-.23.21-.14.24-.13.27-.16.12-.08.13,0,.54-.3.65-.34.31-.14.65-.32.29-.12.13,0h.16l.5-.22.31-.13.27,0h0l.17,0,.71-.26.3-.06.12,0,.13,0,.22,0,.36-.06.29,0,.11,0,.15,0,.51-.15.47-.08.25-.05.48-.08.68-.12.55-.1,1.23-.22.6-.1.61-.11.39-.07.4-.07.41-.07.29,0,.3-.06.29,0,.3,0h2.55l.13,0,.18,0,.11,0,.35,0,.13,0,.24,0h0l1.28.13h0a2.09,2.09,0,0,1,.35,0l.39.05.12,0,.11,0,.39.08.51.08.72.15.18,0,.22,0,.24.06h0l.11,0A10.56,10.56,0,0,1,120.84,93a30,30,0,0,1,3.92,1.58,23,23,0,0,1,12,13l2.68,7.87Z"/><path class="cls-2" d="M121.08,160.9l-7.27,1.28c-14.38,2.55-27.75-5.08-29.86-17a17.73,17.73,0,0,1-.28-2.82l-.36-16.85-.06-2.77-.1-4.46c0-.61,0-1.19.07-1.83a1.37,1.37,0,0,1,0-.28l0-.08s0-.25,0-.37c0-.32.08-.62.13-.94a.63.63,0,0,1,0-.19.66.66,0,0,1,.06-.31c.09-.52.23-1,.36-1.56,0-.17.1-.33.15-.48h0c0-.16.09-.32.15-.48h0l.17-.49.21-.57a2.05,2.05,0,0,0,.16-.38c0-.13.16-.35.24-.53l.19-.42.2-.39.31-.59.23-.4.26-.45c.28-.45.56-.89.86-1.34l.25-.34.43-.57.23-.3.32-.37c0-.07.13-.16.2-.24l.79-.9.23-.23.56-.56.23-.23.55-.51.58-.49.22-.19.1-.08.26-.21.6-.47.31-.24.62-.44.26-.17.72-.48.37-.24.22-.13.23-.13.28-.16.12-.08.13,0,.54-.3.65-.34.3-.15.66-.31.29-.13.12,0h.09l.08,0,.5-.22.31-.12.27-.05h0l.17,0,.7-.26.31-.06.12,0,.13,0,.22,0,.35-.06.29-.06.11,0,.16,0,.51-.15.47-.08.25,0,.48-.08.87-.16.55-.09,1.23-.22.6-.11.61-.11L108,95l.4-.07.41-.08.29,0,.3,0,.29-.05.31-.06h2.54l.13,0,.18,0,.11,0,.36,0,.12,0h.25l1.27.13h0a2,2,0,0,1,.35,0l.39,0,.13,0,.11,0,.38.07.51.09.72.14.18,0,.23.06.23,0h0l.11,0h0l.66.17.6.16.25.09.47.14.14.06L121,96l.85.31.54.23h0l.48.21.23.12.55.26a24.69,24.69,0,0,1,2.8,1.59c.43.31.87.61,1.29,1a20,20,0,0,1,6.92,9.42l1.42,4.13.86,2.54,5.48,16.08c4,11.52-4.13,24.17-18.11,28.25A31.29,31.29,0,0,1,121.08,160.9Z"/><path class="cls-2" d="M97.85,160.45l-2.93,1.86-.38.24-.4.23-1.12.66-1.29.79-.33.2-.33.22-.69.44c-1.82,1.2-3.72,2.52-5.64,3.91S81,171.8,79,173.29c-1,.74-1.9,1.52-2.84,2.22l-1.34,1.11c-.45.36-.94.77-1.3,1.08-6.37,5.54-16.56,6-22.75.94s-6-13.57.33-19.11a17.75,17.75,0,0,1,2.46-1.78l.69-.41,1.89-1.08,1.83-1,3.65-2q3.67-2,7.47-3.83c2.55-1.27,5.16-2.51,8-3.78l1.06-.45.53-.23.55-.23,2.27-.91,2.5-.9.38-.06.36-.13.74-.22,1.47-.45c6.73-2,13.81.79,15.81,6.33,1.56,4.32-.41,9.18-4.9,12.05Z"/><path class="cls-3" d="M68,181c-8.33,3.05-17.61,0-20.71-6.83a11.8,11.8,0,0,1,1.18-11.61c5.25-3.22,13.26-1.89,18.29,3.17C71.5,170.48,71.91,177,68,181Z"/><path class="cls-2" d="M126.31,155.44l3.39.75.45.09.45.09,1.28.22,1.47.31.39.07.38.1.8.18c2.12.5,4.36,1.08,6.64,1.73s4.5,1.35,6.85,2.07l3.42,1.12,1.7.57c.54.19,1.15.39,1.59.56,7.88,3,17.58-.1,21.67-6.94s1-14.81-6.89-17.81a16.71,16.71,0,0,0-3-.82l-.79-.15-2.14-.36-2.07-.32c-1.37-.22-2.74-.42-4.11-.61-2.75-.39-5.52-.75-8.34-1.06s-5.7-.58-8.76-.76l-1.15-.07-.58,0-.6,0-2.44-.08h-3l-.38.07-.77,0-1.54.09c-7,.39-12.69,5.48-12.68,11.37,0,4.6,3.53,8.48,8.73,9.64Z"/><path class="cls-3" d="M161.42,164.46c8.87,0,16.54-6,17.12-13.51a11.8,11.8,0,0,0-5.09-10.5c-6-1.23-13.11,2.76-16.1,9.24C154.51,155.84,156.36,162.1,161.42,164.46Z"/><path class="cls-2" d="M121.08,160.9l-7.27,1.28c-14.38,2.55-27.75-5.08-29.86-17a17.73,17.73,0,0,1-.28-2.82l-.36-16.85-.06-2.77-.1-4.46c0-.61,0-1.19.07-1.83a1.37,1.37,0,0,1,0-.28l0-.08s0-.25,0-.37c0-.32.08-.62.13-.94a.63.63,0,0,1,0-.19.66.66,0,0,1,.06-.31c.09-.52.23-1,.36-1.56,0-.17.1-.33.15-.48h0c0-.16.09-.32.15-.48h0l.17-.49.21-.57a2.05,2.05,0,0,0,.16-.38c0-.13.16-.35.24-.53l.19-.42.2-.39.31-.59.23-.4.26-.45c.28-.45.56-.89.86-1.34l.25-.34.43-.57.23-.3.32-.37c0-.07.13-.16.2-.24l.79-.9.23-.23.56-.56.23-.23.55-.51.58-.49.22-.19.1-.08.26-.21.6-.47.31-.24.62-.44.26-.17.72-.48.37-.24.22-.13.23-.13.28-.16.12-.08.13,0,.54-.3.65-.34.3-.15.66-.31.29-.13.12,0h.09l.08,0,.5-.22.31-.12.27-.05h0l.17,0,.7-.26.31-.06.12,0,.13,0,.22,0,.35-.06.29-.06.11,0,.16,0,.51-.15.47-.08.25,0,.48-.08.54-.1.33-.06.55-.09,1.23-.22.6-.11.61-.11L108,95l.4-.07.41-.08.29,0,.3,0,.29-.05.31-.06h2.54l.13,0,.18,0,.11,0,.36,0,.12,0h.25l1.27.13h0a2,2,0,0,1,.35,0l.39,0,.13,0,.11,0,.38.07.51.09.72.14.18,0,.23.06.23,0h0l.11,0h0l.66.17.6.16.25.09.47.14.14.06L121,96l.85.31.54.23h0l.48.21.23.12.55.26a24.69,24.69,0,0,1,2.8,1.59c.43.31.87.61,1.29,1a20,20,0,0,1,6.92,9.42l1.42,4.12h0l.86,2.54,5.48,16.08c4,11.52-4.12,24.17-18.09,28.26A31.66,31.66,0,0,1,121.08,160.9Z"/><ellipse class="cls-2" cx="129.03" cy="54.14" rx="13.07" ry="10.35" transform="translate(-0.63 106.74) rotate(-44.85)"/><ellipse class="cls-4" cx="129.49" cy="54.51" rx="7.74" ry="6.12" transform="translate(-0.66 107.43) rotate(-44.96)"/><ellipse class="cls-5" cx="128.91" cy="55.18" rx="7.74" ry="6.12" transform="translate(-1.3 107.22) rotate(-44.96)"/><ellipse class="cls-2" cx="72.69" cy="63.44" rx="10.35" ry="13.07" transform="translate(-15.4 102.8) rotate(-65.19)"/><ellipse class="cls-4" cx="72.14" cy="63.11" rx="6.16" ry="7.55" transform="translate(-11.96 109.1) rotate(-69.85)"/><ellipse class="cls-5" cx="72.92" cy="63.84" rx="6.12" ry="7.74" transform="matrix(0.42, -0.91, 0.91, 0.42, -15.69, 103.08)"/><ellipse class="cls-2" cx="103.06" cy="76.79" rx="36.48" ry="25.69" transform="translate(-11.79 19.1) rotate(-10.02)"/><ellipse class="cls-6" cx="83.45" cy="74.41" rx="3.77" ry="3.06" transform="translate(-11.67 15.65) rotate(-10.02)"/><ellipse class="cls-7" cx="83.58" cy="75.15" rx="3.77" ry="3.06" transform="translate(-11.8 15.69) rotate(-10.02)"/><ellipse class="cls-8" cx="82.78" cy="74.09" rx="1.47" ry="1.29" transform="translate(-11.63 15.53) rotate(-10.02)"/><ellipse class="cls-6" cx="120.67" cy="68.52" rx="3.85" ry="3.13" transform="translate(-10.08 22.04) rotate(-10.02)"/><ellipse class="cls-7" cx="120.8" cy="69.27" rx="3.85" ry="3.13" transform="translate(-10.21 22.07) rotate(-10.02)"/><ellipse class="cls-8" cx="119.99" cy="68.19" rx="1.51" ry="1.33" transform="translate(-10.03 21.91) rotate(-10.02)"/><ellipse class="cls-9" cx="101.87" cy="80.09" rx="8.46" ry="5.53" transform="translate(-12.38 18.94) rotate(-10.02)"/><ellipse class="cls-10" cx="100.85" cy="79.34" rx="7.02" ry="4.31" transform="translate(-12.26 18.76) rotate(-10.02)"/><ellipse class="cls-11" cx="99.01" cy="77.7" rx="3.58" ry="2.2" transform="translate(-12.01 18.41) rotate(-10.02)"/><path class="cls-12" d="M103.17,85.31s3,7.56-2,7.74-10.48-.51-12.44-3.71"/><path class="cls-12" d="M87.23,90.66a4,4,0,0,1,3.07-2.25"/><path class="cls-12" d="M103.17,85.31s.84,7.4,5.42,6.48,9.68-4,10.41-7.75"/><path class="cls-12" d="M120.92,84.74a4,4,0,0,0-3.65-1"/><rect class="cls-1" x="146.88" y="14.39" width="181.12" height="191.32" rx="26.54" transform="translate(31.7 -51.7) rotate(13.31)"/><rect class="cls-13" x="214.4" y="180.57" width="3.7" height="25.24" transform="translate(-21.52 359.17) rotate(-76.69)"/><polygon class="cls-14" points="249.32 82.41 249.92 80.02 241.22 77.96 240.48 81.06 232.86 81.06 215.24 155.53 236.87 160.86 255.66 85.84 249.32 82.41"/><polygon class="cls-15" points="223.81 119.32 233.37 81.13 240.5 80.99 241.26 77.97 248.44 79.67 247.54 83.46 252.89 86.66 243.99 124.28 223.81 119.32"/><polygon class="cls-16" points="225.04 194.63 207.04 190.21 221.95 130.48 239.95 134.91 225.04 194.63"/><rect class="cls-13" x="222.36" y="138.03" width="3.7" height="43.05" transform="translate(17.33 341.02) rotate(-76.69)"/><path class="cls-17" d="M246.76,67.43l6.08-25.69,2.39-3.36.49,4.07-6.07,25.68C248.43,69.78,246.47,69.29,246.76,67.43Z"/><polygon class="cls-18" points="243.52 68.79 248.72 66.08 252.04 70.89 249.48 81.18 240.95 79.08 243.52 68.79"/><polygon class="cls-19" points="244.53 128.21 222.96 122.92 223.81 119.51 245.4 124.8 244.53 128.21"/><polygon class="cls-19" points="242.54 136.62 220.97 131.33 221.82 127.92 243.41 133.21 242.54 136.62"/><polygon class="cls-18" points="240.79 131.13 223.54 126.9 224.41 123.45 241.66 127.69 240.79 131.13"/><rect class="cls-18" x="244.79" y="73.65" width="1.23" height="11.88" transform="translate(111.47 300.09) rotate(-76.69)"/><polygon class="cls-20" points="236.46 160.55 213.84 155 222.78 119.26 245.39 124.82 236.46 160.55"/><path class="cls-21" d="M390.3,185.83a15,15,0,0,1-10.61-4.4L296.77,98.51A15,15,0,0,1,318,77.29l82.93,82.93a15,15,0,0,1-10.61,25.61Z"/><path class="cls-21" d="M307.38,185.83a15,15,0,0,1-10.61-25.61l82.92-82.93a15,15,0,1,1,21.22,21.22L318,181.43A15,15,0,0,1,307.38,185.83Z"/></g></g></svg>