<svg xmlns="http://www.w3.org/2000/svg" xmlns:xlink="http://www.w3.org/1999/xlink" id="Laag_1" x="0" y="0" version="1.1" viewBox="0 0 60.3 94.9" xml:space="preserve" style="enable-background:new 0 0 60.3 94.9"><style type="text/css">.st0{fill:#7ee3ed}</style><path d="M20.4,52.5l0.1-1c0-3.6,1-6.5,3.1-8.6c1.8-2,4.2-3.4,6.8-4.2c2.4-0.7,4.7-1.8,6.7-3.4c2-1.5,3.2-4,3.1-6.5	c0.1-2.4-0.7-4.7-2.3-6.4c-1.6-1.5-3.9-2.3-7-2.3s-5.4,0.5-6.9,1.5c-1.2,0.7-2.2,1.7-2.7,3l-0.4,1.5c-0.6,1.8-1.5,3.5-2.7,5	c-1,1.1-2.4,1.7-3.9,1.7c-2.2-0.1-4.3-0.6-6.3-1.5c-5.1-2-7.6-4.4-7.6-7.3c0-1.3,0.3-2.6,0.8-3.8l1.3-3.3c0.8-1.6,1.7-3.2,2.7-4.6	c1.4-2.1,3.1-4.1,5-5.7c2.4-1.9,5.1-3.5,8-4.5C21.9,0.7,25.8,0,29.8,0C38.7,0,46,2.9,51.6,8.6C57,13.8,60.1,21,60,28.5	c0,3.4-0.7,6.8-2,10c-1.1,2.7-2.7,5.2-4.7,7.3c-3.7,3.5-7.1,5.9-10.3,7.1l-2,0.6c0,1.1,0,2.2-0.2,3.3c-0.2,0.9-0.6,1.7-1.1,2.5	c-0.8,1-1.9,1.6-3.2,1.9c-1.9,0.4-3.9,0.6-5.9,0.6c-2,0.1-4-0.1-5.9-0.6c-1.3-0.3-2.4-1-3.1-2.2c-0.5-0.8-0.9-1.7-1.1-2.7	C20.4,55,20.4,53.7,20.4,52.5z M19.9,75c0.8-1.4,2.1-2.4,3.6-2.8c2.7-0.7,5.4-1,8.1-0.9c3.7,0,6.4,0.8,8,2.4	c1.6,1.7,2.4,4.8,2.4,9.5c0,3.3-0.4,5.8-1.3,7.5c-0.8,1.6-2.2,2.8-3.8,3.3c-2.6,0.6-5.3,0.9-8,0.8c-3.6,0-6.4-0.9-8.3-2.7	c-1.4-1.4-2.1-3.9-2.1-7.3v-2c0-1.5,0-2.9,0.2-4.4C18.9,77.3,19.3,76.1,19.9,75L19.9,75z" class="st0"/></svg>