<svg id="Laag_1" data-name="Laag 1" xmlns="http://www.w3.org/2000/svg" viewBox="0 0 1000 1000"><defs><style>.cls-1{fill:#b3b3b3;}.cls-2{fill:#999;}.cls-3{fill:#f0f6e8;}.cls-4{fill:#deeefc;}.cls-5{fill:#d5e5cb;}.cls-6{fill:#fff;}.cls-7{fill:#d1d1d1;}</style></defs><title>INFUUS</title><path class="cls-1" d="M783.3,992.53A21.29,21.29,0,0,1,762,971.27V69.59H565.13C543.94,79.4,453.54,118.94,374,118.94c-90.51,0-166.11-50.89-169.28-53.06a21.26,21.26,0,0,1,24-35.12c.64.44,68.51,45.65,145.3,45.65,78.82,0,176.09-46.74,177.07-47.21a21.41,21.41,0,0,1,9.3-2.14H783.3a21.29,21.29,0,0,1,21.26,21.26v923A21.29,21.29,0,0,1,783.3,992.53Z"/><rect class="cls-2" x="391.06" y="676.11" width="19.13" height="298.11"/><rect class="cls-3" x="395.85" y="676.11" width="9.56" height="298.11"/><path class="cls-4" d="M400.63,423.35c27.5-7.22,75.52-42.84,126-42.84a218.11,218.11,0,0,1,27.83,1.8V203.9c0-38.86-68.87-70.36-153.82-70.36h0c-85,0-153.83,31.5-153.83,70.36V427.37a176.55,176.55,0,0,1,44-5.42C326.73,422,373.13,430.57,400.63,423.35Z"/><path class="cls-4" d="M400.63,169.65h0c11.54,0,20.89-7.17,20.89-16V72.23c0-8.84-9.35-16-20.89-16h0c-11.54,0-20.9,7.17-20.9,16v81.4C379.73,162.48,389.09,169.65,400.63,169.65Z"/><path class="cls-5" d="M526.62,379.51c-50.47,0-98.49,35.62-126,42.84s-73.9-1.4-109.84-1.4a176.55,176.55,0,0,0-44,5.42V560.53c0,27.41,34.28,51.16,84.3,62.77,18.06,4.19,30.21,15.72,30.21,28.7v37c0,6.92,78.64,6.92,78.64,0V652c0-13,12.15-24.51,30.21-28.7,50-11.61,84.29-35.36,84.29-62.77V381.31A218.11,218.11,0,0,0,526.62,379.51Z"/><path class="cls-2" d="M447.81,660.81H353.45c-5.29,0-9.58-4-9.58-9h0c0-5,4.29-9,9.58-9h94.36c5.29,0,9.58,4,9.58,9h0C457.39,656.78,453.1,660.81,447.81,660.81Z"/><path class="cls-4" d="M440.82,780.08V904c0,13.45-18,24.35-40.21,24.35s-40.17-10.9-40.17-24.35V780.08c0-13.46,18-24.4,40.17-24.4S440.82,766.62,440.82,780.08Z"/><path class="cls-5" d="M440.82,864.62v39.2c0,13.5-18,24.4-40.21,24.4s-40.17-10.9-40.17-24.4v-39.2Z"/><path class="cls-2" d="M421.61,762.6h-42c-2.35,0-4.26-3.09-4.26-6.9h0c0-3.82,1.91-6.91,4.26-6.91h42c2.36,0,4.26,3.09,4.26,6.91h0C425.87,759.51,424,762.6,421.61,762.6Z"/><path class="cls-6" d="M400.63,358.91h0c60.66,0,109.83-9.55,109.83-21.33V229.16c0-11.78-49.17-21.33-109.83-21.33h0c-60.66,0-109.84,9.55-109.84,21.33V337.58C290.79,349.36,340,358.91,400.63,358.91Z"/><path class="cls-7" d="M487,261.37H314.26a7.73,7.73,0,1,1,0-15.46H487a7.73,7.73,0,1,1,0,15.46Z"/><path class="cls-7" d="M487,298.39H314.26a7.73,7.73,0,1,1,0-15.46H487a7.73,7.73,0,1,1,0,15.46Z"/><path class="cls-7" d="M382.61,331.7H314.26a7.73,7.73,0,1,1,0-15.46h68.35a7.73,7.73,0,1,1,0,15.46Z"/></svg>