<svg xmlns="http://www.w3.org/2000/svg" xmlns:xlink="http://www.w3.org/1999/xlink" x="0" y="0" enable-background="new 0 0 356.4 356.4" version="1.1" viewBox="0 0 356.4 356.4" xml:space="preserve"><style type="text/css">.st0{display:none}.st1{display:inline}.st2{fill:#010101}.st3{fill:#e68522}.st4{fill:#cd6b14}.st5{fill:#7a190f}.st6{fill:#ad2316}.st7{fill:#a63c16}.st8{fill:#712f0e}.st9{fill:#fff}.st10{fill:#68280c}.st11{fill:#914314}.st12{fill:#c86f13}.st13{fill:none;stroke:#68280c;stroke-width:2;stroke-linecap:round;stroke-miterlimit:10}.st14{fill:#7ee3ed}.st15{fill:#e28e63}.st16{fill:#ce131e}.st17{fill:#d9d9d9}.st18{fill:#e30613}.st19{fill:#1e1e1c}.st20{fill:#90512b}.st21{fill:#82c17b}.st22{fill:#f50000}</style><g id="Laag_2" class="st0"><g class="st1"><path d="M278,32.9c0.3-0.1,0.6-0.1,0.8,0.1L278,32.9L278,32.9z" class="st2"/><path d="M260.8,88.4l-0.4,0.2c-0.8,0.4-1.6,0.8-2.4,1.3c-0.8,0.5-1.6,1.1-2.3,1.7c-1,0.9-2,1.8-2.9,2.8 c-0.5,0.5-0.9,1-1.4,1.5l-0.6,0.7c-0.5,0.6-0.9,1.2-1.4,1.8c-0.6,0.9-1.3,1.8-1.8,2.7c-0.6,0.9-1.1,1.8-1.7,2.8 c-0.3,0.5-0.5,0.9-0.7,1.4c-0.1,0.2-0.2,0.5-0.4,0.7l-0.1,0.3l-0.1,0.1v0.1l0,0c-2.4,4.5-7.9,6.3-12.5,3.9 c-4.3-2.2-6.1-7.3-4.3-11.8c0.2-0.4,0.3-0.7,0.5-1.1l0.1-0.1v-0.1l0.1-0.1l0.2-0.3l0.3-0.5c0.2-0.3,0.4-0.6,0.6-0.9 c0.4-0.6,0.9-1.2,1.3-1.7c0.9-1.1,1.8-2.2,2.7-3.3c0.9-1.1,1.9-2.1,2.9-3.1s2.1-2,3.2-3c2.2-2,4.6-3.7,7.2-5.3 c1.3-0.8,2.7-1.5,4.1-2.2c1.4-0.6,2.9-1.2,4.4-1.6c2.6-0.8,5.5,0,7.3,2c0.7,0.8,1.2,1.7,1.5,2.7C265.4,83.2,263.9,86.8,260.8,88.4 z" class="st3"/><path d="M243.4,107.4v0.7c-3.3,3.9-9.1,4.4-13,1.1c-3.1-2.6-4.1-6.8-2.6-10.5c4.8-3,11.1-1.5,14.1,3.3 C242.9,103.6,243.5,105.5,243.4,107.4L243.4,107.4z" class="st4"/><path d="M310,110.5c-3.8,2.1-8.7,1.3-11.5-2.1c-0.4-0.5-0.7-0.9-1-1.5l0,0v-0.1l-0.1-0.1l-0.2-0.3 c-0.1-0.2-0.2-0.5-0.3-0.7c-0.2-0.5-0.5-0.9-0.7-1.4c-0.5-0.9-1.1-1.9-1.7-2.8c-0.6-0.9-1.2-1.8-1.9-2.7c-0.7-0.9-1.2-1.6-1.8-2.3 c-0.1-0.1-0.1-0.1-0.2-0.2c-0.6-0.7-1.2-1.3-1.8-2l0,0c-0.8-0.8-1.7-1.6-2.6-2.4c-0.7-0.6-1.5-1.2-2.3-1.7c-0.8-0.5-1.6-1-2.4-1.4 l-0.4-0.2c-3.5-1.7-4.9-6-3.2-9.5c1.5-3.1,5.1-4.6,8.4-3.6c1.5,0.5,3,1,4.5,1.7c1.4,0.7,2.8,1.4,4.1,2.2c2.5,1.6,4.9,3.3,7.2,5.3 c1.1,0.9,2.2,2,3.2,3c1,1,2,2.1,2.9,3.1c0.9,1.1,1.9,2.2,2.7,3.3c0.4,0.6,0.9,1.1,1.3,1.7c0.2,0.3,0.4,0.6,0.7,0.9l0.3,0.5 l0.2,0.2l0.1,0.2V98l0.1,0.1C316,102.5,314.4,108.1,310,110.5L310,110.5z" class="st3"/><path d="M298.4,107.7v0.7c3.3,3.9,9.1,4.4,13,1.1c3.1-2.6,4.1-6.8,2.6-10.5c-4.8-3-11.1-1.5-14.1,3.3 C299,103.9,298.4,105.8,298.4,107.7L298.4,107.7z" class="st4"/><path d="M290.6,96.4c-0.6-0.7-1.2-1.3-1.8-1.9l0.3,2.1l-36.7,0.1l0.3-2.2c-0.5,0.5-0.9,1-1.4,1.5l-0.6,0.7l0.9-6.8 c0.8-5.9,4.2-11.1,9.3-14.1c0.7,0.4,1.4,0.9,2,1.5l0.3-0.1l0.2-0.1l0.2-0.1l0.2-0.1l0.1-0.1h0.1l0.4-0.1l0.5-0.2l0.2-0.1l0.5-0.2 l0.2-0.1h0.2l0.4-0.1l0.2-0.1h0.3l0.5-0.1h1.1l0.4-0.1h5l0.4,0.1l0.4,0.1l0.4,0.1l0.3,0.1l0.2,0.1h0.3l0.2,0.1h0.1l0.2,0l0,0 l0.8,0.3l0,0c0.1,0,0.2,0,0.2,0.1l0.3,0.1h0.2l0.2,0.1l0.3,0.1l0.5,0.2l0.1,0.1l0.1,0.1l0.2,0.1h0.1c0.6-0.6,1.2-1.1,2-1.5 c0.8,0.5,1.7,1.1,2.4,1.8c3.5,3.1,5.8,7.4,6.4,12l0.9,6.6C290.7,96.5,290.6,96.4,290.6,96.4z" class="st4"/><path d="M273.2,130.2h-5c-9.8,0-17.8-8-17.8-17.8v0c0-0.8,0-1.5,0.1-2.3l1.7-13.5l0.3-2.2l0.5-3.6 c0.1-0.5,0.1-0.9,0.3-1.5c0-0.1,0-0.2,0-0.2v0c0-0.1,0-0.2,0.1-0.3c0.1-0.2,0.1-0.5,0.2-0.7c0-0.1,0-0.1,0-0.2 c0-0.1,0-0.2,0.1-0.2c0.1-0.4,0.3-0.8,0.4-1.2c0-0.1,0.1-0.2,0.2-0.4l0,0c0.1-0.1,0.1-0.2,0.2-0.4l0,0l0.2-0.4l0.2-0.4 c0.1-0.1,0.1-0.2,0.2-0.3s0.1-0.3,0.2-0.4l0.2-0.3l0.2-0.3l0.3-0.4l0.2-0.3l0.2-0.3c0.2-0.3,0.5-0.6,0.7-0.9 c0.1-0.1,0.1-0.2,0.2-0.2l0.3-0.4l0.2-0.2l0.3-0.3c0-0.1,0.1-0.1,0.2-0.2l0.6-0.6l0.2-0.2l0.4-0.4l0.2-0.1l0.4-0.3l0.4-0.3 l0.2-0.1l0.1,0l0.2-0.1l0.5-0.3l0.2-0.1l0.5-0.3l0.2-0.1l0.5-0.3l0.3-0.1l0.2-0.1l0.2-0.1l0.2-0.1l0.1-0.1h0.1l0.4-0.2l0.5-0.2 l0.2-0.1l0.5-0.2l0.2-0.1h0.2l0.4-0.1l0.2-0.1h0.3l0.5-0.1h1.1l0.4-0.1h5.1L274,76l0.4,0.1l0.4,0.1l0.3,0.1l0.2,0.1h0.3l0.2,0.1 h0.1l0.2,0l0,0l0.8,0.3l0,0c0.1,0,0.2,0,0.2,0.1l0.3,0.1h0.2l0.2,0.1l0.3,0.1l0.5,0.2l0.1,0.1l0.1,0.1l0.2,0.1h0.1l0.4,0.2 l0.4,0.2l0.2,0.1l0.3,0.2l0.1,0.1l0.3,0.2l0.5,0.4l0.3,0.3l0,0l0.3,0.2l0.1,0.1l0.3,0.3c0.6,0.5,1.1,1.1,1.6,1.7 c0.3,0.3,0.5,0.6,0.7,0.9c1.9,2.5,3.1,5.4,3.5,8.5l0.5,3.5l0.3,2.1l1.8,13.6c1.3,9.7-5.6,18.7-15.3,20c0,0,0,0,0,0 C274.7,130.1,274,130.2,273.2,130.2z" class="st3"/><path d="M257.9,126.6l-2.2,1.1l-0.3,0.1l-0.3,0.1l-0.8,0.4l-0.9,0.4l-0.2,0.1l-0.2,0.1l-0.5,0.2 c-1.4,0.7-2.8,1.5-4.2,2.3c-1.4,0.9-2.8,1.7-4.3,2.6c-0.7,0.5-1.5,0.9-2.1,1.4l-1,0.7c-0.3,0.2-0.7,0.5-1,0.7 c-4.8,3.6-11.6,2.6-15.2-2.2s-2.6-11.6,2.2-15.2c0.1-0.1,0.2-0.2,0.3-0.3c0.6-0.4,1.2-0.8,1.8-1.1l0.5-0.2l1.4-0.6l1.3-0.5 l2.7-1.1c1.8-0.7,3.6-1.4,5.4-2c1.8-0.6,3.7-1.3,5.7-1.9l0.7-0.2l0.4-0.1l0.4-0.1l1.6-0.4l1.8-0.4h0.2l0.3,0l0.5-0.1l1-0.2 c4.7-0.7,9,2.6,9.7,7.3C263.1,121.4,261.2,124.9,257.9,126.6L257.9,126.6z" class="st3"/><path d="M235.7,138.7c-5.9,1.3-11.7-2.5-12.9-8.3c-0.7-3.2,0.1-6.5,2.1-9.1c3.8-1.8,9,0.4,11.7,5.1 C239.3,130.9,238.8,136.1,235.7,138.7z" class="st4"/><path d="M277.3,126.6l2.2,1.1l0.3,0.1l0.3,0.1l0.8,0.4l0.9,0.5l0.2,0.1l0.2,0.1l0.5,0.3c1.3,0.7,2.8,1.5,4.2,2.3 s2.8,1.7,4.3,2.6l2.1,1.4l1.1,0.7c0.3,0.2,0.7,0.5,1,0.7c5,3.2,11.8,1.8,15-3.3c3-4.7,2-10.9-2.4-14.4c-0.6-0.4-1.2-0.8-1.9-1.1 l-0.5-0.2l-1.4-0.6l-1.3-0.5c-0.9-0.4-1.8-0.7-2.7-1.1c-1.8-0.7-3.6-1.4-5.4-2c-1.8-0.6-3.7-1.3-5.7-1.8l-0.7-0.2l-0.4-0.1 l-0.4-0.1l-1.6-0.4l-1.8-0.4l-0.3,0h-0.2l-0.5-0.1l-1-0.1c-4.7-0.7-9,2.6-9.7,7.3C272.1,121.4,274,125,277.3,126.6L277.3,126.6z" class="st3"/><path d="M299.5,138.7c5.9,1.3,11.7-2.5,12.9-8.4c0.7-3.2-0.1-6.5-2.1-9.1c-3.8-1.8-9,0.4-11.7,5.1 C296,130.9,296.5,136.1,299.5,138.7z" class="st4"/><path d="M273.2,130.2h-5c-9.8,0-17.8-8-17.8-17.8v0c0-0.8,0-1.5,0.1-2.3l1.7-13.5l0.3-2.2l0.5-3.6 c0.1-0.5,0.1-0.9,0.3-1.5c0-0.1,0-0.2,0-0.2v0c0-0.1,0-0.2,0.1-0.3c0.1-0.2,0.1-0.5,0.2-0.7c0-0.1,0-0.1,0-0.2 c0-0.1,0-0.2,0.1-0.2c0.1-0.4,0.3-0.8,0.4-1.2c0-0.1,0.1-0.2,0.2-0.4l0,0c0.1-0.1,0.1-0.2,0.2-0.4l0,0l0.2-0.4l0.2-0.4 c0.1-0.1,0.1-0.2,0.2-0.3s0.1-0.3,0.2-0.4l0.2-0.3l0.2-0.3l0.3-0.4l0.2-0.3l0.2-0.3c0.2-0.3,0.5-0.6,0.7-0.9 c0.1-0.1,0.1-0.2,0.2-0.2l0.3-0.4l0.2-0.2l0.3-0.3c0-0.1,0.1-0.1,0.2-0.2l0.6-0.6l0.2-0.2l0.4-0.4l0.2-0.1l0.4-0.3l0.4-0.3 l0.2-0.1l0.1,0l0.2-0.1l0.5-0.3l0.2-0.1l0.5-0.3l0.2-0.1l0.5-0.3l0.3-0.1l0.2-0.1l0.2-0.1l0.2-0.1l0.1-0.1h0.1l0.4-0.2l0.5-0.2 l0.2-0.1l0.5-0.2l0.2-0.1h0.2l0.4-0.1l0.2-0.1h0.3l0.5-0.1h1.1l0.4-0.1h5.1L274,76l0.4,0.1l0.4,0.1l0.3,0.1l0.2,0.1h0.3l0.2,0.1 h0.1l0.2,0l0,0l0.8,0.3l0,0c0.1,0,0.2,0,0.2,0.1l0.3,0.1h0.2l0.2,0.1l0.3,0.1l0.5,0.2l0.1,0.1l0.1,0.1l0.2,0.1h0.1l0.4,0.2 l0.4,0.2l0.2,0.1l0.3,0.2l0.1,0.1l0.3,0.2l0.5,0.4l0.3,0.3l0,0l0.3,0.2l0.1,0.1l0.3,0.3c0.6,0.5,1.1,1.1,1.6,1.7 c0.3,0.3,0.5,0.6,0.7,0.9c1.9,2.5,3.1,5.4,3.5,8.5l0.5,3.5l0,0l0.3,2.1l1.8,13.6c1.3,9.7-5.6,18.7-15.3,20c0,0,0,0,0,0 C274.7,130.2,274,130.2,273.2,130.2z" class="st3"/><ellipse cx="291" cy="46.3" class="st3" rx="9.7" ry="7.6" transform="matrix(0.5301 -0.848 0.848 0.5301 97.4996 268.5011)"/><ellipse cx="291.2" cy="46.7" class="st5" rx="5.7" ry="4.5" transform="matrix(0.5301 -0.848 0.848 0.5301 97.3106 268.8893)"/><ellipse cx="290.8" cy="47.1" class="st6" rx="5.7" ry="4.5" transform="matrix(0.5301 -0.848 0.848 0.5301 96.7153 268.7141)"/><ellipse cx="252.6" cy="45.8" class="st3" rx="7.6" ry="9.7" transform="matrix(0.848 -0.5301 0.5301 0.848 14.143 140.8469)"/><ellipse cx="252.3" cy="45.4" class="st5" rx="4.6" ry="5.5" transform="matrix(0.848 -0.5301 0.5301 0.848 14.2781 140.6225)"/><ellipse cx="252.7" cy="46.1" class="st6" rx="4.5" ry="5.7" transform="matrix(0.848 -0.5301 0.5301 0.848 13.9776 140.9616)"/><ellipse cx="271.1" cy="60.7" class="st3" rx="24.5" ry="20.8"/><ellipse cx="258.4" cy="56" class="st7" rx="2.5" ry="2.5"/><ellipse cx="258.4" cy="56.6" class="st8" rx="2.5" ry="2.5"/><ellipse cx="258" cy="55.7" class="st9" rx="1" ry="1"/><ellipse cx="283.8" cy="56.6" class="st7" rx="2.6" ry="2.5"/><ellipse cx="283.8" cy="57.2" class="st8" rx="2.6" ry="2.5"/><ellipse cx="283.4" cy="56.2" class="st9" rx="1" ry="1.1"/><ellipse cx="270" cy="63.1" class="st10" rx="5.7" ry="4.5"/><ellipse cx="269.4" cy="62.4" class="st11" rx="4.7" ry="3.5"/><ellipse cx="268.4" cy="60.8" class="st12" rx="2.4" ry="1.8"/><path d="M270.2,67.5c0,0,1.1,6.4-2.2,5.9c-3.3-0.6-6.9-1.9-7.8-4.7" class="st13"/><path d="M259,69.5c0.5-0.8,1.3-1.4,2.3-1.4" class="st13"/><path d="M270.2,67.5c0,0-0.3,6,2.8,5.9s6.9-1.8,7.8-4.7" class="st13"/><path d="M282,69.5c-0.5-0.8-1.3-1.4-2.3-1.3" class="st13"/></g><g class="st1"><path d="M97.9,214.5c0.3-0.1,0.6-0.1,0.8,0.1L97.9,214.5L97.9,214.5z" class="st2"/><path d="M80.7,270l-0.4,0.2c-0.8,0.4-1.6,0.8-2.4,1.3c-0.8,0.5-1.6,1.1-2.3,1.7c-1,0.9-2,1.8-2.9,2.8 c-0.5,0.5-0.9,1-1.4,1.5l-0.6,0.7c-0.5,0.6-0.9,1.2-1.4,1.8c-0.6,0.9-1.3,1.8-1.8,2.7c-0.6,0.9-1.1,1.8-1.7,2.8 c-0.3,0.5-0.5,0.9-0.7,1.4c-0.1,0.2-0.2,0.5-0.4,0.7l-0.1,0.3l-0.1,0.1v0.1l0,0c-2.4,4.5-7.9,6.3-12.5,3.9 c-4.3-2.2-6.1-7.3-4.3-11.8c0.2-0.4,0.3-0.7,0.5-1.1l0.1-0.1V279l0.1-0.1l0.2-0.3l0.3-0.5c0.2-0.3,0.4-0.6,0.6-0.9 c0.4-0.6,0.9-1.2,1.3-1.7c0.9-1.1,1.8-2.2,2.7-3.3c0.9-1.1,1.9-2.1,2.9-3.1c1-1,2.1-2,3.2-3c2.2-2,4.6-3.7,7.2-5.3 c1.3-0.8,2.7-1.5,4.1-2.2c1.4-0.6,2.9-1.2,4.4-1.6c2.6-0.8,5.5,0,7.3,2c0.7,0.8,1.2,1.7,1.5,2.7C85.3,264.8,83.8,268.4,80.7,270z" class="st3"/><path d="M63.4,289v0.7c-3.3,3.9-9.1,4.4-13,1.1c-3.1-2.6-4.1-6.8-2.6-10.5c4.8-3,11.1-1.5,14.1,3.3 C62.9,285.2,63.4,287.1,63.4,289L63.4,289z" class="st4"/><path d="M129.9,292.1c-3.8,2.1-8.7,1.3-11.5-2.1c-0.4-0.5-0.7-0.9-1-1.5l0,0v-0.1l-0.1-0.1l-0.2-0.3 c-0.1-0.2-0.2-0.5-0.3-0.7c-0.2-0.5-0.5-0.9-0.7-1.4c-0.5-0.9-1.1-1.9-1.7-2.8s-1.2-1.8-1.9-2.7c-0.7-0.9-1.2-1.6-1.8-2.3 c-0.1-0.1-0.1-0.1-0.2-0.2c-0.6-0.7-1.2-1.3-1.8-2l0,0c-0.8-0.8-1.7-1.6-2.6-2.4c-0.7-0.6-1.5-1.2-2.3-1.7c-0.8-0.5-1.6-1-2.4-1.4 l-0.4-0.2c-3.5-1.7-4.9-6-3.2-9.5c1.5-3.1,5.1-4.6,8.4-3.6c1.5,0.5,3,1,4.5,1.7c1.4,0.7,2.8,1.4,4.1,2.2c2.5,1.6,4.9,3.3,7.2,5.3 c1.1,0.9,2.2,2,3.2,3c1,1,2,2.1,2.9,3.1c0.9,1.1,1.9,2.2,2.7,3.3c0.4,0.6,0.9,1.1,1.3,1.7c0.2,0.3,0.4,0.6,0.7,0.9l0.3,0.5 l0.2,0.2l0.1,0.2v0.1l0.1,0.1C135.9,284.2,134.3,289.7,129.9,292.1L129.9,292.1z" class="st3"/><path d="M118.4,289.3v0.7c3.3,3.9,9.1,4.4,13,1.1c3.1-2.6,4.1-6.8,2.6-10.5c-4.8-3-11.1-1.5-14.1,3.3 C118.9,285.5,118.4,287.4,118.4,289.3L118.4,289.3z" class="st4"/><path d="M110.5,278c-0.6-0.7-1.2-1.3-1.8-1.9l0.3,2.1l-36.7,0.1l0.3-2.2c-0.5,0.5-0.9,1-1.4,1.5l-0.6,0.7l0.9-6.8 c0.8-5.9,4.2-11.1,9.3-14.1c0.7,0.4,1.4,0.9,2,1.5l0.3-0.1l0.2-0.1l0.2-0.1l0.2-0.1l0.1-0.1h0.1l0.4-0.1l0.5-0.2l0.2-0.1l0.5-0.2 l0.2-0.1h0.2l0.4-0.1l0.2-0.1h0.3l0.5-0.1h1.1l0.4-0.1h5l0.4,0.1l0.4,0.1l0.4,0.1l0.3,0.1l0.2,0.1h0.3l0.2,0.1h0.1l0.2,0l0,0 l0.8,0.3l0,0c0.1,0,0.2,0,0.2,0.1l0.3,0.1h0.2l0.2,0.1l0.3,0.1l0.5,0.2l0.1,0.1l0.1,0.1l0.2,0.1H99c0.6-0.6,1.2-1.1,2-1.5 c0.8,0.5,1.7,1.1,2.4,1.8c3.5,3.1,5.8,7.4,6.4,12l0.9,6.6C110.6,278.1,110.6,278.1,110.5,278z" class="st4"/><path d="M93.2,311.8h-5c-9.8,0-17.8-8-17.8-17.8l0,0c0-0.8,0-1.5,0.1-2.3l1.7-13.5l0.3-2.2l0.5-3.6 c0.1-0.5,0.1-0.9,0.3-1.5c0-0.1,0-0.2,0-0.2v0c0-0.1,0-0.2,0.1-0.3c0.1-0.2,0.1-0.5,0.2-0.7c0-0.1,0-0.1,0-0.2 c0-0.1,0-0.2,0.1-0.2c0.1-0.4,0.3-0.8,0.4-1.2c0-0.1,0.1-0.2,0.2-0.4l0,0c0.1-0.1,0.1-0.2,0.2-0.4l0,0l0.2-0.4l0.2-0.4 c0.1-0.1,0.1-0.2,0.2-0.3c0.1-0.1,0.1-0.3,0.2-0.4l0.2-0.3l0.2-0.3l0.3-0.4l0.2-0.3l0.2-0.3c0.2-0.3,0.5-0.6,0.7-0.9 c0.1-0.1,0.1-0.2,0.2-0.2l0.3-0.4l0.2-0.2l0.3-0.3c0-0.1,0.1-0.1,0.2-0.2l0.6-0.6l0.2-0.2l0.4-0.4l0.2-0.1l0.4-0.3l0.4-0.3 l0.2-0.1l0.1,0l0.2-0.1l0.5-0.3l0.2-0.1l0.5-0.3l0.2-0.1l0.5-0.3l0.3-0.1l0.2-0.1l0.2-0.1l0.2-0.1l0.1-0.1h0.1l0.4-0.2l0.5-0.2 l0.2-0.1l0.5-0.2l0.2-0.1h0.2l0.4-0.1l0.2-0.1h0.3l0.5-0.1h1.1l0.4-0.1h5.1l0.4,0.1l0.4,0.1l0.4,0.1l0.3,0.1l0.2,0.1h0.3l0.2,0.1 h0.1l0.2,0l0,0l0.8,0.3l0,0c0.1,0,0.2,0,0.2,0.1l0.3,0.1h0.2l0.2,0.1l0.3,0.1l0.5,0.2l0.1,0.1l0.1,0.1l0.2,0.1H99l0.4,0.2l0.4,0.2 l0.2,0.1l0.3,0.2l0.1,0.1l0.3,0.2l0.5,0.4l0.3,0.3l0,0l0.3,0.2l0.1,0.1l0.3,0.3c0.6,0.5,1.1,1.1,1.6,1.7c0.3,0.3,0.5,0.6,0.7,0.9 c1.9,2.5,3.1,5.4,3.5,8.5l0.5,3.5l0.3,2.1l1.8,13.6c1.3,9.7-5.6,18.7-15.3,20c0,0,0,0,0,0C94.6,311.8,93.9,311.8,93.2,311.8z" class="st3"/><path d="M77.8,308.2l-2.2,1.1l-0.3,0.1l-0.3,0.1l-0.8,0.4l-0.9,0.4l-0.2,0.1l-0.2,0.1l-0.5,0.2 c-1.4,0.7-2.8,1.5-4.2,2.3c-1.4,0.9-2.8,1.7-4.3,2.6c-0.7,0.5-1.5,0.9-2.1,1.4l-1,0.7c-0.3,0.2-0.7,0.5-1,0.7 c-4.8,3.6-11.6,2.6-15.2-2.2c-3.6-4.8-2.6-11.6,2.2-15.2c0.1-0.1,0.2-0.2,0.3-0.3c0.6-0.4,1.2-0.8,1.8-1.1l0.5-0.2l1.4-0.6 l1.3-0.5l2.7-1.1c1.8-0.7,3.6-1.4,5.4-2c1.8-0.6,3.7-1.3,5.7-1.9l0.7-0.2l0.4-0.1l0.4-0.1l1.6-0.4l1.8-0.4h0.2l0.3,0l0.5-0.1 l1-0.2c4.7-0.7,9,2.6,9.7,7.3C83,303,81.1,306.5,77.8,308.2L77.8,308.2z" class="st3"/><path d="M55.6,320.3c-5.9,1.3-11.7-2.5-12.9-8.3c-0.7-3.2,0.1-6.5,2.1-9.1c3.8-1.8,9,0.4,11.7,5.1 C59.2,312.5,58.7,317.7,55.6,320.3z" class="st4"/><path d="M97.3,308.2l2.2,1.1l0.3,0.1l0.3,0.1l0.8,0.4l0.9,0.5l0.2,0.1l0.2,0.1l0.5,0.3c1.3,0.7,2.8,1.5,4.2,2.3 s2.8,1.7,4.3,2.6l2.1,1.4l1.1,0.7c0.3,0.2,0.7,0.5,1,0.7c5,3.2,11.8,1.8,15-3.3c3-4.7,2-10.9-2.4-14.4c-0.6-0.4-1.2-0.8-1.9-1.1 l-0.5-0.2l-1.4-0.6l-1.3-0.5c-0.9-0.4-1.8-0.7-2.7-1.1c-1.8-0.7-3.6-1.4-5.4-2c-1.8-0.6-3.7-1.3-5.7-1.8l-0.7-0.2l-0.4-0.1 l-0.4-0.1l-1.6-0.4l-1.8-0.4l-0.3,0h-0.2l-0.5-0.1l-1-0.1c-4.7-0.7-9,2.6-9.7,7.3C92,303,93.9,306.6,97.3,308.2L97.3,308.2z" class="st3"/><path d="M119.5,320.3c5.9,1.3,11.7-2.5,12.9-8.4c0.7-3.2-0.1-6.5-2.1-9.1c-3.8-1.8-9,0.4-11.7,5.1 C115.9,312.5,116.4,317.7,119.5,320.3z" class="st4"/><path d="M93.2,311.8h-5c-9.8,0-17.8-8-17.8-17.8l0,0c0-0.8,0-1.5,0.1-2.3l1.7-13.5l0.3-2.2l0.5-3.6 c0.1-0.5,0.1-0.9,0.3-1.5c0-0.1,0-0.2,0-0.2v0c0-0.1,0-0.2,0.1-0.3c0.1-0.2,0.1-0.5,0.2-0.7c0-0.1,0-0.1,0-0.2 c0-0.1,0-0.2,0.1-0.2c0.1-0.4,0.3-0.8,0.4-1.2c0-0.1,0.1-0.2,0.2-0.4l0,0c0.1-0.1,0.1-0.2,0.2-0.4l0,0l0.2-0.4l0.2-0.4 c0.1-0.1,0.1-0.2,0.2-0.3c0.1-0.1,0.1-0.3,0.2-0.4l0.2-0.3l0.2-0.3l0.3-0.4l0.2-0.3l0.2-0.3c0.2-0.3,0.5-0.6,0.7-0.9 c0.1-0.1,0.1-0.2,0.2-0.2l0.3-0.4l0.2-0.2l0.3-0.3c0-0.1,0.1-0.1,0.2-0.2l0.6-0.6l0.2-0.2l0.4-0.4l0.2-0.1l0.4-0.3l0.4-0.3 l0.2-0.1l0.1,0l0.2-0.1l0.5-0.3l0.2-0.1l0.5-0.3l0.2-0.1l0.5-0.3l0.3-0.1l0.2-0.1l0.2-0.1l0.2-0.1l0.1-0.1h0.1l0.4-0.2l0.5-0.2 l0.2-0.1l0.5-0.2l0.2-0.1h0.2l0.4-0.1l0.2-0.1h0.3l0.5-0.1h1.1l0.4-0.1h5.1l0.4,0.1l0.4,0.1l0.4,0.1l0.3,0.1l0.2,0.1h0.3l0.2,0.1 h0.1l0.2,0l0,0l0.8,0.3l0,0c0.1,0,0.2,0,0.2,0.1l0.3,0.1h0.2l0.2,0.1l0.3,0.1l0.5,0.2l0.1,0.1l0.1,0.1l0.2,0.1H99l0.4,0.2l0.4,0.2 l0.2,0.1l0.3,0.2l0.1,0.1l0.3,0.2l0.5,0.4l0.3,0.3l0,0l0.3,0.2l0.1,0.1l0.3,0.3c0.6,0.5,1.1,1.1,1.6,1.7c0.3,0.3,0.5,0.6,0.7,0.9 c1.9,2.5,3.1,5.4,3.5,8.5l0.5,3.5l0,0l0.3,2.1l1.8,13.6c1.3,9.7-5.6,18.7-15.3,20c0,0,0,0,0,0C94.6,311.8,93.9,311.8,93.2,311.8z" class="st3"/><ellipse cx="110.9" cy="227.9" class="st3" rx="9.7" ry="7.6" transform="matrix(0.5301 -0.848 0.848 0.5301 -141.125 201.1508)"/><ellipse cx="111.2" cy="228.3" class="st5" rx="5.7" ry="4.5" transform="matrix(0.5301 -0.848 0.848 0.5301 -141.314 201.539)"/><ellipse cx="110.7" cy="228.7" class="st6" rx="5.7" ry="4.5" transform="matrix(0.5301 -0.848 0.848 0.5301 -141.9094 201.3638)"/><ellipse cx="72.5" cy="227.4" class="st3" rx="7.6" ry="9.7" transform="matrix(0.848 -0.5301 0.5301 0.848 -109.5044 73.0078)"/><ellipse cx="72.2" cy="227" class="st5" rx="4.6" ry="5.5" transform="matrix(0.848 -0.5301 0.5301 0.848 -109.3693 72.7834)"/><ellipse cx="72.6" cy="227.7" class="st6" rx="4.5" ry="5.7" transform="matrix(0.848 -0.5301 0.5301 0.848 -109.6698 73.1224)"/><ellipse cx="91.1" cy="242.3" class="st3" rx="24.5" ry="20.8"/><ellipse cx="78.4" cy="237.6" class="st7" rx="2.5" ry="2.5"/><ellipse cx="78.4" cy="238.2" class="st8" rx="2.5" ry="2.5"/><ellipse cx="78" cy="237.3" class="st9" rx="1" ry="1"/><ellipse cx="103.7" cy="238.2" class="st7" rx="2.6" ry="2.5"/><ellipse cx="103.7" cy="238.8" class="st8" rx="2.6" ry="2.5"/><ellipse cx="103.3" cy="237.8" class="st9" rx="1" ry="1.1"/><ellipse cx="89.9" cy="244.8" class="st10" rx="5.7" ry="4.5"/><ellipse cx="89.3" cy="244" class="st11" rx="4.7" ry="3.5"/><ellipse cx="88.3" cy="242.4" class="st12" rx="2.4" ry="1.8"/><path d="M90.1,249.1c0,0,1.1,6.4-2.2,5.9c-3.3-0.6-6.9-1.9-7.8-4.7" class="st13"/><path d="M79,251.1c0.5-0.8,1.3-1.4,2.3-1.4" class="st13"/><path d="M90.1,249.1c0,0-0.3,6,2.8,5.9s6.9-1.8,7.8-4.7" class="st13"/><path d="M102,251.1c-0.5-0.8-1.3-1.4-2.3-1.3" class="st13"/></g></g><g id="Laag_3"><g><path d="M139.6,343.2H35.7c-12.4,0-22.5-10.1-22.5-22.5V216.8c0-12.4,10.1-22.5,22.5-22.5h103.9 c12.4,0,22.5,10.1,22.5,22.5v103.9C162.1,333.1,152.1,343.2,139.6,343.2z" class="st9"/><path d="M139.6,353.2H35.7c-17.9,0-32.5-14.6-32.5-32.5V216.8c0-17.9,14.6-32.5,32.5-32.5h103.9 c17.9,0,32.5,14.6,32.5,32.5v103.9C172.1,338.6,157.5,353.2,139.6,353.2z M35.7,204.3c-6.9,0-12.5,5.6-12.5,12.5v103.9 c0,6.9,5.6,12.5,12.5,12.5h103.9c6.9,0,12.5-5.6,12.5-12.5V216.8c0-6.9-5.6-12.5-12.5-12.5H35.7z" class="st14"/><path d="M320.7,343.2H216.8c-12.4,0-22.5-10.1-22.5-22.5V216.8c0-12.4,10.1-22.5,22.5-22.5h103.9 c12.4,0,22.5,10.1,22.5,22.5v103.9C343.2,333.1,333.1,343.2,320.7,343.2z" class="st9"/><path d="M320.7,353.2H216.8c-17.9,0-32.5-14.6-32.5-32.5V216.8c0-17.9,14.6-32.5,32.5-32.5h103.9 c17.9,0,32.5,14.6,32.5,32.5v103.9C353.2,338.6,338.6,353.2,320.7,353.2z M216.8,204.3c-6.9,0-12.5,5.6-12.5,12.5v103.9 c0,6.9,5.6,12.5,12.5,12.5h103.9c6.9,0,12.5-5.6,12.5-12.5V216.8c0-6.9-5.6-12.5-12.5-12.5H216.8z" class="st14"/><path d="M139.6,162.1H35.7c-12.4,0-22.5-10.1-22.5-22.5V35.8c0-12.4,10.1-22.5,22.5-22.5h103.9 c12.4,0,22.5,10.1,22.5,22.5v103.9C162.1,152.1,152.1,162.1,139.6,162.1z" class="st9"/><path d="M139.6,172.1H35.7c-17.9,0-32.5-14.6-32.5-32.5V35.8c0-17.9,14.6-32.5,32.5-32.5h103.9 c17.9,0,32.5,14.6,32.5,32.5v103.9C172.1,157.6,157.5,172.1,139.6,172.1z M35.7,23.3c-6.9,0-12.5,5.6-12.5,12.5v103.9 c0,6.9,5.6,12.5,12.5,12.5h103.9c6.9,0,12.5-5.6,12.5-12.5V35.8c0-6.9-5.6-12.5-12.5-12.5H35.7z" class="st14"/><path d="M320.7,162.1H216.8c-12.4,0-22.5-10.1-22.5-22.5V35.8c0-12.4,10.1-22.5,22.5-22.5h103.9 c12.4,0,22.5,10.1,22.5,22.5v103.9C343.2,152.1,333.1,162.1,320.7,162.1z" class="st9"/><path d="M320.7,172.1H216.8c-17.9,0-32.5-14.6-32.5-32.5V35.8c0-17.9,14.6-32.5,32.5-32.5h103.9 c17.9,0,32.5,14.6,32.5,32.5v103.9C353.2,157.6,338.6,172.1,320.7,172.1z M216.8,23.3c-6.9,0-12.5,5.6-12.5,12.5v103.9 c0,6.9,5.6,12.5,12.5,12.5h103.9c6.9,0,12.5-5.6,12.5-12.5V35.8c0-6.9-5.6-12.5-12.5-12.5H216.8z" class="st14"/><g><path d="M61.6,101.4c-3.1-11.1,3.3-20.6,3.3-20.6s-5.7,4.8-13.2,1.9c9.7-8.1,10.7-11.3,10.7-11.3s-3.3-1.1-9.8,3.1 c0.8-9.3,9-13.3,9-13.3s-9.2-0.8-5.2-14.8c6.3,8.8,10,3.7,10,3.7s1.7-1.5-5.9-7.7c9.7-3.1,15,1.4,15,1.4s1.1-6.1,7.2-6.9 c-2.9,7.7,3.9,9,3.9,9s3.3-5.3,1.7-9.1c9.2,2.4,7.4,11.5,7.4,11.5s4.1-4.1,12.5-4.4c-5.3,8.8-4.5,14.2-4.7,14.4 c0.1-0.1,1,11.6,1,11.6c-0.2,5.9,0,10.8-10.2,12.4l-12.8,5.3l-1,2.3l-4.4-0.8C76.3,89.2,65,93.8,61.6,101.4z" class="st15"/><path d="M94.7,111.6c-3.9,0.6-8,0.7-11.9,0.1c-2.5-0.4-5.3-3.3-5.9-5.9c-0.8-4-1.1-8.2-0.7-12.3 c0.3-2.6,3.1-5.6,5.9-6.2c4.3-0.8,8.7-0.8,13-0.1c2.8,0.5,5.6,3.5,6,6.1c0.4,4.1,0.2,8.3-0.6,12.3 C100,108.3,97.3,111.1,94.7,111.6z" class="st15"/><path d="M115.6,102.6c-0.2-1-0.9-1.8-1.9-2.1c-10.2-2.6-14.1-9.3-14.2-9.6c-0.7-1.2-2.3-1.7-3.5-1s-1.7,2.3-1,3.5 c0.2,0.4,5.1,8.8,17.4,12c1.4,0.4,2.8-0.5,3.1-1.8c0,0,0,0,0,0C115.6,103.4,115.6,103,115.6,102.6z" class="st15"/><path d="M85.6,134.9l-17,0.2c-0.8,0-1.4-0.6-1.4-1.4c0-0.2,0-0.3,0.1-0.5c1.6-4.5,8.8-7.9,13.7-8c5,0,5.9,3.6,6,8.2 C86.9,134.3,86.3,134.9,85.6,134.9z" class="st15"/><path d="M83.1,134.4c-1.3,0-2.5-1-2.6-2.3l-2.2-24.2c-0.1-1.4,0.9-2.7,2.3-2.8s2.7,0.9,2.8,2.3l0,0l2.2,24.2 c0.1,1.4-0.9,2.7-2.3,2.8c0,0,0,0,0,0C83.2,134.4,83.1,134.4,83.1,134.4z" class="st15"/><path d="M92.4,134.9l17-0.1c0.8,0,1.4-0.6,1.3-1.4c0-0.2,0-0.3-0.1-0.5c-1.6-4.5-8.9-7.8-13.8-7.8 c-5,0-5.8,3.6-5.9,8.3C91,134.2,91.6,134.9,92.4,134.9C92.3,134.9,92.4,134.9,92.4,134.9z" class="st15"/><path d="M94.9,134.3h-0.2c-1.4-0.1-2.5-1.3-2.4-2.8l1.9-24.2c0.1-1.4,1.3-2.5,2.7-2.4s2.5,1.3,2.4,2.7 c0,0,0,0.1,0,0.1L97.4,132C97.3,133.3,96.2,134.3,94.9,134.3z" class="st15"/><path d="M87.6,134c0,0.8-0.6,1.5-1.4,1.5c0,0,0,0,0,0l-18.5,0.1c-0.8,0-1.5-0.7-1.5-1.5c0-0.2,0-0.3,0.1-0.5 c0,0,0,0,0-0.1c0.8-2.3,2.9-4.2,5.4-5.7c3-1.7,6.5-2.8,9.4-2.9c5.3,0,6.3,3.6,6.5,8.4L87.6,134z" class="st16"/><path d="M87.6,134c0,0.8-0.6,1.5-1.4,1.5c0,0,0,0,0,0l-18.5,0.1c-0.8,0-1.5-0.7-1.5-1.5c0-0.2,0-0.3,0.1-0.5 c0,0,0,0,0-0.1l21.3-0.2L87.6,134z" class="st17"/><path d="M87,129.3l-9.2-3.8l-0.4-3c0-0.4,0.2-0.7,0.6-0.8c0,0,0.1,0,0.1,0l8.8-0.1c0.4,0,0.7,0.3,0.7,0.7 c0,0,0,0,0,0.1L87,129.3z" class="st16"/><path d="M90.5,134c0,0.8,0.6,1.5,1.4,1.5c0,0,0,0,0,0l18.5-0.1c0.8,0,1.5-0.7,1.5-1.5c0-0.2,0-0.3-0.1-0.5l0-0.1 c-0.8-2.2-3-4.2-5.5-5.6c-3-1.7-6.6-2.8-9.4-2.7c-5.3,0-6.2,3.7-6.4,8.5C90.5,133.6,90.5,133.8,90.5,134z" class="st16"/><path d="M90.5,134c0,0.8,0.6,1.5,1.4,1.5c0,0,0,0,0,0l18.5-0.1c0.8,0,1.5-0.7,1.5-1.5c0-0.2,0-0.3-0.1-0.5l0-0.1 l-21.3,0.2C90.5,133.6,90.5,133.8,90.5,134z" class="st17"/><path d="M91,129.3l9.1-4l0.3-3c0.1-0.4-0.2-0.7-0.6-0.8c0,0-0.1,0-0.1,0l-8.8,0.1c-0.4,0-0.7,0.3-0.7,0.7 c0,0,0,0,0,0.1L91,129.3z" class="st16"/><path d="M107.3,115.7c-12.1,2.5-24.6,2.6-36.7,0.3c1.8-8.6,6.3-18,6.5-26.6c0-0.6,2.4-1.8,4.5-1.9 c5.5-0.3,8.1-0.6,13.5-0.1c2.6,0.2,4.7,2.5,5.2,4S103.7,107,107.3,115.7z" class="st18"/><circle cx="115.7" cy="102.7" r="3.8" class="st15"/><ellipse cx="115.5" cy="98.5" class="st15" rx="4.4" ry="2.1" transform="matrix(0.5357 -0.8444 0.8444 0.5357 -29.5304 143.2826)"/><ellipse cx="120" cy="101" class="st15" rx="2" ry="5.1" transform="matrix(0.1457 -0.9893 0.9893 0.1457 2.5769 204.9242)"/><ellipse cx="119.5" cy="104.8" class="st15" rx="2" ry="5.1" transform="matrix(0.3285 -0.9445 0.9445 0.3285 -18.7847 183.2163)"/><ellipse cx="116.9" cy="106.9" class="st15" rx="2" ry="5.1" transform="matrix(0.5807 -0.8141 0.8141 0.5807 -38.0513 139.9921)"/><path d="M67.2,107.5c-0.4,0-0.7-0.1-1-0.2c-1.3-0.6-1.9-2.1-1.3-3.4c0,0,0,0,0,0C70,92.1,79.1,88.7,79.5,88.5 c1.3-0.4,2.8,0.3,3.3,1.6c0.4,1.3-0.2,2.7-1.5,3.2c-0.3,0.1-7.5,3-11.7,12.6C69.1,106.9,68.2,107.5,67.2,107.5z" class="st15"/><circle cx="66.8" cy="107.6" r="3.8" class="st15"/><ellipse cx="71" cy="108.1" class="st15" rx="2.1" ry="4.4" transform="matrix(0.6622 -0.7493 0.7493 0.6622 -57.0188 89.6728)"/><ellipse cx="67.8" cy="112.1" class="st15" rx="5.1" ry="2" transform="matrix(0.3 -0.9539 0.9539 0.3 -59.4315 143.1187)"/><ellipse cx="64.1" cy="111" class="st15" rx="5.1" ry="2" transform="matrix(0.4735 -0.8808 0.8808 0.4735 -63.9995 114.8844)"/><ellipse cx="62.4" cy="108.1" class="st15" rx="5.1" ry="2" transform="matrix(0.7019 -0.7123 0.7123 0.7019 -58.3782 76.6732)"/><path d="M102.1,59l3.5,5.9c0,0,4.5-4.1,3.9-8.9c0-0.2-0.3-0.4-0.5-0.4c-0.1,0-0.1,0-0.2,0.1 C106.6,57.1,104.4,58.1,102.1,59z" class="st15"/><circle cx="88.4" cy="70.2" r="18.5" class="st15"/><path d="M82.7,80.8c0,4.4,3.6,7.9,8,7.9c0,0,0,0,0,0c10.4-0.5,21-4.5,20.2-9.5c0-1.5-3.3-1.5-4.8-3.8 C103.7,71.8,82.6,76.5,82.7,80.8z" class="st15"/><path d="M109,79.5c0.2,1,2.1,1.5,4.1,1s2.8-1.7,2.6-2.7c-0.2-1-1.4-1.5-3.4-1C110.3,77.2,108.8,78.4,109,79.5z" class="st19"/><ellipse cx="114.2" cy="77.4" class="st9" rx=".4" ry=".9" transform="matrix(7.410849e-02 -0.9973 0.9973 7.410849e-02 28.502 185.5138)"/><path d="M81.5,60.3c0,0-4.2-3.7-7.9-4.3c-0.3-0.1-0.4,0.4-0.3,0.7c1.3,3.7,2.3,7.1,2.3,7.1" class="st15"/><path d="M75.5,64.1c-0.1,0-0.2-0.1-0.2-0.2c0,0-1-3.5-2.3-7.1c-0.1-0.3-0.1-0.6,0.1-0.8c0.1-0.2,0.3-0.2,0.5-0.2 c3.8,0.6,7.9,4.2,8.1,4.3c0.1,0.1,0.1,0.3,0,0.4c-0.1,0.1-0.3,0.1-0.4,0c0,0-4.2-3.7-7.8-4.2l0,0c0,0.1,0,0.2,0,0.3 c1.3,3.6,2.3,7.1,2.3,7.2c0,0.1,0,0.3-0.2,0.3L75.5,64.1z" class="st20"/><path d="M101.5,86.2c-2.6,0.1-5.1-1-6.9-3c-0.2-0.2-0.1-0.5,0-0.6c0.2-0.2,0.5-0.1,0.6,0c2.7,3.2,6.9,2.7,6.9,2.7 c0.2,0,0.5,0.1,0.5,0.4c0,0.2-0.1,0.5-0.4,0.5C102.1,86.1,101.8,86.2,101.5,86.2z" class="st20"/><path d="M89.5,64.8c-0.1,0-0.2,0-0.3-0.1c-0.3-0.3-2.9-2.6-7.9-0.7c-0.2,0.1-0.5,0-0.6-0.2c-0.1-0.2,0-0.5,0.2-0.6 c5.5-2.1,8.5,0.5,8.8,0.8c0.1,0.1,0.1,0.2,0.1,0.3C90,64.5,89.8,64.8,89.5,64.8L89.5,64.8z" class="st20"/><path d="M95.7,65.1L95.7,65.1c-0.3,0-0.5-0.3-0.4-0.5c0-0.1,0.1-0.2,0.1-0.3c0.3-0.3,3.4-2.9,8.8-0.7 c0.2,0.1,0.3,0.3,0.2,0.6c-0.1,0.2-0.3,0.3-0.6,0.2l0,0c-5-2-7.6,0.3-7.9,0.6C95.9,65.1,95.8,65.1,95.7,65.1z" class="st20"/><path d="M83.5,68c-0.4-0.2-0.8-0.4-1.2-0.7c-0.4-0.2-0.8-0.5-1.1-0.8c-0.4-0.3-0.7-0.6-1-0.9 c-0.3-0.3-0.6-0.7-0.8-1.1c0.3,0.4,0.6,0.7,0.9,0.9c0.3,0.3,0.7,0.5,1.1,0.7c0.4,0.2,0.8,0.4,1.2,0.6c0.4,0.2,0.8,0.3,1.2,0.4 l0,0c0.2,0.1,0.3,0.3,0.3,0.5C84,68,83.8,68.1,83.5,68L83.5,68z" class="st19"/><path d="M82.8,69c-0.4-0.1-0.9-0.3-1.3-0.5c-0.4-0.2-0.8-0.4-1.2-0.6c-0.4-0.2-0.8-0.5-1.1-0.8 c-0.3-0.3-0.6-0.6-0.9-1c0.3,0.3,0.6,0.6,1,0.8c0.4,0.2,0.8,0.4,1.2,0.6c0.4,0.2,0.8,0.3,1.2,0.4c0.4,0.1,0.8,0.2,1.3,0.3l0,0 c0.2,0,0.4,0.2,0.3,0.4c0,0,0,0,0,0C83.3,68.9,83.1,69,82.8,69C82.9,69,82.9,69,82.8,69L82.8,69z" class="st19"/><circle cx="86.4" cy="71" r="5.5" class="st9"/><circle cx="84.6" cy="71" r="2.5" class="st21"/><circle cx="84.6" cy="71" r="1.4" class="st19"/><circle cx="85.2" cy="69.9" r="1" class="st9"/><circle cx="84" cy="72.2" r=".4" class="st9"/><path d="M103.2,67.9c0.4-0.2,0.8-0.4,1.2-0.7c0.4-0.2,0.8-0.5,1.1-0.8c0.4-0.3,0.7-0.6,1-0.9 c0.3-0.3,0.6-0.7,0.8-1.1c-0.3,0.4-0.6,0.7-0.9,1c-0.3,0.3-0.7,0.5-1.1,0.8c-0.4,0.2-0.8,0.4-1.2,0.6c-0.4,0.2-0.8,0.3-1.2,0.4 l0,0c-0.2,0.1-0.3,0.3-0.3,0.5C102.8,67.8,103,67.9,103.2,67.9L103.2,67.9L103.2,67.9z" class="st19"/><path d="M103.9,68.8c0.4-0.1,0.9-0.3,1.3-0.5c0.4-0.2,0.8-0.4,1.2-0.6c0.4-0.2,0.8-0.5,1.1-0.8 c0.3-0.3,0.6-0.6,0.9-1c-0.3,0.3-0.7,0.6-1,0.9c-0.4,0.2-0.7,0.4-1.1,0.6c-0.4,0.2-0.8,0.3-1.2,0.4c-0.4,0.1-0.8,0.2-1.3,0.3l0,0 c-0.2,0-0.4,0.2-0.3,0.5C103.5,68.7,103.7,68.9,103.9,68.8L103.9,68.8z" class="st19"/><circle cx="100.4" cy="70.9" r="5.5" class="st9"/><circle cx="98.7" cy="70.9" r="2.5" class="st21"/><circle cx="98.7" cy="70.9" r="1.4" class="st19"/><circle cx="99.2" cy="69.8" r="1" class="st9"/><circle cx="98.1" cy="72.1" r=".4" class="st9"/></g><g><path d="M242.5,283.9c-3.1-11.1,3.3-20.6,3.3-20.6s-5.7,4.8-13.2,1.9c9.7-8.1,10.7-11.3,10.7-11.3s-3.3-1.1-9.8,3.1 c0.8-9.3,9-13.3,9-13.3s-9.2-0.8-5.2-14.8c6.3,8.8,10,3.7,10,3.7s1.7-1.5-5.9-7.7c9.7-3.1,15,1.4,15,1.4s1.1-6.1,7.2-6.9 c-2.9,7.7,3.9,9,3.9,9s3.3-5.3,1.7-9.1c9.2,2.4,7.4,11.5,7.4,11.5s4.1-4.1,12.5-4.4c-5.3,8.8-4.5,14.2-4.7,14.4 c0.1-0.1,1,11.6,1,11.6c-0.2,5.9,0,10.8-10.2,12.4l-12.8,5.3l-1,2.3l-4.4-0.8C257.3,271.7,246,276.3,242.5,283.9z" class="st15"/><path d="M275.7,294.1c-3.9,0.6-8,0.7-11.9,0.1c-2.5-0.4-5.3-3.3-5.9-5.9c-0.8-4-1.1-8.2-0.7-12.3 c0.3-2.6,3.1-5.6,5.9-6.2c4.3-0.8,8.7-0.8,13-0.1c2.8,0.5,5.6,3.5,6,6.1c0.4,4.1,0.2,8.3-0.6,12.3 C281,290.8,278.3,293.6,275.7,294.1z" class="st15"/><path d="M296.6,285.1c-0.2-1-0.9-1.8-1.9-2.1c-10.2-2.6-14.1-9.3-14.2-9.6c-0.7-1.2-2.3-1.7-3.5-1s-1.7,2.3-1,3.5 c0.2,0.4,5.1,8.8,17.4,12c1.4,0.4,2.8-0.5,3.1-1.8c0,0,0,0,0,0C296.6,285.8,296.6,285.5,296.6,285.1z" class="st15"/><path d="M266.6,317.4l-17,0.2c-0.8,0-1.4-0.6-1.4-1.4c0-0.2,0-0.3,0.1-0.5c1.6-4.5,8.8-7.9,13.7-8 c5,0,5.9,3.6,6,8.2C267.9,316.8,267.3,317.4,266.6,317.4z" class="st15"/><path d="M264,316.9c-1.3,0-2.5-1-2.6-2.3l-2.2-24.2c-0.1-1.4,0.9-2.7,2.3-2.8s2.7,0.9,2.8,2.3l0,0l2.2,24.2 c0.1,1.4-0.9,2.7-2.3,2.8c0,0,0,0,0,0C264.2,316.9,264.1,316.9,264,316.9z" class="st15"/><path d="M273.4,317.3l17-0.1c0.8,0,1.4-0.6,1.3-1.4c0-0.2,0-0.3-0.1-0.5c-1.6-4.5-8.9-7.8-13.8-7.8 c-5,0-5.8,3.6-5.9,8.3C272,316.7,272.6,317.3,273.4,317.3C273.3,317.3,273.3,317.3,273.4,317.3z" class="st15"/><path d="M275.9,316.8h-0.2c-1.4-0.1-2.5-1.3-2.4-2.8l1.9-24.2c0.1-1.4,1.3-2.5,2.7-2.4s2.5,1.3,2.4,2.7 c0,0,0,0.1,0,0.1l-1.9,24.2C278.3,315.8,277.2,316.8,275.9,316.8z" class="st15"/><path d="M268.6,316.5c0,0.8-0.6,1.5-1.4,1.5c0,0,0,0,0,0l-18.5,0.1c-0.8,0-1.5-0.7-1.5-1.5c0-0.2,0-0.3,0.1-0.5 c0,0,0,0,0-0.1c0.8-2.3,2.9-4.2,5.4-5.7c3-1.7,6.5-2.8,9.4-2.9c5.3,0,6.3,3.6,6.5,8.4L268.6,316.5z" class="st16"/><path d="M268.6,316.5c0,0.8-0.6,1.5-1.4,1.5c0,0,0,0,0,0l-18.5,0.1c-0.8,0-1.5-0.7-1.5-1.5c0-0.2,0-0.3,0.1-0.5 c0,0,0,0,0-0.1l21.3-0.2L268.6,316.5z" class="st17"/><path d="M268,311.8l-9.2-3.8l-0.4-3c0-0.4,0.2-0.7,0.6-0.8c0,0,0.1,0,0.1,0l8.8-0.1c0.4,0,0.7,0.3,0.7,0.7 c0,0,0,0,0,0.1L268,311.8z" class="st16"/><path d="M271.5,316.5c0,0.8,0.6,1.5,1.4,1.5c0,0,0,0,0,0l18.5-0.1c0.8,0,1.5-0.7,1.5-1.5c0-0.2,0-0.3-0.1-0.5l0-0.1 c-0.8-2.2-3-4.2-5.5-5.6c-3-1.7-6.6-2.8-9.4-2.7c-5.3,0-6.2,3.7-6.4,8.5C271.5,316.1,271.5,316.3,271.5,316.5z" class="st16"/><path d="M271.5,316.5c0,0.8,0.6,1.5,1.4,1.5c0,0,0,0,0,0l18.5-0.1c0.8,0,1.5-0.7,1.5-1.5c0-0.2,0-0.3-0.1-0.5l0-0.1 l-21.3,0.2C271.5,316.1,271.5,316.3,271.5,316.5z" class="st17"/><path d="M272,311.8l9.1-4l0.3-3c0.1-0.4-0.2-0.7-0.6-0.8c0,0-0.1,0-0.1,0l-8.8,0.1c-0.4,0-0.7,0.3-0.7,0.7 c0,0,0,0,0,0.1L272,311.8z" class="st16"/><path d="M288.3,298.2c-12.1,2.5-24.6,2.6-36.7,0.3c1.8-8.6,6.3-18,6.5-26.6c0-0.6,2.4-1.8,4.5-1.9 c5.5-0.3,8.1-0.6,13.5-0.1c2.6,0.2,4.7,2.5,5.2,4C281.9,275.4,284.6,289.4,288.3,298.2z" class="st18"/><circle cx="296.7" cy="285.1" r="3.8" class="st15"/><ellipse cx="296.5" cy="281" class="st15" rx="4.4" ry="2.1" transform="matrix(0.5357 -0.8444 0.8444 0.5357 -99.5774 380.8385)"/><ellipse cx="300.9" cy="283.4" class="st15" rx="2" ry="5.1" transform="matrix(0.1457 -0.9893 0.9893 0.1457 -23.3358 539.8592)"/><ellipse cx="300.5" cy="287.3" class="st15" rx="2" ry="5.1" transform="matrix(0.3285 -0.9445 0.9445 0.3285 -69.6014 476.6814)"/><ellipse cx="297.9" cy="289.4" class="st15" rx="2" ry="5.1" transform="matrix(0.5807 -0.8141 0.8141 0.5807 -110.7171 363.8475)"/><path d="M248.2,289.9c-0.4,0-0.7-0.1-1-0.2c-1.3-0.6-1.9-2.1-1.3-3.4c0,0,0,0,0,0c5.1-11.7,14.2-15.2,14.6-15.3 c1.3-0.4,2.8,0.3,3.3,1.6c0.4,1.3-0.2,2.7-1.5,3.2c-0.3,0.1-7.5,3-11.7,12.6C250.1,289.3,249.2,289.9,248.2,289.9z" class="st15"/><circle cx="247.8" cy="290.1" r="3.8" class="st15"/><ellipse cx="251.9" cy="290.6" class="st15" rx="2.1" ry="4.4" transform="matrix(0.6622 -0.7493 0.7493 0.6622 -132.613 286.9218)"/><ellipse cx="248.8" cy="294.5" class="st15" rx="5.1" ry="2" transform="matrix(0.3 -0.9539 0.9539 0.3 -106.8122 443.4915)"/><ellipse cx="245.1" cy="293.4" class="st15" rx="5.1" ry="2" transform="matrix(0.4735 -0.8808 0.8808 0.4735 -129.4275 370.3768)"/><ellipse cx="243.4" cy="290.6" class="st15" rx="5.1" ry="2" transform="matrix(0.7019 -0.7123 0.7123 0.7019 -134.3962 259.98)"/><path d="M283,241.5l3.5,5.9c0,0,4.5-4.1,3.9-8.9c0-0.2-0.3-0.4-0.5-0.4c-0.1,0-0.1,0-0.2,0.1 C287.6,239.5,285.4,240.6,283,241.5z" class="st15"/><circle cx="269.4" cy="252.7" r="18.5" class="st15"/><path d="M263.7,263.3c0,4.4,3.6,7.9,8,7.9c0,0,0,0,0,0c10.4-0.5,21-4.5,20.2-9.5c0-1.5-3.3-1.5-4.8-3.8 C284.7,254.3,263.6,258.9,263.7,263.3z" class="st15"/><path d="M290,261.9c0.2,1,2.1,1.5,4.1,1c2-0.5,2.8-1.7,2.6-2.7s-1.4-1.5-3.4-1C291.2,259.7,289.8,260.9,290,261.9z" class="st19"/><ellipse cx="295.1" cy="259.9" class="st9" rx=".4" ry=".9" transform="matrix(7.410849e-02 -0.9973 0.9973 7.410849e-02 14.1068 534.9539)"/><path d="M262.5,242.8c0,0-4.2-3.7-7.9-4.3c-0.3-0.1-0.4,0.4-0.3,0.7c1.3,3.7,2.3,7.1,2.3,7.1" class="st15"/><path d="M256.5,246.6c-0.1,0-0.2-0.1-0.2-0.2c0,0-1-3.5-2.3-7.1c-0.1-0.3-0.1-0.6,0.1-0.8c0.1-0.2,0.3-0.2,0.5-0.2 c3.8,0.6,7.9,4.2,8.1,4.3c0.1,0.1,0.1,0.3,0,0.4c-0.1,0.1-0.3,0.1-0.4,0c0,0-4.2-3.7-7.8-4.2l0,0c0,0.1,0,0.2,0,0.3 c1.3,3.6,2.3,7.1,2.3,7.2c0,0.1,0,0.3-0.2,0.3L256.5,246.6z" class="st20"/><path d="M282.5,268.7c-2.6,0.1-5.1-1-6.9-3c-0.2-0.2-0.1-0.5,0-0.6c0.2-0.2,0.5-0.1,0.6,0c2.7,3.2,6.9,2.7,6.9,2.7 c0.2,0,0.5,0.1,0.5,0.4c0,0.2-0.1,0.5-0.4,0.5C283.1,268.6,282.8,268.6,282.5,268.7z" class="st20"/><path d="M270.5,247.3c-0.1,0-0.2,0-0.3-0.1c-0.3-0.3-2.9-2.6-7.9-0.7c-0.2,0.1-0.5,0-0.6-0.2 c-0.1-0.2,0-0.5,0.2-0.6c5.5-2.1,8.5,0.5,8.8,0.8c0.1,0.1,0.1,0.2,0.1,0.3C270.9,247,270.8,247.2,270.5,247.3L270.5,247.3z" class="st20"/><path d="M276.7,247.6L276.7,247.6c-0.3,0-0.5-0.3-0.4-0.5c0-0.1,0.1-0.2,0.1-0.3c0.3-0.3,3.4-2.9,8.8-0.7 c0.2,0.1,0.3,0.3,0.2,0.6s-0.3,0.3-0.6,0.2l0,0c-5-2-7.6,0.3-7.9,0.6C276.9,247.5,276.8,247.6,276.7,247.6z" class="st20"/><path d="M264.5,250.5c-0.4-0.2-0.8-0.4-1.2-0.7c-0.4-0.2-0.8-0.5-1.1-0.8c-0.4-0.3-0.7-0.6-1-0.9 c-0.3-0.3-0.6-0.7-0.8-1.1c0.3,0.4,0.6,0.7,0.9,0.9c0.3,0.3,0.7,0.5,1.1,0.7c0.4,0.2,0.8,0.4,1.2,0.6s0.8,0.3,1.2,0.4l0,0 c0.2,0.1,0.3,0.3,0.3,0.5C265,250.4,264.7,250.5,264.5,250.5L264.5,250.5z" class="st19"/><path d="M263.8,251.5c-0.4-0.1-0.9-0.3-1.3-0.5c-0.4-0.2-0.8-0.4-1.2-0.6c-0.4-0.2-0.8-0.5-1.1-0.8 c-0.3-0.3-0.6-0.6-0.9-1c0.3,0.3,0.6,0.6,1,0.8c0.4,0.2,0.8,0.4,1.2,0.6c0.4,0.2,0.8,0.3,1.2,0.4c0.4,0.1,0.8,0.2,1.3,0.3l0,0 c0.2,0,0.4,0.2,0.3,0.4c0,0,0,0,0,0C264.3,251.4,264.1,251.5,263.8,251.5C263.8,251.5,263.8,251.5,263.8,251.5L263.8,251.5z" class="st19"/><circle cx="267.3" cy="253.4" r="5.5" class="st9"/><circle cx="265.6" cy="253.4" r="2.5" class="st21"/><circle cx="265.6" cy="253.4" r="1.4" class="st19"/><circle cx="266.2" cy="252.3" r="1" class="st9"/><circle cx="265" cy="254.7" r=".4" class="st9"/><path d="M284.2,250.3c0.4-0.2,0.8-0.4,1.2-0.7c0.4-0.2,0.8-0.5,1.1-0.8c0.4-0.3,0.7-0.6,1-0.9 c0.3-0.3,0.6-0.7,0.8-1.1c-0.3,0.4-0.6,0.7-0.9,1c-0.3,0.3-0.7,0.5-1.1,0.8c-0.4,0.2-0.8,0.4-1.2,0.6c-0.4,0.2-0.8,0.3-1.2,0.4 l0,0c-0.2,0.1-0.3,0.3-0.3,0.5C283.8,250.3,284,250.4,284.2,250.3L284.2,250.3L284.2,250.3z" class="st19"/><path d="M284.9,251.3c0.4-0.1,0.9-0.3,1.3-0.5c0.4-0.2,0.8-0.4,1.2-0.6c0.4-0.2,0.8-0.5,1.1-0.8 c0.3-0.3,0.6-0.6,0.9-1c-0.3,0.3-0.7,0.6-1,0.9c-0.4,0.2-0.7,0.4-1.1,0.6c-0.4,0.2-0.8,0.3-1.2,0.4c-0.4,0.1-0.8,0.2-1.3,0.3l0,0 c-0.2,0-0.4,0.2-0.3,0.5C284.5,251.2,284.7,251.3,284.9,251.3L284.9,251.3z" class="st19"/><circle cx="281.4" cy="253.3" r="5.5" class="st9"/><circle cx="279.7" cy="253.3" r="2.5" class="st21"/><circle cx="279.7" cy="253.3" r="1.4" class="st19"/><circle cx="280.2" cy="252.2" r="1" class="st9"/><circle cx="279.1" cy="254.6" r=".4" class="st9"/></g><path d="M258.2,91.3l0.1-1c0-3.6,1-6.5,3.1-8.6c1.8-2,4.2-3.4,6.8-4.2c2.4-0.7,4.7-1.8,6.7-3.4c2-1.5,3.2-4,3.1-6.5 c0.1-2.4-0.7-4.7-2.3-6.4c-1.6-1.5-3.9-2.3-7-2.3c-3.1,0-5.4,0.5-6.9,1.5c-1.2,0.7-2.2,1.7-2.7,3l-0.4,1.5c-0.6,1.8-1.5,3.5-2.7,5 c-1,1.1-2.4,1.7-3.9,1.7c-2.2-0.1-4.3-0.6-6.3-1.5c-5.1-2-7.6-4.4-7.6-7.3c0-1.3,0.3-2.6,0.8-3.8l1.3-3.3c0.8-1.6,1.7-3.2,2.7-4.6 c1.4-2.1,3.1-4.1,5-5.7c2.4-1.9,5.1-3.5,8-4.5c3.7-1.4,7.6-2.1,11.6-2.1c8.9,0,16.2,2.9,21.8,8.6c5.4,5.2,8.5,12.4,8.4,19.9 c0,3.4-0.7,6.8-2,10c-1.1,2.7-2.7,5.2-4.7,7.3c-3.7,3.5-7.1,5.9-10.3,7.1l-2,0.6c0,1.1,0,2.2-0.2,3.3c-0.2,0.9-0.6,1.7-1.1,2.5 c-0.8,1-1.9,1.6-3.2,1.9c-1.9,0.4-3.9,0.6-5.9,0.6c-2,0.1-4-0.1-5.9-0.6c-1.3-0.3-2.4-1-3.1-2.2c-0.5-0.8-0.9-1.7-1.1-2.7 C258.2,93.8,258.2,92.5,258.2,91.3z M257.7,113.8c0.8-1.4,2.1-2.4,3.6-2.8c2.7-0.7,5.4-1,8.1-0.9c3.7,0,6.4,0.8,8,2.4 c1.6,1.7,2.4,4.8,2.4,9.5c0,3.3-0.4,5.8-1.3,7.5c-0.8,1.6-2.2,2.8-3.8,3.3c-2.6,0.6-5.3,0.9-8,0.8c-3.6,0-6.4-0.9-8.3-2.7 c-1.4-1.4-2.1-3.9-2.1-7.3v-2c0-1.5,0-2.9,0.2-4.4C256.7,116.1,257.1,114.9,257.7,113.8L257.7,113.8z" class="st22"/><path d="M76.6,273l0.1-1c0-3.6,1-6.5,3.1-8.6c1.8-2,4.2-3.4,6.8-4.2c2.4-0.7,4.7-1.8,6.7-3.4c2-1.5,3.2-4,3.1-6.5 c0.1-2.4-0.7-4.7-2.3-6.4c-1.6-1.5-3.9-2.3-7-2.3s-5.4,0.5-6.9,1.5c-1.2,0.7-2.2,1.7-2.7,3l-0.4,1.5c-0.6,1.8-1.5,3.5-2.7,5 c-1,1.1-2.4,1.7-3.9,1.7c-2.2-0.1-4.3-0.6-6.3-1.5c-5.1-2-7.6-4.4-7.6-7.3c0-1.3,0.3-2.6,0.8-3.8l1.3-3.3c0.8-1.6,1.7-3.2,2.7-4.6 c1.4-2.1,3.1-4.1,5-5.7c2.4-1.9,5.1-3.5,8-4.5c3.7-1.4,7.6-2.1,11.6-2.1c8.9,0,16.2,2.9,21.8,8.6c5.4,5.2,8.5,12.4,8.4,19.9 c0,3.4-0.7,6.8-2,10c-1.1,2.7-2.7,5.2-4.7,7.3c-3.7,3.5-7.1,5.9-10.3,7.1l-2,0.6c0,1.1,0,2.2-0.2,3.3c-0.2,0.9-0.6,1.7-1.1,2.5 c-0.8,1-1.9,1.6-3.2,1.9c-1.9,0.4-3.9,0.6-5.9,0.6c-2,0.1-4-0.1-5.9-0.6c-1.3-0.3-2.4-1-3.1-2.2c-0.5-0.8-0.9-1.7-1.1-2.7 C76.6,275.5,76.6,274.2,76.6,273z M76.1,295.5c0.8-1.4,2.1-2.4,3.6-2.8c2.7-0.7,5.4-1,8.1-0.9c3.7,0,6.4,0.8,8,2.4 c1.6,1.7,2.4,4.8,2.4,9.5c0,3.3-0.4,5.8-1.3,7.5c-0.8,1.6-2.2,2.8-3.8,3.3c-2.6,0.6-5.3,0.9-8,0.8c-3.6,0-6.4-0.9-8.3-2.7 c-1.4-1.4-2.1-3.9-2.1-7.3v-2c0-1.5,0-2.9,0.2-4.4C75.1,297.8,75.5,296.6,76.1,295.5L76.1,295.5z" class="st22"/></g></g></svg>