<svg xmlns="http://www.w3.org/2000/svg" id="Laag_1" data-name="Laag 1" viewBox="0 0 129.84 175.09"><defs><style>.cls-1{fill:#e28e63}.cls-2{fill:#ce131e}.cls-3{fill:#d9d9d9}.cls-4{fill:#e30613}.cls-5{fill:#1e1e1c}.cls-6{fill:#fff}.cls-7{fill:#90512b}.cls-8{fill:#82c17b}</style></defs><title>Tekengebied 7</title><path d="M17.42,114.34C12,94.72,23.3,77.82,23.3,77.82S13.23,86.33,0,81.27c17.11-14.34,19-20,19-20s-5.85-2-17.38,5.43c1.49-16.53,16-23.51,16-23.51s-16.31-1.4-9.25-26.3c11.14,15.67,17.79,6.62,17.79,6.62s3-2.71-10.44-13.58c17.12-5.5,26.65,2.55,26.65,2.55S44.26,1.62,55.17.3C50,14,62.07,16.18,62.07,16.18S68,6.73,65,0C81.28,4.25,78.12,20.41,78.12,20.41s7.34-7.22,22.19-7.75C91,28.25,92.39,37.86,92.06,38.22c.22-.22,1.69,20.52,1.69,20.52-.38,10.41,0,19.12-18.07,22.05L53,90.12l-1.75,4.15-7.74-1.5S23.51,100.92,17.42,114.34Z" class="cls-1"/><path d="M76.21,132.42a68.11,68.11,0,0,1-21.09.16c-4.48-.77-9.4-5.76-10.4-10.39a77.93,77.93,0,0,1-1.3-21.79c.52-4.64,5.54-9.94,10.42-10.92a67.91,67.91,0,0,1,23-.17c4.9.91,10,6.14,10.58,10.77a78,78,0,0,1-1,21.81C85.53,126.53,80.68,131.59,76.21,132.42Z" class="cls-1"/><path d="M113.12,116.54a4.56,4.56,0,0,0-3.36-3.66c-18-4.66-24.94-16.45-25.23-16.95a4.56,4.56,0,0,0-8,4.47c.36.64,9,15.63,30.9,21.3a4.55,4.55,0,0,0,5.55-3.27A4.5,4.5,0,0,0,113.12,116.54Z" class="cls-1"/><path d="M60,173.73,29.8,174a2.41,2.41,0,0,1-2.29-3.21c2.8-8,15.55-14,24.2-14.1,8.92-.06,10.39,6.3,10.64,14.6A2.42,2.42,0,0,1,60,173.73Z" class="cls-1"/><path d="M55.51,172.86a4.55,4.55,0,0,1-4.57-4.14L47,125.92a4.55,4.55,0,1,1,9.07-.83L60,167.89a4.55,4.55,0,0,1-4.12,5A2.55,2.55,0,0,1,55.51,172.86Z" class="cls-1"/><path d="M72,173.64l30.17-.22a2.41,2.41,0,0,0,2.24-3.24c-2.92-7.91-15.76-13.81-24.41-13.75-8.92.07-10.29,6.46-10.42,14.76A2.41,2.41,0,0,0,72,173.64Z" class="cls-1"/><path d="M76.47,172.71h-.38a4.57,4.57,0,0,1-4.2-4.9L75.2,125a4.56,4.56,0,1,1,9.09.7L81,168.5A4.56,4.56,0,0,1,76.47,172.71Z" class="cls-1"/><path d="M63.57,172.15a2.62,2.62,0,0,1-2.59,2.7l-32.78.24a2.62,2.62,0,0,1-2.48-3.49.69.69,0,0,1,.05-.13c1.45-4,5.16-7.48,9.65-10.13,5.25-3.1,11.56-5,16.59-5.06,9.35-.06,11.17,6.36,11.53,14.91Z" class="cls-2"/><path d="M63.57,172.15a2.62,2.62,0,0,1-2.59,2.7l-32.78.24a2.62,2.62,0,0,1-2.48-3.49.69.69,0,0,1,.05-.13l37.77-.28Z" class="cls-3"/><path d="M62.55,163.81,46.25,157l-.66-5.32a1.26,1.26,0,0,1,1.25-1.41l15.54-.12a1.26,1.26,0,0,1,1.26,1.38Z" class="cls-2"/><path d="M68.65,172.11a2.61,2.61,0,0,0,2.63,2.66l32.77-.24a2.62,2.62,0,0,0,2.44-3.52l-.06-.13c-1.5-3.94-5.26-7.4-9.8-10C91.34,157.86,85,156,80,156.08c-9.35.07-11.07,6.52-11.3,15.07C68.66,171.47,68.65,171.79,68.65,172.11Z" class="cls-2"/><path d="M68.65,172.11a2.61,2.61,0,0,0,2.63,2.66l32.77-.24a2.62,2.62,0,0,0,2.44-3.52l-.06-.13-37.76.27C68.66,171.47,68.65,171.79,68.65,172.11Z" class="cls-3"/><path d="M69.54,163.75l16.2-7,.58-5.33A1.25,1.25,0,0,0,85.06,150l-15.54.11a1.26,1.26,0,0,0-1.25,1.39Z" class="cls-2"/><path d="M98.42,139.72a167.8,167.8,0,0,1-65.1.48C36.49,125,44.45,108.34,44.88,93c0-1,4.18-3.12,8-3.36,9.71-.61,14.32-1,24-.17,4.63.39,8.29,4.37,9.28,7.08S92,124.2,98.42,139.72Z" class="cls-4"/><circle cx="113.41" cy="116.59" r="6.76" class="cls-1"/><ellipse cx="113.03" cy="109.19" class="cls-1" rx="7.85" ry="3.71" transform="translate(-39.72 146.14) rotate(-57.61)"/><ellipse cx="120.88" cy="113.58" class="cls-1" rx="3.58" ry="9.04" transform="translate(-9.11 216.61) rotate(-81.62)"/><ellipse cx="120.01" cy="120.39" class="cls-1" rx="3.58" ry="9.04" transform="translate(-33.12 194.19) rotate(-70.82)"/><ellipse cx="115.43" cy="124.14" class="cls-1" rx="3.58" ry="9.04" transform="translate(-52.66 146.03) rotate(-54.5)"/><path d="M27.43,125.09a4.64,4.64,0,0,1-1.85-.38,4.55,4.55,0,0,1-2.35-6c9.07-20.78,25.23-26.9,25.91-27.15a4.56,4.56,0,0,1,3.16,8.55c-.58.22-13.29,5.23-20.72,22.24A4.54,4.54,0,0,1,27.43,125.09Z" class="cls-1"/><circle cx="26.7" cy="125.37" r="6.76" class="cls-1"/><ellipse cx="34.06" cy="126.17" class="cls-1" rx="3.71" ry="7.85" transform="translate(-83.03 68.14) rotate(-48.53)"/><ellipse cx="28.49" cy="133.23" class="cls-1" rx="9.04" ry="3.58" transform="translate(-107.15 120.42) rotate(-72.54)"/><ellipse cx="21.9" cy="131.3" class="cls-1" rx="9.04" ry="3.58" transform="translate(-104.11 88.42) rotate(-61.74)"/><ellipse cx="18.93" cy="126.18" class="cls-1" rx="9.04" ry="3.58" transform="translate(-84.23 51.09) rotate(-45.42)"/><path d="M89.16,39.29l6.26,10.54s8-7.29,6.88-15.69a.79.79,0,0,0-1.18-.59A86.76,86.76,0,0,1,89.16,39.29Z" class="cls-1"/><circle cx="64.95" cy="59.12" r="32.74" class="cls-1"/><path d="M54.81,77.9A14.05,14.05,0,0,0,69,91.84C87.4,91,106.23,83.78,104.87,75c0-2.71-5.81-2.62-8.5-6.66C92.07,61.91,54.75,70.14,54.81,77.9Z" class="cls-1"/><path d="M101.54,75.49c.42,1.84,3.7,2.66,7.32,1.82s5-3,4.56-4.85-2.49-2.67-6.11-1.83S101.11,73.64,101.54,75.49Z" class="cls-5"/><ellipse cx="110.61" cy="71.82" class="cls-6" rx=".76" ry="1.53" transform="translate(30.79 176.81) rotate(-85.75)"/><path d="M52.69,41.5s-7.41-6.57-14.08-7.59c-.57-.09-.78.65-.59,1.19,2.32,6.48,4.12,12.65,4.12,12.65" class="cls-1"/><path d="M42.14,48.21a.47.47,0,0,1-.44-.33c0-.06-1.82-6.23-4.11-12.63a1.53,1.53,0,0,1,.2-1.45.94.94,0,0,1,.89-.34c6.72,1,14,7.43,14.31,7.7a.46.46,0,0,1,0,.65.47.47,0,0,1-.64,0c-.08-.07-7.39-6.51-13.85-7.49,0,0,0,0,0,0a.64.64,0,0,0,0,.56c2.3,6.43,4.11,12.62,4.13,12.68a.46.46,0,0,1-.31.57Z" class="cls-7"/><path d="M88.22,87.37A15.53,15.53,0,0,1,76.08,82a.76.76,0,0,1,1.17-1c4.73,5.69,12.2,4.73,12.28,4.72a.76.76,0,1,1,.21,1.51A14.07,14.07,0,0,1,88.22,87.37Z" class="cls-7"/><path d="M66.91,49.46a.79.79,0,0,1-.56-.22c-.5-.48-5.13-4.6-14-1.16a.76.76,0,0,1-.55-1.42c9.79-3.77,15.07.93,15.65,1.48a.74.74,0,0,1,.24.47.77.77,0,0,1-.66.85Z" class="cls-7"/><path d="M77.85,50h-.1a.77.77,0,0,1-.65-.86.8.8,0,0,1,.25-.47c.62-.57,6-5.15,15.67-1.25a.76.76,0,1,1-.57,1.41c-8.86-3.56-13.55.48-14.06,1A.81.81,0,0,1,77.85,50Z" class="cls-7"/><path d="M56.3,55.16A21,21,0,0,1,54.14,54a21.65,21.65,0,0,1-2-1.34,15,15,0,0,1-1.78-1.6A9.27,9.27,0,0,1,49,49.15a8.51,8.51,0,0,0,1.61,1.67,13.74,13.74,0,0,0,1.93,1.28c.67.37,1.37.69,2.07,1s1.45.55,2.15.75h0a.7.7,0,0,1-.37,1.35Z" class="cls-5"/><path d="M55.07,56.9a23.78,23.78,0,0,1-2.28-.85A21.43,21.43,0,0,1,50.65,55a15,15,0,0,1-2-1.36,9.2,9.2,0,0,1-1.61-1.75,9,9,0,0,0,1.81,1.46,14.72,14.72,0,0,0,2.07,1,19.33,19.33,0,0,0,2.19.72,22.73,22.73,0,0,0,2.23.47h0a.7.7,0,0,1,.59.8.69.69,0,0,1-.79.59Z" class="cls-5"/><circle cx="61.36" cy="60.4" r="9.72" class="cls-6"/><circle cx="58.32" cy="60.42" r="4.45" class="cls-8"/><circle cx="58.32" cy="60.42" r="2.51" class="cls-5"/><circle cx="59.24" cy="58.45" r="1.78" class="cls-6"/><circle cx="57.24" cy="62.64" r=".69" class="cls-6"/><path d="M91.25,54.9a20.67,20.67,0,0,0,2.13-1.16,23.16,23.16,0,0,0,2-1.37,15.93,15.93,0,0,0,1.75-1.63,8.62,8.62,0,0,0,1.34-2,8.87,8.87,0,0,1-1.58,1.71A14.6,14.6,0,0,1,95,51.79a19.63,19.63,0,0,1-2.06,1,20.56,20.56,0,0,1-2.14.79h0a.7.7,0,0,0,.4,1.35Z" class="cls-5"/><path d="M92.5,56.62a19.63,19.63,0,0,0,2.26-.88,20.46,20.46,0,0,0,2.13-1.11,14.33,14.33,0,0,0,2-1.39,8.83,8.83,0,0,0,1.58-1.77A8.76,8.76,0,0,1,98.63,53a14.14,14.14,0,0,1-2,1c-.71.29-1.44.53-2.18.75s-1.5.38-2.22.5h0a.7.7,0,0,0,.22,1.39Z" class="cls-5"/><circle cx="86.23" cy="60.21" r="9.72" class="cls-6"/><circle cx="83.19" cy="60.24" r="4.45" class="cls-8"/><circle cx="83.19" cy="60.24" r="2.51" class="cls-5"/><circle cx="84.11" cy="58.26" r="1.78" class="cls-6"/><circle cx="82.11" cy="62.46" r=".69" class="cls-6"/></svg>