<svg xmlns="http://www.w3.org/2000/svg" id="Laag_1" data-name="Laag 1" viewBox="0 0 1000 1000"><defs><style>.cls-1{fill:#aac4d7}.cls-2{fill:#60788a}.cls-3{fill:#ccc}.cls-4{fill:#999}.cls-5{fill:#4d4d4d}.cls-6{fill:gray}</style></defs><title>OTTOSCOOP</title><path d="M541.91,912.8Q534,718.24,526.14,523.65a197.79,197.79,0,0,1-151.8,0Q366.48,718.2,358.57,912.8c-1.63,34.36,23.89,78.62,59,84.6a194.17,194.17,0,0,0,65.42,0C518,991.42,543.54,947.16,541.91,912.8Z" class="cls-1"/><path d="M526,526.47l-.09-2.29Q522.94,451.6,520.07,379c-1-23.71-15.47-43.26-32.08-43.37H412.15c-16.61.11-31.06,19.66-32.08,43.37q-2.9,72.58-5.81,145.14l-.09,2.29A194.94,194.94,0,0,0,526,526.47Z" class="cls-2"/><path d="M490.65,162H409.49l-4.38,186.65a28.78,28.78,0,0,0,28.77,29.45h32.38A28.78,28.78,0,0,0,495,348.66Z" class="cls-3"/><path d="M701.7,94.63c9.52-1.28,9.46-14.39,9.46-17.4s-4.32-16.6-13.84-15.32C696.48,62,586.64,56.59,544.48,26c-8.19,41.07.5,106,19.2,143.46C596.1,127.31,700.86,94.74,701.7,94.63Z" class="cls-4"/><path d="M286.53,211.69C255.31,165.41,248,111,266,58.14c4-11.86,17.28-21.23,33.35-23.38L507.78,6.86c16.08-2.15,31.32,3.41,38.32,13.79,31.21,46.28,38.5,100.69,20.55,153.55-4,11.85-17.27,21.23-33.35,23.38l-208.45,27.9C308.77,227.63,293.53,222.07,286.53,211.69Z" class="cls-2"/><path d="M283.09,212.81a195.3,195.3,0,0,1-20.7-154.68c3.32-11.85,14.77-21,28.83-22.92L473.5,10.82c14.06-1.89,27.52,4,33.84,14.52A195.33,195.33,0,0,1,528,180c-3.32,11.85-14.77,21-28.83,22.92L316.93,227.34C302.87,229.22,289.41,223.37,283.09,212.81Z" class="cls-1"/><path d="M290,134.89c4,34.74,15.08,63.64,27.35,75,10.7-12.32,15.69-44.84,11.36-82-4-34.76-15.05-63.69-27.33-75.06h0C290.69,65.15,285.7,97.69,290,134.89Z" class="cls-3"/><path d="M295.43,48.76l.35.16Z" class="cls-5"/><path d="M296.43,49.24a22.65,22.65,0,0,1,4.88,3.52A22.65,22.65,0,0,0,296.43,49.24Z" class="cls-5"/><path d="M275,134.89c-5.2-44.6,3-82.49,18.42-86.83a10.53,10.53,0,0,0-4.3-.36c-16.49,1.93-25.52,41-20.13,87.19s23.11,82.13,39.63,80.2a8.78,8.78,0,0,0,1.72-.36C295.12,210.7,279.86,177.11,275,134.89Z" class="cls-5"/><path d="M294.42,48.37l.31.12Z" class="cls-5"/><path d="M295.78,48.92c.22.11.44.2.65.32C296.22,49.12,296,49,295.78,48.92Z" class="cls-6"/><path d="M294.73,48.49c.23.09.47.17.7.27C295.2,48.66,295,48.58,294.73,48.49Z" class="cls-6"/><path d="M314,213a13.7,13.7,0,0,1-1.8,1A13.7,13.7,0,0,0,314,213Z" class="cls-6"/><path d="M301.4,52.84l-.09-.08.09.08Z" class="cls-6"/><path d="M317.36,210l0,0h0Z" class="cls-6"/><path d="M294.42,48.37c-.34-.12-.68-.22-1-.31h0C293.74,48.15,294.08,48.25,294.42,48.37Z" class="cls-6"/><path d="M290,134.89c-4.33-37.2.66-69.74,11.37-82l-.09-.08a22.65,22.65,0,0,0-4.88-3.52c-.21-.12-.43-.21-.65-.32l-.35-.16c-.23-.1-.47-.18-.7-.27l-.31-.12c-.34-.12-.68-.22-1-.31h0C278,52.4,269.78,90.29,275,134.89c4.88,42.22,20.14,75.81,35.34,79.84a11.2,11.2,0,0,0,1.88-.69,13.7,13.7,0,0,0,1.8-1,18.56,18.56,0,0,0,3.36-3.05l0,0C305.11,198.53,294.06,169.63,290,134.89Z" class="cls-6"/><polygon points="301.4 52.84 301.4 52.84 301.4 52.84 301.4 52.84" class="cls-3"/></svg>