<svg id="Laag_1" data-name="Laag 1" xmlns="http://www.w3.org/2000/svg" viewBox="0 0 39.62 179.14"><defs><style>.cls-1{fill:#5fbad8;}.cls-2,.cls-8{fill:#d6d5da;}.cls-3{fill:#44b7e9;}.cls-4{fill:#aadcf3;}.cls-5{fill:#a1a0a9;}.cls-6{fill:#7a7b7b;}.cls-7{fill:#484848;}.cls-8{opacity:0.3;}</style></defs><title>Tekengebied 5</title><rect class="cls-1" x="17.76" y="165.71" width="3.26" height="23.35" transform="translate(-158.19 194.93) rotate(-89.4)"/><polygon class="cls-2" points="25.23 49.76 25.26 47.06 16.27 46.97 16.25 49.67 10.09 51.61 9.19 136.56 30.46 136.78 31.36 51.83 25.23 49.76"/><polygon class="cls-3" points="10.68 95.45 11.13 52.33 17.31 50.38 17.34 46.98 24.22 47.05 24.18 50.46 30.29 52.53 29.84 95.66 10.68 95.45"/><rect class="cls-4" x="-13.95" y="133.37" width="67.43" height="17.34" transform="translate(-122.48 160.31) rotate(-89.4)"/><rect class="cls-1" x="18.18" y="118.51" width="3.26" height="39.58" transform="translate(-118.69 156.65) rotate(-89.4)"/><path class="cls-5" d="M19.83,33.41l.32-29.18L21.27,0l1,4.25L22,33.43C21.82,35.51,20,35.49,19.83,33.41Z"/><polygon class="cls-6" points="16.67 35.24 20.94 31 25.11 35.33 24.99 47.06 16.55 46.97 16.67 35.24"/><polygon class="cls-7" points="30.52 99.93 9.9 99.7 9.95 95.45 30.57 95.67 30.52 99.93"/><polygon class="cls-7" points="30.43 108.45 9.81 108.22 9.86 103.97 30.48 104.19 30.43 108.45"/><polygon class="cls-6" points="28.6 104.17 11.73 103.98 11.77 99.73 28.66 99.91 28.6 104.17"/><rect class="cls-6" x="20.27" y="41.22" width="1" height="11.58" transform="translate(-26.46 67.27) rotate(-89.37)"/><rect class="cls-8" x="-0.52" y="105.47" width="41.12" height="21.27" transform="translate(-96.27 134.92) rotate(-89.4)"/></svg>