<svg id="Laag_1" data-name="Laag 1" xmlns="http://www.w3.org/2000/svg" viewBox="0 0 171.96 122.81"><defs><style>.cls-1{fill:#cdcccc;}.cls-2{fill:#808181;}.cls-3{fill:#4d4d4d;}.cls-4{fill:#313131;}</style></defs><title>Tekengebied 10</title><circle class="cls-1" cx="28.51" cy="60.97" r="11.51"/><circle class="cls-2" cx="28.51" cy="60.97" r="7.18"/><path class="cls-1" d="M121.29,78.17c-9.23.35-16.82-2.44-22.56-8.29s-9.6-14.76-11.47-26.45a122.86,122.86,0,0,1-1-26.1c.32-5.61,7.94-8.57,8.81-8.88a1.66,1.66,0,1,1,1.14,3.11c-1.67.62-6.47,3-6.64,6a119.48,119.48,0,0,0,1,25.39c1.75,11,5.31,19.29,10.56,24.64,5.05,5.16,11.81,7.62,20.07,7.31,7.91-.3,14.26-3.17,18.86-8.54,11.13-13,10.16-37.55,8.59-51-.53-4.61-6.93-5.35-7-5.36a1.66,1.66,0,0,1,.34-3.3,15.51,15.51,0,0,1,4.51,1.3c3.2,1.5,5.08,3.92,5.44,7,1.63,14,2.58,39.64-9.37,53.58C137.32,74.58,130.17,77.84,121.29,78.17Z"/><path class="cls-3" d="M98.63,14.45c-2.5,2.09-9.51-6.29-7-8.38a6,6,0,0,1,5.66-1.18,5.12,5.12,0,0,1,3.52,4.19A6,6,0,0,1,98.63,14.45Z"/><path class="cls-4" d="M100.1,9.32c-1.27-.15-3.26-2.52-3.18-3.8a.4.4,0,0,1,.55-.35,5.22,5.22,0,0,1,2,1.45,5.12,5.12,0,0,1,1.08,2.22A.4.4,0,0,1,100.1,9.32Z"/><path class="cls-3" d="M137.34,13c2.65,1.9,9-7,6.37-8.87A6,6,0,0,0,138,3.36a5.14,5.14,0,0,0-3.2,4.45A6,6,0,0,0,137.34,13Z"/><path class="cls-4" d="M135.49,8c1.25-.24,3.06-2.75,2.89-4a.41.41,0,0,0-.58-.31,5.15,5.15,0,0,0-1.88,1.6A5.05,5.05,0,0,0,135,7.55.4.4,0,0,0,135.49,8Z"/><path class="cls-2" d="M29.16,67.61h.1a1.51,1.51,0,0,1,1.61,1.44c0,.2-.12,30,14.15,42,7.28,6.13,17.33,9.15,29.87,9s22.5-3.47,29.63-9.81c14-12.39,12.56-32.49,12.55-32.69A1.53,1.53,0,0,1,118.65,76a1.61,1.61,0,0,1,1.8,1.29c.07.87,1.52,21.47-13.43,34.76-7.79,6.92-18.59,10.53-32.1,10.72S50.53,119.69,42.57,113c-15.28-12.86-15.13-43.17-15.08-44A1.58,1.58,0,0,1,29.16,67.61Z"/></svg>