<svg xmlns="http://www.w3.org/2000/svg" id="Laag_1" data-name="Laag 1" viewBox="0 0 35.28 179.03"><defs><style>.cls-1{fill:#7a7b7b}.cls-2{fill:#44b7e9}.cls-3,.cls-4{fill:#6a6a69;opacity:.6}.cls-4{fill:#d6d5da}.cls-5{fill:#010101}</style></defs><title>Tekengebied 8</title><path d="M13.35,0h8.58a0,0,0,0,1,0,0V10.32a2.13,2.13,0,0,1-2.13,2.13h-4.2a2.26,2.26,0,0,1-2.26-2.26V0a0,0,0,0,1,0,0Z" class="cls-1" transform="translate(35.28 12.43) rotate(179.95)"/><path d="M.09,172.66,0,66.37a28.51,28.51,0,0,1,.6-5.84l9.57-45.85a2.56,2.56,0,0,1,2.27-2.24l10.28-.11A2.54,2.54,0,0,1,25,14.57l9.54,45.86a29.82,29.82,0,0,1,.62,6l.09,106.13c0,3.57-2.07,6.47-4.63,6.47l-26,0C2.15,179,.1,176.18.09,172.66Z" class="cls-2"/><rect width="20.89" height="31.81" x="7.35" y="117.37" class="cls-3" transform="translate(35.72 266.53) rotate(179.95)"/><rect width="20.89" height="31.81" x="7.64" y="85.55" class="cls-4" transform="translate(36.27 202.9) rotate(179.95)"/><path d="M15.14,105.78a2.34,2.34,0,0,1,1.68-.76,1.39,1.39,0,0,1,1.35.84h.08a1.32,1.32,0,0,1,.23-.32,1.74,1.74,0,0,1,.34-.33,1.6,1.6,0,0,1,1-.36,2.38,2.38,0,0,1,1.88.86,3.12,3.12,0,0,1,.74,2.14,3.18,3.18,0,0,1-.74,2.14,2.83,2.83,0,0,1-.76.56,1.77,1.77,0,0,1-.28.12l-.11,0a1.81,1.81,0,0,1-.57.12c-.41,0-.62-.35-.62-1a1,1,0,0,1,.11-.56,1,1,0,0,1,.55-.32.86.86,0,0,0,.51-.59,1.33,1.33,0,0,0,.07-.45,1.27,1.27,0,0,0-.23-.83.69.69,0,0,0-.52-.27.67.67,0,0,0-.51.26,1,1,0,0,0-.22.62,2.92,2.92,0,0,1,0,.49.82.82,0,0,1-.1.27c-.1.2-.37.29-.82.29s-.8-.13-.89-.39a2,2,0,0,1-.05-.56q0-.81-.42-.81a.58.58,0,0,0-.43.22.84.84,0,0,0-.2.59,1.16,1.16,0,0,0,.13.6.6.6,0,0,0,.26.28l.12.06a.78.78,0,0,1,.54.71,1.15,1.15,0,0,1-.2.58c-.2.36-.44.54-.71.54a2.72,2.72,0,0,1-.73-.25,3,3,0,0,1-.33-.23,2.24,2.24,0,0,1-.42-.45,2.55,2.55,0,0,1-.33-.7,3.2,3.2,0,0,1-.15-1A2.87,2.87,0,0,1,15.14,105.78Z" class="cls-5"/><path d="M19.94,98.88a2.41,2.41,0,0,1,1.81.77,2.66,2.66,0,0,1,.72,1.87,2.5,2.5,0,0,1-.89,2.1,3.64,3.64,0,0,1-2.3.7,5.08,5.08,0,0,1-3.4-1.16A3.92,3.92,0,0,1,14.51,100a1.23,1.23,0,0,1,.11-.59.44.44,0,0,1,.3-.25,1.46,1.46,0,0,1,.51-.07,1.59,1.59,0,0,1,.49.06.73.73,0,0,1,.28.12.44.44,0,0,1,.14.22,2.17,2.17,0,0,1,.06.62,2.4,2.4,0,0,0,.15.84,2,2,0,0,0,.36.65,2.2,2.2,0,0,0,.79.58l.15,0a1.89,1.89,0,0,1-.18-.79,2.54,2.54,0,0,1,.7-1.81A2.11,2.11,0,0,1,19.94,98.88Zm.78,2.69c0-.55-.24-.82-.71-.82a.69.69,0,0,0-.46.18.78.78,0,0,0-.21.6.93.93,0,0,0,.19.63.6.6,0,0,0,.4.22,1.19,1.19,0,0,0,.31,0,1.12,1.12,0,0,0,.24-.1C20.64,102.15,20.72,101.92,20.72,101.57Z" class="cls-5"/><path d="M15.78,97.75a1.54,1.54,0,0,1-1.18-.49,1.61,1.61,0,0,1-.46-1.12,1.61,1.61,0,0,1,1.64-1.6A1.48,1.48,0,0,1,17,95a1.64,1.64,0,0,1,.44,1.1,1.61,1.61,0,0,1-.45,1.11A1.49,1.49,0,0,1,15.78,97.75Zm.42-1.22a.59.59,0,0,0,.15-.38.64.64,0,0,0-.15-.39.52.52,0,0,0-.43-.19.53.53,0,0,0-.44.18.59.59,0,0,0-.14.39.64.64,0,0,0,.14.39.52.52,0,0,0,.44.19A.49.49,0,0,0,16.2,96.53Z" class="cls-5"/></svg>