<svg xmlns="http://www.w3.org/2000/svg" viewBox="0 0 451.37 222.26"><defs><style>.cls-1,.cls-7{fill:#fff;}.cls-1{stroke:#ff6c78;stroke-miterlimit:10;stroke-width:3px;}.cls-2{fill:#e18d63;}.cls-3{fill:#cd0014;}.cls-4{fill:#d8d8d8;}.cls-5{fill:#f50000;}.cls-6{fill:#1d1d1b;}.cls-8{fill:#8e4f2a;}.cls-9{fill:#6dc371;}.cls-10{fill:#00ea60;}</style></defs><title>Middel 56</title><g id="Laag_2" data-name="Laag 2"><g id="Laag_6" data-name="Laag 6"><path class="cls-1" d="M267.07,219.54,149.49,188c-15.77-4.23-25.73-18.3-22.25-31.42L163.81,18.81c3.48-13.12,19.09-20.33,34.86-16.1L316.25,34.26C332,38.5,342,52.57,338.5,65.69L301.93,203.45C298.44,216.57,282.84,223.78,267.07,219.54Z"/><path class="cls-2" d="M176.72,125.62c-.93-18.66,14.92-30.16,14.92-30.16a30.47,30.47,0,0,1-25.26-3.72c21.38-7.57,24.76-12,24.76-12s-5.67-3.39-19.53-.28c5.52-14,22.46-15.88,22.46-15.88S177.28,57.68,190.66,38c7.93,16.88,17.08,10.91,17.08,10.91s3.77-1.51-7.7-14.86c19.29.14,27.35,9.91,27.35,9.91S231.9,35,243.66,37c-8.71,10.45,3.43,15.84,3.43,15.84s8.47-6.55,6.95-13.27c16.07,8.4,8.88,21.59,8.88,21.59s9.43-4.19,25.14-.36c-13.54,10.9-14.35,19.69-14.78,19.91.28-.13-3.16,18.38-3.16,18.38-2.89,9-4.63,16.66-24.23,14l-26.07,1.59L217,117.86l-7.75-3.54S186.33,115.67,176.72,125.62Z"/><path class="cls-2" d="M234.06,158.34a88.69,88.69,0,0,1-22.16-5.94c-4.52-2-8.48-7.74-8.43-12.06A58.85,58.85,0,0,1,207.34,121c1.65-3.9,8.19-7.08,13.55-6.53a88.69,88.69,0,0,1,24.19,6.5c4.91,2.2,9,8.23,8.51,12.44a58.6,58.6,0,0,1-6.25,18.74C245.25,155.89,239,158.91,234.06,158.34Z"/><path class="cls-2" d="M276.58,155.13a4.49,4.49,0,0,0-2.64-4.16c-17.76-9.25-22.22-21.54-22.4-22.06a5.54,5.54,0,0,0-6.09-3.31c-2.6.44-4.08,2.65-3.32,4.92.22.66,5.64,16.21,27.3,27.49,2.41,1.25,5.37.69,6.61-1.25A3.29,3.29,0,0,0,276.58,155.13Z"/><path class="cls-2" d="M207.11,189.68l-31.7-8.51c-1.75-.46-2.58-2.24-1.62-3.45,4.84-6.13,19.67-7.76,28.76-5.32,9.37,2.52,9.39,8.5,7.66,15.8A2.42,2.42,0,0,1,207.11,189.68Z"/><path class="cls-2" d="M202.64,187.65c-2.46-.66-4.13-2.8-3.79-4.93L205,144.25c.36-2.25,2.83-3.66,5.51-3.13s4.57,2.77,4.21,5l-6.13,38.47c-.36,2.25-2.83,3.65-5.51,3.13Z"/><path class="cls-2" d="M219.8,193.09l31.69,8.5c1.75.47,3.36-.65,3.13-2.18-1.17-7.74-13.22-16.58-22.31-19-9.37-2.52-12.35,2.66-14.47,9.86A2.44,2.44,0,0,0,219.8,193.09Z"/><path class="cls-2" d="M224.68,193.56l-.41-.13c-2.59-.89-4-3.34-3.23-5.48l13.75-36.42c.8-2.13,3.55-3.15,6.14-2.25s4,3.35,3.23,5.48l-13.75,36.43C229.65,193.21,227.14,194.22,224.68,193.56Z"/><path class="cls-3" d="M211.27,189.35a2.61,2.61,0,0,1-3.37,1.6l-34.44-9.24c-1.9-.51-2.81-2.44-1.76-3.75a.76.76,0,0,1,.08-.11c2.47-3,7.2-5,12.56-6a44.37,44.37,0,0,1,18.61.38c9.82,2.63,10.19,8.76,8.52,16.32C211.4,188.78,211.34,189.06,211.27,189.35Z"/><path class="cls-4" d="M211.27,189.35a2.61,2.61,0,0,1-3.37,1.6l-34.44-9.24c-1.9-.51-2.81-2.44-1.76-3.75a.76.76,0,0,1,.08-.11l39.69,10.65C211.4,188.78,211.34,189.06,211.27,189.35Z"/><path class="cls-3" d="M212.2,181.78l-15.46-10.63.58-4.83a1.24,1.24,0,0,1,1.64-.88l16.33,4.39a1.24,1.24,0,0,1,1,1.56Z"/><path class="cls-3" d="M216.61,190.78a2.63,2.63,0,0,0,2.12,3.08l34.44,9.24c1.9.51,3.65-.71,3.4-2.37a.59.59,0,0,1,0-.13c-.64-3.87-3.76-8-7.89-11.54a44.64,44.64,0,0,0-16.33-9c-9.82-2.64-13.18,2.5-15.47,9.89C216.77,190.22,216.69,190.5,216.61,190.78Z"/><path class="cls-4" d="M216.61,190.78a2.63,2.63,0,0,0,2.12,3.08l34.44,9.24c1.9.51,3.65-.71,3.4-2.37a.59.59,0,0,1,0-.13L216.86,190C216.77,190.22,216.69,190.5,216.61,190.78Z"/><path class="cls-3" d="M219.55,183.75l18.68-1.47,1.89-4.47a1.25,1.25,0,0,0-1-1.59l-16.34-4.38a1.24,1.24,0,0,0-1.64.85Z"/><path class="cls-5" d="M255.61,171.11a218.46,218.46,0,0,1-68.41-18.36c7-12.34,19.31-24.57,23.44-37.79.28-.9,5.13-1.52,9.2-.62,10.34,2.27,15.27,3.26,25.25,6.77,4.76,1.68,7.65,6.21,8,8.86S252.58,155.72,255.61,171.11Z"/><ellipse class="cls-2" cx="276.87" cy="155.26" rx="6.12" ry="7.36" transform="translate(53.77 381.08) rotate(-74.63)"/><ellipse class="cls-2" cx="278.25" cy="148.7" rx="7.58" ry="3.78" transform="translate(-35.55 181.34) rotate(-34.06)"/><ellipse class="cls-2" cx="285.44" cy="154.79" rx="3.25" ry="9.8" transform="matrix(0.37, -0.93, 0.93, 0.37, 35.07, 361.56)"/><ellipse class="cls-2" cx="282.9" cy="160.48" rx="3.29" ry="9.68" transform="translate(0.66 322.12) rotate(-59.37)"/><ellipse class="cls-2" cx="277.19" cy="162.43" rx="3.42" ry="9.33" transform="translate(-32.91 246.42) rotate(-45.53)"/><path class="cls-2" d="M184.65,137.88a5.8,5.8,0,0,1-1.85-.87c-2.18-1.54-2.65-4.19-1-5.91a51.63,51.63,0,0,1,33.69-16.21c2.69-.07,5.14,1.74,5.48,4.06s-1.55,4.23-4.22,4.31a42.14,42.14,0,0,0-27.06,13.43A5.1,5.1,0,0,1,184.65,137.88Z"/><ellipse class="cls-2" cx="183.81" cy="137.91" rx="6.12" ry="7.36" transform="translate(2.11 278.59) rotate(-74.63)"/><ellipse class="cls-2" cx="191.34" cy="140.73" rx="3.59" ry="7.98" transform="translate(-45.38 160.18) rotate(-41.03)"/><ellipse class="cls-2" cx="183.81" cy="145.28" rx="8.35" ry="3.82" transform="translate(-43.56 201.83) rotate(-52.29)"/><ellipse class="cls-2" cx="177.36" cy="141.7" rx="8.6" ry="3.71" transform="translate(-49.61 145.99) rotate(-39.71)"/><ellipse class="cls-2" cx="175.46" cy="136.38" rx="9.06" ry="3.52" transform="matrix(0.92, -0.39, 0.39, 0.92, -39.22, 78.95)"/><path class="cls-2" d="M270,80.84l4,11s10.09-4.06,11-11.7a.9.9,0,0,0-1.11-.85A104.62,104.62,0,0,1,270,80.84Z"/><ellipse class="cls-2" cx="239.82" cy="91.16" rx="29.62" ry="35.62" transform="matrix(0.27, -0.96, 0.96, 0.27, 88.35, 298.24)"/><path class="cls-2" d="M224.68,104.61c-1.8,6.78,3.35,14,11.5,16.24,19.56,4.55,41,3.72,41.71-4.31.7-2.35-5.47-4-7.32-8.26C267.61,101.41,226.48,97.83,224.68,104.61Z"/><path class="cls-6" d="M274.28,116c0,1.73,3.25,3.39,7.24,3.7s6-1.18,6-2.91-2-3.06-6-3.37S274.27,114.25,274.28,116Z"/><ellipse class="cls-7" cx="284.68" cy="115.41" rx="0.69" ry="1.66" transform="translate(84.59 348.48) rotate(-71.42)"/><path class="cls-2" d="M231.18,72.26s-6.19-7.88-13-10.69c-.57-.24-1,.35-.9.87.88,6.33,1.29,12.22,1.29,12.22"/><path class="cls-8" d="M218.51,75.06a.49.49,0,0,1-.38-.41c0-.06-.42-6-1.29-12.2a1.21,1.21,0,0,1,.56-1.21,1.12,1.12,0,0,1,1,0c6.81,2.83,12.92,10.52,13.17,10.85a.36.36,0,0,1-.11.57.55.55,0,0,1-.68-.15c-.07-.08-6.2-7.8-12.74-10.52,0,0,0,0-.05,0a.5.5,0,0,0-.18.48c.87,6.27,1.29,12.19,1.29,12.25a.4.4,0,0,1-.46.4Z"/><path class="cls-8" d="M257.47,122.51c-2.78-.74-8.44-2.85-11.46-8.16a.61.61,0,0,1,.36-.91,1,1,0,0,1,1.1.4c3.6,6.32,11.66,7.64,11.75,7.66a.8.8,0,0,1,.74.81.72.72,0,0,1-.88.56A16.25,16.25,0,0,1,257.47,122.51Z"/><path class="cls-8" d="M244.19,83.3a.92.92,0,0,1-.52-.35c-.41-.57-4.29-5.5-14.46-5.07a.89.89,0,0,1-.93-.66.66.66,0,0,1,.7-.73c11.17-.47,15.58,5.15,16.05,5.8a.71.71,0,0,1,.15.48.73.73,0,0,1-.9.55Z"/><path class="cls-8" d="M255.54,87l-.11,0A.72.72,0,0,1,255,86a.69.69,0,0,1,.37-.34c.79-.32,7.5-2.77,16.74,3.43a.65.65,0,0,1,.2,1,.9.9,0,0,1-1.14.09c-8.44-5.67-14.33-3.5-15-3.23A1,1,0,0,1,255.54,87Z"/><path class="cls-6" d="M231.7,85.21a23.25,23.25,0,0,1-2-1.61,24.38,24.38,0,0,1-1.77-1.75,14.81,14.81,0,0,1-1.48-1.91,8.55,8.55,0,0,1-1-2.08,9,9,0,0,0,1.29,1.93,16.79,16.79,0,0,0,1.71,1.66,23.67,23.67,0,0,0,2,1.47c.67.45,1.38.89,2.07,1.27h0a.64.64,0,0,1,.31.9.81.81,0,0,1-1,.18Z"/><path class="cls-6" d="M230,86.37a23.89,23.89,0,0,1-2.18-1.4,21.85,21.85,0,0,1-2-1.56,16.9,16.9,0,0,1-1.74-1.75,9,9,0,0,1-1.26-2,9.41,9.41,0,0,0,1.55,1.8A15.65,15.65,0,0,0,226.29,83a23.67,23.67,0,0,0,2.12,1.26c.72.38,1.49.75,2.22,1.05h0a.66.66,0,0,1,.43.86.74.74,0,0,1-1,.29Z"/><ellipse class="cls-7" cx="235.75" cy="91.24" rx="8.79" ry="10.57" transform="translate(85.29 294.37) rotate(-74.63)"/><ellipse class="cls-9" cx="232.56" cy="90.38" rx="4.03" ry="4.85" transform="translate(83.77 290.66) rotate(-74.63)"/><ellipse class="cls-6" cx="232.56" cy="90.38" rx="2.27" ry="2.74" transform="translate(83.77 290.66) rotate(-74.63)"/><ellipse class="cls-7" cx="233.99" cy="88.92" rx="1.61" ry="1.94" transform="matrix(0.27, -0.96, 0.96, 0.27, 86.22, 290.98)"/><ellipse class="cls-7" cx="230.89" cy="92" rx="0.63" ry="0.75" transform="translate(80.97 290.25) rotate(-74.63)"/><path class="cls-6" d="M268.42,95.06a24.13,24.13,0,0,0,2.52-.4,23.43,23.43,0,0,0,2.4-.62,14.7,14.7,0,0,0,2.23-.92,8.52,8.52,0,0,0,1.88-1.31,8.86,8.86,0,0,1-2.07,1,16.29,16.29,0,0,1-2.31.59,24,24,0,0,1-2.41.29c-.81.06-1.65.09-2.43.07h0a.62.62,0,0,0-.71.62.8.8,0,0,0,.8.67Z"/><path class="cls-6" d="M269.32,96.93c.9,0,1.74,0,2.59-.12s1.68-.19,2.5-.35a16.68,16.68,0,0,0,2.38-.66,8.9,8.9,0,0,0,2.08-1.08,10,10,0,0,1-2.23.78,17.66,17.66,0,0,1-2.41.32c-.82.05-1.64.05-2.47,0s-1.66-.1-2.44-.2h0a.67.67,0,0,0-.8.54.76.76,0,0,0,.71.74Z"/><ellipse class="cls-7" cx="261.88" cy="98.25" rx="8.79" ry="10.57" transform="translate(97.73 324.72) rotate(-74.63)"/><ellipse class="cls-9" cx="258.69" cy="97.39" rx="4.03" ry="4.85" transform="translate(96.21 321.01) rotate(-74.63)"/><ellipse class="cls-6" cx="258.69" cy="97.39" rx="2.27" ry="2.74" transform="translate(96.21 321.01) rotate(-74.63)"/><ellipse class="cls-7" cx="260.12" cy="95.94" rx="1.61" ry="1.94" transform="translate(98.67 321.32) rotate(-74.63)"/><ellipse class="cls-7" cx="257.02" cy="99.02" rx="0.63" ry="0.75" transform="matrix(0.27, -0.96, 0.96, 0.27, 93.42, 320.6)"/><path class="cls-1" d="M190.54,188.87,72.59,219c-15.82,4-31.4-3.34-34.79-16.49L2.16,64.5c-3.4-13.14,6.68-27.08,22.5-31.12l118-30.11c15.82-4,31.4,3.34,34.79,16.48l35.64,138C216.44,170.9,206.36,184.83,190.54,188.87Z"/><path class="cls-2" d="M65.75,151.28C55.8,135.47,64,117.67,64,117.67a30.52,30.52,0,0,1-23.85,9.15c14.93-17.08,15.71-22.57,15.71-22.57s-6.6-.18-17.15,9.32c-2-14.9,11.79-24.85,11.79-24.85S33,91.79,35,68.07C50.16,78.9,55.2,69.21,55.2,69.21S57.75,66,41.21,60C58.09,50.7,69.9,55.26,69.9,55.26s-.43-10,10.8-14C78.22,54.63,91.45,53.38,91.45,53.38s4.17-9.85-.45-15c18.13-.55,18.33,14.46,18.33,14.46s6.16-8.26,21.73-12.63c-6.46,16.14-2.86,24.2-3.13,24.6.18-.25,6.27,17.57,6.27,17.57,1.87,9.24,4.12,16.8-14.26,24.1L98,120.67l-.94,4.1-8.5.72S69.26,137.9,65.75,151.28Z"/><path class="cls-2" d="M131.78,151.7a89.36,89.36,0,0,1-22.23,5.68c-4.9.5-11.19-2.59-13.26-6.38a58.59,58.59,0,0,1-6.12-18.8c-.48-4.2,3.67-10.17,8.6-12.32a89,89,0,0,1,24.28-6.2c5.36-.48,11.89,2.77,13.51,6.68a58.69,58.69,0,0,1,3.74,19.4C140.33,144.08,136.31,149.8,131.78,151.7Z"/><path class="cls-2" d="M167.27,128.06a4.5,4.5,0,0,0-4.34-2.33c-20,.64-29.93-7.89-30.34-8.25a5.51,5.51,0,0,0-6.93.1c-2,1.65-2.26,4.31-.48,5.91.51.47,12.86,11.37,37.27,10.58,2.71-.08,5-2,5.15-4.33A3.51,3.51,0,0,0,167.27,128.06Z"/><path class="cls-2" d="M123.65,192.22l-31.8,8.12c-1.76.45-3.36-.68-3.11-2.21,1.22-7.71,13.35-16.41,22.46-18.73,9.4-2.4,12.35,2.8,14.42,10A2.4,2.4,0,0,1,123.65,192.22Z"/><path class="cls-2" d="M118.76,192.64c-2.47.63-5-.41-5.73-2.44L99.52,153.67c-.79-2.14.68-4.58,3.27-5.44s5.35.18,6.14,2.32l13.5,36.54c.79,2.14-.67,4.57-3.27,5.43Z"/><path class="cls-2" d="M136.37,189l31.8-8.12c1.76-.44,2.6-2.21,1.65-3.43-4.8-6.17-19.65-8-28.76-5.65-9.4,2.4-9.46,8.37-7.78,15.69A2.42,2.42,0,0,0,136.37,189Z"/><path class="cls-2" d="M140.86,187l-.42.09c-2.69.49-5.15-1-5.49-3.2l-5.87-38.49c-.35-2.25,1.55-4.48,4.25-5s5.15.94,5.49,3.19l5.88,38.49C145,184.25,143.33,186.36,140.86,187Z"/><path class="cls-3" d="M127.11,189.9a2.61,2.61,0,0,1-2.15,3l-34.55,8.83c-1.91.48-3.64-.75-3.38-2.41,0,0,0-.09,0-.13.67-3.86,3.81-7.92,8-11.43a44.5,44.5,0,0,1,16.41-8.8c9.85-2.51,13.18,2.65,15.42,10.06C127,189.34,127,189.61,127.11,189.9Z"/><path class="cls-4" d="M127.11,189.9a2.61,2.61,0,0,1-2.15,3l-34.55,8.83c-1.91.48-3.64-.75-3.38-2.41,0,0,0-.09,0-.13l39.81-10.17C127,189.34,127,189.61,127.11,189.9Z"/><path class="cls-3" d="M124.21,182.84l-18.69-1.69-1.86-4.49a1.24,1.24,0,0,1,1-1.57l16.39-4.18a1.26,1.26,0,0,1,1.64.87Z"/><path class="cls-3" d="M132.46,188.53a2.63,2.63,0,0,0,3.36,1.64l34.55-8.82c1.91-.49,2.83-2.4,1.8-3.73l-.08-.11c-2.45-3-7.18-5.11-12.53-6.19a44.51,44.51,0,0,0-18.64.16c-9.86,2.51-10.27,8.63-8.65,16.2C132.34,188,132.4,188.24,132.46,188.53Z"/><path class="cls-4" d="M132.46,188.53a2.63,2.63,0,0,0,3.36,1.64l34.55-8.82c1.91-.49,2.83-2.4,1.8-3.73l-.08-.11-39.82,10.17C132.34,188,132.4,188.24,132.46,188.53Z"/><path class="cls-3" d="M131.58,181l15.57-10.43-.55-4.82a1.25,1.25,0,0,0-1.64-.9L128.57,169a1.25,1.25,0,0,0-1,1.55Z"/><path class="cls-5" d="M156.82,152.27a218.75,218.75,0,0,1-68.63,17.52c0-14.18,4.79-30.88,1.91-44.43-.2-.92,3.73-3.83,7.72-5,10.12-3.09,14.9-4.64,25.33-6.47,5-.87,9.71,1.66,11.34,3.78S146.64,140.34,156.82,152.27Z"/><ellipse class="cls-2" cx="167.59" cy="128.03" rx="7.36" ry="6.12" transform="translate(-25.96 44.26) rotate(-13.98)"/><ellipse class="cls-2" cx="165.58" cy="121.63" rx="7.58" ry="3.78" transform="translate(-17.31 215.24) rotate(-63.4)"/><ellipse class="cls-2" cx="174.82" cy="123.42" rx="9.8" ry="3.25" transform="translate(-14.39 23.45) rotate(-7.37)"/><ellipse class="cls-2" cx="175.4" cy="129.63" rx="3.29" ry="9.68" transform="translate(41.86 302.07) rotate(-88.71)"/><ellipse class="cls-2" cx="171.38" cy="134.12" rx="3.42" ry="9.33" transform="translate(-2.82 264.56) rotate(-74.87)"/><path class="cls-2" d="M78.68,158.08a6,6,0,0,1-2,.15c-2.66-.28-4.36-2.36-3.8-4.65a51.68,51.68,0,0,1,21.43-30.64c2.31-1.38,5.33-1,6.77.85s.72,4.45-1.57,5.83a42.19,42.19,0,0,0-17,25A5.07,5.07,0,0,1,78.68,158.08Z"/><ellipse class="cls-2" cx="77.96" cy="158.52" rx="7.36" ry="6.12" transform="translate(-35.98 23.52) rotate(-13.98)"/><ellipse class="cls-2" cx="85.91" cy="157.28" rx="3.59" ry="7.98" transform="translate(-91.09 185.39) rotate(-70.38)"/><ellipse class="cls-2" cx="81.57" cy="164.94" rx="8.35" ry="3.82" transform="translate(-93.48 221.66) rotate(-81.64)"/><ellipse class="cls-2" cx="74.2" cy="164.98" rx="8.6" ry="3.71" transform="translate(-106.41 175.29) rotate(-69.05)"/><ellipse class="cls-2" cx="69.93" cy="161.27" rx="9.06" ry="3.52" transform="translate(-100.38 117.77) rotate(-52.23)"/><path class="cls-2" d="M125.1,66.55l8.91,7.6s6.8-8.49,3.84-15.58a.89.89,0,0,0-1.38-.21A104.3,104.3,0,0,1,125.1,66.55Z"/><ellipse class="cls-2" cx="103.88" cy="90.32" rx="35.62" ry="29.62" transform="translate(-18.74 27.76) rotate(-13.98)"/><path class="cls-2" d="M97.27,109.46c1.76,6.79,9.81,10.61,18,8.52,19.28-5.62,37.59-16.87,34.25-24.2-.55-2.39-6.71-.77-10.43-3.61C133.12,85.63,95.52,102.67,97.27,109.46Z"/><path class="cls-6" d="M146.08,95.07c.85,1.51,4.49,1.36,8.13-.32s4.61-4,3.76-5.46-3.22-1.69-6.86,0S145.22,93.56,146.08,95.07Z"/><ellipse class="cls-7" cx="154.86" cy="89.47" rx="1.66" ry="0.69" transform="translate(-13.99 30.51) rotate(-10.77)"/><path class="cls-2" d="M87.08,78.07s-9.26-3.82-16.52-3c-.62.08-.69.78-.37,1.2,3.87,5.09,7.12,10,7.12,10"/><path class="cls-8" d="M77.41,86.73a.49.49,0,0,1-.53-.18s-3.29-5-7.11-10a1.24,1.24,0,0,1-.11-1.33,1.18,1.18,0,0,1,.87-.53c7.32-.87,16.41,2.84,16.8,3a.38.38,0,0,1,.18.56.57.57,0,0,1-.67.2c-.09,0-9.23-3.76-16.26-2.93,0,0,0,0,0,0a.53.53,0,0,0,.08.5c3.84,5,7.1,10,7.13,10a.41.41,0,0,1-.2.58Z"/><path class="cls-8" d="M134.62,109c-2.79.71-8.75,1.64-14-1.51a.61.61,0,0,1-.13-1,1,1,0,0,1,1.15-.2c6.24,3.75,13.92,1,14,.92a.81.81,0,0,1,1,.35.72.72,0,0,1-.49.92C136.11,108.55,135.54,108.76,134.62,109Z"/><path class="cls-8" d="M103.84,81.32a.93.93,0,0,1-.64,0c-.63-.29-6.42-2.69-15.08,2.67A.9.9,0,0,1,87,83.82a.66.66,0,0,1,.25-1C96.74,77,103.34,79.7,104.07,80a.68.68,0,0,1,.36.35.72.72,0,0,1-.51.92Z"/><path class="cls-8" d="M115.51,78.94l-.11,0a.66.66,0,0,1-.71-1.06c.53-.67,5.18-6.09,16.27-5.21a.65.65,0,0,1,.66.76.88.88,0,0,1-1,.62c-10.14-.8-14.21,4-14.64,4.54A1,1,0,0,1,115.51,78.94Z"/><path class="cls-6" d="M93.87,89.11a25,25,0,0,1-2.52-.43A23.33,23.33,0,0,1,89,88a15.86,15.86,0,0,1-2.23-.94,8.33,8.33,0,0,1-1.87-1.34,8.89,8.89,0,0,0,2.06,1,16.71,16.71,0,0,0,2.31.61,24.26,24.26,0,0,0,2.42.32c.8.07,1.64.11,2.42.1h0a.62.62,0,0,1,.7.63.79.79,0,0,1-.8.65Z"/><path class="cls-6" d="M93,91a24.2,24.2,0,0,1-2.59-.15c-.85-.09-1.68-.21-2.5-.38a16.73,16.73,0,0,1-2.38-.68,9.31,9.31,0,0,1-2.07-1.11,9.51,9.51,0,0,0,2.22.81,17.71,17.71,0,0,0,2.41.35c.82.06,1.65.07,2.47,0A24.36,24.36,0,0,0,93,89.68h0a.67.67,0,0,1,.8.54.76.76,0,0,1-.71.73Z"/><ellipse class="cls-7" cx="100.37" cy="92.38" rx="10.57" ry="8.79" transform="translate(-19.34 26.97) rotate(-13.98)"/><ellipse class="cls-9" cx="97.16" cy="93.2" rx="4.85" ry="4.03" transform="translate(-19.63 26.22) rotate(-13.98)"/><ellipse class="cls-6" cx="97.16" cy="93.2" rx="2.74" ry="2.27" transform="translate(-19.63 26.22) rotate(-13.98)"/><ellipse class="cls-7" cx="97.7" cy="91.22" rx="1.94" ry="1.61" transform="translate(-19.14 26.3) rotate(-13.98)"/><ellipse class="cls-7" cx="96.5" cy="95.43" rx="0.75" ry="0.63" transform="translate(-20.19 26.13) rotate(-13.98)"/><path class="cls-6" d="M130.72,79.7c.72-.51,1.36-1,2-1.58a20.81,20.81,0,0,0,1.78-1.73A14.8,14.8,0,0,0,136,74.5a8,8,0,0,0,1-2.06,9,9,0,0,1-1.3,1.91A15.86,15.86,0,0,1,134,76a23.52,23.52,0,0,1-2,1.44c-.67.44-1.39.88-2.08,1.24h0a.62.62,0,0,0-.31.89.79.79,0,0,0,1,.19Z"/><path class="cls-6" d="M132.41,80.88a22.74,22.74,0,0,0,2.2-1.37,23.61,23.61,0,0,0,2-1.53,16.84,16.84,0,0,0,1.75-1.73,8.63,8.63,0,0,0,1.28-2,9.34,9.34,0,0,1-1.56,1.77,15.38,15.38,0,0,1-1.94,1.46A23.57,23.57,0,0,1,134,78.74c-.73.38-1.5.74-2.23,1h0a.66.66,0,0,0-.44.86.76.76,0,0,0,1,.3Z"/><ellipse class="cls-7" cx="126.58" cy="85.68" rx="10.57" ry="8.79" transform="translate(-16.95 33.11) rotate(-13.98)"/><ellipse class="cls-9" cx="123.38" cy="86.5" rx="4.85" ry="4.03" transform="translate(-17.24 32.36) rotate(-13.98)"/><ellipse class="cls-6" cx="123.38" cy="86.5" rx="2.74" ry="2.27" transform="translate(-17.24 32.36) rotate(-13.98)"/><ellipse class="cls-7" cx="123.91" cy="84.53" rx="1.94" ry="1.61" transform="translate(-16.75 32.43) rotate(-13.98)"/><ellipse class="cls-7" cx="122.72" cy="88.73" rx="0.75" ry="0.63" transform="translate(-17.8 32.26) rotate(-13.98)"/><path class="cls-10" d="M353.44,188.38,297.75,132.7A15,15,0,0,1,319,111.48L353.44,146l72.32-72.32A15,15,0,0,1,447,94.85Z"/></g></g></svg>