<svg id="Laag_1" data-name="Laag 1" xmlns="http://www.w3.org/2000/svg" viewBox="0 0 566.93 566.93"><defs><style>.cls-1,.cls-5{fill:#761e1e;}.cls-2{fill:#fff;}.cls-3{fill:#222221;}.cls-4{fill:#c10e1a;}.cls-5{stroke:#ca4f24;stroke-linecap:round;stroke-miterlimit:10;stroke-width:12px;}.cls-6{fill:#fff496;}</style></defs><title>Tekengebied 1 kopie</title><path class="cls-1" d="M75.88,290c0,27.34,7.86,55.88,17.72,79.66,10.22,24.65,33.54,42,52.11,60.54s38.68,35.17,63.33,45.39c23.78,9.86,49.53,6.4,76.87,6.4s48.89-6.7,72.67-16.56c24.65-10.22,56.19-9.42,74.77-28s19.48-49.41,29.7-74.06c9.87-23.78,28-46,28-73.37s-7.29-54.09-17.15-77.87c-10.22-24.65-35.26-37.7-53.84-56.28s-35.9-33.3-60.56-43.53c-23.78-9.86-46.24-27.95-73.59-27.95S233,95,209.23,104.84c-24.65,10.22-50,21.35-68.54,39.92S100.6,184.34,90.38,209C80.52,232.77,75.88,262.64,75.88,290Z"/><circle class="cls-2" cx="285.91" cy="256.04" r="90.14"/><circle class="cls-3" cx="285.91" cy="256.04" r="52.29"/><path class="cls-4" d="M261.57,256a24.24,24.24,0,1,0,48.16-3.75,90.09,90.09,0,0,1,20.88,10.84,45.36,45.36,0,0,1-89.39,1.36,90.19,90.19,0,0,1,20.54-11.38A25.74,25.74,0,0,0,261.57,256Z"/><path class="cls-1" d="M240.41,256a45.41,45.41,0,0,1,90.81,0,46,46,0,0,1-.61,7.09,90.09,90.09,0,0,0-20.88-10.84A24.23,24.23,0,1,1,261.57,256a25.74,25.74,0,0,1,.19-2.93,90.19,90.19,0,0,0-20.54,11.38A46.11,46.11,0,0,1,240.41,256Z"/><circle class="cls-2" cx="269.56" cy="241.02" r="18.15"/><path class="cls-5" d="M170.34,149.21s53.21,58.65,109,72.21,125.72-72.21,125.72-72.21"/><polygon class="cls-6" points="372.71 405.42 347.06 435.15 321.41 405.42 295.75 435.15 270.11 405.42 244.45 435.15 218.8 405.42 193.13 435.15 162.16 373.88 193.11 386.06 218.77 356.34 244.42 386.06 270.07 356.34 295.72 386.06 321.38 356.34 347.03 386.06 372.7 356.34 395.28 385.74 413.23 376.65 383.61 416.62 372.71 405.42"/></svg>