<svg id="Laag_1" data-name="Laag 1" xmlns="http://www.w3.org/2000/svg" viewBox="0 0 566.93 566.93"><defs><style>.cls-1,.cls-7{fill:#f1cb45;}.cls-2{fill:#ca4f24;}.cls-3{fill:#fff;}.cls-4{fill:#222221;}.cls-5{fill:#c10e1a;}.cls-6{fill:#761e1e;}.cls-7{stroke:#ca4f24;stroke-linecap:round;stroke-miterlimit:10;stroke-width:12px;}.cls-8{fill:#80217e;}.cls-9{fill:#dc9998;}</style></defs><title>Tekengebied 1</title><path class="cls-1" d="M153.62,410.67c-26.16,95.44,133.69,193.93,243.07,56.69S375.33,254.06,340,225s-22.75-60.75-28.23-116.25c-9.29-94.15-133.1-97.41-169.95-33.91C121.59,109.77,116,133,170.67,241.14S170.45,349.28,153.62,410.67Z"/><path class="cls-2" d="M160.41,412.53a74.14,74.14,0,0,0-2.54,19c-.06,1.6.08,3.2.11,4.8s.27,3.19.41,4.79a78.59,78.59,0,0,0,1.79,9.47,93.26,93.26,0,0,0,17.33,34.87A114.16,114.16,0,0,0,207.23,512a123.9,123.9,0,0,0,37.23,15.45,127.79,127.79,0,0,0,40.44,2.92,135.38,135.38,0,0,0,39.68-9.68A147.84,147.84,0,0,0,343,511.46a151.55,151.55,0,0,0,17.07-11.64c2.76-2.06,5.35-4.36,8-6.58l3.83-3.5c.63-.59,1.28-1.16,1.9-1.76l1.85-1.82a203,203,0,0,0,14-15.28,233.7,233.7,0,0,0,23.46-34.18A168.49,168.49,0,0,0,428.79,399a122.6,122.6,0,0,0,3.73-19.76c.13-1.67.34-3.32.4-5l.12-2.49c.06-.83.12-1.66.14-2.49.16-3.31.2-6.63,0-9.94a104.58,104.58,0,0,0-2.75-19.67A113.43,113.43,0,0,0,424,320.72,127.8,127.8,0,0,0,414.46,303a158.18,158.18,0,0,0-12-16.43,242.68,242.68,0,0,0-29.09-29.15c-5.25-4.51-10.65-8.87-16.12-13.19s-11.05-8.53-16.62-13a103.8,103.8,0,0,1-8.23-7.21,72.44,72.44,0,0,1-7.4-8.32,62.77,62.77,0,0,1-10.25-19.84A92.79,92.79,0,0,1,311,174.29c-.49-7.17-.51-14.26-.49-21.29.05-14.05.1-28-1.08-41.86-.25-3.48-.67-6.83-1.21-10.23a87.43,87.43,0,0,0-2.3-10,80.34,80.34,0,0,0-8.13-18.7,74.6,74.6,0,0,0-29.52-27.51,88.25,88.25,0,0,0-39.43-9.65,101.14,101.14,0,0,0-39.66,7.44,88.66,88.66,0,0,0-32.42,22.22,80,80,0,0,0-6.05,7.6c-1.84,2.69-3.41,5.34-5.11,8.43s-3.25,6-4.67,9a94.55,94.55,0,0,0-3.77,9A73.71,73.71,0,0,0,134.6,108a73.56,73.56,0,0,0-1.12,9.53,74.56,74.56,0,0,0,.15,9.79l.18,2.47.29,2.49c.16,1.65.44,3.31.7,5a172.63,172.63,0,0,0,4.58,19.9c1.9,6.61,4,13.2,6.48,19.7,1.18,3.26,2.47,6.5,3.73,9.74s2.64,6.44,4,9.65q4.11,9.62,8.55,19.12c1.47,3.17,3,6.33,4.47,9.48s3,6.32,4.56,9.46l4.59,9.49,2.3,4.79c.77,1.59,1.45,3.23,2.19,4.84l2.16,4.85c.7,1.63,1.35,3.29,2,4.93s1.36,3.28,2,4.93l1.83,5,.93,2.5c.3.84.56,1.7.84,2.54l1.67,5.09c.51,1.71,1,3.44,1.45,5.16l.72,2.59.61,2.62.6,2.63c.21.87.41,1.75.54,2.64l.92,5.34.61,5.4c.17,1.8.22,3.63.32,5.45a71,71,0,0,1-2.62,21.81A94.78,94.78,0,0,1,186.15,357c-3.53,6.27-7.18,12.35-10.53,18.43A166.18,166.18,0,0,0,160.41,412.53Zm-13.58-3.72a95.74,95.74,0,0,1,8.49-20.58,150.77,150.77,0,0,1,12.15-18.1c4.28-5.69,8.62-11.16,12.3-16.93A76.57,76.57,0,0,0,188.4,335a62.05,62.05,0,0,0,2.72-19.77c-.09-1.68-.09-3.37-.23-5.05l-.54-5.06-.85-5c-.12-.85-.31-1.68-.51-2.52l-.56-2.5-.57-2.51-.7-2.48c-.47-1.65-.92-3.31-1.42-5l-1.64-4.91c-.28-.81-.54-1.64-.83-2.45l-.92-2.42-1.86-4.85c-.65-1.6-1.36-3.19-2-4.79s-1.34-3.19-2.06-4.77l-2.19-4.73c-.75-1.57-1.44-3.16-2.23-4.71l-2.33-4.67c-1.53-3.11-3.13-6.24-4.75-9.37s-3.21-6.26-4.78-9.41-3.15-6.3-4.69-9.47c-6.18-12.66-12.12-25.46-17.63-38.53-2.75-6.54-5.4-13.15-7.75-19.91a177.22,177.22,0,0,1-6-20.81,98.13,98.13,0,0,1-2.49-22.13,74.08,74.08,0,0,1,1-11.38,77.32,77.32,0,0,1,2.82-11.09,113.45,113.45,0,0,1,9.45-20,95.79,95.79,0,0,1,6-9.42,81.75,81.75,0,0,1,7.35-8.62A92.58,92.58,0,0,1,186,33.87a113.48,113.48,0,0,1,43.07-5,104.65,104.65,0,0,1,41.32,11.69,93.75,93.75,0,0,1,9.21,5.68A80,80,0,0,1,295.45,61a95.38,95.38,0,0,1,6.26,8.84,84.6,84.6,0,0,1,8.8,19.72A105.34,105.34,0,0,1,313.12,100c.64,3.53,1.15,7.13,1.48,10.65.71,7,1.19,14.1,1.53,21.15s.48,14.09.7,21.09.48,14,1.17,20.78a86.13,86.13,0,0,0,4.07,19.72,56.43,56.43,0,0,0,9.5,17.09,64.87,64.87,0,0,0,6.8,7.18c1.19,1.15,2.49,2.21,3.77,3.28s2.65,2.12,4,3.17c5.49,4.18,11.21,8.3,16.85,12.54s11.25,8.6,16.73,13.14a254,254,0,0,1,30.85,29.84,172.37,172.37,0,0,1,13.13,17.29A140.18,140.18,0,0,1,434.43,316a125.43,125.43,0,0,1,7.47,20.75,117.41,117.41,0,0,1,3.47,21.9c.25,3.69.27,7.4.16,11.1a92.14,92.14,0,0,1-1.17,11,134.61,134.61,0,0,1-5.28,21.31,177.05,177.05,0,0,1-19,38.78c-3.82,6.05-7.94,11.87-12.22,17.55S399.15,469.6,394.52,475s-9.52,10.58-14.66,15.5L378,492.38c-.64.61-1.31,1.2-2,1.8l-4,3.59c-2.73,2.29-5.42,4.63-8.25,6.8s-5.69,4.3-8.59,6.4-5.91,4-9,5.84a169.28,169.28,0,0,1-19,10,145.84,145.84,0,0,1-41.48,11.54,135.87,135.87,0,0,1-43.27-1.8,138.71,138.71,0,0,1-40.73-15.36,126.67,126.67,0,0,1-33.95-27.86A111.13,111.13,0,0,1,155.1,475,96,96,0,0,1,146.71,454a85.86,85.86,0,0,1-3-22.59A87.83,87.83,0,0,1,146.83,408.81Z"/><circle class="cls-3" cx="249.37" cy="223.2" r="50.18"/><circle class="cls-4" cx="249.37" cy="223.2" r="29.11"/><path class="cls-5" d="M235.81,223.2a13.5,13.5,0,0,0,27,0,13.2,13.2,0,0,0-.18-2.09,50,50,0,0,1,11.62,6,25.25,25.25,0,0,1-49.75.75,50.33,50.33,0,0,1,11.43-6.33A14.71,14.71,0,0,0,235.81,223.2Z"/><path class="cls-6" d="M224,223.2a25.28,25.28,0,0,1,50.55,0,24.48,24.48,0,0,1-.34,4,50,50,0,0,0-11.62-6,13.2,13.2,0,0,1,.18,2.09,13.5,13.5,0,0,1-27,0,14.71,14.71,0,0,1,.11-1.63,50.33,50.33,0,0,0-11.43,6.33A25.05,25.05,0,0,1,224,223.2Z"/><circle class="cls-3" cx="240.26" cy="214.84" r="10.1"/><path class="cls-7" d="M180.06,165.62s32.09,28.47,60.2,28.47,45.65-59,45.65-59"/><ellipse class="cls-2" cx="329.32" cy="278.94" rx="15.07" ry="20.86"/><ellipse class="cls-2" cx="202.31" cy="457.83" rx="15.07" ry="20.86"/><ellipse class="cls-2" cx="321.01" cy="493.35" rx="21.47" ry="29.72"/><ellipse class="cls-2" cx="168.84" cy="75.52" rx="17.66" ry="24.45"/><circle class="cls-2" cx="243.67" cy="99.97" r="36.9"/><circle class="cls-2" cx="173.85" cy="136.87" r="10.07"/><circle class="cls-2" cx="400.96" cy="398.14" r="10.07"/><circle class="cls-2" cx="227.66" cy="491.61" r="10.07"/><circle class="cls-2" cx="206.77" cy="325.55" r="16.02"/><circle class="cls-2" cx="321.01" cy="361.44" r="26.63"/><path class="cls-8" d="M380.63,340.56a85.85,85.85,0,1,1-167.84,4.69,85.91,85.91,0,0,0,152.14-37.14A85.32,85.32,0,0,1,380.63,340.56Z"/><path class="cls-9" d="M372.49,402.23a85.82,85.82,0,0,1-123,30c11.69-16.44,31.76-30,56.39-36S354.55,393,372.49,402.23Z"/></svg>