<svg id="Laag_1" data-name="Laag 1" xmlns="http://www.w3.org/2000/svg" viewBox="0 0 566.93 566.93"><defs><style>.cls-1{fill:#c8d79f;}.cls-2{fill:#67a96a;}.cls-3{fill:#fff496;}.cls-4{fill:#222221;}.cls-5{fill:#c10e1a;}.cls-6{fill:#761e1e;}.cls-7{fill:#fff;}.cls-8{fill:#3e3e3d;}.cls-9{fill:#756959;}</style></defs><title>Tekengebied 1 kopie 2</title><path class="cls-1" d="M36.66,421.44c-36.34-6,13.43-52.08,18.37-78.68a113.47,113.47,0,0,0-7-64.51c-4.86-11.48-11.68-22.32-14-34.57-2.5-13.43.73-27.31,5.55-40.1,4.15-11,9.64-21.77,18.13-29.92,11.76-11.29,28-16.41,42.35-24.1,14.58-7.79,27.74-18.64,36.8-32.46,5.93-9.06,10-19.22,15.82-28.35,14.58-22.92,39.77-38.11,66.46-43.11s54.68-.34,79.62,10.42c17.54,7.56,34.51,18.27,53.59,19.25,21.77,1.13,42.16-10.65,63.84-12.93,18.07-1.9,36.17,2.88,53.35,8.79,20.47,7,42.63,18.14,48.79,38.89s-6.34,42.11-17.69,60.66-22.26,41.36-13.11,61.08c4.12,8.88,11.75,15.52,18.47,22.62a143.21,143.21,0,0,1,34.25,61.46c2.89,10.94,4.47,22.52,1.93,33.55-3.9,16.95-16.84,30.21-29.91,41.69-38.2,33.54-86.5,61.17-137.1,56.33-15.93-1.52-31.4-6.22-47.29-8.19s-33-.87-46.26,8.11c-16.24,11-23.29,31.3-36.79,45.54-24.12,25.41-63.76,27.19-98.58,23.3-25.49-2.85-54-10-66.42-32.49-6.63-12-7.89-27.28-18-36.51C57.24,443,41.24,425.66,36.66,421.44Z"/><path class="cls-2" d="M37.7,417.68a22.58,22.58,0,0,1-5.24-1.78,15.75,15.75,0,0,1-2-1.23c.72.54-.81-.86-1.09-1.18.79.91-.22-.63-.47-.92-.43-.49.06.81.18,1-.3-.46-.19-1.47-.41-2.06-.37-1-.12.64-.06-.09,0-.32,0-.66,0-1s.06-.68.05-1c0-.83-.24,1,0-.17a38.53,38.53,0,0,1,1.41-4.82c.4-1.1-.08.13.07-.18s.35-.8.54-1.19.42-.8.6-1.21c.08-.19.45-1.13.09-.35s.77-1.08.86-1.24c2.19-3.84,4.16-7.75,6.53-11.49.3-.47.64-.92.9-1.41.13-.23.67-1.19-.12,0,.37-.58.86-1.08,1.24-1.66.68-1,1.29-2.1,1.94-3.14q2-3.18,4-6.34c2.56-4.06,5.11-8.14,7.48-12.32a98.43,98.43,0,0,0,6.28-13.15c2.09-5.44,2.87-11.31,3.47-17.07a119.43,119.43,0,0,0-5-48.1,173.73,173.73,0,0,0-9.32-22.23c-3.31-6.88-6.17-12.77-7.8-20.48-1.39-6.58-.9-14.46.49-21.1a100.93,100.93,0,0,1,3.24-11.74c.58-1.75,1.21-3.48,1.86-5.19.31-.79.61-1.57.93-2.35.21-.52.41-1.05.64-1.56-.32.73.12-.27.21-.46a99.35,99.35,0,0,1,5-9.75,56.73,56.73,0,0,1,5.3-7.63,53.88,53.88,0,0,1,7.76-7.49c.7-.55.2-.15.06,0l1-.72c.67-.48,1.35-.95,2-1.4,1.6-1.07,3.24-2.07,4.91-3,12.4-7.11,26-11.83,38-19.74,12.56-8.29,23.58-18.86,31.5-31.72,4.23-6.85,7.55-14.2,11.46-21.23a97.29,97.29,0,0,1,5.69-9.09,73.67,73.67,0,0,1,5.69-7,93,93,0,0,1,7.25-7.07,66.52,66.52,0,0,1,7.1-5.56,103.67,103.67,0,0,1,17.42-9.76c.78-.34.2-.09,0,0,.36-.16.72-.3,1.09-.45l2.56-1c1.6-.59,3.2-1.15,4.83-1.67q4.86-1.56,9.85-2.66a103.57,103.57,0,0,1,21.44-2.41,133.19,133.19,0,0,1,45.23,7.43c14.61,4.93,28.1,12.87,42.71,18.57a85.24,85.24,0,0,0,22.67,5.58c7.94.78,16-.22,23.77-1.89,7.38-1.58,14.57-3.89,21.8-6,3.7-1.08,7.42-2.13,11.17-3A79.79,79.79,0,0,1,416.67,70c16.28-1.6,31.73,2.23,47.21,7.35,3.29,1.09,6.57,2.23,9.8,3.47,1.38.53,2.76,1.08,4.12,1.65-1.08-.46.59.26.9.4.8.35,1.58.71,2.37,1.07,2.91,1.36,5.76,2.83,8.53,4.45,1.37.79,2.72,1.63,4,2.5q.92.6,1.8,1.23l.88.63c.1.08,1.24.93.66.48s.32.26.36.29l.82.68c.55.45,1.09.92,1.62,1.39,1.22,1.1,2.4,2.24,3.51,3.45.48.51.94,1,1.4,1.56.21.25,1.29,1.61.92,1.12s.65.93.83,1.19c.46.67.89,1.36,1.31,2a42.67,42.67,0,0,1,2.11,4c.37.79,0-.09-.08-.22.13.33.25.67.38,1,.29.78.55,1.57.79,2.37a28.62,28.62,0,0,1,1.36,10c-.17,14.11-8.1,27.93-15.7,40.54-7.9,13.12-16.11,26.72-19,42-1.48,7.86-1.68,16,.48,23.73s6.5,14.29,11.7,20.24c4.83,5.53,10.27,10.48,15.07,16a126.34,126.34,0,0,1,12.21,16.74,129.55,129.55,0,0,1,16.53,40.28c1.64,7.2,2.58,14.85,1.61,22.13a50.53,50.53,0,0,1-2.73,10.13c-.32.85,0,.12,0,0-.15.37-.32.73-.49,1.1q-.51,1.1-1,2.16c-.86,1.67-1.8,3.3-2.8,4.89A80.25,80.25,0,0,1,515.64,377c-5.15,5.08-10.64,9.83-16.21,14.43-1.32,1.09-2.64,2.17-4,3.24l-2,1.6-1,.79c-1.25,1,1.46-1.11-.74.57q-4.28,3.25-8.65,6.37c-6.08,4.3-12.33,8.37-18.76,12.13-6.27,3.66-12.71,7-19.3,10q-2.49,1.16-5,2.25c-.87.37-.16.07,0,0-.38.17-.78.33-1.17.49L436.06,430q-5.08,2-10.3,3.64a149.09,149.09,0,0,1-20.64,5c-1,.16-1.91.31-2.87.45,1.15-.17-.86.1-1.18.14-1.79.21-3.59.38-5.39.52-3.6.27-7.22.39-10.84.36-30.47-.32-61.43-15.78-92.34-6.22-14.53,4.49-25,14.28-33.62,26.44-3.88,5.46-7.27,11.21-11,16.78-3.61,5.42-6.56,9.55-11.61,14.15a46,46,0,0,1-6.69,5.24,74.74,74.74,0,0,1-8.23,4.75,55.45,55.45,0,0,1-7.79,3.27c-3.05,1.07-6.15,2-9.29,2.74s-6.14,1.36-9.25,1.86l-2.26.34c.89-.13-1.18.14-1.52.18-1.66.19-3.31.35-5,.49a180.31,180.31,0,0,1-20.13.43c-6.53-.2-13-.71-19.54-1.42-1.55-.17-3.1-.36-4.65-.56,1.09.14-.66-.09-1-.14l-2.52-.38c-3.13-.49-6.26-1.07-9.36-1.75a120.93,120.93,0,0,1-17.77-5.3,6.37,6.37,0,0,1-.94-.38l-2.26-1c-1.38-.66-2.74-1.35-4.07-2.09s-2.42-1.39-3.59-2.14q-1-.66-2-1.35c-.27-.19-1.9-1.38-1.06-.74a48,48,0,0,1-6.52-6.07,31.08,31.08,0,0,1-4.42-6.14c-3.19-5.46-4.67-10.69-7-17.1-2.4-6.65-5.16-13-9.64-18.54-2.73-3.38-6.18-6.3-9.22-9.42-3.61-3.72-7.16-7.45-11-10.94-1.65-1.5-3.3-3-5-4.48-.72-.64-1.44-1.29-2.18-1.9-.44-.37-.9-.72-1.36-1.07,0,0,.93.83.48.41l-.78-.73c-5.52-5.12-13.82,3.14-8.28,8.29a6.25,6.25,0,0,0,.65.61c.24.16.8.91-.27-.37.37.44.7.91,1.07,1.36.62.73,1.26,1.45,1.89,2.18,1.65,1.94,3.28,3.89,4.91,5.84,3.48,4.18,7.25,8.07,11,12,1.36,1.41,2.73,2.82,4.14,4.17.74.71,1.5,1.4,2.21,2.14a14.34,14.34,0,0,1,2.49,3.16c3.57,5.52,4.93,10.36,7.21,16.8s4.81,13,8.87,18.58A60.82,60.82,0,0,0,91.3,506.27c10.65,7.46,23.55,11.64,36.18,14.2a231.42,231.42,0,0,0,40.23,4.37c13.87.35,28-.65,41.47-4.09s26-9.49,36.39-18.63c10.55-9.29,17.63-21.43,25.59-32.84a66.93,66.93,0,0,1,12.23-13.77c.12-.11,1.12-.89.23-.22.3-.23.61-.45.92-.67.65-.46,1.31-.9,2-1.33a45.36,45.36,0,0,1,5-2.77A30,30,0,0,1,295.4,449c1.69-.56,3.4-1,5.13-1.43s3.5-.74,5.27-1c-1,.13,1-.1,1.26-.13,1.11-.11,2.22-.19,3.32-.25a91.65,91.65,0,0,1,10.87.09,169.7,169.7,0,0,1,23,3.56c16.19,3.32,32.27,6.65,48.9,5.89A152.93,152.93,0,0,0,437.25,447c29.31-10.4,55.46-28.15,78.81-48.45,11-9.58,22.05-20.16,28.7-33.36,8-15.85,7.7-33.08,3.37-50a151.13,151.13,0,0,0-18.49-42.66,155.19,155.19,0,0,0-14.2-19.07c-4.81-5.54-10.27-10.48-15.07-16-4-4.68-7.43-10.84-8.34-17a43.1,43.1,0,0,1,.12-10.49c-.13.95.2-1,.25-1.28.16-.83.33-1.66.53-2.49.45-1.95,1-3.89,1.61-5.8a105.58,105.58,0,0,1,9.39-20.18c3.95-6.91,8.3-13.57,12.07-20.59,7.93-14.75,14-31.22,10.57-48.15-2.8-13.9-12.36-24.88-23.7-32.8S478,65.71,464.75,61.54c-16.5-5.22-34-8.76-51.33-6.43-15.66,2.1-30.25,8.34-45.69,11.41-6.34,1.26-14.48,1.74-20.75.62a94.81,94.81,0,0,1-21-6.75C311,53.77,296.69,46.18,280.88,41.76a143,143,0,0,0-48.6-5.27c-29.26,2.13-58.4,14.68-77.73,37.2a108.39,108.39,0,0,0-13.07,19.25c-3.81,7-7.21,14.33-11.68,21a59.83,59.83,0,0,1-6.15,7.87,93.6,93.6,0,0,1-7.62,7.55,97,97,0,0,1-17,12c-12.74,7.24-27,11.78-38.95,20.39-13.24,9.55-21.41,22.86-27.33,37.84-6.25,15.83-9.89,33.32-5.4,50.11,2.12,8,5.82,15.42,9.4,22.79a122.41,122.41,0,0,1,8.43,21.23A107.66,107.66,0,0,1,48,339a43.65,43.65,0,0,1-1.49,6.57c-.31,1-.65,1.9-1,2.83-.18.45-.37.89-.54,1.34.53-1.38.2-.48-.14.28-2,4.35-4.25,8.54-6.62,12.67-5,8.63-10.33,17-14.62,26a45.09,45.09,0,0,0-3.09,7s-.69,2.47-.2,1.3c.34-.84-.1,0-.19.27-.16.42-.27.87-.39,1.3-.27,1-.52,1.94-.73,2.93a26.37,26.37,0,0,0-.16,11.69c.15.61.32,1.23.53,1.82a12.33,12.33,0,0,0,.89,1.69c.95,1.76-.37-.55,0,.14.15.27.31.54.48.8a15.37,15.37,0,0,0,4,4.09c3.46,2.46,7.72,3.29,11.85,3.74C41.06,425.83,41.93,418.68,37.7,417.68Z"/><circle class="cls-3" cx="375.2" cy="189.34" r="48.89"/><circle class="cls-4" cx="375.2" cy="189.34" r="28.36"/><path class="cls-5" d="M362,189.34a13.15,13.15,0,0,0,26.3,0,12.46,12.46,0,0,0-.18-2,49,49,0,0,1,11.33,5.88,24.61,24.61,0,0,1-48.49.74,48.46,48.46,0,0,1,11.15-6.17A11.87,11.87,0,0,0,362,189.34Z"/><path class="cls-6" d="M350.52,189.34a24.63,24.63,0,0,1,49.26,0,25.63,25.63,0,0,1-.33,3.85,49,49,0,0,0-11.33-5.88,12.46,12.46,0,0,1,.18,2,13.15,13.15,0,0,1-26.3,0,11.87,11.87,0,0,1,.11-1.58A48.46,48.46,0,0,0,351,193.93,24.8,24.8,0,0,1,350.52,189.34Z"/><circle class="cls-7" cx="366.33" cy="181.2" r="9.84"/><polygon class="cls-8" points="312.19 205.24 304.85 174.02 316.56 179.34 410.91 79 429.84 132.07 312.19 205.24"/><ellipse class="cls-2" cx="116.83" cy="280.99" rx="36.11" ry="55.54"/><ellipse class="cls-2" cx="481.41" cy="392.05" rx="22.81" ry="25.9"/><ellipse class="cls-2" cx="197.54" cy="421.73" rx="22.81" ry="25.9"/><ellipse class="cls-2" cx="170.61" cy="497.39" rx="43.81" ry="25.9"/><ellipse class="cls-2" cx="257.48" cy="75.21" rx="25.9" ry="43.81" transform="translate(126.5 309.3) rotate(-77.05)"/><ellipse class="cls-2" cx="488.3" cy="270.06" rx="25.9" ry="43.81" transform="translate(-56.41 391.17) rotate(-41.48)"/><circle class="cls-2" cx="385.67" cy="426.63" r="25.9"/><circle class="cls-2" cx="458.6" cy="128.62" r="26.38"/><circle class="cls-2" cx="183.72" cy="213.23" r="26.38"/><ellipse class="cls-2" cx="290.4" cy="361.86" rx="63.41" ry="42.7" transform="translate(-166.84 283.11) rotate(-41.48)"/><ellipse class="cls-2" cx="316.72" cy="146.49" rx="33.5" ry="22.56" transform="translate(-17.59 246.53) rotate(-41.48)"/><circle class="cls-2" cx="154.09" cy="284.87" r="36.68"/><circle class="cls-2" cx="87.49" cy="450.69" r="20.56"/><path class="cls-9" d="M488.29,321.63c0,19.73-30.39,73.28-51.21,78.5a48.78,48.78,0,0,1-15.53,1.22c-14.55-1-30.12-7.27-48.64-13.59-15.37-5.26-32.75-10.53-53.26-12.84a192.05,192.05,0,0,0-21.57-1.21,99.93,99.93,0,0,0-17.54,1.59c-21.67,3.79-42.39,13.78-61.54,23.15-16.7,8.16-32.23,15.85-46.16,18.51a48.2,48.2,0,0,1-13,.86C123.65,414.87,101,361.77,101,335.27c0-25.28,8.8-79.59,39.29-93.09a35.84,35.84,0,0,1,12.35-3c15.13-1,35.12,8.3,57,19,8.28,4.06,16.84,8.32,25.5,12.33,16.57,7.63,33.54,14.29,49.76,16.6a84.58,84.58,0,0,0,11.68.86,166.61,166.61,0,0,0,27.28-2.44c17.6-2.93,35.2-8.09,51.85-13.15,20.61-6.26,39.77-12.36,55.79-13.93a67.63,67.63,0,0,1,12.76-.15c16.72,1.59,27.45,9.89,34.14,21C485.91,291.73,488.29,307.7,488.29,321.63Z"/><path class="cls-7" d="M209.66,258.19,160.94,332l-20.62-89.78a35.84,35.84,0,0,1,12.35-3C167.8,238.22,187.79,247.48,209.66,258.19Z"/><path class="cls-7" d="M284.92,287.12l-34.09,51.62-15.67-68.22C251.73,278.15,268.7,284.81,284.92,287.12Z"/><path class="cls-7" d="M375.73,272.39l-17,68.13-34.81-55C341.48,282.61,359.08,277.45,375.73,272.39Z"/><path class="cls-7" d="M478.42,279.3l-48.57,43.92,1.67-64.76a67.63,67.63,0,0,1,12.76-.15C461,259.9,471.73,268.2,478.42,279.3Z"/><path class="cls-7" d="M219,398.45c-16.7,8.16-32.23,15.85-46.16,18.51l14.54-65.58Z"/><path class="cls-7" d="M319.65,374.92a192.05,192.05,0,0,0-21.57-1.21,99.93,99.93,0,0,0-17.54,1.59l18.66-45.82Z"/><path class="cls-7" d="M421.55,401.35c-14.55-1-30.12-7.27-48.64-13.59l28.73-51.19Z"/><circle class="cls-3" cx="221.3" cy="187.49" r="48.89"/><circle class="cls-4" cx="221.3" cy="187.49" r="28.36"/><path class="cls-5" d="M234.5,187.49a13.15,13.15,0,0,1-26.29,0,13.69,13.69,0,0,1,.17-2,48.93,48.93,0,0,0-11.32,5.88,24.6,24.6,0,0,0,48.48.74,49,49,0,0,0-11.14-6.17A13.85,13.85,0,0,1,234.5,187.49Z"/><path class="cls-6" d="M246,187.49a24.63,24.63,0,1,0-48.92,3.84,48.93,48.93,0,0,1,11.32-5.88,13.69,13.69,0,0,0-.17,2,13.15,13.15,0,0,0,26.29,0,13.85,13.85,0,0,0-.1-1.59,49,49,0,0,1,11.14,6.17A24.78,24.78,0,0,0,246,187.49Z"/><circle class="cls-7" cx="230.17" cy="179.34" r="9.84"/><polygon class="cls-8" points="284.7 205.24 292.12 172.44 285.14 181.54 185.38 75.21 157.84 132.71 284.7 205.24"/></svg>