<?xml version="1.0" encoding="utf-8"?>
<!-- Generator: Adobe Illustrator 24.0.2, SVG Export Plug-In . SVG Version: 6.00 Build 0)  -->
<svg version="1.1" id="Laag_1" xmlns="http://www.w3.org/2000/svg" xmlns:xlink="http://www.w3.org/1999/xlink" x="0px" y="0px"
	 viewBox="0 0 1216.1 215.6" style="enable-background:new 0 0 1216.1 215.6;" xml:space="preserve">
<style type="text/css">
	.st0{clip-path:url(#SVGID_2_);}
	.st1{fill:#FF5E18;}
	.st2{fill:#F1330E;}
</style>
<title>background-planeet</title>
<g>
	<defs>
		<rect id="SVGID_1_" width="1216.1" height="216.8"/>
	</defs>
	<clipPath id="SVGID_2_">
		<use xlink:href="#SVGID_1_"  style="overflow:visible;"/>
	</clipPath>
	<g class="st0">
		<g id="Laag_2_1_">
			<g id="illustraties">
				<path class="st1" d="M1216.1,216.8H0V66.6C0,66.6,205.2,0,607.9,0s608.1,66.6,608.1,66.6L1216.1,216.8z"/>
				<path class="st2" d="M1102.2,199.9c0,0,54.2-19.9,59.7-34.3s-25.3-25.3-34.3-18.1S1075.1,187.2,1102.2,199.9z"/>
				<path class="st2" d="M690.3,50.1c0,0,24.9-26.5,46-16s47.7,32.8,42,40.1s-25.2,12.3-46.4,4.4S690.3,50.1,690.3,50.1z"/>
				<path class="st2" d="M283,221.6c27.1,3.6,95.8,3.6,94-5.4s-27.1-43.4-52.4-36.1s-47,9-47,18.1S283,221.6,283,221.6z"/>
				<path class="st2" d="M408.1,51.4c0,0,15.4,4.8,26.8-4.3s30.3-21,19.9-31s-37,7.1-40.7,13.5S408.1,51.4,408.1,51.4z"/>
				<path class="st2" d="M877.8,154.6c0,0,15,5.9,27-2.4s31.7-18.8,22-29.6s-37.4,4.4-41.5,10.6
					C881.1,139.5,877.8,154.6,877.8,154.6z"/>
				<path class="st2" d="M508.5,148.7c0,0,28.9-10.9,27.1-16.3s-19.9-16.3-27.1-14.5S508.5,148.7,508.5,148.7z"/>
				<path class="st2" d="M80,145.2c0,0,43.4-27.1,39.8-43.4S89,81.9,85.4,89.1S80,145.2,80,145.2z"/>
			</g>
		</g>
	</g>
</g>
</svg>
