<svg xmlns="http://www.w3.org/2000/svg" xmlns:xlink="http://www.w3.org/1999/xlink" x="0" y="0" enable-background="new 0 0 191 192" version="1.1" viewBox="0 0 191 192" xml:space="preserve"><style type="text/css">.st0{fill:#b0bec5}.st1{fill:#78909c}.st2{fill:#546e7a}.st3{fill:#90a4ae}.st4{fill:#cfd8dc}.st5{fill:#0d47a1}.st6{fill:#1a237e}.st7{opacity:.2}.st8{fill:#eee}.st9{fill:#212121}.st10{fill:#f9a825}.st11{opacity:.1}.st12{fill:#c62828}.st13{fill:#37474f}.st14{fill:#263238}.st15{fill:#ff8f00}.st16{display:none}.st17{display:inline}.st18{fill:#e64a19}.st19{fill:#d84315}.st20{fill:#000014}.st21{fill:#c5906d}.st22{fill:#d8d8d8}.st23{fill:none;stroke:#c5906d;stroke-width:30;stroke-linecap:round;stroke-miterlimit:10}.st24{fill:#fff}.st25{fill:#585857}.st26{fill:#222221}.st27{fill:#7a5337}.st28{fill:#96bf7d}.st29{fill:#7e2439}.st30{fill:#dc9998}.st31{fill:#d9e0e3}.st32{opacity:.45}.st33{fill:#a2ceef}</style><g id="Satelliet"><desc>Created with Sketch.</desc><g id="Page-1"><g id="_x34_04-Mars-Illustration" transform="translate(-39.000000, -152.000000)"><g id="astronaut" transform="translate(38.000000, 152.000000)"><g id="line" transform="translate(42.000000, 68.000000)"><g id="Vector"><g id="path179_fill-link" transform="translate(39.124000, 40.960000) scale(-1, 1) translate(-39.124000, -40.960000) translate(0.624000, 0.460000)"><path id="path179_fill" d="M64.1,0c0,0,0.4,0.6,1,1.8c0.7,1.2,1.8,3,3,5.3c1.3,2.3,2.7,5.2,4.2,8.7 c1.4,3.4,2.9,7.4,3.6,12.1c0.9,4.5,1,9.7-0.1,15.1c-0.4,1.3-0.7,2.7-1.2,4c-0.3,0.6-0.5,1.3-0.8,1.9 c-0.3,0.6-0.7,1.3-0.9,1.9c-0.4,0.6-0.7,1.3-1,1.9c-0.4,0.6-0.9,1.3-1.3,1.9l-1.7,1.7c-0.7,0.5-1.3,0.9-2,1.4 c-2.7,1.7-6,2.6-9.2,2.6c-3.3,0-6.4-0.6-9.4-1.9c-1.4-0.6-3-1.6-4.3-2.6c-1.3-1-2.5-2.5-3.4-4.2c-0.8-1.7-1.3-3.8-0.8-5.7 c0.4-1.9,1.6-3.9,3.3-5.1c1.7-1.2,3.8-1.7,5.9-1.4c0.5,0,1,0.3,1.6,0.3c0.5,0.1,0.9,0.4,1.4,0.5c0.8,0.4,1.6,0.8,2.2,1.4 c1.4,1,2.7,2.3,3.6,3.8c0.9,1.6,1.6,3.1,2,4.8c0.8,3.4,0.4,6.8-0.5,9.9c-0.9,3.1-2.3,5.8-4.2,8.3c-3.6,4.9-8.7,8.6-14,10.3 c-1.3,0.5-2.7,0.8-4,1c-0.7,0.1-1.3,0.3-2,0.4c-0.7,0.1-1.3,0.1-2,0.1c-0.7,0-1.3,0.1-2,0.1c-0.7,0-1.3,0-2-0.1 c-1.3,0-2.5-0.3-3.8-0.4c-4.9-0.8-9.1-3-12.2-5.3C10,72.4,7.7,70,5.7,68.2c-1.8-1.8-3.3-3.4-4.3-4.3C0.5,63,0,62.5,0,62.5 l4-4.3c0,0,0.5,0.5,1.6,1.6c0.9,1,2.3,2.5,4.2,4.4c1.8,1.8,3.9,4,6.6,6c2.7,1.9,6,3.8,10,4.5c3.9,0.8,8.6,0.5,13-0.8 c4.4-1.4,8.7-4.3,11.8-8.3c1.6-2.1,2.9-4.3,3.6-6.8c0.8-2.5,1-5.1,0.5-7.5c-0.5-2.5-1.8-4.5-3.8-6.1c-0.5-0.4-1-0.6-1.6-1 l-0.7-0.3c-0.3,0-0.5-0.1-0.8-0.1c-1-0.1-2,0.1-2.9,0.6c-1.7,1.2-2.3,3.5-1.3,5.6c1,2.1,3.3,3.8,5.6,4.9 c4.8,2.3,10.8,2.5,15-0.1c0.5-0.4,1-0.6,1.4-1l1.3-1.3l1-1.4c0.4-0.5,0.7-1.2,0.9-1.7c0.3-0.5,0.7-1.2,0.9-1.7 c0.3-0.6,0.5-1.2,0.7-1.8c0.5-1.2,0.8-2.3,1.2-3.5c1.2-4.8,1-9.5,0.4-13.8c-0.7-4.3-2-8.2-3.3-11.4c-1.3-3.4-2.6-6.2-3.9-8.4 c-1.2-2.3-2.2-4-2.9-5.3c-0.7-1.2-1-1.8-1-1.8L64.1,0z" class="st0"/></g></g><g id="Vector_1_"><g id="path180_fill-link" transform="translate(38.994000, 40.960000) scale(-1, 1) translate(-38.994000, -40.960000) translate(0.494000, 0.460000)"><path id="path180_fill" d="M45.1,51c-0.3-0.4-0.5-0.8-0.7-1c-1-2.1-0.5-4.4,1.3-5.6c0.9-0.5,1.8-0.8,2.9-0.6 c0.3,0,0.5,0.1,0.8,0.1l0.7,0.3c0.5,0.4,1.2,0.6,1.6,1c0.3,0.3,0.5,0.5,0.8,0.8c-0.5-0.8-1.3-1.6-2.1-2.1 c-0.5-0.4-1-0.6-1.6-1l-0.7-0.3c-0.3,0-0.5-0.1-0.8-0.1c-1-0.1-2,0.1-2.9,0.6c-1.7,1.2-2.3,3.5-1.3,5.6 C43.7,49.4,44.3,50.3,45.1,51z M44.2,55.9c1.3,1.2,2.7,1.9,4.3,2.6c1.4,0.6,2.9,1,4.3,1.4c0.1-0.4,0.3-0.8,0.5-1 c-2.1-0.3-4-0.9-6-1.7c-1.4-0.6-3-1.6-4.3-2.6c-0.3-0.3-0.5-0.5-0.9-0.8C42.7,54.4,43.4,55.2,44.2,55.9z M58.6,49 c0.5,2.1,0.5,4.2,0.3,6.1c0.5-0.1,0.9-0.1,1.4-0.3c0-1.4,0-3-0.4-4.4c-0.4-1.7-1-3.4-2-4.8c-0.5-0.9-1.2-1.6-2-2.3 c0.3,0.3,0.5,0.6,0.7,0.9C57.6,45.6,58.3,47.3,58.6,49z M75.9,27.9c-0.8-4.5-2.2-8.6-3.6-12.1c-1.4-3.4-2.9-6.4-4.2-8.7 c-1.2-2.3-2.3-4.2-3-5.3c-0.8-1.2-1-1.8-1-1.8l-0.3,0.1c0,0.1,0.1,0.1,0.1,0.3c0.7,1.2,1.8,3,3,5.3c1.3,2.3,2.7,5.2,4.2,8.7 c1.4,3.4,2.9,7.4,3.6,12.1c0.9,4.5,1,9.7-0.1,15.1c-0.4,1.3-0.7,2.7-1.2,4c-0.3,0.6-0.5,1.3-0.8,1.9 c-0.3,0.6-0.7,1.3-0.9,1.9c-0.4,0.6-0.7,1.3-1,1.9c-0.4,0.6-0.9,1.3-1.3,1.9l-1.7,1.7c-0.7,0.5-1.3,0.9-2,1.4 c-2.3,1.4-4.9,2.2-7.7,2.5c-0.9,3-2.3,5.8-4.2,8.3c-3.6,4.9-8.7,8.6-14,10.3c-1.3,0.5-2.7,0.8-4,1c-0.7,0.1-1.3,0.3-2,0.4 c-0.7,0.1-1.3,0.1-2,0.1c-0.7,0-1.3,0.1-2,0.1c-0.7,0-1.3,0-2-0.1c-1.3,0-2.5-0.3-3.8-0.4c-4.9-0.8-9.1-3-12.2-5.3 c-3.3-2.3-5.6-4.7-7.5-6.5c-1.8-1.8-3.3-3.4-4.3-4.3l-0.1-0.1L0,62.6c0,0,0.5,0.5,1.4,1.4c1,1,2.5,2.5,4.3,4.3 c2,1.9,4.3,4.3,7.5,6.5c3.1,2.2,7.3,4.4,12.2,5.3c1.2,0.1,2.5,0.4,3.8,0.4c0.7,0,1.3,0,2,0.1c0.7,0,1.3-0.1,2-0.1 c0.7,0,1.3-0.1,2-0.1c0.7-0.1,1.3-0.3,2-0.4c1.3-0.3,2.7-0.5,4-1c5.3-1.8,10.4-5.3,14-10.3c1.8-2.5,3.3-5.2,4.2-8.3 c2.7-0.3,5.3-1,7.7-2.5c0.7-0.5,1.3-0.9,2-1.4l1.7-1.7c0.4-0.6,0.9-1.3,1.3-1.9c0.4-0.6,0.7-1.3,1-1.9 c0.3-0.6,0.7-1.3,0.9-1.9c0.3-0.6,0.5-1.3,0.8-1.9c0.5-1.3,0.8-2.6,1.2-4C77,37.7,76.7,32.5,75.9,27.9z" class="st1"/></g></g><g id="Vector_2_" transform="translate(11.000000, 0.000000)"><g id="path181_fill-link" transform="translate(2.599000, 2.960000) scale(-1, 1) translate(-2.599000, -2.960000) translate(0.599000, 0.460000)"><path id="path181_fill" d="M3.6,2.5l-2,1.7C1.4,3.8,1.3,3.4,1,3.1C0.4,1.9,0,1.3,0,1.3L2.2,0c0,0,0.4,0.6,1,1.8 C3.4,2.1,3.5,2.2,3.6,2.5z" class="st2"/></g></g><g id="Vector_3_" transform="translate(16.000000, 54.000000)"><g id="path182_fill-link" transform="translate(1.870000, 4.110000) scale(-1, 1) translate(-1.870000, -4.110000) translate(0.370000, 0.610000)"><path id="path182_fill" d="M0,4.7c0.4-1.2,0.7-2.9,0.8-3.8c0.1-1,1.4-1.3,1.4-0.3c0,1-0.1,3.2-0.9,5.5 C0.4,8.3,0,4.7,0,4.7z" class="st1"/></g></g><g id="Vector_4_" transform="translate(21.000000, 59.000000)"><g id="path183_fill-link" transform="translate(2.470000, 1.170000) scale(-1, 1) translate(-2.470000, -1.170000) translate(0.970000, 0.170000)"><path id="path183_fill" d="M0.7,0C1.8,0.3,2,0.1,2.3,0.3C2.2,0.8,2.1,1,2,1.4C1.6,1.3,0.9,1.3,0.3,1 C-0.5,0.9,0.7,0,0.7,0z" class="st1"/></g></g><g id="Vector_5_" transform="translate(15.000000, 56.000000)"><g id="path184_fill-link" transform="translate(1.700000, 3.200000) scale(-1, 1) translate(-1.700000, -3.200000) translate(0.200000, 0.700000)"><path id="path184_fill" d="M2.5,3.6C1.7,3.8,0.9,3.9,0,4c0.1-0.6,0.3-1.2,0.4-1.7c0.1-0.8,0.3-1.6,0.4-2.1h0.1 c0.4,0,0.8-0.1,1.2-0.3C2.3,0.9,2.6,2.6,2.5,3.6z" class="st2"/></g></g></g><g id="vetinh" transform="translate(0.000000, 0.000000)"><g id="Group_2_" transform="translate(58.000000, 0.000000)"><g id="Vector_32_"><g transform="translate(0.000000, 40.000000) translate(3.000000, 0.000000)"><g id="path232_fill-link" transform="translate(4.973000, 4.510000) scale(-1, 1) translate(-4.973000, -4.510000) translate(0.473000, 0.010000)"><polygon id="path232_fill" points="1.7 8.7 .8 8.7 0 7.8 7.8 0 8.6 .9 8.6 1.7" class="st3"/></g></g><g transform="translate(0.000000, 40.000000) translate(0.000000, 1.000000)"><g id="path233_fill-link" transform="translate(3.666256, 3.197139) scale(-1, 1) rotate(-44.991901) translate(-3.666256, -3.197139) translate(2.166270, 0.697163)"><polygon id="path233_fill" points="2.5 0 0 0 0 4.3 2.5 4.3" class="st3"/></g></g><g transform="translate(0.000000, 40.000000) translate(5.000000, 5.000000)"><g id="path234_fill-link" transform="translate(2.922456, 3.557939) scale(-1, 1) rotate(-44.975704) translate(-2.922456, -3.557939) translate(1.422470, 1.057963)"><polygon id="path234_fill" points="2.5 0 0 0 0 4.3 2.5 4.3" class="st3"/></g></g></g><g id="Vector_33_"><g id="path235_fill-link" transform="translate(26.522000, 26.000000) scale(-1, 1) translate(-26.522000, -26.000000) translate(0.522000, 0.000000)"><polygon id="path235_fill" points="37.3 51.3 36.5 51.3 0 14.8 0 13.9 13.9 0 14.7 0 51.4 36.5 51.4 37.4" class="st4"/></g></g><g id="Vector_34_"><g transform="translate(4.000000, 2.000000) translate(2.000000, 4.000000)"><g id="path236_fill-link" transform="translate(20.438823, 19.631845) scale(-1, 1) rotate(-45.000000) translate(-20.438823, -19.631845) translate(19.438832, -6.867905)"><polygon id="path236_fill" points="1.2 0 0 0 0 52.2 1.2 52.2" class="st4"/></g></g><g transform="translate(4.000000, 2.000000) translate(30.000000, 0.000000)"><g id="path237_fill-link" transform="translate(8.291000, 8.360000) scale(-1, 1) translate(-8.291000, -8.360000) translate(0.791000, 0.860000)"><polygon id="path237_fill" points=".5 14.8 0 14.3 14.4 0 14.8 .4" class="st4"/></g></g><g transform="translate(4.000000, 2.000000) translate(27.000000, 3.000000)"><g id="path238_fill-link" transform="translate(8.171000, 8.350000) scale(-1, 1) translate(-8.171000, -8.350000) translate(0.671000, 0.850000)"><polygon id="path238_fill" points=".4 14.8 0 14.4 14.3 0 14.8 .5" class="st4"/></g></g><g transform="translate(4.000000, 2.000000) translate(24.000000, 6.000000)"><g id="path239_fill-link" transform="translate(7.893929, 8.170510) scale(-1, 1) rotate(-45.089046) translate(-7.893929, -8.170510) translate(-2.605976, 7.670514)"><polygon id="path239_fill" points="20.3 0 0 0 0 .6 20.3 .6" class="st4"/></g></g><g transform="translate(4.000000, 2.000000) translate(21.000000, 9.000000)"><g id="path240_fill-link" transform="translate(7.830929, 8.312610) scale(-1, 1) rotate(-45.000000) translate(-7.830929, -8.312610) translate(-2.668972, 7.812615)"><polygon id="path240_fill" points="20.3 0 0 0 0 .6 20.3 .6" class="st4"/></g></g><g transform="translate(4.000000, 2.000000) translate(18.000000, 12.000000)"><g id="path241_fill-link" transform="translate(8.068000, 8.440000) scale(-1, 1) translate(-8.068000, -8.440000) translate(0.568000, 0.940000)"><polygon id="path241_fill" points=".4 14.8 0 14.4 14.3 0 14.8 .5" class="st4"/></g></g><g transform="translate(4.000000, 2.000000) translate(15.000000, 15.000000)"><g id="path242_fill-link" transform="translate(7.804929, 8.312610) scale(-1, 1) rotate(-45.000000) translate(-7.804929, -8.312610) translate(-2.694972, 7.812615)"><polygon id="path242_fill" points="20.3 0 0 0 0 .6 20.3 .6" class="st4"/></g></g><g transform="translate(4.000000, 2.000000) translate(12.000000, 19.000000)"><g id="path243_fill-link" transform="translate(7.957000, 7.540000) scale(-1, 1) translate(-7.957000, -7.540000) translate(0.457000, 0.040000)"><polygon id="path243_fill" points=".4 14.8 0 14.4 14.3 0 14.8 .5" class="st4"/></g></g><g transform="translate(4.000000, 2.000000) translate(9.000000, 22.000000)"><g id="path244_fill-link" transform="translate(7.966000, 7.660000) scale(-1, 1) translate(-7.966000, -7.660000) translate(0.466000, 0.160000)"><polygon id="path244_fill" points=".5 14.8 0 14.3 14.4 0 14.8 .4" class="st4"/></g></g><g transform="translate(4.000000, 2.000000) translate(5.000000, 24.000000)"><g id="path245_fill-link" transform="translate(8.534929, 8.443710) scale(-1, 1) rotate(-44.991901) translate(-8.534929, -8.443710) translate(-1.964973, 7.943715)"><polygon id="path245_fill" points="20.3 0 0 0 0 .6 20.3 .6" class="st4"/></g></g><g transform="translate(4.000000, 2.000000) translate(2.000000, 27.000000)"><g id="path246_fill-link" transform="translate(8.566939, 8.484621) scale(-1, 1) rotate(-44.838106) translate(-8.566939, -8.484621) translate(-1.933004, 7.984624)"><polygon id="path246_fill" points="20.3 0 0 0 0 .6 20.3 .6" class="st4"/></g></g><g transform="translate(4.000000, 2.000000) translate(0.000000, 31.000000)"><g id="path247_fill-link" transform="translate(7.734000, 7.750000) scale(-1, 1) translate(-7.734000, -7.750000) translate(0.234000, 0.250000)"><polygon id="path247_fill" points=".4 14.8 0 14.4 14.3 0 14.7 .4" class="st4"/></g></g></g><g id="Vector_35_"><g><g transform="translate(1.000000, 0.000000) translate(0.000000, 2.000000) translate(18.000000, 13.000000)"><g id="path248_fill-link" transform="translate(5.564673, 4.987683) scale(-1, 1) rotate(-45.024296) translate(-5.564673, -4.987683) translate(0.564721, 2.987701)"><polygon id="path248_fill" points="9.2 0 0 0 0 3.6 9.2 3.6" class="st5"/></g></g><g transform="translate(1.000000, 0.000000) translate(0.000000, 2.000000) translate(26.000000, 20.000000)"><g id="path249_fill-link" transform="translate(4.970373, 5.378383) scale(-1, 1) rotate(-45.016198) translate(-4.970373, -5.378383) translate(-0.029579, 3.378402)"><polygon id="path249_fill" points="9.2 0 0 0 0 3.6 9.2 3.6" class="st5"/></g></g><g transform="translate(1.000000, 0.000000) translate(0.000000, 2.000000) translate(24.000000, 7.000000)"><g id="path250_fill-link" transform="translate(5.590173, 4.991183) scale(-1, 1) rotate(-44.983802) translate(-5.590173, -4.991183) translate(0.590219, 2.991202)"><polygon id="path250_fill" points="9.2 0 0 0 0 3.6 9.2 3.6" class="st5"/></g></g><g transform="translate(1.000000, 0.000000) translate(0.000000, 2.000000) translate(38.000000, 8.000000)"><g id="path251_fill-link" transform="translate(5.110773, 5.309783) scale(-1, 1) rotate(-45.000000) translate(-5.110773, -5.309783) translate(0.110820, 3.309802)"><polygon id="path251_fill" points="9.2 0 0 0 0 3.6 9.2 3.6" class="st5"/></g></g><g transform="translate(1.000000, 0.000000) translate(0.000000, 2.000000) translate(30.000000, 0.000000)"><g id="path252_fill-link" transform="translate(5.714373, 5.888383) scale(-1, 1) rotate(-45.016198) translate(-5.714373, -5.888383) translate(0.714421, 3.888402)"><polygon id="path252_fill" points="9.2 0 0 0 0 3.6 9.2 3.6" class="st5"/></g></g><g transform="translate(1.000000, 0.000000) translate(0.000000, 2.000000) translate(32.000000, 14.000000)"><g id="path253_fill-link" transform="translate(4.990173, 5.401183) scale(-1, 1) rotate(-44.983802) translate(-4.990173, -5.401183) translate(-0.009781, 3.401202)"><polygon id="path253_fill" points="9.2 0 0 0 0 3.6 9.2 3.6" class="st5"/></g></g><g transform="translate(1.000000, 0.000000) translate(0.000000, 2.000000) translate(6.000000, 25.000000)"><g id="path254_fill-link" transform="translate(5.414473, 5.247183) scale(-1, 1) rotate(-45.028344) translate(-5.414473, -5.247183) translate(0.414167, 3.247060)"><polygon id="path254_fill" points="9.2 0 0 0 0 3.6 9.2 3.6" class="st5"/></g></g><g transform="translate(1.000000, 0.000000) translate(0.000000, 2.000000) translate(7.000000, 39.000000)"><g id="path255_fill-link" transform="translate(5.584000, 5.310000) scale(-1, 1) translate(-5.584000, -5.310000) translate(0.584000, 0.310000)"><polygon id="path255_fill" points="0 6.5 2.9 9.4 3.1 9.4 9.5 3 6.5 0" class="st5"/></g></g><g transform="translate(1.000000, 0.000000) translate(0.000000, 2.000000) translate(0.000000, 31.000000)"><g id="path256_fill-link" transform="translate(5.172000, 5.900000) scale(-1, 1) translate(-5.172000, -5.900000) translate(0.172000, 0.900000)"><polygon id="path256_fill" points="9.4 2.9 6.5 0 0 6.5 3 9.6 9.4 3.2" class="st5"/></g></g><g transform="translate(1.000000, 0.000000) translate(0.000000, 2.000000) translate(13.000000, 32.000000)"><g id="path257_fill-link" transform="translate(5.821773, 5.659783) scale(-1, 1) rotate(-45.000000) translate(-5.821773, -5.659783) translate(0.821820, 3.659802)"><polygon id="path257_fill" points="9.2 0 0 0 0 3.6 9.2 3.6" class="st5"/></g></g><g transform="translate(1.000000, 0.000000) translate(0.000000, 2.000000) translate(12.000000, 19.000000)"><g id="path258_fill-link" transform="translate(5.542273, 5.153283) scale(-1, 1) rotate(-44.959506) translate(-5.542273, -5.153283) translate(0.542317, 3.153302)"><polygon id="path258_fill" points="9.2 0 0 0 0 3.6 9.2 3.6" class="st5"/></g></g><g transform="translate(1.000000, 0.000000) translate(0.000000, 2.000000) translate(19.000000, 26.000000)"><g id="path259_fill-link" transform="translate(5.849773, 5.479783) scale(-1, 1) rotate(-45.000000) translate(-5.849773, -5.479783) translate(0.849820, 3.479802)"><polygon id="path259_fill" points="9.2 0 0 0 0 3.6 9.2 3.6" class="st5"/></g></g></g><g><g transform="translate(1.000000, 0.000000) translate(3.000000, 0.000000) translate(24.000000, 5.000000)"><g id="path260_fill-link" transform="translate(5.746873, 5.934881) scale(-1, 1) rotate(-45.056692) translate(-5.746873, -5.934881) translate(0.746920, 3.934899)"><polygon id="path260_fill" points="9.2 0 0 0 0 3.6 9.2 3.6" class="st6"/></g></g><g transform="translate(1.000000, 0.000000) translate(3.000000, 0.000000) translate(26.000000, 19.000000)"><g id="path261_fill-link" transform="translate(5.025173, 5.441183) scale(-1, 1) rotate(-44.983802) translate(-5.025173, -5.441183) translate(0.025219, 3.441202)"><polygon id="path261_fill" points="9.2 0 0 0 0 3.6 9.2 3.6" class="st6"/></g></g><g transform="translate(1.000000, 0.000000) translate(3.000000, 0.000000) translate(18.000000, 12.000000)"><g id="path262_fill-link" transform="translate(5.628373, 5.028383) scale(-1, 1) rotate(-45.016198) translate(-5.628373, -5.028383) translate(0.628421, 3.028402)"><polygon id="path262_fill" points="9.2 0 0 0 0 3.6 9.2 3.6" class="st6"/></g></g><g transform="translate(1.000000, 0.000000) translate(3.000000, 0.000000) translate(30.000000, 0.000000)"><g id="path263_fill-link" transform="translate(5.720000, 5.150000) scale(-1, 1) translate(-5.720000, -5.150000) translate(0.720000, 0.650000)"><polygon id="path263_fill" points="6.4 0 0 6.4 2.6 9 9.1 2.3 6.6 0" class="st6"/></g></g><g transform="translate(1.000000, 0.000000) translate(3.000000, 0.000000) translate(32.000000, 13.000000)"><g id="path264_fill-link" transform="translate(5.143173, 5.351183) scale(-1, 1) rotate(-44.983802) translate(-5.143173, -5.351183) translate(0.143219, 3.351202)"><polygon id="path264_fill" points="9.2 0 0 0 0 3.6 9.2 3.6" class="st6"/></g></g><g transform="translate(1.000000, 0.000000) translate(3.000000, 0.000000) translate(39.000000, 7.000000)"><g id="path265_fill-link" transform="translate(4.502000, 5.790000) scale(-1, 1) translate(-4.502000, -5.790000) translate(0.002000, 0.790000)"><polygon id="path265_fill" points="0 6.4 0 6.8 2.5 9.2 9 2.6 6.4 0" class="st6"/></g></g><g transform="translate(1.000000, 0.000000) translate(3.000000, 0.000000) translate(7.000000, 37.000000)"><g id="path266_fill-link" transform="translate(5.668673, 5.707683) scale(-1, 1) rotate(-45.024296) translate(-5.668673, -5.707683) translate(0.668721, 3.707701)"><polygon id="path266_fill" points="9.2 0 0 0 0 3.6 9.2 3.6" class="st6"/></g></g><g transform="translate(1.000000, 0.000000) translate(3.000000, 0.000000) translate(0.000000, 30.000000)"><g id="path267_fill-link" transform="translate(5.271773, 5.289783) scale(-1, 1) rotate(-45.000000) translate(-5.271773, -5.289783) translate(0.271820, 3.289802)"><polygon id="path267_fill" points="9.2 0 0 0 0 3.6 9.2 3.6" class="st6"/></g></g><g transform="translate(1.000000, 0.000000) translate(3.000000, 0.000000) translate(12.000000, 18.000000)"><g id="path268_fill-link" transform="translate(5.506173, 5.121183) scale(-1, 1) rotate(-44.983802) translate(-5.506173, -5.121183) translate(0.506219, 3.121202)"><polygon id="path268_fill" points="9.2 0 0 0 0 3.6 9.2 3.6" class="st6"/></g></g><g transform="translate(1.000000, 0.000000) translate(3.000000, 0.000000) translate(6.000000, 24.000000)"><g id="path269_fill-link" transform="translate(5.390873, 5.201883) scale(-1, 1) rotate(-44.975704) translate(-5.390873, -5.201883) translate(0.390919, 3.201902)"><polygon id="path269_fill" points="9.2 0 0 0 0 3.6 9.2 3.6" class="st6"/></g></g><g transform="translate(1.000000, 0.000000) translate(3.000000, 0.000000) translate(13.000000, 31.000000)"><g id="path270_fill-link" transform="translate(5.790373, 5.608383) scale(-1, 1) rotate(-45.016198) translate(-5.790373, -5.608383) translate(0.790421, 3.608402)"><polygon id="path270_fill" points="9.2 0 0 0 0 3.6 9.2 3.6" class="st6"/></g></g><g transform="translate(1.000000, 0.000000) translate(3.000000, 0.000000) translate(19.000000, 25.000000)"><g id="path257_fill-link_1_" transform="translate(5.907773, 5.519783) scale(-1, 1) rotate(-45.000000) translate(-5.907773, -5.519783) translate(0.907820, 3.519802)"><polygon id="path257_fill_1_" points="9.2 0 0 0 0 3.6 9.2 3.6" class="st6"/></g></g></g></g><g id="Vector_36_" class="st7" transform="translate(21.000000, 0.000000)"><g id="path271_fill-link" transform="translate(16.022000, 19.500000) scale(-1, 1) translate(-16.022000, -19.500000) translate(0.522000, 0.000000)"><polygon id="path271_fill" points="30.4 15.7 14.7 0 13.9 0 0 13.9 0 14.8 23.5 38.3" class="st8"/></g></g></g><g id="Group_3_" transform="translate(0.000000, 58.000000)"><g id="Vector_37_"><g transform="translate(40.000000, 0.000000) translate(0.000000, 2.000000)"><g id="path272_fill-link" transform="translate(5.298000, 5.290000) scale(-1, 1) translate(-5.298000, -5.290000) translate(0.798000, 0.790000)"><polygon id="path272_fill" points="0 6.9 0 7.8 .9 8.7 8.7 .8 7.9 0 7 0" class="st3"/></g></g><g transform="translate(40.000000, 0.000000) translate(1.000000, 0.000000)"><g id="path273_fill-link" transform="translate(3.740156, 3.046739) scale(-1, 1) rotate(-45.000000) translate(-3.740156, -3.046739) translate(2.240170, 0.546763)"><polygon id="path273_fill" points="2.5 0 0 0 0 4.3 2.5 4.3" class="st3"/></g></g><g transform="translate(40.000000, 0.000000) translate(6.000000, 4.000000)"><g id="path274_fill-link" transform="translate(3.092056, 3.316339) scale(-1, 1) rotate(-45.008099) translate(-3.092056, -3.316339) translate(1.592070, 0.816362)"><polygon id="path274_fill" points="2.5 0 0 0 0 4.3 2.5 4.3" class="st3"/></g></g></g><g id="Vector_38_"><g id="path275_fill-link" transform="translate(26.398000, 26.190000) scale(-1, 1) translate(-26.398000, -26.190000) translate(0.398000, 0.190000)"><polygon id="path275_fill" points="0 13.9 0 14.8 36.5 51.3 37.4 51.3 51.4 37.4 51.4 36.5 14.8 0 13.9 0" class="st4"/></g></g><g id="Vector_39_"><g transform="translate(3.000000, 3.000000) translate(3.000000, 3.000000)"><g id="path276_fill-link" transform="translate(20.167823, 19.791845) scale(-1, 1) rotate(-45.000000) translate(-20.167823, -19.791845) translate(19.167832, -6.707905)"><polygon id="path276_fill" points="1.2 0 0 0 0 52.2 1.2 52.2" class="st4"/></g></g><g transform="translate(3.000000, 3.000000) translate(0.000000, 30.000000)"><g id="path277_fill-link" transform="translate(8.090000, 8.340000) scale(-1, 1) translate(-8.090000, -8.340000) translate(0.590000, 0.840000)"><polygon id="path277_fill" points="0 14.4 .4 14.8 14.7 .4 14.3 0" class="st4"/></g></g><g transform="translate(3.000000, 3.000000) translate(3.000000, 27.000000)"><g id="path278_fill-link" transform="translate(7.912879, 8.070560) scale(-1, 1) rotate(-45.084991) translate(-7.912879, -8.070560) translate(-2.587767, 7.570529)"><polygon id="path278_fill" points="20.3 0 0 0 0 .6 20.3 .6" class="st4"/></g></g><g transform="translate(3.000000, 3.000000) translate(6.000000, 24.000000)"><g id="path279_fill-link" transform="translate(7.879879, 8.031660) scale(-1, 1) rotate(-45.076933) translate(-7.879879, -8.031660) translate(-2.620766, 7.531628)"><polygon id="path279_fill" points="20.3 0 0 0 0 .6 20.3 .6" class="st4"/></g></g><g transform="translate(3.000000, 3.000000) translate(9.000000, 21.000000)"><g id="path280_fill-link" transform="translate(8.323000, 8.240000) scale(-1, 1) translate(-8.323000, -8.240000) translate(0.823000, 0.740000)"><polygon id="path280_fill" points="0 14.3 .5 14.8 14.8 .4 14.4 0" class="st4"/></g></g><g transform="translate(3.000000, 3.000000) translate(12.000000, 18.000000)"><g id="path281_fill-link" transform="translate(7.998890, 7.933671) scale(-1, 1) rotate(-44.915009) translate(-7.998890, -7.933671) translate(-2.501758, 7.433640)"><polygon id="path281_fill" points="20.3 0 0 0 0 .6 20.3 .6" class="st4"/></g></g><g transform="translate(3.000000, 3.000000) translate(15.000000, 15.000000)"><g id="path282_fill-link" transform="translate(8.304000, 8.140000) scale(-1, 1) translate(-8.304000, -8.140000) translate(0.804000, 0.640000)"><polygon id="path282_fill" points="0 14.3 .4 14.8 14.7 .4 14.3 0" class="st4"/></g></g><g transform="translate(3.000000, 3.000000) translate(18.000000, 12.000000)"><g id="path283_fill-link" transform="translate(8.425000, 8.150000) scale(-1, 1) translate(-8.425000, -8.150000) translate(0.925000, 0.650000)"><polygon id="path283_fill" points="0 14.3 .4 14.7 14.8 .4 14.4 0" class="st4"/></g></g><g transform="translate(3.000000, 3.000000) translate(21.000000, 9.000000)"><g id="path284_fill-link" transform="translate(8.415000, 8.030000) scale(-1, 1) translate(-8.415000, -8.030000) translate(0.915000, 0.530000)"><polygon id="path284_fill" points="0 14.4 .4 14.8 14.7 .4 14.3 0" class="st4"/></g></g><g transform="translate(3.000000, 3.000000) translate(25.000000, 6.000000)"><g id="path285_fill-link" transform="translate(7.536000, 8.050000) scale(-1, 1) translate(-7.536000, -8.050000) translate(0.036000, 0.550000)"><polygon id="path285_fill" points="0 14.3 .5 14.7 14.8 .4 14.4 0" class="st4"/></g></g><g transform="translate(3.000000, 3.000000) translate(28.000000, 3.000000)"><g id="path286_fill-link" transform="translate(7.527000, 7.930000) scale(-1, 1) translate(-7.527000, -7.930000) translate(0.027000, 0.430000)"><polygon id="path286_fill" points="0 14.4 .4 14.8 14.8 .5 14.3 0" class="st4"/></g></g><g transform="translate(3.000000, 3.000000) translate(31.000000, 0.000000)"><g id="path287_fill-link" transform="translate(7.648000, 7.940000) scale(-1, 1) translate(-7.648000, -7.940000) translate(0.148000, 0.440000)"><polygon id="path287_fill" points="0 14.3 .5 14.8 14.8 .4 14.4 0" class="st4"/></g></g></g><g id="Vector_40_"><g><g transform="translate(1.000000, 0.000000) translate(2.000000, 0.000000) translate(12.000000, 18.000000)"><g id="path288_fill-link" transform="translate(5.869373, 5.698383) scale(-1, 1) rotate(-45.016198) translate(-5.869373, -5.698383) translate(0.869421, 3.698402)"><polygon id="path288_fill" points="9.2 0 0 0 0 3.6 9.2 3.6" class="st5"/></g></g><g transform="translate(1.000000, 0.000000) translate(2.000000, 0.000000) translate(20.000000, 26.000000)"><g id="path289_fill-link" transform="translate(5.265773, 5.109783) scale(-1, 1) rotate(-45.000000) translate(-5.265773, -5.109783) translate(0.265820, 3.109802)"><polygon id="path289_fill" points="9.2 0 0 0 0 3.6 9.2 3.6" class="st5"/></g></g><g transform="translate(1.000000, 0.000000) translate(2.000000, 0.000000) translate(6.000000, 24.000000)"><g id="path290_fill-link" transform="translate(5.749773, 5.789783) scale(-1, 1) rotate(-45.000000) translate(-5.749773, -5.789783) translate(0.749820, 3.789802)"><polygon id="path290_fill" points="9.2 0 0 0 0 3.6 9.2 3.6" class="st5"/></g></g><g transform="translate(1.000000, 0.000000) translate(2.000000, 0.000000) translate(8.000000, 38.000000)"><g id="path291_fill-link" transform="translate(5.028673, 5.297683) scale(-1, 1) rotate(-45.024296) translate(-5.028673, -5.297683) translate(0.028721, 3.297701)"><polygon id="path291_fill" points="9.2 0 0 0 0 3.6 9.2 3.6" class="st5"/></g></g><g transform="translate(1.000000, 0.000000) translate(2.000000, 0.000000) translate(0.000000, 30.000000)"><g id="path292_fill-link" transform="translate(5.631773, 5.879783) scale(-1, 1) rotate(-45.000000) translate(-5.631773, -5.879783) translate(0.631820, 3.879802)"><polygon id="path292_fill" points="9.2 0 0 0 0 3.6 9.2 3.6" class="st5"/></g></g><g transform="translate(1.000000, 0.000000) translate(2.000000, 0.000000) translate(14.000000, 32.000000)"><g id="path293_fill-link" transform="translate(5.152373, 5.188383) scale(-1, 1) rotate(-45.016198) translate(-5.152373, -5.188383) translate(0.152421, 3.188402)"><polygon id="path293_fill" points="9.2 0 0 0 0 3.6 9.2 3.6" class="st5"/></g></g><g transform="translate(1.000000, 0.000000) translate(2.000000, 0.000000) translate(25.000000, 6.000000)"><g id="path294_fill-link" transform="translate(5.105773, 5.529783) scale(-1, 1) rotate(-45.000000) translate(-5.105773, -5.529783) translate(0.105820, 3.529802)"><polygon id="path294_fill" points="9.2 0 0 0 0 3.6 9.2 3.6" class="st5"/></g></g><g transform="translate(1.000000, 0.000000) translate(2.000000, 0.000000) translate(38.000000, 7.000000)"><g id="path295_fill-link" transform="translate(5.748000, 5.990000) scale(-1, 1) translate(-5.748000, -5.990000) translate(0.748000, 0.990000)"><polygon id="path295_fill" points="2.9 9.6 0 6.8 0 6.4 6.4 0 9.4 3" class="st5"/></g></g><g transform="translate(1.000000, 0.000000) translate(2.000000, 0.000000) translate(31.000000, 0.000000)"><g id="path296_fill-link" transform="translate(5.596000, 5.710000) scale(-1, 1) translate(-5.596000, -5.710000) translate(0.596000, 0.710000)"><polygon id="path296_fill" points="6.8 0 9.6 2.9 3.1 9.5 0 6.4 6.4 0" class="st5"/></g></g><g transform="translate(1.000000, 0.000000) translate(2.000000, 0.000000) translate(32.000000, 13.000000)"><g id="path297_fill-link" transform="translate(5.507373, 5.928383) scale(-1, 1) rotate(-45.016198) translate(-5.507373, -5.928383) translate(0.507421, 3.928402)"><polygon id="path297_fill" points="9.2 0 0 0 0 3.6 9.2 3.6" class="st5"/></g></g><g transform="translate(1.000000, 0.000000) translate(2.000000, 0.000000) translate(19.000000, 12.000000)"><g id="path298_fill-link" transform="translate(4.974373, 5.612083) scale(-1, 1) rotate(-44.971656) translate(-4.974373, -5.612083) translate(-0.025935, 3.611961)"><polygon id="path298_fill" points="9.2 0 0 0 0 3.6 9.2 3.6" class="st5"/></g></g><g transform="translate(1.000000, 0.000000) translate(2.000000, 0.000000) translate(26.000000, 20.000000)"><g id="path299_fill-link" transform="translate(5.384173, 5.031183) scale(-1, 1) rotate(-44.983802) translate(-5.384173, -5.031183) translate(0.384219, 3.031202)"><polygon id="path299_fill" points="9.2 0 0 0 0 3.6 9.2 3.6" class="st5"/></g></g></g><g><g transform="translate(1.000000, 0.000000) translate(0.000000, 3.000000) translate(5.000000, 24.000000)"><g id="path300_fill-link" transform="translate(5.781773, 5.839783) scale(-1, 1) rotate(-45.000000) translate(-5.781773, -5.839783) translate(0.781820, 3.839802)"><polygon id="path300_fill" points="9.2 0 0 0 0 3.6 9.2 3.6" class="st6"/></g></g><g transform="translate(1.000000, 0.000000) translate(0.000000, 3.000000) translate(19.000000, 26.000000)"><g id="path301_fill-link" transform="translate(5.208773, 5.069783) scale(-1, 1) rotate(-45.000000) translate(-5.208773, -5.069783) translate(0.208820, 3.069802)"><polygon id="path301_fill" points="9.2 0 0 0 0 3.6 9.2 3.6" class="st6"/></g></g><g transform="translate(1.000000, 0.000000) translate(0.000000, 3.000000) translate(11.000000, 18.000000)"><g id="path302_fill-link" transform="translate(5.807773, 5.659783) scale(-1, 1) rotate(-45.000000) translate(-5.807773, -5.659783) translate(0.807820, 3.659802)"><polygon id="path302_fill" points="9.2 0 0 0 0 3.6 9.2 3.6" class="st6"/></g></g><g transform="translate(1.000000, 0.000000) translate(0.000000, 3.000000) translate(0.000000, 31.000000)"><g id="path303_fill-link" transform="translate(5.028000, 5.490000) scale(-1, 1) translate(-5.028000, -5.490000) translate(0.528000, 0.490000)"><polygon id="path303_fill" points="9 2.9 2.6 9.1 0 6.5 6.5 0 9 2.5" class="st6"/></g></g><g transform="translate(1.000000, 0.000000) translate(0.000000, 3.000000) translate(13.000000, 32.000000)"><g id="path304_fill-link" transform="translate(5.180173, 5.251183) scale(-1, 1) rotate(-44.983802) translate(-5.180173, -5.251183) translate(0.180219, 3.251202)"><polygon id="path304_fill" points="9.2 0 0 0 0 3.6 9.2 3.6" class="st6"/></g></g><g transform="translate(1.000000, 0.000000) translate(0.000000, 3.000000) translate(6.000000, 38.000000)"><g id="path305_fill-link" transform="translate(5.940000, 5.390000) scale(-1, 1) translate(-5.940000, -5.390000) translate(0.940000, 0.890000)"><polygon id="path305_fill" points="2.7 9 2.3 9 0 6.5 6.5 0 9.1 2.6" class="st6"/></g></g><g transform="translate(1.000000, 0.000000) translate(0.000000, 3.000000) translate(37.000000, 7.000000)"><g id="path299_fill-link_1_" transform="translate(5.470173, 5.901183) scale(-1, 1) rotate(-44.983802) translate(-5.470173, -5.901183) translate(0.470219, 3.901202)"><polygon id="path299_fill_1_" points="9.2 0 0 0 0 3.6 9.2 3.6" class="st6"/></g></g><g transform="translate(1.000000, 0.000000) translate(0.000000, 3.000000) translate(30.000000, 0.000000)"><g id="path306_fill-link" transform="translate(5.060473, 5.477183) scale(-1, 1) rotate(-45.028344) translate(-5.060473, -5.477183) translate(0.060167, 3.477060)"><polygon id="path306_fill" points="9.2 0 0 0 0 3.6 9.2 3.6" class="st6"/></g></g><g transform="translate(1.000000, 0.000000) translate(0.000000, 3.000000) translate(17.000000, 12.000000)"><g id="path307_fill-link" transform="translate(5.832173, 5.661183) scale(-1, 1) rotate(-44.983802) translate(-5.832173, -5.661183) translate(0.832219, 3.661202)"><polygon id="path307_fill" points="9.2 0 0 0 0 3.6 9.2 3.6" class="st6"/></g></g><g transform="translate(1.000000, 0.000000) translate(0.000000, 3.000000) translate(24.000000, 6.000000)"><g id="path308_fill-link" transform="translate(4.956873, 5.561883) scale(-1, 1) rotate(-44.975704) translate(-4.956873, -5.561883) translate(-0.043081, 3.561902)"><polygon id="path308_fill" points="9.2 0 0 0 0 3.6 9.2 3.6" class="st6"/></g></g><g transform="translate(1.000000, 0.000000) translate(0.000000, 3.000000) translate(31.000000, 14.000000)"><g id="path309_fill-link" transform="translate(5.352773, 4.979783) scale(-1, 1) rotate(-45.000000) translate(-5.352773, -4.979783) translate(0.352820, 2.979802)"><polygon id="path309_fill" points="9.2 0 0 0 0 3.6 9.2 3.6" class="st6"/></g></g><g transform="translate(1.000000, 0.000000) translate(0.000000, 3.000000) translate(25.000000, 20.000000)"><g id="path310_fill-link" transform="translate(5.325173, 4.981183) scale(-1, 1) rotate(-44.983802) translate(-5.325173, -4.981183) translate(0.325219, 2.981202)"><polygon id="path310_fill" points="9.2 0 0 0 0 3.6 9.2 3.6" class="st6"/></g></g></g></g><g id="Vector_41_" class="st7" transform="translate(25.000000, 0.000000)"><g id="path311_fill-link" transform="translate(13.898000, 17.690000) scale(-1, 1) translate(-13.898000, -17.690000) translate(0.398000, 0.190000)"><polygon id="path311_fill" points="26.7 11.8 14.8 0 13.9 0 0 13.9 0 14.8 19.6 34.3" class="st9"/></g></g></g><g id="Group_4_" transform="translate(28.000000, 27.000000)"><g id="Vector_42_" transform="translate(2.000000, 2.000000)"><g id="path312_fill-link" transform="translate(6.516000, 6.600000) scale(-1, 1) translate(-6.516000, -6.600000) translate(0.516000, 0.600000)"><path id="path312_fill" d="M11.8,0C11.4-0.4,0,8.8,0,8.8l3,3C3,11.8,12.2,0.4,11.8,0z" class="st10"/></g></g><g id="Vector_43_"><g id="path313_fill-link" transform="translate(2.962617, 3.081200) scale(-1, 1) rotate(-44.967605) translate(-2.962617, -3.081200) translate(1.462631, 1.581214)"><path id="path313_fill" d="M1.4,2.9c0.8,0,1.4-0.6,1.4-1.4C2.9,0.6,2.2,0,1.4,0C0.6,0,0,0.6,0,1.4 C0,2.2,0.6,2.9,1.4,2.9z" class="st10"/></g></g></g><g id="Vector_44_" class="st11" transform="translate(28.000000, 29.000000)"><g id="path314_fill-link" transform="translate(6.826000, 6.730000) scale(-1, 1) translate(-6.826000, -6.730000) translate(0.826000, 0.230000)"><path id="path314_fill" d="M0,10.8l1.4,1.4c0,0,5.5-6.8,7.8-10.1c0.5,0.3,1.2,0.1,1.6-0.3 c0.5-0.5,0.5-1.3,0.1-1.8L0,10.8z" class="st9"/></g></g><g id="Group_5_" transform="translate(36.000000, 35.000000)"><g id="Vector_45_" transform="translate(1.000000, 0.000000)"><g id="path315_fill-link" transform="translate(4.015000, 4.950000) scale(-1, 1) translate(-4.015000, -4.950000) translate(0.015000, 0.950000)"><path id="path315_fill" d="M8,8C7.7,8.2,5.7,6.7,3.5,4.4C1.3,2.2-0.2,0.3,0,0c0.3-0.3,2.3,1.2,4.6,3.4 C6.8,5.6,8.2,7.7,8,8z" class="st4"/></g></g><g id="Vector_46_"><g id="path316_fill-link" transform="translate(5.730712, 6.266756) scale(-1, 1) rotate(-45.004049) translate(-5.730712, -6.266756) translate(3.730590, 0.266388)"><polygon id="path316_fill" points="3.5 0 0 0 0 11.2 3.5 11.2" class="st4"/></g></g></g><g id="Vector_47_" class="st11" transform="translate(36.000000, 39.000000)"><g id="path317_fill-link" transform="translate(3.796000, 3.860000) scale(-1, 1) translate(-3.796000, -3.860000) translate(0.296000, 0.360000)"><path id="path317_fill" d="M0,3.1l3.8,3.8l2.5-2.5C6.5,4.2,5.1,2.1,3,0L0,3.1z" class="st9"/></g></g><g id="Group_6_" transform="translate(36.000000, 35.000000)"><g id="Vector_48_" transform="translate(1.000000, 1.000000)"><g id="path318_fill-link" transform="translate(8.234199, 8.307065) scale(-1, 1) rotate(-45.000000) translate(-8.234199, -8.307065) translate(5.234227, -0.192855)"><polygon id="path318_fill" points="5.6 0 0 0 0 16.8 5.6 16.8" class="st12"/></g></g><g id="Vector_49_"><g id="path319_fill-link" transform="translate(7.214390, 7.517173) scale(-1, 1) rotate(-45.000000) translate(-7.214390, -7.517173) translate(5.714404, -0.982747)"><path id="path319_fill" d="M1.4,16.6c0.8,0,1.4-3.7,1.4-8.3C2.9,3.7,2.2,0,1.4,0C0.6,0,0,3.7,0,8.3 C0,12.9,0.6,16.6,1.4,16.6z" class="st12"/></g></g></g><g id="Vector_50_" class="st11" transform="translate(37.000000, 41.000000)"><g id="path320_fill-link" transform="translate(5.327000, 6.200000) scale(-1, 1) translate(-5.327000, -6.200000) translate(0.327000, 0.700000)"><path id="path320_fill" d="M0,4.8l5.9,5.8l3.9-3.9C10.3,6.2,8.2,3.2,4.9,0L0,4.8z" class="st9"/></g></g><g id="Group_7_" transform="translate(35.000000, 34.000000)"><g id="Vector_51_"><g id="path321_fill-link" transform="translate(10.531815, 10.847282) scale(-1, 1) rotate(-45.000000) translate(-10.531815, -10.847282) translate(7.531844, -0.652610)"><path id="path321_fill" d="M2.7,22.4c1.5,0,2.7-5,2.7-11.2C5.5,5,4.2,0,2.7,0C1.2,0,0,5,0,11.2 C0,17.3,1.2,22.4,2.7,22.4z" class="st4"/></g></g><g id="Vector_52_" transform="translate(2.000000, 2.000000)"><g id="path322_fill-link" transform="translate(18.428744, 18.953153) scale(-1, 1) rotate(-45.000000) translate(-18.428744, -18.953153) translate(4.428877, 7.453261)"><polygon id="path322_fill" points="27.9 0 0 0 0 22.4 27.9 22.4" class="st4"/></g></g><g id="Vector_53_" transform="translate(20.000000, 20.000000)"><g id="path323_fill-link" transform="translate(10.262815, 10.607282) scale(-1, 1) rotate(-45.000000) translate(-10.262815, -10.607282) translate(7.262844, -0.892610)"><path id="path323_fill" d="M2.7,22.4c1.5,0,2.7-5,2.7-11.2C5.5,5,4.2,0,2.7,0C1.2,0,0,5,0,11.2 C0,17.3,1.2,22.4,2.7,22.4z" class="st3"/></g></g></g><g id="Vector_54_" class="st11" transform="translate(37.000000, 43.000000)"><g id="path324_fill-link" transform="translate(15.482000, 15.000000) scale(-1, 1) translate(-15.482000, -15.000000) translate(0.482000, 0.000000)"><path id="path324_fill" d="M0,23.6c4.3,4.3,8.7,6.9,9.8,5.8L29.5,9.7c1-1-1.6-5.5-5.9-9.7L0,23.6z" class="st9"/></g></g><g id="Group_8_" transform="translate(58.000000, 58.000000)"><g id="Vector_55_"><g id="path325_fill-link" transform="translate(7.018851, 6.580434) scale(-1, 1) rotate(-45.000000) translate(-7.018851, -6.580434) translate(5.518865, -0.919495)"><path id="path325_fill" d="M1,14c0.6,0,1-3.1,1-7c0-3.9-0.5-7-1-7C0.5,0,0,3.1,0,7C0,10.9,0.5,14,1,14z" class="st12"/></g></g><g id="Vector_56_" transform="translate(2.000000, 1.000000)"><g id="path326_fill-link" transform="translate(7.482390, 7.476956) scale(-1, 1) rotate(-45.000000) translate(-7.482390, -7.476956) translate(4.482418, 0.477022)"><polygon id="path326_fill" points="5.6 0 0 0 0 13.9 5.6 13.9" class="st12"/></g></g></g><g id="Vector_57_" class="st11" transform="translate(60.000000, 63.000000)"><g id="path327_fill-link" transform="translate(5.062000, 5.910000) scale(-1, 1) translate(-5.062000, -5.910000) translate(0.562000, 0.910000)"><path id="path327_fill" d="M0,4.7l4.8,4.8l3.9-3.9c0.4-0.4-1.4-2.9-4-5.6L0,4.7z" class="st9"/></g></g><g id="Group_9_" transform="translate(59.000000, 58.000000)"><g id="Vector_58_"><g id="path328_fill-link" transform="translate(9.168737, 9.450542) scale(-1, 1) rotate(-45.000000) translate(-9.168737, -9.450542) translate(6.668761, -0.549363)"><path id="path328_fill" d="M2.1,19.5c1.1,0,2.1-4.4,2.1-9.7C4.2,4.4,3.2,0,2.1,0C0.9,0,0,4.4,0,9.7 C0,15.1,0.9,19.5,2.1,19.5z" class="st4"/></g></g><g id="Vector_59_" transform="translate(7.000000, 7.000000)"><g id="path329_fill-link" transform="translate(7.562000, 7.520000) scale(-1, 1) translate(-7.562000, -7.520000) translate(0.062000, 0.020000)"><path id="path329_fill" d="M6,8.9c-4.8-4.8-6.4-8.4-6-8.8s4,1.2,8.8,6c4.8,4.8,6.4,8.4,6,8.8 C14.5,15.3,10.8,13.7,6,8.9z" class="st13"/></g></g><g id="Vector_60_"><g transform="translate(6.000000, 6.000000) translate(8.000000, 0.000000)"><g id="path330_fill-link" transform="translate(3.445000, 3.560000) scale(-1, 1) translate(-3.445000, -3.560000) translate(0.445000, 0.560000)"><polygon id="path330_fill" points="5.9 4.9 .9 0 0 1.9 3.9 6" class="st9"/></g></g><g transform="translate(6.000000, 6.000000) translate(0.000000, 8.000000)"><g id="path331_fill-link" transform="translate(3.643000, 3.480000) scale(-1, 1) translate(-3.643000, -3.480000) translate(0.643000, 0.480000)"><polygon id="path331_fill" points="6 4.9 1 0 0 1.9 4 5.8" class="st9"/></g></g><g transform="translate(6.000000, 6.000000) translate(5.000000, 5.000000)"><g id="path332_fill-link" transform="translate(3.454000, 3.370000) scale(-1, 1) translate(-3.454000, -3.370000) translate(0.454000, 0.370000)"><polygon id="path332_fill" points="6 4.9 1 0 0 1.9 4 6" class="st9"/></g></g><g transform="translate(6.000000, 6.000000) translate(3.000000, 3.000000)"><g id="path333_fill-link" transform="translate(3.763000, 3.810000) scale(-1, 1) translate(-3.763000, -3.810000) translate(0.763000, 0.810000)"><polygon id="path333_fill" points="5.9 4.9 .9 0 0 1.9 3.9 5.8" class="st9"/></g></g></g><g id="Vector_61_" transform="translate(2.000000, 2.000000)"><g id="path334_fill-link" transform="translate(10.525000, 10.660000) scale(-1, 1) translate(-10.525000, -10.660000) translate(0.525000, 0.660000)"><path id="path334_fill" d="M19.8,13.8L6,0L0,3.9l0.5,0.5c0.4-0.4,4,1.2,8.8,6c4.8,4.8,6.4,8.4,6,8.8l0.5,0.5 L19.8,13.8z" class="st4"/></g></g><g id="Vector_62_"><g transform="translate(6.000000, 7.000000) translate(4.000000, 3.000000)"><g id="path335_fill-link" transform="translate(3.321275, 3.579659) scale(-1, 1) rotate(-45.008099) translate(-3.321275, -3.579659) translate(1.821290, 0.579687)"><path id="path335_fill" d="M1,5.5c0.6,0,1-1.2,1-2.7C2.1,1.2,1.6,0,1,0C0.5,0,0,1.2,0,2.7 C0,4.2,0.5,5.5,1,5.5z" class="st14"/></g></g><g transform="translate(6.000000, 7.000000) translate(0.000000, 8.000000)"><g id="path336_fill-link" transform="translate(4.087425, 3.230109) scale(-1, 1) rotate(-45.000000) translate(-4.087425, -3.230109) translate(2.587440, 0.230137)"><path id="path336_fill" d="M1,5.5c0.6,0,1-1.2,1-2.7S1.6,0,1,0C0.5,0,0,1.2,0,2.7S0.5,5.5,1,5.5z" class="st14"/></g></g><g transform="translate(6.000000, 7.000000) translate(8.000000, 0.000000)"><g id="path337_fill-link" transform="translate(3.944426, 3.430108) scale(-1, 1) rotate(-45.000000) translate(-3.944426, -3.430108) translate(2.444440, 0.430137)"><path id="path337_fill" d="M1,5.5c0.6,0,1-1.2,1-2.7S1.6,0,1,0C0.5,0,0,1.2,0,2.7C0,4.2,0.5,5.5,1,5.5z" class="st14"/></g></g><g transform="translate(6.000000, 7.000000) translate(6.000000, 5.000000)"><g id="path338_fill-link" transform="translate(3.101356, 3.473878) scale(-1, 1) rotate(-44.991901) translate(-3.101356, -3.473878) translate(2.101365, 0.473907)"><path id="path338_fill" d="M0.9,5.5c0.5,0,0.9-1.2,0.9-2.7C1.8,1.2,1.4,0,0.9,0C0.4,0,0,1.2,0,2.7 C0,4.2,0.4,5.5,0.9,5.5z" class="st14"/></g></g></g><g id="Vector_63_"><g transform="translate(8.000000, 9.000000) translate(4.000000, 3.000000)"><g id="path339_fill-link" transform="translate(1.743000, 1.900000) scale(-1, 1) translate(-1.743000, -1.900000) translate(0.243000, 0.400000)"><path id="path339_fill" d="M1.2,1.6C0.5,0.9,0.1,0.3,0,0c0.4,0.1,0.9,0.5,1.6,1.2c0.7,0.6,1,1.3,1.2,1.6 C2.5,2.6,1.8,2.2,1.2,1.6z" class="st15"/></g></g><g transform="translate(8.000000, 9.000000) translate(0.000000, 8.000000)"><g id="path340_fill-link" transform="translate(2.493000, 1.580000) scale(-1, 1) translate(-2.493000, -1.580000) translate(0.993000, 0.080000)"><path id="path340_fill" d="M1.2,1.6C0.5,0.9,0.1,0.3,0,0c0.4,0.1,0.9,0.5,1.6,1.2c0.7,0.6,1,1.3,1.2,1.6 C2.5,2.6,1.8,2.2,1.2,1.6z" class="st15"/></g></g><g transform="translate(8.000000, 9.000000) translate(8.000000, 0.000000)"><g id="path341_fill-link" transform="translate(2.424000, 1.790000) scale(-1, 1) translate(-2.424000, -1.790000) translate(0.924000, 0.290000)"><path id="path341_fill" d="M1.2,1.6C0.5,0.9,0.1,0.3,0,0c0.4,0.1,0.9,0.5,1.6,1.2c0.7,0.6,1,1.3,1.2,1.6 C2.5,2.5,1.8,2.2,1.2,1.6z" class="st15"/></g></g><g transform="translate(8.000000, 9.000000) translate(5.000000, 5.000000)"><g id="path342_fill-link" transform="translate(2.044000, 1.850000) scale(-1, 1) translate(-2.044000, -1.850000) translate(0.544000, 0.350000)"><path id="path342_fill" d="M1,1.2C0.5,0.6,0.3,0.3,0,0c0.4,0.3,0.8,0.5,1.2,1c0.5,0.5,0.8,0.9,1,1.2 C2,1.9,1.4,1.6,1,1.2z" class="st15"/></g></g></g><g id="Vector_64_" transform="translate(5.000000, 6.000000)"><g id="path343_fill-link" transform="translate(9.254000, 8.830000) scale(-1, 1) translate(-9.254000, -8.830000) translate(0.754000, 0.330000)"><path id="path343_fill" d="M10.1,6.2c-4.4-4.4-8.8-7-9.9-6c-1,1,1.6,5.5,6,9.9c4.4,4.4,8.8,7,9.9,6 C17.1,14.9,14.5,10.5,10.1,6.2z M6.7,9.6c-4.8-4.8-6.4-8.4-6-8.8c0.4-0.4,4,1.2,8.8,6c4.8,4.8,6.4,8.4,6,8.8 C15.2,15.9,11.5,14.4,6.7,9.6z" class="st3"/></g></g></g><g id="Vector_65_" class="st11" transform="translate(61.000000, 66.000000)"><g id="path344_fill-link" transform="translate(7.414000, 7.620000) scale(-1, 1) translate(-7.414000, -7.620000) translate(0.414000, 0.120000)"><path id="path344_fill" d="M0,8.4c4.3,4.3,8.7,6.9,9.8,5.8l3.9-6c0.8-0.8-1.6-4.5-5.3-8.3L0,8.4z" class="st9"/></g></g></g></g></g></g></g><g id="Astronaut__x28_voorbeeld_x29_" class="st16"><g id="duhanhgia" class="st17" transform="translate(80.000000, 37.000000)"><g id="Vector_6_" transform="translate(28.000000, 49.000000)"><g id="path185_fill-link" transform="translate(30.467000, 30.430000) scale(-1, 1) translate(-30.467000, -30.430000) translate(0.467000, 0.430000)"><path id="path185_fill" d="M60.2,44.8c0.4,1.7-0.7,3.5-2.5,3.9L15.5,59.1c-1.8,0.4-3.6-0.6-4-2.3L1.1,14.4 c-0.4-1.7,0.7-3.5,2.5-3.9L45.8,0.1c1.8-0.4,3.6,0.6,4,2.3L60.2,44.8z" class="st3"/></g></g><g id="Group" transform="translate(0.000000, 49.000000)"><g id="Vector_7_"><g transform="translate(51.000000, 57.000000)"><g id="path186_fill-link" transform="translate(12.122000, 24.710000) scale(-1, 1) translate(-12.122000, -24.710000) translate(0.122000, 0.710000)"><path id="path186_fill" d="M24,1.6c0,0.1,0,0.3,0,0.5c0.1,3.4,0.1,20.4-1.3,32.5c-0.1,0.5-0.1,0.9-0.1,1.4 c0,0.1,0,0.1,0,0.3c-0.3,1.4-0.4,2.9-0.7,4.2c-0.1,0.4-0.1,0.6-0.3,1c-0.5,2.2-1,3.9-1.7,4.9c-0.1,0.1-0.1,0.3-0.3,0.4 c-0.4,0.5-0.8,0.8-1.2,0.8c-0.1,0-0.4,0-0.5,0c-0.1,0-0.3,0-0.4,0s-0.3,0-0.5-0.1c-0.1,0-0.3-0.1-0.4-0.1 c-0.5-0.3-1-0.5-1.4-0.9c-0.1-0.1-0.4-0.3-0.5-0.4c-0.3-0.3-0.4-0.4-0.7-0.6c-0.3-0.3-0.4-0.5-0.7-0.8 c-0.4-0.5-0.8-1.2-1.2-1.7c-0.1-0.3-0.4-0.6-0.5-1c-0.8-1.3-1.4-2.9-2.2-4.5c-0.1-0.3-0.3-0.5-0.3-0.8 c-0.1-0.1-0.1-0.4-0.3-0.5c-0.1-0.4-0.3-0.6-0.4-1C4.5,24.1,1.5,9,1,0.6C1,0.3,23.8-1.1,24,1.6z" class="st4"/></g></g><g transform="translate(51.000000, 57.000000) translate(2.000000, 35.000000)"><g id="path187_fill-link" transform="translate(7.191000, 7.320000) scale(-1, 1) translate(-7.191000, -7.320000) translate(0.191000, 0.820000)"><path id="path187_fill" d="M14.5,1.1c0,0.1,0,0.1,0,0.3c-0.3,1.4-0.4,2.9-0.7,4.2c-0.1,0.4-0.1,0.6-0.3,1 c-0.5,2.2-1,3.9-1.7,4.9c-0.1,0.1-0.1,0.3-0.3,0.4c-0.4,0.5-0.8,0.8-1.2,0.8c-0.1,0-0.4,0-0.5,0c-0.1,0-0.3,0-0.4,0 c-0.1,0-0.3,0-0.5-0.1c-0.1,0-0.3-0.1-0.4-0.1c-0.5-0.3-1-0.5-1.4-0.9c-0.1-0.1-0.4-0.3-0.5-0.4c-0.3-0.3-0.4-0.4-0.7-0.6 c-0.3-0.3-0.4-0.5-0.7-0.8C5,9.1,4.6,8.5,4.3,8c-0.1-0.3-0.4-0.6-0.5-1C3,5.6,2.3,4.1,1.5,2.4C1.4,2.1,1.3,1.9,1.3,1.6 C1.1,1.5,1.1,1.2,1,1.1c1.6-0.6,3.3-1,5.1-1c1.2-0.1,2.2,0,3.4,0.1C11.4-0.1,13.1,0.3,14.5,1.1z" class="st14"/></g></g><g transform="translate(51.000000, 57.000000) translate(0.000000, 34.000000)"><g id="path188_fill-link" transform="translate(8.875000, 1.840000) scale(-1, 1) translate(-8.875000, -1.840000) translate(0.875000, 0.340000)"><path id="path188_fill" d="M16.1,2.2c-0.1,0.3-0.3,0.5-0.7,0.5c-0.1,0-0.3,0-0.3,0h-0.1C13.6,2.3,12,2,10.3,1.9 c-1-0.1-2.1,0-3.1,0C5.5,2,3.8,2.3,2.2,2.7H2.1C1.6,2.8,1.2,2.6,1,2C0.9,1.7,1.2,1.1,1.6,1c1.7-0.5,3.5-0.8,5.3-0.9 C8.1,0,9.2,0,10.4,0.1c1.8,0.1,3.5,0.4,4.9,0.9h0.1C16,1.3,16.2,1.8,16.1,2.2z" class="st18"/></g></g></g><g id="Vector_8_" class="st7" transform="translate(51.000000, 60.000000)"><g id="path189_fill-link" transform="translate(5.449000, 23.010000) scale(-1, 1) translate(-5.449000, -23.010000) translate(0.949000, 0.010000)"><path id="path189_fill" d="M9.2,33.5C9.1,33.8,8.9,34,8.5,34c-0.1,0-0.3,0-0.3,0c-0.3,1.4-0.4,2.9-0.7,4.2 c-0.1,0.4-0.1,0.6-0.3,1c-0.5,2.2-1,3.9-1.7,4.9c-0.1,0.1-0.1,0.3-0.3,0.4c-0.4,0.5-0.8,0.8-1.2,0.8c-0.1,0-0.4,0-0.5,0 c-0.1,0-0.3,0-0.4,0c-0.1,0-0.3,0-0.5-0.1c-0.1,0-0.3-0.1-0.4-0.1c-0.5-0.3-1-0.5-1.4-0.9c0.9-2.7,1.7-6.5,2.2-10.8 c0-0.3,0.1-0.5,0.1-0.8s0-0.6,0.1-0.9c1-9.2,1.2-20.7,0.1-30.9C6.2,0.5,7.9,0.4,9.7,0c0.1,3.4,0.1,20.4-1.3,32.5h0.1 C9.1,32.6,9.3,33.1,9.2,33.5z" class="st9"/></g></g><g id="Vector_9_"><g transform="translate(20.000000, 47.000000)"><g id="path190_fill-link" transform="translate(15.985000, 25.520000) scale(-1, 1) translate(-15.985000, -25.520000) translate(0.985000, 0.020000)"><path id="path190_fill" d="M30.2,34.4c0,0.4,0.1,0.8,0.1,1s0,0.4,0,0.5v0.1c0,0.4,0.1,0.8,0.1,1.2 c0,0.4,0,0.6,0.1,1c0.1,3,0.1,5.6-0.4,7.5c0,0.3-0.1,0.5-0.3,0.8s-0.1,0.5-0.3,0.9c-0.1,0.3-0.1,0.4-0.3,0.6 c-0.1,0.3-0.3,0.4-0.4,0.5c-0.1,0.1-0.3,0.3-0.4,0.4c-0.1,0.1-0.3,0.3-0.4,0.4c-0.1,0.1-0.3,0.3-0.4,0.3 c-0.1,0.1-0.3,0.1-0.4,0.3c-0.3,0.1-0.5,0.1-0.8,0c-0.1,0-0.1,0-0.3,0c-0.4-0.1-0.9-0.4-1.4-0.8c-0.1-0.1-0.3-0.3-0.4-0.3 c-0.4-0.4-0.8-0.6-1.3-1.2c-0.3-0.3-0.5-0.6-0.9-1c-0.7-0.6-1.3-1.6-2-2.3c-0.3-0.4-0.7-0.9-1-1.3c-0.3-0.4-0.7-0.8-0.9-1.3 c0-0.1-0.1-0.1-0.1-0.3c-0.3-0.4-0.5-0.8-0.8-1.2C10.7,30.3,2.9,15.5,1.3,12.3C1.2,12.1,1.2,12,1,11.8 c-0.8-1.7,8.1-6.2,14-9.2C18.2,1,20.7,0,20.7,0C24.3,8.1,28.7,22.9,30.2,34.4z" class="st4"/></g></g><g transform="translate(20.000000, 47.000000) translate(0.000000, 35.000000)"><g id="path191_fill-link" transform="translate(7.143000, 7.980000) scale(-1, 1) translate(-7.143000, -7.980000) translate(0.643000, 0.480000)"><path id="path191_fill" d="M13,0c0,0.3,0,0.4,0,0.5v0.1c0,0.4,0.1,0.8,0.1,1.2c0,0.4,0,0.6,0.1,1 c0.1,3,0.1,5.6-0.4,7.5c0,0.3-0.1,0.5-0.3,0.8c-0.1,0.3-0.1,0.5-0.3,0.9c-0.1,0.3-0.1,0.4-0.3,0.6c-0.1,0.3-0.3,0.4-0.4,0.5 c-0.1,0.1-0.3,0.3-0.4,0.4S11,13.9,10.9,14c-0.1,0.1-0.3,0.3-0.4,0.3c-0.1,0.1-0.3,0.1-0.4,0.3c-0.3,0.1-0.5,0.1-0.8,0 c-0.1,0-0.1,0-0.3,0c-0.4-0.1-0.9-0.4-1.4-0.8c-0.1-0.1-0.3-0.3-0.4-0.3c-0.4-0.4-0.8-0.6-1.3-1.2c-0.3-0.3-0.5-0.6-0.9-1 c-0.7-0.6-1.3-1.6-2-2.3C2.8,8.6,2.4,8.1,2,7.7C1.8,7.3,1.4,6.9,1.1,6.4C1.1,6.2,1,6.2,1,6.1c1.6-1.9,3.6-3.6,6.4-4.8 C8,1,8.5,0.8,9.2,0.6C10.6,0.4,11.8,0.1,13,0z" class="st14"/></g></g><g><g transform="translate(20.000000, 47.000000) translate(0.000000, 34.000000)"><g id="path192_fill-link" transform="translate(7.618000, 4.310000) scale(-1, 1) translate(-7.618000, -4.310000) translate(0.618000, 0.310000)"><path id="path192_fill" d="M14.7,0.8c0.1,0.4-0.3,0.9-0.7,0.9h-0.1c-1,0.3-2.2,0.5-3.4,0.9 C10,2.9,9.4,3,8.9,3.2C6.4,4.4,4.1,5.8,2.4,7.4L2.2,7.5C2.1,7.7,2.1,7.7,2,7.7c-0.3,0.1-0.7,0-0.8-0.3C0.9,7,0.9,6.5,1.2,6.2 l0.1-0.1c1.8-1.7,4.2-3.2,6.8-4.4c0.7-0.3,1.3-0.5,2-0.8c1.2-0.4,2.5-0.8,3.6-0.9C14.2,0,14.6,0.4,14.7,0.8z" class="st18"/></g></g></g></g><g id="Vector_10_" transform="translate(29.000000, 9.000000)"><g id="path193_fill-link" transform="translate(24.237000, 26.470000) scale(-1, 1) translate(-24.237000, -26.470000) translate(0.737000, 0.470000)"><path id="path193_fill" d="M47.2,39.4c0.3,0.9-1.8,2.5-4.8,4c-4.9,2.7-12.4,5.7-15.1,6.6c-0.4,0.1-0.7,0.3-0.8,0.3 c-0.3,0-0.5,0.1-0.8,0.1c-0.4,0.1-0.9,0.1-1.6,0.3c-0.3,0-0.5,0-0.8,0.1c-1,0.1-2.2,0.3-3.4,0.4c-0.1,0-0.3,0-0.4,0 c-6.8,0.6-16,0.9-16.5-0.9c0-0.3-0.1-0.8-0.3-1.4c-0.3-1.2-0.5-2.9-0.8-5.1c-0.1-0.5-0.1-1-0.3-1.7V42c0-0.3-0.1-0.5-0.1-0.8 c0-0.5-0.1-1-0.1-1.7c0-0.3,0-0.5-0.1-0.8v-0.1c0-0.5-0.1-1-0.1-1.6s-0.1-1.2-0.1-1.7c-0.1-2.2-0.3-4.7-0.1-7 c0-0.1,0-0.3,0-0.4c0,0,0,0,0-0.1c0,0,0,0,0-0.1c0-0.3,0-0.4,0-0.6c0-0.1,0-0.4,0-0.5c0,0,0,0,0-0.1c0-0.5,0-1,0.1-1.7 c0.1-3,0.5-6,1.2-8.8c0.1-0.6,0.3-1.3,0.5-1.9c1.4-5.5,4-10,8.3-12.3c0.9-0.5,2-0.9,3.1-1.2c1-0.3,2.1-0.4,3.1-0.4 c5.1,0,9.5,3,13.5,7.3c0,0,0.1,0.1,0.1,0.3c1.2,1.2,2.2,2.5,3.1,3.9c1,1.4,2,2.9,2.9,4.4c0.3,0.4,0.4,0.8,0.7,1 c0,0.1,0.1,0.1,0.1,0.3c0,0,0.1,0.1,0.1,0.3s0.1,0.3,0.1,0.3c0.3,0.4,0.5,0.9,0.8,1.4c0,0,0,0.1,0.1,0.1 c0.3,0.4,0.4,0.8,0.7,1.2c0.9,1.7,1.7,3.4,2.3,4.9c0.3,0.5,0.5,1,0.7,1.6c0.3,0.5,0.4,0.9,0.7,1.4v0.1c0,0.1,0.1,0.3,0.1,0.4 c0.4,0.9,0.7,1.7,1,2.6v0.1c0.3,0.5,0.4,1,0.5,1.4c0.8,1.9,1.3,3.5,1.6,4.7C47,38.6,47.1,39.1,47.2,39.4z" class="st4"/></g></g><g id="Vector_11_" transform="translate(31.000000, 41.000000)"><g id="path194_fill-link" transform="translate(23.287000, 6.620000) scale(-1, 1) translate(-23.287000, -6.620000) translate(0.787000, 0.120000)"><path id="path194_fill" d="M24.6,11.4C22.3,11.9,5.8,13.7,1.5,12c-0.4-0.1-0.7-0.6-0.4-1c0.1-0.4,0.7-0.6,1-0.4 c3.6,1.4,19.5,0,22.1-0.6c2.6-0.6,17.3-6.6,19.9-9.6c0.3-0.4,0.8-0.4,1.2-0.1c0.4,0.3,0.4,0.8,0.1,1.2 C42.5,4.7,27,10.8,24.6,11.4z" class="st18"/></g></g><g id="Vector_12_" transform="translate(28.000000, 0.000000)"><g id="path195_fill-link" transform="translate(30.985000, 19.010000) scale(-1, 1) translate(-30.985000, -19.010000) translate(0.985000, 0.010000)"><path id="path195_fill" d="M60.4,22.8L1.9,37.3C-1.9,21.7,7.1,6.1,22.1,1.4c0.5-0.3,1.2-0.4,1.7-0.5 c8.3-2.1,16.6-0.4,23.3,3.8c1.6,1,3.1,2.2,4.6,3.5c0.9,0.8,1.8,1.7,2.6,2.7c2,2.3,3.5,4.9,4.7,7.7C59.5,19.9,60,21.3,60.4,22.8 z" class="st4"/></g></g><g id="Vector_13_" transform="translate(34.000000, 0.000000)"><g id="path196_fill-link" transform="translate(26.963000, 19.870000) scale(-1, 1) translate(-26.963000, -19.870000) translate(0.963000, 0.370000)"><path id="path196_fill" d="M52.2,18.6c0,1.8-0.4,3.6-1,5.6c0,0.1-0.1,0.3-0.1,0.4c0,0,0,0,0,0.1 c-0.1,0.3-0.1,0.4-0.3,0.6c-0.4,0.9-0.8,1.8-1.3,2.7c-0.1,0.3-0.3,0.4-0.4,0.5c-0.3,0.5-0.7,1-0.9,1.6l-34.1,8.4 c-1-0.3-2-0.6-2.9-0.9h-0.1c-0.1,0-0.4-0.1-0.5-0.3c-1.3-0.5-2.5-1.2-3.4-1.8c-0.1,0-0.1-0.1-0.3-0.1s-0.1-0.1-0.3-0.1 c-1.6-1.2-2.9-2.5-3.8-3.8c-1.8-2.9-2.3-6.1-1.7-9.5c0.1-0.4,0.1-0.9,0.3-1.3c0.5-2.2,1.6-4.4,2.9-6.5c3.8-6,10-11.3,16.3-13.2 c0.4-0.1,0.8-0.3,1.3-0.4c0.4-0.1,0.9-0.3,1.3-0.3c6.6-1.2,14.2,0.3,20,3.8c0.3,0.1,0.4,0.3,0.7,0.4c1.2,0.8,2.3,1.7,3.4,2.7 c0.7,0.6,1.3,1.4,2,2.2c0.1,0.1,0.3,0.3,0.3,0.4C51.3,12.2,52.4,15.2,52.2,18.6z" class="st4"/></g></g><g id="Vector_14_"><g transform="translate(1.000000, 4.000000) translate(8.000000, 0.000000)"><g id="path197_fill-link" transform="translate(28.370000, 15.620000) scale(-1, 1) translate(-28.370000, -15.620000) translate(0.370000, 0.620000)"><path id="path197_fill" d="M56.4,14.1l-0.8,1.4L53,20.3l-0.8,1.4c-0.3-0.1-0.5-0.3-0.8-0.4 c-1.8-0.8-4.3-1.4-5.9-2.1c-3.3-1.2-9-0.8-12.1-0.1c-0.7,0.1-1.3,0.3-1.8,0.5c-0.8,0.3-1.4,0.5-2.1,0.8 c-1.2,0.5-2.2,1.3-3.1,1.9c-0.9,0.8-1.6,1.6-1.8,2.3c-0.5,1.2-1,1.7-1.8,1.9c-0.4,0.1-0.8,0.3-1.2,0.5c-1,0.4-2.5,1-4.3,2.7 l-1.2-1.4l-3.4-4.3L1,8.9c1.6-1.4,3.3-2.6,5.1-3.6c4.7-2.9,10.1-4.5,15.7-5.1c0.3,0,0.4,0,0.7-0.1c0.4,0,0.9,0,1.3,0 c1.8-0.1,3.6,0,5.6,0.3c2.1,0.1,4.2,0.5,6.2,1c0.1,0,0.3,0.1,0.4,0.1c3.5,0.9,5.7,1.4,12.5,6.1c2.3,1.3,4.2,3.5,6.4,5.2 c0.3,0.4,0.7,0.8,0.9,1C55.9,13.8,56.1,13.9,56.4,14.1z" class="st4"/></g></g><g><g transform="translate(1.000000, 4.000000) translate(0.000000, 13.000000) translate(0.000000, 1.000000)"><g id="path198_fill-link" transform="translate(6.508000, 7.940000) scale(-1, 1) translate(-6.508000, -7.940000) translate(0.008000, 0.440000)"><path id="path198_fill" d="M12.8,12c-0.1,0.3-0.3,0.4-0.4,0.5c-3.1,4-2.2-5.5-6-4.3C5,9.5,9.5,13.5,7.1,14 c-0.1,0-0.3,0-0.4,0c-1,0.1-3.1-2.5-5.3-5.7C1.3,8.1,1.1,7.8,1,7.7l0.8-1.4l2.6-4.8L5.2,0c0.3,0.1,0.5,0.1,0.8,0.3 C11.9,2.2,15.8,7.5,12.8,12z" class="st4"/></g></g><g><g transform="translate(1.000000, 4.000000) translate(0.000000, 13.000000) translate(8.000000, 0.000000)"><g id="path199_fill-link" transform="translate(3.097000, 5.870000) scale(-1, 1) translate(-3.097000, -5.870000) translate(0.097000, 0.870000)"><path id="path199_fill" d="M6.9,1c0,0.1,0,0.1-0.1,0.3L6.1,2.4L3.3,7.6L2.6,8.8C2.5,8.9,2.5,9,2.3,9 S2.2,9.1,2.1,9.1c-0.3,0-0.4,0-0.7-0.1C1,8.8,0.9,8.4,1,8l0.8-1.6l2.5-4.5l0.8-1.4C5.3,0,5.9-0.1,6.2,0C6.8,0.2,7,0.6,6.9,1 z" class="st18"/></g></g></g></g><g transform="translate(1.000000, 4.000000) translate(28.000000, 0.000000)"><g id="path200_fill-link" transform="translate(5.214000, 4.930000) scale(-1, 1) translate(-5.214000, -4.930000) translate(0.714000, 0.930000)"><path id="path200_fill" d="M9.2,1L8.3,3.9L7.4,7l-6-1.9L1,4.9l0.1-0.3L1.7,3l0.9-3c2.1,0.1,4.2,0.5,6.2,1 C8.8,1,8.9,1,9.2,1z" class="st19"/></g></g></g><g id="Vector_15_"><g transform="translate(60.000000, 11.000000)"><g id="path201_fill-link" transform="translate(23.870000, 18.840000) scale(-1, 1) translate(-23.870000, -18.840000) translate(0.370000, 0.340000)"><path id="path201_fill" d="M47.7,1l-1,6l-2.3,13.1l-1,5.3L43,27.2c-0.8-0.3-1.4-0.4-2.1-0.4 c-1-0.1-1.8-0.1-2.5-0.1c-0.3,0-0.4,0-0.7,0c-1.4,0.1-2.3,0.4-3.8-0.8c-0.5-0.4-1.2-0.8-2.1-1c-0.1,0-0.1,0-0.3-0.1 c-1.2-0.3-2.5-0.5-4-0.4c-0.1,0-0.3,0-0.3,0c-0.1,0-0.4,0-0.5,0.1c-0.7,0-1.3,0.1-2,0.3c-0.4,0.1-0.8,0.1-1.3,0.3 c-3.1,0.9-8.3,3.1-10.7,5.7l-0.1,0.1c-1.2,1.3-3,3-4.3,4.5c-0.1,0.3-0.4,0.4-0.5,0.6l-1.7-1.2L1,31.3c0.3-0.1,0.4-0.4,0.5-0.6 c0.3-0.4,0.3-0.9,0.4-1.3c1.2-2.6,1.8-5.3,3.3-7.5c3.8-7.4,5.5-8.8,8.2-11.3c0.1-0.1,0.3-0.1,0.4-0.3c1.6-1.4,3.3-2.7,4.9-3.8 c1.6-1,3.1-1.9,4.8-2.7c0.4-0.3,0.9-0.4,1.3-0.6c5.3-2.3,11.2-3.4,16.9-3c1,0,2.2,0.1,3.3,0.4C45.9,0.6,46.8,0.7,47.7,1z" class="st4"/></g></g><g><g transform="translate(60.000000, 11.000000) translate(39.000000, 30.000000) translate(0.000000, 1.000000)"><g id="path202_fill-link" transform="translate(6.901000, 8.100000) scale(-1, 1) translate(-6.901000, -8.100000) translate(0.901000, 0.600000)"><path id="path202_fill" d="M12.7,4.8c0,0.3,0,0.5-0.1,0.8c-0.4,3.9-1,7.1-2.1,7.5c-0.1,0-0.1,0-0.3,0.1 c-2.1,0.6-1-3-1.6-4.7C8.5,8.2,8.3,7.8,8,7.8C3.8,8.6,9.7,17,4.2,14.2c0,0-0.1,0-0.1-0.1c-4.7-2.5-3.8-9,0.8-13.5 C5.1,0.4,5.3,0.1,5.5,0L11,3.8L12.7,4.8z" class="st4"/></g></g><g><g transform="translate(60.000000, 11.000000) translate(39.000000, 30.000000)"><g id="path203_fill-link" transform="translate(4.715000, 4.310000) scale(-1, 1) translate(-4.715000, -4.310000) translate(0.215000, 0.810000)"><path id="path203_fill" d="M9.6,6.1C9.5,6.2,9.4,6.4,9.1,6.5c-0.1,0-0.1,0-0.3,0s-0.3,0-0.4-0.1L7,5.5L1.3,1.6 L1.2,1.4c-0.3-0.3-0.3-0.6,0-1C1.5,0,2-0.1,2.4,0.1l5.3,3.6l1.8,1.2C9.8,5.2,9.9,5.7,9.6,6.1z" class="st18"/></g></g></g></g><g transform="translate(60.000000, 11.000000) translate(25.000000, 6.000000)"><g id="path204_fill-link" transform="translate(5.017000, 5.290000) scale(-1, 1) translate(-5.017000, -5.290000) translate(0.017000, 0.790000)"><path id="path204_fill" d="M10.1,3.6L5.4,8.3L1,4c0.1-0.1,0.3-0.1,0.4-0.3C3,2.3,4.6,1,6.3,0L10.1,3.6z" class="st6"/></g></g></g><g id="Vector_16_"><g transform="translate(43.000000, 16.000000)"><g id="path205_fill-link" transform="translate(6.773871, 7.036401) scale(-1, 1) rotate(-13.845372) translate(-6.773871, -7.036401) translate(1.273842, 1.536376)"><path id="path205_fill" d="M6,10.4c2.8,0,5.1-2.3,5.1-5.1c0-2.8-2.3-5.1-5.1-5.1C3.2,0.2,1,2.5,1,5.3 C1,8.1,3.2,10.4,6,10.4z" class="st6"/></g></g><g transform="translate(43.000000, 16.000000) translate(3.000000, 0.000000)"><g id="path206_fill-link" transform="translate(5.398000, 7.750000) scale(-1, 1) translate(-5.398000, -7.750000) translate(0.398000, 0.750000)"><polygon id="path206_fill" points="1 9.6 10.8 0 6.7 13.1 5.6 8.6" class="st19"/></g></g></g><g id="Vector_17_" transform="translate(63.000000, 21.000000)"><g id="path207_fill-link" transform="translate(6.786844, 4.457094) scale(-1, 1) rotate(-13.863487) translate(-6.786844, -4.457094) translate(1.286954, 1.457155)"><polygon id="path207_fill" points="11 .2 1 .2 1 5.3 11 5.3" class="st1"/></g></g><g id="Vector_18_" class="st7"><g transform="translate(7.000000, 18.000000)"><g id="path208_fill-link" transform="translate(18.545000, 39.560000) scale(-1, 1) translate(-18.545000, -39.560000) translate(0.045000, 0.560000)"><path id="path208_fill" d="M32.3,6.9c-0.3-0.3-0.4-0.4-0.7-0.6c-0.1-0.1-0.4-0.4-0.7-0.5c-2.2-1.9-7.8-6-17-5.7 c-1.4,0-3,0.1-4.7,0.4c-2.5,0.4-5.1,1-7.9,2.2C1.1,4.4,1,6.2,1,7.8c0,1.7,0.1,3.4,0.4,4.9c0,0.1,0,0.1,0,0.1 c0.4,2.1,0.8,4,1.4,6c0.1,0.5,0.4,1,0.7,1.6c0.3,0.5,0.4,1,0.7,1.6C4.5,23,5,24,5.6,25.1c0.1,0.4,0.4,0.8,0.5,1 c0.3,0.5,0.5,1,0.7,1.6c0.7,1.2,1.2,2.3,1.7,3.6c0.4,0.8,0.7,1.6,1,2.5c0.1,0.1,0.1,0.4,0.3,0.6c2.1,5.6,6.9,18.3,9.9,29.5 l0.3,0.9c0.1,0.3,0.1,0.5,0.3,0.8c1.2,4.4,2,8.6,2.1,11.8c0.1-0.1,0.3-0.4,0.4-0.5c0.1-0.3,0.3-0.4,0.3-0.6 c0.1-0.3,0.3-0.5,0.3-0.9c0.1-0.3,0.1-0.5,0.3-0.8c0.5-1.9,0.5-4.7,0.4-7.5c0-0.4,0-0.6-0.1-1c0-0.4,0-0.8-0.1-1.2v-0.1h0.1 c0.5-0.1,0.8-0.5,0.7-0.9c-0.1-0.4-0.5-0.8-0.9-0.6c-1.4-11.6-5.7-26.4-9.1-34c-0.4-1.2-0.9-2.7-1.6-4.7 c0.1-0.1,0.3-0.3,0.3-0.3c0.3-0.4,0.3-0.9-0.1-1.2c-0.3-0.3-0.5-0.3-0.8-0.1c-0.3-0.8-0.7-1.7-1-2.6c0-0.1-0.1-0.3-0.1-0.4 v-0.1c-0.3-0.5-0.4-0.9-0.7-1.4s-0.4-1-0.7-1.6c-0.8-1.6-1.6-3.2-2.3-4.9c-0.3-0.4-0.4-0.8-0.7-1.2c0.1-0.3,0.3-0.4,0.4-0.5 c0.5-0.9,0.9-1.8,1.3-2.7C8.4,7.2,8.4,7,8.5,6.8c0,0,0,0,0-0.1C9.2,6.4,10,6,10.6,5.9l1.8-0.5c3.1-0.6,8.8-1,12.1,0.1 c1.6,0.6,4,1.3,5.9,2.1c-0.1,0.4,0,0.9,0.4,1c0.1,0.1,0.4,0.1,0.7,0.1c0.1,0,0.1,0,0.3-0.1c2.1,3.2,4.3,5.8,5.3,5.7 c0.1,0,0.3,0,0.4,0C35.3,11.3,33.8,8.6,32.3,6.9z" class="st9"/></g></g></g><g id="Vector_19_" transform="translate(63.000000, 41.000000)"><g id="path209_fill-link" transform="translate(3.488033, 3.030183) scale(-1, 1) rotate(-13.845372) translate(-3.488033, -3.030183) translate(0.988019, 0.530171)"><path id="path209_fill" d="M3.4,5.2c1.4,0,2.5-1.1,2.5-2.5c0-1.4-1.1-2.5-2.5-2.5C2.1,0.2,1,1.3,1,2.7 S2.1,5.2,3.4,5.2z" class="st9"/></g></g><g id="Vector_20_" transform="translate(65.000000, 32.000000)"><g id="path210_fill-link" transform="translate(3.587033, 3.870183) scale(-1, 1) rotate(-13.845372) translate(-3.587033, -3.870183) translate(1.087019, 1.370171)"><path id="path210_fill" d="M3.4,5.2c1.4,0,2.5-1.1,2.5-2.5S4.8,0.2,3.4,0.2C2.1,0.2,1,1.3,1,2.7S2.1,5.2,3.4,5.2z" class="st9"/></g></g><g id="Vector_21_" transform="translate(41.000000, 35.000000)"><g id="path211_fill-link" transform="translate(3.805782, 3.599432) scale(-1, 1) rotate(-13.857869) translate(-3.805782, -3.599432) translate(1.305893, 1.099544)"><path id="path211_fill" d="M3.4,5.2c1.4,0,2.5-1.1,2.5-2.5c0-1.4-1.1-2.5-2.5-2.5C2.1,0.2,1,1.3,1,2.7 C1,4.1,2.1,5.2,3.4,5.2z" class="st9"/></g></g><g id="Vector_22_" class="st7" transform="translate(63.000000, 45.000000)"><g id="path212_fill-link" transform="translate(6.793000, 3.930000) scale(-1, 1) translate(-6.793000, -3.930000) translate(0.293000, 0.430000)"><path id="path212_fill" d="M12.8,2.9c-1,1.3-2.5,2.2-4.4,2.6c-1.8,0.4-4.2,0.6-7,0.6C1.3,5.1,1.1,3.9,1,2.8 c5.9-0.1,8.1-0.6,9.2-2.1c0.5-0.8,1.6-0.9,2.3-0.3C13.2,1.1,13.4,2.1,12.8,2.9z" class="st9"/></g></g><g id="Vector_23_" transform="translate(64.000000, 42.000000)"><g id="path213_fill-link" transform="translate(7.783000, 3.680000) scale(-1, 1) translate(-7.783000, -3.680000) translate(0.283000, 0.180000)"><path id="path213_fill" d="M10.5,5.5C8.5,6,5.9,6.1,2.7,6.1C1.8,6.1,1,5.4,1,4.4c0-0.9,0.8-1.7,1.7-1.7 c6.2-0.1,8.6-0.6,9.8-2.1C13-0.1,14-0.2,14.8,0.4C15.6,0.9,15.7,2,15,2.8C13.9,4.2,12.6,5,10.5,5.5z" class="st1"/></g></g><g id="Vector_24_" class="st7" transform="translate(32.000000, 37.000000)"><g id="path214_fill-link" transform="translate(7.128000, 4.420000) scale(-1, 1) translate(-7.128000, -4.420000) translate(0.628000, 0.920000)"><path id="path214_fill" d="M13.4,3.2c-2.5,1.3-4.6,2.1-6.2,2.5c-2,0.5-3.6,0.4-5.2-0.3C1.2,5.1,0.8,4,1.2,3.2 c0.4-0.9,1.3-1.2,2.2-0.9C5.1,3.1,7.1,2.5,12.2,0C12.6,1.2,13,2.2,13.4,3.2z" class="st9"/></g></g><g id="Vector_25_" transform="translate(31.000000, 34.000000)"><g id="path215_fill-link" transform="translate(7.909000, 3.610000) scale(-1, 1) translate(-7.909000, -3.610000) translate(0.409000, 0.110000)"><path id="path215_fill" d="M7.1,6.3C5.2,6.8,3.5,6.7,1.9,6C1.2,5.6,0.8,4.7,1.2,3.8C1.5,3,2.5,2.6,3.4,2.9 C5.1,3.7,7.4,3,13,0.2C13.8-0.2,14.8,0,15.2,1c0.4,0.8,0.1,1.8-0.8,2.2C11.4,4.7,9.1,5.8,7.1,6.3z" class="st1"/></g></g><g id="Vector_26_" class="st7" transform="translate(31.000000, 34.000000)"><g id="path216_fill-link" transform="translate(24.153000, 7.810000) scale(-1, 1) translate(-24.153000, -7.810000) translate(0.153000, 0.810000)"><path id="path216_fill" d="M47.8,0.4c-0.1-0.1-0.1-0.3-0.3-0.4c-0.1,0.4-0.4,0.8-0.8,1c-0.5,0.3-1.2,0.5-1.7,0.8 c-2.2,1-4,1.8-5.6,2.2c-0.3,0.1-0.5,0.1-0.8,0.1c-0.3,0-0.5,0.1-0.8,0.1c-1.3,0.1-2.5,0-3.5-0.5c-0.1-0.1-0.4-0.3-0.5-0.4 c-0.1,0.3-0.1,0.6,0,0.9c0,0.1,0.1,0.3,0.1,0.4s0.1,0.3,0.3,0.3c0.1,0.3,0.4,0.4,0.7,0.5c0.3,0.1,0.4,0.1,0.7,0.3 c0.1,0,0.1,0,0.3,0c0.1,0.1,0.3,0.1,0.5,0.1C36.6,5.8,36.9,6,37,6c0.1,0,0.4,0,0.7,0c0.1,0,0.3,0,0.4,0s0.4,0,0.5,0 c0.1,0,0.3,0,0.3,0c0.1,0,0.3,0,0.3,0c0.1,0,0.3,0,0.4,0c0.3,0,0.4-0.1,0.7-0.1c0.1,0,0.4-0.1,0.5-0.1c0.1,0,0.4-0.1,0.5-0.1 c0.1,0,0.4-0.1,0.7-0.3c0.3-0.1,0.4-0.1,0.7-0.3c1-0.4,2.2-0.9,3.5-1.6c0.5-0.3,0.9-0.5,1.4-0.6C47.9,2.2,48.3,1.2,47.8,0.4z M14.8,8.1c0,0.1-0.1,0.4-0.3,0.5c-0.8,0.9-1.7,1.7-2.9,2.1c-0.5,0.3-1,0.4-1.6,0.5c-1.7,0.4-3.8,0.6-6.2,0.6c-0.5,0-1,0-1.6,0 c-0.5,0-0.9-0.1-1.2-0.5c0,0.1-0.1,0.3-0.1,0.5c0,0.9,0.8,1.7,1.7,1.7c0.4,0,0.9,0,1.3,0c1.2,0,2.3-0.1,3.3-0.1 c0.5,0,0.9-0.1,1.4-0.1c0.3,0,0.5-0.1,0.7-0.1c0.3,0,0.4,0,0.7-0.1c0.3,0,0.4-0.1,0.5-0.1c0.1,0,0.3-0.1,0.5-0.1 c0.1,0,0.3-0.1,0.4-0.1c0.1,0,0.1,0,0.3-0.1c0.1,0,0.4-0.1,0.5-0.1c0.3-0.1,0.5-0.3,0.8-0.4c0.1-0.1,0.4-0.3,0.5-0.3 c0.3-0.1,0.4-0.3,0.5-0.4c0.1-0.1,0.4-0.3,0.5-0.5c0.1-0.1,0.4-0.4,0.5-0.5c0.1-0.3,0.3-0.4,0.4-0.6c0-0.1,0-0.3,0-0.4 C15.2,8.7,15,8.3,14.8,8.1z" class="st9"/></g></g><g id="Vector_27_" class="st7" transform="translate(0.000000, 4.000000)"><g id="path217_fill-link" transform="translate(22.695000, 13.910000) scale(-1, 1) translate(-22.695000, -13.910000) translate(0.695000, 0.410000)"><path id="path217_fill" d="M43.5,26c-0.1,0.3-0.3,0.4-0.4,0.5c0.3-1.8,0.1-3.8-1.4-6.4c-2-3.1-4-4-5.9-4.4 c-0.3-0.1-0.7-0.1-0.9-0.3c-0.1,0-0.4-0.1-0.8-0.4C31.3,13.5,22.6,6,14.3,4.4c-0.3,0-0.7-0.1-1-0.1C11,4,9.1,3.8,7.5,3.5 C6.6,3.4,5.7,3.2,5,3.1C2.2,2.5,1,1.8,1,0.5C1,0.4,1,0.3,1,0c0.3,0.1,0.4,0.3,0.7,0.4c0.4,0,0.9,0,1.3,0c1.8-0.1,3.6,0,5.6,0.3 c2.1,0.1,4.2,0.5,6.2,1c0.1,0,0.3,0.1,0.4,0.1c3.5,0.9,5.7,1.4,12.5,6.1c2.3,1.3,4.2,3.5,6.4,5.2c0.3,0.4,0.7,0.8,0.9,1 c0.3-0.4,0.8-0.5,1.2-0.4c0.4,0.1,0.5,0.5,0.4,0.9C42.6,16.2,46.5,21.6,43.5,26z" class="st9"/></g></g><g id="Vector_28_" class="st7"><g transform="translate(75.000000, 30.000000) translate(28.000000, 19.000000)"><g id="path218_fill-link" transform="translate(3.463000, 4.590000) scale(-1, 1) translate(-3.463000, -4.590000) translate(0.963000, 0.090000)"><path id="path218_fill" d="M5.8,2.1C5.7,1.7,5.5,1.3,5.2,1.3C1,2.1,6.9,10.5,1.4,7.7C0.5,2.2,1-0.1,3.4,0 C5.3,0,5.8,1.2,5.8,2.1z" class="st9"/></g></g><g transform="translate(75.000000, 30.000000)"><g id="path219_fill-link" transform="translate(14.319000, 13.520000) scale(-1, 1) translate(-14.319000, -13.520000) translate(0.819000, 0.520000)"><path id="path219_fill" d="M27.1,5.6c0,0.3,0.1,0.4,0.1,0.5c0,0.3,0,0.5-0.1,0.8V7v0.1v0.1v0.1H27 c-0.1,0-0.4-0.1-0.5-0.3C25.2,6.6,24,6,23.1,5.3c-0.1,0-0.1-0.1-0.3-0.1c-0.1,0-0.4,0-0.5,0.1c-0.7,0-1.3,0.1-2,0.3 c-0.4,0.1-0.8,0.1-1.3,0.3C16,6.8,10.8,9,8.4,11.6l-0.1,0.1c-1.2,1.3-3,3-4.3,4.5c0.4,0.3,0.4,0.8,0.1,1.2 c-0.1,0.1-0.3,0.3-0.5,0.4c-0.1,0-0.1,0-0.3,0c-0.4,3.9-1,7.1-2.1,7.5c-0.1,0-0.1,0-0.3,0.1c0.1-1.9-0.1-6,0.4-8.7 c0-0.3,0.1-0.6,0.3-0.9c0.1-0.3,0.1-0.5,0.4-0.8c1.3-2.7,5.9-8.7,12.7-12.2c1.2-0.6,2.3-1.2,3.6-1.6C21.2,0.4,23,0.1,24.7,0 c0.8,1.4,1.3,2.3,1.8,4C26.9,4.4,27,4.9,27.1,5.6z" class="st9"/></g></g></g><g id="Vector_29_" class="st7"><g transform="translate(36.000000, 24.000000) translate(1.000000, 2.000000)"><g id="path220_fill-link" transform="translate(1.774000, 2.620000) scale(-1, 1) translate(-1.774000, -2.620000) translate(0.274000, 0.620000)"><path id="path220_fill" d="M2.8,1.7C2.7,1.9,2.6,2.1,2.4,2.2C2.7,2.6,2.8,3,3.1,3.4H3c0,0-0.3-0.5-0.5-1.2 c0,0,0-0.1-0.1-0.1c0-0.1-0.1-0.3-0.3-0.5C1.9,1.3,1.7,0.9,1.5,0.6c0-0.1-0.1-0.3-0.1-0.3L1.3,0.3C1.1,0.1,1.1,0,1,0 c0,0,0.1,0.1,0.3,0.3C1.5,0.5,1.9,1,2.4,1.4C2.7,1.6,2.7,1.7,2.8,1.7z" class="st9"/></g></g><g transform="translate(36.000000, 24.000000)"><g id="path221_fill-link" transform="translate(1.734000, 1.300000) scale(-1, 1) translate(-1.734000, -1.300000) translate(0.234000, 0.800000)"><path id="path221_fill" d="M3.3,0.3C3.2,0.5,3.2,0.6,3.1,0.9C3,0.8,2.7,0.8,2.6,0.6C2.3,0.5,1.9,0.4,1.7,0.3 S1,0,1,0c0.1,0,0.7,0.1,1.3,0.1c0.1,0,0.3,0,0.4,0C2.8,0.1,3.1,0.1,3.3,0.3C3.2,0.3,3.3,0.3,3.3,0.3z" class="st9"/></g></g><g transform="translate(36.000000, 24.000000) translate(39.000000, 12.000000)"><g id="path222_fill-link" transform="translate(1.333000, 1.230000) scale(-1, 1) translate(-1.333000, -1.230000) translate(0.333000, 0.230000)"><path id="path222_fill" d="M2,0C1.9,0.3,1.9,0.6,1.7,1.2c0,0.1-0.1,0.3-0.1,0.4v0.1C1.4,1.7,1.1,1.6,1,1.4 c0,0,0-0.1,0.1-0.1C1.4,1,1.5,0.6,1.8,0.5c0,0,0-0.1,0.1-0.1C1.8,0.1,1.9,0,2,0z" class="st9"/></g></g><g transform="translate(36.000000, 24.000000) translate(42.000000, 10.000000)"><g id="path223_fill-link" transform="translate(2.124000, 1.290000) scale(-1, 1) translate(-2.124000, -1.290000) translate(0.624000, 0.290000)"><path id="path223_fill" d="M3.7,0c0,0-0.8,0.4-1.4,1L2.2,1.2C2,1.3,2,1.3,1.9,1.4c0,0,0,0.1-0.1,0.1 c-0.1,0-0.1-0.1-0.3-0.1c-0.1,0-0.4,0-0.5,0.1c0-0.1,0.1-0.1,0.1-0.3c0,0,0,0,0.1-0.1C1.4,1,1.7,0.9,1.9,0.8 C2.8,0.3,3.7,0,3.7,0z" class="st9"/></g></g></g></g><g id="Group_1_" transform="translate(38.000000, 0.000000)"><g id="Vector_30_"><g transform="translate(6.000000, 50.000000)"><g id="path224_fill-link" transform="translate(20.422000, 7.080000) scale(-1, 1) translate(-20.422000, -7.080000) translate(0.422000, 0.080000)"><path id="path224_fill" d="M22.1,11.1c-8.7,2.1-15,2.5-19.9,1.2c-0.9-0.3-1.4-1.2-1.2-2.1C1.3,9.3,2.2,8.8,3.1,9 c4.3,1.2,10.1,0.8,18.2-1.2c8.1-1.9,13.4-4.4,16.8-7.4c0.7-0.6,1.7-0.6,2.3,0.1c0.7,0.6,0.7,1.7-0.1,2.3 C36.7,6.3,30.8,8.9,22.1,11.1z" class="st14"/></g></g></g><g id="Vector_31_"><g transform="translate(51.000000, 26.000000)"><g id="path225_fill-link" transform="translate(7.390000, 10.920000) scale(-1, 1) translate(-7.390000, -10.920000) translate(0.890000, 0.920000)"><path id="path225_fill" d="M12.9,12.6c0.8,3.2-0.8,6.4-3.4,7c-2.7,0.6-5.5-1.4-6.4-4.7l-2-7.8 C0.4,3.9,2,0.8,4.6,0.1C7.3-0.5,10,1.5,11,4.8L12.9,12.6z" class="st3"/></g></g><g transform="translate(0.000000, 14.000000)"><g id="path226_fill-link" transform="translate(6.508000, 10.060000) scale(-1, 1) translate(-6.508000, -10.060000) translate(0.008000, 0.060000)"><path id="path226_fill" d="M12.9,12.6c0.8,3.2-0.8,6.4-3.4,7c-2.7,0.6-5.5-1.4-6.4-4.7l-2-7.8 C0.4,3.9,2,0.8,4.6,0.1C7.3-0.5,10,1.5,11,4.8L12.9,12.6z" class="st3"/></g></g><g transform="translate(2.000000, 0.000000)"><g id="path227_fill-link" transform="translate(29.885000, 31.380000) scale(-1, 1) translate(-29.885000, -31.380000) translate(0.385000, 0.380000)"><path id="path227_fill" d="M57.5,24.8c5.2,21,0.3,29.2-20.8,34.4C15.6,64.5,7.4,59.5,2.2,38.5 C-2.6,19,7.1,4.6,22.3,0.9C37.6-3,52.7,5.4,57.5,24.8z" class="st4"/></g></g><g class="st7" transform="translate(2.000000, 0.000000)"><g id="path228_fill-link" transform="translate(22.615000, 31.410000) scale(-1, 1) translate(-22.615000, -31.410000) translate(0.615000, 0.410000)"><path id="path228_fill" d="M16,0c9,3,16.5,10.9,19.6,23.5c5.2,21,0.3,29.2-20.8,34.4C9.5,59.2,4.9,59.9,1,59.9 c5.1,2.1,11.8,1.7,20.9-0.5c21.1-5.2,26-13.2,20.8-34.4C38.8,9,28,0.5,16,0z" class="st9"/></g></g><g transform="translate(6.000000, 11.000000)"><g id="path229_fill-link" transform="translate(26.061000, 23.640000) scale(-1, 1) translate(-26.061000, -23.640000) translate(0.561000, 0.140000)"><path id="path229_fill" d="M32.1,45.1C16,49,5.8,42.9,1.8,26.8c-3.3-13,3.4-21.6,19.4-25.5 C37.3-2.5,47.1,2,50.3,15C54.5,31.7,48.9,41.1,32.1,45.1z" class="st14"/></g></g><g transform="translate(7.000000, 12.000000)"><g id="path230_fill-link" transform="translate(24.813000, 22.820000) scale(-1, 1) translate(-24.813000, -22.820000) translate(0.813000, 0.820000)"><path id="path230_fill" d="M30,41.9c-15.2,3.8-24.4-1.8-28.2-17c-3-12.1,3-19.7,18.2-23.5 C35.2-2.4,44,1.6,47,13.7C51,29.8,46.1,37.9,30,41.9z" class="st20"/></g></g><g transform="translate(38.000000, 14.000000)"><g id="path231_fill-link" transform="translate(6.686000, 19.200000) scale(-1, 1) translate(-6.686000, -19.200000) translate(0.686000, 0.700000)"><path id="path231_fill" d="M6.6,29c0.7,2.6,1.6,4.9,2.7,7.3c-3.5-3.4-6.2-7.8-7.5-13C0,16.1,1.3,9,4.8,3.1 C6.9,1.9,9.4,0.9,12.2,0C6.4,8.2,4,18.6,6.6,29z" class="st8"/></g></g></g></g></g></g><g id="Olvia"><g><path d="M143.3,155l-15.6-3l-17.9-3.5c-4-0.8-6.6-4.6-5.8-8.6l6.5-33.5c0.8-4,4.6-6.6,8.6-5.8l33.5,6.5 c4,0.8,6.6,4.6,5.8,8.6l-6.5,33.5C151.1,153.2,147.3,155.8,143.3,155z" class="st3"/><circle cx="180.3" cy="87.7" r="10.3" class="st3"/><g><g><path d="M89.5,125.7c-0.5-0.3-0.9-0.7-1.3-1.2c-1.3-1.8-0.9-4.4,1-5.7c16.6-11.8,31.9-9.1,32.5-9 c2.2,0.4,3.7,2.6,3.3,4.8c-0.4,2.2-2.6,3.7-4.8,3.3c-0.5-0.1-12.7-2.1-26.2,7.6C92.6,126.4,90.8,126.5,89.5,125.7z" class="st4"/></g><g><circle cx="88.8" cy="125.5" r="6.1" class="st4"/><ellipse cx="94.1" cy="129.6" class="st4" rx="3.3" ry="7.1" transform="matrix(0.9531 -0.3027 0.3027 0.9531 -34.8023 34.565)"/><ellipse cx="86.6" cy="132.4" class="st4" rx="8.1" ry="3.2" transform="matrix(0.7475 -0.6643 0.6643 0.7475 -66.1144 90.9397)"/><ellipse cx="82.4" cy="127.9" class="st4" rx="8.1" ry="3.2" transform="matrix(0.8587 -0.5125 0.5125 0.8587 -53.9099 60.2886)"/><ellipse cx="82.4" cy="122.6" class="st4" rx="8.1" ry="3.2" transform="matrix(0.9681 -0.2506 0.2506 0.9681 -28.0868 24.5669)"/></g><g><path d="M96,127.3c-0.5-0.1-0.9-0.4-1.2-0.9c-1.6-2.6-6-5.5-7.6-6.4c-0.9-0.5-1.2-1.7-0.7-2.5 c0.5-0.9,1.7-1.2,2.5-0.7c0.3,0.2,6.5,3.8,8.8,7.7c0.5,0.9,0.3,2-0.6,2.6C96.9,127.4,96.4,127.4,96,127.3z" class="st18"/></g></g><g><g><path d="M175,142.3c0.6-0.1,1.1-0.3,1.6-0.6c1.9-1.2,2.5-3.7,1.3-5.7c-10.9-17.2-26.1-20.4-26.8-20.5 c-2.2-0.4-4.4,1-4.8,3.2c-0.4,2.2,1,4.4,3.2,4.8c0.5,0.1,12.5,2.8,21.5,16.9C171.9,141.9,173.5,142.5,175,142.3z" class="st4"/></g><g><circle cx="175.7" cy="142.5" r="6.1" class="st4"/><ellipse cx="169.3" cy="144.2" class="st4" rx="7.1" ry="3.3" transform="matrix(0.6379 -0.7701 0.7701 0.6379 -49.7338 182.599)"/><ellipse cx="175.2" cy="149.7" class="st4" rx="3.2" ry="8.1" transform="matrix(0.896 -0.444 0.444 0.896 -48.2366 93.3603)"/><ellipse cx="180.8" cy="147" class="st4" rx="3.2" ry="8.1" transform="matrix(0.797 -0.604 0.604 0.797 -52.1102 139.0556)"/><ellipse cx="182.7" cy="142.1" class="st4" rx="3.2" ry="8.1" transform="matrix(0.5952 -0.8036 0.8036 0.5952 -40.209 204.372)"/></g><g><path d="M168.4,141.4c-0.4-0.1-0.8-0.3-1.1-0.7c-0.6-0.8-0.4-2,0.4-2.6c3.7-2.7,10.8-3.8,11.1-3.8 c1-0.1,2,0.6,2.1,1.6c0.1,1-0.6,2-1.6,2.1c-1.8,0.3-7,1.3-9.4,3.1C169.4,141.4,168.9,141.5,168.4,141.4z" class="st18"/></g></g><path d="M136.8,148.7c-6.4-0.2-12.6-1.4-18.6-3.6c-3.8-1.5-7.3-6.7-7.3-11c0.1-6.6,0.9-13.1,2.7-19.4 c1.3-4,6.6-7.8,11.1-7.8c7,0.2,13.8,1.5,20.3,4c4.1,1.7,7.7,7.2,7.4,11.4c-0.6,6.6-2.3,12.9-4.7,19 C146,145.1,140.9,148.7,136.8,148.7z" class="st4"/><path d="M140.6,190.6l26.7-4.6c1.5-0.3,2.3-1.9,1.5-3.2c-3.7-6.6-16-9.9-23.6-8.6c-7.9,1.4-8.2,7.2-7.1,14.6 C138.3,190,139.4,190.8,140.6,190.6z" class="st21"/><g><path d="M144.4,189.1c-0.1,0-0.2,0-0.3,0c-2.3,0.2-4.2-1.5-4.4-3.7l-3.3-38.5c-0.2-2.3,1.5-4.2,3.7-4.4 c2.3-0.2,4.2,1.5,4.4,3.7l3.3,38.5C148,186.9,146.5,188.8,144.4,189.1z" class="st4"/></g><g><path d="M137.4,189.7c0.2,1.3,1.4,2.2,2.7,2l29-5c1.6-0.3,2.4-2.1,1.6-3.5c0,0,0-0.1-0.1-0.1 c-1.9-3.3-5.7-5.8-10.1-7.4c-5.1-1.9-11-2.6-15.5-1.8c-8.3,1.4-8.9,7.4-7.8,15C137.3,189.2,137.3,189.4,137.4,189.7z" class="st14"/><path d="M137.4,189.7c0.2,1.3,1.4,2.2,2.7,2l29-5c1.6-0.3,2.4-2.1,1.6-3.5c0,0,0-0.1-0.1-0.1l-33.4,5.7 C137.3,189.2,137.3,189.4,137.4,189.7z" class="st22"/><path d="M136.9,182.2l13.3-8.6l-0.3-4.8c0-0.7-0.7-1.2-1.3-1.1l-13.8,2.4c-0.7,0.1-1.1,0.8-0.9,1.4L136.9,182.2z" class="st14"/></g><path d="M99.2,182.5l-23-14.3c-1.3-0.8-1.4-2.6-0.2-3.5c5.9-4.7,18.5-3.2,25.1,0.9c6.8,4.2,4.9,9.8,1.1,16.2 C101.6,182.8,100.2,183.2,99.2,182.5z" class="st21"/><g><path d="M96.2,179.7c0.1,0.1,0.2,0.1,0.3,0.2c2,1,4.5,0.2,5.5-1.8l17.5-34.4c1-2,0.2-4.5-1.8-5.5 c-2-1-4.5-0.2-5.5,1.8l-17.5,34.4C93.7,176.3,94.4,178.6,96.2,179.7z" class="st4"/></g><g><path d="M102.5,183c-0.7,1.1-2.1,1.5-3.3,0.8l-25-15.5c-1.4-0.9-1.5-2.8-0.2-3.8c0,0,0.1-0.1,0.1-0.1 c3-2.3,7.5-3.2,12.2-3.1c5.5,0.2,11.2,1.7,15,4.1c7.1,4.4,5.4,10.2,1.6,16.9C102.8,182.5,102.6,182.7,102.5,183z" class="st14"/><path d="M102.5,183c-0.7,1.1-2.1,1.5-3.3,0.8l-25-15.5c-1.4-0.9-1.5-2.8-0.2-3.8c0,0,0.1-0.1,0.1-0.1l28.8,17.9 C102.8,182.5,102.6,182.7,102.5,183z" class="st22"/><path d="M105.7,176.1l-9.1-13l2-4.4c0.3-0.6,1-0.8,1.6-0.5l11.9,7.4c0.6,0.4,0.7,1.1,0.3,1.7L105.7,176.1z" class="st14"/></g><path d="M136.2,112" class="st23"/><g><path d="M150.3,143l-42.1-8.2c-1-0.2-1.7-1.2-1.5-2.2c0.2-1,1.2-1.7,2.2-1.5l42.1,8.2c1,0.2,1.7,1.2,1.5,2.2 S151.4,143.2,150.3,143z" class="st18"/></g><rect width="10.7" height="5.1" x="136.2" y="125.4" class="st1" transform="matrix(0.9816 0.1909 -0.1909 0.9816 27.0292 -24.6751)"/><g><circle cx="121" cy="124.4" r="5.4" class="st6"/><g><path d="M121.3,127.7c0.1,0.5,1,1.1,1,1.1s0.3-1,0.2-1.5s-0.5-0.8-0.8-0.7C121.3,126.7,121.1,127.2,121.3,127.7z" class="st24"/><path d="M119.7,125.9c1.9-0.6,1.1-0.3,3.2-0.9c-1.3-4.3-2.3-5.2-3.2-4.9C118.8,120.3,118.4,121.5,119.7,125.9z" class="st24"/><polygon points="119.2 126 117.9 126.4 118.8 124.2" class="st24"/><polygon points="123.3 124.9 124.6 124.5 122.6 123" class="st24"/><rect width="2.7" height=".7" x="120.1" y="125.7" class="st24" transform="matrix(0.9601 -0.2796 0.2796 0.9601 -30.3958 38.9761)"/></g></g><ellipse cx="135.7" cy="111.1" class="st14" rx="8.7" ry="20.2" transform="matrix(0.1909 -0.9816 0.9816 0.1909 0.7155 223.0346)"/><g><g><ellipse cx="160.8" cy="87.4" class="st25" rx="24.3" ry="23.1" transform="matrix(0.1909 -0.9816 0.9816 0.1909 44.3145 228.6053)"/><path d="M162.5,85.4c-1.9,7.9-3,14.5-17.1,14l-18.3,3.5l0,0l-0.4,0.1l-2,2.9l-5.7-2.3c0,0-3.3,0.6-7.6,2.2 c-4.2-2.9-7.2-7.2-9.3-11.7c2-3.1,3.8-4.9,3.9-4.9c-0.1,0.1-2.2,1.2-5.3,1.7c-0.4-1.1-0.8-2.1-1.1-3.2c-0.6-2-1-4-1.3-5.9 c5.8-4,6.9-5.9,6.9-5.9s-2.2-1.3-7.3-0.5c0.1-2.7,0.4-5.4,0.8-8.1c0.1-0.5,0.2-0.9,0.3-1.4c4-3.1,7.9-4,7.9-4s-3.2-1-5.1-4.3 c1.3-3,3-5.9,5.3-8.8c0.4-0.5,0.8-1,1.2-1.5c4.4,4.3,8.1,0.9,8.1,0.9s1.7-1-2-6.7c2.3-1.8,4.9-3.3,7.6-4.3 c5.8,1.8,8.4,5.1,8.4,5.1s1.2-3.6,7.1-4.9c1-0.2,3.8-0.3,5.1-0.2c-0.1,0.1-0.3,1.2-0.4,1.3c-5.7,9.4,2.6,9.6,2.6,9.6 s4.6-3.3,3.3-8.9c11.7,5.7,8.2,14.6,8.2,14.6s6.7-4.4,18.1-2.5c-6,6.6-8.4,12.1-9.4,15.2c-0.6,1.8-0.7,2.9-0.8,2.9 C164.6,69.4,162.5,85.4,162.5,85.4z" class="st21"/><path d="M162,69.9l3.1,9c0,0,7.2-4.3,7.7-10.9c0-0.4-0.4-0.8-0.8-0.6C166.9,69.1,162,69.9,162,69.9z" class="st21"/><g><circle cx="140.5" cy="81.3" r="25.4" class="st21"/><path d="M129.9,94c-1.2,5.9,2.7,11.6,8.6,12.8c14.2,2.2,29.6-0.4,29.9-7.3c0.5-2.1-4-2.9-5.4-6.4 C160.7,87.6,131,88.1,129.9,94z" class="st21"/></g><g><path d="M165.8,99.4c0,1.5,2.4,2.6,5.3,2.5c2.9-0.1,4.3-1.5,4.2-3c0-1.5-1.5-2.4-4.4-2.3 C168.1,96.6,165.8,97.9,165.8,99.4z" class="st26"/><ellipse cx="173.3" cy="98" class="st24" rx=".6" ry="1.2" transform="matrix(0.2702 -0.9628 0.9628 0.2702 32.152 238.3712)"/></g><g><path d="M133.9,66c0,0-4.6-6.1-9.6-8c-0.4-0.2-0.7,0.4-0.6,0.8c0.8,5.3,1.2,10.3,1.2,10.3" class="st21"/><path d="M124.8,69.5c-0.2,0-0.3-0.2-0.3-0.3c0,0-0.4-5-1.2-10.2c-0.1-0.4,0.1-0.9,0.4-1.1 c0.2-0.2,0.5-0.2,0.7-0.1c5,1.8,9.5,7.8,9.7,8.1c0.1,0.2,0.1,0.4-0.1,0.5c-0.2,0.1-0.4,0.1-0.5-0.1c0-0.1-4.6-6.1-9.4-7.8 c0,0,0,0,0,0c-0.1,0.1-0.1,0.3-0.1,0.4c0.8,5.2,1.2,10.2,1.2,10.3C125.3,69.3,125.1,69.4,124.8,69.5 C124.9,69.5,124.9,69.5,124.8,69.5z" class="st27"/></g><g><path d="M143.5,74.2c-0.2,0-0.3-0.1-0.4-0.3c-0.3-0.4-3.2-4.3-10.5-3c-0.3,0.1-0.6-0.2-0.7-0.5 c-0.1-0.3,0.2-0.6,0.5-0.7c8-1.4,11.3,3,11.7,3.5c0.1,0.1,0.1,0.2,0.1,0.4C144.2,74,143.9,74.3,143.5,74.2 C143.5,74.2,143.5,74.2,143.5,74.2z" class="st27"/></g><g><path d="M151.7,76.3C151.7,76.3,151.7,76.3,151.7,76.3c-0.4-0.1-0.5-0.5-0.4-0.8c0-0.1,0.1-0.2,0.3-0.3 c0.6-0.3,5.3-3,12.1,1.5c0.3,0.2,0.3,0.5,0.2,0.8c-0.2,0.3-0.5,0.3-0.8,0.2c-6.2-4.1-10.4-1.7-10.9-1.4 C152,76.3,151.9,76.4,151.7,76.3z" class="st27"/></g><g><path d="M134.5,76.9c-0.5-0.4-1-0.8-1.5-1.2c-0.5-0.4-0.9-0.9-1.3-1.3c-0.4-0.5-0.8-1-1.1-1.5 c-0.3-0.5-0.6-1.1-0.7-1.7c0.3,0.6,0.6,1.1,1,1.5c0.4,0.5,0.8,0.9,1.3,1.3c0.5,0.4,0.9,0.7,1.4,1.1c0.5,0.3,1,0.6,1.5,0.9l0,0 c0.3,0.1,0.4,0.5,0.2,0.7C135.2,77,134.9,77.1,134.5,76.9C134.6,77,134.6,76.9,134.5,76.9z" class="st26"/><path d="M133.3,78.1c-0.6-0.3-1.1-0.6-1.6-1c-0.5-0.4-1-0.7-1.5-1.2c-0.5-0.4-0.9-0.9-1.3-1.3 c-0.4-0.5-0.7-1-1-1.6c0.3,0.5,0.7,1,1.2,1.4c0.4,0.4,0.9,0.8,1.4,1.1c0.5,0.3,1,0.6,1.6,0.9c0.5,0.3,1.1,0.5,1.6,0.7l0,0 c0.3,0.1,0.4,0.4,0.3,0.7C134,78.1,133.7,78.2,133.3,78.1C133.4,78.1,133.4,78.1,133.3,78.1z" class="st26"/><g><circle cx="137.6" cy="81.7" r="7.5" class="st24"/><g><circle cx="140.9" cy="80.2" r="3.5" class="st28"/><circle cx="140.9" cy="80.2" r="2" class="st26"/><circle cx="141.9" cy="78.8" r="1.4" class="st24"/><circle cx="139.8" cy="81.7" r=".5" class="st24"/></g></g></g><g><path d="M161.2,82.1c0.6-0.2,1.2-0.3,1.8-0.6c0.6-0.2,1.2-0.5,1.7-0.7c0.6-0.3,1.1-0.6,1.6-1 c0.5-0.4,0.9-0.8,1.3-1.3c-0.4,0.4-0.9,0.8-1.5,1.1c-0.5,0.3-1.1,0.5-1.7,0.7c-0.6,0.2-1.1,0.3-1.7,0.5 c-0.6,0.1-1.2,0.2-1.7,0.3l0,0c-0.3,0-0.5,0.3-0.5,0.6C160.5,81.9,160.8,82.2,161.2,82.1C161.1,82.1,161.2,82.1,161.2,82.1z" class="st26"/><path d="M161.9,83.6c0.6-0.1,1.2-0.2,1.9-0.3c0.6-0.1,1.2-0.3,1.8-0.5c0.6-0.2,1.2-0.5,1.7-0.8 c0.5-0.3,1-0.7,1.5-1.1c-0.5,0.4-1,0.6-1.6,0.9c-0.6,0.2-1.1,0.4-1.7,0.5c-0.6,0.1-1.2,0.2-1.8,0.2c-0.6,0-1.2,0.1-1.8,0l0,0 c-0.3,0-0.6,0.2-0.6,0.5C161.2,83.4,161.5,83.6,161.9,83.6C161.8,83.6,161.8,83.6,161.9,83.6z" class="st26"/><g><circle cx="156.5" cy="85.4" r="7.5" class="st24"/><g><circle cx="159.9" cy="83.9" r="3.5" class="st28"/><circle cx="159.9" cy="83.9" r="2" class="st26"/><circle cx="160.9" cy="82.5" r="1.4" class="st24"/><circle cx="158.7" cy="85.4" r=".5" class="st24"/></g></g></g><g><path d="M151.3,102.2c-0.2,0.9-0.6,1.7-1.2,2.4c-1.3,1.5-3.5,2.3-5.8,1.8c-2.1-0.4-3.8-1.8-4.6-3.5 c-0.4-0.9-0.6-2-0.4-3c0.6-3,3.7-4.9,7-4.2C149.6,96.2,151.8,99.2,151.3,102.2z" class="st29"/><path d="M150.1,104.5c-1.3,1.5-3.5,2.3-5.8,1.8c-2.1-0.4-3.8-1.8-4.6-3.5c1.3-1.5,3.5-2.3,5.8-1.8 C147.6,101.5,149.3,102.8,150.1,104.5z" class="st30"/></g><g><path d="M187.3,64.2c-2-7-6.2-15-13.4-19.2c-10.4-6.1-22-9.6-33.9-10.2c-1.1-0.1-2.1-0.1-3.2-0.1 c-4-0.1-8,0.2-12,0.8c-1.6,0.2-3.1,0.6-4.5,1.2c-2.8,1-5.3,2.5-7.6,4.3c-2.3,1.8-4.4,3.8-6.2,5.8c-0.4,0.5-0.8,1-1.2,1.5 c-2.3,2.9-4,5.8-5.3,8.8c-1.2,2.7-2.1,5.5-2.7,8.3c-0.1,0.5-0.2,0.9-0.3,1.4c-0.5,2.7-0.8,5.4-0.8,8.1c0,2.1,0.1,4.2,0.4,6.4 c0.3,1.9,0.7,3.9,1.3,5.9c0.3,1,0.7,2.1,1.1,3.2c0.4,1.1,0.9,2.2,1.4,3.3c2.1,4.5,5.2,8.8,9.3,11.7c0.5,0.4,1,0.7,1.6,1 c14.8,8.7,32.1,12,49.1,9.5c8.2-1.2,15.1-7.1,19.6-12.8c4.6-5.9,7-11.9,8.3-18.5C189.3,77.8,189.4,71.4,187.3,64.2z M172.1,104.5c-3.3,3.3-8,5.3-13.5,4.5c-0.5-0.1-1.1-0.2-1.6-0.2c-0.5-0.1-1.1-0.2-1.6-0.2c-0.5-0.1-0.9-0.1-1.4-0.2 c-0.6-0.1-1.2-0.2-1.8-0.3c-0.4-0.1-0.7-0.1-1.1-0.2c-0.4-0.1-0.7-0.1-1.1-0.2c-0.4-0.1-0.7-0.1-1.1-0.2 c-0.4-0.1-0.7-0.1-1.1-0.2c-0.4-0.1-0.9-0.2-1.4-0.2c-0.2,0-0.3-0.1-0.5-0.1c-0.4-0.1-0.9-0.2-1.3-0.2 c-0.5-0.1-1.1-0.2-1.6-0.3c-0.5-0.1-1-0.2-1.6-0.3l-0.1,0c-0.5-0.1-1-0.2-1.5-0.3c-1.6-0.3-3.2-0.6-4.8-1 c-0.4-0.1-0.9-0.2-1.3-0.3c-0.6-0.1-1.2-0.3-1.8-0.4c-0.4-0.1-0.7-0.2-1.1-0.2c0,0-0.1,0-0.1,0c-0.2-0.1-0.5-0.1-0.7-0.2 c-0.8-0.2-1.5-0.4-2.3-0.5c-0.4-0.1-0.7-0.2-1.1-0.3c-0.3-0.1-0.7-0.2-1-0.2c-0.1,0-0.3-0.1-0.4-0.1c-0.1,0-0.1,0-0.2,0l0,0 l-0.5-0.1c-5.4-1.3-9-4.9-10.8-9.2c-1.8-4.4-1.8-9.5-0.8-14.9c1.1-5.3,3-10.1,6.3-13.5c3.3-3.3,8-5.3,13.5-4.5 c5.7,0.8,11.4,1.8,17.1,2.9c0.5,0.1,1,0.2,1.5,0.3c1.3,0.3,2.5,0.5,3.8,0.8c0.5,0.1,0.9,0.2,1.4,0.3c0.4,0.1,0.8,0.2,1.2,0.3 c0.3,0.1,0.7,0.1,1,0.2c1,0.2,2,0.4,3,0.7c0.5,0.1,1,0.2,1.5,0.3c0.6,0.2,1.3,0.3,1.9,0.5c0.5,0.1,1.1,0.3,1.6,0.4 c5.4,1.3,9,4.9,10.8,9.2c1.8,4.4,1.8,9.5,0.8,14.9C177.4,96.3,175.5,101.1,172.1,104.5z" class="st31"/><g class="st32"><path d="M158.7,108.9c-11.4-1.6-22.7-3.8-33.9-6.6c-5.4-1.3-9-4.9-10.8-9.2c-1.8-4.4-1.8-9.5-0.8-14.9 c1.1-5.3,3-10.1,6.3-13.5c3.3-3.3,8-5.3,13.5-4.5c11.4,1.6,22.7,3.8,33.9,6.6c5.4,1.3,9,4.9,10.8,9.2 c1.8,4.4,1.8,9.5,0.8,14.9c-1.1,5.3-3,10.1-6.3,13.5C168.9,107.8,164.2,109.7,158.7,108.9z" class="st33"/></g><g><g><path d="M141.4,107.3c-5.7-1.1-11.4-2.4-17-3.7c-5.4-1.3-9.6-4.9-11.6-9.9c-1.7-4.2-2-9.3-0.9-15.6 c1.3-6.3,3.5-10.9,6.7-14.1c3.8-3.9,9-5.6,14.5-4.8c11.4,1.6,22.9,3.9,34.1,6.6c5.4,1.3,9.6,4.8,11.6,9.9 c1.7,4.2,2,9.3,0.9,15.6c-1.3,6.3-3.5,10.9-6.7,14.1c-3.8,3.9-9,5.6-14.5,4.8C152.8,109.3,147.1,108.4,141.4,107.3z M149.7,64.4c-5.7-1.1-11.3-2.1-17-2.9c-4.7-0.7-9.1,0.8-12.4,4.1c-2.8,2.9-4.8,7.1-6,12.9c-1.1,5.8-0.8,10.4,0.7,14.1 c1.8,4.3,5.3,7.3,10,8.5c11.1,2.7,22.5,5,33.8,6.6l0,0c4.7,0.7,9.1-0.8,12.4-4.1c2.8-2.9,4.8-7.1,6-12.9 c1.1-5.8,0.8-10.4-0.7-14.1c-1.8-4.3-5.3-7.3-10-8.5C161,66.8,155.4,65.5,149.7,64.4z" class="st14"/></g></g></g></g></g><circle cx="100" cy="72.1" r="10.3" class="st3"/></g></g></svg>