<svg xmlns="http://www.w3.org/2000/svg" xmlns:xlink="http://www.w3.org/1999/xlink" x="0" y="0" version="1.1" viewBox="0 0 256.2 230.2" xml:space="preserve" style="enable-background:new 0 0 256.2 230.2"><style type="text/css">.st0{fill:url(#path124_fill_1_)}.st1{fill:#868686}.st2{fill:#3d3c3c}.st3{fill:#e3d7c6}.st4{fill:#e40424}.st5{fill:#aaa194}.st6{fill:#1f71b7}.st7{fill:#1a284e}.st8{fill:#01b3c9}.st9{fill:#97e2ce}.st10{fill:#fff}.st11{fill:#c1b7ab}.st12{fill:#680614}.st13{fill:url(#path178_fill_1_)}</style><g id="Laag_1"><desc>Created with Sketch.</desc><g id="Page-1_2_"><g id="_x34_04-Mars-Illustration_2_" transform="translate(-482.000000, -418.000000)"><g id="spaceship_2_" transform="translate(481.000000, 394.000000)"><g id="sau_2_" transform="translate(0.000000, 31.000000)"><g id="path124_fill-link_2_" transform="translate(126.954369, 63.732721) scale(-1, 1) rotate(-7.143629) translate(-126.954369, -63.732721) translate(5.454528, 15.232645)"><linearGradient id="path124_fill_1_" x1="824.659" x2="824.659" y1="731.063" y2="730.086" gradientTransform="matrix(-240.9249 12.0069 -30.1951 -95.8024 220864.9219 60231.3086)" gradientUnits="userSpaceOnUse"><stop offset="0" style="stop-color:#ffedd9"/><stop offset="1" style="stop-color:#dbad77"/></linearGradient><path id="path124_fill_2_" d="M63,150.3L6.7,129.6l27.7,25.8l-24.8,0.9l15.7,9L-12,192l37.6-4.9l75.1-7.1 c2.5-0.2,5.1-0.3,7.6-0.1l122.5,7.2l-37.2-15.7l30.1-19.5l-36.6-1.2l8-27.2l-40.2,16.9l-4.1-15.5l-16.3-0.5l-33.3-28.9l6,18 l-6.6,9.8l-1.4,33.5l-21.6-27.4l1,23.9l-11.6-11.4L63,150.3z" class="st0"/></g></g><g><polygon points="205.2 98.5 208.5 80.1 201 75.6 194.9 92.4" class="st1"/><polygon points="193.1 91.3 199.2 74.6 191.7 70.1 182.8 85.1" class="st1"/><path d="M213.5,103.4c1.3-6.5,2.1-12.8,2.6-18.8l-5.7-3.4l-3.3,18.4L213.5,103.4z" class="st1"/><polygon points="181 84.1 190 69.1 182.4 64.6 170.7 77.9" class="st1"/><path d="M156.7,69.6l14.6-11.7l-6.2-3.7c-5.1,3.6-10,7.4-14.7,11.6L156.7,69.6z" class="st1"/><polygon points="168.9 76.9 180.6 63.5 173.2 59.1 158.6 70.8" class="st1"/><polygon points="207.1 99.6 210.4 81.2 208.5 80.1 205.2 98.5" class="st2"/><polygon points="194.9 92.4 201 75.6 199.2 74.6 193.1 91.3" class="st2"/><rect width="17.5" height="2" x="177.6" y="76.1" class="st2" transform="matrix(0.5112 -0.8595 0.8595 0.5112 24.8368 197.8553)"/><polygon points="170.7 77.9 182.4 64.6 180.6 63.5 168.9 76.9" class="st2"/><polygon points="158.6 70.8 173.2 59.1 171.3 57.9 156.7 69.6" class="st2"/><path d="M101.1,106.7c-34.5,57.9-23.5,128.1-11.9,134.9c11.5,6.9,78.4-16.9,112.9-74.9 c12.6-21.1,16.2-45.6,18.3-66.6l-71.5-42.5C132.5,69,113.7,85.5,101.1,106.7z" class="st3"/><path d="M78,201.1c7.9,6.3,16.2,12.1,24.9,17.2c8.7,5.2,17.7,9.8,27,13.7c-19.5,9.5-35.7,12.6-40.9,9.5 C84,238.5,79,222.8,78,201.1z" class="st4"/><path d="M96.1,114.9c31.1,24.2,65,44.4,101.1,60.1c1.6,0.7,2.1,2.8,1.2,4.7s-2.9,2.9-4.5,2.2 C157.4,166,123,145.6,91.6,121.1c-1.4-1.1-1.5-3.3-0.2-5C92.6,114.4,94.7,113.9,96.1,114.9z" class="st5"/><circle cx="121.1" cy="187.9" r="24.9" class="st6"/><circle cx="122" cy="186.4" r="20.6" class="st7"/><path d="M103,177.1c5.9-10,18.8-13.3,28.8-7.3c10,5.9,13.3,18.8,7.3,28.8c-5.9,10-18.8,13.3-28.8,7.3 c-6-3.6-9.9-9.9-10.2-16.9C99.9,184.9,100.9,180.7,103,177.1z" class="st8"/><path d="M103,177.1c5.9-10,18.9-13.3,28.9-7.3c3.6,2.1,6.4,5.3,8.2,9c0.6,11.6-8.2,21.5-19.9,22.2 c-8.5,0.5-16.5-4.3-20.2-12C99.9,184.9,100.9,180.7,103,177.1z" class="st9"/><circle cx="123.1" cy="195.9" r="6.9" class="st10"/><circle cx="112.4" cy="200.5" r="2" class="st10"/><path d="M170.8,77l23.9,14.2l-14.3,30.3c-2.5,5.1-8.6,7.2-13.6,4.7c-0.3-0.1-0.6-0.3-0.8-0.5l-11.7-7 c-4.9-2.8-6.5-9.1-3.7-13.9c0.2-0.3,0.3-0.6,0.5-0.8L170.8,77z" class="st11"/><path d="M253.7,92.5l3.1,1.8c-17.9,40.7-44.7,51.5-44.7,51.5c-1.3,0-2.6-0.4-3.7-1c1.8-11.8,9.6-41.1,10.6-45.2 C232.3,104.4,253.7,92.5,253.7,92.5z" class="st12"/><path d="M250.7,90.7l4.2,2.5c-19.2,39.8-46.5,51.6-46.5,51.6s-2.7-17.3,6.8-44.9c0.3-1.1,1.5-1.8,2.6-1.6 C231.2,101.5,250.7,90.7,250.7,90.7z" class="st4"/><path d="M141.6,25.8l-3.1-1.8c-27.2,35.2-24,63.9-24,63.9c0.6,1.1,1.5,2.1,2.6,2.7c9.5-7.2,31.5-28,34.7-30.9 C141.4,50.3,141.6,25.8,141.6,25.8z" class="st12"/><path d="M144.6,27.6l-4.2-2.5c-25.8,35.9-23.2,65.5-23.2,65.5s16.5-5.9,36.1-27.4c0.8-0.8,0.9-2.1,0.2-3 C144.4,49.9,144.6,27.6,144.6,27.6z" class="st4"/></g><g id="sand_2_" transform="translate(68.000000, 115.000000)"><g id="path178_fill-link_2_" transform="translate(54.842572, 17.192623) rotate(1.815892) translate(-54.842572, -17.192623) translate(0.842593, 2.192620)"><linearGradient id="path178_fill_1_" x1="-697.976" x2="-697.976" y1="581.351" y2="579.998" gradientTransform="matrix(107.9397 -0.9423 -3.4221 -29.7234 77369.6094 16715.0566)" gradientUnits="userSpaceOnUse"><stop offset="0" style="stop-color:#ffedd9"/><stop offset="1" style="stop-color:#dbad77"/></linearGradient><polygon id="path178_fill_2_" points="-13.3 96.9 25.2 109.5 28 104.3 35.9 111.2 35.2 96.7 50 113.4 50.9 93.1 60.1 100.3 83.8 93.1 71.6 113.4 107.1 100.3 90.5 129.5 -25.3 129.5 -.6 118.6 -11.4 113.1 5.6 112.5" class="st13"/></g></g></g></g></g></g></svg>