<?xml version="1.0" encoding="utf-8"?>
<!-- Generator: Adobe Illustrator 24.1.1, SVG Export Plug-In . SVG Version: 6.00 Build 0)  -->
<svg version="1.1" id="Laag_1" xmlns="http://www.w3.org/2000/svg" xmlns:xlink="http://www.w3.org/1999/xlink" x="0px" y="0px"
	 viewBox="0 0 1080.8 1069.9" style="enable-background:new 0 0 1080.8 1069.9;" xml:space="preserve">
<style type="text/css">
	.st0{fill:#FF5E18;}
	.st1{display:none;}
	.st2{fill:#F1330E;}
</style>
<path class="st0" d="M675.1,429.6c107,0,214,0,321,0c8.9,0,18.1-0.5,26.7,1.3c20,4.1,33.7,16.4,39.5,36c2.1,6.9,1.2,14.8,1.2,22.3
	c0.1,53.2,0.1,106.3,0,159.5c0,33.3-0.2,66.6,0.1,99.9c0.2,19.8-9.9,33.3-26.1,42.9c-10.8,6.4-22.9,7.5-35.2,7.2
	c-11.5-0.3-23-0.6-34.5-0.6c-65.8,0-131.6,0-197.5,0c-82.2,0-164.3,0-246.5,0c-55,0-110-0.2-165,0.2c-19,0.1-32.5-8.2-42.1-23.7
	c-6-9.2-9.1-20-9-31c0.3-88.3,0.2-176.7,0.2-265c0-24.6,23.6-48.9,48.1-48.9c76.5-0.1,153-0.1,229.5,0L675.1,429.6L675.1,429.6z
	 M400.1,772.8h573.6V453.5H400.1V772.8z"/>
<path class="st0" d="M386,419.5h-20.3V101.9H36.3v582.8H299v37.9c0,5.5,0.1,11,0,16.5c-0.3,11.2-0.4,22.2,6.3,33.2h-23.2
	c-62.7-0.1-125.3-0.1-187.9-0.2c-9,0-18,0.2-27,0.1C44.4,772,21.6,753,17.4,730.7c-0.3-1.8-0.4-3.6-0.4-5.5c0-159,0-318,0-476.9
	c0.1-60.2-0.2-120.3,0-180.5C17.2,44.9,32,25.4,53.8,18.2c2.7-0.9,5.5-1.3,8.3-1.3c57.3-0.1,114.6-0.1,172-0.1c34,0,68,0.1,102,0
	c21.9-0.1,36.6,11.1,45.2,30.1c3.6,7.9,5.1,17.3,5.2,26.1c0.4,40-0.2,80-0.2,120c-0.1,73.3-0.1,146.7,0,220L386,419.5z"/>
<path class="st0" d="M488.3,125.7v26.9c2.7,0.2,4.8,0.3,7,0.4c22.3,0.6,44.4,4.1,65.8,10.3c53.9,15.9,93.6,48.5,116.8,100.2
	c12.5,27.9,17.3,57.5,18.3,87.8c0.2,7.8-0.6,15.8-0.9,23.6h-40.7c3.3-25.7,0.6-50.5-6.4-74.9c-10.2-35.6-30.2-64.1-62.7-83
	c-21.2-12.3-44.2-18.8-68.3-21.9c-9.5-1.2-19.1-1.7-29.1-2.6v26.8c-27.3-15.8-53.9-31.1-81-46.8
	C434.3,156.9,460.9,141.6,488.3,125.7z"/>
<path class="st1" d="M361.1,1348.9c-5.3,5.2-5.6,11.5-4,18.1C353.2,1363.5,355.5,1352,361.1,1348.9z"/>
<path class="st1" d="M1456.3,1352c1.3,1.2,3.2,2.2,3.8,3.6c1.2,3,0,5.3-4.2,7.6c2.7-4.2,5.5-7.9-0.9-10.2L1456.3,1352z"/>
<g>
	<path class="st2" d="M64.5,851.7c0.7-1.3,1.8-2.1,3.4-2.7c1.6-0.5,3.8-0.8,6.6-0.8c2.7,0,4.9,0.3,6.6,0.8c1.6,0.5,2.8,1.4,3.4,2.7
		c0.6,1.3,1,2.5,1.2,3.4c0.1,1,0.2,2.5,0.2,4.5v77.7c0,2-0.1,3.5-0.2,4.5c-0.1,1-0.5,2.1-1.2,3.3c-1.3,2.3-5,3.5-11,3.5
		c-6,0-9.4-2.1-10.1-6.4c-3.6,4.2-8.7,6.2-15.2,6.2c-7.8,0-14.9-3.4-21.3-10.2c-6.4-6.8-9.6-14.7-9.6-23.8c0-9.1,3.2-17,9.7-23.9
		c6.5-6.9,13.5-10.3,21.3-10.3c6.4,0,11.4,2.2,15,6.5v-27.3c0-2,0.1-3.5,0.2-4.5C63.5,854.1,63.8,852.9,64.5,851.7z M43.4,922.4
		c2.3,2.3,5,3.5,8.2,3.5c3.2,0,5.9-1.2,8-3.5c2.1-2.3,3.2-4.9,3.2-7.7c0-2.8-1-5.4-3.1-7.9c-2-2.4-4.8-3.6-8.3-3.6
		c-3.5,0-6.2,1.2-8.3,3.6s-3.1,5-3.1,7.9C40,917.4,41.1,920,43.4,922.4z"/>
	<path class="st2" d="M142.9,881c1.6,0.5,3,1.4,4.1,2.7c1.1,1.3,1.6,3.3,1.6,6c0,2.8-0.8,5.8-2.5,9.1c-1.6,3.3-4,4.9-7.2,4.9
		c-1.6,0-3.1-0.3-4.5-1c-1.4-0.7-3.3-1-5.7-1c-2.3,0-4.5,0.8-6.6,2.5c-2,1.6-3.1,3.6-3.1,6v27.3c0,2-0.1,3.5-0.2,4.5
		c-0.1,1-0.5,2.1-1.2,3.4c-1.3,2.3-4.7,3.4-10.1,3.4c-4.2,0-7.2-0.7-9-2.2c-1.4-1.2-2.2-3.1-2.3-5.6c0-0.9,0-2.1,0-3.8v-45.7
		c0-2,0.1-3.5,0.2-4.5c0.1-1,0.5-2.1,1.1-3.3c1.2-2.3,4.6-3.5,10.1-3.5c5.2,0,8.5,1,9.8,3c1,1.4,1.4,2.8,1.4,4.3
		c0.4-0.6,1.1-1.3,1.9-2.2c0.8-0.9,2.6-2,5.3-3.5c2.7-1.5,5.1-2.2,7.1-2.2c2,0,3.7,0.1,5.1,0.3C139.7,880.1,141.2,880.5,142.9,881z"
		/>
	<path class="st2" d="M196.3,887.5c0.5-4.9,3.9-7.3,10.3-7.3c3.4,0,5.9,0.3,7.5,0.8c1.6,0.5,2.8,1.4,3.4,2.7c0.6,1.3,1,2.5,1.2,3.4
		c0.1,1,0.2,2.5,0.2,4.5v45.5c0,2-0.1,3.5-0.2,4.5c-0.1,1-0.5,2.1-1.1,3.4c-1.2,2.3-4.2,3.4-8.9,3.4c-4.7,0-7.9-0.6-9.5-1.8
		c-1.6-1.2-2.5-2.9-2.8-5.1c-3.2,4.6-8.6,6.9-16.1,6.9c-7.5,0-14.5-3.4-20.9-10.3c-6.4-6.8-9.6-14.8-9.6-23.9c0-9.1,3.2-17,9.7-23.8
		c6.5-6.8,13.6-10.2,21.3-10.2c2.9,0,5.6,0.5,8.1,1.6c2.4,1,4.1,2,5.1,2.9C195,885.8,195.7,886.7,196.3,887.5z M172.7,914.6
		c0,2.9,1.1,5.4,3.4,7.7c2.3,2.3,5,3.4,8.2,3.4c3.2,0,5.9-1.2,8-3.5c2.1-2.3,3.2-4.9,3.2-7.7s-1-5.4-3.1-7.9c-2-2.4-4.8-3.6-8.2-3.6
		c-3.4,0-6.2,1.2-8.3,3.6C173.7,909.1,172.7,911.7,172.7,914.6z"/>
	<path class="st2" d="M273.9,887.5c0.5-4.9,3.9-7.3,10.3-7.3c3.4,0,5.9,0.3,7.5,0.8c1.6,0.5,2.8,1.4,3.4,2.7c0.6,1.3,1,2.5,1.2,3.4
		c0.1,1,0.2,2.5,0.2,4.5v45.5c0,2-0.1,3.5-0.2,4.5c-0.1,1-0.5,2.1-1.1,3.4c-1.2,2.3-4.2,3.4-8.9,3.4c-4.7,0-7.9-0.6-9.5-1.8
		c-1.6-1.2-2.5-2.9-2.8-5.1c-3.2,4.6-8.6,6.9-16.1,6.9c-7.5,0-14.5-3.4-20.9-10.3c-6.4-6.8-9.6-14.8-9.6-23.9c0-9.1,3.2-17,9.7-23.8
		c6.5-6.8,13.6-10.2,21.3-10.2c2.9,0,5.6,0.5,8.1,1.6c2.4,1,4.1,2,5.1,2.9C272.5,885.8,273.3,886.7,273.9,887.5z M250.2,914.6
		c0,2.9,1.1,5.4,3.4,7.7c2.3,2.3,5,3.4,8.2,3.4c3.2,0,5.9-1.2,8-3.5c2.1-2.3,3.2-4.9,3.2-7.7s-1-5.4-3.1-7.9c-2-2.4-4.8-3.6-8.2-3.6
		s-6.2,1.2-8.3,3.6C251.3,909.1,250.2,911.7,250.2,914.6z"/>
	<path class="st2" d="M328.3,867.6c-0.6,1.3-1.8,2.1-3.4,2.7c-1.6,0.5-3.8,0.8-6.6,0.8c-2.7,0-4.9-0.3-6.6-0.8
		c-1.6-0.5-2.8-1.4-3.4-2.7c-0.6-1.3-1-2.4-1.2-3.4c-0.1-1-0.2-2.5-0.2-4.5c0-2,0.1-3.5,0.2-4.5c0.1-1,0.5-2.1,1.1-3.3
		c1.2-2.3,4.6-3.5,10.1-3.5c5.5,0,8.8,1.2,9.9,3.5c0.7,1.3,1.1,2.5,1.2,3.4c0.1,1,0.2,2.5,0.2,4.5c0,2-0.1,3.5-0.2,4.5
		C329.4,865.2,329,866.3,328.3,867.6z M306.9,891.7c0-2,0.1-3.5,0.2-4.5c0.1-1,0.5-2.1,1.1-3.4c1.2-2.3,4.6-3.4,10.1-3.4
		c4.2,0,7.1,0.7,8.8,2.2c1.5,1.2,2.3,3.1,2.3,5.6c0.1,0.9,0.1,2.1,0.1,3.8v45.5c0,2-0.1,3.5-0.2,4.5c-0.1,1-0.5,2.1-1.2,3.4
		c-1.1,2.3-4.5,3.4-10,3.4c-5.5,0-8.8-1.2-10-3.5c-0.6-1.3-1-2.4-1.1-3.4c-0.1-1-0.2-2.5-0.2-4.6V891.7z"/>
	<path class="st2" d="M403.4,948.5c-8.8,0-16-3.3-21.8-10c-5.8-6.6-8.7-14.7-8.7-24.3v-22.8c0-2.1,0.1-3.6,0.2-4.6
		c0.1-1,0.5-2.1,1.1-3.4c1.2-2.3,4.6-3.5,10.1-3.5c6.1,0,9.6,1.6,10.7,4.9c0.5,1.4,0.8,3.6,0.8,6.6v22.8c0,3.6,1,6.3,3.1,8.3
		c2,2,4.8,3,8.2,3c3.4,0,6.2-1,8.3-3.1c2.1-2.1,3.2-4.8,3.2-8.2v-23c0-2,0.1-3.5,0.2-4.5c0.1-1,0.5-2.1,1.2-3.4
		c1.1-2.3,4.5-3.4,10-3.4c5.5,0,8.8,1.2,10,3.5c0.6,1.3,1,2.5,1.1,3.4c0.1,1,0.2,2.5,0.2,4.5v46.1c0,1.9-0.1,3.4-0.2,4.4
		c-0.1,1-0.5,2.1-1.2,3.3c-1.3,2.3-4.6,3.4-10,3.4c-5.3,0-8.5-1-9.8-3.1c-0.9-1.5-1.3-3.3-1.3-5.3c-0.3,0.6-1.1,1.5-2.3,2.6
		c-1.2,1.1-2.4,2.1-3.5,2.9C410.1,947.6,406.9,948.5,403.4,948.5z"/>
	<path class="st2" d="M539.5,880.8c5.5,2.4,8.3,5.4,8.3,9c0,1.5-0.7,3.8-2.1,7.1c-1.4,3.3-2.6,6.1-3.5,8.5l-14.3,34.9
		c-1.3,3.8-3.5,6.5-6.5,8.1c-1.3,0.6-2.9,0.9-4.9,0.9c-2,0-3.9-0.8-5.8-2.3c-1.9-1.5-3.1-3.1-3.7-4.6l-1-2.2
		c-0.7-1.7-3.3-8.5-7.7-20.3c-0.9,2.1-2.1,5.5-3.8,10.2c-1.7,4.7-2.8,7.7-3.3,8.8c-0.5,1.2-0.8,1.9-0.9,2.3
		c-0.1,0.4-0.5,1.1-1.1,2.1c-0.6,1-1.3,1.9-2.1,2.7c-2.1,2.1-4.5,3.1-7.2,3.1c-2.7,0-4.9-0.8-6.8-2.3c-1.8-1.5-3-3.1-3.6-4.6
		l-19.6-47.9c-0.9-2.6-1.3-4.3-1.3-5.1c0-3.5,2.5-6.2,7.4-8.2c2.8-1.1,5-1.7,6.8-1.7c1.7,0,3.1,0.4,4.2,1.1c1.1,0.7,1.8,1.5,2.3,2.2
		c0.4,0.7,0.8,1.5,1,2.3c1.5,3.5,4.6,11.6,9.2,24.5l7.7-21.1c0.5-1.7,1.5-3.3,2.9-4.6c2.5-2.5,5.1-3.8,7.7-3.8s4.8,0.7,6.7,2.1
		c1.9,1.4,3.1,2.8,3.8,4.2l1,2.2c4.3,12.1,6.9,19.1,7.7,20.8l7.9-21.6c2.1-5.5,5.2-8.3,9.4-8.3C536,879.5,537.7,879.9,539.5,880.8z"
		/>
	<path class="st2" d="M588.4,942.7c-1.6-1-2.5-2.7-2.5-4.9c0-2.3,1.6-5.7,4.9-10.3c1-1.5,2.5-2.2,4.6-2.2c2.1,0,5,1.1,8.7,3.2
		c3.6,2.1,6.9,3.2,9.9,3.2c5.3,0,7.9-1,7.9-3.1c0-1.6-2.9-2.9-8.7-3.6c-5.5-0.8-10.9-2.8-16.3-6.1c-2.5-1.6-4.6-4-6.2-7.4
		c-1.6-3.3-2.5-7.3-2.5-11.9c0-13.7,9.4-20.6,28.2-20.6c6.2,0,12.5,1.5,19,4.4c3,1.4,4.6,3.1,4.6,5.2c0,2.1-1,4.6-2.9,7.7
		c-1.9,3-3.9,4.6-5.9,4.6c-1,0-3-0.6-5.8-1.9c-2.8-1.3-5.9-2-9.2-2c-5.1,0-7.7,1-7.7,2.9c0,2.6,2.9,4.3,8.8,5.1
		c5.7,0.6,11.3,2.3,16.7,4.9c2.5,1.2,4.6,3.3,6.3,6.3c1.7,3,2.5,6.7,2.5,11.3s-0.8,8.3-2.5,11.5c-1.7,3.2-4.1,5.5-7.1,7.1
		c-5.6,2.7-12.5,4-20.9,4C604.2,950,596.1,947.5,588.4,942.7z"/>
	<path class="st2" d="M673,914.5c0,3.7,1.2,6.5,3.6,8.6c2.4,2,5,3.1,7.7,3.1c2.7,0,5.3-0.8,7.7-2.4c2.4-1.6,4.3-2.4,5.8-2.4
		c2.6,0,5.8,2.3,9.5,6.9c2,2.5,3,4.8,3,6.8c0,3.3-2.4,6.4-7.2,9.2c-4.9,3.5-11,5.2-18.2,5.2c-8.1,0-15.8-2.9-23.3-8.7
		c-3.6-2.8-6.5-6.5-8.7-11.1c-2.3-4.6-3.4-9.8-3.4-15.3c0-5.6,1.1-10.7,3.4-15.2c2.3-4.6,5.2-8.2,8.7-11c7.2-5.7,14.9-8.6,23-8.6
		c3.3,0,6.5,0.5,9.6,1.4c3.1,0.9,5.4,1.8,6.9,2.7l2.1,1.3c1.6,1,2.8,1.9,3.6,2.5c2.3,1.7,3.4,3.7,3.4,5.9c0,2.2-0.9,4.7-2.7,7.5
		c-3.1,4.8-6.1,7.2-9,7.2c-1.6,0-4-1-7-2.9c-1.6-1.5-3.8-2.2-6.7-2.2c-2.9,0-5.6,1-8.1,3.1C674.2,907.9,673,910.8,673,914.5z"/>
	<path class="st2" d="M756,880.5c8.7,0,15.9,3.3,21.7,9.9c5.8,6.6,8.7,14.7,8.7,24.2v22.9c0,2-0.1,3.5-0.2,4.5
		c-0.1,1-0.5,2.1-1.2,3.4c-1.1,2.3-4.5,3.4-10,3.4c-5.3,0-8.6-1.1-9.9-3.4c-0.7-1.3-1.1-2.5-1.2-3.5c-0.1-1-0.2-2.6-0.2-4.7v-22.8
		c0-3.6-1-6.3-3-8.3c-2-2-4.5-3-7.6-3c-3.1,0-5.8,0.9-8.1,2.8c-2.3,1.9-3.7,4-4,6.3v25.2c0,2-0.1,3.5-0.2,4.5
		c-0.1,1-0.5,2.1-1.2,3.4c-1.1,2.3-4.5,3.4-10,3.4c-5.5,0-8.8-1.2-10-3.5c-0.6-1.3-1-2.4-1.1-3.4c-0.1-1-0.2-2.5-0.2-4.6v-77.8
		c0-2,0.1-3.5,0.2-4.5c0.1-1,0.5-2.1,1.1-3.3c1.2-2.3,4.6-3.5,10.1-3.5c5.5,0,8.8,1.2,9.9,3.5c0.7,1.3,1.1,2.5,1.2,3.4
		c0.1,1,0.2,2.5,0.2,4.5v28.7C745.1,883.1,750.2,880.5,756,880.5z"/>
	<path class="st2" d="M862.8,906.3c0,5.3-1.3,9.3-4,11.8c-2.6,2.6-5.6,3.8-8.8,3.8h-30.8c0,2.4,1.4,4.5,4.3,6.1
		c2.9,1.6,5.7,2.5,8.6,2.5c5,0,9-0.5,11.8-1.6l1.4-0.5c2.1-1,3.8-1.4,5.2-1.4c2.8,0,5.2,1.9,7.2,5.9c1.1,2.3,1.7,4.3,1.7,6
		c0,7.7-9.2,11.6-27.7,11.6c-6.4,0-12.1-1.1-17.1-3.3c-5-2.2-8.9-5.1-11.6-8.8c-5.5-7-8.2-14.9-8.2-23.5c0-10.9,3.5-19.7,10.6-26.2
		c7.1-6.5,15.9-9.8,26.5-9.8c12.1,0,20.9,4.2,26.5,12.7C861.3,896.1,862.8,901,862.8,906.3z M835.3,910.2c3.3,0,4.9-1.4,4.9-4.2
		c0-2-0.8-3.6-2.3-4.8c-1.5-1.2-3.7-1.8-6.5-1.8c-2.8,0-5.6,1.1-8.4,3.4c-2.8,2.3-4.2,4.7-4.2,7.3H835.3z"/>
	<path class="st2" d="M917.8,881c1.6,0.5,3,1.4,4.1,2.7c1.1,1.3,1.6,3.3,1.6,6c0,2.8-0.8,5.8-2.5,9.1c-1.6,3.3-4,4.9-7.2,4.9
		c-1.6,0-3.1-0.3-4.5-1c-1.4-0.7-3.3-1-5.7-1c-2.3,0-4.5,0.8-6.6,2.5c-2,1.6-3.1,3.6-3.1,6v27.3c0,2-0.1,3.5-0.2,4.5
		c-0.1,1-0.5,2.1-1.2,3.4c-1.3,2.3-4.7,3.4-10.1,3.4c-4.2,0-7.2-0.7-9-2.2c-1.4-1.2-2.2-3.1-2.3-5.6c0-0.9,0-2.1,0-3.8v-45.7
		c0-2,0.1-3.5,0.2-4.5c0.1-1,0.5-2.1,1.1-3.3c1.2-2.3,4.6-3.5,10.1-3.5c5.2,0,8.5,1,9.8,3c1,1.4,1.4,2.8,1.4,4.3
		c0.4-0.6,1.1-1.3,1.9-2.2c0.8-0.9,2.6-2,5.3-3.5c2.7-1.5,5.1-2.2,7.1-2.2c2,0,3.7,0.1,5.1,0.3C914.6,880.1,916.2,880.5,917.8,881z"
		/>
	<path class="st2" d="M953.1,889.3c4.1-6.2,9-9.2,14.7-9.2c8.8,0,15.4,3.8,19.8,11.3c1-1.3,2.1-2.7,3.4-4.1c1.3-1.4,3.5-3,6.4-4.7
		c2.9-1.7,6-2.5,9.1-2.5c6.9,0,12.7,2.7,17.4,8c4.7,5.3,7,14.2,7,26.5v22.8c0,2-0.1,3.5-0.2,4.5c-0.1,1-0.5,2.1-1.2,3.4
		c-1.1,2.3-4.5,3.5-10,3.5c-5.5,0-8.8-1.2-10-3.6c-0.6-1.3-1-2.4-1.1-3.4c-0.1-1-0.2-2.5-0.2-4.5v-22.8c0-7.5-2.7-11.3-8.1-11.3
		c-3,0-5.1,1-6.2,3c-1.1,2-1.6,4.8-1.6,8.5v22.8c0,2.1-0.1,3.6-0.2,4.6c-0.1,1-0.5,2.1-1.2,3.4c-1.2,2.3-4.6,3.5-10.1,3.5
		c-5.5,0-8.8-1.2-10-3.6c-0.6-1.3-1-2.4-1.1-3.4c-0.1-1-0.2-2.5-0.2-4.5v-22.8c0-7.5-2.7-11.3-8.1-11.3c-5.2,0-7.8,3.8-7.8,11.3v23
		c0,2-0.1,3.5-0.2,4.5c-0.1,1-0.5,2.1-1.2,3.4c-1.3,2.3-4.7,3.4-10.1,3.4s-8.8-1.2-10-3.5c-0.6-1.3-1-2.4-1.1-3.4
		c-0.1-1-0.2-2.5-0.2-4.6v-45.8c0-2,0.1-3.5,0.2-4.5c0.1-1,0.5-2.1,1.2-3.3c1.3-2.3,4.4-3.5,9.2-3.5c4.9,0,8,0.8,9.5,2.3
		C952.3,884.1,953.1,886.4,953.1,889.3z"/>
	<path class="st2" d="M1061.6,927.3c1.5,1.5,2.2,4.5,2.2,9.1v0.5c0,2.1-0.1,3.6-0.2,4.6c-0.1,1-0.6,2.2-1.4,3.6
		c-1.3,2.5-4.6,3.8-9.8,3.8c-5.2,0-8.7-0.8-10.4-2.5c-1.7-1.6-2.5-4.8-2.5-9.4v-0.5c0-2,0.1-3.5,0.2-4.6c0.1-1,0.5-2.2,1.2-3.5
		c1.3-2.6,4.6-3.9,9.8-3.9C1055.9,924.6,1059.6,925.5,1061.6,927.3z"/>
</g>
</svg>
