<svg id="Laag_1" data-name="Laag 1" xmlns="http://www.w3.org/2000/svg" viewBox="0 0 128.72 267.79"><defs><style>.cls-1{fill:#69ad28;}.cls-2{fill:#4e801c;}.cls-3{fill:#916037;}</style></defs><title>boom</title><path class="cls-1" d="M0,111.25a64.36,64.36,0,0,0,64.36,64.36V0C28.81,0,0,75.7,0,111.25Z"/><path class="cls-2" d="M64.36,0V175.61a64.37,64.37,0,0,0,64.36-64.36C128.72,75.7,99.9,0,64.36,0Z"/><path class="cls-3" d="M66.5,108.29l5.37,150.16c.17,4.95-3.05,9.13-7.19,9.34s-7.65-3.63-7.83-8.57c0-.25,0-.52,0-.77l5.36-150.16a2.35,2.35,0,0,1,2.24-2.45A2.39,2.39,0,0,1,66.5,108.29Z"/></svg>