<svg id="Laag_1" data-name="Laag 1" xmlns="http://www.w3.org/2000/svg" viewBox="0 0 283.42 272.67"><defs><style>.cls-1{fill:#7aaebb;}.cls-2{fill:#a2e3ed;}.cls-3{fill:#6ba9b2;}.cls-4{fill:#4d4d4d;opacity:0.27;isolation:isolate;}</style></defs><title>opname</title><path class="cls-1" d="M282.76,172.14a131.16,131.16,0,0,1-5.34,22c-46.8-4.3-234.07,3.7-249.15,4.38A130.65,130.65,0,0,1,23,180.59C37,178,155.71,157.36,282.76,172.14Z" transform="translate(-1.05 -11.6)"/><path class="cls-1" d="M184.58,139c2-.53,67-17.49,90.6-35.18a131.08,131.08,0,0,1,7,25.13Z" transform="translate(-1.05 -11.6)"/><path class="cls-2" d="M275.18,103.84c-23.59,17.69-88.57,34.65-90.6,35.18L282.23,129a131.14,131.14,0,0,1,.53,43.17C155.76,157.36,37,178,23,180.59a132.93,132.93,0,0,1-3.13-28.53s70-7.29,95-9.76c2-.07,3.93-.2,5.56-.39,6.17-.72,2.86-.44-5.56.39-26.61.93-85.09-7.61-93.6-8.88a132.16,132.16,0,0,1,5.6-23.9c12.87.75,155.84,7.92,231.63-35.93A132.11,132.11,0,0,1,275.18,103.84Z" transform="translate(-1.05 -11.6)"/><path class="cls-3" d="M64.94,52.61s79,49.51,165.39-7.09a132.6,132.6,0,0,1,28.15,28.07c-75.79,43.85-218.76,36.68-231.63,35.93A132.27,132.27,0,0,1,64.94,52.61Z" transform="translate(-1.05 -11.6)"/><path class="cls-2" d="M51.85,238.26c13.53,2.13,137.64,21.17,187.94,12.67A132.12,132.12,0,0,1,53.27,239.88Z" transform="translate(-1.05 -11.6)"/><path class="cls-1" d="M152.07,19.84a131.44,131.44,0,0,1,78.26,25.68C144,102.12,64.94,52.61,64.94,52.61A131.68,131.68,0,0,1,152.07,19.84Z" transform="translate(-1.05 -11.6)"/><path class="cls-3" d="M28.27,198.52c15.08-.68,202.35-8.68,249.15-4.42a132.31,132.31,0,0,1-37.57,56.83c-50.3,8.5-174.41-10.54-187.94-12.67A132.48,132.48,0,0,1,28.27,198.52Z" transform="translate(-1.05 -11.6)"/><path class="cls-1" d="M21.2,133.42c8.51,1.27,67,9.81,93.6,8.88-25,2.47-94.95,9.76-94.95,9.76A133.56,133.56,0,0,1,21.2,133.42Z" transform="translate(-1.05 -11.6)"/><path class="cls-4" d="M284.47,154.26c.22,72.43-64.73,127.53-121.78,129.48,0,0,44.89-55.81,44.89-129S158,20.38,158,20.38C217.91,17.73,284.22,72.48,284.47,154.26Z" transform="translate(-1.05 -11.6)"/><path class="cls-3" d="M13.88,96.12a11.12,11.12,0,0,1,2.44,1.14,10.36,10.36,0,0,1,2,1.64,10.13,10.13,0,0,1,1.5,2,9.46,9.46,0,0,1,.69,7.56,9.67,9.67,0,0,1-1.16,2.37,9.48,9.48,0,0,1-1.66,1.9,8.9,8.9,0,0,1-2.07,1.38,9.19,9.19,0,0,1-2.35.8,10.55,10.55,0,0,1-2.52.18,10.21,10.21,0,0,1-2.59-.49,11.19,11.19,0,0,1-2.37-1.12,10.54,10.54,0,0,1-2-1.64,10,10,0,0,1-1.51-2,9.6,9.6,0,0,1-.95-2.33A9.2,9.2,0,0,1,1.06,105a8.76,8.76,0,0,1,.45-2.59,11.66,11.66,0,0,1,1.92-3.62,8.55,8.55,0,0,1,6.39-3.27A10.92,10.92,0,0,1,13.88,96.12Zm-1.75,6.55a4.29,4.29,0,0,0-1.27-.22,3.51,3.51,0,0,0-1.22.19,2.8,2.8,0,0,0-1,.61,2.63,2.63,0,0,0-.68,1.09,3,3,0,0,0-.15,1.3,2.84,2.84,0,0,0,.37,1.14,3.18,3.18,0,0,0,.8.92,3.82,3.82,0,0,0,1.15.6,4.46,4.46,0,0,0,1.27.23,3.58,3.58,0,0,0,1.27-.16,2.74,2.74,0,0,0,1.08-.6,2.37,2.37,0,0,0,.7-1.09,2.85,2.85,0,0,0,.14-1.31,2.94,2.94,0,0,0-.42-1.16,3.6,3.6,0,0,0-.86-.93A4.15,4.15,0,0,0,12.13,102.67Z" transform="translate(-1.05 -11.6)"/><path class="cls-3" d="M20.37,77.33a7.17,7.17,0,0,1,2.16,1.55,6.44,6.44,0,0,1,1.27,2,6.94,6.94,0,0,1,.5,2.26,11.61,11.61,0,0,1-.11,2.42A15.16,15.16,0,0,1,23.61,88a20.78,20.78,0,0,1-.93,2.32l5.84,2.86-3.13,6.38-3-1.5-2.94-1.45-2.93-1.45-3-1.52c-1.11-.56-2.22-1.11-3.34-1.65s-2.23-1.11-3.34-1.72a28.68,28.68,0,0,1,.94-3.89A28,28,0,0,1,9.22,82.6a15.42,15.42,0,0,1,1.21-2A11.78,11.78,0,0,1,12,78.82a10,10,0,0,1,1.8-1.34,6.88,6.88,0,0,1,2-.78A7.09,7.09,0,0,1,18,76.6,7.2,7.2,0,0,1,20.37,77.33Zm-2.52,6.31a2,2,0,0,0-1.65-.14A2.2,2.2,0,0,0,15,84.66a5,5,0,0,0-.24.62,5.53,5.53,0,0,0-.17.64L18.52,88c.08-.12.15-.24.21-.35s.12-.25.18-.37a3.18,3.18,0,0,0,.3-1,2.77,2.77,0,0,0-.07-1,2.68,2.68,0,0,0-.45-.93A2.25,2.25,0,0,0,17.85,83.64Z" transform="translate(-1.05 -11.6)"/><path class="cls-3" d="M37.25,63.34c1,.64,1.89,1.28,2.81,1.93s1.84,1.32,2.75,2l-5,7.21c-1.32-1.26-2.67-2.48-4-3.67a43.92,43.92,0,0,0-4.33-3.32l-.54-.34c-.25-.16-.53-.33-.86-.51s-.66-.36-1-.53a8,8,0,0,0-1-.41,2.68,2.68,0,0,0-.86-.16.61.61,0,0,0-.54.24,1.27,1.27,0,0,0-.23.89,2.29,2.29,0,0,0,.32.94,4.58,4.58,0,0,0,.68.91,11.28,11.28,0,0,0,.87.83c.3.26.6.5.88.71l.7.5c1.47,1,2.93,2.08,4.38,3.09s2.92,2,4.39,3.11l-4.06,6.64q-4.3-3.27-8.56-6.47t-8.63-6.36L19,64.39l2,1.41a9.93,9.93,0,0,1-.3-1.31,7.3,7.3,0,0,1-.06-1.32,5.66,5.66,0,0,1,.24-1.28,4.73,4.73,0,0,1,.59-1.22A5.63,5.63,0,0,1,23.12,59a5.32,5.32,0,0,1,1.9-.75,6.72,6.72,0,0,1,2.1,0,11.91,11.91,0,0,1,2.19.55,19.74,19.74,0,0,1,2.2,1c.74.38,1.44.77,2.12,1.18s1.33.83,1.94,1.24Z" transform="translate(-1.05 -11.6)"/><path class="cls-3" d="M56,51.89l-4.33,6.28-3.18-1.62-2.32,2.58,2,2.88-5.77,5.27-11-18.1,5.36-6.59ZM44.7,53.83,40,51.15l3.2,4.39Z" transform="translate(-1.05 -11.6)"/><path class="cls-3" d="M70.91,28.23q1.36,1.71,2.6,3.49T76,35.32l-5.91,5.17q-1.38-2.3-2.81-4.55a49.62,49.62,0,0,0-3.1-4.35l-.38-.45c-.18-.21-.39-.45-.64-.72s-.49-.52-.77-.79a8.34,8.34,0,0,0-.8-.71,2.87,2.87,0,0,0-.71-.44.49.49,0,0,0-.5,0,1,1,0,0,0-.4.84,2.68,2.68,0,0,0,.25,1,5.62,5.62,0,0,0,.58,1c.23.32.42.58.57.77s.54.66.82,1,.56.66.84,1c1,1.23,1.93,2.49,2.85,3.76s1.82,2.56,2.71,3.86l-5.49,4.72q-1.38-2.3-2.81-4.53a52.62,52.62,0,0,0-3.11-4.33l-.39-.47c-.19-.22-.41-.47-.66-.74s-.51-.55-.8-.82a10.57,10.57,0,0,0-.83-.74,3.45,3.45,0,0,0-.73-.46.48.48,0,0,0-.52,0,.81.81,0,0,0-.31.64,2.14,2.14,0,0,0,.15.86,5.29,5.29,0,0,0,.46,1c.19.33.39.65.6.95s.41.58.6.83l.41.55,6.67,8.93-6,4.78L53,48.54q-1.41-2.19-2.88-4.33c-1-1.43-2-2.84-3-4.25S45.05,37.18,44,35.83l5.49-4.76,1.08,1.4c0-.36,0-.74.06-1.15a6.55,6.55,0,0,1,.23-1.17,4.84,4.84,0,0,1,.45-1.07,3,3,0,0,1,.74-.87,7.35,7.35,0,0,1,1.13-.75,3.44,3.44,0,0,1,1.08-.36,2.73,2.73,0,0,1,1.13.06,4.78,4.78,0,0,1,1.26.55c0-.48.08-.94.15-1.39a6.48,6.48,0,0,1,.33-1.26,5.23,5.23,0,0,1,.61-1.14,5.09,5.09,0,0,1,1-1A5.16,5.16,0,0,1,61,21.77a5.42,5.42,0,0,1,2.3.11,7.75,7.75,0,0,1,2.19,1,17.25,17.25,0,0,1,2,1.62,24.75,24.75,0,0,1,1.82,1.88C70,27.06,70.46,27.67,70.91,28.23Z" transform="translate(-1.05 -11.6)"/><path class="cls-3" d="M86.91,17.27A18.29,18.29,0,0,1,88,19.68c-1.46.94-2.88,1.95-4.26,3l-4.14,3.17a3.75,3.75,0,0,0,2,.92,3.18,3.18,0,0,0,2.08-.41,4.47,4.47,0,0,0,1-.86,10.45,10.45,0,0,0,1-1.2A13.31,13.31,0,0,0,86.54,23q.38-.66.63-1.17l2.75,6.4a7.14,7.14,0,0,1-.75,1.31,9.06,9.06,0,0,1-1,1.15,10.14,10.14,0,0,1-1.18,1,9.59,9.59,0,0,1-1.26.81,8.4,8.4,0,0,1-2.61,1,8.08,8.08,0,0,1-2.54.11,8.4,8.4,0,0,1-2.4-.66A10.3,10.3,0,0,1,76,31.61a13,13,0,0,1-1.9-1.82,14.12,14.12,0,0,1-1.53-2.22A14.82,14.82,0,0,1,71.41,25a14.1,14.1,0,0,1-.65-2.77,11.67,11.67,0,0,1,0-2.77,9.35,9.35,0,0,1,.67-2.62,8.46,8.46,0,0,1,1.47-2.33,9,9,0,0,1,2.37-1.87,7.92,7.92,0,0,1,2.34-.88,6.91,6.91,0,0,1,2.26-.07,7.25,7.25,0,0,1,2.1.63,9.13,9.13,0,0,1,1.91,1.23,11.69,11.69,0,0,1,1.67,1.7A14.47,14.47,0,0,1,86.91,17.27Zm-5.72,2.29a4.3,4.3,0,0,0-.51-.72,2.89,2.89,0,0,0-.65-.57,2,2,0,0,0-.77-.26,1.38,1.38,0,0,0-.85.21,1.8,1.8,0,0,0-.78.81,3.14,3.14,0,0,0-.29,1.11,4.84,4.84,0,0,0,0,1.2,8.43,8.43,0,0,0,.25,1.09l3.73-2.58Z" transform="translate(-1.05 -11.6)"/></svg>