<svg id="Laag_1" data-name="Laag 1" xmlns="http://www.w3.org/2000/svg" viewBox="0 0 359.3 341.42"><defs><style>.cls-1{fill:#7c7c7c;}.cls-13,.cls-2{fill:#999;}.cls-3{fill:#e6bea6;}.cls-4{fill:#80b6c2;}.cls-5{fill:#f2d0b9;}.cls-6{fill:#ae907f;}.cls-11,.cls-7{fill:#fff;}.cls-8{fill:#814b1b;}.cls-9{fill:#d1575e;}.cls-10{fill:#ff95bf;}.cls-11,.cls-12,.cls-13{fill-rule:evenodd;}.cls-12,.cls-17{fill:#e6e6e6;}.cls-14{fill:#f1f1f1;}.cls-15{fill:#b7ccd4;}.cls-16{fill:#b3b3b3;}.cls-18{fill:#376b75;}.cls-19{fill:#40979f;}.cls-20{fill:#996233;}.cls-21{fill:#00ace4;}.cls-22{fill:#e6eff2;}.cls-23{fill:#ad8f7d;}.cls-24{fill:#0080ac;}.cls-25{fill:#789470;}.cls-26{fill:#ab622c;}.cls-27{fill:#ccc;}.cls-28{fill:#ffb500;}.cls-29{fill:#cb9200;}.cls-30{fill:#004b50;}.cls-31{fill:#f3e2d6;}.cls-32{fill:#c1d5dd;}.cls-33{fill:none;}.cls-34{fill:gray;}.cls-35{fill:#4c4c4c;}.cls-36{fill:#303030;}.cls-37{fill:#6bc62a;}</style></defs><title>personeel</title><rect class="cls-1" y="262.5" width="12.55" height="26"/><rect class="cls-1" x="346.75" y="262.5" width="12.55" height="26"/><ellipse class="cls-1" cx="179.65" cy="288.5" rx="179.65" ry="52.92"/><ellipse class="cls-2" cx="179.65" cy="262.5" rx="179.65" ry="52.92"/><g id="Laag_2" data-name="Laag 2"><g id="Laag_3" data-name="Laag 3"><path class="cls-3" d="M127.65,167.55l10,3.72,11.68-32.41,11.23-32.18s2.14-7.62-5.61-9.87-9.79,5.16-9.79,5.16l-8.74,32.95Z" transform="translate(-40.75 -27.46)"/><path class="cls-3" d="M116.84,191.84a1.28,1.28,0,0,0,1.73-.36s4-6.88,4.32-6.79-3.69,10.45-3.69,10.45a1.23,1.23,0,0,0,.69,1.49,1.25,1.25,0,0,0,1.66-.54s4.39-9.85,4.77-9.72-3.88,11.68-3.88,11.68a1.21,1.21,0,0,0,.76,1.5,1.23,1.23,0,0,0,1.6-.58s4.83-10.95,5.11-10.86S128,198.44,128,198.44a1.26,1.26,0,0,0,.9,1.38,1.21,1.21,0,0,0,1.55-.76l3.45-11.6a3,3,0,0,0,.25-.51,49.49,49.49,0,0,1,1.5-5c.24-.12,1.27,3.22,1.27,3.22l.05.15,2,4a1.58,1.58,0,0,0,1.78.79,1.32,1.32,0,0,0,1-1.57l0-.12-1.39-4.2.06.15-.8-4.89-.14-.34L137.64,176a8.38,8.38,0,0,0-.46-.75q-.27-.39-.57-.75l1.51-4.5L128,166.53l-1.51,4.52a2.56,2.56,0,0,0-2,1.66l-3.2,7.56-5,10A1.2,1.2,0,0,0,116.84,191.84Z" transform="translate(-40.75 -27.46)"/><ellipse class="cls-3" cx="137.95" cy="153.86" rx="15.81" ry="6.96" transform="translate(-96.69 197.89) rotate(-68.36)"/><path class="cls-3" d="M239.42,167.55l-10,3.72-11.68-32.41L206.5,106.68s-2.14-7.62,5.61-9.87S221.9,102,221.9,102l8.72,32.95Z" transform="translate(-40.75 -27.46)"/><path class="cls-3" d="M250.23,191.84a1.27,1.27,0,0,1-1.72-.36s-4-6.88-4.32-6.79,3.68,10.45,3.68,10.45a1.22,1.22,0,0,1-.69,1.49,1.25,1.25,0,0,1-1.66-.54s-4.38-9.85-4.76-9.72,3.87,11.68,3.87,11.68a1.21,1.21,0,0,1-.72,1.48,1.24,1.24,0,0,1-1.64-.58s-4.83-10.95-5.11-10.86,1.91,10.35,1.91,10.35a1.24,1.24,0,0,1-.9,1.38,1.22,1.22,0,0,1-1.55-.76l-3.46-11.6a2.38,2.38,0,0,1-.24-.51,45.07,45.07,0,0,0-1.52-5c-.24-.12-1.26,3.22-1.26,3.22l0,.15-2,4a1.56,1.56,0,0,1-1.77.79,1.32,1.32,0,0,1-1-1.58l0-.13,1.39-4.18-.06.15.8-4.89.14-.34,1.83-3.17a8.5,8.5,0,0,1,.47-.75,6.74,6.74,0,0,1,.57-.75L229,170l10.1-3.42,1.51,4.52a2.56,2.56,0,0,1,2,1.66l3.18,7.56,4.95,10A1.18,1.18,0,0,1,250.23,191.84Z" transform="translate(-40.75 -27.46)"/><ellipse class="cls-3" cx="229.13" cy="153.84" rx="6.96" ry="15.81" transform="translate(-81.34 67.88) rotate(-21.64)"/><ellipse cx="142.69" cy="23.79" rx="18.63" ry="19.58"/><polygon class="cls-4" points="176.1 165.12 109.43 165.12 112.18 67.06 130.39 63.73 134.28 63.02 151.27 63.02 155.16 63.73 173.35 67.06 176.1 165.12"/><path class="cls-5" d="M192,80.6v6.26a13.43,13.43,0,0,1-7.68,2.59h-1.9a13.27,13.27,0,0,1-7.4-2.39V80.63Z" transform="translate(-40.75 -27.46)"/><polygon class="cls-3" points="160.36 64.69 142.63 83.37 125.19 64.69 134.01 63.07 152.13 63.18 160.36 64.69"/><path class="cls-4" d="M152.24,127.6a63.14,63.14,0,0,1-11.14-.74c-4.82-.91-10.15-6.6-10.15-6.6s16.49-23.85,17.82-24.48a29.31,29.31,0,0,1,4.16-1.27Z" transform="translate(-40.75 -27.46)"/><path class="cls-4" d="M214.79,127.6a63.28,63.28,0,0,0,11.15-.74c4.82-.91,10.14-6.6,10.14-6.6S219.6,96.41,218.26,95.78a28.58,28.58,0,0,0-4.16-1.28Z" transform="translate(-40.75 -27.46)"/><polygon class="cls-3" points="152.86 63.75 142.69 76.7 132.69 63.75 132.69 46.21 152.86 46.21 152.86 63.75"/><path class="cls-6" d="M193.62,76.27v8.9a14.35,14.35,0,0,1-9.12,3.67h-2.26a14.17,14.17,0,0,1-8.79-3.39V76.27Z" transform="translate(-40.75 -27.46)"/><ellipse class="cls-3" cx="165.61" cy="61.47" rx="3.57" ry="7" transform="translate(-45.11 -14.13) rotate(-4.55)"/><ellipse class="cls-3" cx="201.47" cy="61.21" rx="7.02" ry="3.58" transform="translate(83.63 229.7) rotate(-85.43)"/><path class="cls-3" d="M182.44,85.17h1.91c7.9,0,15-8.09,15-16l.65-16.8C200,44.47,195.34,37,187.44,37h-8.05c-7.9,0-12.58,7.43-12.58,15.34l.65,16.8C167.43,77.08,174.53,85.17,182.44,85.17Z" transform="translate(-40.75 -27.46)"/><path class="cls-7" d="M195.17,57.31c0,1.8-1.85,3.26-4.14,3.26s-4.15-1.46-4.15-3.26a2.88,2.88,0,0,1,.94-2.06,4.86,4.86,0,0,1,6.43,0A2.84,2.84,0,0,1,195.17,57.31Z" transform="translate(-40.75 -27.46)"/><circle class="cls-8" cx="149.99" cy="29.85" r="1.99"/><circle cx="149.99" cy="29.85" r="1.04"/><circle class="cls-7" cx="149.43" cy="28.97" r="0.79"/><ellipse class="cls-7" cx="135.94" cy="29.85" rx="4.14" ry="3.26"/><circle class="cls-8" cx="136.22" cy="29.85" r="1.99"/><circle cx="136.22" cy="29.85" r="1.04"/><circle class="cls-7" cx="135.66" cy="28.97" r="0.79"/><path d="M180.36,50.7a17.92,17.92,0,0,0-8.66,2.14.36.36,0,0,0-.17.48v0a.38.38,0,0,0,.44.15,16.35,16.35,0,0,1,8.18-.6,1.21,1.21,0,0,0,1.38-.84,1.11,1.11,0,0,0-.83-1.32l-.12,0Z" transform="translate(-40.75 -27.46)"/><path d="M187.43,50.7a17.91,17.91,0,0,1,8.65,2.14.36.36,0,0,1,.17.48v0a.39.39,0,0,1-.46.15,16.31,16.31,0,0,0-8.17-.6,1.23,1.23,0,0,1-1.39-.84,1.11,1.11,0,0,1,.85-1.32l.1,0Z" transform="translate(-40.75 -27.46)"/><path class="cls-9" d="M192.45,72a7.92,7.92,0,0,1-2.69,4.78,9.83,9.83,0,0,1-12.66-.07A7.82,7.82,0,0,1,174.47,72a1,1,0,0,1,.7-1,1.22,1.22,0,0,1,.38-.07h15.82a1.22,1.22,0,0,1,.38.07A1,1,0,0,1,192.45,72Z" transform="translate(-40.75 -27.46)"/><path class="cls-10" d="M189.75,76.75a9.83,9.83,0,0,1-12.66-.07,22.2,22.2,0,0,1,6.23-.8A21.88,21.88,0,0,1,189.75,76.75Z" transform="translate(-40.75 -27.46)"/><path class="cls-7" d="M191.75,71c-.54,1.74-4.06,3.08-8.29,3.08s-7.73-1.34-8.29-3.08a1,1,0,0,1,.38-.07h15.82A1,1,0,0,1,191.75,71Z" transform="translate(-40.75 -27.46)"/><path class="cls-6" d="M185.79,67.93c-.17.09-.35.17-.54.25l-.53.2h-.09a1.83,1.83,0,0,1-1.22-.35,2.11,2.11,0,0,1-.76-1,1.81,1.81,0,0,1-.12-.64V64.79c0-.7,0-1.4.06-2.1s.06-1.4.11-2.1a.2.2,0,0,1,.4,0c.06.7.08,1.4.11,2.1s0,1.4.06,2.1v1.59a1.36,1.36,0,0,0,.08.39,1.29,1.29,0,0,0,.48.63,1.67,1.67,0,0,0,.75.28h-.09c.19,0,.39-.06.59-.09a6.08,6.08,0,0,1,.61,0,.19.19,0,0,1,.19.2.21.21,0,0,1-.1.17Z" transform="translate(-40.75 -27.46)"/><path class="cls-11" d="M211.42,115.33a1.65,1.65,0,0,0-1.66-1.65H190.25a1.65,1.65,0,0,0-1.66,1.65h0v11.54h22.85Z" transform="translate(-40.75 -27.46)"/><path class="cls-12" d="M190.25,129.58h19.53a1.66,1.66,0,0,0,1.66-1.66v-1.75H188.59V128A1.67,1.67,0,0,0,190.25,129.58Z" transform="translate(-40.75 -27.46)"/><path class="cls-13" d="M200,115.55h0a1.69,1.69,0,0,1-1.69-1.69v-2.24h3.37v2.24a1.69,1.69,0,0,1-1.68,1.69Z" transform="translate(-40.75 -27.46)"/><rect class="cls-14" x="158.23" y="84.81" width="2.02" height="0.32"/><rect class="cls-14" x="158.23" y="85.57" width="2.02" height="0.32"/><rect class="cls-14" x="158.23" y="86.32" width="2.02" height="0.32"/><path class="cls-15" d="M197.76,123.87h-6.62v-7.51h6.62Zm-6.26-.34h5.93v-6.84h-6Z" transform="translate(-40.75 -27.46)"/><path class="cls-16" d="M195,119.58a1.29,1.29,0,0,0,.71-1.16,1.31,1.31,0,0,0-2.62,0,1.33,1.33,0,0,0,.7,1.17,2.44,2.44,0,0,0-1.82,2.35c0,1.34,4.86,1.34,4.86,0A2.43,2.43,0,0,0,195,119.58Z" transform="translate(-40.75 -27.46)"/><path class="cls-17" d="M209.44,118.19h-9.71a.61.61,0,0,1,0-1.22h9.71a.61.61,0,0,1,0,1.22Z" transform="translate(-40.75 -27.46)"/><path class="cls-17" d="M207.32,121.44h-7.59a.61.61,0,0,1-.61-.61.61.61,0,0,1,.61-.61h7.59a.61.61,0,0,1,.61.61.61.61,0,0,1-.61.61Z" transform="translate(-40.75 -27.46)"/><path class="cls-18" d="M175.53,116.35V114h-19.4v4.61h0V126a9.7,9.7,0,0,0,9.7,9.7h0a9.71,9.71,0,0,0,9.7-9.69h0Zm-9.7,18.16a8.47,8.47,0,0,1-8.47-8.47v-7.47H174.3V126A8.47,8.47,0,0,1,165.83,134.51Z" transform="translate(-40.75 -27.46)"/><path d="M177.58,50.7c-7-3.58-7.47-18.72,1.16-16.23C190.25,37.79,178.41,44.31,177.58,50.7Z" transform="translate(-40.75 -27.46)"/><path d="M185,51.24c4.09-2.28,2.09-16.36-3.22-15.33C174.7,37.28,183.46,45.16,185,51.24Z" transform="translate(-40.75 -27.46)"/><path d="M192.07,51c3.76-2.82-.14-16.5-5.24-14.77C180,38.56,189.76,45.16,192.07,51Z" transform="translate(-40.75 -27.46)"/><polygon points="128.72 36.38 125.63 36.88 124.46 23.26 126.03 21.19 128.72 36.38"/><ellipse cx="170.54" cy="44.37" rx="9.63" ry="3.25" transform="translate(6.09 142.42) rotate(-60)"/><polygon points="156.36 36.38 159.45 36.88 160.62 23.26 159.06 21.19 156.36 36.38"/><ellipse cx="196.04" cy="44.38" rx="3.25" ry="9.63" transform="translate(-36.68 76.51) rotate(-30)"/><path d="M165.61,45.61a19.88,19.88,0,0,1,5.9-10.79,22.43,22.43,0,0,1,3.08-2.5c3.5-2.38,8.37-4.29,15.13-4.86-1.79,2.31-2.83,3.56-2.83,3.56s9.28.7,12.34-2.31c-1.55,5.82-2.14,6.38-2.14,6.38s5.69-1.4,6.82-3.76A9.26,9.26,0,0,1,201,40.65l6-1.93c-1.61,5.37-4.72,6.64-4.72,6.64s1.78.5,4.48-1c-.88,4.44-4.75,7.42-4.81,8.94s-12.66-14.09-18.11-14S165.61,45.61,165.61,45.61Z" transform="translate(-40.75 -27.46)"/><path class="cls-6" d="M180.16,55.48a15.16,15.16,0,0,0-6.93,0,4.68,4.68,0,0,1,6.6-.33Z" transform="translate(-40.75 -27.46)"/><path class="cls-6" d="M194.5,55.48a15.2,15.2,0,0,0-6.94,0,4.69,4.69,0,0,1,6.61-.33Z" transform="translate(-40.75 -27.46)"/><path class="cls-18" d="M152.16,127.91h0a.31.31,0,0,1-.3-.29h0l.58-32.7a.3.3,0,0,1,.3-.28h0a.28.28,0,0,1,.3.27v0l-.57,32.72A.3.3,0,0,1,152.16,127.91Z" transform="translate(-40.75 -27.46)"/><path class="cls-18" d="M214.8,127.78a.29.29,0,0,1-.3-.28l-.58-32.73a.3.3,0,0,1,.3-.29h0a.31.31,0,0,1,.31.28l.58,32.73a.31.31,0,0,1-.3.29Z" transform="translate(-40.75 -27.46)"/><path class="cls-5" d="M275,261.26l12.67,0-.54-40.7.69-41.49s-.4-9.63-10.14-9.27-9.24,9.69-9.24,9.69l4.7,40.92Z" transform="translate(-40.75 -27.46)"/><path class="cls-14" d="M288.6,259.59s8,6.81,12.85,8.16,7.1.43,8.4,6.09c-5.77,0-38-1.25-38-1.25s-2.11-2.28,1.39-13.6c.3-1,1.67-1.56,2.31-.75,2.43,3.05,6.85,2.26,11.15,1.32A1.5,1.5,0,0,1,288.6,259.59Z" transform="translate(-40.75 -27.46)"/><path class="cls-16" d="M308.21,276.33l-33.48.09h-2.15a1.38,1.38,0,0,1-1.38-1.35l.11-4.05c18.12,2.83,35.79,2.47,38.51,2.83C310.86,274,309.67,276.33,308.21,276.33Z" transform="translate(-40.75 -27.46)"/><polygon class="cls-15" points="231.84 233.8 249.97 233.85 249.66 148.2 224 148.2 231.84 233.8"/><path class="cls-5" d="M251.46,261.26l-12.66,0,.53-40.7L238.65,179s.4-9.63,10.14-9.27,9.23,9.69,9.23,9.69l-4.69,40.92Z" transform="translate(-40.75 -27.46)"/><path class="cls-14" d="M237.85,259.59s-8,6.81-12.87,8.16-7.09.43-8.39,6.09c5.76,0,38-1.25,38-1.25s2.15-2.28-1.38-13.6c-.31-1-1.67-1.56-2.31-.75-2.43,3.05-6.85,2.26-11.15,1.32A1.52,1.52,0,0,0,237.85,259.59Z" transform="translate(-40.75 -27.46)"/><path class="cls-16" d="M218.24,276.33l33.49.09h2.14a1.38,1.38,0,0,0,1.38-1.35l-.11-4.05c-18.12,2.83-35.78,2.47-38.5,2.83C215.59,274,216.78,276.33,218.24,276.33Z" transform="translate(-40.75 -27.46)"/><polygon class="cls-15" points="213.11 233.8 194.97 233.85 195.28 148.2 220.95 148.2 213.11 233.8"/><path class="cls-3" d="M317,167.36l-9.34,3.48-10.93-30.31-10.5-30.09s-2-7.12,5.25-9.23,9.15,4.83,9.15,4.83l8.15,30.81Z" transform="translate(-40.75 -27.46)"/><ellipse class="cls-3" cx="307.38" cy="154.54" rx="6.51" ry="14.8" transform="translate(-76.08 96.79) rotate(-21.64)"/><path class="cls-19" d="M328.9,193.44A1.4,1.4,0,0,1,327,193s-4.23-7.61-4.54-7.51S326.25,197,326.25,197a1.32,1.32,0,0,1-.79,1.61,1.36,1.36,0,0,1-1.79-.63s-4.54-10.86-5-10.73,3.93,12.87,3.93,12.87a1.33,1.33,0,0,1-.83,1.61A1.35,1.35,0,0,1,320,201s-5-12.06-5.29-12,1.8,11.31,1.8,11.31a1.38,1.38,0,0,1-1,1.48,1.33,1.33,0,0,1-1.67-.87l-3.48-12.74a2.2,2.2,0,0,1-.25-.54,53.68,53.68,0,0,0-1.52-5.48c-.26-.14-1.46,3.48-1.46,3.48l-.06.16-2.29,4.29a1.71,1.71,0,0,1-1.95.82,1.46,1.46,0,0,1-1.05-1.76s0-.08,0-.13l1.61-4.53-.06.17,1-5.32.16-.36,2.08-3.4c.07-.15.44-.68.54-.82a7.4,7.4,0,0,1,.66-.82l-10.77-19.56,19-5,2.87,21.09a2.76,2.76,0,0,1,2.14,1.87l3.28,8.32,5.14,11.06A1.31,1.31,0,0,1,328.9,193.44Z" transform="translate(-40.75 -27.46)"/><path class="cls-3" d="M212.15,153.39,224.53,149l-7-6.22,26.65-31.7s2.91-6.81-4-9.82-9.67,3.63-9.67,3.63l-26.25,36.88Z" transform="translate(-40.75 -27.46)"/><path class="cls-20" d="M279.31,95.9a82.71,82.71,0,0,1-30,0c1.29-9.44,3.88-18.77,3.88-28.33h22.25C275.43,77.13,278,86.47,279.31,95.9Z" transform="translate(-40.75 -27.46)"/><ellipse class="cls-20" cx="223.56" cy="33.93" rx="19.15" ry="22.68"/><polygon class="cls-21" points="259.08 183.9 188.28 183.9 196.05 69.98 212.5 66.97 216.01 66.32 231.36 66.32 234.87 66.97 251.3 69.98 259.08 183.9"/><path class="cls-5" d="M272.11,84.86v5.66a12.13,12.13,0,0,1-6.95,2.33h-1.71a12.05,12.05,0,0,1-6.69-2.14V84.86Z" transform="translate(-40.75 -27.46)"/><path class="cls-22" d="M236.18,127.31a57.32,57.32,0,0,1-10.06-.67c-4.36-.83-9.17-5.94-9.17-5.94s14.89-21.55,16.1-22.11a25.81,25.81,0,0,1,3.75-1.16Z" transform="translate(-40.75 -27.46)"/><path class="cls-22" d="M292.67,127.31a57.41,57.41,0,0,0,10.07-.67c4.36-.83,9.16-5.94,9.16-5.94S297,99.15,295.81,98.59a25.94,25.94,0,0,0-3.76-1.16Z" transform="translate(-40.75 -27.46)"/><polygon class="cls-3" points="232.8 66.98 223.61 78.68 214.57 66.98 214.57 51.14 232.8 51.14 232.8 66.98"/><path class="cls-23" d="M273.55,80.93v8a13,13,0,0,1-8.25,3.31h-2a12.73,12.73,0,0,1-7.94-3.07V80.93Z" transform="translate(-40.75 -27.46)"/><ellipse class="cls-3" cx="248.69" cy="67.62" rx="3.23" ry="6.34" transform="translate(-45.35 -7.41) rotate(-4.57)"/><ellipse class="cls-3" cx="280.48" cy="67.57" rx="6.32" ry="3.22" transform="translate(150.13 314.35) rotate(-85.45)"/><path class="cls-3" d="M265,89c1.93,0,7.72,0,12.7-11.9a13.94,13.94,0,0,0,1.07-4.9l.5-12.81c0-7.13-4.23-13.85-11.37-13.85h-7.27c-7.14,0-11.36,6.72-11.36,13.85l.49,12.74a14.36,14.36,0,0,0,1.2,5.2C256.31,89.39,263.1,89,265,89Z" transform="translate(-40.75 -27.46)"/><path class="cls-20" d="M260.06,58a14.5,14.5,0,0,0-7,1.73.31.31,0,0,0-.14.4h0a.3.3,0,0,0,.36.12,13.29,13.29,0,0,1,6.59-.48,1,1,0,0,0,1.11-.67.88.88,0,0,0-.67-1.06h-.09Z" transform="translate(-40.75 -27.46)"/><path class="cls-20" d="M268.62,58a14.5,14.5,0,0,1,7,1.73.3.3,0,0,1,.14.4h0a.3.3,0,0,1-.36.12,13.25,13.25,0,0,0-6.58-.48,1,1,0,0,1-1.12-.67.88.88,0,0,1,.67-1.06h.1Z" transform="translate(-40.75 -27.46)"/><path class="cls-9" d="M270.86,77.61a5.6,5.6,0,0,1-1.95,3.44,7.08,7.08,0,0,1-9.12,0,5.63,5.63,0,0,1-1.88-3.4.68.68,0,0,1,.5-.74.8.8,0,0,1,.27,0H270.1a.8.8,0,0,1,.27,0A.69.69,0,0,1,270.86,77.61Z" transform="translate(-40.75 -27.46)"/><path class="cls-10" d="M268.91,81.05a7.08,7.08,0,0,1-9.12,0,17.63,17.63,0,0,1,9.12,0Z" transform="translate(-40.75 -27.46)"/><path class="cls-7" d="M270.36,76.87c-.4,1.26-2.93,2.22-6,2.22s-5.59-1-6-2.22a.84.84,0,0,1,.27,0h11.42A.86.86,0,0,1,270.36,76.87Z" transform="translate(-40.75 -27.46)"/><path class="cls-23" d="M263.35,73.82a4.61,4.61,0,0,0,.53.15l.54.1h.08a1.68,1.68,0,0,0,1-.48,1.83,1.83,0,0,0,.53-1.6l-.08-.48-.16-.93c-.11-.62-.22-1.25-.35-1.86s-.24-1.25-.38-1.87a.19.19,0,0,0-.22-.13.18.18,0,0,0-.14.19c0,.63.12,1.26.19,1.89s.16,1.26.24,1.88l.13.94.07.46a1.09,1.09,0,0,1,0,.36,1.2,1.2,0,0,1-.35.63,1.37,1.37,0,0,1-.62.35h-.47a1.94,1.94,0,0,0-.53,0,.18.18,0,0,0-.15.2A.16.16,0,0,0,263.35,73.82Z" transform="translate(-40.75 -27.46)"/><rect class="cls-7" x="225.41" y="86.47" width="25.32" height="5.92"/><path class="cls-16" d="M287.32,116.09h-17c-.59,0-1.07-.25-1.07-.54s.48-.53,1.07-.53h17c.6,0,1.07.24,1.07.53S287.92,116.09,287.32,116.09Z" transform="translate(-40.75 -27.46)"/><path class="cls-16" d="M285.47,118.48H272.18c-.6,0-1.08-.25-1.08-.54s.48-.53,1.08-.53h13.29c.59,0,1.07.24,1.07.53S286.06,118.48,285.47,118.48Z" transform="translate(-40.75 -27.46)"/><path class="cls-24" d="M257.21,117.14V115H239.7v4.16h0v6.75a8.76,8.76,0,0,0,8.75,8.76h0a8.76,8.76,0,0,0,8.76-8.76h0Zm-8.76,16.41a7.66,7.66,0,0,1-7.65-7.65v-6.75h15.3v6.75a7.64,7.64,0,0,1-7.65,7.65Z" transform="translate(-40.75 -27.46)"/><ellipse class="cls-20" cx="256.21" cy="50.8" rx="10.35" ry="4.79" transform="translate(-1.63 168.59) rotate(-45)"/><ellipse class="cls-20" cx="271.71" cy="49.33" rx="5.57" ry="13.19" transform="translate(3.95 179.12) rotate(-45)"/><ellipse class="cls-7" cx="216.83" cy="36.44" rx="3.34" ry="2.64"/><ellipse class="cls-7" cx="230.35" cy="36.44" rx="3.34" ry="2.64"/><circle class="cls-25" cx="217.06" cy="36.23" r="1.6"/><circle cx="217.06" cy="36.23" r="0.83"/><circle class="cls-7" cx="216.61" cy="35.52" r="0.64"/><circle class="cls-25" cx="230.12" cy="36.23" r="1.6"/><circle cx="230.12" cy="36.23" r="0.83"/><circle class="cls-7" cx="229.67" cy="35.52" r="0.64"/><path class="cls-26" d="M223.89,222.27h0a2.39,2.39,0,0,0,2.39-2.39h0V80.73H221.5V219.88a2.39,2.39,0,0,0,2.39,2.39Z" transform="translate(-40.75 -27.46)"/><rect class="cls-27" x="180.75" y="48.35" width="4.77" height="8.19"/><path class="cls-28" d="M238.2,63.67V64a8.42,8.42,0,0,1-.07,1,12.9,12.9,0,0,1-.38,2.15c-.1.36-.21.72-.33,1.07a14.48,14.48,0,0,1-27,.05,10.22,10.22,0,0,1-.34-1.07,13.11,13.11,0,0,1-.39-2.15c0-.24,0-.49-.06-.73v-.64a12.91,12.91,0,0,1,.11-1.64,7.52,7.52,0,0,1,.15-1A14.4,14.4,0,0,1,238,61c.06.32.11.63.15,1s0,.48.07.72S238.2,63.35,238.2,63.67Z" transform="translate(-40.75 -27.46)"/><path class="cls-28" d="M243.23,35.4c-1.47,8.53-4.34,17-5,25.54l-.07,1,0,.75c0,.44,0,.87,0,1.3v.3H209.57V64c0-.69,0-1.37-.06-2,0-.34,0-.68-.07-1-.61-8.58-3.39-17-4.87-25.56l.93-.12,2.19,7.51-.54-7.73,5.78-.61,2.74,12-.83-12.21,8.29-.29.46,8.93.69-8.93,13.82.7-1.2,14,2.57-13.78S242,35.22,243.23,35.4Z" transform="translate(-40.75 -27.46)"/><path class="cls-29" d="M237.74,67.15q-.15.55-.33,1.08a64.27,64.27,0,0,1-27,0c-.13-.36-.24-.72-.34-1.08a55.38,55.38,0,0,0,13.77,1.54A55.94,55.94,0,0,0,237.74,67.15Z" transform="translate(-40.75 -27.46)"/><path class="cls-29" d="M238.21,64a8.43,8.43,0,0,1-.06,1,55.47,55.47,0,0,1-14.31,1.66A54.53,54.53,0,0,1,209.67,65c0-.25,0-.49,0-.74h-.05V64h0l1,.27a57.18,57.18,0,0,0,13.24,1.4,57.29,57.29,0,0,0,13.24-1.4l1.07-.3Z" transform="translate(-40.75 -27.46)"/><path class="cls-29" d="M238.31,60.94c0,.34-.05.68-.07,1l-.1,0a55.54,55.54,0,0,1-14.28,1.61A54.36,54.36,0,0,1,209.73,62l-.2-.06c0-.33,0-.67-.06-1l.41.11a54.49,54.49,0,0,0,14,1.61A54.27,54.27,0,0,0,238,61Z" transform="translate(-40.75 -27.46)"/><path class="cls-23" d="M260.72,62.93a11.37,11.37,0,0,0-6.23,0,3.11,3.11,0,0,1,3.12-1.68A3.22,3.22,0,0,1,260.72,62.93Z" transform="translate(-40.75 -27.46)"/><path class="cls-23" d="M274.25,62.93a11.62,11.62,0,0,0-6.3,0,3.14,3.14,0,0,1,3.15-1.68A3.24,3.24,0,0,1,274.25,62.93Z" transform="translate(-40.75 -27.46)"/><path class="cls-19" d="M227.55,149c0,6.24-3.85,9-10.09,9s-16.36-4.32-16.36-10.57,2.82-13.95,9.07-13.95S227.55,142.75,227.55,149Z" transform="translate(-40.75 -27.46)"/><path class="cls-19" d="M230.21,154.66a2.43,2.43,0,0,1-1.67-2.15l-.16-10.14a2.11,2.11,0,0,1,2.15-2.06h.22a2.52,2.52,0,0,1,2.43,2.32l.15,10.14a2.09,2.09,0,0,1-2.14,2.06H231A2.8,2.8,0,0,1,230.21,154.66Z" transform="translate(-40.75 -27.46)"/><path class="cls-30" d="M231.28,155.17H231a3.06,3.06,0,0,1-.86-.18h0a2.77,2.77,0,0,1-1.9-2.48L228,142.36a2.24,2.24,0,0,1,.7-1.69,2.74,2.74,0,0,1,2-.71,2.87,2.87,0,0,1,2.75,2.69l.16,10.14a2.24,2.24,0,0,1-.7,1.68A2.7,2.7,0,0,1,231.28,155.17Zm-.95-.84a2.09,2.09,0,0,0,.66.13,1.93,1.93,0,0,0,1.5-.53,1.58,1.58,0,0,0,.49-1.17l-.15-10.15a2.15,2.15,0,0,0-2.11-2,2,2,0,0,0-1.49.54,1.57,1.57,0,0,0-.5,1.17l.16,10.15a2.08,2.08,0,0,0,1.44,1.83Z" transform="translate(-40.75 -27.46)"/><path class="cls-19" d="M218.55,136.58s8.58,1.7,9.29,1.82,4,2.1,1.07,6.5c1.07,2.27.71,4.67-.87,5.31,1.07,1.5,1,4.59-.47,5.36.6,1.69-.15,4-.91,4.45s-4.34.8-4.77.86a7,7,0,0,1-6,0c-1.64-.82-1.83-4.62-1.86-5.08s-1.25-2.86-1.2-3.63.44-2.46.43-3.13-1.07-2.05-.88-3.56a5.67,5.67,0,0,1,1.61-3.22c-.35-2.56-.44-3.16-.13-3.69A4,4,0,0,1,218.55,136.58Z" transform="translate(-40.75 -27.46)"/><path class="cls-30" d="M219.26,161.94a8.07,8.07,0,0,1-3.56-.67h0c-1.53-.78-1.94-3.67-2-5.33v-.05a7.79,7.79,0,0,0-.42-1.14,7.44,7.44,0,0,1-.78-2.54,9.67,9.67,0,0,1,.21-1.43,13.23,13.23,0,0,0,.22-1.66,3.1,3.1,0,0,0-.29-.84,5.39,5.39,0,0,1-.59-2.79,5.9,5.9,0,0,1,1.57-3.29c-.35-2.53-.43-3.13-.06-3.75v0a4.39,4.39,0,0,1,5.11-2.15h0c.08,0,8.58,1.7,9.28,1.82a3.61,3.61,0,0,1,2.25,2c.42,1,.61,2.59-.84,4.86a5.42,5.42,0,0,1,.3,4,2.67,2.67,0,0,1-1.07,1.36A5.48,5.48,0,0,1,229,154a3,3,0,0,1-1,1.74c.47,1.75-.23,4.08-1.16,4.6a19.88,19.88,0,0,1-4.58.87l-.31,0a1.48,1.48,0,0,0-.27.1A6.69,6.69,0,0,1,219.26,161.94ZM216,160.62a6.37,6.37,0,0,0,5.39.08,2.64,2.64,0,0,1,.45-.15l.33,0a18.46,18.46,0,0,0,4.32-.78c.58-.33,1.32-2.44.76-4a.34.34,0,0,1,.16-.42,2.05,2.05,0,0,0,.91-1.44,4.59,4.59,0,0,0-.56-3.43.34.34,0,0,1,.06-.48l.09-.05a1.87,1.87,0,0,0,1.07-1.15,4.77,4.77,0,0,0-.36-3.68.34.34,0,0,1,0-.34c1.11-1.66,1.42-3.16.9-4.35a3,3,0,0,0-1.73-1.61c-.71-.12-9-1.75-9.3-1.82a3.71,3.71,0,0,0-4.38,1.82v0c-.23.4-.17.92.15,3.31v.15a.31.31,0,0,1-.08.28,5.39,5.39,0,0,0-1.5,3,4.72,4.72,0,0,0,.54,2.42,3.6,3.6,0,0,1,.34,1.1,12,12,0,0,1-.23,1.8c-.09.51-.18,1-.2,1.35a9.18,9.18,0,0,0,.73,2.24,5.84,5.84,0,0,1,.47,1.35v.06c.17,2.55.78,4.28,1.68,4.73Z" transform="translate(-40.75 -27.46)"/><path class="cls-30" d="M228.88,145.11,218.78,143a.43.43,0,0,1-.33-.5.42.42,0,0,1,.5-.32h0l10,2.54a.2.2,0,0,1,.16.25.2.2,0,0,1-.25.16h0Z" transform="translate(-40.75 -27.46)"/><path class="cls-30" d="M228,150.41l-10.68-1.25a.41.41,0,0,1-.37-.46.43.43,0,0,1,.47-.37h0L228,150a.21.21,0,0,1,.18.24h0A.2.2,0,0,1,228,150.41Z" transform="translate(-40.75 -27.46)"/><path class="cls-30" d="M227.63,155.72l-10.31.28a.41.41,0,0,1-.41-.42.41.41,0,0,1,.41-.42h0l10.31.14a.21.21,0,0,1,.21.21A.21.21,0,0,1,227.63,155.72Z" transform="translate(-40.75 -27.46)"/><path class="cls-5" d="M235.1,298.91l13.54,0-.58-43.51L248.8,211s-.44-10.29-10.84-9.91-9.89,10.37-9.89,10.37l5,43.75Z" transform="translate(-40.75 -27.46)"/><path d="M249.65,297.13s8.58,7.28,13.74,8.72,7.58.46,9,6.5c-6.17,0-40.6-1.34-40.6-1.34s-2.27-2.43,1.48-14.53c.32-1.08,1.79-1.66,2.47-.8,2.59,3.26,7.32,2.42,11.92,1.41A1.6,1.6,0,0,1,249.65,297.13Z" transform="translate(-40.75 -27.46)"/><path class="cls-16" d="M270.61,315l-35.79.09h-2.27a1.45,1.45,0,0,1-1.47-1.43h0l.11-4.33c19.37,3,38.26,2.65,41.17,3C273.45,312.49,272.18,315,270.61,315Z" transform="translate(-40.75 -27.46)"/><polygon class="cls-4" points="191.78 271.44 211.17 271.5 210.84 179.93 183.4 179.93 191.78 271.44"/><path class="cls-5" d="M209.94,298.91l-13.54,0,.58-43.51L196.25,211s.43-10.29,10.84-9.91S217,211.46,217,211.46l-5,43.75Z" transform="translate(-40.75 -27.46)"/><path d="M195.39,297.13s-8.58,7.28-13.74,8.72-7.58.46-9,6.5c6.17,0,40.6-1.34,40.6-1.34s2.27-2.43-1.48-14.53c-.32-1.08-1.78-1.66-2.47-.8-2.59,3.26-7.32,2.42-11.92,1.41A1.6,1.6,0,0,0,195.39,297.13Z" transform="translate(-40.75 -27.46)"/><path class="cls-16" d="M174.43,315l35.8.09h2.26a1.45,1.45,0,0,0,1.47-1.43h0l-.11-4.33c-19.38,3-38.26,2.65-41.17,3C171.59,312.49,172.87,315,174.43,315Z" transform="translate(-40.75 -27.46)"/><polygon class="cls-4" points="171.76 271.44 152.37 271.5 152.7 179.93 180.13 179.93 171.76 271.44"/><polygon class="cls-4" points="211.32 195.26 151.08 195.26 152.35 100.21 169.52 97.06 173.19 96.39 189.22 96.39 192.89 97.06 210.04 100.21 211.32 195.26"/><path class="cls-18" d="M193.05,222.52a.33.33,0,0,1,.29-.34l59.23.17a.36.36,0,0,1,.28.43.37.37,0,0,1-.28.28l-59.23-.18a.33.33,0,0,1-.28-.36Z" transform="translate(-40.75 -27.46)"/><path class="cls-31" d="M278.16,203.05l-10,3.71-11.68-32.4-11.22-32.19s-2.15-7.61,5.61-9.87,9.78,5.15,9.78,5.15l8.71,33Z" transform="translate(-40.75 -27.46)"/><path class="cls-31" d="M289,227.34a1.26,1.26,0,0,1-1.71-.36s-4.05-6.89-4.33-6.79,3.69,10.45,3.69,10.45a1.28,1.28,0,0,1-2.35,1s-4.39-9.85-4.77-9.72,3.88,11.71,3.88,11.71a1.22,1.22,0,0,1-.73,1.47,1.24,1.24,0,0,1-1.64-.58s-4.83-10.95-5.1-10.86,1.88,10.33,1.88,10.33a1.24,1.24,0,0,1-.9,1.38,1.21,1.21,0,0,1-1.54-.75h0L271.87,223a2.55,2.55,0,0,1-.24-.5,47.32,47.32,0,0,0-1.51-5c-.25-.13-1.26,3.22-1.26,3.22l-.06.15-2,4a1.56,1.56,0,0,1-1.78.79,1.32,1.32,0,0,1-1-1.58l0-.13,1.39-4.18-.05.15.79-4.89.14-.34,1.83-3.16c.06-.14.39-.64.47-.76a7.25,7.25,0,0,1,.6-.77l-1.52-4.5,10.1-3.39,1.52,4.51a2.56,2.56,0,0,1,2,1.67l3.19,7.53,5,10A1.19,1.19,0,0,1,289,227.34Z" transform="translate(-40.75 -27.46)"/><ellipse class="cls-31" cx="267.88" cy="189.34" rx="6.96" ry="15.81" transform="matrix(0.93, -0.37, 0.37, 0.93, -91.7, 84.67)"/><path class="cls-31" d="M165.83,203.05l10,3.71,11.68-32.4,11.23-32.19s2.15-7.61-5.61-9.87-9.79,5.15-9.79,5.15l-8.71,33Z" transform="translate(-40.75 -27.46)"/><path class="cls-31" d="M155,227.34a1.27,1.27,0,0,0,1.72-.36s4-6.89,4.32-6.79-3.68,10.45-3.68,10.45a1.27,1.27,0,0,0,2.34,1s4.39-9.85,4.77-9.72-3.88,11.71-3.88,11.71a1.28,1.28,0,0,0,2.37.91s4.83-11,5.11-10.86S166.2,234,166.2,234a1.26,1.26,0,0,0,.9,1.38,1.21,1.21,0,0,0,1.55-.76l3.47-11.6a2.38,2.38,0,0,0,.24-.51,47.17,47.17,0,0,1,1.51-5c.24-.13,1.27,3.22,1.27,3.22l.05.15,2,4a1.57,1.57,0,0,0,1.77.79,1.34,1.34,0,0,0,1-1.6l0-.11-1.39-4.18.05.14L177.8,215l-.14-.34-1.84-3.18c-.14-.26-.3-.51-.46-.75a7.47,7.47,0,0,0-.59-.77l1.51-4.5-10.1-3.4-1.52,4.51a2.56,2.56,0,0,0-2,1.67l-3.18,7.53-5,10A1.2,1.2,0,0,0,155,227.34Z" transform="translate(-40.75 -27.46)"/><ellipse class="cls-31" cx="176.13" cy="189.36" rx="15.81" ry="6.96" transform="translate(-105.59 255.79) rotate(-68.36)"/><path class="cls-31" d="M231.47,120.37v1.24c-2.39-1.8-5.59-2.69-9.51-2.69a15.61,15.61,0,0,0-9.51,2.69v-1.24a20,20,0,0,1,19,0Z" transform="translate(-40.75 -27.46)"/><path d="M231.62,111.1a1,1,0,0,0,.29.25,2.14,2.14,0,0,0,.32.2,6.37,6.37,0,0,0,.63.35l1.24.63c.81.43,1.61.85,2.35,1.3a32,32,0,0,1,4.17,2.94l.48.4.23.2.12.11.07,0a5.37,5.37,0,0,0,.53.44,7.9,7.9,0,0,0,1.22.71,9.47,9.47,0,0,0,1.46.54,14.09,14.09,0,0,0,1.71.38,33.86,33.86,0,0,0,4,.42c1.44.08,3,.12,4.54.13h10.36a8.63,8.63,0,0,1-.76,1.28,12.87,12.87,0,0,1-.92,1.15,17.11,17.11,0,0,1-2.08,2,22.33,22.33,0,0,1-4.83,3,23.11,23.11,0,0,1-5.55,1.75,20.4,20.4,0,0,1-6.19.17,17.38,17.38,0,0,1-3.27-.73c-.28-.09-.54-.18-.82-.29s-.54-.22-.82-.33a16.23,16.23,0,0,1-1.61-.82,15,15,0,0,1-2.94-2.26c-.21-.22-.43-.44-.64-.68l-.3-.36-.29-.36-.14-.19-.09-.14-.17-.28-.33-.59a25.39,25.39,0,0,1-1.18-2.47,21.13,21.13,0,0,1-.88-2.69c0-.23-.11-.47-.16-.71s-.1-.48-.14-.73c-.08-.51-.13-1-.16-1.53a10.8,10.8,0,0,1,0-1.61,8.17,8.17,0,0,1,.14-.84c0-.14.09-.28.14-.42a1.86,1.86,0,0,1,.1-.2A.46.46,0,0,1,231.62,111.1Z" transform="translate(-40.75 -27.46)"/><path class="cls-5" d="M230,114.53v5.9a12.71,12.71,0,0,1-7.25,2.44h-1.79a12.62,12.62,0,0,1-7-2.25v-6.09Z" transform="translate(-40.75 -27.46)"/><polygon class="cls-31" points="197.79 97.96 181.07 115.59 164.62 97.96 172.94 96.44 190.02 96.54 197.79 97.96"/><path class="cls-32" d="M208.11,163.36v7.93a6.2,6.2,0,0,1-12.4,0v-7.93h12.4m.81-.81h-14v3.34h0v5.4a7,7,0,0,0,7,7h0a7,7,0,0,0,7-7h0v-7h0v-1.73Z" transform="translate(-40.75 -27.46)"/><path class="cls-33" d="M184.14,218.15l-.82,9.71a15,15,0,0,0,1.61,8.63l1.69-22.7-2.1-.19Z" transform="translate(-40.75 -27.46)"/><path class="cls-33" d="M260.8,227.86l-.81-9.71-.38-4.55-2.23.2,1.69,22.88A14.89,14.89,0,0,0,260.8,227.86Z" transform="translate(-40.75 -27.46)"/><path class="cls-22" d="M192.65,128a.29.29,0,0,1,.29-.28h0a.14.14,0,0,1,.09,0v-.06a28.27,28.27,0,0,0-4.22,1.32c-1.37.64-18.34,25.21-18.34,25.21s5.48,5.83,10.44,6.77a58.18,58.18,0,0,0,9.6.77l2-27.11Z" transform="translate(-40.75 -27.46)"/><path class="cls-22" d="M255,128.85a26.24,26.24,0,0,0-3.89-1.23.31.31,0,0,1,.12.23l.08,4.44,2.18,29.28a58.18,58.18,0,0,0,9.41-.77c5-.94,10.43-6.77,10.43-6.77S256.34,129.51,255,128.85Z" transform="translate(-40.75 -27.46)"/><path class="cls-22" d="M251.41,161.57v-.12a.29.29,0,0,1-.23-.27l-.54-33.32a.34.34,0,0,1,.07-.19v-.14l.18,0H251v0l-17.24-3.13-.4-.13,2.81,133h24.47l-1.39-18.69a5.71,5.71,0,0,1-4,2.51h0c-4.19.35-8.05-5-8.65-12l-1.07-12.61h0l-.26-3.1,12.07-1-3.78-50.77C252.2,161.6,251.41,161.57,251.41,161.57Z" transform="translate(-40.75 -27.46)"/><path class="cls-22" d="M246.18,214.74l.14,1.65L247.39,229c.54,6.15,4,10.9,7.65,10.58a5.45,5.45,0,0,0,4-2.89l-1.72-22.89Z" transform="translate(-40.75 -27.46)"/><path class="cls-22" d="M251.74,161.18a.28.28,0,0,1-.28.29h-.06v.1h2.06l-2.18-29.29Z" transform="translate(-40.75 -27.46)"/><path class="cls-22" d="M250.87,127.58l-.18,0v.14A.32.32,0,0,1,250.87,127.58Z" transform="translate(-40.75 -27.46)"/><path class="cls-22" d="M189.08,239.58c3.7.32,7.13-4.43,7.65-10.58l1.07-12.61.14-1.65-11.31-1-1.69,22.7A5.48,5.48,0,0,0,189.08,239.58Z" transform="translate(-40.75 -27.46)"/><path class="cls-22" d="M193.07,127.54v.19a.28.28,0,0,1,.17.27l-.54,33.3a.28.28,0,0,1-.28.29h0v.12h-1.87l-3.78,50.61,12.2,1-.27,3.1-1.07,12.61c-.59,7-4.46,12.34-8.65,12h0a5.85,5.85,0,0,1-4.17-2.68L183.4,257.2h24.48l2.81-132.95-.38.12Z" transform="translate(-40.75 -27.46)"/><path class="cls-22" d="M192.4,161.71v-.14h0a.29.29,0,0,1-.29-.28h0l.43-26.69-2,27.11C191.66,161.72,192.4,161.71,192.4,161.71Z" transform="translate(-40.75 -27.46)"/><path class="cls-32" d="M193.05,127.73h0v0Z" transform="translate(-40.75 -27.46)"/><path class="cls-32" d="M192.94,127.7a.29.29,0,0,0-.29.28l-.11,6.62.49-6.5v-.38h-.09Z" transform="translate(-40.75 -27.46)"/><path class="cls-32" d="M192.4,161.57h0a.28.28,0,0,0,.28-.28l.54-33.31a.3.3,0,0,0-.17-.27l0,.37Z" transform="translate(-40.75 -27.46)"/><path class="cls-32" d="M192.54,134.6l-.43,26.7a.28.28,0,0,0,.28.29h0L193,128.1Z" transform="translate(-40.75 -27.46)"/><path class="cls-32" d="M251.08,127.64a.23.23,0,0,0-.16-.06h0Z" transform="translate(-40.75 -27.46)"/><path class="cls-32" d="M251.28,132.3l-.08-4.44a.27.27,0,0,0-.12-.22l-.16,0Z" transform="translate(-40.75 -27.46)"/><path class="cls-32" d="M250.87,127.58h0Z" transform="translate(-40.75 -27.46)"/><path class="cls-32" d="M250.62,127.87l.54,33.32a.29.29,0,0,0,.23.27l-.7-33.8A.33.33,0,0,0,250.62,127.87Z" transform="translate(-40.75 -27.46)"/><path class="cls-32" d="M250.87,127.58a.27.27,0,0,0-.17.1l.7,33.8h.06a.28.28,0,0,0,.28-.29h0l-.46-28.88-.36-4.7Z" transform="translate(-40.75 -27.46)"/><path class="cls-32" d="M189,241h0c4.18.35,8-5,8.65-12l1.07-12.61.26-3.1-12.2-1-.1,1.46,11.31,1-.14,1.65L196.73,229c-.53,6.15-3.94,10.9-7.64,10.58a5.51,5.51,0,0,1-4.15-3.09l-.15,1.88A5.83,5.83,0,0,0,189,241Z" transform="translate(-40.75 -27.46)"/><path class="cls-32" d="M245.44,216.46h0l1.08,12.61c.59,7,4.46,12.34,8.64,12h0a5.79,5.79,0,0,0,4.06-2.51l-.14-1.84a5.45,5.45,0,0,1-4,2.89c-3.69.32-7.13-4.43-7.65-10.58l-1.07-12.61-.14-1.65,11.18-.94-.11-1.46-12.07,1Z" transform="translate(-40.75 -27.46)"/><path class="cls-11" d="M248.27,147.3a1.57,1.57,0,0,0-1.57-1.57H228.28a1.56,1.56,0,0,0-1.56,1.56h0v10.88h21.55Z" transform="translate(-40.75 -27.46)"/><path class="cls-12" d="M228.28,160.73H246.7a1.57,1.57,0,0,0,1.57-1.57v-1.68H226.73v1.68A1.57,1.57,0,0,0,228.28,160.73Z" transform="translate(-40.75 -27.46)"/><path class="cls-13" d="M237.49,147.5h0a1.62,1.62,0,0,1-1.61-1.61h0v-2.12h3.19v2.12A1.62,1.62,0,0,1,237.49,147.5Z" transform="translate(-40.75 -27.46)"/><rect class="cls-14" x="195.79" y="116.95" width="1.9" height="0.3"/><rect class="cls-14" x="195.79" y="117.66" width="1.9" height="0.3"/><rect class="cls-14" x="195.79" y="118.37" width="1.9" height="0.3"/><path class="cls-15" d="M235.36,155.34h-6.22v-7.09h6.22Zm-5.9-.31h5.59v-6.44h-5.6Z" transform="translate(-40.75 -27.46)"/><path class="cls-16" d="M232.82,151.3a1.23,1.23,0,1,0-1.14,0,2.29,2.29,0,0,0-1.73,2.23c0,1.26,4.59,1.26,4.59,0A2.29,2.29,0,0,0,232.82,151.3Z" transform="translate(-40.75 -27.46)"/><path class="cls-17" d="M246.39,150h-9.15a.58.58,0,0,1,0-1.16h9.15a.58.58,0,0,1,0,1.16Z" transform="translate(-40.75 -27.46)"/><path class="cls-17" d="M244.4,153.06h-7.16a.58.58,0,0,1,0-1.15h7.16a.57.57,0,0,1,.63.52.58.58,0,0,1-.52.63Z" transform="translate(-40.75 -27.46)"/><circle class="cls-27" cx="196.74" cy="111.81" r="3.92"/><circle class="cls-34" cx="196.74" cy="111.81" r="2.45"/><path class="cls-27" d="M205.93,133a9.79,9.79,0,0,1,7.66,2.93c1.93,2,3.22,5.08,3.78,9.07a42.15,42.15,0,0,1,.23,8.91c-.14,1.91-2.75,2.88-3,3a.54.54,0,0,1-.7-.29s0,0,0-.06a.58.58,0,0,1,.35-.72c.57-.2,2.22-1,2.29-2a40.44,40.44,0,0,0-.22-8.66c-.54-3.76-1.72-6.6-3.48-8.45a9.52,9.52,0,0,0-13.28.21c-3.86,4.38-3.65,12.76-3.18,17.36.17,1.58,2.34,1.86,2.37,1.87a.57.57,0,0,1,.49.62.54.54,0,0,1-.57.5h-.06a5.41,5.41,0,0,1-1.53-.46,3,3,0,0,1-1.82-2.41c-.49-4.79-.69-13.53,3.45-18.24A9.69,9.69,0,0,1,205.93,133Z" transform="translate(-40.75 -27.46)"/><path class="cls-35" d="M213.36,154.8c.86-.71,3.22,2.18,2.35,2.88a2,2,0,0,1-1.93.38,1.73,1.73,0,0,1-.81-.54,1.77,1.77,0,0,1-.37-.89A2,2,0,0,1,213.36,154.8Z" transform="translate(-40.75 -27.46)"/><path class="cls-36" d="M212.83,156.53a1.76,1.76,0,0,1,1.08,1.31.14.14,0,0,1-.15.13h0a1.76,1.76,0,0,1-1-1.26.14.14,0,0,1,.12-.16Z" transform="translate(-40.75 -27.46)"/><path class="cls-35" d="M200.15,155.1c-.9-.66-3.11,2.34-2.21,3a2.06,2.06,0,0,0,1.95.29,1.8,1.8,0,0,0,.77-.59,1.91,1.91,0,0,0,.34-.92A2,2,0,0,0,200.15,155.1Z" transform="translate(-40.75 -27.46)"/><path class="cls-36" d="M200.76,156.82a1.69,1.69,0,0,0-1,1.36.15.15,0,0,0,.15.12l0,0a1.75,1.75,0,0,0,.65-.53,2,2,0,0,0,.32-.78.14.14,0,0,0-.12-.15Z" transform="translate(-40.75 -27.46)"/><path class="cls-34" d="M237.87,136.55a.37.37,0,0,1-.13.28.66.66,0,0,1-.44.17h0a.6.6,0,0,1-.34-.11.42.42,0,0,1-.2-.38v-1.07c-.11-2.74-.74-10-4.61-13.32-.2-.18-.41-.34-.62-.5-2.4-1.8-5.6-2.69-9.52-2.69a15.63,15.63,0,0,0-9.51,2.69,8,8,0,0,0-.64.51c-4.36,3.75-4.46,9.72-4.44,10.89v.19a.54.54,0,0,1-.54.5.53.53,0,0,1-.61-.44V133c0-1.42.13-7.51,4.76-11.49a13.19,13.19,0,0,1,1.48-1.1,20,20,0,0,1,19,0,12,12,0,0,1,1.47,1.07c4.15,3.6,4.83,11,4.93,13.9C237.89,136.06,237.88,136.5,237.87,136.55Z" transform="translate(-40.75 -27.46)"/><polygon class="cls-31" points="190.72 97.08 181.13 109.29 171.69 97.08 171.69 80.53 190.72 80.53 190.72 97.08"/><path class="cls-3" d="M231.47,110.43v8.39a13.51,13.51,0,0,1-8.61,3.46h-2.14a13.29,13.29,0,0,1-8.3-3.22v-8.63Z" transform="translate(-40.75 -27.46)"/><ellipse cx="180.89" cy="65.94" rx="19.14" ry="22.67"/><ellipse class="cls-31" cx="205.59" cy="99.6" rx="3.22" ry="6.31" transform="matrix(1, -0.08, 0.08, 1, -48.01, -10.83)"/><ellipse class="cls-31" cx="237.81" cy="99.58" rx="6.31" ry="3.22" transform="translate(78.93 301.28) rotate(-85.45)"/><path class="cls-31" d="M222.37,121c1.94,0,7.72,0,12.69-11.88a14.06,14.06,0,0,0,1.08-4.91l.49-12.8c0-7.13-4.23-13.84-11.36-13.84H218c-7.13,0-11.36,6.71-11.36,13.84l.49,12.73a14.31,14.31,0,0,0,1.2,5.2C213.65,121.39,220.44,121,222.37,121Z" transform="translate(-40.75 -27.46)"/><ellipse class="cls-7" cx="174.17" cy="68.24" rx="3.34" ry="2.42"/><circle class="cls-37" cx="174.4" cy="68.24" r="1.6"/><circle cx="174.4" cy="68.24" r="0.83"/><circle class="cls-7" cx="173.95" cy="67.54" r="0.64"/><path d="M217.39,90a14.49,14.49,0,0,0-7,1.73.29.29,0,0,0-.14.38v0a.3.3,0,0,0,.36.12,13.25,13.25,0,0,1,6.58-.48,1,1,0,0,0,1.11-.67.88.88,0,0,0-.67-1.06h-.09A.58.58,0,0,0,217.39,90Z" transform="translate(-40.75 -27.46)"/><ellipse class="cls-7" cx="187.67" cy="68.24" rx="3.34" ry="2.42"/><circle class="cls-37" cx="187.45" cy="68.24" r="1.6"/><circle cx="187.45" cy="68.24" r="0.83"/><circle class="cls-7" cx="187" cy="67.54" r="0.64"/><path d="M226,90a14.49,14.49,0,0,1,7,1.73.28.28,0,0,1,.14.38v0a.3.3,0,0,1-.36.12,13.24,13.24,0,0,0-6.58-.48,1,1,0,0,1-1.11-.67.88.88,0,0,1,.67-1.06h.09A.63.63,0,0,1,226,90Z" transform="translate(-40.75 -27.46)"/><path class="cls-9" d="M228.19,109.62a5.66,5.66,0,0,1-1.94,3.44,7.09,7.09,0,0,1-9.12,0,5.64,5.64,0,0,1-1.89-3.39.7.7,0,0,1,.51-.74.81.81,0,0,1,.27,0h11.41a.86.86,0,0,1,.27,0A.7.7,0,0,1,228.19,109.62Z" transform="translate(-40.75 -27.46)"/><path class="cls-10" d="M226.25,113.06a7.09,7.09,0,0,1-9.12,0,16.18,16.18,0,0,1,4.49-.57A15.4,15.4,0,0,1,226.25,113.06Z" transform="translate(-40.75 -27.46)"/><path class="cls-7" d="M227.69,108.88c-.41,1.25-2.93,2.22-6,2.22s-5.58-1-6-2.22a.86.86,0,0,1,.27,0h11.41A.87.87,0,0,1,227.69,108.88Z" transform="translate(-40.75 -27.46)"/><path class="cls-3" d="M220.68,105.83a3.58,3.58,0,0,0,.54.14l.53.11h.08a1.65,1.65,0,0,0,1-.48,1.8,1.8,0,0,0,.54-1.6l-.08-.48-.17-.93c-.11-.62-.22-1.24-.34-1.86s-.25-1.24-.4-1.86a.17.17,0,0,0-.21-.13h0a.16.16,0,0,0-.14.18c.05.64.12,1.26.19,1.89l.24,1.89.13.93.07.46a1.15,1.15,0,0,1,0,.37,1.27,1.27,0,0,1-.34.62,1.57,1.57,0,0,1-.63.35h-.46a2,2,0,0,0-.54,0,.18.18,0,0,0-.15.2.17.17,0,0,0,.12.14Z" transform="translate(-40.75 -27.46)"/><ellipse cx="213.55" cy="82.83" rx="10.34" ry="4.79" transform="translate(-36.77 147.8) rotate(-45)"/><ellipse cx="229.04" cy="81.35" rx="5.57" ry="13.18" transform="translate(-31.2 158.33) rotate(-45)"/><path class="cls-3" d="M218.15,95a12.13,12.13,0,0,0-6.44,0,3.25,3.25,0,0,1,3.22-1.67A3.35,3.35,0,0,1,218.15,95Z" transform="translate(-40.75 -27.46)"/><path class="cls-3" d="M231.65,95a12.13,12.13,0,0,0-6.44,0,3.25,3.25,0,0,1,3.22-1.67A3.36,3.36,0,0,1,231.65,95Z" transform="translate(-40.75 -27.46)"/></g></g></svg>