<svg id="Laag_1" data-name="Laag 1" xmlns="http://www.w3.org/2000/svg" viewBox="0 0 359.3 366.03"><defs><style>.cls-1{fill:#7c7c7c;}.cls-14,.cls-2{fill:#999;}.cls-3{fill:#b3b3b3;}.cls-4{fill:#80b6c2;}.cls-5{fill:#e6bea6;}.cls-6{fill:#f2d0b9;}.cls-7{fill:#ae907f;}.cls-12,.cls-8{fill:#fff;}.cls-9{fill:#814b1b;}.cls-10{fill:#d1575e;}.cls-11{fill:#ff95bf;}.cls-12,.cls-13,.cls-14{fill-rule:evenodd;}.cls-13,.cls-17{fill:#e6e6e6;}.cls-15{fill:#f1f1f1;}.cls-16{fill:#b7ccd4;}.cls-18{fill:#376b75;}.cls-19{fill:#40979f;}.cls-20{fill:#996233;}.cls-21{fill:#00ace4;}.cls-22{fill:#e6eff2;}.cls-23{fill:#ad8f7d;}.cls-24{fill:#0080ac;}.cls-25{fill:#789470;}.cls-26{fill:#ab622c;}.cls-27{fill:#ccc;}.cls-28{fill:#ffb500;}.cls-29{fill:#cb9200;}.cls-30{fill:#004b50;}.cls-31{fill:#f3e2d6;}.cls-32{fill:#c1d5dd;}.cls-33{fill:none;}.cls-34{fill:gray;}.cls-35{fill:#4c4c4c;}.cls-36{fill:#303030;}.cls-37{fill:#6bc62a;}</style></defs><title>personeel</title><rect class="cls-1" y="287.12" width="12.55" height="26"/><rect class="cls-1" x="346.75" y="287.12" width="12.55" height="26"/><ellipse class="cls-1" cx="179.65" cy="313.12" rx="179.65" ry="52.92"/><ellipse class="cls-2" cx="179.65" cy="287.12" rx="179.65" ry="52.92"/><g id="Laag_2" data-name="Laag 2"><g id="Laag_3" data-name="Laag 3"><path d="M162.48,277.26s-9.68,8.22-15.51,9.85-8.56.52-10.13,7.33c7,0,45.83-1.5,45.83-1.5s2.57-2.75-1.67-16.42c-.36-1.16-2-1.87-2.78-.89-2.92,3.68-8.27,2.72-13.46,1.59A1.81,1.81,0,0,0,162.48,277.26Z" transform="translate(-40.75 -2.84)"/><path class="cls-3" d="M138.81,297.44l40.41.11h2.56a1.64,1.64,0,0,0,1.66-1.63h0l-.12-4.88c-21.87,3.41-43.19,3-46.48,3.41C135.61,294.61,137.05,297.44,138.81,297.44Z" transform="translate(-40.75 -2.84)"/><polygon class="cls-4" points="141.06 276.42 119.16 276.49 119.54 173.1 150.51 173.1 141.06 276.42"/><path class="cls-5" d="M120,154.88l10.88,4,12.68-35.17,12.18-34.93s2.33-8.26-6.09-10.71-10.62,5.6-10.62,5.6l-9.48,35.76Z" transform="translate(-40.75 -2.84)"/><path class="cls-5" d="M108.31,181.25a1.39,1.39,0,0,0,1.87-.4s4.39-7.47,4.69-7.36-4,11.34-4,11.34a1.32,1.32,0,0,0,.75,1.61,1.36,1.36,0,0,0,1.8-.58s4.76-10.69,5.17-10.55S114.38,188,114.38,188a1.32,1.32,0,0,0,.82,1.62A1.34,1.34,0,0,0,117,189s5.24-11.88,5.54-11.78-2,11.21-2,11.21a1.38,1.38,0,0,0,1,1.5,1.33,1.33,0,0,0,1.68-.83l3.75-12.59a3.94,3.94,0,0,0,.26-.55,52.72,52.72,0,0,1,1.63-5.41c.26-.14,1.38,3.49,1.38,3.49l.06.16,2.17,4.31a1.71,1.71,0,0,0,1.93.86,1.43,1.43,0,0,0,1.09-1.71l0-.13L133.83,173l.06.16-.87-5.3-.15-.37-2-3.44c-.06-.14-.41-.68-.5-.82a9.65,9.65,0,0,0-.62-.81l1.64-4.89-11-3.7-1.65,4.9a2.77,2.77,0,0,0-2.18,1.81l-3.47,8.2-5.38,10.88A1.29,1.29,0,0,0,108.31,181.25Z" transform="translate(-40.75 -2.84)"/><ellipse class="cls-5" cx="131.21" cy="140.02" rx="17.16" ry="7.55" transform="translate(-88.08 207.51) rotate(-68.36)"/><path class="cls-5" d="M241.34,154.88l-10.86,4L217.8,123.75,205.61,88.82s-2.32-8.26,6.09-10.71,10.63,5.6,10.63,5.6l9.45,35.76Z" transform="translate(-40.75 -2.84)"/><path class="cls-5" d="M253.07,181.25a1.37,1.37,0,0,1-1.86-.4s-4.39-7.47-4.7-7.36,4,11.34,4,11.34a1.32,1.32,0,0,1-.75,1.61,1.35,1.35,0,0,1-1.8-.58s-4.76-10.69-5.17-10.55S247,188,247,188a1.32,1.32,0,0,1-.79,1.6,1.35,1.35,0,0,1-1.78-.63s-5.24-11.88-5.54-11.79S241,188.41,241,188.41a1.38,1.38,0,0,1-2.66.67l-3.76-12.59a2.31,2.31,0,0,1-.26-.55,50.47,50.47,0,0,0-1.64-5.41c-.26-.14-1.37,3.49-1.37,3.49l-.06.16L229,178.49a1.71,1.71,0,0,1-1.92.86,1.45,1.45,0,0,1-1.09-1.72s0-.09,0-.14l1.51-4.54-.06.16.86-5.3.15-.37,2-3.44c.07-.14.41-.68.51-.82a9.53,9.53,0,0,1,.61-.81L230,157.48l11-3.7,1.64,4.9a2.77,2.77,0,0,1,2.19,1.81l3.45,8.2,5.37,10.88A1.29,1.29,0,0,1,253.07,181.25Z" transform="translate(-40.75 -2.84)"/><ellipse class="cls-5" cx="230.17" cy="140.01" rx="7.55" ry="17.16" transform="translate(-76.16 91.91) rotate(-21.64)"/><ellipse cx="139.84" cy="25.82" rx="20.21" ry="21.25"/><polygon class="cls-4" points="176.1 179.2 103.73 179.2 106.72 72.78 126.48 69.17 130.71 68.39 149.15 68.39 153.37 69.17 173.11 72.78 176.1 179.2"/><path class="cls-6" d="M189.91,60.52v6.8a14.58,14.58,0,0,1-8.34,2.8h-2.06a14.37,14.37,0,0,1-8-2.59v-7Z" transform="translate(-40.75 -2.84)"/><polygon class="cls-5" points="159.01 70.2 139.77 90.48 120.85 70.2 130.42 68.45 150.08 68.57 159.01 70.2"/><path class="cls-4" d="M146.73,111.52a68.26,68.26,0,0,1-12.1-.8c-5.23-1-11-7.15-11-7.15S141.51,77.67,143,77a31.22,31.22,0,0,1,4.51-1.37Z" transform="translate(-40.75 -2.84)"/><path class="cls-4" d="M214.61,111.52a68.26,68.26,0,0,0,12.1-.8c5.23-1,11-7.15,11-7.15S219.83,77.67,218.38,77a32.33,32.33,0,0,0-4.52-1.39Z" transform="translate(-40.75 -2.84)"/><polygon class="cls-5" points="150.88 69.18 139.84 83.24 128.98 69.18 128.98 50.15 150.88 50.15 150.88 69.18"/><path class="cls-7" d="M191.63,55.82v9.66a15.55,15.55,0,0,1-9.9,4h-2.44a15.43,15.43,0,0,1-9.55-3.68v-10Z" transform="translate(-40.75 -2.84)"/><ellipse class="cls-5" cx="161.23" cy="39.75" rx="3.88" ry="7.59" transform="translate(-43.4 10.07) rotate(-4.55)"/><ellipse class="cls-5" cx="199.97" cy="39.74" rx="7.59" ry="3.88" transform="translate(103.74 233.09) rotate(-85.45)"/><path class="cls-5" d="M179.5,65.48h2.07c8.58,0,16.31-8.78,16.31-17.35l.7-18.24c0-8.58-5.08-16.65-13.65-16.65h-8.74c-8.57,0-13.65,8.07-13.65,16.65l.71,18.24C163.21,56.7,170.92,65.48,179.5,65.48Z" transform="translate(-40.75 -2.84)"/><path class="cls-8" d="M193.31,35.24c0,2-2,3.54-4.49,3.54s-4.5-1.58-4.5-3.54a3.11,3.11,0,0,1,1-2.24,5.3,5.3,0,0,1,7,0A3.12,3.12,0,0,1,193.31,35.24Z" transform="translate(-40.75 -2.84)"/><circle class="cls-9" cx="147.76" cy="32.4" r="2.16"/><circle cx="147.76" cy="32.4" r="1.12"/><circle class="cls-8" cx="147.15" cy="31.45" r="0.86"/><ellipse class="cls-8" cx="132.51" cy="32.4" rx="4.49" ry="3.54"/><circle class="cls-9" cx="132.82" cy="32.4" r="2.16"/><circle cx="132.82" cy="32.4" r="1.12"/><circle class="cls-8" cx="132.21" cy="31.45" r="0.86"/><path d="M177.24,28.06a19.56,19.56,0,0,0-9.39,2.33.39.39,0,0,0-.19.52v0a.4.4,0,0,0,.48.16,17.85,17.85,0,0,1,8.88-.65,1.3,1.3,0,0,0,1.49-.9,1.2,1.2,0,0,0-.9-1.44l-.13,0Z" transform="translate(-40.75 -2.84)"/><path d="M184.91,28.06a19.56,19.56,0,0,1,9.39,2.33.39.39,0,0,1,.19.52v0a.41.41,0,0,1-.49.16,17.8,17.8,0,0,0-8.87-.65,1.31,1.31,0,0,1-1.5-.9,1.2,1.2,0,0,1,.92-1.44l.11,0Z" transform="translate(-40.75 -2.84)"/><path class="cls-10" d="M190.36,51.17a8.53,8.53,0,0,1-2.91,5.18,10.67,10.67,0,0,1-13.75-.08,8.54,8.54,0,0,1-2.85-5.1,1.06,1.06,0,0,1,.76-1.12A1.41,1.41,0,0,1,172,50h17.17a1.41,1.41,0,0,1,.41.07A1.06,1.06,0,0,1,190.36,51.17Z" transform="translate(-40.75 -2.84)"/><path class="cls-11" d="M187.44,56.34a10.67,10.67,0,0,1-13.75-.08,24.49,24.49,0,0,1,6.76-.86A23.63,23.63,0,0,1,187.44,56.34Z" transform="translate(-40.75 -2.84)"/><path class="cls-8" d="M189.6,50c-.58,1.89-4.4,3.34-9,3.34s-8.39-1.45-9-3.34A1.41,1.41,0,0,1,172,50h17.17A1.41,1.41,0,0,1,189.6,50Z" transform="translate(-40.75 -2.84)"/><path class="cls-7" d="M183.13,46.76a3.88,3.88,0,0,1-.58.28l-.58.22h-.1a2,2,0,0,1-1.32-.38,2.38,2.38,0,0,1-.83-1.1,2.1,2.1,0,0,1-.12-.7V43.36c0-.76,0-1.51.06-2.28s.07-1.52.12-2.27a.24.24,0,0,1,.24-.21.22.22,0,0,1,.2.21c.06.75.09,1.52.12,2.27s0,1.52.06,2.28v1.72a1.57,1.57,0,0,0,.09.43,1.37,1.37,0,0,0,.51.68,1.78,1.78,0,0,0,.82.3h-.09l.64-.09c.21,0,.43,0,.65,0a.22.22,0,0,1,.21.23.18.18,0,0,1-.11.17Z" transform="translate(-40.75 -2.84)"/><path class="cls-12" d="M211,98.21a1.79,1.79,0,0,0-1.8-1.79H188a1.81,1.81,0,0,0-1.81,1.79h0v12.53H211Z" transform="translate(-40.75 -2.84)"/><path class="cls-13" d="M188,113.67h21.19a1.81,1.81,0,0,0,1.81-1.8V110H186.17v1.93A1.81,1.81,0,0,0,188,113.67Z" transform="translate(-40.75 -2.84)"/><path class="cls-14" d="M198.55,98.45h0a1.83,1.83,0,0,1-1.83-1.84V94.18h3.67v2.43a1.84,1.84,0,0,1-1.84,1.84Z" transform="translate(-40.75 -2.84)"/><rect class="cls-15" x="156.7" y="92.05" width="2.19" height="0.35"/><rect class="cls-15" x="156.7" y="92.86" width="2.19" height="0.35"/><rect class="cls-15" x="156.7" y="93.68" width="2.19" height="0.35"/><path class="cls-16" d="M196.13,107.48h-7.19V99.33h7.19Zm-6.8-.37h6.43V99.68h-6.45Z" transform="translate(-40.75 -2.84)"/><path class="cls-3" d="M193.18,102.82a1.4,1.4,0,0,0,.76-1.25,1.42,1.42,0,1,0-2.08,1.25,2.66,2.66,0,0,0-2,2.56c0,1.45,5.28,1.45,5.28,0A2.64,2.64,0,0,0,193.18,102.82Z" transform="translate(-40.75 -2.84)"/><path class="cls-17" d="M208.8,101.32H198.27a.67.67,0,0,1,0-1.34H208.8a.67.67,0,0,1,0,1.34Z" transform="translate(-40.75 -2.84)"/><path class="cls-17" d="M206.5,104.85h-8.23a.67.67,0,1,1,0-1.33h8.23a.67.67,0,1,1,0,1.33Z" transform="translate(-40.75 -2.84)"/><path class="cls-18" d="M172,99.32v-2.6H151v5h0v8.11a10.52,10.52,0,0,0,10.52,10.52h0A10.53,10.53,0,0,0,172,109.84h0ZM161.47,119a9.21,9.21,0,0,1-9.19-9.19v-8.11h18.38v8.11A9.19,9.19,0,0,1,161.47,119Z" transform="translate(-40.75 -2.84)"/><path d="M174.23,28.06c-7.64-3.87-8.11-20.3,1.25-17.61C188,14.06,175.12,21.14,174.23,28.06Z" transform="translate(-40.75 -2.84)"/><path d="M182.24,28.66c4.43-2.48,2.26-17.77-3.49-16.65C171.09,13.5,180.61,22.06,182.24,28.66Z" transform="translate(-40.75 -2.84)"/><path d="M190,28.4c4.08-3-.15-17.91-5.69-16C176.87,14.89,187.44,22.06,190,28.4Z" transform="translate(-40.75 -2.84)"/><polygon points="124.68 39.48 121.32 40.03 120.05 25.24 121.75 23 124.68 39.48"/><ellipse cx="166.59" cy="21.2" rx="10.46" ry="3.53" transform="translate(24.18 152.03) rotate(-60)"/><polygon points="154.67 39.48 158.02 40.03 159.29 25.24 157.59 23 154.67 39.48"/><ellipse cx="194.26" cy="21.21" rx="3.53" ry="10.46" transform="translate(-25.33 97.13) rotate(-30)"/><path d="M161.23,22.54a21.52,21.52,0,0,1,6.41-11.7A23.49,23.49,0,0,1,171,8.12c3.79-2.58,9.08-4.65,16.42-5.28-1.94,2.52-3.07,3.87-3.07,3.87s10.07.76,13.4-2.51c-1.69,6.32-2.33,6.92-2.33,6.92s6.17-1.52,7.4-4.07a10.06,10.06,0,0,1-3.12,10.11l6.49-2.09c-1.75,5.82-5.13,7.21-5.13,7.21s1.94.54,4.86-1.07c-1,4.82-5.15,8.05-5.21,9.7S186.94,15.62,181,15.77,161.23,22.54,161.23,22.54Z" transform="translate(-40.75 -2.84)"/><path class="cls-7" d="M177,33.26a16.51,16.51,0,0,0-7.53,0,5.08,5.08,0,0,1,7.17-.36A4.08,4.08,0,0,1,177,33.26Z" transform="translate(-40.75 -2.84)"/><path class="cls-7" d="M192.58,33.26a16.47,16.47,0,0,0-7.52,0,5.08,5.08,0,0,1,7.17-.36A4,4,0,0,1,192.58,33.26Z" transform="translate(-40.75 -2.84)"/><path class="cls-18" d="M146.64,111.86h0a.31.31,0,0,1-.32-.31h0l.62-35.49a.32.32,0,0,1,.33-.3h0a.31.31,0,0,1,.33.29v0L147,111.58A.31.31,0,0,1,146.64,111.86Z" transform="translate(-40.75 -2.84)"/><path class="cls-18" d="M214.62,111.72a.33.33,0,0,1-.33-.31l-.62-35.51a.32.32,0,0,1,.32-.32h0a.33.33,0,0,1,.34.31L215,111.4a.32.32,0,0,1-.32.32Z" transform="translate(-40.75 -2.84)"/><path class="cls-6" d="M280,256.58l13.74,0-.58-44.17.75-45s-.44-10.45-11-10.07-10,10.51-10,10.51l5.1,44.42Z" transform="translate(-40.75 -2.84)"/><path class="cls-15" d="M294.72,254.78s8.69,7.39,13.94,8.85,7.7.47,9.11,6.6c-6.26,0-41.22-1.35-41.22-1.35s-2.3-2.48,1.5-14.76c.33-1.07,1.82-1.69,2.51-.81,2.64,3.31,7.44,2.45,12.11,1.43A1.63,1.63,0,0,1,294.72,254.78Z" transform="translate(-40.75 -2.84)"/><path class="cls-3" d="M316,272.94l-36.34.1h-2.33a1.5,1.5,0,0,1-1.5-1.47l.12-4.4c19.66,3.08,38.84,2.69,41.79,3.08C318.87,270.37,317.58,272.94,316,272.94Z" transform="translate(-40.75 -2.84)"/><polygon class="cls-16" points="236.58 253.74 256.27 253.8 255.93 160.84 228.08 160.84 236.58 253.74"/><path class="cls-6" d="M254.4,256.58l-13.74,0,.59-44.17-.75-45s.44-10.45,11-10.07,10,10.51,10,10.51l-5.09,44.42Z" transform="translate(-40.75 -2.84)"/><path class="cls-15" d="M239.64,254.78s-8.71,7.39-14,8.85-7.7.47-9.11,6.6c6.26,0,41.21-1.35,41.21-1.35s2.33-2.48-1.5-14.76c-.33-1.07-1.81-1.69-2.51-.81-2.63,3.31-7.43,2.45-12.1,1.43A1.61,1.61,0,0,0,239.64,254.78Z" transform="translate(-40.75 -2.84)"/><path class="cls-3" d="M218.35,272.94l36.34.1H257a1.49,1.49,0,0,0,1.5-1.47l-.12-4.4c-19.66,3.08-38.84,2.69-41.79,3.08C215.48,270.37,216.77,272.94,218.35,272.94Z" transform="translate(-40.75 -2.84)"/><polygon class="cls-16" points="216.26 253.74 196.57 253.8 196.91 160.84 224.76 160.84 216.26 253.74"/><path class="cls-5" d="M325.54,154.68l-10.14,3.77-11.86-32.89L292.14,92.9s-2.2-7.73,5.7-10,9.93,5.24,9.93,5.24l8.84,33.43Z" transform="translate(-40.75 -2.84)"/><ellipse class="cls-5" cx="315.09" cy="140.76" rx="7.06" ry="16.06" transform="translate(-70.45 123.28) rotate(-21.64)"/><path class="cls-19" d="M338.45,183a1.49,1.49,0,0,1-2-.48s-4.6-8.25-4.94-8.15,4.08,12.47,4.08,12.47a1.43,1.43,0,0,1-.86,1.75,1.48,1.48,0,0,1-1.94-.69s-4.92-11.78-5.37-11.64,4.26,14,4.26,14a1.51,1.51,0,0,1-2.82,1s-5.42-13.09-5.74-13S325,190.51,325,190.51a1.47,1.47,0,0,1-1.1,1.61,1.44,1.44,0,0,1-1.81-.94l-3.78-13.83a3.06,3.06,0,0,1-.27-.58s-1.37-5.8-1.65-6-1.59,3.77-1.59,3.77l-.06.17-2.48,4.66a1.86,1.86,0,0,1-2.12.89,1.57,1.57,0,0,1-1.14-1.9s0-.1,0-.15l1.75-4.91-.07.17,1.08-5.76.17-.4,2.26-3.69a9.52,9.52,0,0,1,.58-.88,6.91,6.91,0,0,1,.73-.89l-11.69-21.23,20.62-5.39,3.12,22.89a3,3,0,0,1,2.33,2l3.55,9,5.58,12A1.42,1.42,0,0,1,338.45,183Z" transform="translate(-40.75 -2.84)"/><path class="cls-5" d="M211.74,139.51l13.44-4.74L217.61,128l28.92-34.4s3.15-7.39-4.39-10.65-10.5,3.93-10.5,3.93l-28.48,40Z" transform="translate(-40.75 -2.84)"/><path class="cls-20" d="M284.63,77.13a90,90,0,0,1-32.57,0c1.41-10.25,4.21-20.38,4.21-30.75h24.15C280.42,56.76,283.23,66.89,284.63,77.13Z" transform="translate(-40.75 -2.84)"/><ellipse class="cls-20" cx="227.6" cy="36.82" rx="20.78" ry="24.62"/><polygon class="cls-21" points="266.15 199.58 189.31 199.58 197.75 75.94 215.59 72.68 219.41 71.98 236.07 71.98 239.88 72.68 257.71 75.94 266.15 199.58"/><path class="cls-6" d="M276.82,65.14v6.14a13.13,13.13,0,0,1-7.54,2.53h-1.86a13.09,13.09,0,0,1-7.26-2.32V65.14Z" transform="translate(-40.75 -2.84)"/><path class="cls-22" d="M237.82,111.21a61.29,61.29,0,0,1-10.92-.73C222.18,109.59,217,104,217,104s16.16-23.38,17.46-24a27.84,27.84,0,0,1,4.08-1.25Z" transform="translate(-40.75 -2.84)"/><path class="cls-22" d="M299.13,111.21a61.38,61.38,0,0,0,10.93-.73c4.73-.89,9.94-6.44,9.94-6.44s-16.16-23.38-17.47-24a27.35,27.35,0,0,0-4.07-1.25Z" transform="translate(-40.75 -2.84)"/><polygon class="cls-5" points="237.63 72.69 227.65 85.39 217.85 72.69 217.85 55.5 237.63 55.5 237.63 72.69"/><path class="cls-23" d="M278.38,60.88v8.73a14,14,0,0,1-8.95,3.59h-2.21a13.87,13.87,0,0,1-8.62-3.32v-9Z" transform="translate(-40.75 -2.84)"/><ellipse class="cls-5" cx="250.92" cy="46.39" rx="3.5" ry="6.86" transform="translate(-43.64 17.21) rotate(-4.55)"/><ellipse class="cls-5" cx="285.9" cy="46.37" rx="6.86" ry="3.5" transform="matrix(0.08, -1, 1, 0.08, 176.24, 324.86)"/><path class="cls-5" d="M269.14,69.62c2.1,0,8.38,0,13.79-12.92a15.21,15.21,0,0,0,1.16-5.32l.54-13.9c0-7.74-4.59-15-12.34-15H264.4c-7.74,0-12.33,7.29-12.33,15l.53,13.83A15.49,15.49,0,0,0,253.91,57C259.67,70.05,267,69.62,269.14,69.62Z" transform="translate(-40.75 -2.84)"/><path class="cls-20" d="M263.74,35.94a15.51,15.51,0,0,0-7.57,1.88.31.31,0,0,0-.15.42h0a.35.35,0,0,0,.4.13,14.23,14.23,0,0,1,7.15-.52,1.07,1.07,0,0,0,1.2-.73,1,1,0,0,0-.72-1.15l-.1,0Z" transform="translate(-40.75 -2.84)"/><path class="cls-20" d="M273,35.94a15.48,15.48,0,0,1,7.57,1.88.31.31,0,0,1,.15.42h0a.32.32,0,0,1-.39.13,14.23,14.23,0,0,0-7.15-.52,1.07,1.07,0,0,1-1.21-.73,1,1,0,0,1,.73-1.15l.1,0Z" transform="translate(-40.75 -2.84)"/><path class="cls-10" d="M275.46,57.27A6.14,6.14,0,0,1,273.35,61a7.69,7.69,0,0,1-9.9,0,6.14,6.14,0,0,1-2.05-3.69.75.75,0,0,1,.54-.8,1,1,0,0,1,.3,0h12.4a.93.93,0,0,1,.29,0A.74.74,0,0,1,275.46,57.27Z" transform="translate(-40.75 -2.84)"/><path class="cls-11" d="M273.35,61a7.69,7.69,0,0,1-9.9,0,17.09,17.09,0,0,1,4.87-.62A16.77,16.77,0,0,1,273.35,61Z" transform="translate(-40.75 -2.84)"/><path class="cls-8" d="M274.91,56.47c-.43,1.36-3.17,2.41-6.49,2.41s-6.06-1.05-6.49-2.41a.93.93,0,0,1,.29,0h12.4A.93.93,0,0,1,274.91,56.47Z" transform="translate(-40.75 -2.84)"/><path class="cls-23" d="M267.31,53.16a5.5,5.5,0,0,0,.58.16l.58.11h.09a1.78,1.78,0,0,0,1.1-.52,2.05,2.05,0,0,0,.59-1.1,2.29,2.29,0,0,0,0-.64l-.09-.52-.18-1c-.12-.67-.24-1.35-.38-2s-.26-1.35-.41-2a.22.22,0,0,0-.24-.15.19.19,0,0,0-.15.21c.05.69.13,1.37.21,2.05s.16,1.37.26,2l.14,1,.07.49a1.34,1.34,0,0,1,0,.4,1.2,1.2,0,0,1-.38.67,1.45,1.45,0,0,1-.68.39h-.5a2.28,2.28,0,0,0-.58.05.19.19,0,0,0-.16.22A.17.17,0,0,0,267.31,53.16Z" transform="translate(-40.75 -2.84)"/><rect class="cls-8" x="229.61" y="93.85" width="27.47" height="6.42"/><path class="cls-3" d="M293.32,99H274.87c-.64,0-1.16-.27-1.16-.59s.52-.58,1.16-.58h18.45c.65,0,1.17.27,1.17.58S294,99,293.32,99Z" transform="translate(-40.75 -2.84)"/><path class="cls-3" d="M291.32,101.63H276.89c-.65,0-1.17-.27-1.17-.59s.52-.58,1.17-.58h14.43c.64,0,1.16.27,1.16.58S292,101.63,291.32,101.63Z" transform="translate(-40.75 -2.84)"/><path class="cls-24" d="M260.64,100.18V97.85h-19v4.52h0v7.33a9.51,9.51,0,0,0,9.5,9.5h0a9.5,9.5,0,0,0,9.5-9.5h0ZM251.14,118a8.32,8.32,0,0,1-8.3-8.31v-7.32h16.61v7.32a8.32,8.32,0,0,1-8.31,8.31Z" transform="translate(-40.75 -2.84)"/><ellipse class="cls-20" cx="259.56" cy="28.17" rx="11.24" ry="5.2" transform="translate(15.35 188.94) rotate(-45)"/><ellipse class="cls-20" cx="276.38" cy="26.58" rx="6.05" ry="14.31" transform="translate(21.4 200.37) rotate(-45)"/><ellipse class="cls-8" cx="220.3" cy="39.54" rx="3.62" ry="2.87"/><ellipse class="cls-8" cx="234.97" cy="39.54" rx="3.62" ry="2.87"/><circle class="cls-25" cx="220.55" cy="39.32" r="1.74"/><circle cx="220.55" cy="39.32" r="0.9"/><circle class="cls-8" cx="220.06" cy="38.55" r="0.7"/><circle class="cls-25" cx="234.72" cy="39.32" r="1.74"/><circle cx="234.72" cy="39.32" r="0.9"/><circle class="cls-8" cx="234.23" cy="38.55" r="0.7"/><path class="cls-26" d="M224.48,214.27h0a2.59,2.59,0,0,0,2.59-2.59h0v-151h-5.18v151a2.59,2.59,0,0,0,2.59,2.59Z" transform="translate(-40.75 -2.84)"/><rect class="cls-27" x="181.14" y="52.47" width="5.18" height="8.88"/><path class="cls-28" d="M240,42.14v.35a10,10,0,0,1-.07,1.09,14,14,0,0,1-.41,2.33c-.11.39-.23.78-.36,1.16a15.72,15.72,0,0,1-29.34.06c-.14-.39-.26-.78-.37-1.17a15.16,15.16,0,0,1-.42-2.33c0-.26,0-.53-.06-.8v-.68a13.19,13.19,0,0,1,.11-1.78c0-.35.09-.7.16-1a15.62,15.62,0,0,1,30.5,0c.07.33.13.67.17,1s.06.52.07.78S240,41.79,240,42.14Z" transform="translate(-40.75 -2.84)"/><path class="cls-28" d="M245.48,11.47c-1.6,9.25-4.71,18.4-5.4,27.71l-.07,1.1,0,.81c0,.48,0,.94,0,1.41v.33h-31v-.31c0-.74,0-1.48-.07-2.22,0-.37,0-.74-.07-1.1-.66-9.31-3.68-18.48-5.28-27.73l1-.14,2.37,8.15-.58-8.38,6.27-.67,3,13.08-.9-13.26,9-.3.5,9.69.74-9.7,15,.77-1.3,15.17,2.78-15S244.1,11.27,245.48,11.47Z" transform="translate(-40.75 -2.84)"/><path class="cls-29" d="M239.52,45.93c-.11.39-.23.78-.36,1.16a61.64,61.64,0,0,1-14.76,1.58,61.48,61.48,0,0,1-14.56-1.53c-.14-.38-.26-.77-.37-1.16a60.35,60.35,0,0,0,14.95,1.66A61.49,61.49,0,0,0,239.52,45.93Z" transform="translate(-40.75 -2.84)"/><path class="cls-29" d="M240,42.49a10,10,0,0,1-.07,1.09,60.16,60.16,0,0,1-15.53,1.79,59.14,59.14,0,0,1-15.38-1.74c0-.27,0-.53-.05-.8h-.06v-.31H209c.34.11.7.2,1.07.3a61.94,61.94,0,0,0,14.37,1.51,61.91,61.91,0,0,0,14.36-1.51l1.17-.33Z" transform="translate(-40.75 -2.84)"/><path class="cls-29" d="M240.13,39.18c0,.37,0,.74-.07,1.1l-.11,0a60.25,60.25,0,0,1-15.5,1.75,58.85,58.85,0,0,1-15.33-1.75l-.22-.06c0-.37,0-.73-.07-1.09l.45.12A59,59,0,0,0,224.45,41a58.72,58.72,0,0,0,15.33-1.78Z" transform="translate(-40.75 -2.84)"/><path class="cls-23" d="M264.46,41.34a12.36,12.36,0,0,0-6.77,0,3.39,3.39,0,0,1,3.39-1.82A3.47,3.47,0,0,1,264.46,41.34Z" transform="translate(-40.75 -2.84)"/><path class="cls-23" d="M279.14,41.34a12.61,12.61,0,0,0-6.84,0,3.41,3.41,0,0,1,3.42-1.82A3.52,3.52,0,0,1,279.14,41.34Z" transform="translate(-40.75 -2.84)"/><path class="cls-19" d="M228.45,134.75c0,6.77-4.17,9.78-10.94,9.78s-17.76-4.69-17.76-11.47,3.06-15.14,9.84-15.14S228.45,128,228.45,134.75Z" transform="translate(-40.75 -2.84)"/><path class="cls-19" d="M231.34,140.89a2.62,2.62,0,0,1-1.81-2.33l-.17-11a2.28,2.28,0,0,1,2.33-2.23h.23a2.73,2.73,0,0,1,2.64,2.52l.17,11a2.28,2.28,0,0,1-2.33,2.23h-.23A3,3,0,0,1,231.34,140.89Z" transform="translate(-40.75 -2.84)"/><path class="cls-30" d="M232.51,141.44h-.36a3.34,3.34,0,0,1-.94-.19h0a3,3,0,0,1-2.06-2.69l-.17-11a2.51,2.51,0,0,1,.77-1.84,3,3,0,0,1,2.2-.77,3.12,3.12,0,0,1,3,2.92l.17,11a2.42,2.42,0,0,1-.76,1.83A2.88,2.88,0,0,1,232.51,141.44Zm-1-.9a2.55,2.55,0,0,0,.72.14,2.13,2.13,0,0,0,1.63-.58,1.73,1.73,0,0,0,.53-1.27l-.17-11a2.32,2.32,0,0,0-2.28-2.14,2.14,2.14,0,0,0-1.62.58,1.7,1.7,0,0,0-.54,1.27l.18,11a2.22,2.22,0,0,0,1.55,2Z" transform="translate(-40.75 -2.84)"/><path class="cls-19" d="M218.68,121.28s9.32,1.84,10.09,2,4.35,2.29,1.16,7.07c1.17,2.46.77,5.06-1,5.75,1.17,1.63,1.1,5-.5,5.83.65,1.82-.17,4.35-1,4.82s-4.71.87-5.18.93a7.58,7.58,0,0,1-6.56.05c-1.78-.89-2-5-2-5.52s-1.36-3.1-1.3-3.94.48-2.66.46-3.39-1.16-2.22-.95-3.87a6.19,6.19,0,0,1,1.74-3.49c-.37-2.78-.47-3.43-.13-4S215.12,120.57,218.68,121.28Z" transform="translate(-40.75 -2.84)"/><path class="cls-30" d="M219.46,148.8a8.67,8.67,0,0,1-3.86-.74h0c-1.67-.83-2.11-4-2.23-5.77v-.07a9.44,9.44,0,0,0-.45-1.22,8.22,8.22,0,0,1-.85-2.77,11.64,11.64,0,0,1,.22-1.55,10.82,10.82,0,0,0,.24-1.8,3.27,3.27,0,0,0-.31-.91,5.87,5.87,0,0,1-.64-3,6.48,6.48,0,0,1,1.7-3.58c-.38-2.75-.46-3.4-.06-4.07v0a4.76,4.76,0,0,1,5.54-2.33h0c.09,0,9.32,1.84,10.07,2a3.92,3.92,0,0,1,2.45,2.21c.46,1,.66,2.8-.92,5.26a5.92,5.92,0,0,1,.34,4.41,2.91,2.91,0,0,1-1.17,1.46,6,6,0,0,1,.51,4,3.27,3.27,0,0,1-1.1,1.89c.5,1.89-.25,4.42-1.26,5a21.28,21.28,0,0,1-5,.94l-.34,0a1.88,1.88,0,0,0-.3.12A7.55,7.55,0,0,1,219.46,148.8Zm-3.55-1.43a6.93,6.93,0,0,0,5.85.08,2.16,2.16,0,0,1,.49-.16l.36,0a19.2,19.2,0,0,0,4.69-.85c.63-.35,1.43-2.65.82-4.36a.38.38,0,0,1,.18-.46,2.34,2.34,0,0,0,1-1.56,5,5,0,0,0-.62-3.72.38.38,0,0,1,.07-.53.33.33,0,0,1,.1-.06,2.06,2.06,0,0,0,1.16-1.24,5.23,5.23,0,0,0-.39-4,.37.37,0,0,1,0-.38c1.2-1.79,1.53-3.43,1-4.72a3.22,3.22,0,0,0-1.87-1.75c-.77-.12-9.72-1.9-10.1-2-3.21-.64-4.37,1.33-4.75,2v0c-.25.44-.19,1,.17,3.6v.16a.37.37,0,0,1-.1.3,5.87,5.87,0,0,0-1.62,3.3,5.1,5.1,0,0,0,.58,2.63,3.58,3.58,0,0,1,.37,1.19,11.56,11.56,0,0,1-.25,2c-.09.55-.19,1.12-.21,1.47a9.47,9.47,0,0,0,.79,2.43,6.17,6.17,0,0,1,.51,1.46v.07c.18,2.77.84,4.64,1.83,5.14Z" transform="translate(-40.75 -2.84)"/><path class="cls-30" d="M229.9,130.53l-11-2.33a.45.45,0,0,1,.18-.89h0L230,130.07a.23.23,0,0,1,.17.28.22.22,0,0,1-.27.17h0Z" transform="translate(-40.75 -2.84)"/><path class="cls-30" d="M229,136.29l-11.6-1.36a.45.45,0,0,1,.11-.9h0L229,135.84a.22.22,0,0,1,.19.25h0A.24.24,0,0,1,229,136.29Z" transform="translate(-40.75 -2.84)"/><path class="cls-30" d="M228.55,142l-11.19.31a.47.47,0,0,1-.46-.46.46.46,0,0,1,.46-.45h0l11.19.15a.22.22,0,0,1,.22.23A.22.22,0,0,1,228.55,142Z" transform="translate(-40.75 -2.84)"/><path class="cls-6" d="M236.65,297.44l14.7,0-.63-47.22.8-48.15s-.48-11.16-11.77-10.75S229,202.54,229,202.54L234.47,250Z" transform="translate(-40.75 -2.84)"/><path d="M252.44,295.51s9.32,7.9,14.91,9.47,8.23.5,9.74,7c-6.69,0-44.07-1.45-44.07-1.45s-2.46-2.64,1.61-15.78c.35-1.16,1.94-1.79,2.68-.86,2.82,3.54,7.95,2.62,12.94,1.53A1.73,1.73,0,0,1,252.44,295.51Z" transform="translate(-40.75 -2.84)"/><path class="cls-3" d="M275.19,314.91l-38.85.1h-2.45a1.58,1.58,0,0,1-1.6-1.56h0l.12-4.71c21,3.29,41.52,2.88,44.68,3.29C278.27,312.18,276.89,314.91,275.19,314.91Z" transform="translate(-40.75 -2.84)"/><polygon class="cls-4" points="193.11 294.59 214.16 294.66 213.8 195.27 184.02 195.27 193.11 294.59"/><path class="cls-6" d="M209.35,297.44l-14.7,0,.63-47.22-.8-48.15s.47-11.16,11.77-10.75S217,202.54,217,202.54L211.52,250Z" transform="translate(-40.75 -2.84)"/><path d="M193.56,295.51s-9.32,7.9-14.91,9.47-8.24.5-9.74,7c6.69,0,44.06-1.45,44.06-1.45s2.47-2.64-1.6-15.78c-.35-1.16-1.94-1.79-2.68-.86-2.82,3.54-7.95,2.62-12.94,1.53A1.73,1.73,0,0,0,193.56,295.51Z" transform="translate(-40.75 -2.84)"/><path class="cls-3" d="M170.8,314.91l38.85.1h2.46a1.58,1.58,0,0,0,1.6-1.56h0l-.12-4.71c-21,3.29-41.53,2.88-44.68,3.29C167.73,312.18,169.11,314.91,170.8,314.91Z" transform="translate(-40.75 -2.84)"/><polygon class="cls-4" points="171.38 294.59 150.34 294.66 150.7 195.27 180.47 195.27 171.38 294.59"/><polygon class="cls-4" points="214.31 211.91 148.94 211.91 150.32 108.75 168.95 105.34 172.94 104.61 190.33 104.61 194.31 105.34 212.93 108.75 214.31 211.91"/><path class="cls-18" d="M191,214.54a.34.34,0,0,1,.31-.37l64.28.18a.4.4,0,0,1,.3.47.38.38,0,0,1-.3.31l-64.28-.19a.36.36,0,0,1-.3-.39Z" transform="translate(-40.75 -2.84)"/><path class="cls-31" d="M283.38,193.41l-10.85,4-12.68-35.17-12.18-34.93s-2.33-8.26,6.09-10.71,10.62,5.59,10.62,5.59L273.84,158Z" transform="translate(-40.75 -2.84)"/><path class="cls-31" d="M295.11,219.77a1.38,1.38,0,0,1-1.87-.39s-4.39-7.47-4.69-7.37,4,11.35,4,11.35a1.32,1.32,0,0,1-.75,1.61,1.36,1.36,0,0,1-1.79-.58s-4.77-10.7-5.18-10.56,4.2,12.71,4.2,12.71a1.31,1.31,0,0,1-.78,1.6,1.35,1.35,0,0,1-1.78-.63s-5.24-11.88-5.54-11.78,2,11.21,2,11.21a1.36,1.36,0,0,1-1,1.5,1.32,1.32,0,0,1-1.67-.82h0L276.56,215a2.81,2.81,0,0,1-.27-.55,51.31,51.31,0,0,0-1.64-5.42c-.26-.14-1.37,3.49-1.37,3.49l0,.17L271.05,217a1.7,1.7,0,0,1-1.92.86,1.44,1.44,0,0,1-1.08-1.73.65.65,0,0,1,0-.13l1.5-4.54-.06.16.86-5.3.15-.37,2-3.43c.07-.15.42-.69.51-.83a7.42,7.42,0,0,1,.65-.83L272,196l11-3.69,1.65,4.9a2.76,2.76,0,0,1,2.17,1.81l3.46,8.18,5.38,10.89A1.3,1.3,0,0,1,295.11,219.77Z" transform="translate(-40.75 -2.84)"/><ellipse class="cls-31" cx="272.22" cy="178.53" rx="7.55" ry="17.16" transform="translate(-87.4 110.13) rotate(-21.64)"/><path class="cls-31" d="M161.48,193.41l10.84,4L185,162.27l12.19-34.93s2.33-8.26-6.09-10.71-10.63,5.59-10.63,5.59L171,158Z" transform="translate(-40.75 -2.84)"/><path class="cls-31" d="M149.75,219.77a1.37,1.37,0,0,0,1.86-.39s4.39-7.47,4.69-7.37-4,11.35-4,11.35a1.33,1.33,0,0,0,.75,1.61,1.37,1.37,0,0,0,1.8-.58s4.76-10.7,5.17-10.56-4.21,12.71-4.21,12.71a1.33,1.33,0,0,0,.79,1.62,1.36,1.36,0,0,0,1.79-.63s5.24-11.88,5.54-11.78-2.05,11.2-2.05,11.2a1.36,1.36,0,0,0,1,1.51,1.33,1.33,0,0,0,1.68-.83L168.3,215a3.06,3.06,0,0,0,.26-.55,51.31,51.31,0,0,1,1.64-5.42c.26-.14,1.37,3.49,1.37,3.49l.06.16L173.8,217a1.71,1.71,0,0,0,1.92.85,1.44,1.44,0,0,0,1.09-1.73s0-.08,0-.12l-1.51-4.54.06.16-.86-5.31-.15-.36-2-3.45c-.16-.28-.33-.56-.51-.82a7.33,7.33,0,0,0-.64-.83l1.64-4.89-11-3.68-1.65,4.89A2.79,2.79,0,0,0,158,199l-3.45,8.18-5.38,10.89A1.29,1.29,0,0,0,149.75,219.77Z" transform="translate(-40.75 -2.84)"/><ellipse class="cls-31" cx="172.65" cy="178.55" rx="17.16" ry="7.55" transform="translate(-97.74 270.35) rotate(-68.36)"/><path class="cls-31" d="M232.72,103.68V105c-2.61-1.94-6.08-2.91-10.33-2.91s-7.72,1-10.33,2.91v-1.34a21.75,21.75,0,0,1,20.66,0Z" transform="translate(-40.75 -2.84)"/><path d="M232.87,93.62a1.18,1.18,0,0,0,.32.27,2.46,2.46,0,0,0,.34.22c.23.13.46.26.69.37l1.35.7c.88.46,1.75.92,2.55,1.4a34.74,34.74,0,0,1,4.52,3.19c.18.14.35.29.52.44l.26.22.12.11.07.06c.19.17.39.33.59.48a9.1,9.1,0,0,0,1.32.77,12.43,12.43,0,0,0,1.58.58q.92.25,1.86.42a39.83,39.83,0,0,0,4.35.45c1.56.09,3.21.13,4.92.14h11.25a9.28,9.28,0,0,1-.83,1.39,11.81,11.81,0,0,1-1,1.25,19.32,19.32,0,0,1-2.26,2.17,24.65,24.65,0,0,1-11.27,5.16,21.89,21.89,0,0,1-6.71.19,19.4,19.4,0,0,1-3.55-.79l-.9-.31-.88-.36a19.26,19.26,0,0,1-1.75-.9,16.12,16.12,0,0,1-3.19-2.45c-.23-.24-.47-.48-.69-.74l-.33-.39-.31-.39-.15-.2-.1-.16-.19-.31c-.12-.21-.24-.41-.36-.63a25.18,25.18,0,0,1-1.27-2.68,21.22,21.22,0,0,1-1-2.92l-.18-.77c-.06-.26-.1-.52-.14-.8a15.31,15.31,0,0,1-.18-1.66,10.12,10.12,0,0,1,0-1.74,6.93,6.93,0,0,1,.16-.91c0-.16.09-.31.14-.46a2.12,2.12,0,0,1,.11-.21A.48.48,0,0,1,232.87,93.62Z" transform="translate(-40.75 -2.84)"/><path class="cls-6" d="M231.06,97.34v6.41a13.75,13.75,0,0,1-7.87,2.64h-1.94a13.58,13.58,0,0,1-7.57-2.44V97.34Z" transform="translate(-40.75 -2.84)"/><polygon class="cls-31" points="199.63 106.32 181.48 125.44 163.64 106.31 172.67 104.66 191.21 104.78 199.63 106.32"/><path class="cls-32" d="M207.36,150.34V159a6.73,6.73,0,0,1-13.46,0v-8.61h13.46m.88-.88H193v3.62h0V159a7.61,7.61,0,0,0,7.61,7.6h0a7.61,7.61,0,0,0,7.61-7.6h0v-7.61h0v-1.88Z" transform="translate(-40.75 -2.84)"/><path class="cls-33" d="M181.34,209.8l-.89,10.54a16.45,16.45,0,0,0,1.75,9.37L184,205.06l-2.28-.2Z" transform="translate(-40.75 -2.84)"/><path class="cls-33" d="M264.54,220.34l-.87-10.54-.42-4.94-2.42.21,1.83,24.84A16.14,16.14,0,0,0,264.54,220.34Z" transform="translate(-40.75 -2.84)"/><path class="cls-22" d="M190.58,111.94a.32.32,0,0,1,.31-.31h.1v-.06a32,32,0,0,0-4.58,1.43c-1.49.7-19.9,27.37-19.9,27.37s5.94,6.31,11.33,7.34a62.56,62.56,0,0,0,10.41.84l2.2-29.43Z" transform="translate(-40.75 -2.84)"/><path class="cls-22" d="M258.21,112.88a29.8,29.8,0,0,0-4.21-1.33.33.33,0,0,1,.12.25l.09,4.81,2.37,31.79a64.71,64.71,0,0,0,10.21-.84c5.38-1,11.32-7.34,11.32-7.34S259.7,113.6,258.21,112.88Z" transform="translate(-40.75 -2.84)"/><path class="cls-22" d="M254.35,148.4v-.14a.32.32,0,0,1-.25-.3l-.58-36.15a.32.32,0,0,1,.07-.2v-.16l.2,0h.06v0l-18.71-3.4-.43-.14,3,144.29h26.57l-1.52-20.28a6.2,6.2,0,0,1-4.39,2.72h0c-4.55.38-8.73-5.43-9.39-13L247.86,208h0l-.29-3.37,13.1-1.11-4.09-55.09C255.21,148.43,254.35,148.4,254.35,148.4Z" transform="translate(-40.75 -2.84)"/><path class="cls-22" d="M248.67,206.1l.16,1.79L250,221.57c.58,6.68,4.29,11.83,8.3,11.49a5.9,5.9,0,0,0,4.38-3.14l-1.86-24.85Z" transform="translate(-40.75 -2.84)"/><path class="cls-22" d="M254.71,148a.3.3,0,0,1-.31.32h-.06v.12h2.24l-2.37-31.8Z" transform="translate(-40.75 -2.84)"/><path class="cls-22" d="M253.77,111.51l-.2-.05v.16A.31.31,0,0,1,253.77,111.51Z" transform="translate(-40.75 -2.84)"/><path class="cls-22" d="M186.71,233.06c4,.34,7.74-4.81,8.3-11.49l1.16-13.68.15-1.79-12.27-1-1.84,24.65A6,6,0,0,0,186.71,233.06Z" transform="translate(-40.75 -2.84)"/><path class="cls-22" d="M191,111.46v.2a.32.32,0,0,1,.18.29l-.58,36.15a.31.31,0,0,1-.31.31h0v.13h-2l-4.11,54.93,13.24,1.11-.28,3.38L196,221.64c-.64,7.57-4.84,13.39-9.38,13h0a6.34,6.34,0,0,1-4.53-2.91l-1.53,20.45h26.57l3-144.28-.41.13Z" transform="translate(-40.75 -2.84)"/><path class="cls-22" d="M190.31,148.54v-.14h0a.31.31,0,0,1-.31-.31h0l.46-29-2.19,29.43C189.51,148.56,190.31,148.54,190.31,148.54Z" transform="translate(-40.75 -2.84)"/><path class="cls-32" d="M191,111.66h0v0Z" transform="translate(-40.75 -2.84)"/><path class="cls-32" d="M190.89,111.63a.32.32,0,0,0-.31.31l-.12,7.19.53-7.06v-.41h-.1Z" transform="translate(-40.75 -2.84)"/><path class="cls-32" d="M190.31,148.4h0a.31.31,0,0,0,.31-.31l.58-36.15a.3.3,0,0,0-.19-.29l0,.4Z" transform="translate(-40.75 -2.84)"/><path class="cls-32" d="M190.46,119.13l-.47,29a.31.31,0,0,0,.31.31h0l.69-36.34Z" transform="translate(-40.75 -2.84)"/><path class="cls-32" d="M254,111.56a.37.37,0,0,0-.18,0h0Z" transform="translate(-40.75 -2.84)"/><path class="cls-32" d="M254.21,116.62l-.09-4.81a.33.33,0,0,0-.12-.25l-.18,0Z" transform="translate(-40.75 -2.84)"/><path class="cls-32" d="M253.77,111.51h0Z" transform="translate(-40.75 -2.84)"/><path class="cls-32" d="M253.5,111.82l.58,36.16a.31.31,0,0,0,.25.29l-.77-36.68A.32.32,0,0,0,253.5,111.82Z" transform="translate(-40.75 -2.84)"/><path class="cls-32" d="M253.77,111.51a.27.27,0,0,0-.19.11l.76,36.68h.06a.31.31,0,0,0,.31-.32h0l-.5-31.34-.39-5.1Z" transform="translate(-40.75 -2.84)"/><path class="cls-32" d="M186.58,234.64h0c4.54.38,8.73-5.43,9.38-13L197.13,208l.28-3.37-13.24-1.12-.12,1.58,12.28,1-.15,1.79L195,221.57c-.58,6.68-4.28,11.83-8.29,11.49a6,6,0,0,1-4.51-3.35l-.16,2A6.32,6.32,0,0,0,186.58,234.64Z" transform="translate(-40.75 -2.84)"/><path class="cls-32" d="M247.88,208h0L249,221.65c.64,7.57,4.84,13.39,9.39,13h0a6.26,6.26,0,0,0,4.39-2.72l-.15-2a5.9,5.9,0,0,1-4.38,3.14c-4,.34-7.74-4.81-8.3-11.49l-1.16-13.68-.16-1.79,12.14-1-.12-1.58-13.1,1.11Z" transform="translate(-40.75 -2.84)"/><path class="cls-12" d="M250.94,132.9a1.7,1.7,0,0,0-1.7-1.7h-20a1.7,1.7,0,0,0-1.7,1.7h0v11.81h23.39Z" transform="translate(-40.75 -2.84)"/><path class="cls-13" d="M229.25,147.48h20a1.7,1.7,0,0,0,1.7-1.7V144H227.57v1.82A1.69,1.69,0,0,0,229.25,147.48Z" transform="translate(-40.75 -2.84)"/><path class="cls-14" d="M239.24,133.12h0a1.74,1.74,0,0,1-1.74-1.75h0v-2.29H241v2.29A1.75,1.75,0,0,1,239.24,133.12Z" transform="translate(-40.75 -2.84)"/><rect class="cls-15" x="197.46" y="126.92" width="2.07" height="0.33"/><rect class="cls-15" x="197.46" y="127.69" width="2.07" height="0.33"/><rect class="cls-15" x="197.46" y="128.46" width="2.07" height="0.33"/><path class="cls-16" d="M236.94,141.64h-6.76v-7.7h6.76Zm-6.41-.35h6.07v-7h-6.08Z" transform="translate(-40.75 -2.84)"/><path class="cls-3" d="M234.18,137.25a1.34,1.34,0,1,0-1.81-.57,1.36,1.36,0,0,0,.57.57,2.47,2.47,0,0,0-1.88,2.41c0,1.38,5,1.38,5,0A2.48,2.48,0,0,0,234.18,137.25Z" transform="translate(-40.75 -2.84)"/><path class="cls-17" d="M248.91,135.83H239a.63.63,0,0,1-.62-.63.63.63,0,0,1,.62-.63h9.94a.63.63,0,0,1,.63.63A.64.64,0,0,1,248.91,135.83Z" transform="translate(-40.75 -2.84)"/><path class="cls-17" d="M246.74,139.16H239a.63.63,0,0,1,0-1.26h7.77a.63.63,0,1,1,.12,1.26Z" transform="translate(-40.75 -2.84)"/><circle class="cls-27" cx="198.49" cy="121.34" r="4.26"/><circle class="cls-34" cx="198.49" cy="121.34" r="2.66"/><path class="cls-27" d="M205,117.34a10.64,10.64,0,0,1,8.31,3.19c2.09,2.19,3.49,5.51,4.1,9.84a45.22,45.22,0,0,1,.24,9.66c-.14,2.08-3,3.14-3.3,3.25a.58.58,0,0,1-.76-.32l0-.05a.62.62,0,0,1,.38-.79c.61-.22,2.41-1.09,2.48-2.17a43.47,43.47,0,0,0-.24-9.4c-.58-4.07-1.86-7.17-3.78-9.17a10.33,10.33,0,0,0-14.41.23c-4.18,4.75-3.95,13.84-3.44,18.84.17,1.71,2.53,2,2.56,2a.64.64,0,0,1,.54.69.59.59,0,0,1-.62.54H197a5.78,5.78,0,0,1-1.66-.5,3.23,3.23,0,0,1-2-2.61c-.53-5.2-.76-14.69,3.74-19.8A10.53,10.53,0,0,1,205,117.34Z" transform="translate(-40.75 -2.84)"/><path class="cls-35" d="M213.05,141c.94-.76,3.5,2.37,2.55,3.13a2.17,2.17,0,0,1-2.09.41,1.79,1.79,0,0,1-.87-.58,1.83,1.83,0,0,1-.41-1A2.21,2.21,0,0,1,213.05,141Z" transform="translate(-40.75 -2.84)"/><path class="cls-36" d="M212.48,142.93a1.87,1.87,0,0,1,1.17,1.42.16.16,0,0,1-.16.14h-.05a1.89,1.89,0,0,1-1.12-1.38.15.15,0,0,1,.13-.17Z" transform="translate(-40.75 -2.84)"/><path class="cls-35" d="M198.72,141.37c-1-.71-3.37,2.54-2.4,3.26a2.23,2.23,0,0,0,2.12.31,1.94,1.94,0,0,0,.83-.64,2,2,0,0,0,.37-1A2.24,2.24,0,0,0,198.72,141.37Z" transform="translate(-40.75 -2.84)"/><path class="cls-36" d="M199.38,143.24a1.82,1.82,0,0,0-1.09,1.47.15.15,0,0,0,.16.13h.05a1.82,1.82,0,0,0,.7-.59,1.7,1.7,0,0,0,.35-.83.14.14,0,0,0-.13-.17A0,0,0,0,0,199.38,143.24Z" transform="translate(-40.75 -2.84)"/><path class="cls-34" d="M239.66,121.24a.45.45,0,0,1-.14.3.71.71,0,0,1-.48.19h0a.81.81,0,0,1-.37-.12.46.46,0,0,1-.21-.42V120c-.11-3-.81-10.82-5-14.45-.21-.19-.44-.37-.67-.55-2.6-1.94-6.07-2.91-10.33-2.91s-7.72,1-10.32,2.91c-.24.18-.47.36-.69.56-4.73,4.07-4.85,10.55-4.83,11.81v.22a.57.57,0,0,1-.58.54.59.59,0,0,1-.66-.48v-.33c0-1.54.14-8.15,5.17-12.46a12.7,12.7,0,0,1,1.61-1.2,21.76,21.76,0,0,1,20.65,0,14.07,14.07,0,0,1,1.59,1.16c4.5,3.9,5.24,11.94,5.35,15.08C239.68,120.71,239.67,121.18,239.66,121.24Z" transform="translate(-40.75 -2.84)"/><polygon class="cls-31" points="191.96 105.36 181.55 118.61 171.31 105.36 171.31 87.4 191.96 87.4 191.96 105.36"/><path class="cls-5" d="M232.72,92.89V102a14.72,14.72,0,0,1-9.35,3.75H221a14.4,14.4,0,0,1-9-3.49V92.89Z" transform="translate(-40.75 -2.84)"/><ellipse cx="181.29" cy="71.57" rx="20.77" ry="24.6"/><ellipse class="cls-31" cx="204.63" cy="81.14" rx="3.5" ry="6.85" transform="translate(-46.54 13.65) rotate(-4.55)"/><ellipse class="cls-31" cx="239.59" cy="81.12" rx="6.85" ry="3.5" transform="translate(98.97 310.67) rotate(-85.45)"/><path class="cls-31" d="M222.84,104.35c2.1,0,8.37,0,13.77-12.91a15.22,15.22,0,0,0,1.17-5.32l.53-13.9c0-7.73-4.59-15-12.32-15H218.1c-7.74,0-12.32,7.29-12.32,15l.53,13.83a15.48,15.48,0,0,0,1.3,5.64C213.37,104.78,220.74,104.35,222.84,104.35Z" transform="translate(-40.75 -2.84)"/><ellipse class="cls-8" cx="174" cy="74.06" rx="3.62" ry="2.63"/><circle class="cls-37" cx="174.25" cy="74.06" r="1.74"/><circle cx="174.25" cy="74.06" r="0.9"/><circle class="cls-8" cx="173.76" cy="73.3" r="0.7"/><path d="M217.43,70.69a15.65,15.65,0,0,0-7.57,1.88.31.31,0,0,0-.15.41v0a.32.32,0,0,0,.39.13,14.46,14.46,0,0,1,7.15-.53,1,1,0,0,0,1.2-.72,1,1,0,0,0-.72-1.15h-.1A.76.76,0,0,0,217.43,70.69Z" transform="translate(-40.75 -2.84)"/><ellipse class="cls-8" cx="188.66" cy="74.06" rx="3.62" ry="2.63"/><circle class="cls-37" cx="188.41" cy="74.06" r="1.74"/><circle cx="188.41" cy="74.06" r="0.9"/><circle class="cls-8" cx="187.92" cy="73.3" r="0.7"/><path d="M226.73,70.69a15.62,15.62,0,0,1,7.57,1.88.31.31,0,0,1,.15.41v0a.32.32,0,0,1-.39.13,14.43,14.43,0,0,0-7.14-.53,1,1,0,0,1-1.21-.72,1,1,0,0,1,.73-1.15h.1A.64.64,0,0,1,226.73,70.69Z" transform="translate(-40.75 -2.84)"/><path class="cls-10" d="M229.15,92a6.2,6.2,0,0,1-2.1,3.74,7.71,7.71,0,0,1-9.9-.06A6.11,6.11,0,0,1,215.1,92a.75.75,0,0,1,.55-.81.92.92,0,0,1,.29,0h12.39a.92.92,0,0,1,.29,0A.76.76,0,0,1,229.15,92Z" transform="translate(-40.75 -2.84)"/><path class="cls-11" d="M227.05,95.75a7.71,7.71,0,0,1-9.9-.06,17.78,17.78,0,0,1,4.87-.62A16.82,16.82,0,0,1,227.05,95.75Z" transform="translate(-40.75 -2.84)"/><path class="cls-8" d="M228.61,91.2c-.44,1.37-3.18,2.42-6.5,2.42s-6.05-1.05-6.48-2.42a1,1,0,0,1,.3,0h12.38A1,1,0,0,1,228.61,91.2Z" transform="translate(-40.75 -2.84)"/><path class="cls-5" d="M221,87.9l.58.16.59.11h.08a1.83,1.83,0,0,0,1.13-.52,2,2,0,0,0,.58-1.1,2.29,2.29,0,0,0,0-.64l-.09-.52-.17-1c-.12-.67-.25-1.34-.38-2s-.27-1.34-.43-2a.18.18,0,0,0-.22-.15h0a.19.19,0,0,0-.15.2c.05.69.13,1.37.21,2s.17,1.37.26,2l.14,1,.07.49a1.34,1.34,0,0,1,0,.4,1.24,1.24,0,0,1-.37.67,1.66,1.66,0,0,1-.68.39h-.5a2.28,2.28,0,0,0-.58,0,.19.19,0,0,0-.16.22.18.18,0,0,0,.13.15Z" transform="translate(-40.75 -2.84)"/><ellipse cx="213.26" cy="62.94" rx="11.23" ry="5.19" transform="translate(-22.79 166.39) rotate(-45)"/><ellipse cx="230.07" cy="61.34" rx="6.05" ry="14.3" transform="translate(-16.74 177.81) rotate(-45)"/><path class="cls-5" d="M218.25,76.09a13.23,13.23,0,0,0-7,0,3.51,3.51,0,0,1,3.49-1.81A3.61,3.61,0,0,1,218.25,76.09Z" transform="translate(-40.75 -2.84)"/><path class="cls-5" d="M232.9,76.09a13.23,13.23,0,0,0-7,0,3.51,3.51,0,0,1,3.49-1.81A3.62,3.62,0,0,1,232.9,76.09Z" transform="translate(-40.75 -2.84)"/></g></g></svg>