<svg id="Laag_1" data-name="Laag 1" xmlns="http://www.w3.org/2000/svg" viewBox="0 0 359.3 248.99"><defs><style>.cls-1{fill:#7c7c7c;}.cls-2{fill:#999;}.cls-3{fill:#7a7a7a;}.cls-4{fill:#7ee5ce;}.cls-5{fill:#12897d;}.cls-6{fill:#fff;}.cls-7{fill:#ed1c24;}</style></defs><title>watdoen</title><rect class="cls-1" y="170.08" width="12.55" height="26"/><rect class="cls-1" x="346.75" y="170.08" width="12.55" height="26"/><ellipse class="cls-1" cx="179.65" cy="196.08" rx="179.65" ry="52.92"/><ellipse class="cls-2" cx="179.65" cy="170.08" rx="179.65" ry="52.92"/><g id="Laag_2" data-name="Laag 2"><g id="Laag_2-2" data-name="Laag 2-2"><path class="cls-3" d="M251.78,158.63v-9a17.61,17.61,0,0,0-17.59-17.52H203.91a17.61,17.61,0,0,0-17.62,17.52v8.94h-13.4V145.86a25.41,25.41,0,0,1,25.41-25.41h41.46a25.41,25.41,0,0,1,25.41,25.41v12.77Z" transform="translate(-40.75 -119.88)"/><path class="cls-3" d="M198.31,121h41.46a24.85,24.85,0,0,1,24.85,24.84v12.2H252.35v-8.39a18.15,18.15,0,0,0-18.16-18.13H203.91a18.16,18.16,0,0,0-18.18,18.13h0V158H173.47V145.86A24.85,24.85,0,0,1,198.31,121Zm0-1.14a26,26,0,0,0-25.95,26V159.2H186.9v-9.53a17,17,0,0,1,17-17H234.2a17,17,0,0,1,17,17v9.53h14.54V145.86a26,26,0,0,0-26-26Z" transform="translate(-40.75 -119.88)"/><path class="cls-4" d="M321.09,147.34H119.65a25.23,25.23,0,0,0-25.22,25.23V278.48a25.23,25.23,0,0,0,25.22,25.22H321.09a25.22,25.22,0,0,0,25.22-25.22V172.57a25.22,25.22,0,0,0-25.21-25.23Z" transform="translate(-40.75 -119.88)"/><rect class="cls-5" x="212.98" y="59.66" width="92.7" height="13.33"/><rect class="cls-5" x="53.62" y="59.66" width="159.36" height="13.33"/><circle class="cls-6" cx="178.71" cy="123.75" r="34.24"/><rect class="cls-7" x="173.45" y="99.91" width="10.72" height="47.71"/><rect class="cls-7" x="195.61" y="238.32" width="47.71" height="10.72" transform="translate(-41.6 -119.12) rotate(-0.2)"/></g></g></svg>