<svg id="Laag_1" data-name="Laag 1" xmlns="http://www.w3.org/2000/svg" viewBox="0 0 609.06 888.49"><defs><style>.cls-1{fill:#69ad28;}.cls-2{fill:#4e801c;}.cls-3{fill:#916037;}</style></defs><path class="cls-1" d="M343.22,565A133.14,133.14,0,0,0,476.36,698.16V334.87C402.83,334.87,343.22,491.48,343.22,565Z"/><path class="cls-2" d="M476.36,334.87V698.16A133.14,133.14,0,0,0,609.5,565C609.5,491.48,549.89,334.87,476.36,334.87Z"/><path class="cls-3" d="M480.8,558.89l11.09,310.66c.37,10.22-6.29,18.87-14.87,19.3s-15.83-7.5-16.19-17.72c0-.52,0-1.07,0-1.58l11.09-310.66c.1-2.92,2.18-5.18,4.63-5.06S480.69,556.18,480.8,558.89Z"/><path class="cls-1" d="M0,369.1C0,487,95.65,582.63,213.63,582.63V0C95.65,0,0,251.17,0,369.1Z"/><path class="cls-2" d="M213.63,0V582.63c118,0,213.62-95.6,213.62-213.53S331.61,0,213.63,0Z"/><path class="cls-3" d="M220.75,359.28l17.8,498.22c.59,16.4-10.1,30.26-23.86,31s-25.4-12-26-28.43c0-.83,0-1.71,0-2.53l17.8-498.22c.17-4.68,3.49-8.32,7.42-8.12C217.65,351.35,220.58,354.94,220.75,359.28Z"/></svg>