<svg id="Laag_1" data-name="Laag 1" xmlns="http://www.w3.org/2000/svg" viewBox="0 0 1216.08 216.8"><defs><style>.cls-1{fill:#ff5e18;}.cls-2{fill:#f1330e;}</style></defs><title>consultatie_bg</title><path class="cls-1" d="M1216.08,216.8H0V66.57S205.22,0,607.94,0s608.14,66.57,608.14,66.57Z"/><path class="cls-2" d="M1102.21,199.89s54.24-19.88,59.66-34.35-25.31-25.31-34.35-18.08S1075.09,187.24,1102.21,199.89Z"/><path class="cls-2" d="M690.28,50.14s24.92-26.46,46-16,47.72,32.77,42,40.07-25.21,12.34-46.44,4.45S690.28,50.14,690.28,50.14Z"/><path class="cls-2" d="M408.07,51.44s15.43,4.83,26.77-4.33,30.3-21,19.89-31-37,7.07-40.67,13.53S408.07,51.44,408.07,51.44Z"/><path class="cls-2" d="M877.79,154.63s15.05,5.92,27-2.41,31.71-18.81,22-29.56-37.36,4.43-41.53,10.61S877.79,154.63,877.79,154.63Z"/><path class="cls-2" d="M508.54,148.73s28.93-10.85,27.12-16.27S515.77,116.19,508.54,118,508.54,148.73,508.54,148.73Z"/><path class="cls-2" d="M80,145.16s43.39-27.12,39.77-43.39S89,81.88,85.38,89.11,80,145.16,80,145.16Z"/><path class="cls-2" d="M377,216.8a1.47,1.47,0,0,0,0-.66c-1.82-9-27.09-43.39-52.4-36.14s-47,9-47,18.08c0,5.78,2.19,13.71,3.78,18.72Z"/></svg>