<svg xmlns="http://www.w3.org/2000/svg" viewBox="0 0 225.88 226.86"><defs><style>.cls-1{fill:#ff5e18}.cls-2{fill:#f1330e}.cls-3{fill:#4c4c4c;opacity:.31}</style></defs><title>Middel 5</title><g id="Laag_2" data-name="Laag 2"><g id="illustraties"><circle cx="112.92" cy="113.31" r="112.92" class="cls-1"/><path d="M48.78,59.69s24-8.79,26.37-15.18S64,33.32,60,36.52,36.8,54.1,48.78,59.69Z" class="cls-2"/><path d="M81.54,90.05s-1.6-16,8-20,24.77-6.4,25.57-2.4-3.2,12-12,16.78S81.54,90.05,81.54,90.05Z" class="cls-2"/><path d="M148.66,70.88c12,1.59,42.35,1.59,41.55-2.4s-12-19.18-23.17-16-20.78,4-20.78,8S148.66,70.88,148.66,70.88Z" class="cls-2"/><path d="M137.47,118s20.78-.8,21.58-4-8-8-12.79-7.19S137.47,118,137.47,118Z" class="cls-2"/><path d="M120.69,174.75s6.4-3.2,7.2-9.59,3.19-16-3.2-16S115.1,162.77,115.9,166,120.69,174.75,120.69,174.75Z" class="cls-2"/><path d="M91.93,199.52s12-5.59,5.59-12-25.57-.8-20.77,3.19S91.93,199.52,91.93,199.52Z" class="cls-2"/><path d="M71.15,164.36s13.59-19.17,10.39-24.77S68,126,61.57,134.8a30.13,30.13,0,0,0-4.8,24.77c1.6,5.59,8.79,8.79,8.79,8.79Z" class="cls-2"/><path d="M37.59,106.83s12.79-4.79,12-7.19-8.79-7.19-12-6.39S37.59,106.83,37.59,106.83Z" class="cls-2"/><path d="M117.5,33.32s16.78-4,16-7.19-17.58-6.39-17.58-6.39S112.7,32.52,117.5,33.32Z" class="cls-2"/><path d="M179,149.18s19.18-12,17.58-19.18-13.58-8.78-15.18-5.59S179,149.18,179,149.18Z" class="cls-2"/><path d="M225.88,112.44c.39,78.7-74.71,126.73-134.16,111.67,0,0,46-47.38,46-110S98.44,1.51,98.44,1.51C158.4-9.42,225.52,40,225.88,112.44Z" class="cls-3"/></g></g></svg>