<svg id="Laag_1" data-name="Laag 1" xmlns="http://www.w3.org/2000/svg" viewBox="0 0 431.08 435.1"><defs><style>.cls-1{fill:#ff8929;}.cls-2{fill:#ff5a39;}.cls-3{fill:#ffb745;}.cls-4{fill:#ffb542;}.cls-5{fill:#4d4d4d;opacity:0.3;isolation:isolate;}</style></defs><title>consultatie</title><path class="cls-1" d="M257.69,181.51c110.9,1.41,182.3,13.42,182.3,13.42l1.75-.54A196.49,196.49,0,0,1,449,233.07l-.62.06s-282.51,0-379-61.43l-2.74-1.1a191.3,191.3,0,0,1,12-23.14l1.5.9S194.09,180.69,257.69,181.51Z" transform="translate(-21.11 -17.92)"/><path class="cls-2" d="M435.91,177.41l-5.4-3.79s-68.88-8.56-130.39-13.11c-87.9-6.5-209.65-29.1-209.65-29.1l-.67-.51a200.27,200.27,0,0,1,37.67-38.28c122.28,48.48,293,60.12,293,60.12l5.19,2.69A197.59,197.59,0,0,1,435.91,177.41Z" transform="translate(-21.11 -17.92)"/><path class="cls-3" d="M390.63,108.81a199.32,199.32,0,0,1,35,46.62l-5.19-2.69s-170.69-11.64-293-60.12A201.08,201.08,0,0,1,162.19,71c95,58,227.22,39.08,227.22,39.08Z" transform="translate(-21.11 -17.92)"/><path class="cls-1" d="M390.63,108.81l-1.22,1.24S257.18,129,162.19,71A200.1,200.1,0,0,1,390.63,108.81Z" transform="translate(-21.11 -17.92)"/><path class="cls-4" d="M367.66,408.59s-126.33,24.55-289.52-57.9l-1.11.65a198,198,0,0,1-15.42-33.11l2.48-.88c221.09,84.23,351,42.1,351,42.1l1.81,1.22A200.13,200.13,0,0,1,369.41,411Z" transform="translate(-21.11 -17.92)"/><path class="cls-1" d="M369.41,411a200.16,200.16,0,0,1-39.25,22.91l-1.1-2.51s-136.86-1.75-182.49-10.51l-.48.79A201.07,201.07,0,0,1,77,351.35l1.11-.65c163.19,82.45,289.52,57.9,289.52,57.9Z" transform="translate(-21.11 -17.92)"/><path class="cls-2" d="M329.06,431.39l1.1,2.51a200.28,200.28,0,0,1-184.07-12.23l.48-.79C192.2,429.64,329.06,431.39,329.06,431.39Z" transform="translate(-21.11 -17.92)"/><path class="cls-3" d="M90.48,131.41s121.75,22.6,209.65,29.1c61.51,4.55,130.39,13.11,130.39,13.11l5.4,3.79c2.18,5.54,4.13,11.22,5.82,17L440,195s-71.4-12-182.3-13.42c-63.6-.82-177.55-33.15-177.55-33.15l-1.5-.9A190.74,190.74,0,0,1,89.81,130.9Z" transform="translate(-21.11 -17.92)"/><path class="cls-3" d="M69.38,171.7c96.49,61.43,379,61.43,379,61.43l.62-.06c.54,5.82.79,11.7.79,17.66,0,0-161.1,22.74-285.68,3.45-92.2-14.27-109.43-26.65-112.2-32.1a198.06,198.06,0,0,1,14.7-51.48Z" transform="translate(-21.11 -17.92)"/><path class="cls-2" d="M51.91,222.08c2.74,5.45,20,17.83,112.17,32.1,124.58,19.29,285.68-3.45,285.68-3.45a199.7,199.7,0,0,1-11.44,66.79l-.51-.17s-274,14.16-387.9-66.62A204.87,204.87,0,0,1,51.91,222.08Z" transform="translate(-21.11 -17.92)"/><path class="cls-1" d="M55.33,285.76c108.78,54.39,373.72,52.64,373.72,52.64l.43.2a192.64,192.64,0,0,1-12.63,22.07L415,359.45s-129.86,42.13-351-42.1l-2.48.88a194.81,194.81,0,0,1-8.56-32.1Z" transform="translate(-21.11 -17.92)"/><path class="cls-4" d="M55.33,285.76l-2.28.37a199.12,199.12,0,0,1-3.14-35.4c113.89,80.78,387.93,66.62,387.93,66.62l.51.17a189,189,0,0,1-8.87,21.08l-.43-.2S164.11,340.15,55.33,285.76Z" transform="translate(-21.11 -17.92)"/><path class="cls-5" d="M452.16,252.3c2.36,131.51-130.25,220.18-237.25,197.05-10.09-2.18,80.36-82.63,80.36-194.11s-69.44-202.6-69.44-202.6C332.54,33.17,449.91,123.48,452.16,252.3Z" transform="translate(-21.11 -17.92)"/><path class="cls-3" d="M41.35,169.37a19.1,19.1,0,0,1,5.26,2.57,15.74,15.74,0,0,1,3.66,3.62A15.4,15.4,0,0,1,52.48,180a20.07,20.07,0,0,1,.88,5,26.44,26.44,0,0,1-.29,5.36,33.49,33.49,0,0,1-1.31,5.5c-.22.68-.45,1.35-.7,2s-.52,1.3-.82,2L21.11,189.67a28.85,28.85,0,0,1,.52-5.3A43.31,43.31,0,0,1,23,179.21a18,18,0,0,1,2.8-5.45,13.72,13.72,0,0,1,4.18-3.64,12.68,12.68,0,0,1,5.28-1.56A15.65,15.65,0,0,1,41.35,169.37Zm-1.5,9.42a9,9,0,0,0-2.36-.49,5.8,5.8,0,0,0-2.22.27,4.87,4.87,0,0,0-1.87,1.15,5.45,5.45,0,0,0-1.3,2.11l13.27,5.26a6.6,6.6,0,0,0-.09-2.66,7.59,7.59,0,0,0-1.05-2.38,8,8,0,0,0-1.77-1.9,8.66,8.66,0,0,0-2.31-1.27Z" transform="translate(-21.11 -17.92)"/><path class="cls-3" d="M69,148.66l-3.53,10.93-5.29-1L58,163.36l4.2,3.26-6,10.1L32.34,155.39l4.87-11.83Zm-15.53,7.71-8-1.83,6.5,5Z" transform="translate(-21.11 -17.92)"/><path class="cls-3" d="M81.16,124.46A10.64,10.64,0,0,1,81.7,128a17.41,17.41,0,0,1-.45,3.77,21.72,21.72,0,0,1-1.19,3.66,21.31,21.31,0,0,1-1.7,3.23,16.46,16.46,0,0,1-4.28,4.53,14.23,14.23,0,0,1-11,2.4,15.5,15.5,0,0,1-5.71-2.34,20.44,20.44,0,0,1-3.77-3.13,19.19,19.19,0,0,1-2.82-3.8A17.74,17.74,0,0,1,49,132.05a16.31,16.31,0,0,1,.14-9.18,17.69,17.69,0,0,1,2.13-4.52c.36-.55.76-1.13,1.22-1.73s.94-1.17,1.45-1.73a15.53,15.53,0,0,1,1.63-1.52,10.33,10.33,0,0,1,1.77-1.16l7,5.32a12.22,12.22,0,0,0-2,1.87,22.57,22.57,0,0,0-1.6,2.15,11.76,11.76,0,0,0-1.46,3.15,8.23,8.23,0,0,0-.29,3.13,6.87,6.87,0,0,0,1,2.88,7.76,7.76,0,0,0,2.43,2.41,8.24,8.24,0,0,0,2.11,1,5.73,5.73,0,0,0,2.19.26,4.91,4.91,0,0,0,2.06-.61,4.57,4.57,0,0,0,1.67-1.61,7.33,7.33,0,0,0,.79-1.64,4,4,0,0,0,.22-1.76L70,127.69l-3.09,4.57-5.63-4q1.77-2.93,3.57-5.84c1.2-2,2.39-3.91,3.57-5.9Z" transform="translate(-21.11 -17.92)"/><path class="cls-3" d="M81.88,86l2.54,15.58,18.06,3.24L97,114.11l-11.73-.88,6.58,6.16-6,7.48-24.46-22,7.43-7.73,6.64,6.8L72.54,92.62Z" transform="translate(-21.11 -17.92)"/><path class="cls-3" d="M110.64,83.51l6.21,8.15-13.19,14.23L82,81.29l8.78-8.11,13,16.65Z" transform="translate(-21.11 -17.92)"/><path class="cls-3" d="M108.87,59.46l18,25.64-7.33,6.37-19.92-24Z" transform="translate(-21.11 -17.92)"/><path class="cls-3" d="M147.39,59c.92,1.46,1.82,2.92,2.68,4.38s1.73,2.92,2.58,4.42l-11.33,6.84q-1.59-3.81-3.31-7.52a64.52,64.52,0,0,0-3.93-7.2c-.1-.17-.28-.44-.53-.81s-.54-.77-.88-1.22-.69-.9-1.08-1.36a11.94,11.94,0,0,0-1.15-1.19,4.57,4.57,0,0,0-1.09-.74.89.89,0,0,0-.88,0,2,2,0,0,0-.88,1.09,3.76,3.76,0,0,0-.13,1.48,7.86,7.86,0,0,0,.39,1.67,15.56,15.56,0,0,0,.69,1.68c.26.55.52,1,.78,1.51s.48.83.66,1.11c1.38,2.34,2.75,4.65,4.14,6.94s2.76,4.61,4.15,7l-9.66,6.66q-3.92-7.12-7.82-14.13t-8-14l8.89-6.23,1.87,3.17a15.24,15.24,0,0,1,.4-2,9.6,9.6,0,0,1,.72-1.85A8.51,8.51,0,0,1,125.79,47a6.61,6.61,0,0,1,1.55-1.31,8.53,8.53,0,0,1,3.24-1.28,7.89,7.89,0,0,1,3.07.14,9.87,9.87,0,0,1,2.88,1.27,17.54,17.54,0,0,1,2.68,2.1,29.78,29.78,0,0,1,2.45,2.65c.78,1,1.52,1.94,2.2,2.92s1.32,2,1.91,2.9S146.91,58.22,147.39,59Z" transform="translate(-21.11 -17.92)"/><path class="cls-3" d="M151.47,34.25l12.35,28.8-8.48,4.73L140.78,40.22Z" transform="translate(-21.11 -17.92)"/><path class="cls-3" d="M184.08,36.16A29.82,29.82,0,0,1,185.24,40q-3.6,1.62-7,3.52l-6.87,3.78A5.75,5.75,0,0,0,174,49.11a4.78,4.78,0,0,0,3.2-.15,6.93,6.93,0,0,0,1.76-1,16.92,16.92,0,0,0,1.73-1.57c.55-.58,1.06-1.17,1.54-1.77s.88-1.15,1.21-1.61l2.65,10.14a10.1,10.1,0,0,1-1.41,1.79A13.9,13.9,0,0,1,183,56.4a16.13,16.13,0,0,1-2,1.21,17.89,17.89,0,0,1-2.06.93,13.08,13.08,0,0,1-4.11.88A12,12,0,0,1,171,59a12.39,12.39,0,0,1-3.43-1.52,14.8,14.8,0,0,1-2.95-2.42,19.4,19.4,0,0,1-2.42-3.14,21.29,21.29,0,0,1-1.79-3.65,24,24,0,0,1-1.14-4.13,21.27,21.27,0,0,1-.34-4.27,17.15,17.15,0,0,1,.58-4.13A14,14,0,0,1,161.1,32a12.52,12.52,0,0,1,2.71-3.13,13.63,13.63,0,0,1,3.95-2.25,11.66,11.66,0,0,1,3.69-.79,10.36,10.36,0,0,1,3.37.4,10.63,10.63,0,0,1,3,1.41,14,14,0,0,1,2.57,2.26,18,18,0,0,1,2.1,2.92A21.14,21.14,0,0,1,184.08,36.16Zm-9,2.12a6.84,6.84,0,0,0-.59-1.18,4.63,4.63,0,0,0-.85-1,2.9,2.9,0,0,0-1.09-.56,2.24,2.24,0,0,0-1.31.11,2.8,2.8,0,0,0-1.34,1,4.78,4.78,0,0,0-.69,1.58,7.28,7.28,0,0,0-.2,1.81,12.14,12.14,0,0,0,.11,1.68l6.14-3Z" transform="translate(-21.11 -17.92)"/><path class="cls-3" d="M211.81,18.06l-7.13,14.09,12.69,13.26-10,4.27-9-7.63,1.7,8.86-9.22,2.53-6.79-32.2,10.56-1.86,1.35,9.41,4.3-10.87Z" transform="translate(-21.11 -17.92)"/></svg>