<svg id="Laag_1" data-name="Laag 1" xmlns="http://www.w3.org/2000/svg" viewBox="0 0 402.29 403.02"><defs><style>.cls-1{fill:#ff8929;}.cls-2{fill:#ff5a39;}.cls-3{fill:#ffb745;}.cls-4{fill:#ffb542;}.cls-5{fill:#4d4d4d;opacity:0.3;}</style></defs><title>Tekengebied 7</title><path class="cls-1" d="M207.78,131.51c110.9,1.41,182.3,13.42,182.3,13.42l1.75-.54a196.11,196.11,0,0,1,7.26,38.68l-.62.06s-282.51,0-379-61.43l-2.74-1.1a191.88,191.88,0,0,1,12-23.14l1.5.9S144.18,130.69,207.78,131.51Z"/><path class="cls-2" d="M386,127.41l-5.4-3.79s-68.88-8.56-130.39-13.11c-87.9-6.5-209.65-29.1-209.65-29.1l-.67-.51A200.51,200.51,0,0,1,77.56,42.62c122.28,48.48,293,60.12,293,60.12l5.19,2.69A197.9,197.9,0,0,1,386,127.41Z"/><path class="cls-3" d="M340.72,58.81a199.58,199.58,0,0,1,35,46.62l-5.19-2.69S199.84,91.1,77.56,42.62A201.32,201.32,0,0,1,112.28,21c95,58,227.22,39.08,227.22,39.08Z"/><path class="cls-1" d="M340.72,58.81l-1.22,1.24S207.27,79,112.28,21A200.1,200.1,0,0,1,340.72,58.81Z"/><path class="cls-4" d="M317.75,358.59s-126.33,24.55-289.52-57.9l-1.11.65A198.35,198.35,0,0,1,11.7,268.23l2.48-.88c221.09,84.23,351,42.1,351,42.1l1.81,1.22A200.08,200.08,0,0,1,319.5,361Z"/><path class="cls-1" d="M319.5,361a200.49,200.49,0,0,1-39.25,22.91l-1.1-2.51s-136.86-1.75-182.49-10.51l-.48.79a201.07,201.07,0,0,1-69.06-70.33l1.11-.65c163.19,82.45,289.52,57.9,289.52,57.9Z"/><path class="cls-2" d="M279.15,381.39l1.1,2.51A200.28,200.28,0,0,1,96.18,371.67l.48-.79C142.29,379.64,279.15,381.39,279.15,381.39Z"/><path class="cls-3" d="M40.57,81.41s121.75,22.6,209.65,29.1c61.51,4.55,130.39,13.11,130.39,13.11l5.4,3.79c2.18,5.54,4.13,11.22,5.82,17l-1.75.54s-71.4-12-182.3-13.42c-63.6-.82-177.55-33.15-177.55-33.15l-1.5-.9A191.16,191.16,0,0,1,39.9,80.9Z"/><path class="cls-3" d="M19.47,121.7c96.49,61.43,379,61.43,379,61.43l.62-.06c.54,5.82.79,11.7.79,17.66,0,0-161.1,22.74-285.68,3.45C22,189.91,4.77,177.53,2,172.08a197.94,197.94,0,0,1,14.7-51.48Z"/><path class="cls-2" d="M2,172.08c2.74,5.45,20,17.83,112.17,32.1,124.58,19.29,285.68-3.45,285.68-3.45a199.61,199.61,0,0,1-11.44,66.79l-.51-.17S113.89,281.51,0,200.73A205,205,0,0,1,2,172.08Z"/><path class="cls-1" d="M5.42,235.76C114.2,290.15,379.14,288.4,379.14,288.4l.43.2a191.58,191.58,0,0,1-12.63,22.07l-1.81-1.22s-129.86,42.13-350.95-42.1l-2.48.88a194.48,194.48,0,0,1-8.56-32.1Z"/><path class="cls-4" d="M5.42,235.76l-2.28.37A199.78,199.78,0,0,1,0,200.73c113.89,80.78,387.93,66.62,387.93,66.62l.51.17a190,190,0,0,1-8.87,21.08l-.43-.2S114.2,290.15,5.42,235.76Z"/><path class="cls-5" d="M402.25,202.3C404.61,333.81,272,422.48,165,399.35c-10.09-2.18,80.36-82.63,80.36-194.11S175.92,2.64,175.92,2.64C282.63-16.83,400,73.48,402.25,202.3Z"/></svg>