<svg id="Laag_1" data-name="Laag 1" xmlns="http://www.w3.org/2000/svg" viewBox="0 0 429.33 436.75"><defs><style>.cls-1{fill:#ff8929;}.cls-2{fill:#ff5a39;}.cls-3{fill:#ffb745;}.cls-4{fill:#ffb542;}.cls-5{fill:#4d4d4d;opacity:0.3;isolation:isolate;}</style></defs><title>consultatie</title><path class="cls-1" d="M257.69,181.51c110.9,1.41,182.3,13.42,182.3,13.42l1.75-.54A196.49,196.49,0,0,1,449,233.07l-.62.06s-282.51,0-379-61.43l-2.74-1.1a191.3,191.3,0,0,1,12-23.14l1.5.9S194.09,180.69,257.69,181.51Z" transform="translate(-22.86 -16.27)"/><path class="cls-2" d="M435.91,177.41l-5.4-3.79s-68.88-8.56-130.39-13.11c-87.9-6.5-209.65-29.1-209.65-29.1l-.67-.51a200.27,200.27,0,0,1,37.67-38.28c122.28,48.48,293,60.12,293,60.12l5.19,2.69A197.59,197.59,0,0,1,435.91,177.41Z" transform="translate(-22.86 -16.27)"/><path class="cls-3" d="M390.63,108.81a199.32,199.32,0,0,1,35,46.62l-5.19-2.69s-170.69-11.64-293-60.12A201.08,201.08,0,0,1,162.19,71c95,58,227.22,39.08,227.22,39.08Z" transform="translate(-22.86 -16.27)"/><path class="cls-1" d="M390.63,108.81l-1.22,1.24S257.18,129,162.19,71A200.1,200.1,0,0,1,390.63,108.81Z" transform="translate(-22.86 -16.27)"/><path class="cls-4" d="M367.66,408.59s-126.33,24.55-289.52-57.9l-1.11.65a198,198,0,0,1-15.42-33.11l2.48-.88c221.09,84.23,351,42.1,351,42.1l1.81,1.22A200.13,200.13,0,0,1,369.41,411Z" transform="translate(-22.86 -16.27)"/><path class="cls-1" d="M369.41,411a200.16,200.16,0,0,1-39.25,22.91l-1.1-2.51s-136.86-1.75-182.49-10.51l-.48.79A201.07,201.07,0,0,1,77,351.35l1.11-.65c163.19,82.45,289.52,57.9,289.52,57.9Z" transform="translate(-22.86 -16.27)"/><path class="cls-2" d="M329.06,431.39l1.1,2.51a200.28,200.28,0,0,1-184.07-12.23l.48-.79C192.2,429.64,329.06,431.39,329.06,431.39Z" transform="translate(-22.86 -16.27)"/><path class="cls-3" d="M90.48,131.41s121.75,22.6,209.65,29.1c61.51,4.55,130.39,13.11,130.39,13.11l5.4,3.79c2.18,5.54,4.13,11.22,5.82,17L440,195s-71.4-12-182.3-13.42c-63.6-.82-177.55-33.15-177.55-33.15l-1.5-.9A190.74,190.74,0,0,1,89.81,130.9Z" transform="translate(-22.86 -16.27)"/><path class="cls-3" d="M69.38,171.7c96.49,61.43,379,61.43,379,61.43l.62-.06c.54,5.82.79,11.7.79,17.66,0,0-161.1,22.74-285.68,3.45-92.2-14.27-109.43-26.65-112.2-32.1a198.06,198.06,0,0,1,14.7-51.48Z" transform="translate(-22.86 -16.27)"/><path class="cls-2" d="M51.91,222.08c2.74,5.45,20,17.83,112.17,32.1,124.58,19.29,285.68-3.45,285.68-3.45a199.7,199.7,0,0,1-11.44,66.79l-.51-.17s-274,14.16-387.9-66.62A204.87,204.87,0,0,1,51.91,222.08Z" transform="translate(-22.86 -16.27)"/><path class="cls-1" d="M55.33,285.76c108.78,54.39,373.72,52.64,373.72,52.64l.43.2a192.64,192.64,0,0,1-12.63,22.07L415,359.45s-129.86,42.13-351-42.1l-2.48.88a194.81,194.81,0,0,1-8.56-32.1Z" transform="translate(-22.86 -16.27)"/><path class="cls-4" d="M55.33,285.76l-2.28.37a199.12,199.12,0,0,1-3.14-35.4c113.89,80.78,387.93,66.62,387.93,66.62l.51.17a189,189,0,0,1-8.87,21.08l-.43-.2S164.11,340.15,55.33,285.76Z" transform="translate(-22.86 -16.27)"/><path class="cls-5" d="M452.16,252.3c2.36,131.51-130.25,220.18-237.25,197.05-10.09-2.18,80.36-82.63,80.36-194.11s-69.44-202.6-69.44-202.6C332.54,33.17,449.91,123.48,452.16,252.3Z" transform="translate(-22.86 -16.27)"/><path class="cls-3" d="M26.83,168.3l8.86,4.15a7.2,7.2,0,0,0-.64,1.19,12.1,12.1,0,0,0-1,4.48,8,8,0,0,0,.49,3,6.67,6.67,0,0,0,1.62,2.49A7.1,7.1,0,0,0,39,185.25a5.11,5.11,0,0,0,2.09.26,3.83,3.83,0,0,0,1.7-.58,4.47,4.47,0,0,0,1.3-1.3,7.17,7.17,0,0,0,.88-1.89,9.24,9.24,0,0,0,.36-1.74,14.7,14.7,0,0,0,.09-1.88c0-.63-.06-1.25-.13-1.87s-.18-1.19-.3-1.73l10,4.12a14.13,14.13,0,0,1,.19,2.1c0,.74,0,1.48,0,2.24a20.4,20.4,0,0,1-.28,2.22,15.13,15.13,0,0,1-.51,2.06,13.63,13.63,0,0,1-6.81,8.16,14,14,0,0,1-5.12,1.46,14.21,14.21,0,0,1-5.59-.65,24.11,24.11,0,0,1-6.73-3.3,18.25,18.25,0,0,1-4.82-5A15.54,15.54,0,0,1,23,181.53a17.43,17.43,0,0,1,.79-7.54A21.94,21.94,0,0,1,25,171,11.07,11.07,0,0,1,26.83,168.3Z" transform="translate(-22.86 -16.27)"/><path class="cls-3" d="M53.44,144.72a16.83,16.83,0,0,1,3.46,2.13,15.94,15.94,0,0,1,2.73,2.78,15.12,15.12,0,0,1,1.9,3.31,14.11,14.11,0,0,1,.94,7.52,14,14,0,0,1-1.18,3.91,14.4,14.4,0,0,1-2.12,3.36,15.07,15.07,0,0,1-2.81,2.56A14,14,0,0,1,53,172a13.77,13.77,0,0,1-3.65.8,15.3,15.3,0,0,1-3.81-.16,14.74,14.74,0,0,1-3.78-1.17,16.5,16.5,0,0,1-3.36-2.07,16.18,16.18,0,0,1-2.71-2.78,16,16,0,0,1-1.92-3.3,14.53,14.53,0,0,1-1-3.64,14,14,0,0,1,0-3.82,13.06,13.06,0,0,1,1.12-3.81A17,17,0,0,1,37.35,147a13,13,0,0,1,10.12-3.82A16.77,16.77,0,0,1,53.44,144.72Zm-3.72,9.52a6.17,6.17,0,0,0-1.87-.54,5.19,5.19,0,0,0-1.85.07,4.18,4.18,0,0,0-1.63.75A3.8,3.8,0,0,0,43.18,156a4.35,4.35,0,0,0-.1,3.68,4.87,4.87,0,0,0,1.06,1.51,5.84,5.84,0,0,0,1.6,1.1,7.34,7.34,0,0,0,1.87.55,5.74,5.74,0,0,0,1.94,0,4.44,4.44,0,0,0,1.71-.71,3.67,3.67,0,0,0,1.23-1.52,4.24,4.24,0,0,0,.43-1.95,4.41,4.41,0,0,0-.43-1.8,5.51,5.51,0,0,0-1.13-1.53A5.93,5.93,0,0,0,49.72,154.24Z" transform="translate(-22.86 -16.27)"/><path class="cls-3" d="M75.23,121.58q2.17,1.41,4.29,2.83t4.2,2.91l-7.35,11q-3-2.79-6.18-5.4a66.23,66.23,0,0,0-6.62-4.86l-.82-.5c-.38-.23-.82-.47-1.32-.74s-1-.52-1.55-.77a12,12,0,0,0-1.55-.58,4.85,4.85,0,0,0-1.3-.21.89.89,0,0,0-.8.37A2,2,0,0,0,55.9,127a3.56,3.56,0,0,0,.51,1.4,7.55,7.55,0,0,0,1.06,1.35A15.49,15.49,0,0,0,58.81,131c.46.38.91.72,1.34,1s.79.55,1.08.73c2.23,1.53,4.47,3,6.69,4.52s4.46,3,6.71,4.54l-5.91,10.12-13.09-9.46q-6.51-4.69-13.2-9.3l5.41-9.42,3,2.07a14.54,14.54,0,0,1-.49-2,9.42,9.42,0,0,1-.13-2,8.64,8.64,0,0,1,.32-1.94,7,7,0,0,1,.85-1.85,8.58,8.58,0,0,1,2.39-2.53,7.94,7.94,0,0,1,2.83-1.18,9.73,9.73,0,0,1,3.15-.07,18.07,18.07,0,0,1,3.32.76,30.18,30.18,0,0,1,3.35,1.36c1.12.54,2.19,1.11,3.23,1.71s2,1.21,3,1.81Z" transform="translate(-22.86 -16.27)"/><path class="cls-3" d="M92.05,101.48a12.63,12.63,0,0,1,3.45,4.33,10.45,10.45,0,0,1,1,4.72,12.56,12.56,0,0,1-1.19,4.79,20.42,20.42,0,0,1-3,4.63,12.05,12.05,0,0,1-1.82,1.69c-.73.56-1.51,1.09-2.33,1.6s-1.64,1-2.45,1.4-1.55.8-2.21,1.1l-6.23-6.58A16,16,0,0,0,81.4,117a19,19,0,0,0,3.48-3.18c.19-.22.4-.5.65-.83a5.24,5.24,0,0,0,.61-1,2.55,2.55,0,0,0,.22-1.06,1.25,1.25,0,0,0-.5-.93,1.09,1.09,0,0,0-.75-.27,2.08,2.08,0,0,0-.85.21,4.27,4.27,0,0,0-.86.57c-.29.23-.56.48-.81.72s-.48.5-.68.73l-.47.56a10,10,0,0,1-2.79,2.35,8,8,0,0,1-3.14,1,7.88,7.88,0,0,1-3.27-.4,9.63,9.63,0,0,1-3.16-1.83,10.47,10.47,0,0,1-3-4,11.23,11.23,0,0,1-.91-4.59,13.16,13.16,0,0,1,.94-4.69,14.9,14.9,0,0,1,2.54-4.26c.48-.58,1-1.15,1.56-1.72A22.62,22.62,0,0,1,72,92.73c.61-.51,1.25-1,1.89-1.42a13.62,13.62,0,0,1,2-1.11l6.56,6.68a28.49,28.49,0,0,0-2.79,1.93,16.76,16.76,0,0,0-2.42,2.33c-.13.15-.3.35-.49.59s-.39.51-.59.8-.37.59-.54.91a4.54,4.54,0,0,0-.37.92,1.72,1.72,0,0,0,0,.84,1.05,1.05,0,0,0,.43.67,1,1,0,0,0,.84.21,2.34,2.34,0,0,0,.9-.44,5.57,5.57,0,0,0,.89-.87c.3-.34.58-.69.85-1l.74-1a8.13,8.13,0,0,1,.6-.73,9.47,9.47,0,0,1,2.73-2,7.78,7.78,0,0,1,3-.77,7.66,7.66,0,0,1,3,.51A10.07,10.07,0,0,1,92.05,101.48Z" transform="translate(-22.86 -16.27)"/><path class="cls-3" d="M99.54,66.3q4.72,6.65,9.61,13t9.9,12.8L112.6,99l-2.1-2.88a4.78,4.78,0,0,1-.16,1.4,6,6,0,0,1-.53,1.35,7.3,7.3,0,0,1-.81,1.21,8.37,8.37,0,0,1-3.55,2.56,9.64,9.64,0,0,1-2.92.57,12.36,12.36,0,0,1-3.06-.27,15.56,15.56,0,0,1-3-1,16.09,16.09,0,0,1-2.7-1.5,13.2,13.2,0,0,1-2.2-1.9c-.94-1-1.89-2.08-2.85-3.21s-1.9-2.27-2.8-3.46-1.77-2.39-2.6-3.61-1.56-2.43-2.22-3.64c1.44-1.2,2.87-2.41,4.31-3.63s2.83-2.48,4.18-3.76l2,3.65c.66,1.22,1.35,2.42,2.06,3.6s1.48,2.34,2.28,3.45a31.93,31.93,0,0,0,2.62,3.21c.21.24.54.57,1,1a10.69,10.69,0,0,0,1.37,1.13,4.93,4.93,0,0,0,1.48.72,1.27,1.27,0,0,0,1.28-.29,2.12,2.12,0,0,0,.64-1.61,6.87,6.87,0,0,0-.47-2.3,17.82,17.82,0,0,0-1.31-2.76c-.56-1-1.19-2-1.87-3s-1.41-2-2.16-3S97,79.26,96.27,78.43,95,76.86,94.39,76.22s-1-1.15-1.33-1.49-.42-.44-.63-.65-.43-.41-.66-.61c.76-.65,1.5-1.3,2.23-2s1.46-1.32,2.19-2c.57-.52,1.13-1,1.69-1.58S99,66.87,99.54,66.3Z" transform="translate(-22.86 -16.27)"/><path class="cls-3" d="M131.14,68.29l5.22,8.82L121.61,89.72l-18.71-27,9.66-7,11,18.05Z" transform="translate(-22.86 -16.27)"/><path class="cls-3" d="M162.66,62l-9.22,6.85L149.69,65l-4.56,2.56,1.53,5.09-10.78,4.73-7-31.16,10.82-6.81Zm-17.13-2.73-5.43-6.12L142.53,61Z" transform="translate(-22.86 -16.27)"/><path class="cls-3" d="M170.78,26.07l3.54,9.08L168.11,38l7.45,20-8.75,4.2-9-19.34-6.18,3-3.92-10.12Z" transform="translate(-22.86 -16.27)"/><path class="cls-3" d="M185.73,21.62,193.52,52l-9.1,3.38L174.25,25.87Z" transform="translate(-22.86 -16.27)"/><path class="cls-3" d="M217.65,28.5a31.07,31.07,0,0,1,.55,4q-3.8,1.06-7.48,2.4l-7.37,2.69a5.68,5.68,0,0,0,2.37,2.2,4.84,4.84,0,0,0,3.18.34,6.35,6.35,0,0,0,1.9-.75,15.64,15.64,0,0,0,1.95-1.29c.63-.48,1.23-1,1.79-1.51s1.05-1,1.45-1.41l1.06,10.44a10.11,10.11,0,0,1-1.66,1.54,13.16,13.16,0,0,1-2,1.21,16.12,16.12,0,0,1-2.14.9,20,20,0,0,1-2.17.59,13.19,13.19,0,0,1-4.2.25,12.28,12.28,0,0,1-3.69-1,12.53,12.53,0,0,1-3.16-2,15.36,15.36,0,0,1-2.55-2.84,19.42,19.42,0,0,1-1.9-3.48,20.93,20.93,0,0,1-1.21-3.87,23.37,23.37,0,0,1-.49-4.27,20.82,20.82,0,0,1,.31-4.26,17.47,17.47,0,0,1,1.21-4,14.36,14.36,0,0,1,2.14-3.47,12.66,12.66,0,0,1,3.16-2.68A13.72,13.72,0,0,1,203,16.55a11.64,11.64,0,0,1,3.77-.21,10.55,10.55,0,0,1,3.27.91,10.7,10.7,0,0,1,2.74,1.86A14,14,0,0,1,215,21.73a17.91,17.91,0,0,1,1.63,3.21A22.51,22.51,0,0,1,217.65,28.5Zm-9.24.72A7.2,7.2,0,0,0,208,28a4.16,4.16,0,0,0-.69-1.11,3,3,0,0,0-1-.72A2.2,2.2,0,0,0,205,26a2.78,2.78,0,0,0-1.49.82,4.58,4.58,0,0,0-.92,1.46,7.38,7.38,0,0,0-.48,1.76,11.61,11.61,0,0,0-.14,1.67l6.52-2Z" transform="translate(-22.86 -16.27)"/></svg>