<svg id="Laag_1" data-name="Laag 1" xmlns="http://www.w3.org/2000/svg" viewBox="0 0 218.35 222.46"><defs><style>.cls-1{fill:#ff5e24;}.cls-2{fill:#d13618;}.cls-3{fill:#4d4d4d;opacity:0.31;isolation:isolate;}</style></defs><title>dagkliniek</title><circle class="cls-1" cx="117.23" cy="120.79" r="101.09"/><path class="cls-2" d="M63.54,73.4S85,65.53,87.15,59.8s-10-10-13.6-7.15S52.81,68.39,63.54,73.4Z" transform="translate(-3.73 -0.61)"/><path class="cls-2" d="M92.87,100.58S91.44,86.27,100,82.7,122.2,77,122.87,80.55s-2.86,10.73-10.73,15S92.87,100.58,92.87,100.58Z" transform="translate(-3.73 -0.61)"/><path class="cls-2" d="M153,83.41c10.73,1.43,37.92,1.43,37.2-2.15S179.42,64.1,169.41,67s-18.6,3.57-18.6,7.15S153,83.41,153,83.41Z" transform="translate(-3.73 -0.61)"/><path class="cls-2" d="M142.94,125.61s18.6-.71,19.31-3.57-7.15-7.16-11.44-6.44S142.94,125.61,142.94,125.61Z" transform="translate(-3.73 -0.61)"/><path class="cls-2" d="M127.92,176.4s5.72-2.86,6.44-8.58,2.86-14.31-2.87-14.31-8.58,12.16-7.86,15S127.92,176.4,127.92,176.4Z" transform="translate(-3.73 -0.61)"/><path class="cls-2" d="M102.17,198.58s10.73-5,5-10.73-22.89-.72-18.59,2.86S102.17,198.58,102.17,198.58Z" transform="translate(-3.73 -0.61)"/><path class="cls-2" d="M83.57,167.1S95.73,150,92.87,145,80.71,132.8,75,140.67a27,27,0,0,0-4.29,22.17c1.43,5,7.87,7.87,7.87,7.87Z" transform="translate(-3.73 -0.61)"/><path class="cls-2" d="M53.53,115.6s11.44-4.29,10.73-6.44-7.87-6.44-10.73-5.72S53.53,115.6,53.53,115.6Z" transform="translate(-3.73 -0.61)"/><path class="cls-2" d="M125.06,49.79s15-3.58,14.3-6.44-15.73-5.72-15.73-5.72S120.77,49.08,125.06,49.79Z" transform="translate(-3.73 -0.61)"/><path class="cls-2" d="M180.14,153.51s17.16-10.73,15.73-17.17-12.16-7.86-13.59-5S180.14,153.51,180.14,153.51Z" transform="translate(-3.73 -0.61)"/><path class="cls-3" d="M222.08,120.62c.35,70.45-66.88,113.45-120.1,100,0,0,41.17-42.41,41.17-98.5S108,21.32,108,21.32C161.68,11.52,221.76,55.81,222.08,120.62Z" transform="translate(-3.73 -0.61)"/><path class="cls-2" d="M5.77,78.75l4.55,2.13a4,4,0,0,0-.33.61c-.09.22-.17.43-.24.65a6,6,0,0,0-.28,1.65,4.17,4.17,0,0,0,.25,1.55,3.58,3.58,0,0,0,.83,1.28,3.68,3.68,0,0,0,1.48.84,2.82,2.82,0,0,0,1.08.14,2.15,2.15,0,0,0,.87-.3,2.37,2.37,0,0,0,.67-.67,3.6,3.6,0,0,0,.45-1,4.94,4.94,0,0,0,.19-.9,7.71,7.71,0,0,0,0-1,7.48,7.48,0,0,0-.07-1c0-.32-.09-.62-.15-.89l5.15,2.12a7.2,7.2,0,0,1,.1,1.07,11.11,11.11,0,0,1,0,1.15,10.44,10.44,0,0,1-.14,1.14,9.67,9.67,0,0,1-.26,1.06,7,7,0,0,1-3.5,4.19,6.94,6.94,0,0,1-2.63.75,7.16,7.16,0,0,1-2.88-.33,12.07,12.07,0,0,1-3.45-1.7A9.27,9.27,0,0,1,5,88.84,7.94,7.94,0,0,1,3.8,85.55a9,9,0,0,1,.4-3.88,13.27,13.27,0,0,1,.63-1.55A5.83,5.83,0,0,1,5.77,78.75Z" transform="translate(-3.73 -0.61)"/><path class="cls-2" d="M19.45,66.62a8.66,8.66,0,0,1,1.78,1.09,8.23,8.23,0,0,1,1.4,1.43,7.59,7.59,0,0,1,1,1.7,7.15,7.15,0,0,1,.5,1.88,6.92,6.92,0,0,1,0,2,7.47,7.47,0,0,1-.6,2,7.28,7.28,0,0,1-1.1,1.73A7.76,7.76,0,0,1,21,79.75a7,7,0,0,1-1.71.89,7.52,7.52,0,0,1-1.88.41A8,8,0,0,1,15.41,81a7.46,7.46,0,0,1-1.95-.61,8.14,8.14,0,0,1-3.11-2.49,8,8,0,0,1-1-1.69,7.75,7.75,0,0,1-.53-1.88,7.56,7.56,0,0,1,0-2,6.7,6.7,0,0,1,.58-2,8.8,8.8,0,0,1,1.79-2.62,6.62,6.62,0,0,1,5.2-2A8.5,8.5,0,0,1,19.45,66.62Zm-1.91,4.89a3.3,3.3,0,0,0-1-.28,2.74,2.74,0,0,0-.95,0,2.3,2.3,0,0,0-.84.39,1.92,1.92,0,0,0-.61.78,2.23,2.23,0,0,0-.23,1,2.31,2.31,0,0,0,.18.91,2.28,2.28,0,0,0,.54.78,2.82,2.82,0,0,0,.83.56,3.82,3.82,0,0,0,1,.29,3,3,0,0,0,1,0,2.29,2.29,0,0,0,.88-.37,2,2,0,0,0,.64-.78,2.28,2.28,0,0,0,.21-1,2.12,2.12,0,0,0-.22-.93,2.56,2.56,0,0,0-.58-.78A3,3,0,0,0,17.54,71.51Z" transform="translate(-3.73 -0.61)"/><path class="cls-2" d="M30.66,54.71c.75.48,1.49,1,2.21,1.46s1.44,1,2.16,1.49l-3.78,5.66c-1.05-1-2.11-1.88-3.18-2.78a33.8,33.8,0,0,0-3.4-2.5l-.42-.25c-.2-.12-.42-.25-.68-.38s-.52-.27-.8-.4a4.86,4.86,0,0,0-.79-.3,2.58,2.58,0,0,0-.67-.11.47.47,0,0,0-.41.2,1,1,0,0,0-.17.69,1.9,1.9,0,0,0,.26.72,3.87,3.87,0,0,0,.55.69c.22.23.45.44.68.64l.69.53.56.37,3.43,2.33c1.15.76,2.3,1.54,3.45,2.33l-3,5.2-6.72-4.87Q17.24,63,13.81,60.65l2.78-4.83,1.56,1.06a7.09,7.09,0,0,1-.25-1,5,5,0,0,1-.07-1,4.87,4.87,0,0,1,.17-1,3.61,3.61,0,0,1,.43-.94,4.41,4.41,0,0,1,1.23-1.3A4,4,0,0,1,21.12,51a5.13,5.13,0,0,1,1.62,0,8.9,8.9,0,0,1,1.7.4,13.72,13.72,0,0,1,1.72.69c.58.28,1.13.57,1.66.88s1,.62,1.52.93Z" transform="translate(-3.73 -0.61)"/><path class="cls-2" d="M39.32,44.37a6.31,6.31,0,0,1,1.77,2.23A5.31,5.31,0,0,1,41.58,49,6.37,6.37,0,0,1,41,51.49a10.54,10.54,0,0,1-1.54,2.37,6.08,6.08,0,0,1-.93.87c-.38.29-.78.56-1.2.82s-.84.5-1.26.72-.79.41-1.13.57l-3.2-3.39a8.25,8.25,0,0,0,2.14-1.11,9.65,9.65,0,0,0,1.79-1.63l.33-.43a2.37,2.37,0,0,0,.31-.53,1.36,1.36,0,0,0,.12-.54.69.69,0,0,0-.26-.49.56.56,0,0,0-.39-.13,1,1,0,0,0-.43.11,2.28,2.28,0,0,0-.45.29c-.14.12-.28.24-.41.37s-.25.25-.35.37l-.24.29a5.22,5.22,0,0,1-1.44,1.21,4.39,4.39,0,0,1-1.61.51,4.1,4.1,0,0,1-1.68-.21,4.79,4.79,0,0,1-1.62-.94,5.44,5.44,0,0,1-1.55-2,5.68,5.68,0,0,1-.46-2.36A6.85,6.85,0,0,1,26,43.78a7.91,7.91,0,0,1,1.31-2.19c.25-.29.51-.58.8-.88a12.06,12.06,0,0,1,.9-.84c.31-.26.64-.5,1-.73a7.44,7.44,0,0,1,1-.57L34.37,42a14.23,14.23,0,0,0-1.44,1,8.26,8.26,0,0,0-1.24,1.19l-.25.31a2.55,2.55,0,0,0-.3.41,4.34,4.34,0,0,0-.28.46,2.27,2.27,0,0,0-.19.48.79.79,0,0,0,0,.43.55.55,0,0,0,.22.34.5.5,0,0,0,.43.11,1.11,1.11,0,0,0,.46-.23,2.35,2.35,0,0,0,.46-.44l.44-.54L33,45a3.5,3.5,0,0,1,.31-.37,4.68,4.68,0,0,1,1.4-1,3.85,3.85,0,0,1,1.52-.39,3.67,3.67,0,0,1,1.55.26A4.91,4.91,0,0,1,39.32,44.37Z" transform="translate(-3.73 -0.61)"/><path class="cls-2" d="M43.18,26.3q2.43,3.42,4.94,6.7c1.67,2.19,3.37,4.38,5.08,6.58l-3.32,3.54-1.07-1.49a2.54,2.54,0,0,1-.09.72,2.91,2.91,0,0,1-.27.69,3.64,3.64,0,0,1-.42.63,3.54,3.54,0,0,1-.5.52,3.9,3.9,0,0,1-1.32.79,4.76,4.76,0,0,1-1.5.29,6,6,0,0,1-1.57-.14,7.28,7.28,0,0,1-1.54-.49,8.19,8.19,0,0,1-1.39-.77,7.24,7.24,0,0,1-1.13-1c-.48-.52-1-1.07-1.46-1.65s-1-1.17-1.44-1.77-.91-1.23-1.33-1.86-.8-1.25-1.14-1.87c.74-.62,1.48-1.24,2.21-1.87s1.46-1.27,2.15-1.93l1,1.88c.33.63.68,1.24,1.05,1.85s.76,1.2,1.17,1.77a16.36,16.36,0,0,0,1.34,1.65l.5.51a5.62,5.62,0,0,0,.71.58,2.32,2.32,0,0,0,.76.37.64.64,0,0,0,.65-.15,1,1,0,0,0,.33-.82,3.59,3.59,0,0,0-.24-1.19A8.85,8.85,0,0,0,44.68,37q-.43-.76-1-1.53t-1.11-1.53c-.38-.5-.75-1-1.11-1.39l-1-1.14-.68-.76c-.11-.12-.21-.23-.32-.33L39.19,30c.39-.33.77-.67,1.14-1s.76-.67,1.13-1,.58-.53.87-.81S42.9,26.59,43.18,26.3Z" transform="translate(-3.73 -0.61)"/><path class="cls-2" d="M59.44,27.32l2.68,4.53-7.59,6.47-9.6-13.86,5-3.6,5.67,9.28Z" transform="translate(-3.73 -0.61)"/><path class="cls-2" d="M75.64,24.1,70.9,27.62l-1.92-2L66.63,27l.79,2.62L61.88,32,58.3,16l5.56-3.5Zm-8.8-1.41-2.79-3.15,1.25,4Z" transform="translate(-3.73 -0.61)"/><path class="cls-2" d="M79.85,5.63l1.82,4.67-3.19,1.48,3.81,10.28-4.5,2.15-4.62-9.94L70,15.79,68,10.6Z" transform="translate(-3.73 -0.61)"/><path class="cls-2" d="M87.53,3.35l4,15.6-4.68,1.73L81.63,5.53Z" transform="translate(-3.73 -0.61)"/><path class="cls-2" d="M104,6.9a15.4,15.4,0,0,1,.28,2c-1.3.36-2.58.77-3.85,1.23l-3.79,1.38a3,3,0,0,0,1.22,1.13,2.53,2.53,0,0,0,1.64.18,3.65,3.65,0,0,0,1-.39,7.84,7.84,0,0,0,1-.66,12,12,0,0,0,.93-.78c.29-.27.53-.51.74-.72l.54,5.37a5.89,5.89,0,0,1-.86.79,6.82,6.82,0,0,1-1,.62,8.22,8.22,0,0,1-1.1.46,11.42,11.42,0,0,1-1.11.3,6.68,6.68,0,0,1-2.16.12,6.07,6.07,0,0,1-1.9-.51,6.58,6.58,0,0,1-1.62-1A8,8,0,0,1,92.56,15a10.12,10.12,0,0,1-1-1.78,10.77,10.77,0,0,1-.62-2A12.14,12.14,0,0,1,90.72,9a10.67,10.67,0,0,1,.16-2.19,9.36,9.36,0,0,1,.62-2A7.4,7.4,0,0,1,92.61,3a6.37,6.37,0,0,1,1.62-1.38A7.23,7.23,0,0,1,96.42.75a6.15,6.15,0,0,1,1.94-.1,5.11,5.11,0,0,1,1.67.47,5.55,5.55,0,0,1,1.41.95,7.31,7.31,0,0,1,1.12,1.35,9.13,9.13,0,0,1,.84,1.65A12.48,12.48,0,0,1,104,6.9Zm-4.75.36A4.45,4.45,0,0,0,99,6.61,2.36,2.36,0,0,0,98.64,6a1.55,1.55,0,0,0-.51-.37,1.07,1.07,0,0,0-.67,0A1.38,1.38,0,0,0,96.7,6a2.46,2.46,0,0,0-.48.75A4,4,0,0,0,96,7.7a6.92,6.92,0,0,0-.07.86l3.35-1Z" transform="translate(-3.73 -0.61)"/></svg>