<svg id="Laag_1" data-name="Laag 1" xmlns="http://www.w3.org/2000/svg" viewBox="0 0 219.03 221.62"><defs><style>.cls-1{fill:#ff5e24;}.cls-2{fill:#d13618;}.cls-3{fill:#4d4d4d;opacity:0.31;isolation:isolate;}</style></defs><title>dagkliniek</title><circle class="cls-1" cx="117.91" cy="119.94" r="101.09"/><path class="cls-2" d="M63.54,73.4S85,65.53,87.15,59.8s-10-10-13.6-7.15S52.81,68.39,63.54,73.4Z" transform="translate(-3.05 -1.46)"/><path class="cls-2" d="M92.87,100.58S91.44,86.27,100,82.7,122.2,77,122.87,80.55s-2.86,10.73-10.73,15S92.87,100.58,92.87,100.58Z" transform="translate(-3.05 -1.46)"/><path class="cls-2" d="M153,83.41c10.73,1.43,37.92,1.43,37.2-2.15S179.42,64.1,169.41,67s-18.6,3.57-18.6,7.15S153,83.41,153,83.41Z" transform="translate(-3.05 -1.46)"/><path class="cls-2" d="M142.94,125.61s18.6-.71,19.31-3.57-7.15-7.16-11.44-6.44S142.94,125.61,142.94,125.61Z" transform="translate(-3.05 -1.46)"/><path class="cls-2" d="M127.92,176.4s5.72-2.86,6.44-8.58,2.86-14.31-2.87-14.31-8.58,12.16-7.86,15S127.92,176.4,127.92,176.4Z" transform="translate(-3.05 -1.46)"/><path class="cls-2" d="M102.17,198.58s10.73-5,5-10.73-22.89-.72-18.59,2.86S102.17,198.58,102.17,198.58Z" transform="translate(-3.05 -1.46)"/><path class="cls-2" d="M83.57,167.1S95.73,150,92.87,145,80.71,132.8,75,140.67a27,27,0,0,0-4.29,22.17c1.43,5,7.87,7.87,7.87,7.87Z" transform="translate(-3.05 -1.46)"/><path class="cls-2" d="M53.53,115.6s11.44-4.29,10.73-6.44-7.87-6.44-10.73-5.72S53.53,115.6,53.53,115.6Z" transform="translate(-3.05 -1.46)"/><path class="cls-2" d="M125.06,49.79s15-3.58,14.3-6.44-15.73-5.72-15.73-5.72S120.77,49.08,125.06,49.79Z" transform="translate(-3.05 -1.46)"/><path class="cls-2" d="M180.14,153.51s17.16-10.73,15.73-17.17-12.16-7.86-13.59-5S180.14,153.51,180.14,153.51Z" transform="translate(-3.05 -1.46)"/><path class="cls-3" d="M222.08,120.62c.35,70.45-66.88,113.45-120.1,100,0,0,41.17-42.41,41.17-98.5S108,21.32,108,21.32C161.68,11.52,221.76,55.81,222.08,120.62Z" transform="translate(-3.05 -1.46)"/><path class="cls-2" d="M13.23,79.31a9.44,9.44,0,0,1,2.68,1.32,7.88,7.88,0,0,1,1.85,1.84,7.51,7.51,0,0,1,1.07,2.25,10.29,10.29,0,0,1,.4,2.55A13.54,13.54,0,0,1,19,90a18.1,18.1,0,0,1-.69,2.82c-.11.35-.23.7-.36,1s-.27.66-.42,1l-14.52-5a15.77,15.77,0,0,1,.27-2.72A21,21,0,0,1,4,84.44a9.6,9.6,0,0,1,1.4-2.81,6.94,6.94,0,0,1,2.08-1.9,6.2,6.2,0,0,1,2.63-.82A7.76,7.76,0,0,1,13.23,79.31Zm1.84,9a3.87,3.87,0,0,0,0-1.36,3.6,3.6,0,0,0-.45-1.21,3.41,3.41,0,0,0-.83-1,3.59,3.59,0,0,0-1.16-.62A5.15,5.15,0,0,0,11.37,84a2.88,2.88,0,0,0-1.11.12,2.27,2.27,0,0,0-.9.59,3.07,3.07,0,0,0-.66,1.13Z" transform="translate(-3.05 -1.46)"/><path class="cls-2" d="M27.45,68.63l-1.81,5.62-2.72-.5-1.15,2.43,2.16,1.68-3.11,5.19-12.2-11L11.12,66Zm-8,4-4.09-.94,3.34,2.54Z" transform="translate(-3.05 -1.46)"/><path class="cls-2" d="M33.71,56.19A5.36,5.36,0,0,1,34,58a8.48,8.48,0,0,1-.23,1.93,10.42,10.42,0,0,1-.61,1.89,10.65,10.65,0,0,1-.87,1.65,8.34,8.34,0,0,1-2.2,2.33A7.4,7.4,0,0,1,27.36,67a7.32,7.32,0,0,1-2.95,0,8,8,0,0,1-2.94-1.21,10,10,0,0,1-1.93-1.61,9.87,9.87,0,0,1-1.45-1.95,9.23,9.23,0,0,1-.91-2.18,8.84,8.84,0,0,1-.3-2.34,8.63,8.63,0,0,1,.38-2.38,8.89,8.89,0,0,1,1.09-2.32c.19-.29.4-.58.63-.89a10.58,10.58,0,0,1,.74-.89,8.93,8.93,0,0,1,.85-.78,5,5,0,0,1,.9-.6l3.6,2.74a5.8,5.8,0,0,0-1,1,11.75,11.75,0,0,0-.83,1.1,6.21,6.21,0,0,0-.75,1.62,4.47,4.47,0,0,0-.15,1.61,3.55,3.55,0,0,0,.52,1.48,4,4,0,0,0,1.25,1.24,4.13,4.13,0,0,0,1.09.5,3.11,3.11,0,0,0,1.12.14A2.71,2.71,0,0,0,27.36,61a2.39,2.39,0,0,0,.86-.82,3.62,3.62,0,0,0,.4-.84,1.94,1.94,0,0,0,.11-.91L28,57.85,26.4,60.2l-2.89-2.05c.61-1,1.22-2,1.84-3s1.22-2,1.83-3Z" transform="translate(-3.05 -1.46)"/><path class="cls-2" d="M34.09,36.42l1.3,8,9.28,1.67-2.84,4.78-6-.45,3.38,3.16-3.06,3.84L23.56,46.12l3.82-4,3.41,3.49-1.51-5.81Z" transform="translate(-3.05 -1.46)"/><path class="cls-2" d="M48.88,35.14l3.19,4.19-6.78,7.31L34.14,34l4.51-4.16,6.71,8.56Z" transform="translate(-3.05 -1.46)"/><path class="cls-2" d="M48,22.79,57.23,36l-3.77,3.28L43.23,26.92Z" transform="translate(-3.05 -1.46)"/><path class="cls-2" d="M67.79,22.55q.7,1.13,1.38,2.25l1.32,2.27-5.83,3.51c-.54-1.3-1.1-2.59-1.69-3.86A34.08,34.08,0,0,0,61,23q-.08-.14-.27-.42L60.23,22c-.17-.23-.36-.46-.56-.69a4.3,4.3,0,0,0-.59-.61,2.48,2.48,0,0,0-.56-.39.45.45,0,0,0-.45,0,1,1,0,0,0-.45.56,1.92,1.92,0,0,0-.07.76,3.55,3.55,0,0,0,.2.86,8.31,8.31,0,0,0,.35.87c.13.28.27.53.4.77s.25.43.34.57c.71,1.21,1.42,2.39,2.12,3.57s1.42,2.37,2.13,3.58l-5,3.41-4-7.26c-1.34-2.4-2.71-4.81-4.11-7.21l4.57-3.2,1,1.63a9.23,9.23,0,0,1,.21-1,4.41,4.41,0,0,1,.94-1.78,3.79,3.79,0,0,1,.8-.68,4.42,4.42,0,0,1,1.67-.65,3.94,3.94,0,0,1,1.57.07,5.22,5.22,0,0,1,1.48.65,9.3,9.3,0,0,1,1.38,1.09,15.12,15.12,0,0,1,1.26,1.36c.4.49.78,1,1.13,1.5s.67,1,1,1.49Z" transform="translate(-3.05 -1.46)"/><path class="cls-2" d="M69.91,9.83l6.33,14.8-4.36,2.43L64.41,12.89Z" transform="translate(-3.05 -1.46)"/><path class="cls-2" d="M86.67,10.82a14.59,14.59,0,0,1,.59,2c-1.23.55-2.43,1.15-3.61,1.8l-3.53,1.94a2.88,2.88,0,0,0,1.38.93,2.45,2.45,0,0,0,1.64-.07,3.46,3.46,0,0,0,.91-.53,8.27,8.27,0,0,0,.88-.81,11.32,11.32,0,0,0,.8-.91c.24-.31.45-.58.62-.82l1.35,5.21a5.21,5.21,0,0,1-.72.92,6.58,6.58,0,0,1-.9.76,8.16,8.16,0,0,1-1,.62,9.78,9.78,0,0,1-1,.48,7,7,0,0,1-2.12.45,6,6,0,0,1-2-.22,6.44,6.44,0,0,1-1.76-.78,8.17,8.17,0,0,1-1.52-1.24,10.51,10.51,0,0,1-1.24-1.62A10.77,10.77,0,0,1,74.51,17a12,12,0,0,1-.59-2.13,10.78,10.78,0,0,1-.17-2.19,8.42,8.42,0,0,1,.3-2.13,7,7,0,0,1,.82-1.92,6.23,6.23,0,0,1,1.39-1.61,6.91,6.91,0,0,1,2-1.16,6.16,6.16,0,0,1,1.9-.4,5.17,5.17,0,0,1,1.73.21,5.63,5.63,0,0,1,1.53.72A7.29,7.29,0,0,1,84.77,7.6a9.25,9.25,0,0,1,1.08,1.5A10.45,10.45,0,0,1,86.67,10.82ZM82,11.91a3.19,3.19,0,0,0-.31-.61,2.15,2.15,0,0,0-.43-.51,1.43,1.43,0,0,0-.56-.29,1.13,1.13,0,0,0-.67.06,1.37,1.37,0,0,0-.69.53,2.28,2.28,0,0,0-.36.81,3.59,3.59,0,0,0-.1.93,7.25,7.25,0,0,0,0,.86l3.16-1.54Z" transform="translate(-3.05 -1.46)"/><path class="cls-2" d="M100.93,1.54,97.26,8.77l6.51,6.82-5.11,2.19-4.6-3.92.87,4.55-4.74,1.3L86.71,3.16l5.43-1L92.83,7,95,1.46Z" transform="translate(-3.05 -1.46)"/></svg>