<svg id="Laag_1" data-name="Laag 1" xmlns="http://www.w3.org/2000/svg" viewBox="0 0 202.21 203.09"><defs><style>.cls-1{fill:#ff5e24;}.cls-2{fill:#d13618;}.cls-3{fill:#4d4d4d;opacity:0.31;}</style></defs><title>Tekengebied 8</title><circle class="cls-1" cx="101.09" cy="101.44" r="101.09"/><path class="cls-2" d="M43.67,53.44s21.46-7.87,23.61-13.6-10-10-13.6-7.15S32.94,48.43,43.67,53.44Z"/><path class="cls-2" d="M73,80.62s-1.43-14.31,7.15-17.88S102.33,57,103,60.59s-2.86,10.73-10.73,15S73,80.62,73,80.62Z"/><path class="cls-2" d="M133.08,63.45c10.73,1.43,37.92,1.43,37.2-2.15S159.55,44.14,149.54,47s-18.6,3.57-18.6,7.15S133.08,63.45,133.08,63.45Z"/><path class="cls-2" d="M123.07,105.65s18.6-.71,19.31-3.57-7.15-7.16-11.44-6.44S123.07,105.65,123.07,105.65Z"/><path class="cls-2" d="M108.05,156.44s5.72-2.86,6.44-8.58,2.86-14.31-2.87-14.31-8.58,12.16-7.86,15S108.05,156.44,108.05,156.44Z"/><path class="cls-2" d="M82.3,178.62s10.73-5,5-10.73-22.89-.72-18.59,2.86S82.3,178.62,82.3,178.62Z"/><path class="cls-2" d="M63.7,147.14S75.86,130,73,125s-12.16-12.16-17.89-4.29a27,27,0,0,0-4.29,22.17c1.43,5,7.87,7.87,7.87,7.87Z"/><path class="cls-2" d="M33.66,95.64S45.1,91.35,44.39,89.2s-7.87-6.44-10.73-5.72S33.66,95.64,33.66,95.64Z"/><path class="cls-2" d="M105.19,29.83s15-3.58,14.3-6.44-15.73-5.72-15.73-5.72S100.9,29.12,105.19,29.83Z"/><path class="cls-2" d="M160.27,133.55s17.16-10.73,15.73-17.17-12.16-7.86-13.59-5S160.27,133.55,160.27,133.55Z"/><path class="cls-3" d="M202.21,100.66c.35,70.45-66.88,113.45-120.1,100,0,0,41.17-42.41,41.17-98.5S88.13,1.36,88.13,1.36C141.81-8.44,201.89,35.85,202.21,100.66Z"/></svg>