<svg xmlns="http://www.w3.org/2000/svg" viewBox="0 0 374.8 375.54"><defs><style>.cls-1{isolation:isolate}.cls-2{fill:#ffb737}.cls-3{fill:#ff5a34}.cls-4{opacity:.65}.cls-5,.cls-7{fill:#4c4c4c}.cls-5{mix-blend-mode:color-dodge}.cls-6{fill:#ff8916}.cls-7{opacity:.3}</style></defs><title>Middel 1</title><g class="cls-1"><g id="Laag_2" data-name="Laag 2"><g id="tekst"><path d="M374.63,187.59c0,103.45-83.86,187.32-187.32,187.32S0,291,0,187.59,83.86.28,187.31.28,374.63,84.14,374.63,187.59Z" class="cls-2"/><path d="M39,258c11.59-2.5,22.59-5.07,33.72-9.33a152.31,152.31,0,0,0,45.17-26.89c9.56-8.14,19.58-15,29.85-22.13,11.55-8,22.75-16.31,33.69-25.17,17.13-13.89,34.3-28.32,54-38.41a145,145,0,0,1,31-11.79c12.12-3,24.57-4.63,36.81-7.09,17.37-3.5,34.6-8,50.62-15.32A187.75,187.75,0,0,0,323,58.46c-3.43,2-6.88,4-10.38,5.9-22.7,12.27-45.89,23.6-67.17,38.31-20.44,14.13-36.32,33-54.51,49.7-18,16.49-39.25,29.43-61.25,39.84a210.54,210.54,0,0,1-34,13c-12.61,3.48-25.45,5.36-38.38,7.16S31,216,18.72,220.56A141.56,141.56,0,0,0,4.2,227.15a185.41,185.41,0,0,0,12,36.75A216.91,216.91,0,0,1,39,258Z" class="cls-3"/><g class="cls-4"><path d="M155.29,283.49c19-16.84,41.34-29.06,64.67-38.91,7.25-3.07,14.6-5.71,21.93-8.53,2.86-1.1,18.3-6.37,14.83-11.68-4.71-7.2-14.79-3.66-21.17-1.29-8.12,3-15.82,7-23.58,10.81-9.28,4.6-19.23,8-29,11.5-12.36,4.4-24.89,8.34-37.62,11.55-27.37,6.92-55.68,9-83.24,15A134.87,134.87,0,0,0,27.07,284.6h0a188.44,188.44,0,0,0,40,46.57c10.18-2.59,20.4-5,30.43-8.16C120.6,315.75,137.57,299.16,155.29,283.49Z" class="cls-3"/><path d="M99.82,308.84c9.32-7,17.77-15.28,28.13-20.8,5.15-2.74,10.49-5.17,15.52-8.14a55.66,55.66,0,0,0,7.54-5.09c2-1.65,5.74-4.28,6.23-6.92.85-4.64-15.43,0-17,.47-6.65,1.88-13.23,4-19.85,6-12.58,3.8-25.17,4.1-38.16,5.36-16.38,1.58-35.95,3-50.94,11.48A188.78,188.78,0,0,0,57.8,322.86c5.24-1,10.55-1.69,15.82-2.54A57.87,57.87,0,0,0,99.82,308.84Z" class="cls-3"/><path d="M291,176.91c-10.21,3.38-21.4,6.35-30.06,13a40.52,40.52,0,0,0-5.92,5.72c-1,1.21-2.35,2.75,0,3.13a37,37,0,0,0,14.82-.48c10.62-2.81,19.9-8.9,30.07-12.86,9.37-3.64,19.73-4.93,29.62-6.5,10.54-1.66,21.11-3.12,31.56-5.28,4.28-.88,8.54-1.89,12.74-3.06a186.83,186.83,0,0,0-7.18-37.15C351.91,145,334,153.07,318.88,163.66,310.19,169.74,301.06,173.59,291,176.91Z" class="cls-3"/><path d="M99.87,345.63c13.51-1.2,27.15.26,40.61-1.54,26.93-3.6,53.15-14.95,77-27.45a497.72,497.72,0,0,0,64.16-40c19.6-14.46,35.07-33.53,56.52-45.47a222.15,222.15,0,0,1,34.27-15.14,189.27,189.27,0,0,0,2.15-26.15c-8.37,5-16.56,10.32-24.77,15.58a428.92,428.92,0,0,1-44.5,24.79,182.84,182.84,0,0,0-54.83,41.2c-7.67,8.35-15.37,16.37-24.67,22.95A154.05,154.05,0,0,1,197,310.39c-22.66,9.65-46.71,15.78-70.12,23.26-12.12,3.87-23.8,8.11-36.68,7.77-3.5-.09-7-.36-10.62-.61,3.22,2.27,6.52,4.41,9.88,6.47A88.84,88.84,0,0,1,99.87,345.63Z" class="cls-3"/><path d="M345.64,265.15c-17.5,16-31.51,34.9-47.5,52.3-6.88,7.49-14.39,14.52-23.08,19.87a129.28,129.28,0,0,1-31.55,13.56c-34.81,10.17-72.2,9.45-107.57,16.86A187.4,187.4,0,0,0,364,249.87C357.66,254.69,351.52,259.77,345.64,265.15Z" class="cls-5"/><path d="M269.37,112.6c8,3.38,19.08-.63,26.77-3,10-3.07,19.77-7.07,30-9.35,8.47-1.9,17.25-1.44,25.92-1.86a187.76,187.76,0,0,0-24.09-34.46C306.93,78.56,283,90.71,269.37,112.6Z" class="cls-6"/><path d="M274,25.71a117.41,117.41,0,0,0-20.72,10.53,206.59,206.59,0,0,0-23.48,18.07c-7,6.09-13.64,12.8-21.17,18.21-14.85,10.66-32.2,15.66-50,18.72-20.48,3.52-43.26,4.32-61.7,14.83C82,114.55,70.41,127.42,59.82,140.66,42.47,162.34,25.67,187.09.38,199.05c.15,2.51.34,5,.6,7.5,21.67-14.16,41.8-30.26,59.53-49.52,15.35-16.67,31.28-32.64,52.24-42.18a100.81,100.81,0,0,1,30.61-8.63c11.85-1.33,23.79-1.81,35.64-3.15,12.15-1.38,24.37-3.74,35.52-9,12-5.61,23-13.38,34.51-20,18.68-10.69,37.58-21,56-32.19A186.15,186.15,0,0,0,284.88,27.7Z" class="cls-3"/><path d="M96.94,231.13c-18.06-4.32-37.61-4.4-55.84-1.27C29.91,231.79,17.83,235,7.74,241a186.23,186.23,0,0,0,7.4,20.44c9.19-3.25,19.07-5.11,28-7.15C61.86,250,83.11,245.59,96.94,231.13Z" class="cls-2"/><path d="M3,181.51a251.6,251.6,0,0,1,23.3-42.46c8.84-13.1,18.25-26.92,30.33-37.28A110.31,110.31,0,0,1,88,83.16c20.31-8.08,42.18-11.51,61.89-21.12,20.91-10.19,40-23.9,61.34-33.14,9.51-4.11,19.8-7.55,30.22-7.95,10.87-.42,21.67,1.09,32.36,2.9l.17,0,2.57-.95A187.55,187.55,0,0,0,248,10.33C217.22,16.76,186.32,23,156.54,33.14c-15.78,5.35-30.91,12.19-46.8,17.24-15.71,5-31.52,9.71-47.07,15.19-8.49,3-17,6.15-25.33,9.79A186.44,186.44,0,0,0,0,187.59c0,.44,0,.88,0,1.32C1,186.44,2,184,3,181.51Z" class="cls-3"/></g><path d="M374.78,188.25C377,312.18,253.75,393.82,154.37,372c0,0,74.65-75.94,74.65-181S165,1.59,165,1.59C266.58-12.36,372.64,66.85,374.78,188.25Z" class="cls-7"/></g></g></g></svg>