<?xml version="1.0" encoding="utf-8"?>
<!-- Generator: Adobe Illustrator 24.0.3, SVG Export Plug-In . SVG Version: 6.00 Build 0)  -->
<svg version="1.1" id="Laag_1" xmlns="http://www.w3.org/2000/svg" xmlns:xlink="http://www.w3.org/1999/xlink" x="0px" y="0px"
	 viewBox="0 0 595.28 841.89" style="enable-background:new 0 0 595.28 841.89;" xml:space="preserve">
<style type="text/css">
	.st0{fill:#0454A3;}
	.st1{fill:#FDFEFE;}
	.st2{fill:#FCFCFC;}
	.st3{fill:#5777B6;}
</style>
<path class="st0" d="M129.48,423.34c0,0-10.33-18.08-16.34-50.64s13.55-29.6,13.55-29.6L129.48,423.34z"/>
<polygon class="st0" points="220.34,540.02 217.53,541.72 212.69,541.51 211.73,540.54 215.84,538.84 "/>
<rect x="210.81" y="509.37" class="st1" width="16.25" height="24.91"/>
<polygon class="st2" points="363.02,207.11 319.42,207.2 273.51,439.74 360.06,439.74 "/>
<path class="st3" d="M349.2,251.59c0.26-5.41,1.93-10.57,2.85-15.86c1.53-8.77,3.44-17.48,5.07-26.24c0.35-1.86,0.85-2.38,2.94-2.39
	c13.01-0.06,25.98,0.54,38.92,1.67c33.79,2.95,67.05,8.4,98.3,22.44c20.84,9.36,38.96,22.24,51.86,41.55
	c11.03,16.5,15.87,34.9,16.54,54.56c0.77,22.96-3.67,45.08-10.61,66.83c-8.37,26.21-20.21,50.87-33.03,75.13
	c-14.19,26.86-28.87,53.44-45,79.2c-18.03,28.78-37.28,56.68-60.8,81.33c-13.88,14.54-29.01,27.59-47.49,36.23
	c-13.44,6.29-27.54,7.29-41.93,5.58c-26.66-3.17-51.36-12.72-75.5-23.91c-30.6-14.19-59.62-31.23-88.03-49.35
	c-21.62-13.79-43.1-27.82-63.17-43.83c-20.76-16.56-39.67-34.91-53.55-57.85c-11.11-18.36-17.1-38.06-15.29-59.74
	c1.63-19.58,9.59-36.68,20.86-52.4c14.46-20.19,32.82-36.41,52.73-50.97c2.68-1.96,3.76-4.05,3.92-7.34
	c1.84-36.28,18.79-63.69,49.2-83.09c21.09-13.45,44.44-21.06,68.65-26.33c20.57-4.48,41.41-6.98,62.42-8.35
	c10.11-0.66,20.22-1.12,30.35-1.27c2.38-0.04,3.62,0.08,2.96,3.19c-0.05,0.23-0.1,0.47-0.15,0.7c-2.01,9.55-3.73,19.17-5.5,28.77
	c-0.97,5.28-1.31,10.68-3.11,15.79c-0.42-2.92,0.56-5.65,1.12-8.43c0.49-2.41,0.14-3.65-2.85-3.58c-4.85,0.11-9.59,0.95-14.39,1.39
	c-10.63,0.96-20.87,3.87-31.08,6.61c-11.81,3.17-23.35,7.28-34.66,12c-10.41,4.34-20.93,8.46-30.9,13.74
	c-7.62,4.03-15.84,6.74-23.24,11.27c-2.78,1.7-4.52,3.96-7.94,4.59c-0.95,0.18-1.57,0.82-1.54,1.42
	c-5.77,3.39-11.82,6.4-16.92,10.81c-4.09,3.53-7.91,7.37-11.85,11.07c-1.41-1.46,0.49-1.81,0.98-2.4c1.54-1.88,3.62-3.33,4.56-6.09
	c-1.97,0.21-3.33,1.15-4.69,1.95c-9.92,5.82-19.42,12.28-28.97,18.67c-2.02,1.35-2.56,3.03-2.66,5.26
	c-0.75,17.44,3.16,34.2,7.65,50.83c0.5,1.84,1.2,3.27,2.56,5.77c1.45,4.87,2.9,9.75,4.35,14.62c-0.36,0.18-1.07,0.28-0.83,0.76
	c2.8,5.67,4.41,11.84,7.17,17.49c9.55,19.51,19.29,38.92,29.69,58.01c3.07,5.63,6.12,7.83,12.2,7.13c2.55-0.29,5.4-0.93,7.92,0.64
	c-7.7-0.01-15.41,0.11-23.11-0.1c-2.83-0.08-3.81,0.9-4.26,3.57c-1.06,6.29-1.5,5.61,4.49,5.46c2.92-0.07,3.23,0.86,2.7,3.46
	c-2.17,10.78-4.14,21.59-6.18,32.4c-1.15,6.12-1.14,5.67,4.98,5.86c2.78,0.08,3.76-0.53,4.24-3.27c1.82-10.5,3.82-20.97,5.95-31.4
	c1.53-7.49,1.67-7.46,9.61-7.05c-0.3,1.3-1.36,0.84-2.14,0.88c-5.68,0.26-5.76,0.28-3.37,5.35c1.09,2.31,2.07,4.83,4.65,6.04
	c-3.51,6.15-5.31,12.72-4.61,19.84c0.64,6.56,4.34,10.14,10.47,10.52c3.6,0.22,6.66-1.02,9.57-2.9c0.54,0.95,0.99,1.95,1.62,2.83
	c2.11,2.92,4.04,5.5,6.24,8.82c-0.05,0.64,0.04,1.34-0.18,1.91c-0.59,3.07,0.47,3.18,2.96,3.18c1.84,0,3.67-0.32,5.5,0.04
	c-1.14,1.48-3.28-0.24-4.42,1.29c3.7,6.83,8.19,13.08,12.68,19.26c6.67,9.19,13.37,18.38,20.47,27.27
	c10.21,12.79,20.89,25.14,32.99,36.13c12.57,11.42,25.45,22.37,42.04,28.05c5.37,1.84,10.92,3.25,16.27,4
	c7.77,1.09,16.08,1.88,23.76-0.99c3.25-1.21,6.77-0.26,9.74-2.12c3.99-2.5,8.71-3.4,12.73-5.9c5.52-3.43,10.9-7.14,15.25-11.92
	c6.6-7.25,11.32-15.8,15.4-24.69c3.93-8.57,6.92-17.49,9.69-26.49c2.61-8.48,4.5-17.13,6.29-25.79c1.26-6.09,2.26-12.25,3.1-18.42
	c0.61-4.48,2.6-8.91,0.91-13.56c1.72-0.12,3.47,0.07,4.98-1.21c2.44-2.09,3.39-5.55,2.25-8.66c-1.28-3.51-4.18-3.34-7.09-3.18
	c2.51-0.94,2.91-3.14,3.11-5.37c0.72-7.96,1.23-15.95,1.83-23.92c0.78-10.27,1-20.6,1.46-30.9c0.57-12.63-0.29-25.29,0.63-37.94
	c0.58-8-0.98-16.02-0.54-24.05c0.05-0.97,0.22-2.07-1.22-2.28c0.03-0.21-0.01-0.46,0.09-0.64c8.76-15.64,17.55-31.25,26.28-46.9
	c11.25-20.17,22.42-40.39,33.69-60.55c1.25-2.24,1.45-3.22-1.69-3.14c-6.83,0.16-13.66,0.12-20.49,0c-2.09-0.04-3.14,0.76-4.07,2.55
	c-8.16,15.7-16.41,31.37-24.64,47.04c-3.88,7.38-7.79,14.74-11.68,22.1c-0.19-1.64,0.62-3.17,0.3-4.87
	c-2.07-10.84-3.88-21.69-6.91-32.36c-4.68-16.51-11.37-31.95-21.54-45.8c-11.1-15.12-25.47-25.82-43.31-31.77
	C351.32,246.99,351.31,247.01,349.2,251.59z"/>
<path class="st0" d="M176.88,510.3c-2.58-1.21-3.56-3.73-4.65-6.04c-2.39-5.07-2.31-5.09,3.37-5.35c0.78-0.04,1.84,0.42,2.14-0.88
	c0,0,0.08-0.04,0.08-0.04c0.49,0.12,0.68-0.06,0.58-0.56l0.03-0.04c1.62-0.8,0.82-2.13,0.72-3.31c0.07-0.35,0.15-0.71,0.22-1.06
	c1.56-2.81,1.56-2.85-0.07-3.91l0,0c-2.52-1.57-5.37-0.93-7.92-0.64c-6.08,0.7-9.13-1.5-12.2-7.13
	c-10.41-19.09-20.14-38.5-29.69-58.01c-2.77-5.65-4.37-11.82-7.17-17.49c-0.24-0.48,0.47-0.58,0.83-0.76
	c0.38,0.53,0.85,1.02,1.14,1.61c5.53,11.44,14.29,19.57,25.71,24.89c12.13,5.65,24.95,6.82,38.1,5.52c15.7-1.55,30-6.81,42.52-16.51
	c18.71-14.49,28.99-33.91,32.71-56.97c2.35-14.53,2.35-28.99-3.81-42.79c-10.76-24.1-33.35-34.1-58.33-33.48
	c-11.47,0.28-22.43,3.04-33.05,7.27c-0.03-0.6-0.05-0.98,0.91-1.16c3.42-0.63,5.79-3.14,8.57-4.85c7.4-4.53,15.63-7.25,23.24-11.27
	c9.98-5.27,20.49-9.39,30.9-13.74c11.31-4.72,22.86-8.84,34.66-12c10.21-2.74,20.45-5.65,31.08-6.61c4.8-0.43,9.54-1.27,14.39-1.39
	c2.98-0.07,3.34,1.18,2.85,3.58c-0.57,2.78-1.54,5.52-1.12,8.43c0,0,0,0.01,0,0.01c-1.12,0.87-0.74,2.09-0.73,3.22
	c0,0-0.01,0.04-0.01,0.04c-1.71,4.27-2.2,8.78-2.49,13.31c0,0,0-0.01,0-0.01c-0.98,1.72-1.53,3.53-1.11,5.53
	c-0.06,0.56-0.11,1.11-0.17,1.67c-1.61,2.23-1.61,4.78-1.41,7.36c-1.91,10.27-3.78,20.55-5.72,30.82
	c-6.04,31.91-12.11,63.81-18.17,95.71c-1.13,5.95-2.24,11.9-3.44,17.83c-0.49,2.43,0.18,3.31,2.8,3.27
	c9.25-0.14,18.52-0.19,27.77,0.02c2.82,0.06,3.32-1.39,3.72-3.47c2.05-10.81,4.11-21.63,6.19-32.44
	c3.47-18.05,6.97-36.1,10.43-54.16c3.67-19.14,7.28-38.28,10.95-57.42c1.2-6.27,2.5-12.51,3.75-18.77c1.06-2.09,1.6-4.29,1.26-6.65
	c0,0,0,0.01,0,0.01c1.04-1.71,1.47-3.54,1.11-5.52c0.07-0.56,0.14-1.13,0.21-1.69c1.01-0.72,0.88-1.72,0.64-2.73c0,0,0-0.01,0-0.01
	c2.11-4.58,2.11-4.6,7.58-2.78c17.84,5.95,32.21,16.65,43.31,31.77c10.17,13.85,16.86,29.29,21.54,45.8
	c3.03,10.67,4.84,21.53,6.91,32.36c0.32,1.7-0.48,3.23-0.3,4.87c-0.32,0.7-0.61,1.41-0.97,2.08c-7.02,12.98-13.42,26.24-18.98,39.92
	c-0.33,0.81-0.11,2.31-1.52,2.06c-1.03-0.18-0.74-1.45-0.85-2.27c-1.69-12.43-3.22-24.88-5.05-37.29
	c-3.61-24.5-7.41-48.97-11.04-73.46c-0.31-2.11-1.15-2.75-3.19-2.72c-6.28,0.1-12.56,0.14-18.84,0c-2.55-0.06-3.18,0.57-2.7,3.21
	c3.17,17.43,6.18,34.89,9.2,52.34c4.83,27.87,9.67,55.73,14.39,83.62c0.44,2.62,1.4,3.51,4.02,3.43c5.72-0.16,11.46-0.16,17.18,0.01
	c2.42,0.07,3.79-0.78,4.95-2.88c4.75-8.68,9.66-17.28,14.51-25.91c0.37-0.16,0.53-0.42,0.37-0.82l0.06-0.07
	c0.51,0,0.68-0.26,0.53-0.73c0.14-0.32,0.29-0.64,0.43-0.96c1.43,0.21,1.27,1.31,1.22,2.28c-0.44,8.04,1.12,16.05,0.54,24.05
	c-0.92,12.65-0.06,25.31-0.63,37.94c-0.46,10.3-0.69,20.64-1.46,30.9c-0.6,7.97-1.12,15.96-1.83,23.92
	c-0.2,2.23-0.61,4.43-3.11,5.37c-4.56,2.84-5.47,5.79-3.39,11.01c0,0.43,0.2,0.67,0.63,0.71l0,0c0.09,0.44,0.35,0.62,0.8,0.56
	c0.61,0.26,1.22,0.51,1.83,0.77c1.69,4.65-0.3,9.08-0.91,13.56c-0.84,6.17-1.84,12.33-3.1,18.42c-1.8,8.66-3.68,17.31-6.29,25.79
	c-2.77,9-5.76,17.92-9.69,26.49c-4.08,8.89-8.8,17.44-15.4,24.69c-4.35,4.79-9.73,8.49-15.25,11.92c-4.02,2.5-8.74,3.4-12.73,5.9
	c-2.98,1.86-6.5,0.91-9.74,2.12c-7.68,2.87-15.98,2.08-23.76,0.99c-5.35-0.75-10.9-2.16-16.27-4
	c-16.58-5.68-29.47-16.63-42.04-28.05c-12.1-10.99-22.78-23.34-32.99-36.13c-7.1-8.89-13.8-18.08-20.47-27.27
	c-4.48-6.18-8.98-12.43-12.68-19.26c1.14-1.53,3.28,0.19,4.42-1.29c0.11-0.12,0.25-0.18,0.42-0.19c1.51-0.76,0.86-2.06,0.82-3.21
	l-0.01,0.01c1.28-0.91,0.81-2.16,0.62-3.34l-0.01,0c1.3-0.95,0.83-2.22,0.62-3.44c-0.08-0.16-0.06-0.32,0.04-0.47
	c1.21-0.69,0.88-1.71,0.61-2.73l0.02-0.08c0.49-0.01,0.7-0.21,0.5-0.71l0.21-0.04c0.35,0.04,0.7,0.08,1.04,0.11l0.24-0.02l0.22,0.11
	c1.75,1.2,3.49,1.2,5.24-0.01c2.13-0.87,4.35-1.61,5.97-3.36c7.86-8.44,10.19-18.47,7.97-29.56c-0.82-4.09-4.93-6.04-9.03-4.99
	c-1.96,0.5-3.61,1.57-5.16,2.83c-0.57,0.02-1.14,0.04-1.72,0.06c0.02-0.64,0.04-1.29,0.06-1.93c0.95-1.13-0.2-1.3-0.79-1.48
	c-2.25-0.69-4.58-0.4-6.86-0.2c-0.98,0.08-2.03,1.09-1.99,1.95c0.15,3.01-1.32,5.7-1.44,8.58c-0.14,3.26-1.01,6.47-1.74,9.49
	c-1.5,6.24-2.65,12.39-2.38,18.8c-0.05,0.4-0.1,0.8-0.14,1.19c0.59,2.67-0.27,2.87-0.25,4.18c-0.04,1.3-0.7,2.13-1.34,3.31
	c-2.61-2.8-4.14-5.9-6.24-8.82c-0.63-0.88-1.09-1.88-1.62-2.83c0,0,0.06-0.06,0.06-0.06c0.48,0.06,0.66-0.12,0.52-0.6l0.15-0.14
	c0.47,0.14,0.65-0.04,0.57-0.51l0.08-0.08c0.5,0.04,0.69-0.2,0.61-0.68c5.2-6.64,7.13-14.26,6.72-22.58
	c-0.36-7.22-4.58-11.12-11.79-10.74C183.62,502.66,180.09,506.24,176.88,510.3z M405.42,536.78c0.46,7.56-5.34,12.53-12.35,10.29
	c-2.3-0.73-2.99-0.01-3.47,1.89c-0.19,0.75-0.41,1.5-0.73,2.19c-0.88,1.92-0.11,2.93,1.78,3.33c8.63,1.84,18.88,0.76,22.59-11.58
	c3.58-11.94,4.87-24.38,7.44-36.55c0.26-1.23-0.08-2.17-1.4-2.58c-6.58-2.05-13.06-2.46-18.96,1.85c-7.38,5.4-12.04,18.9-9.74,27.66
	c1.77,6.75,7.7,8.72,13.18,4.36C404.25,537.26,404.64,536.65,405.42,536.78z M317.08,540.1c0,0.01,0,0.03,0,0.04
	c2.2,0,4.4,0.04,6.6-0.01c6.96-0.16,5.79,1.3,7.41-6.08c0.52-2.35-0.4-2.67-2.3-2.63c-2.97,0.06-5.95-0.08-8.91,0.04
	c-2.65,0.1-2.77-0.61-1.43-2.74c6.05-9.57,11.9-19.27,17.95-28.84c1.71-2.71,2.38-5.61,2.87-8.67c0.27-1.67-0.35-2.16-1.92-2.15
	c-6.71,0.04-13.43,0.02-20.14,0.01c-1.06,0-2.01,0.13-2.27,1.38c-0.41,1.94-0.87,3.86-1.17,5.82c-0.11,0.72-0.38,1.76,1.13,1.72
	c3.23-0.09,6.46,0.68,9.69-0.2c0.58-0.16,1.51-0.15,1.85,0.2c0.72,0.74-0.19,1.35-0.56,1.96c-6.4,10.39-12.75,20.81-19.24,31.15
	c-1.28,2.04-1.84,4.18-2.29,6.46c-0.37,1.88,0.18,2.64,2.17,2.58C310.03,540.02,313.56,540.1,317.08,540.1z M276.86,506.83
	c1.17-3.78-0.8-4.01-3.26-3.79c-0.66,0.06-1.32,0.05-1.98,0.01c-1.96-0.13-2.74,0.55-3.2,2.7c-0.72,3.4-0.84,6.86-1.54,10.25
	c-1.22,5.92-2.34,11.86-3.43,17.81c-1.18,6.42-1.14,6.36,5.58,6.26c2-0.03,2.96-0.58,3.27-2.69c0.64-4.35,1.48-8.68,2.4-12.98
	c0.82-3.85,1.19-7.89,3.51-11.25c1.03-1.5,2.22-3.46,4.39-2.69c2.09,0.75,1.69,2.9,1.39,4.62c-1.11,6.28-2.35,12.54-3.47,18.83
	c-1.11,6.26-1.07,6.13,5.37,6.29c2.44,0.06,3.28-0.85,3.65-3.06c0.97-5.75,2.02-11.49,3.17-17.21c0.71-3.56,1.67-7.09,1.34-10.75
	c-0.41-4.62-3.03-6.79-7.66-6.82C282.72,502.33,280.07,504.42,276.86,506.83z M365.64,517.98c0.65-8.12-1.53-12.97-6.09-14.86
	c-5-2.08-11.58-0.21-15.82,4.5c-0.07,0.08-0.14,0.17-0.21,0.25c-5.67,7.26-7.66,15.5-6.12,24.51c0.77,4.55,3.95,7.36,8.46,8.06
	c6.38,0.98,11.11-1.74,14.63-6.83C363.97,528.59,365.5,522.91,365.64,517.98z M382.05,507.7c-0.27-0.63-0.5-0.91-0.48-1.17
	c0.08-1.76,0.53-3.93-2.34-3.44c-2.27,0.39-5.6-1.91-6.3,2.87c-1.37,9.25-3.2,18.43-4.86,27.64c-1.23,6.83-1.25,6.75,5.78,6.58
	c2.11-0.05,2.86-0.9,3.18-2.85c0.75-4.56,1.56-9.12,2.56-13.63c1.23-5.49,2.8-10.82,9.7-11.68c1.09-0.14,1.3-1.08,1.47-1.96
	c0.29-1.51,0.54-3.03,0.81-4.55c0.57-3.13-0.31-3.87-3.38-2.83C385.63,503.56,383.93,505.58,382.05,507.7z M250.61,540.02
	c4.72-0.01,4.66-0.02,5.54-4.61c1.64-8.63,3.41-17.24,5.02-25.88c1.33-7.14,2.49-6.43-5.24-6.52c-2.13-0.02-3.22,0.56-3.63,2.74
	c-2,10.69-4.08,21.36-6.16,32.03c-0.31,1.57,0.22,2.31,1.84,2.25C248.85,540,249.73,540.03,250.61,540.02z M264.36,492.43
	c0.01-3.07-1.39-4.57-4.3-4.59c-3.18-0.03-5.42,2.33-5.46,5.73c-0.04,3.13,1.56,4.94,4.41,4.99
	C262.28,498.61,264.35,496.24,264.36,492.43z M200.91,539.32c-0.06,0.06,0.25-0.36,0.25,0.25c0,0.54-0.42,0.15-0.42,0.25
	c0.09-0.07,0.22-0.13,0.26-0.22C201.02,539.53,200.94,539.41,200.91,539.32z"/>
<path class="st1" d="M430.75,403.16c-0.14,0.32-0.29,0.64-0.43,0.96c-0.18,0.24-0.36,0.49-0.54,0.73c0,0-0.06,0.07-0.06,0.08
	c-0.38,0.16-0.49,0.44-0.37,0.82c-4.85,8.63-9.75,17.23-14.51,25.91c-1.15,2.1-2.52,2.96-4.95,2.88
	c-5.72-0.17-11.46-0.17-17.18-0.01c-2.61,0.07-3.57-0.82-4.02-3.43c-4.72-27.89-9.56-55.75-14.39-83.62
	c-3.03-17.45-6.03-34.91-9.2-52.34c-0.48-2.64,0.15-3.27,2.7-3.21c6.28,0.14,12.56,0.1,18.84,0c2.04-0.03,2.88,0.61,3.19,2.72
	c3.63,24.49,7.43,48.97,11.04,73.46c1.83,12.41,3.36,24.86,5.05,37.29c0.11,0.82-0.18,2.08,0.85,2.27c1.41,0.25,1.19-1.25,1.52-2.06
	c5.55-13.67,11.96-26.94,18.98-39.92c0.36-0.67,0.65-1.39,0.97-2.08c3.9-7.37,7.81-14.73,11.68-22.1
	c8.23-15.67,16.47-31.33,24.64-47.04c0.93-1.78,1.98-2.58,4.07-2.55c6.83,0.13,13.66,0.16,20.49,0c3.14-0.07,2.94,0.9,1.69,3.14
	c-11.27,20.16-22.44,40.38-33.69,60.55c-8.73,15.65-17.52,31.27-26.28,46.9C430.74,402.7,430.77,402.95,430.75,403.16z"/>
<path class="st0" d="M118.05,384.04c0.25,2.15,0.5,4.3,0.74,6.46c-0.94-3.68-2.07-3.93-2.56-5.77c-4.49-16.63-8.41-33.39-7.65-50.83
	c0.1-2.22,0.64-3.91,2.66-5.26c9.55-6.39,19.05-12.85,28.97-18.67c1.36-0.8,2.72-1.74,4.69-1.95c-0.94,2.76-3.02,4.21-4.56,6.09
	c-0.48,0.59-2.39,0.94-0.98,2.4c-7.62,9.61-13.44,20.18-17.01,31.95c-0.32,1.04-0.29,2.05-0.66,3.08c-1.11,1.65-1.72,3.43-1.35,5.42
	c-0.05,0.39-0.01,0.88-0.07,1.27c-1.35,2.28-1.99,4.66-1.67,7.22c0,0,0,0,0,0c-1.44,1.98-0.97,4.42-1.12,6.55
	C117.2,375.99,116.28,380.12,118.05,384.04z"/>
<path class="st1" d="M176.88,510.33c3.21-4.06,6.74-7.64,12.35-7.93c7.21-0.37,11.44,3.53,11.79,10.74
	c0.41,8.32-1.52,15.93-6.72,22.58c-0.2,0.23-0.41,0.45-0.61,0.68c0,0-0.08,0.08-0.08,0.08c-0.19,0.17-0.38,0.34-0.57,0.51
	c0,0-0.15,0.14-0.15,0.14c-0.17,0.2-0.35,0.4-0.53,0.6c0,0-0.06,0.06-0.06,0.06c-2.91,1.88-5.97,3.12-9.57,2.9
	c-6.12-0.38-9.83-3.96-10.47-10.52C171.57,523.05,173.37,516.48,176.88,510.33z M183.84,516.1c-0.79,0.48-0.81,1.22-0.64,2.01
	l0.01-0.01c-2.16,3.38-1.04,7.25-1.58,10.87c-0.27,1.84,0.48,3.59,2.36,4.27c1.81,0.65,2.73-0.93,3.73-2.07
	c0.57-0.65,1.24-1.28,1.06-2.28l0-0.01c1.48-1.76,1.88-3.83,1.82-6.05l0.01-0.02c1-1.2,0.79-2.59,0.63-3.97
	c0.1-0.99,0.32-1.98,0.26-2.96c-0.13-2.19,0.85-5.21-2.16-5.9c-2.82-0.64-3.68,2.14-4.73,4.17
	C183.92,514.62,183.8,515.32,183.84,516.1L183.84,516.1z"/>
<path class="st1" d="M405.42,536.81c-0.78-0.13-1.17,0.48-1.67,0.88c-5.47,4.36-11.4,2.39-13.18-4.36
	c-2.3-8.76,2.36-22.26,9.74-27.66c5.89-4.31,12.37-3.91,18.96-1.85c1.32,0.41,1.66,1.35,1.4,2.58c-2.57,12.17-3.86,24.61-7.44,36.55
	c-3.7,12.34-13.96,13.42-22.59,11.58c-1.89-0.4-2.65-1.41-1.78-3.33c0.32-0.7,0.54-1.45,0.73-2.19c0.48-1.91,1.18-2.63,3.47-1.89
	C400.08,549.34,405.88,544.37,405.42,536.81z M399.65,526.82c0,0.55-0.01,1.1,0,1.64c0.02,1.63,0.44,3.19,2.09,3.76
	c1.77,0.61,2.86-0.78,3.78-2c1.13-1.5,1.88-3.22,2.24-5.07c0.81-4.08,1.62-8.16,2.36-12.25c0.16-0.9,0.92-2.03-0.15-2.73
	c-1.1-0.71-2.33-0.35-3.42,0.28c-1.36,0.78-2.41,1.93-3.2,3.25C400.97,517.74,399.64,522.1,399.65,526.82z"/>
<path class="st1" d="M317.08,540.13c-3.52,0-7.05-0.08-10.57,0.03c-1.99,0.06-2.54-0.7-2.17-2.58c0.45-2.28,1.01-4.42,2.29-6.46
	c6.49-10.34,12.84-20.75,19.24-31.15c0.38-0.61,1.29-1.23,0.56-1.96c-0.34-0.35-1.28-0.36-1.85-0.2c-3.23,0.89-6.46,0.12-9.69,0.2
	c-1.51,0.04-1.23-1.01-1.13-1.72c0.29-1.95,0.76-3.88,1.17-5.82c0.27-1.26,1.22-1.39,2.27-1.38c6.71,0.01,13.43,0.03,20.14-0.01
	c1.57-0.01,2.18,0.48,1.92,2.15c-0.49,3.06-1.16,5.97-2.87,8.67c-6.05,9.57-11.9,19.27-17.95,28.84c-1.34,2.13-1.22,2.84,1.43,2.74
	c2.97-0.12,5.94,0.02,8.91-0.04c1.9-0.04,2.82,0.28,2.3,2.63c-1.62,7.38-0.45,5.92-7.41,6.08c-2.2,0.05-4.4,0.01-6.6,0.01
	C317.08,540.15,317.08,540.14,317.08,540.13z"/>
<path class="st1" d="M276.86,506.86c3.21-2.41,5.86-4.5,9.56-4.48c4.63,0.02,7.24,2.2,7.66,6.82c0.33,3.66-0.63,7.19-1.34,10.75
	c-1.14,5.72-2.2,11.46-3.17,17.21c-0.37,2.2-1.21,3.12-3.65,3.06c-6.44-0.16-6.48-0.03-5.37-6.29c1.12-6.28,2.36-12.54,3.47-18.83
	c0.3-1.72,0.7-3.87-1.39-4.62c-2.17-0.78-3.36,1.19-4.39,2.69c-2.32,3.36-2.69,7.4-3.51,11.25c-0.92,4.3-1.76,8.63-2.4,12.98
	c-0.31,2.12-1.27,2.66-3.27,2.69c-6.72,0.1-6.76,0.16-5.58-6.26c1.09-5.95,2.21-11.89,3.43-17.81c0.7-3.39,0.82-6.85,1.54-10.25
	c0.45-2.14,1.24-2.83,3.2-2.7c0.66,0.04,1.33,0.05,1.98-0.01C276.06,502.84,278.03,503.08,276.86,506.86z"/>
<path class="st1" d="M365.64,518.01c-0.14,4.92-1.67,10.61-5.15,15.63c-3.52,5.09-8.25,7.81-14.63,6.83
	c-4.51-0.69-7.68-3.51-8.46-8.06c-1.54-9.01,0.45-17.25,6.12-24.51c0.07-0.09,0.14-0.17,0.21-0.25c4.24-4.71,10.82-6.58,15.82-4.5
	C364.1,505.04,366.29,509.89,365.64,518.01z M356.5,515.46c-0.05-2.52-0.03-4.96-2.49-5.58c-2.35-0.6-3.42,1.61-4.32,3.32
	c-2.47,4.66-3.35,9.74-3.38,14.94c-0.01,2-0.05,4.58,2.6,5.09c2.42,0.46,3.31-1.8,4.21-3.5
	C355.56,525.17,355.72,520.04,356.5,515.46z"/>
<path class="st1" d="M382.05,507.73c1.88-2.12,3.58-4.14,6.14-5.01c3.07-1.04,3.95-0.3,3.38,2.83c-0.28,1.52-0.52,3.04-0.81,4.55
	c-0.17,0.87-0.38,1.82-1.47,1.96c-6.9,0.86-8.47,6.19-9.7,11.68c-1.01,4.51-1.82,9.07-2.56,13.63c-0.32,1.96-1.07,2.81-3.18,2.85
	c-7.03,0.16-7.01,0.25-5.78-6.58c1.66-9.21,3.49-18.39,4.86-27.64c0.71-4.78,4.04-2.48,6.3-2.87c2.87-0.49,2.42,1.68,2.34,3.44
	C381.55,506.82,381.78,507.09,382.05,507.73z"/>
<path class="st1" d="M250.61,540.06c-0.88,0-1.76-0.02-2.64,0.01c-1.62,0.06-2.14-0.68-1.84-2.25c2.08-10.67,4.16-21.34,6.16-32.03
	c0.41-2.18,1.49-2.76,3.63-2.74c7.74,0.09,6.57-0.63,5.24,6.52c-1.61,8.64-3.38,17.25-5.02,25.88
	C255.27,540.03,255.33,540.04,250.61,540.06z"/>
<path class="st1" d="M264.36,492.46c-0.01,3.81-2.08,6.18-5.35,6.13c-2.84-0.05-4.44-1.86-4.41-4.99c0.04-3.4,2.28-5.76,5.46-5.73
	C262.96,487.89,264.36,489.39,264.36,492.46z"/>
<path class="st0" d="M217.1,503.6c-9.53-0.21-7.46-1.53-9.26,7.81c-1.82,9.84,73.42,68.93-5.94,29.33
	c-0.27-6.41,0.88-12.56,2.38-18.8c0.73-3.03,1.6-6.23,1.74-9.49c0.12-2.88,1.13-6.03,0.98-9.04c-0.04-0.86,0.92-0.77,1.6-1.49
	c2.24-2.36,6.03-1.38,8.3-0.06C217.48,502.05,218.05,502.47,217.1,503.6z"/>
<path class="st3" d="M179.36,493.06c-0.02-1.3-0.04-2.61-0.07-3.91C180.93,490.21,180.93,490.25,179.36,493.06z"/>
<path class="st3" d="M178.43,497.43c0.08-1.14-0.11-2.33,0.72-3.31C179.24,495.3,180.04,496.62,178.43,497.43z"/>
<path class="st3" d="M210.28,547.83c-0.19-1.22-0.23-2.41,0.62-3.44C211.11,545.62,211.58,546.88,210.28,547.83z"/>
<path class="st3" d="M209.66,551.18c-0.21-1.19-0.19-2.34,0.62-3.34C210.47,549.02,210.94,550.26,209.66,551.18z"/>
<path class="st3" d="M208.85,554.38c0.21-1.09-0.1-2.31,0.82-3.21C209.72,552.31,210.36,553.62,208.85,554.38z"/>
<path class="st3" d="M210.94,543.92c-0.25-1.01-0.15-1.94,0.61-2.73C211.81,542.21,212.14,543.24,210.94,543.92z"/>
<path class="st3" d="M177.82,498.02c0.19-0.18,0.38-0.37,0.58-0.56C178.5,497.96,178.31,498.14,177.82,498.02z"/>
<path class="st3" d="M429.35,405.75c-0.12-0.38-0.01-0.66,0.37-0.82C429.88,405.33,429.72,405.58,429.35,405.75z"/>
<path class="st3" d="M429.78,404.85c0.18-0.24,0.36-0.49,0.54-0.73C430.45,404.6,430.29,404.86,429.78,404.85z"/>
<path class="st0" d="M193.69,536.4c0.2-0.23,0.41-0.45,0.61-0.68C194.38,536.2,194.19,536.44,193.69,536.4z"/>
<path class="st0" d="M193.03,536.99c0.19-0.17,0.38-0.34,0.57-0.51C193.68,536.95,193.51,537.13,193.03,536.99z"/>
<path class="st0" d="M192.36,537.73c0.18-0.2,0.35-0.4,0.53-0.6C193.03,537.6,192.84,537.79,192.36,537.73z"/>
<path class="st3" d="M422.08,538.63c0.41,0.06,0.63,0.29,0.63,0.71C422.28,539.3,422.07,539.06,422.08,538.63z"/>
<path class="st3" d="M422.71,539.34c0.27,0.19,0.53,0.37,0.8,0.56C423.06,539.97,422.79,539.79,422.71,539.34z"/>
<path class="st3" d="M212.27,540.36c0.4-0.49,0.74-0.33,1.04,0.11C212.96,540.43,212.62,540.4,212.27,540.36z"/>
<path class="st3" d="M211.56,541.11c-0.06-0.4,0.1-0.64,0.5-0.71C212.26,540.9,212.05,541.1,211.56,541.11z"/>
<path class="st0" d="M221.21,348.82c-1.13,16.72-4.93,33.47-16.95,47.26c-5.64,6.48-12.81,10.05-21.58,9.27
	c-10.67-0.95-17.65-7.27-19.92-18c-3.08-14.56,0-28.43,5.3-41.93c3.17-8.08,7.66-15.38,14.68-20.75c7.57-5.8,16.03-7.27,24.89-3.67
	c8.75,3.56,11.74,11.35,13.15,19.93C221.16,343.2,221.05,345.55,221.21,348.82z"/>
<path class="st0" d="M184.61,514.14c1.05-2.03,1.91-4.81,4.73-4.17c3.02,0.69,2.04,3.7,2.16,5.9c0.06,0.98-0.17,1.97-0.26,2.96
	c-1.05,1.19-0.69,2.6-0.63,3.97c0,0-0.01,0.02-0.01,0.02c-1.09,1.87-2.04,3.79-1.82,6.05c0,0,0,0.01,0,0.01
	c-1.13,0.49-1.78,0.16-2.66-0.83c-2.58-2.91-3.09-6.3-2.91-9.95c0,0-0.01,0.01-0.01,0.01c0.95-0.44,0.86-1.2,0.64-2.01
	c0,0,0-0.01,0-0.01C184.85,515.74,184.72,514.94,184.61,514.14z"/>
<path class="st0" d="M399.65,526.82c-0.01-4.72,1.32-9.07,3.7-13.11c0.78-1.33,1.83-2.47,3.2-3.25c1.09-0.63,2.33-0.99,3.42-0.28
	c1.08,0.7,0.32,1.83,0.15,2.73c-0.75,4.09-1.55,8.17-2.36,12.25c-0.37,1.85-1.12,3.57-2.24,5.07c-0.92,1.22-2.01,2.61-3.78,2
	c-1.64-0.57-2.06-2.13-2.09-3.76C399.64,527.91,399.65,527.36,399.65,526.82z"/>
<path class="st0" d="M356.5,515.46c-0.78,4.58-0.94,9.71-3.38,14.28c-0.9,1.69-1.79,3.96-4.21,3.5c-2.65-0.51-2.61-3.09-2.6-5.09
	c0.03-5.2,0.91-10.29,3.38-14.94c0.91-1.71,1.97-3.92,4.32-3.32C356.47,510.51,356.45,512.94,356.5,515.46z"/>
<path class="st0" d="M311.89,243.64c0,0,3.16-0.14,4.22,0.06l-8.41,43.09l-2.28-3.27L311.89,243.64z"/>
<path class="st0" d="M353.79,247.93c0,0-2.88-1.29-3.95-1.5l-8.02,43.16l3.32-2.2L353.79,247.93z"/>
<path class="st1" d="M217.1,503.6"/>
<path class="st1" d="M218.76,505.48c0,0-1.42,1.08-1.64,1.4l-0.01-3.28l-0.39,0.41l-0.47,3.21l1.31,0.31l1.62-1.41L218.76,505.48z"
	/>
<path class="st0" d="M204.02,555.82l-1.08-1.3h5.91l2.87-13.97c0,0,6.42,2.87,12.58-2.72s-1.95,6.56-1.95,6.56l-10.55,5.92
	l-3.65,7.1L204.02,555.82z"/>
<path class="st1" d="M219,540.55l-3.51-0.56l-3.08-0.12l-0.76,0.68C211.65,540.55,218.4,540.81,219,540.55z"/>
<path class="st0" d="M173.16,506.24c0,0-15-26.15-18.56-33.14c-3.56-6.99,29.39,15.93,29.39,15.93l-3.06,9.02L173.16,506.24z"/>
<path class="st1" d="M178.48,498.06c-7.95-0.41-8.83-0.44-10.36,7.05c-2.13,10.44-4.13,20.91-5.95,31.4
	c-0.47,2.74-1.46,3.36-4.24,3.27c-6.12-0.18-6.13,0.26-4.98-5.86c2.03-10.8,4.01-21.62,6.18-32.4c0.52-2.59,0.21-3.53-2.7-3.46
	c-5.99,0.15-5.55,0.82-4.49-5.46c0.45-2.67,1.43-3.65,4.26-3.57c7.7,0.22,15.4,0.09,23.11,0.1c0,0,0,0,0,0
	C179.32,490.45,178.48,498.06,178.48,498.06z"/>
<path class="st1" d="M325.36,500.81l0.94-1.42c0,0,1.07-1.22-0.94-1.22c-2,0-10.47-0.15-10.47-0.15l5.52-2.54l7.1,2.27l-0.13,2.61
	L325.36,500.81z"/>
<rect x="179.58" y="508.47" class="st1" width="14.98" height="25.22"/>
<path class="st0" d="M191.76,515.48c-0.78,4.58-0.93,9.71-3.37,14.28c-0.9,1.69-1.79,3.96-4.21,3.5c-2.65-0.51-2.61-3.09-2.6-5.09
	c0.02-5.2,0.9-10.29,3.37-14.95c0.9-1.71,1.97-3.92,4.32-3.32C191.73,510.52,191.71,512.96,191.76,515.48z"/>
<path class="st1" d="M194.63,535.25c0,0-1,1.7-2.49,2.64C190.65,538.83,194.63,535.25,194.63,535.25z"/>
<path class="st0" d="M205.81,559.02c0,0-5.4-8.05-10.5-16.12C190.2,534.82,206.8,550.81,205.81,559.02z"/>
<path class="st3" d="M192.3,537.79"/>
<path class="st0" d="M217.1,503.6l0.01,3.28c0,0,1.27-1.12,1.84-1.57C219.53,504.87,217.1,503.6,217.1,503.6z"/>
<path class="st1" d="M218.76,505.48c1.55-1.26,3.2-2.32,5.16-2.83c4.1-1.05,8.21,0.9,9.03,4.99c2.22,11.09-0.12,21.11-7.97,29.56
	c-1.62,1.74-3.84,2.49-5.97,3.36c-1.75,0-3.49,0-5.24,0.01c0,0-0.22-0.11-0.22-0.11s-0.24,0.02-0.24,0.02
	c-0.3-0.44-0.64-0.6-1.04-0.11c0,0-0.21,0.04-0.21,0.04c-0.4,0.07-0.56,0.31-0.5,0.71c0,0-0.02,0.08-0.02,0.08
	c-0.76,0.79-0.86,1.72-0.61,2.73c-0.1,0.15-0.12,0.31-0.04,0.47c-0.85,1.03-0.81,2.22-0.62,3.44c0,0,0.01,0,0.01,0
	c-0.82,1-0.83,2.15-0.62,3.34c0,0,0.01-0.01,0.01-0.01c-0.92,0.91-0.6,2.13-0.82,3.21c-0.16,0.01-0.3,0.07-0.42,0.19
	c-1.83-0.35-3.66-0.05-5.5-0.04c-2.52,0.01-3.57-0.09-2.96-3.18c0.22-0.58,0.33-1.23,0.38-1.87c0.64-1.18,0.81-2.4,0.84-3.7
	c1.04-1.07,0.94-2.44,0.7-3.8c0.05-0.4,0.3-0.84,0.34-1.24c2.83-9.61,3.7-19.54,5.59-29.33c1.8-9.34-0.27-8.03,9.26-7.81
	c-0.02,0.64-0.04,1.29-0.06,1.94c-0.62,0.49-0.74,1.14,0.07,1.34C218.05,507.11,218.58,506.39,218.76,505.48z M224.17,515.85
	c0-2.29-0.03-4.42-2.13-5.12c-2.18-0.73-3.28,1.21-4.32,2.72c-1.33,1.92-2.03,4.12-2.45,6.4c-0.63,3.45-1.21,6.9-1.81,10.35
	c-0.18,1.04-0.82,2.25,0.49,2.93c1.11,0.58,2.4,0.53,3.49-0.08c1.58-0.88,2.54-2.39,3.37-3.95
	C223.06,524.83,223.6,520.14,224.17,515.85z"/>
<polygon class="st1" points="199.86,551.91 208.78,505.8 210.81,506.2 201.48,552.29 "/>
<polygon class="st1" points="211.73,540.54 208.81,554.54 200.67,554.53 205.78,541.86 "/>
<path class="st0" d="M224.44,516.72c-1.18,4.49-1.78,9.59-4.6,13.93c-1.05,1.61-2.13,3.79-4.5,3.12c-2.6-0.74-2.33-3.31-2.15-5.3
	c0.48-5.18,1.8-10.17,4.67-14.59c1.05-1.62,2.3-3.73,4.6-2.93C224.84,511.78,224.6,514.21,224.44,516.72z"/>
<path class="st0" d="M172.45,505.02l3.73,6.57c0,0,0.09-0.74,1.22-2.01C178.54,508.31,172.45,505.02,172.45,505.02z"/>
<path class="st0" d="M424.42,554.2c0,0,3.47-19.83,5.02-42.66l-10.69,22.1l5.35,19.97L424.42,554.2z"/>
<path class="st1" d="M422.08,538.63c-2.08-5.22-1.17-8.17,3.39-11.01c2.91-0.16,5.81-0.33,7.1,3.18c1.14,3.11,0.19,6.57-2.25,8.66
	c-1.5,1.29-3.25,1.09-4.98,1.21c-0.61-0.26-1.22-0.51-1.83-0.77c-0.27-0.19-0.53-0.37-0.8-0.56c0,0,0,0,0,0
	C422.7,538.92,422.48,538.69,422.08,538.63z"/>
<path class="st1" d="M219,540.55c0,0-2.78,0.88-7.28-0.02S219,540.55,219,540.55z"/>
<path class="st0" d="M190.44,282.25c0,0-30.7,14.2-57.25,31.98s33.95-6.2,33.95-6.2l25.32-18.82L190.44,282.25z"/>
<path class="st0" d="M127.26,418.19c0,0-4.05-4.89-12.43-38.74s6.22-3.26,6.22-3.26l8.44,30.42L127.26,418.19z"/>
<path class="st1" d="M168.13,294.65c10.62-4.23,21.58-6.98,33.05-7.27c24.99-0.62,47.58,9.38,58.33,33.48
	c6.16,13.8,6.16,28.26,3.81,42.79c-3.72,23.06-14.01,42.48-32.71,56.97c-12.52,9.7-26.83,14.96-42.52,16.51
	c-13.14,1.3-25.97,0.13-38.1-5.52c-11.42-5.32-20.18-13.45-25.71-24.89c-0.28-0.58-0.75-1.07-1.14-1.61
	c-1.45-4.87-2.9-9.75-4.35-14.62c-0.25-2.15-0.5-4.3-0.74-6.46c0.18-6.19,0.36-12.38,0.55-18.58l0,0c0.95-2.35,1.56-4.8,1.49-7.31
	c0.05-0.39,0.18-0.71,0.23-1.1c0.95-1.68,1.9-3.56,1.75-5.5c0.37-1.03-0.03-2.04,0.28-3.08c3.57-11.77,9.39-22.34,17.01-31.95
	c3.94-3.7,7.77-7.54,11.85-11.07C156.31,301.05,162.36,298.05,168.13,294.65z M221.21,348.82c-0.16-3.27-0.05-5.62-0.43-7.88
	c-1.41-8.58-4.4-16.37-13.15-19.93c-8.86-3.6-17.32-2.13-24.89,3.67c-7.02,5.37-11.51,12.67-14.68,20.75
	c-5.3,13.5-8.38,27.37-5.3,41.93c2.27,10.73,9.25,17.04,19.92,18c8.78,0.78,15.94-2.79,21.58-9.27
	C216.28,382.29,220.08,365.54,221.21,348.82z"/>
<path class="st1" d="M123.64,344.53c0,0-15.51,40.99,3.59,67.52C146.34,438.59,123.64,344.53,123.64,344.53z"/>
<polygon class="st3" points="323.06,207.2 322.15,211.5 319.42,207.2 "/>
<polygon class="st3" points="356.83,211.07 357.53,207.12 360.41,207.11 "/>
<polygon class="st1" points="216.49,503.6 217.49,503.6 217.11,506.88 216.24,506.81 "/>
<polygon class="st1" points="208.62,506.64 209.21,503.35 213.09,503.45 "/>
<polygon class="st1" points="203.04,554.54 199.37,554.54 200.46,548.81 "/>
<polygon class="st1" points="167.84,506.5 169.68,498.06 178.48,498.06 170.07,495.77 167.84,496.93 "/>
<polygon class="st0" points="169.81,500.39 169.35,499.58 169.68,498.06 178.48,498.06 "/>
<polygon class="st3" points="168.01,505.64 169.35,499.58 170.16,501 "/>
<polygon class="st3" points="158.91,502.61 159.74,498.06 151.29,498.06 "/>
<polygon class="st1" points="157.31,489.07 152.27,489.01 151.03,498.06 153.14,498.06 "/>
<polygon class="st1" points="162.67,533.69 161.56,539.97 151.85,539.97 153.26,532.3 "/>
<circle class="st1" cx="427.12" cy="534.11" r="6.92"/>
<path class="st0" d="M382.62,507.03c0,0-0.02,0.22-1.11,1.19l0.14-3.32l0.07-1.63l0.98,0.59L382.62,507.03z"/>
<polygon class="st1" points="371.75,513.3 373.38,502.83 382.2,503.07 381.51,508.22 "/>
<polygon class="st0" points="202.1,540.35 201.72,542.33 199.97,539.55 200.59,539.43 "/>
</svg>
