<svg xmlns="http://www.w3.org/2000/svg" id="Laag_1" data-name="Laag 1" viewBox="0 0 147.73 262.39"><defs><style>.cls-1{fill:#d6906c}.cls-2{fill:#e10514}.cls-3{fill:#891818}.cls-4{fill:#fff}.cls-5{fill:#22b3bd}.cls-6{fill:#1c1c1b}.cls-7{fill:#8bbc26}.cls-8{fill:#4f732b}.cls-9{fill:#865232}.cls-10{fill:#513d14}.cls-11{fill:#f19ca4}.cls-12{fill:#f19b99}.cls-13{fill:#e64e6b}</style></defs><title>olivia</title><path d="M13.18,91.25C21.81,80.7,26.94,73.14,26.94,73.14s-7.13-2.07-11.55.78a44.34,44.34,0,0,1,12.19-25,39.11,39.11,0,0,0-12.69.57C25.89,29.85,34,25.66,34,25.66s-2.18-2.49-7.63-2.22c9.84-4.71,16.44-3.52,16.44-3.52s-2.72-1.31-7.57-11.78c8.43,4.32,23.42,7.54,23.42,7.54s-1.17-4.43-8.55-9c19-1.39,26.68,4.06,26.68,4.06S76.79,6.38,71,.5C78.77,1.86,84.36,12,85,13.15,84.64,12.46,83,8.49,85,0c3.13,8.84,11.4,15.54,11.4,15.54S94.18,5.84,90.17,0c17.57,7.34,21.53,19.53,21.53,19.53s2.64-1.78,4.56-11.55c9.42,24,4.93,29.43,4.53,29.85.26-.25,2.5-2.22,10.1-3.27C117.21,52.45,113.78,65,113.78,65c-.56,12.28-.24,22.56-22.11,25.86L91,95.39,72,145.81,63.79,128a157.06,157.06,0,0,0-8.12,22.6C45.62,138,44.83,130.17,44.83,130.17s-4.35,6.88-7.13,20.39c-10.05-19.5-8.41-31.8-8.41-31.8s-2.28-.21-6.56,3.85C21.34,99.94,25.44,92.3,25.44,92.3A32.82,32.82,0,0,1,13.18,91.25Z" class="cls-1"/><path d="M119.79,136.45l-7.71-2.5a1.59,1.59,0,0,0-2,.58l-3.23,5.11a1.51,1.51,0,0,0,.09,1.73l13,16.41a1.58,1.58,0,0,0,2.2.25l5.75-4.5a1.48,1.48,0,0,0,.55-1.49L127,145.13a1.56,1.56,0,0,0-1.48-1.21l-2.91-.08s0-4-.55-5.33A4.1,4.1,0,0,0,119.79,136.45Z" class="cls-1"/><path d="M105,103l.28.23.34.26.67.57c.45.38.91.78,1.35,1.18.9.8,1.77,1.63,2.62,2.48a54,54,0,0,1,4.7,5.3c.7.91,1.36,1.84,2,2.78a25.39,25.39,0,0,1,1.54,2.82,11.59,11.59,0,0,1,1.23,5.21l.16-.76a8.19,8.19,0,0,1-1.18,2.71,15,15,0,0,1-2.46,2.68c-1.06.95-2.35,2-3.65,3.28a20.49,20.49,0,0,0-3.58,4.59,4,4,0,0,0,6.76,4.19l.07-.11a12.58,12.58,0,0,1,2.39-2.55c1-.83,2.19-1.67,3.53-2.69a24.15,24.15,0,0,0,4.14-3.88,17.55,17.55,0,0,0,3-5.57l.08-.25.07-.5a18.19,18.19,0,0,0,0-5.32,24,24,0,0,0-1.21-4.74,35.57,35.57,0,0,0-1.86-4.2c-.7-1.33-1.45-2.59-2.23-3.81a66.45,66.45,0,0,0-5.14-6.82C117.63,99,116.69,98,115.72,97c-.48-.51-1-1-1.47-1.51l-.77-.75-.4-.38-.45-.42-.22-.19a6,6,0,0,0-8.08,8.79A6.34,6.34,0,0,0,105,103Z" class="cls-1"/><path d="M61.91,174.89l-2.73,29.33L57.85,218.9l-.65,7.35-.31,3.68-.15,1.85-.14,1.9a3.84,3.84,0,0,0,7.63.82v-.1l.24-1.76.27-1.81.54-3.62,1.12-7.27,2.27-14.53,4.61-29.08h0A5.75,5.75,0,0,0,62,174.52C61.93,174.64,61.92,174.77,61.91,174.89Z" class="cls-1"/><path d="M100.21,165l8.2,58.53h0a3.84,3.84,0,0,0,7.63-.82l-4.42-59a5.74,5.74,0,0,0-11.45.86C100.18,164.71,100.19,164.84,100.21,165Z" class="cls-1"/><path d="M65.27,134.22l-9.4-37.54a3.5,3.5,0,0,1,1.51-3.81c3.17-2,10.68-5.17,26.83-5.17,16.5,0,24,3.27,27,5.3a3.48,3.48,0,0,1,1.49,3.52l-6.48,36.86a3.5,3.5,0,0,0,1,3.15c14.95,14.32,26.89,41.64,26.89,63.6,0,7.26-16.13,3.49-18.43,4.56s-21.42,3.59-31.06.81c-4.44-1.29,1-4.33-1.92-3.64s-1.13,3.78-5.14,4.22a37.17,37.17,0,0,1-18.39-2.62c-2.13-.84-1.22-2-3.31-2.62-3.46-1-5.42-.05-8.24-1.6-7.25-4-8.32-.37-8.32-5.38,0-22.2,10.23-43.91,24.73-56.08A3.52,3.52,0,0,0,65.27,134.22Z" class="cls-2"/><path d="M72.45,149.1c-4.6,5.28-7.07,12.05-8.37,18.85-.72,3.76-1.16,7.56-1.54,11.37a61.19,61.19,0,0,1-2.2,10.27c-.54,1.93-1.09,3.86-1.56,5.81-.22.91-.42,1.84-.58,2.77-.09.46-.12.94-.25,1.39s-.27.91-.41,1.37c-.2.64-1.27.75-1.41,0A8.27,8.27,0,0,1,56,198.4c.12-.92.28-1.84.46-2.76.35-1.77.8-3.53,1.29-5.27a87.29,87.29,0,0,0,2.58-10.31c.29-1.89.47-3.8.75-5.69s.61-3.83,1-5.73a46.14,46.14,0,0,1,3.5-10.42A29.23,29.23,0,0,1,72.39,149a0,0,0,1,1,.06.07Z" class="cls-3"/><path d="M106.71,152.57l.49,1.34c.17.46.41.87.58,1.33.34.89.73,1.77,1,2.67.62,1.81,1.23,3.61,1.85,5.41a108.14,108.14,0,0,1,3.11,10.6c.83,3.62,1.4,7.3,1.91,11,.42,3,.85,6,1.09,9q.18,2.31.18,4.62c0,.91,0,1.82-.1,2.72a11.19,11.19,0,0,1-.5,3.06c-.22.62-1.29.78-1.42,0a33.4,33.4,0,0,1-.11-5.2c0-1.39,0-2.78-.14-4.17-.2-2.84-.61-5.67-1-8.49-.45-3.6-1-7.19-1.66-10.74s-1.69-7.22-2.72-10.79l-1.74-6c-.6-2.06-1-4.17-1.54-6.24a.34.34,0,0,1,.65-.18Z" class="cls-3"/><path d="M89.81,164c.25,1.42.44,2.84.58,4.28s.34,2.77.45,4.16a43.24,43.24,0,0,1-.12,7.8,68.35,68.35,0,0,1-3.38,15.07c-.5,1.46-1,2.91-1.59,4.36-.3.78-.63,1.56-1,2.33a11.23,11.23,0,0,1-1.17,2.29.52.52,0,0,1-.94-.4A22.76,22.76,0,0,1,84,199.7c.46-1.3.94-2.59,1.38-3.89.84-2.48,1.66-5,2.32-7.49a69.19,69.19,0,0,0,2.13-14.89c.06-1.49.13-3,.09-4.49,0-1.65-.26-3.3-.43-4.94,0-.21.32-.25.36-.05Z" class="cls-3"/><path d="M86.19,156.39a64.06,64.06,0,0,1,.78,9.08c.08,3.07.2,6.14.06,9.22a99.31,99.31,0,0,1-2.64,18.39,57,57,0,0,1-3.16,9.9c-.27.6-1.14.15-1-.43.63-3,1.41-5.93,2.11-8.9s1.27-5.9,1.76-8.88.87-6,1.16-9,.61-6,.72-9c.12-3.44,0-6.88-.06-10.32,0-.16.26-.2.29,0Z" class="cls-3"/><path d="M99.19,133.13A34.06,34.06,0,0,1,88,135a76,76,0,0,1-11.48-.73A28.06,28.06,0,0,1,70.14,133l.3-.7a5.36,5.36,0,0,0,1.29.83c.53.2,1.07.42,1.63.57,1,.27,2,.63,3,.94s2,.59,3,.88,2.12.6,3.19.88a87.4,87.4,0,0,0,12.54,2.25c1.21.13,2.42.24,3.63.35l1.82.17c.62.06,1.2.22,1.82.24a.28.28,0,0,1,.08.55c-.47.17-.89.46-1.35.65s-.91.37-1.38.52a26,26,0,0,1-2.76.72,42.11,42.11,0,0,1-5.8.79,63.94,63.94,0,0,1-11.82,0A21,21,0,0,1,72.86,141c-.69-.33-.17-1.27.48-1.15,1.87.33,3.71.73,5.59,1s3.83.32,5.75.36a87.79,87.79,0,0,0,11.23-.43c1-.12,2-.29,3.07-.51.53-.12,1.06-.23,1.59-.37a9.24,9.24,0,0,0,1.66-.45l.14.52c-.56,0-1.1.12-1.65.16s-1.11,0-1.66,0c-1.07,0-2.15-.07-3.22-.17-2.17-.19-4.33-.5-6.48-.88s-4.22-.84-6.3-1.39c-1.07-.28-2.13-.59-3.18-.92a28.17,28.17,0,0,1-3-1.05,35,35,0,0,1-3.33-1.41c-.53-.29-1.07-.54-1.62-.8a7.75,7.75,0,0,0-1.78-.52c-.44-.09-.3-.72.11-.75a29.05,29.05,0,0,1,5.58.39c1.87.22,3.74.43,5.62.59a75.57,75.57,0,0,0,11.26.14c2.12-.14,4.23-.46,6.33-.77a.28.28,0,0,1,.15.54Z" class="cls-3"/><path d="M45.48,259.05l0,0a2.15,2.15,0,0,1-.14-.26l0-.05a3.24,3.24,0,0,1-.13-.33.19.19,0,0,1,0-.08A3.37,3.37,0,0,1,45,258v0c0-.12-.06-.25-.08-.38a.36.36,0,0,1,0-.1l-.06-.4s0-.06,0-.08l0-.35a.45.45,0,0,1,0-.11c0-.13,0-.27,0-.4a.57.57,0,0,1,0-.13v-.43a1.7,1.7,0,0,0,.47.49c6.08,4.57,22.6,3.55,25,.46,0,.13,0,.27,0,.4h0c0,.14,0,.27,0,.41h0c0,.13,0,.25-.07.38v.05a2.91,2.91,0,0,1-.12.39v0l-.15.36,0,.08c-.06.13-.13.26-.2.4v0l-.23.38-.06.1-.28.41c-2.11,2.89-17.47,3.85-23.1-.39a1.24,1.24,0,0,1-.22-.18l-.05-.05A1.41,1.41,0,0,1,45.48,259.05Z" class="cls-4"/><path d="M115,248l.42.07a22.34,22.34,0,0,1,7,1.63c3.67,1.64,17.82,2.75,24.49,1.1a3.1,3.1,0,0,0,.78-.31,8.45,8.45,0,0,1-.09,1.22,2.81,2.81,0,0,1-2.1,2.36c-6.26,1.54-19.53.5-23-1a20.78,20.78,0,0,0-6.62-1.52,2.66,2.66,0,0,0-.39-.07l-10.39-1a2.81,2.81,0,0,1-2.52-2.58c0-.42-.07-.9-.09-1.42a2.87,2.87,0,0,0,1.37.49Z" class="cls-4"/><path d="M45.42,256.18a1.87,1.87,0,0,1-.48-.49,23.5,23.5,0,0,1,.24-2.4,2.12,2.12,0,0,1,.25-.6c3.6-5.78,5.94-10.13,6.77-16.3a2.17,2.17,0,0,0,0-.36c-.22-7.41-.11-11.37-.24-18.47a2.09,2.09,0,0,1,2.22-2.12,143.61,143.61,0,0,1,15.18,2.08,2.09,2.09,0,0,1,1.62,2.6,148.62,148.62,0,0,0-3.82,17.18c0,.11,0,.21,0,.32,0,9.28,2.39,13.69,3.1,17.8a11.81,11.81,0,0,1,.15,1.22C68,259.73,51.5,260.75,45.42,256.18Z" class="cls-2"/><path d="M103.17,215.77l16.22-.38a2.81,2.81,0,0,1,2.79,2.64l.54,12.91a2.85,2.85,0,0,0,.68,1.66c1.46,1.71,4.66,6.47,9.89,8.87a2.78,2.78,0,0,0,1,.25c9.71.51,13.44,4.09,13.43,8.77a3.1,3.1,0,0,1-.78.31c-6.67,1.65-20.82.54-24.49-1.1a22.34,22.34,0,0,0-7-1.63L115,248,103.92,247a2.87,2.87,0,0,1-1.37-.49c-.16-3.29,0-8.32,1.29-11.49,0-.05,0-.11,0-.17a2.32,2.32,0,0,1-.63-.62,1.31,1.31,0,0,1-.14-1.17,2.72,2.72,0,0,1,.69-.93c-.34-2.06-1.22-5.05-2-7.92-.35-1.21-.68-2.39-1-3.47a0,0,0,0,1,0,0c-.13-.51-.25-1-.35-1.46A2.81,2.81,0,0,1,103.17,215.77Z" class="cls-2"/><path d="M70.19,257.31h0Z" class="cls-4"/><path d="M70.24,256.9h0Z" class="cls-4"/><circle cx="110.49" cy="240" r="4.59" class="cls-5"/><path d="M125.78,235.41a7.19,7.19,0,0,1-1.86-.44,4.42,4.42,0,0,0-1.66,0,5.11,5.11,0,0,0-1,.25c-.22.07.22-.12-.13,0l-.22.11c-.16.08-.31.18-.47.28s.1-.08,0,0a.8.8,0,0,0-.17.15,2.5,2.5,0,0,0-.33.32s-.16.21-.09.1,0,.09-.07.11-.07.14-.11.2,0-.13,0,.08a2.31,2.31,0,0,1-.41.71,1.76,1.76,0,0,1-.29.24c-.46.27-.29.11-.18.06a1.07,1.07,0,0,1-1.43-.72,2.66,2.66,0,0,1,.83-2.4,5.47,5.47,0,0,1,4.11-1.8,5.35,5.35,0,0,1,2.43.68,3.77,3.77,0,0,1,.92.66,1.47,1.47,0,0,1,.48,1,.33.33,0,0,1-.32.32Z" class="cls-4"/><path d="M129.3,238.87a3.51,3.51,0,0,0-.9-.29,5.85,5.85,0,0,0-.92-.14,6.44,6.44,0,0,0-2.27.24,4,4,0,0,0-1,.44,3,3,0,0,0-.81.62c-.07.08-.14.15-.2.23.07-.09,0,0,0,.06l-.15.26s-.13.24-.07.11c-.08.18-.11.38-.18.56a2.54,2.54,0,0,1-.16.38s-.14.23-.11.16a.93.93,0,0,1-1.77,0,3.2,3.2,0,0,1,.94-3.24,5.3,5.3,0,0,1,3-1.59,8.13,8.13,0,0,1,3.26,0,2.54,2.54,0,0,1,2,1.79.36.36,0,0,1-.53.41Z" class="cls-4"/><path d="M132.85,241.44h0a.45.45,0,0,1-.11,0,2.89,2.89,0,0,1-.29,0c-.14,0-.27.08-.42.1a9.08,9.08,0,0,1-1.28,0l-.56,0h0l-.11,0-.26,0-.46.14c.13,0,0,0-.09,0l-.24.12-.17.12c.12-.09,0,.05-.07.07a1.8,1.8,0,0,0-.19.2s-.09.12,0,0a7.08,7.08,0,0,0-.53.88l-.12.25c.06-.13,0,0,0,.1s-.1.32-.15.49a2.44,2.44,0,0,1-.06.26c-.06.17,0-.22,0,.09a2.35,2.35,0,0,1-.24.82,1,1,0,0,1-1.5.19c-.8-1-.33-2.29.17-3.28a4.38,4.38,0,0,1,2-2.12,5.5,5.5,0,0,1,3.1-.38,2.62,2.62,0,0,1,2.19,1.33c.13.34-.34.51-.57.32Z" class="cls-4"/><path d="M120.15,230.21a6.88,6.88,0,0,0,1.19-1.28,3.62,3.62,0,0,1,1.39-1.33,6.26,6.26,0,0,1,4.08-.53,3.2,3.2,0,0,1,2.58,2.63,3,3,0,0,1-1.61,2.85,4.8,4.8,0,0,1-3.87.7,9.2,9.2,0,0,1-1.9-1c-.64-.39-1.28-.76-1.93-1.13a44,44,0,0,0-3.89-2.08c-.4-.17-2.38-.89-2.18.19.1.53.66.82,1.12,1a7.15,7.15,0,0,0,2.15.38,3.23,3.23,0,0,0,1.77-.19,2,2,0,0,0,.3-.47,1.86,1.86,0,0,1,.82-.82.9.9,0,0,1,1.08,1.41,1.29,1.29,0,0,0-.2.44,2.39,2.39,0,0,1-.57.89,3.12,3.12,0,0,1-1.87.74,8,8,0,0,1-4.19-.69A3.13,3.13,0,0,1,112.3,229,2.31,2.31,0,0,1,115,226.9a10.81,10.81,0,0,1,4,1.54c1.33.69,2.63,1.43,3.91,2.2a6.24,6.24,0,0,0,1.76.9,3.34,3.34,0,0,0,1.73-.27c.75-.26,1.76-.85,1.3-1.77-.62-1.27-2.6-1.05-3.69-.69a3.31,3.31,0,0,0-.83.39,5.05,5.05,0,0,0-.7.76,3.1,3.1,0,0,1-1.79,1.11c-.47.07-.91-.48-.5-.86Z" class="cls-4"/><path d="M121.07,230.15c-.15.32-.27.65-.41,1a5.65,5.65,0,0,1-.53.89,13.9,13.9,0,0,1-1.42,1.73,14.57,14.57,0,0,1-1.72,1.42l-.45.34c.12-.09,0,0-.06.05l-.2.16a5.47,5.47,0,0,1-.54.41,1.19,1.19,0,0,1-1,.14h.47s0,0-.07,0a.73.73,0,0,1-.82-.06.75.75,0,0,1-.27-.78c0-.08,0-.17.08-.26v.47a1.36,1.36,0,0,1,.56-1.45c.32-.27.66-.51,1-.75l.82-.58.06-.05.2-.16c.14-.12.28-.24.43-.35.54-.42,1.05-.88,1.57-1.34.27-.24.52-.5.81-.72a9.56,9.56,0,0,0,.75-.66c.39-.41.94.1.73.56Z" class="cls-4"/><path d="M121,229.82c.35.29.73.53,1.1.79s.76.62,1.15.93a19.92,19.92,0,0,0,2.21,1.55,15.74,15.74,0,0,0,2.28,1.06c.44.17.92.31,1.35.51a12.47,12.47,0,0,1,1.17.55.46.46,0,0,1-.11.84,5.47,5.47,0,0,1-2.92-.08,11.8,11.8,0,0,1-2.75-1.19,11.4,11.4,0,0,1-2.37-1.82,10.77,10.77,0,0,1-1-1.19c-.31-.43-.56-.89-.88-1.32s.4-1,.82-.63Z" class="cls-4"/><path d="M60.41,230.8A8.18,8.18,0,0,0,61.82,232c.59.44,1.16.91,1.76,1.35a4.92,4.92,0,0,0,1.71.93,1.76,1.76,0,0,0,.85.09c.06,0,.11-.06.08,0a1.61,1.61,0,0,0,.16-.54,4.5,4.5,0,0,0,.18-1.89,1.36,1.36,0,0,0-.33-.68c-.14-.16-.54-.6-.77-.61s-.38.18-.51.27a10.45,10.45,0,0,1-.92.53c-.58.28-1.17.54-1.74.84-1.22.64-2.24,1.62-3.61,2s-3,.53-4.18-.21a6.58,6.58,0,0,1-2.28-3.3c-.18-.48-.44-1.21-.08-1.66a4.08,4.08,0,0,1,.92-1,2.24,2.24,0,0,1,1.86-.07,8.71,8.71,0,0,1,2,.9A20.67,20.67,0,0,1,61,232a.72.72,0,0,1-.87,1.12,20.91,20.91,0,0,1-3.71-2.87A8.45,8.45,0,0,0,54.9,229a2.75,2.75,0,0,0-1.86-.32c-.94.26.2,1.27.49,1.61.43.5.75,1.09,1.19,1.59a2.07,2.07,0,0,0,1.31.75,6.07,6.07,0,0,0,2-.14,21.91,21.91,0,0,0,3.6-1.62c.64-.28,1.31-.5,1.93-.83a5,5,0,0,1,1.76-.85,2.43,2.43,0,0,1,1.76.83,2.9,2.9,0,0,1,1,1.69,6.36,6.36,0,0,1-.11,2.13,2.76,2.76,0,0,1-.78,1.87,2.82,2.82,0,0,1-2.36.19,6.47,6.47,0,0,1-2-1.18c-.66-.52-1.31-1.08-1.94-1.65a4.28,4.28,0,0,1-1.36-1.68.58.58,0,0,1,1-.56Z" class="cls-4"/><path d="M65.9,238.52A8.1,8.1,0,0,1,63,236.36a8.27,8.27,0,0,1-1.15-1.48l-.06-.15c0-.18,0-.23,0-.13s-.06-.09-.07-.12-.15-.3-.22-.45a2.32,2.32,0,0,1-.19-.94.31.31,0,0,1,.52-.22,3.39,3.39,0,0,1,.57.63l.26.39c0,.05.07.11.12.17-.11-.14.1.08.13.12.19.22.32.49.49.72l.48.65c.7.91,1.56,1.67,2.33,2.51.17.19,0,.56-.26.46Z" class="cls-4"/><path d="M54,236a2.19,2.19,0,0,1,.44-.31l.49-.2c.34-.15.69-.26,1-.41a9.7,9.7,0,0,0,1.9-1.1,14.92,14.92,0,0,0,1.55-1.43,22,22,0,0,0,1.53-1.66c.5-.6,1.53.19,1.08.84a9.31,9.31,0,0,1-1.59,1.84,11.24,11.24,0,0,1-2,1.34,20.17,20.17,0,0,1-2.09,1,7.78,7.78,0,0,1-1.15.39l-.57.09a1.46,1.46,0,0,1-.55-.07c-.18,0-.16-.26,0-.34Z" class="cls-4"/><path d="M64.59,252.14a3.12,3.12,0,0,1-1.36-.68c-.47-.32-1-.62-1.46-.9a9.57,9.57,0,0,0-9.15.05,9.9,9.9,0,0,1-1.47.86c-.56.19-1.34.08-1.36-.66s.57-1.13,1.06-1.49a8.5,8.5,0,0,1,1.53-.85,10.92,10.92,0,0,1,10.33.48,8.15,8.15,0,0,1,1.56,1.17,2.35,2.35,0,0,1,.9,1.58c0,.33-.31.48-.58.44Z" class="cls-4"/><path d="M64.17,246.65c-.85-.23-1.58-.82-2.41-1.13a12.34,12.34,0,0,0-2.68-.65,16.11,16.11,0,0,0-3.18-.15,4.17,4.17,0,0,0-1.33.31,9.23,9.23,0,0,1-1.33.68A1,1,0,0,1,52,244.44c.45-1.29,2.08-1.73,3.31-1.87a12.27,12.27,0,0,1,3.91.37,13.21,13.21,0,0,1,3.13,1c.93.46,2.06,1.18,2.25,2.26a.34.34,0,0,1-.41.42Z" class="cls-4"/><path d="M63.63,241.8a1.71,1.71,0,0,1-.85-.63,3.83,3.83,0,0,0-1-.73,5.39,5.39,0,0,0-2.62-.56c-.47,0-.95,0-1.42.05a3.62,3.62,0,0,0-1.24.2c-.4.18-.72.48-1.11.67a2.1,2.1,0,0,1-1.59.15.72.72,0,0,1-.31-1.18A5.88,5.88,0,0,1,56.13,238a9.58,9.58,0,0,1,3.62,0,5.36,5.36,0,0,1,3.1,1.32c.5.52,1.44,1.74.94,2.48a.15.15,0,0,1-.16.06Z" class="cls-4"/><path d="M46.7,56.59a34,34,0,1,1,67,7.82c.37,2.64,1.63,8.45,5.63,8.45,2.33,0,3.52,2.5,1.62,5.24-2.31,3.33-8.42,7.16-13.08,9-7.81,3.06-30.62,8.19-43.62-.76A33.94,33.94,0,0,1,46.7,56.59Z" class="cls-1"/><ellipse cx="102.66" cy="61.26" class="cls-4" rx="10.06" ry="10.59" transform="translate(-16.57 69.91) rotate(-34.98)"/><circle cx="100.02" cy="61.83" r="5.46" class="cls-6"/><path d="M97.48,61.83a2.53,2.53,0,0,0,5.06,0,2.56,2.56,0,0,0,0-.39,9.6,9.6,0,0,1,2.18,1.13,4.73,4.73,0,0,1-9.33.14,9,9,0,0,1,2.14-1.18C97.49,61.63,97.48,61.73,97.48,61.83Z" class="cls-7"/><path d="M95.27,61.83a4.74,4.74,0,0,1,9.48,0,6,6,0,0,1-.06.74,9.6,9.6,0,0,0-2.18-1.13,2.56,2.56,0,0,1,0,.39,2.53,2.53,0,0,1-5.06,0c0-.1,0-.2,0-.3a9,9,0,0,0-2.14,1.18A5,5,0,0,1,95.27,61.83Z" class="cls-8"/><circle cx="98.32" cy="60.26" r="1.89" class="cls-4"/><circle cx="102.45" cy="62.16" r=".69" class="cls-4"/><ellipse cx="76.71" cy="61.26" class="cls-4" rx="10.59" ry="10.06" transform="translate(-17.46 88.99) rotate(-55.02)"/><circle cx="75.15" cy="61.83" r="5.46" class="cls-6"/><path d="M77.69,61.83a2.53,2.53,0,1,1-5.06,0,2.58,2.58,0,0,1,0-.39,9.6,9.6,0,0,0-2.18,1.13,4.73,4.73,0,0,0,9.33.14,9.21,9.21,0,0,0-2.15-1.18C77.68,61.63,77.69,61.73,77.69,61.83Z" class="cls-7"/><path d="M79.9,61.83a4.74,4.74,0,0,0-9.47,0,4.52,4.52,0,0,0,.06.74,9.6,9.6,0,0,1,2.18-1.13,2.58,2.58,0,0,0,0,.39,2.53,2.53,0,1,0,5.06,0c0-.1,0-.2,0-.3a9.21,9.21,0,0,1,2.15,1.18A5.05,5.05,0,0,0,79.9,61.83Z" class="cls-8"/><circle cx="76.86" cy="60.26" r="1.89" class="cls-4"/><circle cx="72.72" cy="62.16" r=".69" class="cls-4"/><path d="M70,36.88a36.24,36.24,0,0,0-7.43-4.07c-2.64-1.16-5.34-2.15-8-3.29-.74-.32-1.46-.65-2.18-1-.36-.18-.72-.36-1.06-.55l-.52-.31a4.19,4.19,0,0,0-.54-.4c-.25-.13,0-.5.22-.38,2.15,1,2.33,3.87,2.89,5.88A49.12,49.12,0,0,0,56.68,41a.23.23,0,0,1-.39.23,18.66,18.66,0,0,1-1.11-1.81c-.32-.63-.61-1.28-.89-1.93a32.46,32.46,0,0,1-1.39-4c-.34-1.21-.54-2.46-.88-3.68a3.91,3.91,0,0,0-1.71-2.64l.22-.38c.29.16.68.24,1,.38l1,.47,2,.88c1.32.58,2.66,1.11,4,1.66a59.26,59.26,0,0,1,7.76,3.58,31.7,31.7,0,0,1,4,2.71c.18.15-.06.47-.25.33Z" class="cls-9"/><path d="M58.54,33A43.24,43.24,0,0,1,64,39.21c.22.33-.15.68-.48.62a17,17,0,0,1-3.81-1.24l.47-.27c0,.66.18,1.29.22,2a.2.2,0,0,1-.38.1,3.74,3.74,0,0,1-.47-2A.33.33,0,0,1,60,38a12.85,12.85,0,0,0,3.61,1l-.3.72c-.85-1.06-1.66-2.15-2.52-3.2S59,34.43,58.13,33.41c-.25-.28.14-.68.41-.41Z" class="cls-9"/><path d="M104.49,36.37a5.75,5.75,0,0,1,1.76-1.92c.72-.62,1.46-1.21,2.2-1.8,1.47-1.14,3-2.24,4.55-3.23.79-.5,1.59-1,2.41-1.4a1.07,1.07,0,0,1,1-.16.77.77,0,0,1,.39.73,40.32,40.32,0,0,1-.27,5.6c-.2,2.22-.5,4.41-.89,6.61-.06.29-.49.16-.45-.13.48-3.52.86-7.06,1-10.61a5.23,5.23,0,0,0,0-1.12c0-.36-.17-.26-.4-.14l-.58.31c-.71.4-1.42.83-2.11,1.26-1.4.89-2.76,1.85-4.08,2.85-.77.59-1.52,1.2-2.27,1.82a6.61,6.61,0,0,1-2.15,1.51c-.1,0-.23-.07-.19-.18Z" class="cls-9"/><path d="M113.21,32.27a10.29,10.29,0,0,1-.83,1.34c-.27.44-.53.88-.77,1.32-.51.94-.91,1.91-1.37,2.87l-.36-.47a14.38,14.38,0,0,0,1.59-.44,16.13,16.13,0,0,0,1.66-.55c.2-.09.41.13.24.31-.49.53-1,1.07-1.45,1.61a9.37,9.37,0,0,1-1.42,1.53c-.14.1-.27-.1-.22-.22a6.5,6.5,0,0,1,1.29-1.66c.48-.54,1-1,1.52-1.54l.2.33c-.55.21-1.07.47-1.61.67l-1.63.58a.33.33,0,0,1-.4-.4,16.21,16.21,0,0,1,1.37-3c.26-.46.54-.92.84-1.36a6,6,0,0,1,1-1.25.24.24,0,0,1,.37.29Z" class="cls-9"/><path d="M85.34,47.74A24.52,24.52,0,0,0,78.19,44a17.22,17.22,0,0,0-8.47-.1.19.19,0,0,1-.15-.35c5.27-3.26,11.85.52,16.07,3.79.21.17-.08.55-.3.39Z" class="cls-9"/><path d="M94.63,47.35c4.21-3.27,10.8-7.05,16.06-3.79a.19.19,0,0,1-.15.35,17.22,17.22,0,0,0-8.47.1,24.52,24.52,0,0,0-7.15,3.73c-.22.16-.51-.22-.29-.39Z" class="cls-9"/><ellipse cx="122.84" cy="74.28" class="cls-6" rx="5.92" ry="3.23" transform="translate(-20.54 81.27) rotate(-33.95)"/><ellipse cx="124.59" cy="72.49" class="cls-4" rx="2.03" ry="1.71" transform="translate(-19.24 81.94) rotate(-33.95)"/><path d="M66.63,76.63c.5-2.34,1.93-2.63,4.1-2.16C71.88,77,75,79.26,79,80.11s7.67.07,9.77-1.75c1.68.55,2.58,1.48,2.17,3.44-.7,3.28-4.07,5.52-8.37,6a7.06,7.06,0,0,0-5.71-6.57,7.15,7.15,0,0,0-7.26,2.63C67.27,81.8,66.09,79.17,66.63,76.63Z" class="cls-10"/><path d="M76.83,81.26a7.06,7.06,0,0,1,5.71,6.57A17.29,17.29,0,0,1,77,87.54a16.1,16.1,0,0,1-7.42-3.65A7.15,7.15,0,0,1,76.83,81.26Z" class="cls-11"/><path d="M79,80.11c-4-.85-7.09-3.09-8.24-5.64,2.09.46,4.87,1.61,8.16,2.31,3.86.83,7.57.84,9.85,1.58C86.64,80.18,82.91,81,79,80.11Z" class="cls-4"/><path d="M70.09,24.75c1.76-4.82,5.19-4.25,8.19-3.16a16.22,16.22,0,0,1,6.84,5.69,5.36,5.36,0,0,1,2.26-.61,5,5,0,0,1,2.14,1.65,16.05,16.05,0,0,1,8.66-3.13c3.19,0,6.61.69,6.57,5.82s-3.47,5.75-6.66,5.73c-2.41,0-7-1.54-9-3.66A5.07,5.07,0,0,1,86,34.24a5.07,5.07,0,0,1-2.32-1.91,15.94,15.94,0,0,1-9.37.11C71.32,31.35,68.33,29.57,70.09,24.75Z" class="cls-12"/><path d="M84.6,33.11s0-.09,0-.09.05.09,0,.09Z" class="cls-13"/><path d="M84.37,33.06a3.78,3.78,0,0,1-1.06-3.3,4.29,4.29,0,0,1,.37-1.53c.17-.36.48-1,.94-1.1.31,0,.55.16.48.48a1.5,1.5,0,0,1-.24.47c-.11.18-.22.35-.32.53a2.89,2.89,0,0,0-.3,1.15c-.08,1-.41,2.32.28,3.15a.11.11,0,0,1-.15.15Z" class="cls-13"/><path d="M89.17,27.94a2.18,2.18,0,0,1,.49.35,3.58,3.58,0,0,1,.4.56,4.66,4.66,0,0,1,.47,1.31,4.14,4.14,0,0,1,0,1.53c-.08.44-.3,1.34-.83,1.43l.19-.11a1,1,0,0,1-.35.22.35.35,0,0,1-.43-.33,1.19,1.19,0,0,1,0-.32v.24c-.1-.26,0-.5.15-.74a3.12,3.12,0,0,0,.19-.59,3.46,3.46,0,0,0,.07-1.2,6.46,6.46,0,0,0-.22-1.08,3.69,3.69,0,0,0-.19-.56,1.92,1.92,0,0,1-.12-.25,1,1,0,0,0-.1-.27c-.08-.11.08-.26.19-.19Z" class="cls-13"/><path d="M83.29,28.47a27.14,27.14,0,0,1-5.51-2.38,24.94,24.94,0,0,1-2.46-1.63,3.57,3.57,0,0,1-1.56-2,.47.47,0,0,1,.45-.59,7.45,7.45,0,0,1,2.82.23,11.43,11.43,0,0,1,1.43.48,3.91,3.91,0,0,1,1.37.72c.16.18.06.57-.22.54a6.21,6.21,0,0,1-1.29-.46,12.85,12.85,0,0,0-1.38-.4,7.41,7.41,0,0,0-2.61-.19l.33-.57c.19.81,1,1.3,1.59,1.76s1.5,1,2.28,1.49A37.84,37.84,0,0,0,83.42,28c.28.12.18.57-.13.47Z" class="cls-13"/><path d="M97.32,26.5a11.62,11.62,0,0,1,2-.09,7.4,7.4,0,0,1,1.94.21,1.33,1.33,0,0,1,1,.88c.09.47-.3.76-.7.89a17.58,17.58,0,0,1-3.53.66c-1.31.14-2.63.22-4,.24A20.85,20.85,0,0,1,89.85,29c-.27-.05-.18-.42.06-.44,1.29-.1,2.59-.09,3.88-.14s2.74-.15,4.11-.28L99.81,28c.3,0,.6-.08.9-.1s.81,0,.89-.25c.21-.63-3.78-.87-4.25-.92-.11,0-.16-.19,0-.21Z" class="cls-13"/><path d="M84.42,54.2a7.64,7.64,0,0,0-4.23-2.35,14.68,14.68,0,0,0-2.47-.34,13.3,13.3,0,0,0-2.75,0,8.16,8.16,0,0,0-4,1.77,10.69,10.69,0,0,0-3.32,3.57,9.45,9.45,0,0,0-.57,2.89c-.1.94-.31,1.86-.4,2.79,0,.28-.47.4-.53.08A12.16,12.16,0,0,1,65.77,60a12,12,0,0,1,.43-3,9.71,9.71,0,0,1,3.31-4.17,9.82,9.82,0,0,1,4.58-2.36,12.36,12.36,0,0,1,5.79.5,8.6,8.6,0,0,1,4.7,3.18c.07.1-.09.22-.16.13Z" class="cls-6"/><path d="M66.38,47a9,9,0,0,0,3.22,2.6,7.12,7.12,0,0,0,2,.56,8.52,8.52,0,0,0,1.24.08c.46,0,1.09,0,1.41.33a.56.56,0,0,1,.09.69.85.85,0,0,1-.71.41,5.85,5.85,0,0,1-.72.07,8.17,8.17,0,0,1-1.56-.15A6.44,6.44,0,0,1,69,50.7a6.16,6.16,0,0,1-2.79-3.6c0-.08.09-.15.14-.08Z" class="cls-6"/><path d="M62.58,50.8A4.2,4.2,0,0,0,63.82,52a5.59,5.59,0,0,0,1.56.69,6.79,6.79,0,0,0,2.81.12,6.91,6.91,0,0,1,1.17-.23.75.75,0,0,1,.7.54.78.78,0,0,1-.33.82,2.83,2.83,0,0,1-1.25.36,5.92,5.92,0,0,1-1.26.06,6.52,6.52,0,0,1-2.34-.6,4.81,4.81,0,0,1-1.57-1.18,4.09,4.09,0,0,1-.57-.81,4,4,0,0,1-.25-.9,0,0,0,0,1,.09,0Z" class="cls-6"/><path d="M94.65,54.07a8.22,8.22,0,0,1,4-3,12.87,12.87,0,0,1,5.66-.83,9.09,9.09,0,0,1,4.77,2,11.92,11.92,0,0,1,3.63,4,9.58,9.58,0,0,1,.69,3.43,12.16,12.16,0,0,1-.33,3c-.06.32-.5.2-.53-.08-.08-.83-.28-1.64-.37-2.47a14.25,14.25,0,0,0-.41-2.67c-.45-1.55-1.78-2.67-3-3.68A9.09,9.09,0,0,0,105,51.66a10.45,10.45,0,0,0-2.73-.2,17.9,17.9,0,0,0-2.64.27,8,8,0,0,0-4.77,2.47c-.07.09-.23,0-.16-.13Z" class="cls-6"/><path d="M113,47.1a6.24,6.24,0,0,1-2.79,3.6,6.67,6.67,0,0,1-2.23.9,9.07,9.07,0,0,1-1.56.16,5.83,5.83,0,0,1-.72-.06.94.94,0,0,1-.78-.42.56.56,0,0,1,.09-.69c.31-.36.9-.32,1.34-.33a10.31,10.31,0,0,0,1.24-.07,7,7,0,0,0,2-.57,9,9,0,0,0,3.22-2.6c.05-.07.16,0,.14.08Z" class="cls-6"/><path d="M116.74,50.84a4,4,0,0,1-.25.9,4.05,4.05,0,0,1-.53.77,4.94,4.94,0,0,1-1.61,1.22,6.64,6.64,0,0,1-2.28.6,5.84,5.84,0,0,1-1.32-.06,2.83,2.83,0,0,1-1.25-.36.76.76,0,0,1-.33-.82.75.75,0,0,1,.7-.54,6,6,0,0,1,1.1.22,5.63,5.63,0,0,0,.91.1,6.55,6.55,0,0,0,2-.21,5.3,5.3,0,0,0,1.52-.67,4.28,4.28,0,0,0,1.28-1.19,0,0,0,0,1,.09,0Z" class="cls-6"/><path d="M69.25,89.31c-.92-.42-1.78-1-2.66-1.51s-1.79-1-2.67-1.5a39.68,39.68,0,0,1-4.74-3.19,31,31,0,0,1-7.11-8.33c-.52-.87-1-1.75-1.46-2.65a14.6,14.6,0,0,1-1.23-2.85.31.31,0,0,1,.56-.24,20.66,20.66,0,0,1,1.32,2.34c.45.78.86,1.59,1.3,2.37a39.92,39.92,0,0,0,3,4.59,26.69,26.69,0,0,0,3.73,3.86,46.6,46.6,0,0,0,4.59,3.28c.92.62,1.82,1.26,2.74,1.89s1.86,1.16,2.68,1.85c.06,0,0,.11-.07.09Z" class="cls-9"/><path d="M.26,88.78a4,4,0,0,1,5.17-2.32l.4.17,6.74,3.44a.88.88,0,0,0,1.06-.4c.42-.67,0-1,0-1l-9.9-8.52A4,4,0,1,1,9,74.08l.25.23,8.69,8.89a1.14,1.14,0,0,0,.77-.35.9.9,0,0,0,.16-.85L12.24,70.34a4,4,0,1,1,7-4,1.59,1.59,0,0,1,.15.29l7.27,15.64a.55.55,0,0,0,.49.27.41.41,0,0,0,.38-.29L27,69a4,4,0,1,1,8-.36A2,2,0,0,1,35,69l-.64,14.75-.16,2,.54,5.23A1.66,1.66,0,0,0,35.42,92c.66.39,1,0,1.89-.12a13.05,13.05,0,0,1,4.13-.21c.43,0,.86.07,1.29.12s.85.11,1.27.2.86.17,1.29.29a5.25,5.25,0,0,1,.65.18l.35.11.18.06.25.09a4.23,4.23,0,1,1-3.13,7.86h0l-.07,0-.15-.06-.35-.12-.77-.22-.8-.19-.81-.14a14.15,14.15,0,0,0-3.24-.14c-.54,0-2.14,2.19-3.4,2.82a10.13,10.13,0,0,1-2.47.75l.23,1.14c.25,1.25.5,2.47.77,3.65a36.14,36.14,0,0,0,2,6.54,12.24,12.24,0,0,0,1.38,2.46,3.77,3.77,0,0,0,1.36,1.22,2.08,2.08,0,0,0,1.2.18,2.44,2.44,0,0,0,.73-.18,5.81,5.81,0,0,0,.88-.43,12.26,12.26,0,0,0,2.11-1.64,25.74,25.74,0,0,0,2.16-2.33,50.57,50.57,0,0,0,4-5.65c1.24-2,2.41-4.13,3.5-6.28q.82-1.62,1.59-3.27L54.18,97l.36-.82.32-.77,0-.11c.05-.13.11-.26.17-.38a6,6,0,1,1,10.62,5.39l-.49,1-.47.9c-.32.6-.64,1.19-1,1.78-.66,1.17-1.33,2.33-2,3.48-1.39,2.3-2.86,4.56-4.46,6.78A62.35,62.35,0,0,1,52,120.73a35.87,35.87,0,0,1-3.29,3,21.62,21.62,0,0,1-4.18,2.69,15.13,15.13,0,0,1-2.66,1,12.72,12.72,0,0,1-3,.41,11.72,11.72,0,0,1-3.13-.36,10.87,10.87,0,0,1-3-1.27,13,13,0,0,1-4.11-4,21.12,21.12,0,0,1-2.15-4.31,44.92,44.92,0,0,1-2.07-8.19c-.23-1.32-.42-2.62-.6-3.88l-.13-.82-1.77.4s-1.37.17-3.18-1.68A12.22,12.22,0,0,1,16,99.41a1.47,1.47,0,0,0-.19-.34.5.5,0,0,0-.25-.19L2.59,94A4,4,0,0,1,.26,88.78Z" class="cls-1"/><path d="M24.15,77.06c.4.88.8,1.76,1.19,2.65l1.15,2.67h0a1.18,1.18,0,0,0,.22.27.66.66,0,0,0,.36.16.75.75,0,0,0,.41-.06.54.54,0,0,0,.3-.38h0v-.08c-.1-3.58-.2-7.16-.33-10.74l-.09-2.68a3.62,3.62,0,0,1,2.75-3.61,3.67,3.67,0,0,1,4.15,1.86,3.73,3.73,0,0,1,.38,1.17,3.13,3.13,0,0,1,0,.61l0,.67-.17,5.37-.15,5.37c-.07,1.79-.1,3.59-.27,5.37h0l.19,2,.17,2c0,.33,0,.66.09,1a3.12,3.12,0,0,0,.28,1,1.43,1.43,0,0,0,.89.7,1.14,1.14,0,0,0,.58,0,3.65,3.65,0,0,0,.5-.14,9.22,9.22,0,0,1,.94-.23l1-.17a10.58,10.58,0,0,1,2-.09,18.36,18.36,0,0,1,3.91.49A6.68,6.68,0,0,1,48,93.86a4,4,0,0,1,1,3.36,4,4,0,0,1-3.68,3.32,4.49,4.49,0,0,1-.9-.06,4.68,4.68,0,0,1-.91-.27l-.21.57.2.07.21-.57-.26-.09-.27-.09-.52-.15-.53-.15-.52-.12h0a15.3,15.3,0,0,0-2.8-.33H37.37l-.17,0a1.12,1.12,0,0,0-.38.22,3.7,3.7,0,0,0-.29.24c-.18.16-.35.33-.51.49a11.76,11.76,0,0,1-2,1.77,5.26,5.26,0,0,1-1.22.48c-.43.13-.87.23-1.32.32h0l-.34.06.07.34.68,3.28.34,1.64c.12.55.25,1.1.39,1.64.28,1.09.59,2.17,1,3.24A18.82,18.82,0,0,0,35,116.26a9.12,9.12,0,0,0,1,1.42,6.6,6.6,0,0,0,.66.63,3.21,3.21,0,0,0,.41.26,2.23,2.23,0,0,0,.45.18,3.07,3.07,0,0,0,1.87-.13,7.48,7.48,0,0,0,1.55-.85,17.29,17.29,0,0,0,2.54-2.28,33.57,33.57,0,0,0,2.17-2.6,56.73,56.73,0,0,0,3.7-5.62c1.13-1.93,2.19-3.9,3.16-5.92.48-1,1-2,1.44-3s.91-2.06,1.34-3.07a6,6,0,0,1,2-2.44,6.33,6.33,0,0,1,3.06-1.11,5.66,5.66,0,0,0-3.27.79A6,6,0,0,0,54.76,95c-.24.52-.44,1-.67,1.54s-.46,1-.69,1.52c-.47,1-1,2-1.47,3-1,2-2.06,3.94-3.19,5.85A56,56,0,0,1,45,112.46,30.31,30.31,0,0,1,42.9,115a16.76,16.76,0,0,1-2.44,2.18,6.17,6.17,0,0,1-1.37.76,2.37,2.37,0,0,1-.71.17,2,2,0,0,1-.7-.06,1.27,1.27,0,0,1-.32-.13,2.49,2.49,0,0,1-.3-.19,4.56,4.56,0,0,1-.55-.53,7.64,7.64,0,0,1-.91-1.31,25.6,25.6,0,0,1-2.3-6.16c-.14-.53-.27-1.07-.4-1.61l-.35-1.64-.69-3.27-.27.41h0c.47-.1.93-.2,1.38-.34a6.26,6.26,0,0,0,1.36-.55,12.76,12.76,0,0,0,2.15-1.89l.48-.47.25-.21.2-.13h1.28a14.81,14.81,0,0,1,2.71.31h0l.54.12.5.14.52.14.24.08.25.09.21-.57-.2-.07-.21.57a8,8,0,0,0,1,.33,4.67,4.67,0,0,0,1.06.14,4.57,4.57,0,0,0,2.08-.48,4.44,4.44,0,0,0,2.42-3.43,4.46,4.46,0,0,0-3.23-4.88c-.32-.1-.65-.18-1-.26s-.64-.14-1-.21a35.14,35.14,0,0,0-4-.46,12.16,12.16,0,0,0-4,.3,1.56,1.56,0,0,1-.85.11,1.06,1.06,0,0,1-.37-.18,1,1,0,0,1-.26-.31,2.85,2.85,0,0,1-.25-.87c-.07-.32-.09-.65-.13-1l-.25-2-.21-2v0l.12-1.34.06-.67,0-.67.13-2.69L35,75l.3-5.37,0-.68a5.78,5.78,0,0,0,0-.72,4.72,4.72,0,0,0-.43-1.38A4.34,4.34,0,0,0,30,64.58a4.4,4.4,0,0,0-2.4,1.57,4.35,4.35,0,0,0-.9,2.73l.1,2.69c.13,3.58.28,7.16.43,10.74v-.08h0s0,0,0,0-.06.06-.11.08a.21.21,0,0,1-.16,0,.33.33,0,0,1-.16-.12h0l-1.29-2.6c-.43-.87-.85-1.75-1.26-2.62Z" class="cls-9"/><path d="M16.92,64.55a11.57,11.57,0,0,1,1.6,1.62,3.41,3.41,0,0,1,.3.44l.12.24.13.26c.16.37.35.72.52,1.08.36.72.73,1.43,1.12,2.13s.79,1.4,1.23,2.08l.11-.05c-.23-.78-.5-1.53-.79-2.28s-.59-1.5-.91-2.23c-.16-.37-.31-.74-.48-1.1l-.13-.28-.15-.29a4.92,4.92,0,0,0-.37-.56A2.66,2.66,0,0,0,16.92,64.55Z" class="cls-9"/><path d="M59.8,110.58c-1.52,1.92-2.92,3.9-4.49,5.76a57.73,57.73,0,0,1-4.91,5.33,25.22,25.22,0,0,1-5.79,4.21,14.49,14.49,0,0,1-3.32,1.19,12.12,12.12,0,0,1-3.5.25,10.92,10.92,0,0,1-6.35-2.61,15.67,15.67,0,0,1-4-5.73,36.8,36.8,0,0,1-2.12-6.88c-.25-1.18-.48-2.37-.66-3.57L24,104.92h0l-.11-.65-.43.28-1.08.69,1.27.18-.54-.37h0c.36,2.41.66,4.84,1.16,7.25a35.06,35.06,0,0,0,2.14,7.09,16.76,16.76,0,0,0,4.32,6.11,12.1,12.1,0,0,0,3.24,2,11.69,11.69,0,0,0,3.71.84A13.72,13.72,0,0,0,41.5,128,15.77,15.77,0,0,0,45,126.71a25.7,25.7,0,0,0,6-4.42,45.41,45.41,0,0,0,4.83-5.55A70.26,70.26,0,0,0,59.8,110.58Z" class="cls-9"/><path d="M122.78,143.59a2.34,2.34,0,0,1,.23.51,2.22,2.22,0,0,1,0,.63,3.45,3.45,0,0,1-1.11,2.17,2.82,2.82,0,0,1-1.1.71.46.46,0,0,1-.45-.76c.25-.22.59-.39.84-.58a4,4,0,0,0,.67-.69,3,3,0,0,0,.5-.88,3,3,0,0,0,.12-.52,4.92,4.92,0,0,0,.14-.55c0-.07.12-.12.16,0Z" class="cls-9"/><path d="M123.55,152.64c-.1-.22-.22-.42-.31-.65s-.19-.45-.29-.67a12.66,12.66,0,0,0-.74-1.29,11.28,11.28,0,0,0-.84-1.12c-.32-.39-.72-.73-1-1.12a.48.48,0,0,1,0-.62.47.47,0,0,1,.6-.12,5.55,5.55,0,0,1,1.14,1.13,9.11,9.11,0,0,1,.92,1.37,9.34,9.34,0,0,1,.63,1.45,5.94,5.94,0,0,1,.23.75,5.17,5.17,0,0,1,.1.79.2.2,0,0,1-.37.1Z" class="cls-9"/><path d="M125.81,150.23a3.27,3.27,0,0,1-.51-.39c-.15-.15-.3-.3-.46-.44a9.94,9.94,0,0,0-1-.79,5.47,5.47,0,0,0-2.34-.88.47.47,0,1,1,.13-.93,7.39,7.39,0,0,1,2.56,1.15A5.5,5.5,0,0,1,126,150c.06.13-.08.33-.22.22Z" class="cls-9"/><path d="M121.83,137.88a1.6,1.6,0,0,1,.45.71c.13.29.26.58.38.87a7.77,7.77,0,0,1,.49,2,11.39,11.39,0,0,1,.09,2,4.2,4.2,0,0,1-.44,1.92c-.07.12-.32.12-.34,0a9.85,9.85,0,0,1,0-1.8,12,12,0,0,0-.07-1.9,17.62,17.62,0,0,0-.35-1.9,8.33,8.33,0,0,0-.22-.86,2.33,2.33,0,0,1-.25-.88c0-.11.12-.21.22-.14Z" class="cls-9"/><path d="M28.86,89.23A7.43,7.43,0,0,0,26.92,94a12.76,12.76,0,0,0,.1,3c.14,1,.48,1.87.59,2.82,0,.22-.28.24-.38.1a6.79,6.79,0,0,1-1-3,12.86,12.86,0,0,1,0-3.28c.22-1.68.81-3.78,2.51-4.55.12,0,.24.09.14.18Z" class="cls-9"/><path d="M29,85.18a13.31,13.31,0,0,0-7.35,2.15A20.49,20.49,0,0,0,18.54,90a7.7,7.7,0,0,0-1.11,1.31,4.08,4.08,0,0,0-.37.72,2.59,2.59,0,0,1-.31.77c-.1.12-.28,0-.36,0-.32-.43,0-1.2.18-1.62a5.8,5.8,0,0,1,1.19-1.51,22.55,22.55,0,0,1,3.29-2.8,11.55,11.55,0,0,1,3.76-1.63A12.06,12.06,0,0,1,29,85c.09,0,.09.15,0,.15Z" class="cls-9"/><path d="M111.07,230.81c-.44-.07-.87-.19-1.3-.28a8.19,8.19,0,0,0-2,0c-1.17,0-2.35,0-3.52,0a1.41,1.41,0,0,0,0,2.81,32.94,32.94,0,0,0,3.83-.52,6.26,6.26,0,0,0,2-.53,7.42,7.42,0,0,0,1.22-.93.34.34,0,0,0-.15-.56Z" class="cls-3"/><path d="M108.89,235.61a1.78,1.78,0,0,0-.2-.63l.07.52a1,1,0,0,0-.17-1,1.52,1.52,0,0,0-.53-.51,2.67,2.67,0,0,0-.46-.2,7.07,7.07,0,0,0-1-.31,7.33,7.33,0,0,0-2.23-.27,1.47,1.47,0,0,0-1.47,1.46,1.51,1.51,0,0,0,1.47,1.47,25.23,25.23,0,0,1,2.75,0l-.32,0a3,3,0,0,0,1.08.06,1.23,1.23,0,0,0,.83-.51l-.58.33h-.06l.08,0c.05,0,.19.07.05,0,.28.12.76,0,.71-.41Z" class="cls-3"/></svg>