<svg id="Laag_1" data-name="Laag 1" xmlns="http://www.w3.org/2000/svg" viewBox="0 0 322.03 293.58"><defs><style>.cls-1{fill:#d6906c;}.cls-2{fill:#e10514;}.cls-3{fill:#891818;}.cls-4{fill:#fff;}.cls-5{fill:#22b3bd;}.cls-6{fill:#1c1c1b;}.cls-7{fill:#8bbc26;}.cls-8{fill:#4f732b;}.cls-9{fill:#865232;}.cls-10{fill:#513d14;}.cls-11{fill:#f19ca4;}.cls-12{fill:#f19b99;}.cls-13{fill:#e64e6b;}.cls-14{fill:#4f649d;}.cls-15{fill:#006a71;}.cls-16{fill:#1d294c;}.cls-17{fill:#9a9a9a;}</style></defs><title>olivia_&amp;amp;_oliver</title><path class="cls-1" d="M12.66,117.73c8.63-10.55,13.76-18.11,13.76-18.11s-7.13-2.06-11.55.79a44.34,44.34,0,0,1,12.19-25A38.75,38.75,0,0,0,14.37,76c11-19.63,19.11-23.81,19.11-23.81s-2.18-2.5-7.63-2.23c9.84-4.71,16.44-3.52,16.44-3.52s-2.72-1.31-7.56-11.77c8.43,4.31,23.41,7.54,23.41,7.54s-1.17-4.44-8.55-9c19-1.39,26.68,4.07,26.68,4.07s0-4.39-5.78-10.27c7.76,1.36,13.35,11.49,14,12.65-.34-.69-2-4.65.06-13.15C87.66,35.32,95.92,42,95.92,42s-2.26-9.7-6.27-15.54C107.22,33.83,111.18,46,111.18,46s2.64-1.79,4.56-11.55c9.42,24,4.93,29.43,4.53,29.85.26-.26,2.5-2.23,10.1-3.28-13.68,17.89-17.11,30.44-17.11,30.44-.56,12.28-.23,22.57-22.11,25.86l-.71,4.53L71.52,172.3l-8.24-17.86A156.34,156.34,0,0,0,55.15,177c-10-12.55-10.84-20.39-10.84-20.39S40,163.53,37.18,177c-10-19.5-8.41-31.79-8.41-31.79s-2.28-.22-6.56,3.85c-1.39-22.67,2.71-30.31,2.71-30.31A32.94,32.94,0,0,1,12.66,117.73Z"/><path class="cls-1" d="M119.27,162.93l-7.71-2.49a1.57,1.57,0,0,0-2,.57l-3.23,5.12a1.49,1.49,0,0,0,.09,1.72l13,16.41a1.58,1.58,0,0,0,2.2.26l5.75-4.5a1.49,1.49,0,0,0,.55-1.49l-1.45-6.91a1.55,1.55,0,0,0-1.48-1.21l-2.9-.08s0-4-.56-5.34A4.1,4.1,0,0,0,119.27,162.93Z"/><path class="cls-1" d="M104.46,129.52l.28.22.34.27.67.56c.46.39.91.78,1.35,1.18.9.8,1.77,1.63,2.62,2.48a54,54,0,0,1,4.7,5.3c.7.92,1.36,1.85,2,2.79a23.72,23.72,0,0,1,1.54,2.82,11.53,11.53,0,0,1,1.23,5.2l.16-.75a8.12,8.12,0,0,1-1.17,2.7,15.12,15.12,0,0,1-2.47,2.68c-1.06,1-2.35,2-3.65,3.28a20.72,20.72,0,0,0-3.58,4.59,4,4,0,0,0,6.76,4.19l.07-.11a12.87,12.87,0,0,1,2.39-2.55c1-.83,2.19-1.66,3.53-2.68a24.24,24.24,0,0,0,4.14-3.89,17.35,17.35,0,0,0,3-5.57l.08-.25.08-.5a18.84,18.84,0,0,0,0-5.31,25,25,0,0,0-1.22-4.75,36.32,36.32,0,0,0-1.86-4.2q-1-2-2.23-3.81a66.1,66.1,0,0,0-5.14-6.82c-.91-1.07-1.85-2.11-2.81-3.12-.49-.51-1-1-1.48-1.52l-.77-.75-.4-.38-.45-.41-.21-.2a6,6,0,1,0-8.09,8.79A6.44,6.44,0,0,0,104.46,129.52Z"/><path class="cls-1" d="M61.39,201.37l-2.73,29.34-1.33,14.67-.65,7.35-.31,3.69-.15,1.85-.14,1.9a3.84,3.84,0,0,0,7.63.82v-.11l.25-1.76.26-1.8.54-3.63,1.12-7.26,2.27-14.54,4.61-29.07v0A5.75,5.75,0,0,0,61.43,201C61.42,201.12,61.4,201.25,61.39,201.37Z"/><path class="cls-1" d="M99.69,191.44l8.2,58.54h0a3.84,3.84,0,0,0,7.63-.82l-4.42-58.94a5.74,5.74,0,1,0-11.45.86C99.66,191.19,99.68,191.33,99.69,191.44Z"/><path class="cls-2" d="M64.75,160.7l-9.4-37.54a3.5,3.5,0,0,1,1.51-3.81c3.17-2,10.68-5.17,26.83-5.17,16.5,0,24,3.28,27,5.3a3.5,3.5,0,0,1,1.5,3.52l-6.49,36.86a3.5,3.5,0,0,0,1,3.15c15,14.32,26.89,41.64,26.89,63.61,0,7.26-16.13,3.49-18.43,4.56s-21.42,3.59-31.06.8c-4.44-1.28,1-4.33-1.92-3.64s-1.13,3.78-5.14,4.23A37.18,37.18,0,0,1,58.72,230c-2.13-.85-1.22-2-3.31-2.62-3.46-1-5.42-.06-8.24-1.61-7.25-4-8.32-.37-8.32-5.38,0-22.2,10.23-43.91,24.73-56.07A3.53,3.53,0,0,0,64.75,160.7Z"/><path class="cls-3" d="M71.94,175.59c-4.61,5.27-7.08,12-8.38,18.84C62.84,198.19,62.4,202,62,205.8a60.12,60.12,0,0,1-2.2,10.28c-.54,1.93-1.09,3.86-1.56,5.8-.22.92-.42,1.84-.58,2.77a13.05,13.05,0,0,1-.25,1.39c-.12.46-.27.92-.41,1.38-.2.63-1.27.74-1.41,0a8.35,8.35,0,0,1-.12-2.54c.13-.92.28-1.84.46-2.75.35-1.78.8-3.53,1.3-5.27a89.42,89.42,0,0,0,2.57-10.32c.29-1.89.47-3.79.75-5.69s.61-3.83,1-5.72a46,46,0,0,1,3.5-10.42,29,29,0,0,1,6.78-9.19c0-.05.11,0,.07.07Z"/><path class="cls-3" d="M106.19,179.05l.5,1.35c.16.45.4.87.57,1.32.34.89.73,1.77,1,2.68.62,1.8,1.23,3.6,1.85,5.41a105.27,105.27,0,0,1,3.11,10.59c.83,3.63,1.4,7.31,1.91,11,.42,3,.85,6,1.09,9.05.12,1.53.19,3.07.18,4.61,0,.91,0,1.82-.1,2.73a11.32,11.32,0,0,1-.5,3.06c-.22.61-1.29.78-1.42,0a33.53,33.53,0,0,1-.11-5.21c0-1.39,0-2.78-.14-4.17-.2-2.84-.61-5.66-1-8.49-.45-3.59-1-7.18-1.66-10.74s-1.69-7.21-2.72-10.78c-.57-2-1.16-4-1.74-6s-1-4.17-1.54-6.24a.34.34,0,0,1,.65-.18Z"/><path class="cls-3" d="M89.29,190.43c.25,1.42.44,2.85.58,4.28s.34,2.77.45,4.16a43.24,43.24,0,0,1-.12,7.8,68.43,68.43,0,0,1-3.38,15.08c-.5,1.46-1,2.91-1.58,4.35-.31.79-.64,1.56-1,2.34a11.24,11.24,0,0,1-1.17,2.29.52.52,0,0,1-.94-.4,21.9,21.9,0,0,1,1.29-4.15c.45-1.3.93-2.59,1.37-3.89.84-2.47,1.66-5,2.33-7.48a70,70,0,0,0,2.12-14.89c.06-1.5.13-3,.09-4.5s-.26-3.3-.43-4.94c0-.2.32-.25.36,0Z"/><path class="cls-3" d="M85.67,182.87a64.19,64.19,0,0,1,.78,9.08c.08,3.08.2,6.14.06,9.22a99.42,99.42,0,0,1-2.64,18.4,56.1,56.1,0,0,1-3.16,9.89c-.27.6-1.14.16-1-.43.63-3,1.4-5.92,2.1-8.89s1.27-5.91,1.76-8.89.87-6,1.16-9,.61-6,.72-9.05c.13-3.44,0-6.87,0-10.31,0-.16.26-.21.28,0Z"/><path class="cls-3" d="M98.67,159.61a33.55,33.55,0,0,1-11.2,1.83A74.7,74.7,0,0,1,76,160.71a28.51,28.51,0,0,1-6.36-1.23l.29-.7a5.64,5.64,0,0,0,1.29.82,15.73,15.73,0,0,0,1.63.57c1,.27,2,.63,3,.94s2,.59,3,.89,2.12.59,3.19.87a84.72,84.72,0,0,0,12.54,2.25c1.21.13,2.42.24,3.63.35l1.82.17c.62.07,1.2.22,1.82.25a.28.28,0,0,1,.08.55c-.47.17-.89.46-1.35.65s-.91.36-1.37.52a24.46,24.46,0,0,1-2.77.71,43.72,43.72,0,0,1-5.8.8,64.71,64.71,0,0,1-11.81,0,21,21,0,0,1-6.49-1.62c-.69-.32-.17-1.27.48-1.15,1.87.34,3.71.73,5.59.95s3.83.33,5.75.36a86,86,0,0,0,11.23-.43,28.87,28.87,0,0,0,3.07-.5l1.59-.37a10.15,10.15,0,0,0,1.66-.45l.14.52c-.56,0-1.09.11-1.65.15s-1.11,0-1.66,0c-1.07,0-2.15-.07-3.22-.16q-3.25-.3-6.48-.89c-2.11-.38-4.22-.84-6.3-1.39-1.07-.28-2.13-.58-3.18-.92a28.12,28.12,0,0,1-3-1c-1.09-.49-2.29-.83-3.33-1.41-.53-.3-1.07-.55-1.62-.8a6.92,6.92,0,0,0-1.77-.52c-.45-.09-.31-.72.1-.76a28.28,28.28,0,0,1,5.58.4c1.87.21,3.74.42,5.62.58a74.27,74.27,0,0,0,11.26.14c2.13-.13,4.23-.45,6.33-.77a.28.28,0,0,1,.15.54Z"/><path class="cls-4" d="M45,285.54l0-.05a2.15,2.15,0,0,1-.14-.26l0-.05c0-.1-.09-.21-.13-.32s0-.06,0-.08-.07-.23-.1-.34v0c0-.13-.06-.26-.08-.39a.36.36,0,0,1,0-.1l-.06-.39s0-.06,0-.09l0-.35a.37.37,0,0,1,0-.11c0-.13,0-.26,0-.4a.62.62,0,0,0,0-.13V282a1.61,1.61,0,0,0,.48.49c6.07,4.58,22.59,3.56,25,.46,0,.14,0,.27,0,.4v0c0,.13,0,.27,0,.4h0c0,.12-.05.25-.08.37v.05a2.91,2.91,0,0,1-.12.39v0c0,.12-.09.25-.15.37l0,.08c-.06.13-.13.26-.2.39v0l-.22.37a.86.86,0,0,1-.07.1l-.28.42c-2.11,2.88-17.47,3.85-23.1-.39a1.3,1.3,0,0,1-.22-.19l0,0Z"/><path class="cls-4" d="M114.47,274.48l.42.07a22.34,22.34,0,0,1,7,1.63c3.67,1.65,17.83,2.75,24.49,1.1a2.65,2.65,0,0,0,.78-.31,8.69,8.69,0,0,1-.09,1.23,2.82,2.82,0,0,1-2.1,2.36c-6.25,1.54-19.53.5-23-1a21.23,21.23,0,0,0-6.61-1.53,2.57,2.57,0,0,0-.4-.06l-10.38-1a2.79,2.79,0,0,1-2.53-2.58c0-.42-.07-.89-.09-1.42a3,3,0,0,0,1.38.5Z"/><path class="cls-2" d="M44.9,282.66a1.82,1.82,0,0,1-.48-.48,23.62,23.62,0,0,1,.24-2.41,2.24,2.24,0,0,1,.25-.6c3.6-5.78,5.94-10.12,6.77-16.3a2.06,2.06,0,0,0,0-.35c-.22-7.41-.11-11.38-.23-18.48a2.06,2.06,0,0,1,2.21-2.11A138.52,138.52,0,0,1,68.86,244a2.08,2.08,0,0,1,1.62,2.6,150.52,150.52,0,0,0-3.82,17.17c0,.11,0,.22,0,.33,0,9.27,2.39,13.69,3.1,17.8a12.18,12.18,0,0,1,.15,1.21C67.5,286.22,51,287.24,44.9,282.66Z"/><path class="cls-2" d="M102.65,242.25l16.22-.38a2.82,2.82,0,0,1,2.79,2.64l.55,12.92a2.77,2.77,0,0,0,.67,1.66c1.46,1.71,4.67,6.46,9.9,8.87a2.87,2.87,0,0,0,1,.24c9.7.52,13.44,4.09,13.42,8.77a2.65,2.65,0,0,1-.78.31c-6.66,1.65-20.82.55-24.49-1.1a22.34,22.34,0,0,0-7-1.63l-.42-.07-11.06-1a3,3,0,0,1-1.38-.5c-.16-3.29,0-8.31,1.29-11.48l.06-.17a2.36,2.36,0,0,1-.64-.62,1.31,1.31,0,0,1-.13-1.17,2.49,2.49,0,0,1,.68-.93c-.34-2.07-1.22-5.06-2-7.93-.34-1.2-.68-2.38-1-3.47v0c-.13-.51-.25-1-.35-1.45A2.81,2.81,0,0,1,102.65,242.25Z"/><path class="cls-4" d="M69.68,283.8h0Z"/><path class="cls-4" d="M69.72,283.39v0Z"/><circle class="cls-5" cx="109.97" cy="266.49" r="4.59"/><path class="cls-4" d="M125.26,261.9a7.21,7.21,0,0,1-1.86-.45,4.64,4.64,0,0,0-1.66,0,7.36,7.36,0,0,0-.95.25c-.22.08.23-.12-.12.05a1.51,1.51,0,0,0-.22.11c-.17.09-.32.19-.48.29s.1-.09,0,0l-.17.15a3.34,3.34,0,0,0-.33.32s-.16.21-.09.11,0,.08-.06.11l-.12.2c-.06.12,0-.14,0,.07a2.2,2.2,0,0,1-.41.71,1.27,1.27,0,0,1-.28.24c-.47.27-.3.11-.19.07a1.08,1.08,0,0,1-1.43-.73,2.67,2.67,0,0,1,.83-2.4,5.42,5.42,0,0,1,4.11-1.79,5.34,5.34,0,0,1,2.43.67,3.83,3.83,0,0,1,.93.66,1.52,1.52,0,0,1,.47,1,.33.33,0,0,1-.32.33Z"/><path class="cls-4" d="M128.78,265.36a3.16,3.16,0,0,0-.9-.29,5.88,5.88,0,0,0-.92-.15,6.47,6.47,0,0,0-2.27.24,4.1,4.1,0,0,0-1,.44,2.79,2.79,0,0,0-.82.63l-.2.22c.07-.09,0,0,0,.07l-.15.25c0,.05-.13.25-.06.11a5.44,5.44,0,0,0-.19.57,3,3,0,0,1-.16.37s-.14.23-.11.16a.93.93,0,0,1-1.77,0,3.2,3.2,0,0,1,.94-3.24,5.25,5.25,0,0,1,3-1.58,8,8,0,0,1,3.26,0,2.53,2.53,0,0,1,2,1.8.37.37,0,0,1-.53.41Z"/><path class="cls-4" d="M132.34,267.93h0l-.11,0c-.09,0-.19,0-.28,0s-.28.08-.43.1a7.79,7.79,0,0,1-1.28.05l-.56,0h-.11l-.27.06a2.69,2.69,0,0,0-.46.14l-.09,0-.24.13a1,1,0,0,0-.17.12c.13-.1-.05.05-.07.07a1.7,1.7,0,0,0-.19.19c0,.05-.09.13,0,0a8.7,8.7,0,0,0-.53.89l-.12.25c.06-.14,0,0,0,.1s-.1.32-.15.48a2.61,2.61,0,0,1-.06.27c-.06.17,0-.23,0,.09a2.11,2.11,0,0,1-.24.81,1,1,0,0,1-1.5.19c-.79-.95-.32-2.29.17-3.28a4.38,4.38,0,0,1,2-2.12,5.41,5.41,0,0,1,3.1-.37,2.61,2.61,0,0,1,2.19,1.32c.13.34-.34.52-.56.33Z"/><path class="cls-4" d="M119.63,256.69a6.88,6.88,0,0,0,1.19-1.28,3.53,3.53,0,0,1,1.39-1.32,6.2,6.2,0,0,1,4.08-.54,3.21,3.21,0,0,1,2.58,2.63,3,3,0,0,1-1.61,2.85,4.83,4.83,0,0,1-3.86.71,9,9,0,0,1-1.91-1c-.64-.39-1.28-.77-1.93-1.14a41.39,41.39,0,0,0-3.89-2.07c-.4-.18-2.38-.89-2.18.18.1.53.66.83,1.13,1a7.4,7.4,0,0,0,2.14.37,3.28,3.28,0,0,0,1.78-.18,2.74,2.74,0,0,0,.3-.48,1.84,1.84,0,0,1,.81-.82.91.91,0,0,1,1.15.24.89.89,0,0,1-.07,1.17,1.35,1.35,0,0,0-.2.45,2.47,2.47,0,0,1-.57.89,3.17,3.17,0,0,1-1.87.73,8.07,8.07,0,0,1-4.19-.68,3.16,3.16,0,0,1-2.12-2.9,2.31,2.31,0,0,1,2.66-2.14,10.81,10.81,0,0,1,4,1.54c1.33.69,2.63,1.43,3.91,2.2a6.37,6.37,0,0,0,1.76.9,3.25,3.25,0,0,0,1.73-.27c.75-.25,1.76-.84,1.31-1.77-.63-1.27-2.61-1-3.7-.69a3.31,3.31,0,0,0-.83.39,5.72,5.72,0,0,0-.7.77,3.1,3.1,0,0,1-1.79,1.1c-.47.07-.91-.47-.5-.86Z"/><path class="cls-4" d="M120.55,256.63c-.15.32-.27.65-.41,1a6.25,6.25,0,0,1-.53.9,13.8,13.8,0,0,1-1.42,1.72,15.71,15.71,0,0,1-1.72,1.43L116,262l-.06,0-.2.16a5.56,5.56,0,0,1-.54.42,1.19,1.19,0,0,1-1,.13h.47l-.06,0a.78.78,0,0,1-.83-.06.76.76,0,0,1-.27-.78c0-.09.06-.18.08-.26v.46a1.36,1.36,0,0,1,.56-1.45c.32-.26.66-.51,1-.74l.82-.59.07-.05.19-.16.43-.35c.54-.42,1-.88,1.57-1.33.27-.24.52-.5.81-.73a7.87,7.87,0,0,0,.75-.66c.39-.4.94.11.73.56Z"/><path class="cls-4" d="M120.48,256.3c.35.29.73.53,1.1.8s.77.62,1.15.92a18,18,0,0,0,2.22,1.55,14.64,14.64,0,0,0,2.27,1.06c.44.17.92.31,1.35.52a12.39,12.39,0,0,1,1.17.54.47.47,0,0,1-.11.85,5.43,5.43,0,0,1-2.91-.09,11.08,11.08,0,0,1-2.76-1.19,11.36,11.36,0,0,1-2.37-1.81,10.87,10.87,0,0,1-1-1.2c-.31-.43-.56-.89-.88-1.32s.4-1,.82-.63Z"/><path class="cls-4" d="M59.89,257.29a8.65,8.65,0,0,0,1.42,1.21c.59.45,1.15.92,1.75,1.36a5.27,5.27,0,0,0,1.71.93,1.76,1.76,0,0,0,.85.08c.06,0,.11-.05.08,0a1.8,1.8,0,0,0,.17-.54,4.64,4.64,0,0,0,.17-1.89,1.36,1.36,0,0,0-.33-.68c-.14-.15-.54-.6-.77-.61s-.38.19-.51.27a10.45,10.45,0,0,1-.92.53c-.58.28-1.17.55-1.74.84-1.22.64-2.24,1.62-3.61,2s-3,.52-4.17-.22a6.55,6.55,0,0,1-2.29-3.29c-.17-.49-.44-1.21-.08-1.66a3.92,3.92,0,0,1,.92-1,2.26,2.26,0,0,1,1.87-.08,8.63,8.63,0,0,1,2,.9,21.05,21.05,0,0,1,4.11,3.15.72.72,0,0,1-.87,1.13,21,21,0,0,1-3.7-2.88,8.94,8.94,0,0,0-1.52-1.3,2.73,2.73,0,0,0-1.86-.31c-.94.26.2,1.26.49,1.6.43.5.76,1.09,1.19,1.59a2,2,0,0,0,1.31.75,6.07,6.07,0,0,0,2-.14,20,20,0,0,0,3.6-1.62c.64-.27,1.31-.5,1.93-.82a4.61,4.61,0,0,1,1.77-.85,2.42,2.42,0,0,1,1.75.82,2.93,2.93,0,0,1,1,1.69,6.1,6.1,0,0,1-.11,2.13c-.12.65-.19,1.46-.78,1.87a2.82,2.82,0,0,1-2.36.19,6.25,6.25,0,0,1-2-1.17c-.66-.53-1.31-1.09-1.94-1.65a4.42,4.42,0,0,1-1.36-1.68.58.58,0,0,1,1-.56Z"/><path class="cls-4" d="M65.38,265a7.88,7.88,0,0,1-2.93-2.16,7.78,7.78,0,0,1-1.14-1.48l-.07-.15c0-.18,0-.22,0-.13s-.06-.09-.07-.11-.15-.3-.22-.46a2.32,2.32,0,0,1-.19-.94.31.31,0,0,1,.52-.21,3,3,0,0,1,.57.62l.26.39.12.17c-.11-.13.1.08.13.12a7.15,7.15,0,0,1,.49.73l.48.65c.7.91,1.56,1.66,2.33,2.51.17.18,0,.56-.26.45Z"/><path class="cls-4" d="M53.43,262.43a2,2,0,0,1,.45-.3l.48-.21c.34-.14.69-.25,1-.4a10.64,10.64,0,0,0,1.91-1.1A17.38,17.38,0,0,0,58.83,259c.53-.53,1.05-1.09,1.53-1.67s1.53.19,1.09.84a9.4,9.4,0,0,1-1.6,1.84,11,11,0,0,1-2,1.35,20.1,20.1,0,0,1-2.09,1,6.77,6.77,0,0,1-1.15.39l-.57.1a2.13,2.13,0,0,1-.55-.07c-.17,0-.16-.26,0-.35Z"/><path class="cls-4" d="M64.07,278.63a3.22,3.22,0,0,1-1.35-.69c-.48-.32-1-.62-1.47-.89a9.73,9.73,0,0,0-3-1,9.48,9.48,0,0,0-6.13,1.07,9.1,9.1,0,0,1-1.47.86c-.56.2-1.34.08-1.36-.66s.57-1.13,1.06-1.49a9.16,9.16,0,0,1,1.53-.85,11.32,11.32,0,0,1,6.76-.87,11.12,11.12,0,0,1,3.57,1.35,8.59,8.59,0,0,1,1.56,1.17,2.37,2.37,0,0,1,.9,1.59c0,.32-.31.48-.58.44Z"/><path class="cls-4" d="M63.65,273.13A26.16,26.16,0,0,1,61.24,272a12.36,12.36,0,0,0-2.68-.66,15.38,15.38,0,0,0-3.18-.14,4.16,4.16,0,0,0-1.33.3,7.91,7.91,0,0,1-1.33.68,1,1,0,0,1-1.26-1.26c.46-1.3,2.08-1.74,3.31-1.88a12.27,12.27,0,0,1,3.91.37,12.87,12.87,0,0,1,3.14,1c.92.46,2,1.17,2.24,2.26a.34.34,0,0,1-.41.41Z"/><path class="cls-4" d="M63.11,268.29a1.84,1.84,0,0,1-.85-.64,3.45,3.45,0,0,0-1-.72,5.29,5.29,0,0,0-2.62-.57c-.47,0-1,0-1.42.06a3.39,3.39,0,0,0-1.24.19c-.39.19-.72.48-1.11.67a2,2,0,0,1-1.58.15.71.71,0,0,1-.32-1.18,5.88,5.88,0,0,1,2.65-1.79,9.58,9.58,0,0,1,3.62,0,5.23,5.23,0,0,1,3.1,1.32c.5.52,1.44,1.73.94,2.47a.15.15,0,0,1-.16.07Z"/><path class="cls-1" d="M46.18,83.08a34,34,0,1,1,67,7.81c.37,2.64,1.64,8.45,5.63,8.45,2.34,0,3.52,2.5,1.62,5.24-2.31,3.34-8.42,7.16-13.08,9-7.81,3.05-30.62,8.18-43.62-.77A33.93,33.93,0,0,1,46.18,83.08Z"/><ellipse class="cls-4" cx="102.14" cy="87.74" rx="10.06" ry="10.59" transform="translate(-31.85 74.4) rotate(-34.98)"/><circle class="cls-6" cx="99.5" cy="88.32" r="5.46"/><path class="cls-7" d="M97,88.32a2.53,2.53,0,0,0,5.06,0,2.6,2.6,0,0,0,0-.4,9.6,9.6,0,0,1,2.18,1.13,4.74,4.74,0,0,1-9.33.15A9.35,9.35,0,0,1,97,88,3,3,0,0,0,97,88.32Z"/><path class="cls-8" d="M94.76,88.32a4.74,4.74,0,1,1,9.47,0,4.4,4.4,0,0,1-.06.73A9.6,9.6,0,0,0,102,87.92a2.6,2.6,0,0,1,0,.4,2.53,2.53,0,0,1-5.06,0A3,3,0,0,1,97,88a9.35,9.35,0,0,0-2.14,1.19A5.14,5.14,0,0,1,94.76,88.32Z"/><circle class="cls-4" cx="97.8" cy="86.75" r="1.89"/><circle class="cls-4" cx="101.93" cy="88.64" r="0.69"/><ellipse class="cls-4" cx="76.19" cy="87.74" rx="10.59" ry="10.06" transform="translate(-39.38 99.87) rotate(-55.02)"/><circle class="cls-6" cx="74.63" cy="88.32" r="5.46"/><path class="cls-7" d="M77.17,88.32a2.53,2.53,0,0,1-5,0,2.6,2.6,0,0,1,0-.4A9.6,9.6,0,0,0,70,89.05a4.74,4.74,0,0,0,9.33.15A9.63,9.63,0,0,0,77.15,88,1.56,1.56,0,0,1,77.17,88.32Z"/><path class="cls-8" d="M79.38,88.32a4.74,4.74,0,1,0-9.47,0,4.4,4.4,0,0,0,.06.73,9.6,9.6,0,0,1,2.18-1.13,2.6,2.6,0,0,0,0,.4,2.53,2.53,0,0,0,5,0,1.56,1.56,0,0,0,0-.31A9.63,9.63,0,0,1,79.3,89.2,5.14,5.14,0,0,0,79.38,88.32Z"/><circle class="cls-4" cx="76.34" cy="86.75" r="1.89"/><circle class="cls-4" cx="72.21" cy="88.64" r="0.69"/><path class="cls-9" d="M69.51,63.36a37.22,37.22,0,0,0-7.43-4.07c-2.64-1.16-5.34-2.15-8-3.29-.74-.32-1.46-.65-2.18-1-.36-.17-.72-.35-1.06-.55-.17-.1-.35-.19-.52-.3a5.47,5.47,0,0,0-.54-.41c-.25-.13,0-.5.22-.38,2.15,1,2.33,3.87,2.89,5.89a49.79,49.79,0,0,0,3.26,8.28.23.23,0,0,1-.39.23,18.81,18.81,0,0,1-1.11-1.82c-.32-.63-.61-1.27-.89-1.93a32.31,32.31,0,0,1-1.39-3.94c-.34-1.22-.54-2.47-.88-3.68a4,4,0,0,0-1.71-2.65l.22-.38a8.43,8.43,0,0,0,1,.38l1,.47c.66.31,1.32.59,2,.89,1.32.57,2.66,1.11,4,1.65a61.36,61.36,0,0,1,7.77,3.58,32.42,32.42,0,0,1,4,2.72c.18.14-.06.46-.25.32Z"/><path class="cls-9" d="M58,59.48a43.8,43.8,0,0,1,5.41,6.21c.23.33-.15.68-.47.62a16.41,16.41,0,0,1-3.82-1.24l.48-.27c0,.67.17,1.29.21,2a.2.2,0,0,1-.38.1,3.74,3.74,0,0,1-.47-2,.33.33,0,0,1,.48-.28,12.87,12.87,0,0,0,3.61,1l-.3.71c-.85-1.06-1.66-2.15-2.52-3.2s-1.74-2.09-2.65-3.1a.3.3,0,0,1,.42-.42Z"/><path class="cls-9" d="M104,62.85a5.5,5.5,0,0,1,1.75-1.91c.72-.62,1.46-1.22,2.21-1.8a53.45,53.45,0,0,1,4.54-3.24c.79-.49,1.59-1,2.41-1.4a1.1,1.1,0,0,1,1-.16.77.77,0,0,1,.39.73,40.32,40.32,0,0,1-.27,5.6c-.2,2.23-.49,4.42-.89,6.61,0,.3-.48.16-.45-.12.48-3.52.86-7.07,1.06-10.62a5.15,5.15,0,0,0,0-1.11c0-.36-.17-.27-.4-.14l-.57.31c-.72.4-1.42.82-2.12,1.26-1.4.88-2.76,1.84-4.07,2.85-.78.59-1.53,1.2-2.28,1.81A6.51,6.51,0,0,1,104.16,63c-.1,0-.23-.07-.18-.18Z"/><path class="cls-9" d="M112.7,58.75a11.21,11.21,0,0,1-.84,1.35c-.27.43-.53.87-.77,1.32-.51.93-.91,1.91-1.37,2.86l-.36-.47c.54-.11,1.07-.27,1.59-.43s1.14-.33,1.67-.56a.2.2,0,0,1,.24.31c-.49.53-1,1.07-1.46,1.62A9.31,9.31,0,0,1,110,66.27c-.14.11-.27-.09-.21-.22a6.59,6.59,0,0,1,1.28-1.66c.49-.54,1-1,1.53-1.54l.19.33c-.54.21-1.06.47-1.61.68s-1.09.37-1.63.57a.32.32,0,0,1-.4-.39,15.91,15.91,0,0,1,1.37-3c.26-.47.54-.92.84-1.37a6.59,6.59,0,0,1,1-1.25.24.24,0,0,1,.38.29Z"/><path class="cls-9" d="M84.82,74.22a24.52,24.52,0,0,0-7.15-3.73,17.34,17.34,0,0,0-8.47-.1.19.19,0,0,1-.14-.35c5.26-3.26,11.85.52,16.06,3.8.21.17-.07.54-.3.38Z"/><path class="cls-9" d="M94.11,73.84c4.21-3.28,10.8-7.06,16.06-3.8a.19.19,0,0,1-.15.35,17.34,17.34,0,0,0-8.47.1,24.52,24.52,0,0,0-7.15,3.73c-.22.16-.51-.21-.29-.38Z"/><ellipse class="cls-6" cx="122.33" cy="100.76" rx="5.92" ry="3.23" transform="translate(-35.42 85.5) rotate(-33.95)"/><ellipse class="cls-4" cx="124.07" cy="98.97" rx="2.03" ry="1.71" transform="translate(-34.12 86.17) rotate(-33.95)"/><path class="cls-10" d="M66.11,103.11c.5-2.34,1.93-2.63,4.1-2.16,1.15,2.55,4.26,4.8,8.24,5.64s7.67.08,9.77-1.75c1.68.55,2.58,1.49,2.17,3.44-.7,3.28-4.07,5.53-8.37,6a7.06,7.06,0,0,0-5.7-6.57,7.16,7.16,0,0,0-7.27,2.63C66.75,108.29,65.57,105.66,66.11,103.11Z"/><path class="cls-11" d="M76.32,107.74a7.06,7.06,0,0,1,5.7,6.57,17.29,17.29,0,0,1-5.55-.29,16,16,0,0,1-7.42-3.65A7.16,7.16,0,0,1,76.32,107.74Z"/><path class="cls-4" d="M78.45,106.59c-4-.84-7.09-3.09-8.24-5.64,2.1.46,4.87,1.62,8.17,2.32,3.85.82,7.56.84,9.84,1.57C86.12,106.67,82.39,107.44,78.45,106.59Z"/><path class="cls-12" d="M69.57,51.23c1.76-4.82,5.19-4.25,8.19-3.16a16.23,16.23,0,0,1,6.84,5.69,5.41,5.41,0,0,1,2.26-.6A5.08,5.08,0,0,1,89,54.81a16,16,0,0,1,8.65-3.14c3.19,0,6.61.69,6.57,5.83s-3.47,5.74-6.65,5.72c-2.42,0-7-1.53-9-3.65a5.07,5.07,0,0,1-3.07,1.15,5,5,0,0,1-2.32-1.91,15.78,15.78,0,0,1-9.37.11C70.8,57.83,67.81,56.05,69.57,51.23Z"/><path class="cls-13" d="M84.08,59.59a0,0,0,0,1,0-.08,0,0,0,0,1,0,.08Z"/><path class="cls-13" d="M83.85,59.55a3.75,3.75,0,0,1-1-3.3,4,4,0,0,1,.36-1.53c.18-.37.49-1,1-1.1a.38.38,0,0,1,.47.47,1.5,1.5,0,0,1-.24.47c-.11.18-.22.35-.32.54a2.8,2.8,0,0,0-.3,1.15c-.08,1-.4,2.31.28,3.15a.11.11,0,0,1-.15.15Z"/><path class="cls-13" d="M88.65,54.43a1.88,1.88,0,0,1,.5.35,4.21,4.21,0,0,1,.39.55A4.87,4.87,0,0,1,90,56.65a4.09,4.09,0,0,1,0,1.52c-.08.45-.3,1.35-.83,1.44l.19-.12a1,1,0,0,1-.35.22.34.34,0,0,1-.43-.32,1.13,1.13,0,0,1,.05-.32v.23c-.09-.26.06-.5.15-.74A4.1,4.1,0,0,0,89,58a3.72,3.72,0,0,0,.06-1.2,5.75,5.75,0,0,0-.22-1.08,4,4,0,0,0-.19-.55l-.12-.25a.79.79,0,0,0-.1-.27c-.08-.11.08-.27.19-.19Z"/><path class="cls-13" d="M82.77,55a27.67,27.67,0,0,1-5.51-2.37A26.86,26.86,0,0,1,74.8,51a3.6,3.6,0,0,1-1.56-2,.47.47,0,0,1,.45-.59,7.45,7.45,0,0,1,2.82.22,10.62,10.62,0,0,1,1.44.49,3.79,3.79,0,0,1,1.36.72c.16.18.07.56-.22.53a6.21,6.21,0,0,1-1.29-.46,12.81,12.81,0,0,0-1.38-.39,7.18,7.18,0,0,0-2.61-.19l.33-.58a3.37,3.37,0,0,0,1.59,1.76c.74.53,1.51,1,2.28,1.49a37.84,37.84,0,0,0,4.89,2.55c.28.12.18.57-.13.47Z"/><path class="cls-13" d="M96.8,53a11.62,11.62,0,0,1,2-.09,7,7,0,0,1,1.94.22,1.29,1.29,0,0,1,1,.88c.09.46-.3.75-.7.88a17.47,17.47,0,0,1-3.53.67c-1.31.14-2.62.21-3.94.23a21.64,21.64,0,0,1-4.26-.26c-.26,0-.18-.42.06-.44,1.29-.1,2.59-.1,3.88-.15s2.75-.15,4.11-.28c.64,0,1.28-.11,1.91-.18l.91-.1c.23,0,.8,0,.89-.24.2-.63-3.78-.88-4.26-.92-.11,0-.16-.2,0-.22Z"/><path class="cls-6" d="M83.9,80.68a7.64,7.64,0,0,0-4.23-2.35A15.78,15.78,0,0,0,77.2,78a13.3,13.3,0,0,0-2.75,0,8.18,8.18,0,0,0-4,1.77,10.72,10.72,0,0,0-3.33,3.57,9.52,9.52,0,0,0-.57,2.9c-.1.93-.3,1.85-.4,2.79,0,.27-.47.39-.53.07a11,11,0,0,1,.08-5.72A9.68,9.68,0,0,1,69,79.24a9.74,9.74,0,0,1,4.59-2.37,12.52,12.52,0,0,1,5.79.5,8.66,8.66,0,0,1,4.69,3.18c.07.1-.09.22-.16.13Z"/><path class="cls-6" d="M65.86,73.5a9,9,0,0,0,3.22,2.61,7.11,7.11,0,0,0,2,.55,10.19,10.19,0,0,0,1.24.09c.46,0,1.09,0,1.41.32a.56.56,0,0,1,.09.69.85.85,0,0,1-.71.41,4.28,4.28,0,0,1-.72.07,9,9,0,0,1-1.56-.14,6.84,6.84,0,0,1-2.3-.91,6.29,6.29,0,0,1-2.79-3.61c0-.07.09-.15.14-.08Z"/><path class="cls-6" d="M62.06,77.28a4.2,4.2,0,0,0,1.24,1.17,5.59,5.59,0,0,0,1.56.69,6.13,6.13,0,0,0,1.9.21,5.62,5.62,0,0,0,.92-.08A5.18,5.18,0,0,1,68.84,79a.75.75,0,0,1,.7.53.76.76,0,0,1-.33.82,2.84,2.84,0,0,1-1.25.37,6.61,6.61,0,0,1-1.26.06,6.34,6.34,0,0,1-2.34-.61A4.68,4.68,0,0,1,62.79,79a3.45,3.45,0,0,1-.56-.81,3.57,3.57,0,0,1-.26-.9,0,0,0,0,1,.09,0Z"/><path class="cls-6" d="M94.13,80.55a8.28,8.28,0,0,1,4-3,13,13,0,0,1,5.66-.83,9,9,0,0,1,4.77,2,11.83,11.83,0,0,1,3.63,4,9.54,9.54,0,0,1,.69,3.43,12.08,12.08,0,0,1-.33,3c-.06.32-.5.21-.53-.07-.08-.83-.28-1.65-.37-2.48a14.86,14.86,0,0,0-.4-2.66,8.25,8.25,0,0,0-3-3.68,9.09,9.09,0,0,0-3.87-2.09,10.86,10.86,0,0,0-2.73-.2,17.9,17.9,0,0,0-2.64.27,7.94,7.94,0,0,0-4.76,2.47c-.08.09-.24,0-.17-.13Z"/><path class="cls-6" d="M112.47,73.58a6.21,6.21,0,0,1-2.79,3.61,6.65,6.65,0,0,1-2.23.89,8.18,8.18,0,0,1-1.56.16,3.5,3.5,0,0,1-.72-.06.92.92,0,0,1-.78-.42.56.56,0,0,1,.09-.69c.31-.36.9-.31,1.34-.32a10.32,10.32,0,0,0,1.24-.08,7.25,7.25,0,0,0,2-.56,9,9,0,0,0,3.22-2.61c0-.07.16,0,.14.08Z"/><path class="cls-6" d="M116.22,77.32a4,4,0,0,1-.25.9,3.76,3.76,0,0,1-.53.77,4.77,4.77,0,0,1-1.6,1.22,6.32,6.32,0,0,1-2.29.6,6.48,6.48,0,0,1-1.32,0,2.84,2.84,0,0,1-1.25-.37.76.76,0,0,1-.33-.82.75.75,0,0,1,.7-.53,6.2,6.2,0,0,1,1.11.21,5.51,5.51,0,0,0,.9.1,6.51,6.51,0,0,0,2-.21,5.56,5.56,0,0,0,1.52-.66,4.32,4.32,0,0,0,1.28-1.2,0,0,0,0,1,.09,0Z"/><path class="cls-9" d="M68.73,115.79c-.92-.41-1.78-1-2.66-1.51s-1.79-1-2.67-1.5a39.6,39.6,0,0,1-4.74-3.18,30.93,30.93,0,0,1-7.11-8.34c-.51-.86-1-1.75-1.46-2.65a14.35,14.35,0,0,1-1.23-2.85c-.09-.36.35-.5.56-.23a21.28,21.28,0,0,1,1.33,2.33c.44.78.85,1.59,1.3,2.37a37,37,0,0,0,3,4.59,26.19,26.19,0,0,0,3.73,3.86A45,45,0,0,0,63.38,112c.92.62,1.82,1.27,2.74,1.9S68,115,68.8,115.7c.06,0,0,.12-.07.09Z"/><path class="cls-1" d="M-.26,115.27a4,4,0,0,1,5.17-2.33,2.87,2.87,0,0,1,.4.18l6.74,3.44a.87.87,0,0,0,1.06-.41c.42-.66,0-1,0-1l-9.91-8.52a4,4,0,1,1,5.22-6.07,2.83,2.83,0,0,1,.25.24l8.69,8.89a1.17,1.17,0,0,0,.78-.35.92.92,0,0,0,.15-.85L11.72,96.82a4,4,0,0,1,7-3.95l.15.29,7.26,15.65a.55.55,0,0,0,.49.26.41.41,0,0,0,.38-.28l-.48-13.33a4,4,0,1,1,8-.35,2,2,0,0,1,0,.35l-.63,14.74-.17,2,.54,5.24a1.65,1.65,0,0,0,.67,1.08c.67.39,1,0,1.89-.12a13.08,13.08,0,0,1,4.13-.2c.43,0,.86.07,1.29.12s.85.11,1.28.19.85.18,1.28.29l.66.18.34.11.18.06.25.09a4.23,4.23,0,0,1-3.13,7.87s0,0,0,0l-.07,0a.6.6,0,0,0-.16,0,3.59,3.59,0,0,0-.35-.12c-.25-.08-.51-.16-.77-.22s-.53-.13-.8-.19l-.81-.15a14.15,14.15,0,0,0-3.24-.14c-.54,0-2.14,2.2-3.4,2.83a11.09,11.09,0,0,1-2.47.75l.23,1.13c.25,1.26.5,2.47.77,3.65a36.7,36.7,0,0,0,2,6.54,12.46,12.46,0,0,0,1.38,2.46,4.1,4.1,0,0,0,1.36,1.23,2.17,2.17,0,0,0,1.2.17,2.78,2.78,0,0,0,.73-.17,7.17,7.17,0,0,0,.88-.44,12.26,12.26,0,0,0,2.11-1.64,24.32,24.32,0,0,0,2.16-2.32,51.12,51.12,0,0,0,4-5.65c1.24-2,2.41-4.13,3.5-6.29.55-1.08,1.08-2.17,1.59-3.26l.75-1.65.36-.82.32-.77,0-.11a3.26,3.26,0,0,1,.18-.38,6,6,0,0,1,10.61,5.39l-.48,1-.48.9c-.32.6-.64,1.19-1,1.77-.65,1.17-1.33,2.33-2,3.48-1.39,2.3-2.86,4.56-4.46,6.78a60.11,60.11,0,0,1-5.34,6.48,33.26,33.26,0,0,1-3.29,3A21.85,21.85,0,0,1,44,152.94a15.25,15.25,0,0,1-2.67,1,13.24,13.24,0,0,1-3,.41,12.16,12.16,0,0,1-3.13-.37,11.15,11.15,0,0,1-3-1.26,13.12,13.12,0,0,1-4.11-4,21.18,21.18,0,0,1-2.15-4.32,45,45,0,0,1-2.07-8.18c-.23-1.32-.42-2.62-.6-3.88l-.13-.82-1.77.39s-1.37.18-3.18-1.67a12.31,12.31,0,0,1-2.6-4.3,1.77,1.77,0,0,0-.19-.34.5.5,0,0,0-.25-.19l-13-4.93A4,4,0,0,1-.26,115.27Z"/><path class="cls-9" d="M23.63,103.54c.4.88.8,1.76,1.19,2.65L26,108.87h0a1.09,1.09,0,0,0,.22.27.66.66,0,0,0,.35.15.67.67,0,0,0,.41-.06.58.58,0,0,0,.31-.38h0v-.08c-.1-3.59-.2-7.17-.33-10.75l-.09-2.68a3.66,3.66,0,0,1,.74-2.28,3.77,3.77,0,0,1,2-1.33,3.66,3.66,0,0,1,4.15,1.87,3.6,3.6,0,0,1,.38,1.16,3.23,3.23,0,0,1,0,.62l0,.66L34,101.43l-.15,5.37c-.06,1.79-.1,3.58-.27,5.36h0v0l.2,2,.16,2c0,.33,0,.66.09,1a3,3,0,0,0,.28,1,1.74,1.74,0,0,0,.37.45,1.59,1.59,0,0,0,.52.26,1.26,1.26,0,0,0,.58,0,5.16,5.16,0,0,0,.5-.13,7.17,7.17,0,0,1,.94-.23c.32-.07.64-.13,1-.17a11.65,11.65,0,0,1,2-.1,18.27,18.27,0,0,1,3.9.5,6.59,6.59,0,0,1,3.41,1.62,4,4,0,0,1,1,3.36A4,4,0,0,1,44.72,127a3.41,3.41,0,0,1-.9-.06,4.84,4.84,0,0,1-.91-.26l-.2.57.2.07.21-.57-.27-.1-.27-.09-.52-.15c-.17,0-.34-.1-.53-.14l-.52-.12h0a16.46,16.46,0,0,0-2.81-.33h-.71l-.35,0h-.27a.38.38,0,0,0-.16,0,1.25,1.25,0,0,0-.39.23l-.29.24c-.18.16-.34.32-.51.49a12.69,12.69,0,0,1-2,1.77,6.33,6.33,0,0,1-1.22.48c-.43.12-.87.23-1.32.31h0l-.34.07.07.33.68,3.29.34,1.64c.12.55.25,1.09.39,1.64.28,1.08.59,2.17,1,3.23a17.65,17.65,0,0,0,1.38,3.12,8.63,8.63,0,0,0,1,1.43,4.79,4.79,0,0,0,.65.62,4.1,4.1,0,0,0,.41.26,2.25,2.25,0,0,0,.45.19,2.93,2.93,0,0,0,1,.08,3.09,3.09,0,0,0,.92-.21,7.93,7.93,0,0,0,1.54-.86A16.74,16.74,0,0,0,42.91,142a33.42,33.42,0,0,0,2.17-2.59,59.17,59.17,0,0,0,3.7-5.62c1.13-1.94,2.19-3.91,3.16-5.93.48-1,1-2,1.45-3s.91-2,1.33-3.06a6,6,0,0,1,2-2.45,6.44,6.44,0,0,1,3.06-1.11,5.66,5.66,0,0,0-3.27.79,6,6,0,0,0-2.3,2.54c-.24.53-.44,1-.67,1.54s-.46,1-.69,1.52c-.47,1-1,2-1.46,3q-1.48,3-3.2,5.85a56,56,0,0,1-3.71,5.52,30.45,30.45,0,0,1-2.13,2.54A16.06,16.06,0,0,1,40,143.65a6.52,6.52,0,0,1-1.38.77,2,2,0,0,1-.71.16,2,2,0,0,1-.7-.05c-.1,0-.22-.09-.32-.13a1.87,1.87,0,0,1-.29-.2,3.49,3.49,0,0,1-.56-.53,8.63,8.63,0,0,1-.91-1.3,26.36,26.36,0,0,1-2.3-6.16c-.14-.54-.27-1.08-.4-1.62L32,133l-.69-3.27-.27.4h0a12.63,12.63,0,0,0,1.38-.34,6.26,6.26,0,0,0,1.36-.55A12.71,12.71,0,0,0,36,127.32c.16-.16.32-.33.49-.47a2.25,2.25,0,0,1,.24-.21l.2-.13h.26l.34,0c.23,0,.45,0,.68,0a14.79,14.79,0,0,1,2.71.3h0l.53.12c.16,0,.33.09.5.13l.52.15a1.35,1.35,0,0,1,.24.08l.25.08.21-.57-.2-.07-.21.57a10.16,10.16,0,0,0,1,.34,4.66,4.66,0,0,0,1.06.13,4.57,4.57,0,0,0,2.08-.48,4.42,4.42,0,0,0,2.42-3.42A4.5,4.5,0,0,0,47.82,120a4.4,4.4,0,0,0-1.81-1c-.32-.1-.65-.18-1-.25s-.64-.15-1-.21a32.8,32.8,0,0,0-3.94-.46,12.2,12.2,0,0,0-4,.29,1.48,1.48,0,0,1-.85.11,1.09,1.09,0,0,1-.36-.17.86.86,0,0,1-.26-.31,2.66,2.66,0,0,1-.26-.88c-.06-.31-.09-.65-.13-1l-.25-2-.21-2v0l.12-1.34.06-.67,0-.67.14-2.68.3-5.37.3-5.37,0-.67a5.86,5.86,0,0,0,0-.73,4.44,4.44,0,0,0-.43-1.38,4.33,4.33,0,0,0-2.07-2,4.43,4.43,0,0,0-2.85-.26,4.37,4.37,0,0,0-3.3,4.3l.1,2.7c.13,3.58.28,7.16.43,10.74v-.09h0s0,0,0,.05a.16.16,0,0,1-.11.08.21.21,0,0,1-.16,0,.26.26,0,0,1-.16-.11h0l-1.29-2.61c-.43-.87-.85-1.74-1.26-2.62Z"/><path class="cls-9" d="M16.4,91A11.57,11.57,0,0,1,18,92.65a4.27,4.27,0,0,1,.3.44l.12.24.13.27c.17.36.35.72.53,1.08q.53,1.08,1.11,2.13c.39.7.79,1.4,1.23,2.08l.12-.06c-.24-.77-.51-1.53-.8-2.28s-.58-1.49-.9-2.23c-.16-.36-.32-.73-.49-1.1L19.22,93l-.15-.3a4.07,4.07,0,0,0-.37-.55A2.69,2.69,0,0,0,16.4,91Z"/><path class="cls-9" d="M59.28,137.06c-1.51,1.92-2.92,3.9-4.49,5.76a59.17,59.17,0,0,1-4.91,5.34,25,25,0,0,1-5.79,4.2,14.83,14.83,0,0,1-3.32,1.2,12.48,12.48,0,0,1-3.5.25,11,11,0,0,1-6.35-2.61,15.71,15.71,0,0,1-4-5.74,36.93,36.93,0,0,1-2.12-6.87c-.25-1.19-.48-2.38-.66-3.58l-.58-3.6h0l-.11-.65L23,131l-1.07.7,1.26.18-.54-.38h0c.36,2.41.66,4.84,1.16,7.25a35.06,35.06,0,0,0,2.14,7.09A16.68,16.68,0,0,0,30.25,152a12.4,12.4,0,0,0,3.24,2,12,12,0,0,0,3.72.83A13.3,13.3,0,0,0,41,154.5a15.29,15.29,0,0,0,3.53-1.31,25.66,25.66,0,0,0,6-4.41,44.66,44.66,0,0,0,4.83-5.56A68.8,68.8,0,0,0,59.28,137.06Z"/><path class="cls-9" d="M122.26,170.08a2.27,2.27,0,0,1,.23.5,2.22,2.22,0,0,1,0,.63,3.8,3.8,0,0,1-.38,1.24,3.85,3.85,0,0,1-.73.93,2.84,2.84,0,0,1-1.1.72.46.46,0,0,1-.44-.76c.24-.23.58-.39.83-.59a4.37,4.37,0,0,0,.68-.68,3.3,3.3,0,0,0,.49-.88,3.25,3.25,0,0,0,.12-.52c0-.19.12-.36.15-.55s.11-.13.15,0Z"/><path class="cls-9" d="M123,179.13c-.09-.23-.22-.43-.31-.65s-.19-.46-.29-.68a12.51,12.51,0,0,0-.74-1.28,10.34,10.34,0,0,0-.84-1.13c-.32-.39-.72-.72-1-1.12a.46.46,0,0,1,0-.61.47.47,0,0,1,.61-.13,5.76,5.76,0,0,1,1.13,1.13,9.65,9.65,0,0,1,.92,1.37,11,11,0,0,1,.64,1.45c.08.25.16.5.23.75a5.29,5.29,0,0,1,.09.8.2.2,0,0,1-.37.1Z"/><path class="cls-9" d="M125.29,176.72a5,5,0,0,1-.51-.4l-.46-.43a9,9,0,0,0-1-.79,5.36,5.36,0,0,0-2.34-.89.47.47,0,1,1,.13-.92,7.19,7.19,0,0,1,2.56,1.14,5.58,5.58,0,0,1,1.89,2.06c.06.13-.08.34-.22.23Z"/><path class="cls-9" d="M121.31,164.37a1.44,1.44,0,0,1,.45.7c.13.29.27.58.39.88a8.6,8.6,0,0,1,.49,2,12.49,12.49,0,0,1,.08,2,4.18,4.18,0,0,1-.44,1.91c-.07.12-.31.12-.34,0a11,11,0,0,1,0-1.81,12,12,0,0,0-.07-1.9,17.62,17.62,0,0,0-.35-1.9,8.33,8.33,0,0,0-.22-.86,2.33,2.33,0,0,1-.25-.88c0-.11.12-.2.22-.13Z"/><path class="cls-9" d="M28.34,115.72a7.35,7.35,0,0,0-1.93,4.77,12.22,12.22,0,0,0,.09,3c.14,1,.48,1.87.59,2.82,0,.23-.28.25-.38.1a6.66,6.66,0,0,1-1-3,11.94,11.94,0,0,1,0-3.27c.22-1.69.81-3.79,2.51-4.55a.11.11,0,0,1,.13.18Z"/><path class="cls-9" d="M28.44,111.66a13.37,13.37,0,0,0-7.35,2.15A21.07,21.07,0,0,0,18,116.48a7.77,7.77,0,0,0-1.11,1.32,4.08,4.08,0,0,0-.37.72,2.53,2.53,0,0,1-.31.76c-.1.13-.28.06-.36,0-.32-.42,0-1.2.18-1.62a6,6,0,0,1,1.19-1.51,22.38,22.38,0,0,1,3.29-2.79,11.58,11.58,0,0,1,3.76-1.64,11.82,11.82,0,0,1,4.15-.15c.09,0,.1.14,0,.14Z"/><path class="cls-3" d="M110.55,257.29c-.43-.07-.87-.18-1.3-.28a8.7,8.7,0,0,0-2,0c-1.17,0-2.35,0-3.52,0a1.4,1.4,0,0,0,0,2.8,32.94,32.94,0,0,0,3.83-.52,5.93,5.93,0,0,0,2-.53,6.9,6.9,0,0,0,1.22-.93.34.34,0,0,0-.15-.56Z"/><path class="cls-3" d="M108.37,262.1a1.84,1.84,0,0,0-.2-.64l.07.53a1,1,0,0,0-.17-1,1.65,1.65,0,0,0-.53-.52,3.76,3.76,0,0,0-.46-.2,7.3,7.3,0,0,0-1-.3,7.45,7.45,0,0,0-2.24-.28,1.57,1.57,0,0,0-1,.43,1.53,1.53,0,0,0-.43,1,1.5,1.5,0,0,0,1.47,1.46,25.43,25.43,0,0,1,2.76,0l-.33,0a3,3,0,0,0,1.08.07,1.28,1.28,0,0,0,.83-.52l-.58.34c.11,0-.13,0-.06,0h.08s.19.07,0,0c.28.13.76,0,.71-.4Z"/><path class="cls-1" d="M201.89,258.56q3.87-17,7.91-33.94,2-8.46,4.11-16.88c1.4-5.6,2.83-11.22,4.35-16.61a9.6,9.6,0,0,0-18.47-5.23c-.09.33-.17.67-.23,1-1,5.95-1.83,11.74-2.64,17.56s-1.57,11.6-2.3,17.39q-2.24,17.37-4.26,34.74a5.86,5.86,0,0,0,11.52,2Z"/><path class="cls-2" d="M184.38,264.15a1.49,1.49,0,0,1-.47-.58l-.86-1.07a1.48,1.48,0,0,1-.12-.59l-.1-9.56a1.48,1.48,0,0,1,1.58-1.47L206,252.41a1.48,1.48,0,0,1,1.36,1.65l-.85,8.67a1.51,1.51,0,0,1-.44.88l-1.88,1a1.43,1.43,0,0,1-.44.3l-.66,22.8-16.49,2.74-9.43-3.1Z"/><path class="cls-1" d="M258.9,253.19c-.24-1.24-.49-2.57-.72-3.87l-.69-3.93q-.66-3.93-1.24-7.88c-.77-5.26-1.42-10.52-1.92-15.75s-.82-10.43-.85-15.48c0-2.52.07-5,.26-7.38a35.77,35.77,0,0,1,1-6.46,9.61,9.61,0,0,0-18.56-5q-.15.59-.24,1.17l0,.35a56.7,56.7,0,0,0-.4,9.67c.12,3,.38,6,.72,8.82.7,5.72,1.71,11.25,2.86,16.7s2.47,10.82,3.89,16.14q1.07,4,2.21,8l1.17,4c.4,1.33.8,2.62,1.24,4a5.86,5.86,0,0,0,11.33-2.88Z"/><path class="cls-14" d="M252.91,168.57v2.86a2.31,2.31,0,0,0,.33,1.2l.95,1.54a2.26,2.26,0,0,1,.32,1.5l-.68,5.05a2.39,2.39,0,0,0,.1,1l11.8,35.12a2.27,2.27,0,0,1-1,2.66c-3.95,2.48-15.52,8.48-32.37,6.69a2.3,2.3,0,0,1-2-2c-3-22.78-3-20.17-3-20.17l-6.69,21a2.29,2.29,0,0,1-2,1.59c-5.31.29-22.79.38-33.66-10.09a2.27,2.27,0,0,1-.53-2.48c9.29-23.56,14-32.48,15.56-35.19a2.27,2.27,0,0,0,.1-2.12h0a2.28,2.28,0,0,1,.27-2.38l.22-.28a2.3,2.3,0,0,0,.44-1.9h0a2.3,2.3,0,0,1,2.09-2.78l47.3-3.16A2.29,2.29,0,0,1,252.91,168.57Z"/><path class="cls-1" d="M152,101.93c9.64-11.79,15.37-20.23,15.37-20.23s-8-2.31-12.9.88a49.53,49.53,0,0,1,13.62-27.95s-5.48-1-14.18.63c12.28-21.91,21.34-26.59,21.34-26.59s-2.43-2.79-8.52-2.49c11-5.26,18.36-3.93,18.36-3.93s-3-1.47-8.44-13.15c9.41,4.82,26.15,8.42,26.15,8.42s-1.31-5-9.55-10c21.26-1.56,29.8,4.53,29.8,4.53s0-4.89-6.45-11.46c8.67,1.52,14.91,12.83,15.6,14.13-.38-.78-2.23-5.2.07-14.69C235.77,9.87,245,17.36,245,17.36S242.48,6.52,238,0c19.63,8.2,24.05,21.82,24.05,21.82s2.95-2,5.1-12.9c10.52,26.76,5.5,32.87,5.05,33.34.3-.28,2.8-2.49,11.29-3.66-15.29,20-19.12,34-19.12,34-.62,13.72-.26,25.21-24.7,28.9l-.78,5-21.14,56.34-9.21-19.95a175,175,0,0,0-9.08,25.24c-11.23-14-12.1-22.77-12.1-22.77s-4.86,7.68-8,22.77C168.17,146.4,170,132.67,170,132.67s-2.55-.24-7.33,4.3c-1.55-25.33,3-33.86,3-33.86A36.68,36.68,0,0,1,152,101.93Z"/><path class="cls-1" d="M252,115a7.68,7.68,0,0,1,10,4.26l0,.09a70.09,70.09,0,0,0,5.41,10.48c2.17,3.47,4.61,6.85,7.18,10.18s5.35,6.55,8.2,9.71c.72.79,1.43,1.58,2.17,2.35s1.46,1.56,2.2,2.32,1.49,1.52,2.23,2.28h0a10.73,10.73,0,0,1,1.89-1.11c1.46-.6,4.47-.35,4.88-.79a16,16,0,0,0,2.26-2.83l.47-.79c.14-.27.3-.54.42-.81s.27-.54.39-.81.1-.26.16-.38,0-.12.06-.17l0-.08h0a4.73,4.73,0,0,1,8.92,3.14l-.11.27-.08.2c-.05.13-.11.26-.16.37s-.22.48-.33.69c-.22.45-.46.87-.7,1.29s-.52.81-.78,1.22-.56.78-.84,1.17a14.85,14.85,0,0,1-3.2,3.33c-.76.61-1.33.66-1.49,1.5a1.82,1.82,0,0,0,.42,1.36l4,4.3,1.78,1.31,12.88,10.29.3.25a4.47,4.47,0,0,1-6.17,6.48l-9.4-8.18a.47.47,0,0,0-.52.11.6.6,0,0,0-.14.61l6.37,15.59c.05.11.1.23.14.34a4.47,4.47,0,0,1-8.44,3l-5.26-16a1.19,1.19,0,0,0-.9-.49c-.53,0-.77.72-.77.72l1.37,15.38c0,.13,0,.26,0,.39a4.48,4.48,0,0,1-8.95-.06l.1-14.6s0-.55-.87-.7a.8.8,0,0,0-.87.47l-2.3,8.32c0,.16-.09.32-.14.47a4.48,4.48,0,0,1-8.4-3.11l5.4-14.58a.53.53,0,0,0,0-.34,1.6,1.6,0,0,0-.15-.41,13.67,13.67,0,0,1-1.71-5.34,5.5,5.5,0,0,1,.69-3.61l-1-.89c-.84-.75-1.67-1.52-2.5-2.29s-1.65-1.55-2.47-2.34c-3.27-3.15-6.45-6.39-9.52-9.8s-6-7-8.78-10.79A86.28,86.28,0,0,1,248,125.48c-.07-.15-.15-.32-.21-.48A7.69,7.69,0,0,1,252,115Z"/><path class="cls-1" d="M167,183.61c.5-3.21,1.87-11.51,3.05-13a7.52,7.52,0,0,1,4.25-2.39c.09-1,.24-1.19.32-1.87.12-1.1.25-2.07.39-3.09s.27-2,.43-3q.45-3,1-6c.72-4,1.54-8,2.54-12a121.19,121.19,0,0,1,3.6-12c.33-1,.75-2,1.16-3s.79-2,1.31-3l.72-1.52c.26-.51.46-1,.77-1.52l1.77-3.06c.15-.24.33-.52.5-.75a7.69,7.69,0,0,1,12.31,9.21l-.16.22a49.38,49.38,0,0,0-5,8.85A105.43,105.43,0,0,0,192,146c-1.2,3.57-2.25,7.23-3.22,10.93-.49,1.84-.94,3.7-1.37,5.57-.22.93-.42,1.86-.63,2.79s-.4,1.89-.56,2.74l0,.12s0,.08,0,.11c1.15.31,7,1.94,8.38,3.59a4.77,4.77,0,0,1,1.24,2l2.62,8a4.67,4.67,0,0,1-4.44,6.14,4.84,4.84,0,0,1-1.21-.16l.84,7.37a4.68,4.68,0,0,1-4.12,5.18l-.53,0a4.67,4.67,0,0,1-4.31-2.87,4.66,4.66,0,0,1-2.91,1h-.16a4.68,4.68,0,0,1-4.35-3.43,4.67,4.67,0,0,1-6-2.41h-.11a4,4,0,0,1-3.95-3.56l-.39-3.7A4,4,0,0,1,167,183.61Z"/><path class="cls-5" d="M180.59,128.74a1.41,1.41,0,0,1-.09-.76c1.91-12.06,11.25-24.77,11.25-24.77l.33-.45a1.33,1.33,0,0,1,.46-.39c39.06-20.86,61.6,2.46,62.78,3.73l.09.1L269,123.76a1.43,1.43,0,0,1,0,1.69,28.44,28.44,0,0,1-16.33,11.1,1.43,1.43,0,0,0-1.09,1.49c.17,2.42.16,5.91.68,9.38,1.21,8.17,3.1,17.73,4,21.87a1.42,1.42,0,0,1-1.6,1.69c-3.07-.46-9.77-.94-21,.71-13.75,2-30.76,1.8-35.65,1.69a1.43,1.43,0,0,1-1.39-1.48c.1-2.35.63-7.89,3.17-18.82l0-.2a59.42,59.42,0,0,0-.26-15,1.42,1.42,0,0,0-1.36-1.22C192.15,136.43,183.26,135,180.59,128.74Z"/><path class="cls-1" d="M189.44,63.22A37.93,37.93,0,1,1,264.27,72c.42,3,1.83,9.44,6.3,9.44,2.6,0,3.92,2.79,1.8,5.85-2.58,3.73-9.4,8-14.61,10-8.72,3.41-34.2,9.14-48.73-.86A37.9,37.9,0,0,1,189.44,63.22Z"/><path class="cls-2" d="M243.11,262.55l1.2,1.43a2,2,0,0,1,.43,1.61,46.28,46.28,0,0,0-.57,11.71,8,8,0,0,0,.75,2.68,2,2,0,0,0,1.46,1.16,89.86,89.86,0,0,0,14.87.81,1.41,1.41,0,0,1,.29,0c.91.12,5.76.75,10.26,1.31,4,.5,7.79.94,8.17.88.81-.11,10.19-.69,14.86-1.27a2.11,2.11,0,0,0,.59-.18l1.78-.84a2,2,0,0,0,1-2.47v0c-1-2.39-3-6.52-6.19-7.69-3.58-1.32-7.24-1.62-10.39-2.44a17.73,17.73,0,0,1-2.4-.78c-3-1.26-8.41-5.23-10.14-6.52a2,2,0,0,1-.73-1.07l-2-7.45a2,2,0,0,0-1.89-1.46l-19.79-.2a2,2,0,0,0-2,2v7.56A2,2,0,0,0,243.11,262.55Z"/><ellipse class="cls-4" cx="251.95" cy="68.43" rx="11.24" ry="11.83" transform="translate(6.28 156.79) rotate(-34.98)"/><circle class="cls-6" cx="249.01" cy="69.07" r="6.09"/><path class="cls-7" d="M246.17,69.07a2.83,2.83,0,1,0,5.65,0,2.18,2.18,0,0,0,0-.44,10.5,10.5,0,0,1,2.44,1.27,5.29,5.29,0,0,1-10.42.15,10.53,10.53,0,0,1,2.39-1.32C246.18,68.84,246.17,69,246.17,69.07Z"/><path class="cls-8" d="M243.7,69.07a5.3,5.3,0,0,1,10.59,0,5.69,5.69,0,0,1-.07.83,10.5,10.5,0,0,0-2.44-1.27,2.18,2.18,0,0,1,0,.44,2.83,2.83,0,1,1-5.65,0c0-.12,0-.23,0-.34a10.53,10.53,0,0,0-2.39,1.32A5.25,5.25,0,0,1,243.7,69.07Z"/><circle class="cls-4" cx="247.1" cy="67.32" r="2.12"/><circle class="cls-4" cx="251.72" cy="69.43" r="0.77"/><ellipse class="cls-4" cx="222.96" cy="68.43" rx="11.83" ry="11.24" transform="translate(39.08 211.89) rotate(-55.02)"/><circle class="cls-6" cx="221.23" cy="69.07" r="6.09"/><path class="cls-7" d="M224.06,69.07a2.83,2.83,0,1,1-5.65,0,3.27,3.27,0,0,1,0-.44A10.24,10.24,0,0,0,216,69.9a5.29,5.29,0,0,0,10.42.15,10.6,10.6,0,0,0-2.4-1.32C224.05,68.84,224.06,69,224.06,69.07Z"/><path class="cls-8" d="M226.53,69.07a5.29,5.29,0,0,0-10.58,0,4.57,4.57,0,0,0,.07.83,10.24,10.24,0,0,1,2.43-1.27,3.27,3.27,0,0,0,0,.44,2.83,2.83,0,1,0,5.65,0c0-.12,0-.23,0-.34a10.6,10.6,0,0,1,2.4,1.32A5.25,5.25,0,0,0,226.53,69.07Z"/><circle class="cls-4" cx="223.13" cy="67.32" r="2.12"/><circle class="cls-4" cx="218.51" cy="69.43" r="0.77"/><path class="cls-9" d="M215.5,41.19a41.18,41.18,0,0,0-8.29-4.54c-3-1.29-6-2.4-8.93-3.68-.83-.35-1.64-.72-2.44-1.12-.4-.2-.8-.4-1.18-.62l-.58-.34a6.7,6.7,0,0,0-.6-.45c-.29-.15,0-.56.24-.43,2.41,1.14,2.6,4.33,3.22,6.58a56.1,56.1,0,0,0,3.65,9.25.25.25,0,0,1-.44.25,21.84,21.84,0,0,1-1.24-2q-.53-1.07-1-2.16a35.43,35.43,0,0,1-1.55-4.41c-.38-1.35-.6-2.75-1-4.11a4.41,4.41,0,0,0-1.91-2.95l.24-.43a10.62,10.62,0,0,0,1.11.43L196,31c.74.34,1.48.66,2.23,1,1.48.65,3,1.24,4.47,1.85a67.34,67.34,0,0,1,8.67,4,36.22,36.22,0,0,1,4.44,3c.21.16-.07.52-.28.36Z"/><path class="cls-9" d="M202.67,36.86a47.56,47.56,0,0,1,6.05,6.94c.25.36-.16.76-.53.69a18.61,18.61,0,0,1-4.26-1.38l.53-.31c0,.75.2,1.45.24,2.18,0,.25-.31.29-.43.12a4.26,4.26,0,0,1-.52-2.3.37.37,0,0,1,.54-.31,14.4,14.4,0,0,0,4,1.08l-.33.8c-1-1.19-1.86-2.41-2.82-3.58s-1.95-2.33-3-3.46c-.28-.32.16-.77.46-.47Z"/><path class="cls-9" d="M254,40.63a6.27,6.27,0,0,1,2-2.14c.8-.69,1.63-1.36,2.47-2a60.68,60.68,0,0,1,5.08-3.62c.87-.55,1.77-1.08,2.69-1.56a1.21,1.21,0,0,1,1.1-.18.86.86,0,0,1,.44.82,45,45,0,0,1-.31,6.25c-.22,2.48-.55,4.93-1,7.38-.06.33-.54.19-.5-.14.53-3.93,1-7.89,1.18-11.85a6.54,6.54,0,0,0,0-1.25c-.06-.4-.19-.29-.45-.15l-.64.34c-.8.45-1.59.92-2.36,1.41-1.57,1-3.08,2.06-4.56,3.18-.86.66-1.7,1.34-2.54,2a7.38,7.38,0,0,1-2.4,1.69.17.17,0,0,1-.21-.2Z"/><path class="cls-9" d="M263.74,36.05a12.41,12.41,0,0,1-.93,1.5c-.3.48-.59,1-.86,1.47-.57,1-1,2.14-1.53,3.2L260,41.7a18.19,18.19,0,0,0,1.79-.49,17.46,17.46,0,0,0,1.85-.62.22.22,0,0,1,.27.35c-.54.59-1.09,1.19-1.62,1.8a10.21,10.21,0,0,1-1.58,1.7c-.17.12-.31-.1-.25-.24a7.57,7.57,0,0,1,1.43-1.86c.55-.6,1.11-1.17,1.71-1.72l.22.37c-.61.24-1.19.53-1.8.76l-1.83.64a.36.36,0,0,1-.43-.44,17.4,17.4,0,0,1,1.52-3.31c.3-.52.61-1,.94-1.52a7.41,7.41,0,0,1,1.09-1.4.27.27,0,0,1,.42.33Z"/><path class="cls-9" d="M232.61,58a27.55,27.55,0,0,0-8-4.16,19.41,19.41,0,0,0-9.46-.12.21.21,0,0,1-.16-.38c5.87-3.65,13.23.58,17.94,4.24.24.18-.08.61-.33.42Z"/><path class="cls-9" d="M243,57.58c4.7-3.66,12.06-7.89,17.94-4.24a.21.21,0,0,1-.16.38,19.29,19.29,0,0,0-9.46.12,27.43,27.43,0,0,0-8,4.16c-.25.18-.57-.23-.33-.42Z"/><path class="cls-9" d="M242.18,92.25c-1.68,1.52-4.17,2-6.33,2.4a30.89,30.89,0,0,1-7.19.39,28.1,28.1,0,0,1-13.08-3.79,12.86,12.86,0,0,1-2.61-2.1,6.5,6.5,0,0,1-1.85-3,.5.5,0,0,1,.83-.48c.68.7,1.18,1.54,1.87,2.25a13.54,13.54,0,0,0,2.1,1.75,22.2,22.2,0,0,0,5.28,2.5,32.57,32.57,0,0,0,13.43,1.61,33.51,33.51,0,0,0,3.73-.54,10.94,10.94,0,0,0,3.7-1.1.1.1,0,0,1,.12.15Z"/><path class="cls-9" d="M214.67,86.62A10.59,10.59,0,0,1,213,86.4l-.8-.16c-.12,0-.25-.06-.38-.07h-.05s0,0,0,0a.13.13,0,0,0,.06,0s.06,0,.05,0a1.34,1.34,0,0,0,0,.19,2.84,2.84,0,0,1,0,.35,6.77,6.77,0,0,1,0,.78q0,.44-.12.87a3.34,3.34,0,0,1-.29.8.58.58,0,0,1-.72.24.57.57,0,0,1-.32-.67c.05-.29.09-.56.16-.84a6.24,6.24,0,0,0,.13-.75c0-.29.06-.58.09-.85a1,1,0,0,1,.46-.84,1.13,1.13,0,0,1,.79-.06l.88.22a12.34,12.34,0,0,1,1.79.55.28.28,0,0,1,.21.32.28.28,0,0,1-.29.25Z"/><path class="cls-9" d="M209.31,96.75c-1-.5-1.84-1.19-2.74-1.78s-1.79-1.12-2.67-1.71a37.9,37.9,0,0,1-4.66-3.61,34.07,34.07,0,0,1-6.82-9.21c-.5-1-1-1.93-1.41-2.92a14.93,14.93,0,0,1-1.17-3.15.34.34,0,0,1,.62-.26,18.53,18.53,0,0,1,1.3,2.55c.43.87.82,1.74,1.24,2.61a48.61,48.61,0,0,0,2.79,4.92,27.47,27.47,0,0,0,3.57,4.34,42,42,0,0,0,4.53,3.78c.92.7,1.81,1.42,2.7,2.14s1.95,1.38,2.8,2.19a.07.07,0,0,1-.08.11Z"/><path class="cls-15" d="M198.74,136.5a1.62,1.62,0,0,1,.84-.22c.28,0,.57-.05.85-.1l.86-.16c.31-.05.61-.13.92-.18.13,0,.28.15.15.26a3.79,3.79,0,0,1-1.75.74,5.2,5.2,0,0,1-1,.09,1.26,1.26,0,0,1-.91-.24.15.15,0,0,1,0-.19Z"/><path class="cls-15" d="M201.75,136.08c1.33-3.52,2.76-7,4-10.56.61-1.79,1.19-3.59,1.77-5.39.29-.9.6-1.79.9-2.68a16.3,16.3,0,0,1,1-2.54c.1-.2.47-.12.44.12a17.16,17.16,0,0,1-.58,2.65c-.25.91-.5,1.82-.77,2.72-.56,1.84-1.14,3.67-1.78,5.48a58.23,58.23,0,0,1-4.47,10.39c-.14.24-.56.08-.46-.19Z"/><path class="cls-15" d="M209.42,115.19c-.29-.07-.35-.31-.44-.56s-.23-.64-.33-1c-.19-.6-.39-1.2-.58-1.79-.39-1.24-.78-2.5-1-3.77,0-.19.24-.33.34-.14a29.32,29.32,0,0,1,1.47,3.63c.21.61.4,1.24.59,1.86.1.3.18.6.26.91s.16.53-.05.77a.2.2,0,0,1-.21,0Z"/><path class="cls-15" d="M206.69,107.23a21.73,21.73,0,0,0-2.34-2,12.24,12.24,0,0,0-5.6-2.08,27.48,27.48,0,0,0-3,0,.28.28,0,0,1-.08-.55,10.06,10.06,0,0,1,6.27.77,10.53,10.53,0,0,1,4.92,3.83.1.1,0,0,1-.16.12Z"/><path class="cls-15" d="M251.54,138c-.18-3.28-.52-6.56-.59-9.84a84.55,84.55,0,0,1,.31-10.19,18.73,18.73,0,0,1,1-5.3c.08-.22.45-.22.44.06,0,1.58-.34,3.15-.53,4.73s-.31,3.32-.38,5c-.16,3.35-.15,6.7-.22,10,0,1.84,0,3.67,0,5.51,0,.06-.09.06-.09,0Z"/><path class="cls-15" d="M254.31,105a18.44,18.44,0,0,1-.51,2.17q-.27,1.11-.51,2.22c-.16.75-.31,1.49-.46,2.24-.07.38-.15.77-.22,1.16a4.14,4.14,0,0,1-.24,1c-.11.23-.42.09-.44-.12a3.88,3.88,0,0,1,.14-1.07c.07-.39.15-.78.23-1.16.15-.75.33-1.48.51-2.22s.38-1.47.59-2.2a13.09,13.09,0,0,1,.68-2.12c0-.11.25-.06.23.06Z"/><path class="cls-15" d="M246.44,135.17a183,183,0,0,1-25.51,2.13c-1.19,0-2.37,0-3.56,0a20.1,20.1,0,0,1-3.64-.17.3.3,0,0,1,0-.58,19.3,19.3,0,0,1,3.05-.19c1.08,0,2.17-.09,3.26-.11,2.14,0,4.28-.14,6.43-.23,4.25-.17,8.49-.45,12.73-.76,2.4-.18,4.79-.3,7.19-.46.2,0,.25.33.05.36Z"/><path class="cls-15" d="M213.77,136.45c4.31.82,8.69,1.33,13,1.79s8.56.75,12.86.91c2.47.1,4.94.17,7.41.23a.26.26,0,0,1,0,.51,107.17,107.17,0,0,1-13.17-.08,111.65,111.65,0,0,1-13-1.49c-2.43-.44-4.85-.93-7.26-1.42-.29-.06-.17-.5.12-.45Z"/><path class="cls-15" d="M247.77,140.22c-1.14.34-2.27.71-3.41,1s-2.25.55-3.38.78c-2.3.46-4.6.82-6.92,1.1a101.63,101.63,0,0,1-14.06.79,48.53,48.53,0,0,1-7.81-.56c-.44-.08-.32-.75.1-.76,2.31-.07,4.63.07,6.94.08s4.63,0,6.94-.15a134.91,134.91,0,0,0,13.75-1.45c1.27-.19,2.54-.45,3.81-.63s2.64-.37,3.93-.62a.2.2,0,0,1,.11.39Z"/><path class="cls-16" d="M232.71,189.08c-.65,1.62-1.39,3.21-2,4.85s-1.2,3.36-1.74,5-1,3.35-1.51,5a48.19,48.19,0,0,1-1.57,5.13c-.09.22-.49.23-.47-.07a24.62,24.62,0,0,1,1.14-5.21q.78-2.56,1.72-5.08c.62-1.63,1.29-3.25,2-4.84s1.43-3.33,2.31-4.92c0-.07.15,0,.12.05Z"/><path class="cls-16" d="M240.43,192.11a29.76,29.76,0,0,0-8.89-2.72c-1.56-.24-3.13-.38-4.7-.48l-2.26-.13a7.17,7.17,0,0,1-2.35-.36.34.34,0,0,1,0-.65,6.4,6.4,0,0,1,2.35-.14c.81,0,1.62.1,2.43.17,1.61.14,3.21.33,4.8.61a23.47,23.47,0,0,1,8.86,3.29.24.24,0,0,1-.24.41Z"/><path class="cls-16" d="M238,184.9c-3.45-.81-6.89-1.64-10.37-2.3-1.61-.31-3.23-.54-4.83-.91a18.16,18.16,0,0,1-2.39-.7,5,5,0,0,1-2-1.11.31.31,0,0,1,.29-.51,3.87,3.87,0,0,0,1.37-.23l1.14-.22,2.46-.45c1.6-.3,3.21-.56,4.83-.71s3.32-.25,5-.27a21.32,21.32,0,0,1,4.86.27c.22.05.15.34-.05.36-1.58.17-3.21,0-4.81,0s-3.27.09-4.9.22-3.19.25-4.78.45c-.84.11-1.67.26-2.51.44l-1.13.25a3.41,3.41,0,0,0-1.33.37l-.22-.52a11.51,11.51,0,0,1,2.28.69c.74.22,1.49.41,2.25.58,1.62.37,3.27.64,4.9,1a58.16,58.16,0,0,1,10.11,2.92.2.2,0,0,1-.11.38Z"/><path class="cls-16" d="M238.22,178.11a1.09,1.09,0,0,1-.62,0c-.41-.09-.84-.14-1.25-.2-.8-.12-1.58-.28-2.37-.42-1.67-.3-3.35-.59-5-.91s-3.27-.64-4.9-1a31.85,31.85,0,0,1-4.95-1.18c-.34-.14-.32-.7.09-.69a33.52,33.52,0,0,1,5.44.88q2.66.51,5.29,1.06c1.76.36,3.51.76,5.27,1.14.88.2,1.8.35,2.66.63.21.06.42.18.44.43,0,.07,0,.19-.08.23Z"/><path class="cls-16" d="M253,185.71c-.06-.46-.16-.91-.18-1.37s0-.91,0-1.37c0-.87,0-1.75.1-2.62s.16-1.7.3-2.55a8.42,8.42,0,0,1,.65-2.53c.15-.29.56-.13.58.16a11.71,11.71,0,0,1-.31,2.42c-.14.88-.26,1.77-.38,2.65s-.22,1.71-.27,2.57-.14,1.75-.22,2.64a.14.14,0,0,1-.28,0Z"/><path class="cls-16" d="M206.81,176.24a5.16,5.16,0,0,0-2.27-1.36l-1.4-.54c-.27-.1-.53-.22-.79-.33a2.55,2.55,0,0,1-.75-.39.4.4,0,0,1,.28-.68,3,3,0,0,1,.85.31l.77.34,1.5.73a5.07,5.07,0,0,1,2.07,1.77c.12.17-.15.31-.26.15Z"/><path class="cls-16" d="M203.84,185.66a26.25,26.25,0,0,0-1.12-3.27c-.21-.54-.44-1.07-.7-1.59a12.75,12.75,0,0,1-.77-1.52c-.08-.24.24-.4.41-.24a6,6,0,0,1,.92,1.5c.26.51.49,1,.7,1.57a14.32,14.32,0,0,1,.81,3.48c0,.15-.21.23-.25.07Z"/><path class="cls-9" d="M292.55,169.82c.25.52-.14,1-.45,1.42a16,16,0,0,1-1.28,1.44,20.26,20.26,0,0,1-3,2.51c-.41.28-.91-.36-.53-.69.88-.76,1.78-1.49,2.64-2.28l1.24-1.17a3.55,3.55,0,0,0,1.05-1.2c.05-.11.23-.17.29,0Z"/><path class="cls-9" d="M303.18,170.18c-.75,2.67-3.7,3.94-6,5a32.9,32.9,0,0,1-4.4,1.67,15.15,15.15,0,0,1-4.7.92.49.49,0,0,1-.13-1c1.37-.49,2.85-.68,4.25-1.05s2.78-.86,4.15-1.38a24.45,24.45,0,0,0,3.82-1.76,5.45,5.45,0,0,0,2.62-2.57c.09-.23.44-.15.37.1Z"/><path class="cls-9" d="M192.74,178c0,1.67,0,3.35.11,5a23.76,23.76,0,0,0,.2,2.52c.06.42.14.83.22,1.25s.17.64,0,.91a.22.22,0,0,1-.29.08c-.58-.26-.59-1.49-.66-2a24,24,0,0,1-.22-2.54,33.53,33.53,0,0,1,.39-5.2c0-.17.28-.19.28,0Z"/><path class="cls-9" d="M190.91,190.77a4.38,4.38,0,0,1-1.08,1.48,4.79,4.79,0,0,1-1.57,1.15,3.87,3.87,0,0,1-2.7-.19,2.75,2.75,0,0,1-1.85-1.6.36.36,0,0,1,.65-.27,3.19,3.19,0,0,0,1.61,1.13,3.34,3.34,0,0,0,2.2.2,5.44,5.44,0,0,0,1.43-.89,3.81,3.81,0,0,0,1.09-1.1.12.12,0,0,1,.22.09Z"/><path class="cls-9" d="M184.09,191.44c-.2.64-1.1,1-1.69,1.07a4.31,4.31,0,0,1-2.22-.17,5.25,5.25,0,0,1-1.86-1.14,4.8,4.8,0,0,1-.7-.85,1.57,1.57,0,0,1-.32-1.06.27.27,0,0,1,.34-.19c.3.11.43.34.65.56s.4.46.62.67a4.63,4.63,0,0,0,1.49,1,3.86,3.86,0,0,0,1.78.25,4.41,4.41,0,0,0,.88-.17,3.56,3.56,0,0,1,.85-.23.19.19,0,0,1,.18.23Z"/><path class="cls-9" d="M177.63,189.15a.29.29,0,0,1,.05.52,1,1,0,0,1-.71,0l-.1,0s0,0,0,0c.17,0-.06,0-.1,0a4,4,0,0,1-.6.1,4.36,4.36,0,0,1-1.3-.06,4.12,4.12,0,0,1-2.16-1.08,2.92,2.92,0,0,1-1-2.08.38.38,0,0,1,.63-.26c.41.44.73,1,1.18,1.36a3.65,3.65,0,0,0,2.48,1,5.35,5.35,0,0,1,1,0,1.34,1.34,0,0,1,.57.29l.17.18h0c.11.07,0,.07-.25,0a.2.2,0,0,1,.17,0Z"/><path class="cls-9" d="M172.24,186.79a1.57,1.57,0,0,1-1.11.55,2.84,2.84,0,0,1-.72-.08l-.65-.14a2.67,2.67,0,0,1-2-1.79.45.45,0,0,1,.75-.44c.23.23.46.46.7.68l.09.08c.07.06-.06,0,0,0l.2.14c.14.08.28.17.43.24h0l.11,0,.24.08.53.2c.13,0,.29.07.43.12s.29,0,.43.06h-.17a.79.79,0,0,0,.39-.16c.26-.19.48.19.31.4Z"/><path class="cls-9" d="M184.44,196.4c-.18-.8-.3-1.6-.44-2.41-.07-.39-.13-.79-.19-1.19a2.9,2.9,0,0,1-.07-1.24.33.33,0,0,1,.59-.08,2.73,2.73,0,0,1,.25,1.17c0,.42.09.83.13,1.25.07.81.16,1.62.19,2.44a.24.24,0,0,1-.46.06Z"/><path class="cls-9" d="M177.18,191.57l0,0,.06.05a.3.3,0,0,1-.21-.21,1,1,0,0,1-.09-.29c0-.17-.07-.35-.1-.52a2.34,2.34,0,0,1,0-.26,1.52,1.52,0,0,1,0-.21V190c0-.2-.06-.49.11-.64a.29.29,0,0,1,.33,0c.21.12.19.38.24.59a2.88,2.88,0,0,1,.06.59c0,.17,0,.35,0,.53a1.56,1.56,0,0,1,0,.31.34.34,0,0,1-.17.26l.05-.06,0,0a.09.09,0,0,1-.16,0Z"/><path class="cls-9" d="M171.42,188.79a3.41,3.41,0,0,1-.13-.53l-.06-.52c0-.17,0-.34,0-.51a2.26,2.26,0,0,0,0-.26.77.77,0,0,1,.12-.36.34.34,0,0,1,.62.08.59.59,0,0,1,0,.32,1.94,1.94,0,0,0,0,.24c0,.17,0,.34-.05.5l-.06.51c0,.18-.07.35-.09.53s-.33.17-.38,0Z"/><path class="cls-9" d="M189.61,152.59a41,41,0,0,1,1.74-8.69,30.39,30.39,0,0,1,1.59-3.88c.32-.66.66-1.31,1-2a9.7,9.7,0,0,1,1.39-2.12.49.49,0,0,1,.82.48,11.39,11.39,0,0,1-1,2.15c-.34.66-.67,1.32-1,2-.57,1.23-1.08,2.49-1.54,3.76-1,2.73-1.76,5.54-2.61,8.32-.07.22-.44.19-.42-.06Z"/><path class="cls-9" d="M175.51,159.4c.11-2,.6-4,.86-6s.45-3.72.67-5.58a55.92,55.92,0,0,1,2.2-10.63c.34-1,.71-2.06,1.13-3.07a11.05,11.05,0,0,1,1.6-3c.25-.3.68,0,.61.35a18.31,18.31,0,0,1-1.08,2.83c-.37.91-.7,1.83-1,2.77a52.7,52.7,0,0,0-1.39,5.29c-.75,3.48-1.23,7-1.86,10.53-.19,1.05-.39,2.1-.59,3.15a19.58,19.58,0,0,1-.91,3.46c0,.12-.24.12-.23,0Z"/><path class="cls-9" d="M300.48,163.64c-1.16,2.64-4.26,3.46-6.93,3.41a11.59,11.59,0,0,1-4.07-.83,9.88,9.88,0,0,1-1.85-1,4.81,4.81,0,0,1-1.47-1.33.25.25,0,0,1,.33-.34c.54.25,1,.69,1.53,1a12.08,12.08,0,0,0,1.69.84,10.88,10.88,0,0,0,3.69.78,10.45,10.45,0,0,0,3.64-.55,6,6,0,0,0,3.12-2.19.19.19,0,0,1,.32.19Z"/><path class="cls-3" d="M268.5,260.69v-10a.87.87,0,0,0-.85-.87L257,249.52a.88.88,0,0,0-.88,1.06l2.35,10.8a.89.89,0,0,0,.91.69l8.29-.5A.88.88,0,0,0,268.5,260.69Z"/><path class="cls-3" d="M201.73,263.88l2.84-11.64a2.1,2.1,0,0,0-1.58-2.81l-13.15-1.79a2,2,0,0,0-2.2,2.13v13a2,2,0,0,0,1.82,2l10.31.4A2,2,0,0,0,201.73,263.88Z"/><path class="cls-3" d="M190.56,260.86c-.35,2.42-.84,4.82-1.28,7.23-.22,1.18-.43,2.37-.63,3.55a23.07,23.07,0,0,1-.71,3.63.31.31,0,0,1-.61-.09,17.5,17.5,0,0,1,.35-3.6c.19-1.22.4-2.44.64-3.66a52,52,0,0,1,1.83-7.17.21.21,0,0,1,.41.11Z"/><path class="cls-3" d="M199.52,262.29a52.21,52.21,0,0,1-.8,7.38c-.2,1.22-.43,2.43-.68,3.64a17.33,17.33,0,0,1-1,3.56c-.13.29-.59.13-.58-.16a22.77,22.77,0,0,1,.58-3.56c.24-1.22.46-2.43.68-3.65.44-2.42.82-4.86,1.35-7.26a.21.21,0,0,1,.41.05Z"/><path class="cls-3" d="M259.72,262.37a0,0,0,0,1,0,0,0,0,0,0,1,0,0Z"/><path class="cls-3" d="M259.84,261.86a21.24,21.24,0,0,1-5.11,1.61,34.66,34.66,0,0,1-5.29.35,13.67,13.67,0,0,1-4.89-.55,4.34,4.34,0,0,1-1.23-.8c-.46-.37-.82-.83-.53-1.43a.72.72,0,0,1,1.11-.15c-.27-.13-.33-.18-.2-.12a.57.57,0,0,1,.28.14,2.73,2.73,0,0,1,.25.23,5.71,5.71,0,0,0,.47.39,2.71,2.71,0,0,0,1.14.49,18,18,0,0,0,4.39.37c1.61,0,3.18,0,4.78-.18s3.18-.41,4.77-.56c.11,0,.16.17.06.21Z"/><path class="cls-4" d="M174.9,285.58c.53-6.95,7.24-12.44,15.44-12.44s14.7,5.32,15.41,12.11a9.82,9.82,0,0,1,.07,1.21v.4a20.61,20.61,0,0,1-.25,3.7,1.84,1.84,0,0,1-1.52,1.57c-12.54,2.18-22.49,1.54-27.43.41A1.87,1.87,0,0,1,175.2,291a29.91,29.91,0,0,1-.33-4.51C174.87,286.17,174.88,285.87,174.9,285.58Z"/><path class="cls-3" d="M205.7,263.63a12,12,0,0,1-4.23,1.58,25.54,25.54,0,0,1-4.44.55,41.1,41.1,0,0,1-9.06-.65,15.18,15.18,0,0,1-2.46-.67,4.51,4.51,0,0,1-2.13-1.32.45.45,0,0,1,.39-.68,14.76,14.76,0,0,1,2.68.95A17.14,17.14,0,0,0,189,264c1.81.28,3.66.44,5.49.55a34.94,34.94,0,0,0,5.51-.07,52.41,52.41,0,0,0,5.58-1.1.15.15,0,0,1,.12.27Z"/><path class="cls-3" d="M258.93,261c.8,1.23,1.52,2.51,2.43,3.67a23,23,0,0,0,3.17,3.23,54,54,0,0,0,8,5.35c.82.47,1.66.9,2.51,1.3l1.29.58a8.14,8.14,0,0,1,1.33.64.43.43,0,0,1-.22.79,7,7,0,0,1-2.49-.59,21.41,21.41,0,0,1-2.4-1.07c-1.52-.79-3-1.69-4.44-2.62a27.05,27.05,0,0,1-7.31-6.42,14,14,0,0,1-1.4-2.24c-.18-.37-.35-.74-.51-1.12a5.4,5.4,0,0,1-.33-1.33.23.23,0,0,1,.41-.17Z"/><path class="cls-4" d="M271.8,283.27c4,.5,7.79.94,8.17.88.83-.12,10.62-.71,15.16-1.31l3.66-1.73s-.21-.72-.62-1.75c-1-2.39-3-6.52-6.19-7.69-3.58-1.32-7.24-1.62-10.39-2.44A19.37,19.37,0,0,0,271.8,283.27Z"/><path class="cls-4" d="M244.17,277.3a17.65,17.65,0,0,0,1.1,4.65c5.85,1.31,14.15,1,16.13,1.31s12.23,2.51,20.55,2.51a65.74,65.74,0,0,0,14.57-1.55c1.06-.19,2.27-3.11,2.27-3.11s-.21-.72-.62-1.75c-4,.93-12.42,2.35-16.35,2.18-5.26-.24-15.5-2.24-20.67-2.7Z"/><path class="cls-17" d="M272.38,280.25a28.93,28.93,0,0,1,5,.18c1.67.14,3.35.3,5,.36a47.08,47.08,0,0,0,9.84-.66,51.33,51.33,0,0,0,5.45-1.29.39.39,0,0,1,.21.75,45.39,45.39,0,0,1-9.8,1.88,50.75,50.75,0,0,1-10.16-.3l-2.81-.35c-.93-.12-1.88-.19-2.8-.38-.12,0-.08-.18,0-.19Z"/><path class="cls-17" d="M205.43,285.85a13.79,13.79,0,0,1-2.78,1.63,14.85,14.85,0,0,1-2.86,1.11,32.42,32.42,0,0,1-6.88.73,57.32,57.32,0,0,1-14-.7,34.33,34.33,0,0,1-3.5-.85c-.67-.2-.79-.65-.86-1.31,0-.33.48-.38.57-.07s.09.49.27.61a2.14,2.14,0,0,0,.75.2c1.05.26,2.11.48,3.17.66a56.86,56.86,0,0,0,6.51.73q3.24.15,6.49.08a39.34,39.34,0,0,0,6.69-.49,16.06,16.06,0,0,0,3.19-1c1.06-.44,2-1.12,3.1-1.5a.12.12,0,0,1,.11.2Z"/><path class="cls-4" d="M200.17,266.65a6,6,0,0,1-1.11-.47c-.47-.19-1-.33-1.47-.49a18,18,0,0,0-3.32-.85,9.58,9.58,0,0,0-2.88.07,4.63,4.63,0,0,0-1.28.45,3.77,3.77,0,0,1-1.57.67.8.8,0,0,1-.76-1c.25-1.2,2.05-1.78,3.05-2.13a8.52,8.52,0,0,1,3.78-.38,12.59,12.59,0,0,1,4.11,1.22c.87.43,2.57,1.27,2.17,2.5a.61.61,0,0,1-.72.41Z"/><path class="cls-4" d="M187.38,268.44c.47-1.07,1.88-1.61,3-1.84a15,15,0,0,1,3.78-.32,6.84,6.84,0,0,1,3.63,1.23c.8.58,2.25,1.74,1.65,2.87a.5.5,0,0,1-.68.18,9.43,9.43,0,0,0-5.07-1.95,19.65,19.65,0,0,0-2.87.16,8.38,8.38,0,0,0-1.31.24c-.45.13-.87.32-1.33.42a.68.68,0,0,1-.76-1Z"/><path class="cls-4" d="M198.8,273.73a3.62,3.62,0,0,1-1.26-.29l-1.3-.45a18.72,18.72,0,0,0-2.86-.63,16.14,16.14,0,0,0-3.1-.32,8.12,8.12,0,0,0-1.47.2c-.45.1-.82.41-1.29.42a.54.54,0,0,1-.52-.52c-.14-1.19,1.69-1.72,2.56-1.84a14.51,14.51,0,0,1,3.95-.07,11.49,11.49,0,0,1,3.39,1c.89.41,2.06,1.19,2.12,2.28a.23.23,0,0,1-.22.23Z"/><path class="cls-4" d="M269.11,262.09a2.33,2.33,0,0,1-1.33.2c-.48,0-1,0-1.45,0a7.75,7.75,0,0,0-2.63.31,12.9,12.9,0,0,0-2.05,1.13l-.24.16s-.17.13-.06,0a4.68,4.68,0,0,0-.46.43c-.16.15.08-.14,0,0l-.15.23a1.93,1.93,0,0,1-.69.73,1.31,1.31,0,0,1-1.91-.78c-.28-1.29.85-2.3,1.82-3a12.34,12.34,0,0,1,2.86-1.43,8.91,8.91,0,0,1,3.37-.24c1,.07,2.71.18,3.2,1.22a.68.68,0,0,1-.24.91Z"/><path class="cls-4" d="M273.2,265a2.53,2.53,0,0,1-1.38.28,5.91,5.91,0,0,0-1.25.19,7.62,7.62,0,0,0-2.32,1.11,7.46,7.46,0,0,0-1.87,1.54c.1-.12-.07.11-.09.13l-.17.29c0,.07-.09.19,0,0a3,3,0,0,0-.11.32,5.63,5.63,0,0,1-.14.59,1.54,1.54,0,0,1-.35.59s-.22.22-.11.07a1,1,0,0,1-1.48.19,1.8,1.8,0,0,1-.64-2,4.55,4.55,0,0,1,.73-1.54,9.38,9.38,0,0,1,2.77-2.36A9.7,9.7,0,0,1,270,263.2a5.53,5.53,0,0,1,1.86-.06,2,2,0,0,1,1.65.88.75.75,0,0,1-.26,1Z"/><path class="cls-4" d="M278.12,267.84a1.42,1.42,0,0,1-.88.36h-.33c-.18,0,0,0-.18,0l-.33.09-.1,0-.58.28-.31.19s-.33.23-.13.08a4.88,4.88,0,0,0-.54.48c-.15.16-.3.32-.44.49l-.23.27-.14.17c.13-.16-.07.1-.09.13l-.2.28-.37.59a13.25,13.25,0,0,0-.6,1.19c-.07.15-.11.18,0,0a1.89,1.89,0,0,0-.13.33,6.37,6.37,0,0,0-.21.66c-.07.22-.11.45-.19.66a3.14,3.14,0,0,1-.62.94,1.22,1.22,0,0,1-1.19.32,1.28,1.28,0,0,1-.86-.86,2.35,2.35,0,0,1-.13-1.29,7.38,7.38,0,0,1,.19-.78,13.82,13.82,0,0,1,.63-1.66,9.18,9.18,0,0,1,2-2.79,6.45,6.45,0,0,1,3.23-1.88,4.22,4.22,0,0,1,1.8.14,1.54,1.54,0,0,1,.93.6c.15.24.29.74,0,1Z"/><ellipse class="cls-6" cx="274.5" cy="82.98" rx="6.61" ry="3.61" transform="translate(0.46 167.45) rotate(-33.95)"/><ellipse class="cls-4" cx="276.45" cy="80.97" rx="2.27" ry="1.91" transform="translate(1.91 168.2) rotate(-33.95)"/><path class="cls-9" d="M246.93,33.64a0,0,0,1,0,0,0s0,0,0,0Z"/><path class="cls-9" d="M251.77,49.43A18.92,18.92,0,0,0,253,32.07,14.08,14.08,0,0,0,249.7,27c-.33-.28-.91.09-.64.5.52.79,1.17,1.47,1.7,2.26a18.65,18.65,0,0,1,1.39,2.47A18.13,18.13,0,0,1,253.77,38c.41,4-.75,7.7-2.37,11.26a.22.22,0,0,0,.37.22Z"/><path class="cls-9" d="M251.75,49.32a18,18,0,0,0-4.57-10.06,17.32,17.32,0,0,0-4.32-3.54c-.44-.25-1.38-1-1.9-.55-.34.27-.38.9-.49,1.27a5.75,5.75,0,0,0-.32,1.69.18.18,0,0,0,.33.08,4.59,4.59,0,0,0,.46-1.35,5.31,5.31,0,0,1,.19-.81c.13-.3.11-.48.49-.41a4,4,0,0,1,1.07.58q.54.33,1.05.69a18.42,18.42,0,0,1,3.58,3.42,20,20,0,0,1,4.11,9c0,.18.34.14.32,0Z"/><path class="cls-9" d="M239,38.13a10.89,10.89,0,0,0-2-2.26,1,1,0,0,0-1.29-.09c-.63.49-.54,1.41-.54,2.11,0,1.12,0,2.24.16,3.36a27,27,0,0,0,1.33,6.08,15.72,15.72,0,0,0,2.75,5.5.25.25,0,0,0,.42-.25c-.54-1.55-1.45-3-2.05-4.5a31.81,31.81,0,0,1-1.44-4.76,28.89,28.89,0,0,1-.65-5,11.09,11.09,0,0,1,0-1.29l.07-.45.86-.35c.11,0,.28.29.36.37a15.85,15.85,0,0,0,1.81,1.76c.14.1.33-.1.23-.24Z"/><path class="cls-9" d="M241.91,38.79a4.53,4.53,0,0,1,.26-.6c.09-.18.19-.36.28-.55s.19-.36.3-.54.27-.36.38-.55a.33.33,0,0,0-.52-.4,2.83,2.83,0,0,0-.41.61c-.11.21-.22.43-.31.65a2.91,2.91,0,0,0-.18.64c0,.23,0,.47-.06.7s.21.18.26,0Z"/><path class="cls-9" d="M243.17,39.12a4,4,0,0,0,.2-.48c0-.06,0-.13.07-.2a1.19,1.19,0,0,1,.16-.23,7.37,7.37,0,0,1,.68-.8.3.3,0,0,0,0-.44.3.3,0,0,0-.43.09,6,6,0,0,0-.59.94,1.44,1.44,0,0,0-.18.54,1.88,1.88,0,0,1,0,.53c0,.07.08.11.11,0Z"/><path class="cls-9" d="M237.43,38.8a3.85,3.85,0,0,0-.73-.93,3.27,3.27,0,0,0-1-.61c-.2-.07-.29.25-.09.31a3.22,3.22,0,0,1,1.73,1.3.07.07,0,0,0,.12-.07Z"/><path class="cls-9" d="M238.38,52.08l.13,0,.06,0a.19.19,0,0,0,0-.07.13.13,0,0,0,0-.06.1.1,0,0,0-.07,0l-.13,0a.14.14,0,0,0-.15,0,.15.15,0,0,0,0,.22.17.17,0,0,0,.15,0Z"/><path class="cls-9" d="M239.48,52.17A42.07,42.07,0,0,1,231,44.75a52.16,52.16,0,0,1-6.29-9.34c-.11-.21-.49-.07-.4.17a34,34,0,0,0,6.09,9.57,33.13,33.13,0,0,0,8.85,7.36.2.2,0,0,0,.2-.34Z"/><path class="cls-9" d="M222.94,49.84a24.78,24.78,0,0,1-7.35-10.19,55.74,55.74,0,0,1-1.67-6,13.66,13.66,0,0,1,.38-5.89.28.28,0,0,0-.5-.22,8.17,8.17,0,0,0-.9,5.81,20.65,20.65,0,0,0,.88,2.9c.42,1.18.77,2.38,1.2,3.55A20.33,20.33,0,0,0,222.79,50a.13.13,0,0,0,.15-.2Z"/><path class="cls-9" d="M222.68,49.47c-.27-1.3-.51-2.66-.68-4a14.57,14.57,0,0,1,0-3.79,10.33,10.33,0,0,1,1-3.34,9.45,9.45,0,0,1,.81-1.31,13.78,13.78,0,0,0,1.07-1.35c.14-.24-.09-.63-.39-.51a5.46,5.46,0,0,0-2.31,2.57,11.29,11.29,0,0,0-1.2,3.58,15.82,15.82,0,0,0,.45,6.32,17.5,17.5,0,0,0,.85,2c.11.25.48.06.43-.18Z"/></svg>