<svg xmlns="http://www.w3.org/2000/svg" id="Laag_1" data-name="Laag 1" viewBox="0 0 170.03 293.58"><defs><style>.cls-1{fill:#d6906c}.cls-2{fill:#e10514}.cls-3{fill:#4f649d}.cls-4{fill:#22b3bd}.cls-5{fill:#fff}.cls-6{fill:#1c1c1b}.cls-7{fill:#8bbc26}.cls-8{fill:#4f732b}.cls-9{fill:#865232}.cls-10{fill:#006a71}.cls-11{fill:#1d294c}.cls-12{fill:#891818}.cls-13{fill:#9a9a9a}</style></defs><title>oliver</title><path d="M49.89,258.56q3.87-17,7.91-33.94,2-8.46,4.11-16.88c1.4-5.6,2.83-11.22,4.35-16.61a9.6,9.6,0,1,0-18.47-5.23c-.09.33-.17.67-.23,1-1,5.95-1.83,11.74-2.64,17.56s-1.57,11.6-2.3,17.39q-2.23,17.37-4.26,34.74a5.86,5.86,0,0,0,11.52,2Z" class="cls-1"/><path d="M32.38,264.15a1.49,1.49,0,0,1-.47-.58l-.86-1.07a1.48,1.48,0,0,1-.12-.59l-.1-9.56a1.48,1.48,0,0,1,1.58-1.47L54,252.41a1.48,1.48,0,0,1,1.36,1.65l-.85,8.67a1.51,1.51,0,0,1-.44.88l-1.88,1a1.43,1.43,0,0,1-.44.3l-.66,22.8-16.49,2.74-9.43-3.1Z" class="cls-2"/><path d="M106.9,253.19c-.24-1.24-.49-2.57-.72-3.87l-.69-3.93q-.66-3.93-1.24-7.88c-.77-5.26-1.42-10.52-1.92-15.75s-.82-10.43-.85-15.48c0-2.52.07-5,.26-7.38a35.77,35.77,0,0,1,1-6.46,9.61,9.61,0,0,0-18.56-5Q84,188,84,188.58l0,.35a56.7,56.7,0,0,0-.4,9.67c.12,3,.38,6,.72,8.82.7,5.72,1.71,11.25,2.86,16.7s2.47,10.82,3.89,16.14q1.07,4,2.21,8l1.17,4c.4,1.33.8,2.62,1.24,4a5.86,5.86,0,0,0,11.33-2.88Z" class="cls-1"/><path d="M100.91,168.57v2.86a2.31,2.31,0,0,0,.33,1.2l1,1.54a2.26,2.26,0,0,1,.32,1.5l-.68,5.05a2.39,2.39,0,0,0,.1,1l11.8,35.12a2.27,2.27,0,0,1-1,2.66c-4,2.48-15.52,8.48-32.37,6.69a2.3,2.3,0,0,1-2-2c-3-22.78-3-20.17-3-20.17l-6.69,21a2.29,2.29,0,0,1-2,1.59c-5.31.29-22.79.38-33.66-10.09a2.27,2.27,0,0,1-.53-2.48c9.29-23.56,14-32.48,15.56-35.19a2.27,2.27,0,0,0,.1-2.12h0a2.28,2.28,0,0,1,.27-2.38l.22-.28a2.3,2.3,0,0,0,.44-1.9h0a2.3,2.3,0,0,1,2.09-2.78l47.3-3.16A2.29,2.29,0,0,1,100.91,168.57Z" class="cls-3"/><path d="M0,101.93C9.64,90.14,15.37,81.7,15.37,81.7s-8-2.31-12.9.88A49.53,49.53,0,0,1,16.09,54.63s-5.48-1-14.18.63C14.19,33.35,23.25,28.67,23.25,28.67s-2.43-2.79-8.52-2.49c11-5.26,18.36-3.93,18.36-3.93s-3-1.47-8.44-13.15c9.41,4.82,26.15,8.42,26.15,8.42s-1.31-5-9.55-10C62.51,5.93,71.05,12,71.05,12s0-4.89-6.45-11.46c8.67,1.52,14.91,12.83,15.6,14.13-.38-.78-2.23-5.2.07-14.69C83.77,9.87,93,17.36,93,17.36S90.48,6.52,86,0c19.63,8.2,24,21.82,24,21.82s3-2,5.1-12.9c10.52,26.76,5.5,32.87,5,33.34.3-.28,2.8-2.49,11.29-3.66-15.29,20-19.12,34-19.12,34-.62,13.72-.26,25.21-24.7,28.9l-.78,5L65.75,162.89l-9.21-19.95a175,175,0,0,0-9.08,25.24c-11.23-14-12.1-22.77-12.1-22.77s-4.86,7.68-8,22.77C16.17,146.4,18,132.67,18,132.67s-2.55-.24-7.33,4.3c-1.55-25.33,3-33.86,3-33.86A36.68,36.68,0,0,1,0,101.93Z" class="cls-1"/><path d="M100,115a7.68,7.68,0,0,1,10,4.26l0,.09a70.09,70.09,0,0,0,5.41,10.48c2.17,3.47,4.61,6.85,7.18,10.18s5.35,6.55,8.2,9.71c.72.79,1.43,1.58,2.17,2.35s1.46,1.56,2.2,2.32,1.49,1.52,2.23,2.28h0a10.73,10.73,0,0,1,1.89-1.11c1.46-.6,4.47-.35,4.88-.79a16,16,0,0,0,2.26-2.83l.47-.79c.14-.27.3-.54.42-.81s.27-.54.39-.81.1-.26.16-.38,0-.12.06-.17l0-.08h0a4.73,4.73,0,0,1,8.92,3.14l-.11.27-.08.2c-.05.13-.11.26-.16.37s-.22.48-.33.69c-.22.45-.46.87-.7,1.29s-.52.81-.78,1.22-.56.78-.84,1.17a14.85,14.85,0,0,1-3.2,3.33c-.76.61-1.33.66-1.49,1.5a1.82,1.82,0,0,0,.42,1.36l4,4.3,1.78,1.31,12.88,10.29.3.25a4.47,4.47,0,0,1-6.17,6.48l-9.4-8.18a.47.47,0,0,0-.52.11.6.6,0,0,0-.14.61l6.37,15.59c.05.11.1.23.14.34a4.47,4.47,0,0,1-8.44,3l-5.26-16a1.19,1.19,0,0,0-.9-.49c-.53,0-.77.72-.77.72l1.37,15.38c0,.13,0,.26,0,.39a4.48,4.48,0,0,1-8.95-.06l.1-14.6s0-.55-.87-.7a.8.8,0,0,0-.87.47l-2.3,8.32c0,.16-.09.32-.14.47a4.48,4.48,0,0,1-8.4-3.11l5.4-14.58a.53.53,0,0,0,0-.34,1.6,1.6,0,0,0-.15-.41,13.67,13.67,0,0,1-1.71-5.34,5.5,5.5,0,0,1,.69-3.61l-1-.89c-.84-.75-1.67-1.52-2.5-2.29s-1.65-1.55-2.47-2.34c-3.27-3.15-6.45-6.39-9.52-9.8s-6-7-8.78-10.79A86.28,86.28,0,0,1,96,125.48c-.07-.15-.15-.32-.21-.48A7.69,7.69,0,0,1,100,115Z" class="cls-1"/><path d="M15,183.61c.5-3.21,1.87-11.51,3.05-13a7.52,7.52,0,0,1,4.25-2.39c.09-1,.24-1.19.32-1.87.12-1.1.25-2.07.39-3.09s.27-2,.43-3q.45-3,1-6c.72-4,1.54-8,2.54-12a121.19,121.19,0,0,1,3.6-12c.33-1,.75-2,1.16-3s.79-2,1.31-3l.72-1.52c.26-.51.46-1,.77-1.52l1.77-3.06c.15-.24.33-.52.5-.75a7.69,7.69,0,0,1,12.31,9.21l-.16.22a49.38,49.38,0,0,0-5,8.85A105.43,105.43,0,0,0,40,146c-1.2,3.57-2.25,7.23-3.22,10.93-.49,1.84-.94,3.7-1.37,5.57-.22.93-.42,1.86-.63,2.79s-.4,1.89-.56,2.74l0,.12s0,.08,0,.11c1.15.31,7,1.94,8.38,3.59a4.77,4.77,0,0,1,1.24,2l2.62,8A4.67,4.67,0,0,1,42,187.91a4.84,4.84,0,0,1-1.21-.16l.84,7.37a4.68,4.68,0,0,1-4.12,5.18l-.53,0a4.67,4.67,0,0,1-4.31-2.87,4.66,4.66,0,0,1-2.91,1h-.16a4.68,4.68,0,0,1-4.35-3.43,4.67,4.67,0,0,1-6-2.41h-.11a4,4,0,0,1-3.95-3.56l-.39-3.7A4,4,0,0,1,15,183.61Z" class="cls-1"/><path d="M28.59,128.74a1.41,1.41,0,0,1-.09-.76c1.91-12.06,11.25-24.77,11.25-24.77l.33-.45a1.33,1.33,0,0,1,.46-.39c39.06-20.86,61.6,2.46,62.78,3.73l.09.1L117,123.76a1.43,1.43,0,0,1,0,1.69,28.44,28.44,0,0,1-16.33,11.1A1.43,1.43,0,0,0,99.59,138c.17,2.42.16,5.91.68,9.38,1.21,8.17,3.1,17.73,4,21.87a1.42,1.42,0,0,1-1.6,1.69c-3.07-.46-9.77-.94-21,.71-13.75,2-30.76,1.8-35.65,1.69a1.43,1.43,0,0,1-1.39-1.48c.1-2.35.63-7.89,3.17-18.82l0-.2a59.42,59.42,0,0,0-.26-15,1.42,1.42,0,0,0-1.36-1.22C40.15,136.43,31.26,135,28.59,128.74Z" class="cls-4"/><path d="M37.44,63.22A37.93,37.93,0,1,1,112.27,72c.42,3,1.83,9.44,6.3,9.44,2.6,0,3.92,2.79,1.8,5.85-2.58,3.73-9.4,8-14.61,10-8.72,3.41-34.2,9.14-48.73-.86A37.9,37.9,0,0,1,37.44,63.22Z" class="cls-1"/><path d="M91.11,262.55l1.2,1.43a2,2,0,0,1,.43,1.61,46.28,46.28,0,0,0-.57,11.71,8,8,0,0,0,.75,2.68,2,2,0,0,0,1.46,1.16,89.86,89.86,0,0,0,14.87.81,1.41,1.41,0,0,1,.29,0c.91.12,5.76.75,10.26,1.31,4,.5,7.79.94,8.17.88.81-.11,10.19-.69,14.86-1.27a2.11,2.11,0,0,0,.59-.18l1.78-.84a2,2,0,0,0,1-2.47v0c-1-2.39-3-6.52-6.19-7.69-3.58-1.32-7.24-1.62-10.39-2.44a17.73,17.73,0,0,1-2.4-.78c-3-1.26-8.41-5.23-10.14-6.52a2,2,0,0,1-.73-1.07l-2-7.45a2,2,0,0,0-1.89-1.46l-19.79-.2a2,2,0,0,0-2,2v7.56A2,2,0,0,0,91.11,262.55Z" class="cls-2"/><ellipse cx="99.95" cy="68.43" class="cls-5" rx="11.24" ry="11.83" transform="translate(-21.17 69.66) rotate(-34.98)"/><circle cx="97.01" cy="69.07" r="6.09" class="cls-6"/><path d="M94.17,69.07a2.83,2.83,0,1,0,5.65,0,2.18,2.18,0,0,0,0-.44,10.5,10.5,0,0,1,2.44,1.27,5.29,5.29,0,0,1-10.42.15,10.53,10.53,0,0,1,2.39-1.32C94.18,68.84,94.17,69,94.17,69.07Z" class="cls-7"/><path d="M91.7,69.07a5.3,5.3,0,0,1,10.59,0,5.69,5.69,0,0,1-.07.83,10.5,10.5,0,0,0-2.44-1.27,2.18,2.18,0,0,1,0,.44,2.83,2.83,0,1,1-5.65,0c0-.12,0-.23,0-.34a10.53,10.53,0,0,0-2.39,1.32A5.25,5.25,0,0,1,91.7,69.07Z" class="cls-8"/><circle cx="95.1" cy="67.32" r="2.12" class="cls-5"/><circle cx="99.72" cy="69.43" r=".77" class="cls-5"/><ellipse cx="70.96" cy="68.43" class="cls-5" rx="11.83" ry="11.24" transform="translate(-25.79 87.35) rotate(-55.02)"/><circle cx="69.23" cy="69.07" r="6.09" class="cls-6"/><path d="M72.06,69.07a2.83,2.83,0,1,1-5.65,0,3.27,3.27,0,0,1,0-.44A10.24,10.24,0,0,0,64,69.9a5.29,5.29,0,0,0,10.42.15A10.6,10.6,0,0,0,72,68.73C72.05,68.84,72.06,69,72.06,69.07Z" class="cls-7"/><path d="M74.53,69.07a5.29,5.29,0,0,0-10.58,0,4.57,4.57,0,0,0,.07.83,10.24,10.24,0,0,1,2.43-1.27,3.27,3.27,0,0,0,0,.44,2.83,2.83,0,1,0,5.65,0c0-.12,0-.23,0-.34a10.6,10.6,0,0,1,2.4,1.32A5.25,5.25,0,0,0,74.53,69.07Z" class="cls-8"/><circle cx="71.13" cy="67.32" r="2.12" class="cls-5"/><circle cx="66.51" cy="69.43" r=".77" class="cls-5"/><path d="M63.5,41.19a41.18,41.18,0,0,0-8.29-4.54c-3-1.29-6-2.4-8.93-3.68-.83-.35-1.64-.72-2.44-1.12-.4-.2-.8-.4-1.18-.62l-.58-.34a6.7,6.7,0,0,0-.6-.45c-.29-.15,0-.56.24-.43,2.41,1.14,2.6,4.33,3.22,6.58a56.1,56.1,0,0,0,3.65,9.25.25.25,0,0,1-.44.25,21.84,21.84,0,0,1-1.24-2q-.52-1.07-1-2.16a35.43,35.43,0,0,1-1.55-4.41c-.38-1.35-.6-2.75-1-4.11a4.41,4.41,0,0,0-1.91-2.95l.24-.43a10.62,10.62,0,0,0,1.11.43L44,31c.74.34,1.48.66,2.23,1,1.48.65,3,1.24,4.47,1.85a67.34,67.34,0,0,1,8.67,4,36.22,36.22,0,0,1,4.44,3c.21.16-.07.52-.28.36Z" class="cls-9"/><path d="M50.67,36.86a47.56,47.56,0,0,1,6,6.94c.25.36-.16.76-.53.69a18.61,18.61,0,0,1-4.26-1.38l.53-.31c0,.75.2,1.45.24,2.18,0,.25-.31.29-.43.12a4.26,4.26,0,0,1-.52-2.3.37.37,0,0,1,.54-.31,14.4,14.4,0,0,0,4,1.08l-.33.8c-1-1.19-1.86-2.41-2.82-3.58s-2-2.33-3-3.46c-.28-.32.16-.77.46-.47Z" class="cls-9"/><path d="M102,40.63a6.27,6.27,0,0,1,2-2.14c.8-.69,1.63-1.36,2.47-2a60.68,60.68,0,0,1,5.08-3.62c.87-.55,1.77-1.08,2.69-1.56a1.21,1.21,0,0,1,1.1-.18.86.86,0,0,1,.44.82,45,45,0,0,1-.31,6.25c-.22,2.48-.55,4.93-1,7.38-.06.33-.54.19-.5-.14.53-3.93,1-7.89,1.18-11.85a6.54,6.54,0,0,0,0-1.25c-.06-.4-.19-.29-.45-.15l-.64.34c-.8.45-1.59.92-2.36,1.41-1.57,1-3.08,2.06-4.56,3.18-.86.66-1.7,1.34-2.54,2a7.38,7.38,0,0,1-2.4,1.69.17.17,0,0,1-.21-.2Z" class="cls-9"/><path d="M111.74,36.05a12.41,12.41,0,0,1-.93,1.5c-.3.48-.59,1-.86,1.47-.57,1-1,2.14-1.53,3.2L108,41.7a18.19,18.19,0,0,0,1.79-.49,17.46,17.46,0,0,0,1.85-.62.22.22,0,0,1,.27.35c-.54.59-1.09,1.19-1.62,1.8a10.21,10.21,0,0,1-1.58,1.7c-.17.12-.31-.1-.25-.24a7.57,7.57,0,0,1,1.43-1.86c.55-.6,1.11-1.17,1.71-1.72l.22.37c-.61.24-1.19.53-1.8.76l-1.83.64a.36.36,0,0,1-.43-.44,17.4,17.4,0,0,1,1.52-3.31c.3-.52.61-1,.94-1.52a7.41,7.41,0,0,1,1.09-1.4.27.27,0,0,1,.42.33Z" class="cls-9"/><path d="M80.61,58a27.55,27.55,0,0,0-8-4.16,19.41,19.41,0,0,0-9.46-.12.21.21,0,0,1-.16-.38c5.87-3.65,13.23.58,17.94,4.24.24.18-.08.61-.33.42Z" class="cls-9"/><path d="M91,57.58c4.7-3.66,12.06-7.89,17.94-4.24a.21.21,0,0,1-.16.38,19.29,19.29,0,0,0-9.46.12,27.43,27.43,0,0,0-8,4.16c-.25.18-.57-.23-.33-.42Z" class="cls-9"/><path d="M90.18,92.25c-1.68,1.52-4.17,2-6.33,2.4a30.89,30.89,0,0,1-7.19.39,28.1,28.1,0,0,1-13.08-3.79A12.86,12.86,0,0,1,61,89.15a6.5,6.5,0,0,1-1.85-3,.5.5,0,0,1,.83-.48c.68.7,1.18,1.54,1.87,2.25a13.54,13.54,0,0,0,2.1,1.75,22.2,22.2,0,0,0,5.28,2.5,32.57,32.57,0,0,0,13.43,1.61,33.51,33.51,0,0,0,3.73-.54,10.94,10.94,0,0,0,3.7-1.1.1.1,0,0,1,.12.15Z" class="cls-9"/><path d="M62.67,86.62A10.59,10.59,0,0,1,61,86.4l-.8-.16c-.12,0-.25-.06-.38-.07h-.05s0,0,0,0a.13.13,0,0,0,.06,0s.06,0,0,0a1.34,1.34,0,0,0,0,.19,2.84,2.84,0,0,1,0,.35,6.77,6.77,0,0,1,0,.78q0,.44-.12.87a3.34,3.34,0,0,1-.29.8.58.58,0,0,1-.72.24.57.57,0,0,1-.32-.67c0-.29.09-.56.16-.84a6.24,6.24,0,0,0,.13-.75c0-.29.06-.58.09-.85a1,1,0,0,1,.46-.84,1.13,1.13,0,0,1,.79-.06l.88.22a12.34,12.34,0,0,1,1.79.55.28.28,0,0,1,.21.32.28.28,0,0,1-.29.25Z" class="cls-9"/><path d="M57.31,96.75c-1-.5-1.84-1.19-2.74-1.78s-1.79-1.12-2.67-1.71a37.9,37.9,0,0,1-4.66-3.61,34.07,34.07,0,0,1-6.82-9.21c-.5-1-1-1.93-1.41-2.92a14.93,14.93,0,0,1-1.17-3.15.34.34,0,0,1,.62-.26,18.53,18.53,0,0,1,1.3,2.55c.43.87.82,1.74,1.24,2.61a48.61,48.61,0,0,0,2.79,4.92,27.47,27.47,0,0,0,3.57,4.34,42,42,0,0,0,4.53,3.78c.92.7,1.81,1.42,2.7,2.14s1.95,1.38,2.8,2.19a.07.07,0,0,1-.08.11Z" class="cls-9"/><path d="M46.74,136.5a1.62,1.62,0,0,1,.84-.22c.28,0,.57-.05.85-.1l.86-.16c.31-.05.61-.13.92-.18.13,0,.28.15.15.26a3.79,3.79,0,0,1-1.75.74,5.2,5.2,0,0,1-1,.09,1.26,1.26,0,0,1-.91-.24.15.15,0,0,1,0-.19Z" class="cls-10"/><path d="M49.75,136.08c1.33-3.52,2.76-7,4-10.56.61-1.79,1.19-3.59,1.77-5.39.29-.9.6-1.79.9-2.68a16.3,16.3,0,0,1,1-2.54c.1-.2.47-.12.44.12a17.16,17.16,0,0,1-.58,2.65c-.25.91-.5,1.82-.77,2.72-.56,1.84-1.14,3.67-1.78,5.48a58.23,58.23,0,0,1-4.47,10.39c-.14.24-.56.08-.46-.19Z" class="cls-10"/><path d="M57.42,115.19c-.29-.07-.35-.31-.44-.56s-.23-.64-.33-1c-.19-.6-.39-1.2-.58-1.79-.39-1.24-.78-2.5-1-3.77,0-.19.24-.33.34-.14a29.32,29.32,0,0,1,1.47,3.63c.21.61.4,1.24.59,1.86.1.3.18.6.26.91s.16.53,0,.77a.2.2,0,0,1-.21,0Z" class="cls-10"/><path d="M54.69,107.23a21.73,21.73,0,0,0-2.34-2,12.24,12.24,0,0,0-5.6-2.08,27.48,27.48,0,0,0-3,0,.28.28,0,0,1-.08-.55,10.06,10.06,0,0,1,6.27.77,10.53,10.53,0,0,1,4.92,3.83.1.1,0,0,1-.16.12Z" class="cls-10"/><path d="M99.54,138c-.18-3.28-.52-6.56-.59-9.84A84.55,84.55,0,0,1,99.26,118a18.73,18.73,0,0,1,1-5.3c.08-.22.45-.22.44.06,0,1.58-.34,3.15-.53,4.73s-.31,3.32-.38,5c-.16,3.35-.15,6.7-.22,10,0,1.84,0,3.67,0,5.51,0,.06-.09.06-.09,0Z" class="cls-10"/><path d="M102.31,105a18.44,18.44,0,0,1-.51,2.17q-.27,1.11-.51,2.22c-.16.75-.31,1.49-.46,2.24-.07.38-.15.77-.22,1.16a4.14,4.14,0,0,1-.24,1c-.11.23-.42.09-.44-.12a3.88,3.88,0,0,1,.14-1.07c.07-.39.15-.78.23-1.16.15-.75.33-1.48.51-2.22s.38-1.47.59-2.2a13.09,13.09,0,0,1,.68-2.12c0-.11.25-.06.23.06Z" class="cls-10"/><path d="M94.44,135.17a183,183,0,0,1-25.51,2.13c-1.19,0-2.37,0-3.56,0a20.1,20.1,0,0,1-3.64-.17.3.3,0,0,1,0-.58,19.3,19.3,0,0,1,3.05-.19c1.08,0,2.17-.09,3.26-.11,2.14,0,4.28-.14,6.43-.23,4.25-.17,8.49-.45,12.73-.76,2.4-.18,4.79-.3,7.19-.46.2,0,.25.33,0,.36Z" class="cls-10"/><path d="M61.77,136.45c4.31.82,8.69,1.33,13,1.79s8.56.75,12.86.91c2.47.1,4.94.17,7.41.23a.26.26,0,0,1,0,.51,107.17,107.17,0,0,1-13.17-.08,111.65,111.65,0,0,1-13-1.49c-2.43-.44-4.85-.93-7.26-1.42-.29-.06-.17-.5.12-.45Z" class="cls-10"/><path d="M95.77,140.22c-1.14.34-2.27.71-3.41,1s-2.25.55-3.38.78c-2.3.46-4.6.82-6.92,1.1a101.63,101.63,0,0,1-14.06.79,48.53,48.53,0,0,1-7.81-.56c-.44-.08-.32-.75.1-.76,2.31-.07,4.63.07,6.94.08s4.63,0,6.94-.15a134.91,134.91,0,0,0,13.75-1.45c1.27-.19,2.54-.45,3.81-.63s2.64-.37,3.93-.62a.2.2,0,0,1,.11.39Z" class="cls-10"/><path d="M80.71,189.08c-.65,1.62-1.39,3.21-2,4.85s-1.2,3.36-1.74,5-1,3.35-1.51,5a48.19,48.19,0,0,1-1.57,5.13c-.09.22-.49.23-.47-.07a24.62,24.62,0,0,1,1.14-5.21q.78-2.56,1.72-5.08c.62-1.63,1.29-3.25,2-4.84s1.43-3.33,2.31-4.92c0-.07.15,0,.12.05Z" class="cls-11"/><path d="M88.43,192.11a29.76,29.76,0,0,0-8.89-2.72c-1.56-.24-3.13-.38-4.7-.48l-2.26-.13a7.17,7.17,0,0,1-2.35-.36.34.34,0,0,1,0-.65,6.4,6.4,0,0,1,2.35-.14c.81,0,1.62.1,2.43.17,1.61.14,3.21.33,4.8.61a23.47,23.47,0,0,1,8.86,3.29.24.24,0,0,1-.24.41Z" class="cls-11"/><path d="M86,184.9c-3.45-.81-6.89-1.64-10.37-2.3-1.61-.31-3.23-.54-4.83-.91a18.16,18.16,0,0,1-2.39-.7,5,5,0,0,1-2-1.11.31.31,0,0,1,.29-.51,3.87,3.87,0,0,0,1.37-.23l1.14-.22,2.46-.45c1.6-.3,3.21-.56,4.83-.71s3.32-.25,5-.27a21.32,21.32,0,0,1,4.86.27c.22.05.15.34,0,.36-1.58.17-3.21,0-4.81,0s-3.27.09-4.9.22-3.19.25-4.78.45c-.84.11-1.67.26-2.51.44l-1.13.25a3.41,3.41,0,0,0-1.33.37l-.22-.52a11.51,11.51,0,0,1,2.28.69c.74.22,1.49.41,2.25.58,1.62.37,3.27.64,4.9,1a58.16,58.16,0,0,1,10.11,2.92.2.2,0,0,1-.11.38Z" class="cls-11"/><path d="M86.22,178.11a1.09,1.09,0,0,1-.62,0c-.41-.09-.84-.14-1.25-.2-.8-.12-1.58-.28-2.37-.42-1.67-.3-3.35-.59-5-.91s-3.27-.64-4.9-1a31.85,31.85,0,0,1-5-1.18c-.34-.14-.32-.7.09-.69a33.52,33.52,0,0,1,5.44.88q2.65.51,5.29,1.06c1.76.36,3.51.76,5.27,1.14.88.2,1.8.35,2.66.63.21.06.42.18.44.43,0,.07,0,.19-.08.23Z" class="cls-11"/><path d="M101,185.71c-.06-.46-.16-.91-.18-1.37s0-.91,0-1.37c0-.87,0-1.75.1-2.62s.16-1.7.3-2.55a8.42,8.42,0,0,1,.65-2.53c.15-.29.56-.13.58.16a11.71,11.71,0,0,1-.31,2.42c-.14.88-.26,1.77-.38,2.65s-.22,1.71-.27,2.57-.14,1.75-.22,2.64a.14.14,0,0,1-.28,0Z" class="cls-11"/><path d="M54.81,176.24a5.16,5.16,0,0,0-2.27-1.36l-1.4-.54c-.27-.1-.53-.22-.79-.33a2.55,2.55,0,0,1-.75-.39.4.4,0,0,1,.28-.68,3,3,0,0,1,.85.31l.77.34,1.5.73a5.07,5.07,0,0,1,2.07,1.77c.12.17-.15.31-.26.15Z" class="cls-11"/><path d="M51.84,185.66a26.25,26.25,0,0,0-1.12-3.27c-.21-.54-.44-1.07-.7-1.59a12.75,12.75,0,0,1-.77-1.52c-.08-.24.24-.4.41-.24a6,6,0,0,1,.92,1.5c.26.51.49,1,.7,1.57a14.32,14.32,0,0,1,.81,3.48c0,.15-.21.23-.25.07Z" class="cls-11"/><path d="M140.55,169.82c.25.52-.14,1-.45,1.42a16,16,0,0,1-1.28,1.44,20.26,20.26,0,0,1-3,2.51c-.41.28-.91-.36-.53-.69.88-.76,1.78-1.49,2.64-2.28l1.24-1.17a3.55,3.55,0,0,0,1-1.2c.05-.11.23-.17.29,0Z" class="cls-9"/><path d="M151.18,170.18c-.75,2.67-3.7,3.94-6,5a32.9,32.9,0,0,1-4.4,1.67,15.15,15.15,0,0,1-4.7.92.49.49,0,0,1-.13-1c1.37-.49,2.85-.68,4.25-1.05s2.78-.86,4.15-1.38a24.45,24.45,0,0,0,3.82-1.76,5.45,5.45,0,0,0,2.62-2.57c.09-.23.44-.15.37.1Z" class="cls-9"/><path d="M40.74,178c0,1.67,0,3.35.11,5a23.76,23.76,0,0,0,.2,2.52c.06.42.14.83.22,1.25s.17.64,0,.91a.22.22,0,0,1-.29.08c-.58-.26-.59-1.49-.66-2a24,24,0,0,1-.22-2.54,33.53,33.53,0,0,1,.39-5.2c0-.17.28-.19.28,0Z" class="cls-9"/><path d="M38.91,190.77a4.38,4.38,0,0,1-1.08,1.48,4.79,4.79,0,0,1-1.57,1.15,3.87,3.87,0,0,1-2.7-.19,2.75,2.75,0,0,1-1.85-1.6.36.36,0,0,1,.65-.27A3.19,3.19,0,0,0,34,192.47a3.34,3.34,0,0,0,2.2.2,5.44,5.44,0,0,0,1.43-.89,3.81,3.81,0,0,0,1.09-1.1.12.12,0,0,1,.22.09Z" class="cls-9"/><path d="M32.09,191.44c-.2.64-1.1,1-1.69,1.07a4.31,4.31,0,0,1-2.22-.17,5.25,5.25,0,0,1-1.86-1.14,4.8,4.8,0,0,1-.7-.85,1.57,1.57,0,0,1-.32-1.06.27.27,0,0,1,.34-.19c.3.11.43.34.65.56s.4.46.62.67a4.63,4.63,0,0,0,1.49,1,3.86,3.86,0,0,0,1.78.25,4.41,4.41,0,0,0,.88-.17,3.56,3.56,0,0,1,.85-.23.19.19,0,0,1,.18.23Z" class="cls-9"/><path d="M25.63,189.15a.29.29,0,0,1,.05.52,1,1,0,0,1-.71,0l-.1,0c.05,0,.05,0,0,0,.17,0-.06,0-.1,0a4,4,0,0,1-.6.1,4.36,4.36,0,0,1-1.3-.06,4.12,4.12,0,0,1-2.16-1.08,2.92,2.92,0,0,1-1-2.08.38.38,0,0,1,.63-.26c.41.44.73,1,1.18,1.36a3.65,3.65,0,0,0,2.48,1,5.35,5.35,0,0,1,1,0,1.34,1.34,0,0,1,.57.29l.17.18h0c.11.07,0,.07-.25,0a.2.2,0,0,1,.17,0Z" class="cls-9"/><path d="M20.24,186.79a1.57,1.57,0,0,1-1.11.55,2.84,2.84,0,0,1-.72-.08l-.65-.14a2.67,2.67,0,0,1-2-1.79.45.45,0,0,1,.75-.44c.23.23.46.46.7.68l.09.08c.07.06-.06,0,0,0l.2.14c.14.08.28.17.43.24h0l.11,0,.24.08.53.2c.13,0,.29.07.43.12s.29,0,.43.06h-.17a.79.79,0,0,0,.39-.16c.26-.19.48.19.31.4Z" class="cls-9"/><path d="M32.44,196.4c-.18-.8-.3-1.6-.44-2.41-.07-.39-.13-.79-.19-1.19a2.9,2.9,0,0,1-.07-1.24.33.33,0,0,1,.59-.08,2.73,2.73,0,0,1,.25,1.17c.05.42.09.83.13,1.25.07.81.16,1.62.19,2.44a.24.24,0,0,1-.46.06Z" class="cls-9"/><path d="M25.18,191.57l0,0,.06.05a.3.3,0,0,1-.21-.21,1,1,0,0,1-.09-.29c0-.17-.07-.35-.1-.52a2.34,2.34,0,0,1,0-.26,1.52,1.52,0,0,1,0-.21V190c0-.2-.06-.49.11-.64a.29.29,0,0,1,.33,0c.21.12.19.38.24.59a2.88,2.88,0,0,1,.06.59c0,.17,0,.35,0,.53a1.56,1.56,0,0,1,0,.31.34.34,0,0,1-.17.26l.05-.06,0,0a.09.09,0,0,1-.16,0Z" class="cls-9"/><path d="M19.42,188.79a3.41,3.41,0,0,1-.13-.53l-.06-.52c0-.17,0-.34,0-.51a2.26,2.26,0,0,0,0-.26.77.77,0,0,1,.12-.36.34.34,0,0,1,.62.08.59.59,0,0,1,0,.32,1.94,1.94,0,0,0,0,.24c0,.17,0,.34-.05.5l-.06.51c0,.18-.07.35-.09.53s-.33.17-.38,0Z" class="cls-9"/><path d="M37.61,152.59a41,41,0,0,1,1.74-8.69A30.39,30.39,0,0,1,40.94,140c.32-.66.66-1.31,1-2A9.7,9.7,0,0,1,43.34,136a.49.49,0,0,1,.82.48,11.39,11.39,0,0,1-1,2.15c-.34.66-.67,1.32-1,2-.57,1.23-1.08,2.49-1.54,3.76-1,2.73-1.76,5.54-2.61,8.32-.07.22-.44.19-.42-.06Z" class="cls-9"/><path d="M23.51,159.4c.11-2,.6-4,.86-6s.45-3.72.67-5.58a55.92,55.92,0,0,1,2.2-10.63c.34-1,.71-2.06,1.13-3.07a11.05,11.05,0,0,1,1.6-3c.25-.3.68,0,.61.35a18.31,18.31,0,0,1-1.08,2.83c-.37.91-.7,1.83-1,2.77a52.7,52.7,0,0,0-1.39,5.29c-.75,3.48-1.23,7-1.86,10.53-.19,1.05-.39,2.1-.59,3.15a19.58,19.58,0,0,1-.91,3.46c0,.12-.24.12-.23,0Z" class="cls-9"/><path d="M148.48,163.64c-1.16,2.64-4.26,3.46-6.93,3.41a11.59,11.59,0,0,1-4.07-.83,9.88,9.88,0,0,1-1.85-1,4.81,4.81,0,0,1-1.47-1.33.25.25,0,0,1,.33-.34c.54.25,1,.69,1.53,1a12.08,12.08,0,0,0,1.69.84,10.88,10.88,0,0,0,3.69.78,10.45,10.45,0,0,0,3.64-.55,6,6,0,0,0,3.12-2.19.19.19,0,0,1,.32.19Z" class="cls-9"/><path d="M116.5,260.69v-10a.87.87,0,0,0-.85-.87L105,249.52a.88.88,0,0,0-.88,1.06l2.35,10.8a.89.89,0,0,0,.91.69l8.29-.5A.88.88,0,0,0,116.5,260.69Z" class="cls-12"/><path d="M49.73,263.88l2.84-11.64A2.1,2.1,0,0,0,51,249.43l-13.15-1.79a2,2,0,0,0-2.2,2.13v13a2,2,0,0,0,1.82,2l10.31.4A2,2,0,0,0,49.73,263.88Z" class="cls-12"/><path d="M38.56,260.86c-.35,2.42-.84,4.82-1.28,7.23-.22,1.18-.43,2.37-.63,3.55a23.07,23.07,0,0,1-.71,3.63.31.31,0,0,1-.61-.09,17.5,17.5,0,0,1,.35-3.6c.19-1.22.4-2.44.64-3.66a52,52,0,0,1,1.83-7.17.21.21,0,0,1,.41.11Z" class="cls-12"/><path d="M47.52,262.29a52.21,52.21,0,0,1-.8,7.38c-.2,1.22-.43,2.43-.68,3.64a17.33,17.33,0,0,1-1,3.56c-.13.29-.59.13-.58-.16a22.77,22.77,0,0,1,.58-3.56c.24-1.22.46-2.43.68-3.65.44-2.42.82-4.86,1.35-7.26a.21.21,0,0,1,.41.05Z" class="cls-12"/><path d="M107.72,262.37a0,0,0,1,1,0,0,0,0,0,0,1,0,0Z" class="cls-12"/><path d="M107.84,261.86a21.24,21.24,0,0,1-5.11,1.61,34.66,34.66,0,0,1-5.29.35,13.67,13.67,0,0,1-4.89-.55,4.34,4.34,0,0,1-1.23-.8c-.46-.37-.82-.83-.53-1.43a.72.72,0,0,1,1.11-.15c-.27-.13-.33-.18-.2-.12a.57.57,0,0,1,.28.14,2.73,2.73,0,0,1,.25.23,5.71,5.71,0,0,0,.47.39,2.71,2.71,0,0,0,1.14.49,18,18,0,0,0,4.39.37c1.61,0,3.18,0,4.78-.18s3.18-.41,4.77-.56c.11,0,.16.17.06.21Z" class="cls-12"/><path d="M22.9,285.58c.53-6.95,7.24-12.44,15.44-12.44s14.7,5.32,15.41,12.11a9.82,9.82,0,0,1,.07,1.21v.4a20.61,20.61,0,0,1-.25,3.7,1.84,1.84,0,0,1-1.52,1.57c-12.54,2.18-22.49,1.54-27.43.41A1.87,1.87,0,0,1,23.2,291a29.91,29.91,0,0,1-.33-4.51C22.87,286.17,22.88,285.87,22.9,285.58Z" class="cls-5"/><path d="M53.7,263.63a12,12,0,0,1-4.23,1.58,25.54,25.54,0,0,1-4.44.55,41.1,41.1,0,0,1-9.06-.65,15.18,15.18,0,0,1-2.46-.67,4.51,4.51,0,0,1-2.13-1.32.45.45,0,0,1,.39-.68,14.76,14.76,0,0,1,2.68.95A17.14,17.14,0,0,0,37,264c1.81.28,3.66.44,5.49.55a34.94,34.94,0,0,0,5.51-.07,52.41,52.41,0,0,0,5.58-1.1.15.15,0,0,1,.12.27Z" class="cls-12"/><path d="M106.93,261c.8,1.23,1.52,2.51,2.43,3.67a23,23,0,0,0,3.17,3.23,54,54,0,0,0,8,5.35c.82.47,1.66.9,2.51,1.3l1.29.58a8.14,8.14,0,0,1,1.33.64.43.43,0,0,1-.22.79,7,7,0,0,1-2.49-.59,21.41,21.41,0,0,1-2.4-1.07c-1.52-.79-3-1.69-4.44-2.62a27.05,27.05,0,0,1-7.31-6.42,14,14,0,0,1-1.4-2.24c-.18-.37-.35-.74-.51-1.12a5.4,5.4,0,0,1-.33-1.33.23.23,0,0,1,.41-.17Z" class="cls-12"/><path d="M119.8,283.27c4,.5,7.79.94,8.17.88.83-.12,10.62-.71,15.16-1.31l3.66-1.73s-.21-.72-.62-1.75c-1-2.39-3-6.52-6.19-7.69-3.58-1.32-7.24-1.62-10.39-2.44A19.37,19.37,0,0,0,119.8,283.27Z" class="cls-5"/><path d="M92.17,277.3a17.65,17.65,0,0,0,1.1,4.65c5.85,1.31,14.15,1,16.13,1.31s12.23,2.51,20.55,2.51a65.74,65.74,0,0,0,14.57-1.55c1.06-.19,2.27-3.11,2.27-3.11s-.21-.72-.62-1.75c-4,.93-12.42,2.35-16.35,2.18-5.26-.24-15.5-2.24-20.67-2.7Z" class="cls-5"/><path d="M120.38,280.25a28.93,28.93,0,0,1,5,.18c1.67.14,3.35.3,5,.36a47.08,47.08,0,0,0,9.84-.66,51.33,51.33,0,0,0,5.45-1.29.39.39,0,0,1,.21.75,45.39,45.39,0,0,1-9.8,1.88,50.75,50.75,0,0,1-10.16-.3l-2.81-.35c-.93-.12-1.88-.19-2.8-.38-.12,0-.08-.18,0-.19Z" class="cls-13"/><path d="M53.43,285.85a13.79,13.79,0,0,1-2.78,1.63,14.85,14.85,0,0,1-2.86,1.11,32.42,32.42,0,0,1-6.88.73,57.32,57.32,0,0,1-14-.7,34.33,34.33,0,0,1-3.5-.85c-.67-.2-.79-.65-.86-1.31,0-.33.48-.38.57-.07s.09.49.27.61a2.14,2.14,0,0,0,.75.2c1,.26,2.11.48,3.17.66a56.86,56.86,0,0,0,6.51.73q3.24.15,6.49.08a39.34,39.34,0,0,0,6.69-.49,16.06,16.06,0,0,0,3.19-1c1.06-.44,2-1.12,3.1-1.5a.12.12,0,0,1,.11.2Z" class="cls-13"/><path d="M48.17,266.65a6,6,0,0,1-1.11-.47c-.47-.19-1-.33-1.47-.49a18,18,0,0,0-3.32-.85,9.58,9.58,0,0,0-2.88.07,4.63,4.63,0,0,0-1.28.45,3.77,3.77,0,0,1-1.57.67.8.8,0,0,1-.76-1c.25-1.2,2-1.78,3-2.13a8.52,8.52,0,0,1,3.78-.38,12.59,12.59,0,0,1,4.11,1.22c.87.43,2.57,1.27,2.17,2.5a.61.61,0,0,1-.72.41Z" class="cls-5"/><path d="M35.38,268.44c.47-1.07,1.88-1.61,3-1.84a15,15,0,0,1,3.78-.32,6.84,6.84,0,0,1,3.63,1.23c.8.58,2.25,1.74,1.65,2.87a.5.5,0,0,1-.68.18,9.43,9.43,0,0,0-5.07-1.95,19.65,19.65,0,0,0-2.87.16,8.38,8.38,0,0,0-1.31.24c-.45.13-.87.32-1.33.42a.68.68,0,0,1-.76-1Z" class="cls-5"/><path d="M46.8,273.73a3.62,3.62,0,0,1-1.26-.29l-1.3-.45a18.72,18.72,0,0,0-2.86-.63,16.14,16.14,0,0,0-3.1-.32,8.12,8.12,0,0,0-1.47.2c-.45.1-.82.41-1.29.42a.54.54,0,0,1-.52-.52c-.14-1.19,1.69-1.72,2.56-1.84a14.51,14.51,0,0,1,3.95-.07,11.49,11.49,0,0,1,3.39,1c.89.41,2.06,1.19,2.12,2.28a.23.23,0,0,1-.22.23Z" class="cls-5"/><path d="M117.11,262.09a2.33,2.33,0,0,1-1.33.2c-.48,0-1,0-1.45,0a7.75,7.75,0,0,0-2.63.31,12.9,12.9,0,0,0-2,1.13l-.24.16s-.17.13-.06,0a4.68,4.68,0,0,0-.46.43c-.16.15.08-.14,0,0l-.15.23a1.93,1.93,0,0,1-.69.73,1.31,1.31,0,0,1-1.91-.78c-.28-1.29.85-2.3,1.82-3a12.34,12.34,0,0,1,2.86-1.43,8.91,8.91,0,0,1,3.37-.24c1,.07,2.71.18,3.2,1.22a.68.68,0,0,1-.24.91Z" class="cls-5"/><path d="M121.2,265a2.53,2.53,0,0,1-1.38.28,5.91,5.91,0,0,0-1.25.19,7.62,7.62,0,0,0-2.32,1.11,7.46,7.46,0,0,0-1.87,1.54c.1-.12-.07.11-.09.13l-.17.29c0,.07-.09.19,0,0a3,3,0,0,0-.11.32,5.63,5.63,0,0,1-.14.59,1.54,1.54,0,0,1-.35.59s-.22.22-.11.07a1,1,0,0,1-1.48.19,1.8,1.8,0,0,1-.64-2,4.55,4.55,0,0,1,.73-1.54,9.38,9.38,0,0,1,2.77-2.36A9.7,9.7,0,0,1,118,263.2a5.53,5.53,0,0,1,1.86-.06,2,2,0,0,1,1.65.88.75.75,0,0,1-.26,1Z" class="cls-5"/><path d="M126.12,267.84a1.42,1.42,0,0,1-.88.36h-.33c-.18,0,0,0-.18,0l-.33.09-.1,0-.58.28-.31.19s-.33.23-.13.08a4.88,4.88,0,0,0-.54.48c-.15.16-.3.32-.44.49l-.23.27-.14.17c.13-.16-.07.1-.09.13l-.2.28-.37.59a13.25,13.25,0,0,0-.6,1.19c-.07.15-.11.18,0,0a1.89,1.89,0,0,0-.13.33,6.37,6.37,0,0,0-.21.66c-.07.22-.11.45-.19.66a3.14,3.14,0,0,1-.62.94,1.22,1.22,0,0,1-1.19.32,1.28,1.28,0,0,1-.86-.86,2.35,2.35,0,0,1-.13-1.29,7.38,7.38,0,0,1,.19-.78,13.82,13.82,0,0,1,.63-1.66,9.18,9.18,0,0,1,2-2.79,6.45,6.45,0,0,1,3.23-1.88,4.22,4.22,0,0,1,1.8.14,1.54,1.54,0,0,1,.93.6c.15.24.29.74,0,1Z" class="cls-5"/><ellipse cx="122.5" cy="82.98" class="cls-6" rx="6.61" ry="3.61" transform="translate(-25.46 82.56) rotate(-33.95)"/><ellipse cx="124.45" cy="80.97" class="cls-5" rx="2.27" ry="1.91" transform="translate(-24.01 83.31) rotate(-33.95)"/><path d="M94.93,33.64a0,0,0,1,0,0,0s0,0,0,0Z" class="cls-9"/><path d="M99.77,49.43A18.92,18.92,0,0,0,101,32.07,14.08,14.08,0,0,0,97.7,27c-.33-.28-.91.09-.64.5.52.79,1.17,1.47,1.7,2.26a18.65,18.65,0,0,1,1.39,2.47A18.13,18.13,0,0,1,101.77,38c.41,4-.75,7.7-2.37,11.26a.22.22,0,0,0,.37.22Z" class="cls-9"/><path d="M99.75,49.32a18,18,0,0,0-4.57-10.06,17.32,17.32,0,0,0-4.32-3.54c-.44-.25-1.38-1-1.9-.55-.34.27-.38.9-.49,1.27a5.75,5.75,0,0,0-.32,1.69.18.18,0,0,0,.33.08,4.59,4.59,0,0,0,.46-1.35,5.31,5.31,0,0,1,.19-.81c.13-.3.11-.48.49-.41a4,4,0,0,1,1.07.58q.54.33,1,.69a18.42,18.42,0,0,1,3.58,3.42,20,20,0,0,1,4.11,9c0,.18.34.14.32,0Z" class="cls-9"/><path d="M87,38.13a10.89,10.89,0,0,0-2-2.26,1,1,0,0,0-1.29-.09c-.63.49-.54,1.41-.54,2.11,0,1.12,0,2.24.16,3.36a27,27,0,0,0,1.33,6.08,15.72,15.72,0,0,0,2.75,5.5.25.25,0,0,0,.42-.25c-.54-1.55-1.45-3-2-4.5a31.81,31.81,0,0,1-1.44-4.76,28.89,28.89,0,0,1-.65-5,11.09,11.09,0,0,1,0-1.29l.07-.45.86-.35c.11,0,.28.29.36.37a15.85,15.85,0,0,0,1.81,1.76c.14.1.33-.1.23-.24Z" class="cls-9"/><path d="M89.91,38.79a4.53,4.53,0,0,1,.26-.6c.09-.18.19-.36.28-.55s.19-.36.3-.54.27-.36.38-.55a.33.33,0,0,0-.52-.4,2.83,2.83,0,0,0-.41.61c-.11.21-.22.43-.31.65a2.91,2.91,0,0,0-.18.64c0,.23,0,.47-.06.7s.21.18.26,0Z" class="cls-9"/><path d="M91.17,39.12a4,4,0,0,0,.2-.48c0-.06,0-.13.07-.2a1.19,1.19,0,0,1,.16-.23,7.37,7.37,0,0,1,.68-.8.3.3,0,0,0,0-.44.3.3,0,0,0-.43.09,6,6,0,0,0-.59.94,1.44,1.44,0,0,0-.18.54,1.88,1.88,0,0,1,0,.53c0,.07.08.11.11,0Z" class="cls-9"/><path d="M85.43,38.8a3.85,3.85,0,0,0-.73-.93,3.27,3.27,0,0,0-1-.61c-.2-.07-.29.25-.09.31a3.22,3.22,0,0,1,1.73,1.3.07.07,0,0,0,.12-.07Z" class="cls-9"/><path d="M86.38,52.08l.13,0,.06,0a.19.19,0,0,0,0-.07.13.13,0,0,0,0-.06.1.1,0,0,0-.07,0l-.13,0a.14.14,0,0,0-.15,0,.15.15,0,0,0,0,.22.17.17,0,0,0,.15,0Z" class="cls-9"/><path d="M87.48,52.17A42.07,42.07,0,0,1,79,44.75a52.16,52.16,0,0,1-6.29-9.34c-.11-.21-.49-.07-.4.17a34,34,0,0,0,6.09,9.57,33.13,33.13,0,0,0,8.85,7.36.2.2,0,0,0,.2-.34Z" class="cls-9"/><path d="M70.94,49.84a24.78,24.78,0,0,1-7.35-10.19,55.74,55.74,0,0,1-1.67-6,13.66,13.66,0,0,1,.38-5.89.28.28,0,0,0-.5-.22,8.17,8.17,0,0,0-.9,5.81,20.65,20.65,0,0,0,.88,2.9c.42,1.18.77,2.38,1.2,3.55A20.33,20.33,0,0,0,70.79,50a.13.13,0,0,0,.15-.2Z" class="cls-9"/><path d="M70.68,49.47c-.27-1.3-.51-2.66-.68-4a14.57,14.57,0,0,1,0-3.79,10.33,10.33,0,0,1,1-3.34,9.45,9.45,0,0,1,.81-1.31,13.78,13.78,0,0,0,1.07-1.35c.14-.24-.09-.63-.39-.51a5.46,5.46,0,0,0-2.31,2.57A11.29,11.29,0,0,0,69,41.34a15.82,15.82,0,0,0,.45,6.32,17.5,17.5,0,0,0,.85,2c.11.25.48.06.43-.18Z" class="cls-9"/></svg>