<svg xmlns="http://www.w3.org/2000/svg" id="Laag_1" data-name="Laag 1" viewBox="0 0 223.91 321.47"><defs><style>.cls-1{fill:#868686}.cls-2{fill:#3d3c3c}.cls-3{fill:#e3d7c6}.cls-4{fill:#e40424}.cls-5{fill:#aaa194}.cls-6{fill:#1f71b7}.cls-7{fill:#1a284e}.cls-8{fill:#01b3c9}.cls-9{fill:#97e2ce}.cls-10{fill:#fff}.cls-11{fill:#680614}.cls-12{fill:#d7916b}.cls-13{fill:#bd1622}.cls-14{fill:#d9d9d9}.cls-15{fill:#e20613}.cls-16{fill:#1d1d1b}.cls-17{fill:#875232}.cls-18{fill:#82c17a}</style></defs><title>concultatie svg</title><polygon points="74.26 225.67 83.2 247.38 95.17 247.43 90.74 225.73 74.26 225.67" class="cls-1"/><polygon points="93.62 225.74 98.05 247.44 110.14 247.48 110.22 225.8 93.62 225.74" class="cls-1"/><path d="M61,225.62a227.48,227.48,0,0,0,10,21.72l9.17,0-9-21.71Z" class="cls-1"/><polygon points="113.03 225.81 112.96 247.49 125.04 247.54 129.63 225.87 113.03 225.81" class="cls-1"/><path d="M152.05,226,143,247.6l9.88,0A164.59,164.59,0,0,0,162.07,226Z" class="cls-1"/><polygon points="132.51 225.88 127.92 247.55 139.89 247.59 148.99 225.94 132.51 225.88" class="cls-1"/><polygon points="71.2 225.66 80.15 247.37 83.2 247.38 74.26 225.67 71.2 225.66" class="cls-2"/><polygon points="90.74 225.73 95.17 247.43 98.05 247.44 93.62 225.74 90.74 225.73" class="cls-2"/><rect width="21.68" height="2.82" x="100.74" y="235.24" class="cls-2" transform="translate(-125.46 347.38) rotate(-89.79)"/><polygon points="129.63 225.87 125.04 247.54 127.92 247.55 132.51 225.88 129.63 225.87" class="cls-2"/><polygon points="148.99 225.94 139.89 247.59 142.95 247.6 152.05 225.95 148.99 225.94" class="cls-2"/><path d="M192.18,151.48C192.48,68,130.18.07,111.68,0S30.4,67.39,30.1,150.89C30,181.32,42.77,209.72,55,233.46l114.73.41C181.24,211.43,192.07,181.91,192.18,151.48Z" class="cls-3"/><path d="M153.28,36.16a330.16,330.16,0,0,0-41.72-2.7,331,331,0,0,0-41.74,2.39C86.26,13.46,103.4,0,111.68,0S137,13.64,153.28,36.16Z" class="cls-4"/><path d="M192.35,139.51A722.94,722.94,0,0,0,30,138.92a4.47,4.47,0,0,1-4.71-4.24,4.59,4.59,0,0,1,3.82-5.18,731,731,0,0,1,164.18.59,4.61,4.61,0,0,1,3.79,5.22A4.46,4.46,0,0,1,192.35,139.51Z" class="cls-5"/><ellipse cx="111.4" cy="77.37" class="cls-6" rx="30.57" ry="30.8"/><ellipse cx="111.39" cy="79.58" class="cls-7" rx="25.29" ry="25.48"/><path d="M137.26,77.46a26,26,0,0,1-25.95,26A25.61,25.61,0,0,1,96.9,99a26.1,26.1,0,0,1,14.6-47.64,26,26,0,0,1,25.76,26.15Z" class="cls-8"/><path d="M137.26,77.46a26,26,0,0,1-25.95,26A25.61,25.61,0,0,1,96.9,99a26.1,26.1,0,0,1,21.62-40.51,25.59,25.59,0,0,1,14.4,4.48A26,26,0,0,1,137.26,77.46Z" class="cls-9"/><ellipse cx="104.3" cy="70.16" class="cls-10" rx="8.43" ry="8.49"/><ellipse cx="112.77" cy="58.42" class="cls-10" rx="2.46" ry="2.48"/><path d="M130.09,227l-38.34-.14-4.23-41.3c-.75-7.36,5.84-13.69,14.22-13.66l18.76.07c8.38,0,14.92,6.41,14.11,13.77Z" class="cls-5"/><path d="M20.78,262.51h-5c-7.27-54.7,16.94-83.09,16.94-83.09a10.5,10.5,0,0,1,5.07-1.22C44,191.88,55.28,228,57,233.07,37.91,236.38,20.78,262.51,20.78,262.51Z" class="cls-11"/><path d="M25.62,262.53l-6.78,0c-5.11-54.59,19-84.32,19-84.32S53.14,195,61.2,230.33a2.84,2.84,0,0,1-2,3.35C41.22,238.73,25.62,262.53,25.62,262.53Z" class="cls-4"/><path d="M200.78,263.17l5,0C213.4,208.54,189.39,180,189.39,180a10.51,10.51,0,0,0-5.06-1.25c-6.23,13.64-17.8,49.72-19.52,54.73C183.84,236.91,200.78,263.17,200.78,263.17Z" class="cls-11"/><path d="M195.94,263.15l6.78,0c5.51-54.55-18.39-84.45-18.39-84.45s-15.42,16.64-23.73,52a2.82,2.82,0,0,0,2,3.36C180.51,239.24,195.94,263.15,195.94,263.15Z" class="cls-4"/><path d="M49.29,237.61c-5.36-20.14,6.3-37.37,6.3-37.37s-10.38,8.65-23.9,3.36C49.33,189,51.34,183.23,51.34,183.23s-6-2-17.84,5.43c1.65-16.92,16.6-24,16.6-24s-16.71-1.55-9.28-27C52.11,153.82,59,144.59,59,144.59s3.07-2.75-10.59-14c17.58-5.51,27.28,2.81,27.28,2.81s2-11.07,13.14-12.35c-5.41,14,7,16.33,7,16.33s6.13-9.65,3.12-16.56c16.66,4.47,13.3,21,13.3,21s7.56-7.35,22.79-7.77c-9.69,15.9-8.31,25.75-8.64,26.12.22-.23,1.57,21,1.57,21-.47,10.66-.2,19.59-18.68,22.45l-23.34,9.39-1.82,4.24-7.91-1.59S55.63,223.91,49.29,237.61Z" class="cls-12"/><path d="M109.39,256.58a69.91,69.91,0,0,1-21.61,0c-4.58-.82-9.59-6-10.58-10.72A79.5,79.5,0,0,1,76,223.52c.56-4.74,5.74-10.13,10.75-11.11a69.72,69.72,0,0,1,23.59,0c5,1,10.19,6.37,10.75,11.11A79.5,79.5,0,0,1,120,245.86C119,250.61,114,255.76,109.39,256.58Z" class="cls-12"/><path d="M147.32,240.58a4.66,4.66,0,0,0-3.41-3.77c-18.41-4.91-25.44-17-25.73-17.56a4.67,4.67,0,0,0-8.17,4.53c.36.65,9,16.07,31.49,22.05a4.68,4.68,0,0,0,5.72-3.31A4.73,4.73,0,0,0,147.32,240.58Z" class="cls-12"/><path d="M92.43,298.77H61.53a2.46,2.46,0,0,1-2.32-3.3c2.93-8.12,16-14.26,24.9-14.26,9.13,0,10.6,6.53,10.78,15A2.47,2.47,0,0,1,92.43,298.77Z" class="cls-12"/><path d="M87.87,297.86a4.66,4.66,0,0,1-4.64-4.28L79.52,249.7a4.67,4.67,0,1,1,9.3-.79l3.71,43.88a4.67,4.67,0,0,1-4.26,5Z" class="cls-12"/><path d="M104.8,298.77h30.9a2.46,2.46,0,0,0,2.32-3.3c-2.93-8.12-16-14.26-24.89-14.26-9.14,0-10.6,6.53-10.79,15A2.47,2.47,0,0,0,104.8,298.77Z" class="cls-12"/><path d="M109.36,297.86l-.4,0a4.67,4.67,0,0,1-4.26-5l3.71-43.88a4.67,4.67,0,1,1,9.3.79L114,293.58A4.67,4.67,0,0,1,109.36,297.86Z" class="cls-12"/><path d="M96.14,297.19a2.68,2.68,0,0,1-2.68,2.74H59.88a2.68,2.68,0,0,1-2.51-3.59.78.78,0,0,1,.05-.14c1.51-4,5.34-7.62,10-10.31,5.4-3.13,11.88-5.05,17-5.05,9.57,0,11.39,6.6,11.69,15.36Z" class="cls-13"/><path d="M96.14,297.19a2.68,2.68,0,0,1-2.68,2.74H59.88a2.68,2.68,0,0,1-2.51-3.59.78.78,0,0,1,.05-.14H96.11Z" class="cls-14"/><path d="M95.16,288.63l-16.65-7.09-.63-5.45a1.29,1.29,0,0,1,1.28-1.44H95.08a1.3,1.3,0,0,1,1.29,1.42Z" class="cls-13"/><path d="M101.34,297.19a2.68,2.68,0,0,0,2.68,2.74H137.6a2.68,2.68,0,0,0,2.51-3.59.78.78,0,0,0-.05-.14c-1.51-4-5.34-7.62-10-10.31-5.4-3.13-11.88-5.05-17-5.05-9.57,0-11.39,6.6-11.69,15.36Z" class="cls-13"/><path d="M101.34,297.19a2.68,2.68,0,0,0,2.68,2.74H137.6a2.68,2.68,0,0,0,2.51-3.59.78.78,0,0,0-.05-.14H101.37Z" class="cls-14"/><path d="M102.32,288.63,119,281.54l.63-5.45a1.29,1.29,0,0,0-1.28-1.44H102.4a1.3,1.3,0,0,0-1.29,1.42Z" class="cls-13"/><path d="M132.09,264.22a171.7,171.7,0,0,1-66.7,0C68.76,248.67,77,231.67,77.59,216c0-1.07,4.3-3.17,8.22-3.38,10-.56,14.69-.92,24.62,0,4.74.43,8.47,4.54,9.46,7.32S125.61,248.28,132.09,264.22Z" class="cls-15"/><circle cx="147.61" cy="240.64" r="6.93" class="cls-12"/><ellipse cx="147.28" cy="233.06" class="cls-12" rx="8.05" ry="3.8" transform="matrix(0.54, -0.84, 0.84, 0.54, -128.4, 230.56)"/><ellipse cx="155.29" cy="237.61" class="cls-12" rx="3.67" ry="9.26" transform="translate(-103.28 354.72) rotate(-81.2)"/><ellipse cx="154.36" cy="244.58" class="cls-12" rx="3.67" ry="9.26" transform="translate(-127.83 307.95) rotate(-70.4)"/><ellipse cx="149.63" cy="248.39" class="cls-12" rx="3.67" ry="9.26" transform="translate(-139.3 223.86) rotate(-54.08)"/><path d="M59.47,248.7a4.54,4.54,0,0,1-1.89-.41,4.66,4.66,0,0,1-2.37-6.16c9.45-21.22,26.05-27.37,26.75-27.62a4.67,4.67,0,0,1,3.17,8.79c-.6.22-13.65,5.26-21.39,22.63A4.66,4.66,0,0,1,59.47,248.7Z" class="cls-12"/><circle cx="58.71" cy="248.98" r="6.93" class="cls-12"/><ellipse cx="66.26" cy="249.85" class="cls-12" rx="3.8" ry="8.05" transform="translate(-163.98 132.34) rotate(-48.11)"/><ellipse cx="60.49" cy="257.04" class="cls-12" rx="9.26" ry="3.67" transform="translate(-202.71 235.68) rotate(-72.12)"/><ellipse cx="53.76" cy="255.02" class="cls-12" rx="9.26" ry="3.67" transform="translate(-195.77 179.79) rotate(-61.32)"/><ellipse cx="50.75" cy="249.75" class="cls-12" rx="9.26" ry="3.67" transform="translate(-161.74 109.03) rotate(-45)"/><path d="M123.35,161.26l6.33,10.85s8.2-7.41,7.18-16a.81.81,0,0,0-1.21-.61A89.28,89.28,0,0,1,123.35,161.26Z" class="cls-12"/><circle cx="98.4" cy="181.4" r="33.55" class="cls-12"/><path d="M87.87,200.56A14.39,14.39,0,0,0,102.26,215c18.91-.77,38.25-8,36.92-17,.07-2.78-5.93-2.73-8.66-6.89C126.17,184.46,87.87,192.61,87.87,200.56Z" class="cls-12"/><path d="M135.76,198.44c.43,1.89,3.78,2.76,7.49,1.92s5.14-3,4.71-4.93-2.53-2.76-6.25-1.93S135.34,196.54,135.76,198.44Z" class="cls-16"/><ellipse cx="145.09" cy="194.75" class="cls-10" rx=".78" ry="1.56" transform="translate(-60.84 323.5) rotate(-85.33)"/><path d="M86,163.26s-7.54-6.8-14.37-7.89c-.57-.09-.8.66-.61,1.21,2.33,6.67,4.13,13,4.13,13" class="cls-12"/><path d="M75.12,170a.47.47,0,0,1-.45-.34c0-.06-1.82-6.39-4.12-13a1.61,1.61,0,0,1,.21-1.49,1,1,0,0,1,.92-.34c6.88,1.1,14.29,7.72,14.61,8a.47.47,0,0,1,0,.66.46.46,0,0,1-.66,0c-.07-.06-7.52-6.71-14.13-7.77,0,0,0,0,0,0a.72.72,0,0,0,0,.58c2.31,6.6,4.12,13,4.14,13a.48.48,0,0,1-.32.58Z" class="cls-17"/><path d="M122,210.51a15.94,15.94,0,0,1-12.4-5.56.78.78,0,1,1,1.21-1c4.8,5.86,12.47,4.94,12.54,4.93a.78.78,0,0,1,.88.67.79.79,0,0,1-.67.87A13.43,13.43,0,0,1,122,210.51Z" class="cls-17"/><path d="M100.48,171.52a.82.82,0,0,1-.57-.24c-.5-.49-5.22-4.75-14.38-1.29a.78.78,0,0,1-.55-1.46c10.06-3.79,15.44,1.07,16,1.64a.83.83,0,0,1,.25.48.78.78,0,0,1-.68.86Z" class="cls-17"/><path d="M111.69,172.17h-.11a.79.79,0,0,1-.65-.89.76.76,0,0,1,.26-.47c.64-.59,6.15-5.24,16.06-1.17a.79.79,0,0,1,.42,1,.77.77,0,0,1-1,.42c-9.05-3.72-13.89.39-14.41.88A.86.86,0,0,1,111.69,172.17Z" class="cls-17"/><path d="M89.57,177.27a20.9,20.9,0,0,1-2.2-1.18,18.68,18.68,0,0,1-2-1.39,14.18,14.18,0,0,1-1.81-1.65,9,9,0,0,1-1.39-2,9.24,9.24,0,0,0,1.63,1.73,14.4,14.4,0,0,0,2,1.32,20.72,20.72,0,0,0,2.12,1,21.26,21.26,0,0,0,2.19.78h0a.72.72,0,0,1-.39,1.39Z" class="cls-16"/><path d="M88.3,179.05a23.9,23.9,0,0,1-2.33-.89A21.47,21.47,0,0,1,83.78,177a17.67,17.67,0,0,1-2-1.41,9.55,9.55,0,0,1-1.63-1.8A9.8,9.8,0,0,0,82,175.34a16.77,16.77,0,0,0,2.12,1.06,22.46,22.46,0,0,0,2.23.75c.76.2,1.54.38,2.28.5h0a.72.72,0,0,1,.61.82.73.73,0,0,1-.83.6Z" class="cls-16"/><circle cx="94.72" cy="182.68" r="9.96" class="cls-10"/><circle cx="91.6" cy="182.68" r="4.56" class="cls-18"/><circle cx="91.6" cy="182.68" r="2.58" class="cls-16"/><circle cx="92.56" cy="180.66" r="1.82" class="cls-10"/><circle cx="90.48" cy="184.94" r=".71" class="cls-10"/><path d="M125.38,177.27a21.77,21.77,0,0,0,2.19-1.18,18.68,18.68,0,0,0,2-1.39,15,15,0,0,0,1.82-1.65,9.32,9.32,0,0,0,1.38-2,8.92,8.92,0,0,1-1.63,1.73,14.94,14.94,0,0,1-2,1.32,20.88,20.88,0,0,1-2.13,1,21.26,21.26,0,0,1-2.19.78h0a.73.73,0,0,0-.5.89.72.72,0,0,0,.89.5Z" class="cls-16"/><path d="M126.64,179.05a23.9,23.9,0,0,0,2.33-.89,21.47,21.47,0,0,0,2.19-1.12,16.05,16.05,0,0,0,2-1.41,9.55,9.55,0,0,0,1.63-1.8,9.8,9.8,0,0,1-1.84,1.51,16.77,16.77,0,0,1-2.12,1.06,22.46,22.46,0,0,1-2.23.75c-.75.2-1.54.38-2.28.5h0a.72.72,0,0,0,.22,1.42Z" class="cls-16"/><circle cx="120.19" cy="182.68" r="9.96" class="cls-10"/><circle cx="117.08" cy="182.68" r="4.56" class="cls-18"/><circle cx="117.08" cy="182.68" r="2.58" class="cls-16"/><circle cx="118.03" cy="180.66" r="1.82" class="cls-10"/><circle cx="115.95" cy="184.94" r=".71" class="cls-10"/></svg>