<svg xmlns="http://www.w3.org/2000/svg" id="Basis_Figuur" data-name="Basis Figuur" viewBox="0 0 836.6 1128.53"><defs><style>.cls-1{fill:#c6916d}.cls-2{fill:#a21c26}.cls-3{fill:#d9d9d9}.cls-4{fill:#c20e1a}.cls-5{fill:#222221}.cls-6{fill:#fff}.cls-7{fill:#7a5337}.cls-8{fill:#96bf7d}</style></defs><title>Tekengebied 10</title><path d="M110.86,735.87C77.12,609,150.57,500.4,150.57,500.4S85.14,554.86,0,521.53c111.13-91.75,123.76-128.35,123.76-128.35S86.09,380.3,11.35,427.39c10.4-106.62,104.61-151,104.61-151S10.68,266.6,57.47,106.17C128.64,207.85,172,149.75,172,149.75s19.33-17.37-66.78-88.16c110.81-34.73,171.9,17.7,171.9,17.7S289.49,9.5,360,1.49c-34.08,88.15,43.78,102.84,43.78,102.84S442.34,43.56,423.39,0c105,28.2,83.81,132.38,83.81,132.38s47.67-46.29,143.61-49c-61,100.18-52.34,162.26-54.47,164.57,1.4-1.4,9.91,132.56,9.91,132.57C603.3,447.72,605,504,488.58,522L341.5,581.18,330,607.89l-49.87-10.06S150.83,649.55,110.86,735.87Z" class="cls-1"/><path d="M489.55,855.37a439.57,439.57,0,0,1-136.14,0c-28.89-5.14-60.43-37.62-66.69-67.52-8.59-46.93-12-93.69-7.3-140.76,3.52-29.89,36.19-63.88,67.73-70a439.57,439.57,0,0,1,148.66,0c31.53,6.12,64.21,40.11,67.73,70,4.66,47.07,1.29,93.83-7.3,140.76C550,817.75,518.44,850.23,489.55,855.37Z" class="cls-1"/><path d="M728.55,754.59a29.42,29.42,0,0,0-21.49-23.8C591.09,699.88,546.8,623.43,545,620.19a29.43,29.43,0,1,0-51.5,28.48c2.26,4.12,57,101.3,198.44,139a29.43,29.43,0,0,0,36.64-33.06Z" class="cls-1"/><path d="M382.7,1121.23H188a15.52,15.52,0,0,1-14.59-20.81c18.46-51.17,101.05-89.87,156.86-89.87,57.59,0,66.79,41.19,68,94.78A15.54,15.54,0,0,1,382.7,1121.23Z" class="cls-1"/><path d="M354,1115.46a29.42,29.42,0,0,1-29.29-27L301.33,812A29.42,29.42,0,1,1,360,807.07l23.38,276.48a29.42,29.42,0,0,1-26.84,31.8C355.66,1115.43,354.82,1115.46,354,1115.46Z" class="cls-1"/><path d="M460.64,1121.23H655.37a15.53,15.53,0,0,0,14.6-20.81c-18.47-51.17-101.06-89.87-156.87-89.87-57.58,0-66.79,41.19-68,94.78A15.54,15.54,0,0,0,460.64,1121.23Z" class="cls-1"/><path d="M489.35,1115.46c-.83,0-1.67,0-2.51-.11a29.42,29.42,0,0,1-26.85-31.8l23.38-276.48A29.42,29.42,0,1,1,542,812l-23.37,276.49A29.43,29.43,0,0,1,489.35,1115.46Z" class="cls-1"/><path d="M406.06,1111.25a16.88,16.88,0,0,1-16.86,17.28H177.61a16.88,16.88,0,0,1-15.86-22.61l.32-.88c9.55-25.47,33.66-48,62.8-65,34-19.76,74.84-31.83,107.33-31.83,60.35,0,71.79,41.59,73.69,96.78C406,1107.09,406,1109.16,406.06,1111.25Z" class="cls-2"/><path d="M406.06,1111.25a16.88,16.88,0,0,1-16.86,17.28H177.61a16.88,16.88,0,0,1-15.86-22.61l.32-.88H405.89C406,1107.09,406,1109.16,406.06,1111.25Z" class="cls-3"/><path d="M399.89,1057.31,295,1012.66l-4-34.34a8.14,8.14,0,0,1,8.09-9.09H399.42a8.14,8.14,0,0,1,8.1,8.93Z" class="cls-2"/><path d="M438.85,1111.25a16.87,16.87,0,0,0,16.86,17.28H667.3a16.88,16.88,0,0,0,15.86-22.61l-.32-.88c-9.55-25.47-33.66-48-62.8-65-34-19.76-74.84-31.83-107.33-31.83-60.35,0-71.79,41.59-73.69,96.78Q438.92,1108.11,438.85,1111.25Z" class="cls-2"/><path d="M438.85,1111.25a16.87,16.87,0,0,0,16.86,17.28H667.3a16.88,16.88,0,0,0,15.86-22.61l-.32-.88H439Q438.92,1108.11,438.85,1111.25Z" class="cls-3"/><path d="M445,1057.31l104.9-44.65,4-34.34a8.14,8.14,0,0,0-8.09-9.09H445.49a8.14,8.14,0,0,0-8.1,8.93Z" class="cls-2"/><path d="M632.57,903.53a1082.32,1082.32,0,0,1-420.27,0c21.22-98,73.35-205.11,76.88-303.87.24-6.71,27.12-19.92,51.83-21.3,62.76-3.49,92.52-5.76,155.12,0C526,581.11,549.46,607,555.72,624.5S591.77,803.05,632.57,903.53Z" class="cls-4"/><circle cx="730.41" cy="754.95" r="43.66" class="cls-1"/><ellipse cx="728.34" cy="707.16" class="cls-1" rx="50.7" ry="23.96" transform="translate(-260.67 936.12) rotate(-57.19)"/><ellipse cx="778.81" cy="735.87" class="cls-1" rx="23.14" ry="58.36" transform="matrix(0.15, -0.99, 0.99, 0.15, -67.57, 1392.9)"/><ellipse cx="772.89" cy="779.78" class="cls-1" rx="23.14" ry="58.36" transform="translate(-220.97 1246.32) rotate(-70.4)"/><ellipse cx="743.15" cy="803.76" class="cls-1" rx="23.14" ry="58.36" transform="translate(-343.73 934.08) rotate(-54.08)"/><path d="M175,805.72a29.44,29.44,0,0,1-26.87-41.41c59.53-133.67,164.14-172.42,168.56-174a29.43,29.43,0,0,1,20,55.36c-3.76,1.4-86,33.15-134.77,142.6A29.43,29.43,0,0,1,175,805.72Z" class="cls-1"/><circle cx="170.25" cy="807.5" r="43.66" class="cls-1"/><ellipse cx="217.77" cy="812.99" class="cls-1" rx="23.96" ry="50.7" transform="translate(-532.84 432.24) rotate(-48.11)"/><ellipse cx="181.46" cy="858.31" class="cls-1" rx="58.36" ry="23.14" transform="translate(-691.1 767.42) rotate(-72.12)"/><ellipse cx="139.03" cy="845.53" class="cls-1" rx="58.36" ry="23.14" transform="translate(-669.48 561.7) rotate(-61.32)"/><ellipse cx="120.05" cy="812.37" class="cls-1" rx="58.36" ry="23.14" transform="translate(-539.27 322.82) rotate(-45)"/><path d="M577.54,254.77l39.9,68.34s51.66-46.69,45.21-101a5.14,5.14,0,0,0-7.65-3.84A557.58,557.58,0,0,1,577.54,254.77Z" class="cls-1"/><circle cx="420.34" cy="381.67" r="211.37" class="cls-1"/><path d="M354,502.38A90.66,90.66,0,0,0,444.64,593c119.12-4.84,241-50.26,232.65-106.86.41-17.53-37.39-17.19-54.56-43.38C595.29,400.92,354,452.31,354,502.38Z" class="cls-1"/><path d="M655.73,489c2.68,11.94,23.8,17.37,47.19,12.13s32.38-19.16,29.7-31.1-16-17.37-39.38-12.13S653.06,477.09,655.73,489Z" class="cls-5"/><ellipse cx="714.5" cy="465.81" class="cls-6" rx="4.93" ry="9.86" transform="translate(192.05 1140) rotate(-85.33)"/><path d="M342,267.35s-47.54-42.82-90.55-49.71c-3.62-.58-5.06,4.18-3.85,7.65,14.69,42,26,81.88,26,81.88" class="cls-1"/><path d="M273.62,310.11a2.94,2.94,0,0,1-2.83-2.14c-.11-.4-11.46-40.3-26-81.71a10.1,10.1,0,0,1,1.35-9.38,6.08,6.08,0,0,1,5.75-2.14C295.3,221.68,342,263.39,344,265.16a2.94,2.94,0,1,1-3.94,4.37c-.47-.42-47.4-42.31-89-49-.19,0-.21,0-.31.11a4.34,4.34,0,0,0-.3,3.66c14.55,41.58,25.95,81.65,26.06,82.05a2.93,2.93,0,0,1-2,3.63A2.71,2.71,0,0,1,273.62,310.11Z" class="cls-7"/><path d="M569.24,565.11c-17,0-52.71-4.09-78.14-35.08a4.9,4.9,0,1,1,7.58-6.22c30.29,36.91,78.57,31.12,79.05,31.06a4.9,4.9,0,0,1,1.29,9.72A80,80,0,0,1,569.24,565.11Z" class="cls-7"/><path d="M433.44,319.4a5.23,5.23,0,0,1-3.58-1.48c-3.2-3.13-32.92-29.92-90.62-8.17a4.91,4.91,0,1,1-3.46-9.18C399.13,276.7,433,307.3,436.71,310.9a4.9,4.9,0,0,1-2.73,8.47Z" class="cls-7"/><path d="M504,323.53a4.62,4.62,0,0,1-.65,0,4.91,4.91,0,0,1-2.51-8.55c4-3.69,38.79-33,101.19-7.34a4.91,4.91,0,0,1-3.72,9.08c-57-23.45-87.54,2.45-90.83,5.48A5.24,5.24,0,0,1,504,323.53Z" class="cls-7"/><path d="M364.66,355.65a137,137,0,0,1-13.85-7.41,135.16,135.16,0,0,1-12.8-8.76,96.59,96.59,0,0,1-11.42-10.43,58.1,58.1,0,0,1-8.74-12.54,57,57,0,0,0,10.3,10.9,93.81,93.81,0,0,0,12.37,8.31,129.6,129.6,0,0,0,13.37,6.48,132.36,132.36,0,0,0,13.82,4.94l.08,0a4.54,4.54,0,1,1-2.5,8.72A4.29,4.29,0,0,1,364.66,355.65Z" class="cls-5"/><path d="M356.67,366.83a143.86,143.86,0,0,1-28.48-12.65,96.52,96.52,0,0,1-12.65-8.9A58.62,58.62,0,0,1,305.27,334a57.58,57.58,0,0,0,11.61,9.51,93.07,93.07,0,0,0,13.32,6.67,130.93,130.93,0,0,0,14.09,4.73A133.62,133.62,0,0,0,358.62,358h.09a4.54,4.54,0,0,1-1.38,9A4.88,4.88,0,0,1,356.67,366.83Z" class="cls-5"/><circle cx="397.1" cy="389.71" r="62.74" class="cls-6"/><circle cx="377.48" cy="389.71" r="28.75" class="cls-8"/><circle cx="377.48" cy="389.71" r="16.23" class="cls-5"/><circle cx="383.49" cy="377.03" r="11.49" class="cls-6"/><circle cx="370.39" cy="403.99" r="4.47" class="cls-6"/><path d="M590.29,355.65a137.89,137.89,0,0,0,13.84-7.41,135.31,135.31,0,0,0,12.81-8.76,97.29,97.29,0,0,0,11.41-10.43,58.5,58.5,0,0,0,8.75-12.54,57.34,57.34,0,0,1-10.3,10.9,93.81,93.81,0,0,1-12.37,8.31,129.75,129.75,0,0,1-13.38,6.48,131.55,131.55,0,0,1-13.82,4.94l-.08,0a4.54,4.54,0,1,0,2.5,8.72A4.88,4.88,0,0,0,590.29,355.65Z" class="cls-5"/><path d="M598.27,366.83a143.6,143.6,0,0,0,28.49-12.65,96.42,96.42,0,0,0,12.64-8.9A58.3,58.3,0,0,0,649.67,334a57.25,57.25,0,0,1-11.6,9.51,93.71,93.71,0,0,1-13.33,6.67,129.47,129.47,0,0,1-14.09,4.73A132.56,132.56,0,0,1,596.32,358h-.08a4.54,4.54,0,1,0,2,8.81Z" class="cls-5"/><circle cx="557.63" cy="389.71" r="62.74" class="cls-6"/><circle cx="538.01" cy="389.71" r="28.75" class="cls-8"/><circle cx="538.01" cy="389.71" r="16.23" class="cls-5"/><circle cx="544.02" cy="377.03" r="11.49" class="cls-6"/><circle cx="530.92" cy="403.99" r="4.47" class="cls-6"/></svg>