<svg xmlns="http://www.w3.org/2000/svg" viewBox="0 0 267.58 267.39"><defs><style>.cls-1{fill:#7ee3ed}.cls-2{fill:#5bafbc}.cls-3{fill:#3caab3}.cls-4{fill:#4c4c4c;opacity:.27}</style></defs><title>Middel 4</title><g id="Laag_2" data-name="Laag 2"><g id="illustraties"><path d="M166.82,120.76l98.75-10.16a134,134,0,0,1,.54,43.65C137.63,139.32,17.63,160.18,3.4,162.79A134.3,134.3,0,0,1,.25,133.94s70.74-7.37,96-9.86c2.07-.07,4-.2,5.62-.4,6.25-.73,2.88-.44-5.62.4-26.9.94-86.05-7.7-94.64-9a132.64,132.64,0,0,1,5.7-24.16c13,.75,157.59,8,234.22-36.33a133.13,133.13,0,0,1,16.89,30.58C234.58,103.09,168.87,120.23,166.82,120.76Z" class="cls-1" transform="translate(-0.25 -0.25)"/><path d="M265.57,110.6l-98.75,10.16c2.05-.53,67.76-17.67,91.61-35.57A132.78,132.78,0,0,1,265.57,110.6Z" class="cls-2" transform="translate(-0.25 -0.25)"/><path d="M266.11,154.25a131.65,131.65,0,0,1-5.42,22.21C213.37,172.18,24,180.27,8.77,180.93A133,133,0,0,1,3.4,162.79C17.63,160.18,137.63,139.32,266.11,154.25Z" class="cls-2" transform="translate(-0.25 -0.25)"/><path d="M260.69,176.46a133.76,133.76,0,0,1-38,57.46c-50.86,8.6-176.37-10.66-190-12.81A133.2,133.2,0,0,1,8.77,180.93C24,180.27,213.37,172.18,260.69,176.46Z" class="cls-3" transform="translate(-0.25 -0.25)"/><path d="M213.09,26.21a134.17,134.17,0,0,1,28.45,28.4C164.91,98.94,20.34,91.69,7.32,90.94A133.9,133.9,0,0,1,45.83,33.39S125.73,83.46,213.09,26.21Z" class="cls-3" transform="translate(-0.25 -0.25)"/><path d="M32.63,221.11c13.67,2.15,139.18,21.41,190,12.81a133.58,133.58,0,0,1-190-12.81Z" class="cls-1" transform="translate(-0.25 -0.25)"/><path d="M134,.25a133,133,0,0,1,79.14,26C125.73,83.46,45.83,33.39,45.83,33.39A133.23,133.23,0,0,1,134,.25Z" class="cls-2" transform="translate(-0.25 -0.25)"/><path d="M1.62,115.1c8.59,1.28,67.74,9.92,94.64,9-25.27,2.49-96,9.86-96,9.86A134.54,134.54,0,0,1,1.62,115.1Z" class="cls-2" transform="translate(-0.25 -0.25)"/><path d="M267.83,136.18c.22,73.23-65.46,129-123.15,130.92,0,0,45.4-56.43,45.4-130.41S139.94.79,139.94.79C200.52-1.88,267.58,53.48,267.83,136.18Z" class="cls-4" transform="translate(-0.25 -0.25)"/></g></g></svg>