<svg id="Laag_1" data-name="Laag 1" xmlns="http://www.w3.org/2000/svg" viewBox="0 0 264.62 264.43"><defs><style>.cls-1{fill:#7aaebb;}.cls-2{fill:#a2e3ed;}.cls-3{fill:#6ba9b2;}.cls-4{fill:#4d4d4d;opacity:0.27;isolation:isolate;}</style></defs><title>opname</title><path class="cls-1" d="M262.91,152.3a131.16,131.16,0,0,1-5.34,22C210.77,170,23.5,178,8.42,178.68a129.83,129.83,0,0,1-5.29-17.93C17.18,158.17,135.86,137.52,262.91,152.3Z" transform="translate(0 0)"/><path class="cls-1" d="M164.73,119.18c2-.53,67-17.49,90.6-35.18a131.08,131.08,0,0,1,7,25.13Z" transform="translate(0 0)"/><path class="cls-2" d="M255.33,84c-23.59,17.69-88.57,34.65-90.6,35.18l97.65-10.05a131.41,131.41,0,0,1,.53,43.17c-127-14.78-245.73,5.87-259.78,8.45A132.23,132.23,0,0,1,0,132.22s70-7.29,95-9.76c2-.07,3.93-.2,5.56-.39,6.17-.72,2.86-.44-5.56.39-26.61.93-85.09-7.61-93.6-8.88A131.71,131.71,0,0,1,7,89.68c12.87.75,155.84,7.92,231.63-35.93A132.49,132.49,0,0,1,255.33,84Z" transform="translate(0 0)"/><path class="cls-3" d="M45.09,32.77s79,49.51,165.39-7.09a132.84,132.84,0,0,1,28.15,28.07C162.84,97.6,19.87,90.43,7,89.68A132.33,132.33,0,0,1,45.09,32.77Z" transform="translate(0 0)"/><path class="cls-2" d="M32,218.42c13.53,2.13,137.64,21.17,187.94,12.67a132.12,132.12,0,0,1-186.52-11C32.94,219.51,32.47,219,32,218.42Z" transform="translate(0 0)"/><path class="cls-1" d="M132.22,0a131.51,131.51,0,0,1,78.26,25.68C124.1,82.28,45.09,32.77,45.09,32.77A131.68,131.68,0,0,1,132.22,0Z" transform="translate(0 0)"/><path class="cls-3" d="M8.42,178.68C23.5,178,210.77,170,257.57,174.26A132.31,132.31,0,0,1,220,231.09c-50.3,8.5-174.41-10.54-187.94-12.67A132.48,132.48,0,0,1,8.42,178.68Z" transform="translate(0 0)"/><path class="cls-1" d="M1.35,113.58c8.51,1.27,67,9.81,93.6,8.88C70,124.93,0,132.22,0,132.22A132.05,132.05,0,0,1,1.35,113.58Z" transform="translate(0 0)"/><path class="cls-4" d="M264.62,134.42c.22,72.43-64.73,127.53-121.78,129.48,0,0,44.89-55.81,44.89-129S138.15.54,138.15.54C198.06-2.11,264.37,52.64,264.62,134.42Z" transform="translate(0 0)"/><rect class="cls-2" x="94.95" y="120.99" width="9.72" height="2.06"/></svg>