<svg id="Laag_1" data-name="Laag 1" xmlns="http://www.w3.org/2000/svg" xmlns:xlink="http://www.w3.org/1999/xlink" viewBox="0 0 3665.81 3930.76"><defs><style>.cls-1{fill:none;}.cls-2{fill:#f2dd3f;}.cls-3{fill:#f7f997;}.cls-4{clip-path:url(#clip-path);}.cls-5{fill:#8c6239;}.cls-10,.cls-6{fill:#dcbea7;}.cls-25,.cls-26,.cls-27,.cls-33,.cls-36,.cls-6{fill-rule:evenodd;}.cls-7{fill:#29abe2;}.cls-8{fill:#e9d0ba;}.cls-9{fill:#e9f0f3;}.cls-11{fill:#a58f7d;}.cls-12{fill:#b8585e;}.cls-13{fill:#ff95bd;}.cls-14,.cls-25{fill:#fff;}.cls-15{fill:#b3b3b3;}.cls-16{fill:#1f80aa;}.cls-17{fill:#809471;}.cls-18{fill:#9a6233;}.cls-19{fill:#ccc;}.cls-20{fill:#fcb321;}.cls-21{fill:#bd9219;}.cls-22{fill:#92b6c1;}.cls-23{fill:#a6907f;}.cls-24{fill:#754c24;}.cls-26,.cls-30{fill:#e6e6e6;}.cls-27,.cls-40{fill:#999;}.cls-28{fill:#f2f2f2;}.cls-29{fill:#bdccd4;}.cls-31{fill:#4c6b74;}.cls-32{fill:#f7931e;}.cls-33,.cls-34{fill:#efe2d6;}.cls-35{fill:#a67c52;}.cls-36,.cls-38{fill:#9b743d;}.cls-37{fill:#e2b7a8;}.cls-39{fill:#74572e;}.cls-41{fill:#aa897e;}.cls-42{fill:#c7d5dd;}.cls-43{fill:gray;}.cls-44{fill:#4d4d4d;}.cls-45{fill:#333;}.cls-46{fill:#8cc63f;}</style><clipPath id="clip-path"><ellipse class="cls-1" cx="1981.15" cy="1718.07" rx="1460.54" ry="1256.62"/></clipPath></defs><title>PERSONEEL OLVZ.ai</title><circle class="cls-2" cx="1877.76" cy="1965.38" r="1759.07"/><circle class="cls-3" cx="1981.15" cy="1901.2" r="1560.96"/><g class="cls-4"><path class="cls-5" d="M3176,2160.79a656.14,656.14,0,0,1-261.31,0c11.26-90.8,33.76-180.46,33.76-272.39h193.8C3142.2,1980.33,3164.7,2070,3176,2160.79Z"/><ellipse class="cls-5" cx="3045.3" cy="1828.88" rx="166.77" ry="218.08"/><polygon class="cls-6" points="3489.03 2778.98 3430.33 2542.78 3387.42 2284.2 3255.09 2317.55 3318.09 2571.07 3352.8 2780.24 3489.03 2778.98"/><polygon class="cls-6" points="2603.32 2780.24 2662.32 2542.78 2705.24 2284.2 2837.57 2317.55 2774.57 2571.07 2739.86 2780.24 2603.32 2780.24"/><polygon class="cls-7" points="3297.56 2778.98 2795.13 2778.98 2805.74 2175.46 2948.97 2146.52 2979.58 2140.33 3113.26 2140.33 3143.87 2146.53 3286.95 2175.46 3297.56 2778.98"/><path class="cls-8" d="M3113.26,2054.56V2109c-18,13.95-38.88,22.44-60.49,22.44h-14.94c-20.72,0-40.75-7.8-58.25-20.74v-56.14Z"/><path class="cls-9" d="M2800.32,2462.66s-49.78,1.52-87.7-6.42-79.77-57.07-79.77-57.07,129.67-207.12,140.18-212.58,32.71-11.13,32.71-11.13Z"/><path class="cls-9" d="M3292.34,2462.66s49.77,1.52,87.69-6.42,79.78-57.07,79.78-57.07-129.68-207.12-140.18-212.58-32.71-11.13-32.71-11.13Z"/><polygon class="cls-10" points="3125.78 2146.67 3045.76 2259.12 2967.07 2146.67 2967.07 1994.38 3125.78 1994.38 3125.78 2146.67"/><path class="cls-11" d="M3125.78,2016.81v77.25c-21.39,19.8-46.16,31.86-71.82,31.86h-17.74c-24.59,0-48.37-11.07-69.15-29.44v-79.67Z"/><ellipse class="cls-10" cx="2905.44" cy="1888.4" rx="28.1" ry="60.73" transform="matrix(1, -0.07, 0.07, 1, -121.23, 201.12)"/><ellipse class="cls-10" cx="3186.28" cy="1888.4" rx="60.73" ry="28.1" transform="translate(1086.41 4939.47) rotate(-86.12)"/><path class="cls-10" d="M3051.64,2094.24c16.88,0,67.27-.15,110.65-114.39a147.6,147.6,0,0,0,9.36-47.16l4.3-123.17c0-68.59-36.82-133.16-99-133.16h-63.37c-62.14,0-99,64.57-99,133.16l4.28,122.49a149.67,149.67,0,0,0,10.46,50C2975.68,2098.09,3034.83,2094.24,3051.64,2094.24Z"/><path class="cls-5" d="M3008.26,1795.9a116.28,116.28,0,0,0-60.73,16.64,2.94,2.94,0,0,0-1.15,3.85,2.52,2.52,0,0,0,3.13,1.16,105.12,105.12,0,0,1,57.39-4.68,8.42,8.42,0,0,0,9.69-6.42,8.51,8.51,0,0,0-6.66-10.38A9.56,9.56,0,0,0,3008.26,1795.9Z"/><path class="cls-5" d="M3082.91,1795.9a116.25,116.25,0,0,1,60.73,16.64,2.93,2.93,0,0,1,1.15,3.85,2.52,2.52,0,0,1-3.13,1.16,105.12,105.12,0,0,0-57.39-4.68,8.42,8.42,0,0,1-9.69-6.42,8.52,8.52,0,0,1,6.66-10.38A9.65,9.65,0,0,1,3082.91,1795.9Z"/><path class="cls-12" d="M3102.35,1984.89a56.13,56.13,0,0,1-16.92,33.11,57.38,57.38,0,0,1-79.61-.47,56.08,56.08,0,0,1-16.45-32.64,6.82,6.82,0,0,1,6.77-7.55h99.44a6.56,6.56,0,0,1,2.4.44A6.66,6.66,0,0,1,3102.35,1984.89Z"/><path class="cls-13" d="M3085.43,2018a57.38,57.38,0,0,1-79.61-.47c10.17-3.41,23.95-5.51,39.14-5.51C3060.83,2012,3075.16,2014.31,3085.43,2018Z"/><path class="cls-14" d="M3098,1977.78c-3.52,12.07-25.51,21.36-52.12,21.36s-48.6-9.29-52.12-21.36a6.6,6.6,0,0,1,2.4-.44h99.44A6.56,6.56,0,0,1,3098,1977.78Z"/><path class="cls-11" d="M3036.91,1948.46a46.15,46.15,0,0,0,4.58,1.39c1.54.37,3.07.74,4.61,1l.12,0,.58,0a14,14,0,0,0,9-4.63,18.92,18.92,0,0,0,4.7-9.79,19.83,19.83,0,0,0,.12-5.6l-.7-4.59-1.4-9c-1-6-2-12-3-17.93s-2.15-11.93-3.4-17.87a1.58,1.58,0,0,0-1.9-1.3A1.74,1.74,0,0,0,3049,1882c.46,6.07,1.07,12.12,1.7,18.16s1.35,12.07,2.07,18.09l1.15,9,.56,4.42a12.22,12.22,0,0,1-.11,3.47,11.58,11.58,0,0,1-3,6,12.73,12.73,0,0,1-5.5,3.4l.69,0c-1.56,0-3.12,0-4.69.1a42.16,42.16,0,0,0-4.73.5,1.76,1.76,0,0,0-.27,3.31Z"/><rect class="cls-14" x="3061.46" y="2334.06" width="220.49" height="56.88"/><path class="cls-15" d="M3245.73,2354.85H3097.67c-5.17,0-9.35-2.38-9.35-5.32s4.18-5.32,9.35-5.32h148.06c5.17,0,9.36,2.38,9.36,5.32S3250.9,2354.85,3245.73,2354.85Z"/><path class="cls-15" d="M3229.59,2377.79H3113.81c-5.17,0-9.35-2.38-9.35-5.32s4.18-5.32,9.35-5.32h115.78c5.17,0,9.36,2.38,9.36,5.32S3234.76,2377.79,3229.59,2377.79Z"/><path class="cls-16" d="M2983.47,2365v-20.75H2830.94v40.07h0v64.86c0,46.49,34.14,84.18,76.26,84.18h0c42.12,0,76.27-37.69,76.27-84.18V2365ZM2907.2,2522.7c-36.73,0-66.62-33-66.62-73.54V2384.3h133.24v64.86C2973.82,2489.71,2943.94,2522.7,2907.2,2522.7Z"/><ellipse class="cls-5" cx="2974.75" cy="1727.13" rx="95.09" ry="43.67" transform="translate(-273.59 2858.68) rotate(-49.34)"/><ellipse class="cls-5" cx="3109.74" cy="1713.01" rx="50.85" ry="121.1" transform="translate(-361.58 2457.88) rotate(-40.96)"/><ellipse class="cls-14" cx="2986.72" cy="1853.04" rx="29.06" ry="25.44"/><ellipse class="cls-14" cx="3104.45" cy="1853.04" rx="29.06" ry="25.44"/><ellipse class="cls-17" cx="2988.72" cy="1851.03" rx="13.97" ry="15.42"/><ellipse cx="2988.72" cy="1851.03" rx="7.27" ry="8.02"/><ellipse class="cls-14" cx="2984.81" cy="1844.24" rx="5.59" ry="6.17"/><ellipse class="cls-17" cx="3102.45" cy="1851.03" rx="13.97" ry="15.42"/><ellipse cx="3102.45" cy="1851.03" rx="7.27" ry="8.02"/><ellipse class="cls-14" cx="3098.54" cy="1844.24" rx="5.59" ry="6.17"/><rect class="cls-18" x="2669.98" y="2174.75" width="27.83" height="604.23"/><rect class="cls-19" x="2669.98" y="2127.42" width="27.83" height="78.71"/><path class="cls-20" d="M2808.5,2010.75c0,1,0,2,0,3q-.09,4.9-.52,9.7a143,143,0,0,1-3.36,20.6q-1.24,5.25-2.89,10.32c-16.89,52.26-63.25,89.81-117.79,89.81s-100.65-37.34-117.65-89.37q-1.65-5.09-2.93-10.34a140.19,140.19,0,0,1-3.42-20.59c-.22-2.34-.38-4.71-.48-7.09,0-.87-.06-1.74-.08-2.61,0-1.15,0-2.3,0-3.45a144.57,144.57,0,0,1,.87-15.81c.33-3.07.77-6.11,1.3-9.11,10.9-61.8,61.56-108.53,122.43-108.53s111.31,46.54,122.36,108.15c.54,3,1,6,1.33,9.08.25,2.29.47,4.6.6,6.93C2808.4,2004.53,2808.5,2007.62,2808.5,2010.75Z"/><path class="cls-20" d="M2852.38,1739c-12.84,82-37.77,163-43.33,245.53q-.33,4.86-.56,9.72c-.12,2.39-.22,4.8-.3,7.21q-.21,6.24-.25,12.48c0,1,0,1.91,0,2.87h-249c0-.91,0-1.83,0-2.74q-.06-9.85-.53-19.69c-.14-3.24-.33-6.47-.54-9.71-5.37-82.59-29.6-163.68-42.45-245.67,2.48-.4,8.12-1.22,8.12-1.22l19,72.34-4.76-74.29,50.33-5.93L2612,1845.73l-7.18-117.36,72.14-2.75,4.07,85.9,6-85.92,120.4,6.79-10.4,134.38,22.33-132.54S2841.37,1737.24,2852.38,1739Z"/><path class="cls-21" d="M2804.53,2044.07c-.83,3.5-1.81,6.94-2.89,10.32-31.31,8.88-73.89,14-118.44,14s-85.82-4.87-117-13.57q-1.65-5.09-2.93-10.34c30.82,9.34,74.37,14.79,119.93,14.79C2729.58,2059.28,2773.64,2053.68,2804.53,2044.07Z"/><path class="cls-21" d="M2808.66,2013.77q-.09,4.9-.52,9.7c-31.76,10-77.1,15.88-124.69,15.88s-91.55-5.56-123.35-15.45c-.22-2.34-.38-4.71-.47-7.09h-.49c0-.91,0-1.83,0-2.74l.41.13q4.15,1.36,8.64,2.61c30.47,8.51,72,13.42,115.27,13.42s84.84-4.91,115.29-13.42q4.91-1.36,9.4-2.87Z"/><path class="cls-21" d="M2809.49,1984.53c-.22,3.24-.4,6.48-.56,9.72l-.9.28c-31.74,10-76.92,15.77-124.34,15.77s-91.31-5.54-123.08-15.36c-.6-.18-1.19-.37-1.76-.56-.15-3.24-.34-6.47-.55-9.71,1.18.39,2.39.78,3.61,1.16,30.92,9.69,75.3,15.35,121.78,15.35,47.24,0,92-5.8,123-15.73Z"/><path class="cls-11" d="M3014.06,1843.71c-22-5.25-31.63-5.93-54.3,0,4.81-9.58,11.92-16.12,27.14-16.12S3008.26,1834,3014.06,1843.71Z"/><path class="cls-11" d="M3131.88,1843.71c-22.23-5.25-32-5.93-54.9,0,4.86-9.58,12.05-16.12,27.44-16.12S3126,1834,3131.88,1843.71Z"/><ellipse cx="1113.36" cy="1893.45" rx="173.53" ry="201.39"/><polygon class="cls-6" points="1614.61 2957.62 1568.89 2773.63 1518.07 2467.34 1361.32 2506.83 1435.94 2807.13 1460.91 2957.62 1614.61 2957.62"/><polygon class="cls-6" points="613.46 2957.62 659.18 2773.63 710.01 2467.34 866.76 2506.83 792.14 2807.13 767.17 2957.62 613.46 2957.62"/><polygon class="cls-22" points="1411.62 2957.62 816.49 2957.62 829.05 2338.53 998.72 2304.25 1034.97 2296.92 1193.32 2296.92 1229.57 2304.26 1399.06 2338.53 1411.62 2957.62"/><path class="cls-8" d="M1193.32,2195.33v64.48c-21.34,16.52-46,26.58-71.65,26.58H1104c-24.54,0-48.26-9.24-69-24.57v-66.49Z"/><polygon class="cls-10" points="1277.96 2314.07 1112.77 2506.21 950.34 2314.05 1032.51 2297.45 1201.27 2298.55 1277.96 2314.07"/><path class="cls-22" d="M822.63,2678.73s-59,1.79-103.87-7.62-94.49-67.59-94.49-67.59,153.6-245.34,166-251.8,38.75-13.19,38.75-13.19Z"/><path class="cls-22" d="M1405.44,2678.73s59,1.79,103.87-7.62,94.5-67.59,94.5-67.59-153.61-245.34-166-251.8-38.74-13.19-38.74-13.19Z"/><polygon class="cls-10" points="1208.15 2304.43 1113.36 2437.63 1020.15 2304.43 1020.15 2124.04 1208.15 2124.04 1208.15 2304.43"/><path class="cls-23" d="M1208.15,2150.61v91.51c-25.34,23.45-54.68,37.73-85.07,37.73h-21c-29.14,0-57.3-13.11-81.92-34.87v-94.37Z"/><ellipse class="cls-10" cx="947.15" cy="1998.51" rx="33.28" ry="71.93" transform="translate(-133.18 68.74) rotate(-3.88)"/><ellipse class="cls-10" cx="1279.82" cy="1998.51" rx="71.93" ry="33.28" transform="translate(-800.79 3140.03) rotate(-86.12)"/><path class="cls-10" d="M1104,2242.33h17.68c73.61,0,139.88-83.15,139.88-164.4l6-172.85c0-81.25-43.62-157.73-117.23-157.73h-75.06c-73.61,0-117.23,76.48-117.23,157.73l6,172.85C964.1,2159.18,1030.36,2242.33,1104,2242.33Z"/><path class="cls-14" d="M1222.6,1955.81c0,18.54-17.28,33.57-38.59,33.57s-38.59-15-38.59-33.57a30.93,30.93,0,0,1,8.67-21.21c7.08-7.54,17.86-12.35,29.92-12.35s22.83,4.81,29.92,12.35A30.93,30.93,0,0,1,1222.6,1955.81Z"/><ellipse class="cls-24" cx="1181.35" cy="1955.81" rx="18.55" ry="20.48"/><ellipse cx="1181.35" cy="1955.81" rx="9.65" ry="10.65"/><ellipse class="cls-14" cx="1176.15" cy="1946.8" rx="7.42" ry="8.19"/><ellipse class="cls-14" cx="1050.44" cy="1955.81" rx="38.59" ry="33.57"/><ellipse class="cls-24" cx="1053.1" cy="1955.81" rx="18.55" ry="20.48"/><ellipse cx="1053.1" cy="1955.81" rx="9.65" ry="10.65"/><ellipse class="cls-14" cx="1047.91" cy="1946.8" rx="7.42" ry="8.19"/><path d="M1084.57,1887.81a154.48,154.48,0,0,0-80.64,22.1,3.89,3.89,0,0,0-1.52,5.11,3.35,3.35,0,0,0,4.16,1.55,139.38,139.38,0,0,1,76.2-6.22,11.34,11.34,0,0,0,4-22.31A13.07,13.07,0,0,0,1084.57,1887.81Z"/><path d="M1150.45,1887.81a154.51,154.51,0,0,1,80.64,22.1,3.9,3.9,0,0,1,1.52,5.11,3.36,3.36,0,0,1-4.16,1.55,139.39,139.39,0,0,0-76.2-6.22,11.19,11.19,0,0,1-12.86-8.52,11.3,11.3,0,0,1,8.84-13.79A13,13,0,0,1,1150.45,1887.81Z"/><path class="cls-12" d="M1197.22,2106.64a83.14,83.14,0,0,1-25.08,49.07,85,85,0,0,1-118-.69,83,83,0,0,1-24.37-48.38,9.86,9.86,0,0,1,6.48-10.54,9.73,9.73,0,0,1,3.55-.65h147.41a9.73,9.73,0,0,1,3.55.65A9.86,9.86,0,0,1,1197.22,2106.64Z"/><path class="cls-13" d="M1172.14,2155.71a85,85,0,0,1-118-.69c15.08-5.05,35.51-8.16,58-8.16C1135.67,2146.86,1156.92,2150.25,1172.14,2155.71Z"/><path class="cls-14" d="M1190.74,2096.1c-5.21,17.89-37.82,31.66-77.26,31.66s-72-13.77-77.25-31.66a9.73,9.73,0,0,1,3.55-.65h147.41A9.73,9.73,0,0,1,1190.74,2096.1Z"/><path class="cls-23" d="M1135.2,2065.05a55.54,55.54,0,0,1-5.12,2.56c-1.74.74-3.47,1.47-5.23,2.1l-.13.05-.69.06a16.06,16.06,0,0,1-11.35-3.59,21.63,21.63,0,0,1-7.13-10.5,23.3,23.3,0,0,1-1.07-6.53l.06-5.52.15-10.8c.16-7.19.33-14.39.58-21.59s.55-14.4,1-21.59a2,2,0,0,1,2-1.92,2,2,0,0,1,1.73,1.92c.47,7.19.76,14.39,1,21.59s.42,14.4.58,21.59l.15,10.8.09,5.28a14.52,14.52,0,0,0,.7,4.05,13.24,13.24,0,0,0,4.46,6.45,14.58,14.58,0,0,0,7,2.87l-.82.11c1.83-.36,3.67-.6,5.52-.84a49.72,49.72,0,0,1,5.62-.37,1.94,1.94,0,0,1,1.83,2A2.08,2.08,0,0,1,1135.2,2065.05Z"/><path class="cls-25" d="M1374,2552.61c0-9.42-6.92-17.06-15.46-17.06h-182c-8.54,0-15.46,7.64-15.46,17.06V2671.3H1374Z"/><path class="cls-26" d="M1176.59,2699.09h182c8.54,0,15.46-7.64,15.46-17.07v-18.29h-212.9V2682C1161.13,2691.45,1168.05,2699.09,1176.59,2699.09Z"/><path class="cls-27" d="M1269.54,2554.81h-3.92a13.78,13.78,0,0,1-13.79-13.79v-26.66h31.5V2541A13.78,13.78,0,0,1,1269.54,2554.81Z"/><rect class="cls-28" x="1258.18" y="2521.07" width="18.79" height="3.29"/><rect class="cls-28" x="1258.18" y="2528.83" width="18.79" height="3.29"/><rect class="cls-28" x="1258.18" y="2536.59" width="18.79" height="3.29"/><path class="cls-29" d="M1246.58,2640.39H1185V2563h61.54Zm-58.38-3.49h55.22v-70.39H1188.2Z"/><path class="cls-15" d="M1221.46,2596.27a13.66,13.66,0,0,0,6.51-11.89c0-7.41-5.44-13.42-12.16-13.42s-12.16,6-12.16,13.42a13.66,13.66,0,0,0,6.51,11.89c-9.77,2.77-17,12.53-17,24.18,0,13.81,45.3,13.81,45.3,0C1238.46,2608.8,1231.23,2599,1221.46,2596.27Z"/><path class="cls-30" d="M1355.56,2582h-90.41c-3.16,0-5.71-2.83-5.71-6.31s2.55-6.3,5.71-6.3h90.41c3.16,0,5.71,2.82,5.71,6.3S1358.72,2582,1355.56,2582Z"/><path class="cls-30" d="M1335.85,2615.47h-70.7c-3.16,0-5.71-2.83-5.71-6.31s2.55-6.3,5.71-6.3h70.7c3.15,0,5.71,2.82,5.71,6.3S1339,2615.47,1335.85,2615.47Z"/><path class="cls-31" d="M1039.58,2563v-24.57H858.91v47.45h0v76.83c0,55.07,40.44,99.71,90.33,99.71h0c49.89,0,90.34-44.64,90.34-99.71V2563Zm-90.34,186.82c-43.51,0-78.91-39.08-78.91-87.11V2585.9h157.82v76.83C1028.15,2710.76,992.75,2749.84,949.24,2749.84Z"/><path d="M1058.72,1887.81c-65.58-36.78-69.55-192.49,10.77-166.92C1176.78,1755,1066.44,1822.16,1058.72,1887.81Z"/><path d="M1127.51,1893.45c38-23.5,19.46-168.34-29.78-157.76C1032,1749.81,1113.51,1830.82,1127.51,1893.45Z"/><path d="M1193.74,1891c34.81-29-1.35-169.7-48.85-151.86C1081.45,1763,1172.19,1831,1193.74,1891Z"/><polygon points="983.19 2022.94 954.41 2028.09 943.53 1887.95 958.06 1866.7 983.19 2022.94"/><ellipse cx="993.15" cy="1822.82" rx="96.87" ry="31" transform="translate(-1081.92 1878.32) rotate(-62.95)"/><polygon points="1240.7 2022.94 1269.47 2028.09 1280.36 1887.95 1265.83 1866.7 1240.7 2022.94"/><ellipse cx="1230.74" cy="1822.82" rx="31" ry="96.87" transform="translate(-694.35 759.14) rotate(-27.05)"/><path d="M947.15,1835.43s6.47-58.94,54.83-110.9a214.5,214.5,0,0,1,28.71-25.74c32.75-24.47,78.15-44.12,141-50-16.63,23.83-26.28,36.7-26.28,36.7s86.42,7.09,115.11-23.82c-14.47,59.88-19.83,65.61-19.83,65.61s53-14.42,63.53-38.57c14,60.2-26.83,95.81-26.83,95.81s22.91-8.24,55.57-19.83c-15.16,55.37-44,68.28-44,68.28s16.58,5.11,41.66-10.14c-8.17,45.71-44.2,76.33-44.71,91.94s-118-144.93-168.78-143.65S947.15,1835.43,947.15,1835.43Z"/><path class="cls-23" d="M1082.76,1937c-26.17-5.17-37.64-5.84-64.63,0,6.89-9.55,18.79-15.85,32.31-15.85S1075.86,1927.48,1082.76,1937Z"/><path class="cls-23" d="M1216.32,1937c-26.17-5.17-37.64-5.84-64.63,0,6.89-9.55,18.79-15.85,32.31-15.85S1209.42,1927.48,1216.32,1937Z"/><path class="cls-31" d="M822.12,2681.94h0a2.89,2.89,0,0,1-2.81-3l5.34-336.33a2.89,2.89,0,0,1,2.85-2.87h0a2.89,2.89,0,0,1,2.81,3L825,2679.07A2.89,2.89,0,0,1,822.12,2681.94Z"/><path class="cls-31" d="M1405.52,2680.7a2.89,2.89,0,0,1-2.86-2.87l-5.34-336.33a2.91,2.91,0,0,1,2.81-3,2.86,2.86,0,0,1,2.9,2.87l5.35,336.34a2.89,2.89,0,0,1-2.81,3Z"/><path class="cls-32" d="M2752.28,2391a1437.4,1437.4,0,0,1-484.2,0c20.85-141.92,62.55-282.07,62.55-425.75h359.1C2689.73,2108.92,2731.43,2249.07,2752.28,2391Z"/><ellipse class="cls-32" cx="2510.18" cy="1975.69" rx="179.55" ry="229.31"/><polygon class="cls-33" points="2987.92 2974.68 2924.73 2726.33 2878.53 2454.44 2736.05 2489.5 2803.88 2756.07 2841.02 2974.68 2987.92 2974.68"/><polygon class="cls-33" points="2034.66 2974.68 2097.86 2726.33 2144.05 2454.44 2286.53 2489.5 2218.7 2756.07 2181.56 2974.68 2034.66 2974.68"/><polygon class="cls-22" points="2781.78 2974.68 2240.84 2974.68 2252.26 2340.1 2406.47 2309.67 2439.43 2303.17 2583.35 2303.17 2616.31 2309.68 2770.35 2340.1 2781.78 2974.68"/><path class="cls-8" d="M2583.36,2213v57.24c-19.4,14.67-41.86,23.6-65.13,23.6h-16.09c-22.3,0-43.87-8.2-62.71-21.81v-59Z"/><polygon class="cls-34" points="2660.28 2318.39 2510.14 2488.95 2362.5 2318.37 2437.19 2303.63 2590.58 2304.61 2660.28 2318.39"/><path class="cls-22" d="M2246.42,2642.09s-53.58,1.59-94.41-6.76-85.89-60-85.89-60,139.62-217.79,150.93-223.52,35.21-11.71,35.21-11.71Z"/><path class="cls-22" d="M2776.16,2642.09s53.59,1.59,94.41-6.76,85.89-60,85.89-60-139.61-217.79-150.92-223.52-35.22-11.71-35.22-11.71Z"/><polygon class="cls-34" points="2596.83 2309.83 2510.68 2428.07 2425.96 2309.83 2425.96 2149.7 2596.83 2149.7 2596.83 2309.83"/><path class="cls-10" d="M2596.83,2173.29v81.23c-23,20.81-49.7,33.49-77.32,33.49h-19.1c-26.48,0-52.08-11.64-74.45-31v-83.76Z"/><ellipse class="cls-34" cx="2359.6" cy="2038.27" rx="30.25" ry="63.86" transform="matrix(1, -0.07, 0.07, 1, -137.39, 170.84)"/><ellipse class="cls-34" cx="2661.97" cy="2038.27" rx="63.86" ry="30.25" transform="translate(441.7 4550.44) rotate(-85.97)"/><path class="cls-34" d="M2517,2254.7c18.17,0,72.43-.16,119.13-120.27a152.18,152.18,0,0,0,10.08-49.6l4.63-129.5c0-72.13-39.65-140-106.55-140h-68.23c-66.91,0-106.56,67.89-106.56,140l4.61,128.8a153.76,153.76,0,0,0,11.26,52.57C2435.22,2258.75,2498.91,2254.7,2517,2254.7Z"/><path class="cls-32" d="M2470.31,1941a127.59,127.59,0,0,0-65.39,17.5,3.05,3.05,0,0,0-1.24,4,2.75,2.75,0,0,0,3.38,1.23,115.55,115.55,0,0,1,61.78-4.93,9.07,9.07,0,0,0,10.43-6.75,8.94,8.94,0,0,0-7.17-10.91A10,10,0,0,0,2470.31,1941Z"/><path class="cls-32" d="M2550.68,1941a127.61,127.61,0,0,1,65.39,17.5,3.06,3.06,0,0,1,1.23,4,2.74,2.74,0,0,1-3.37,1.23,115.6,115.6,0,0,0-61.79-4.93,9.07,9.07,0,0,1-10.43-6.75,9,9,0,0,1,7.17-10.91A10.1,10.1,0,0,1,2550.68,1941Z"/><path class="cls-12" d="M2571.61,2139.73a58.57,58.57,0,0,1-18.22,34.8,62.86,62.86,0,0,1-85.72-.48,58.46,58.46,0,0,1-17.7-34.32,7,7,0,0,1,4.7-7.48,7.19,7.19,0,0,1,2.58-.46h107.07a7.11,7.11,0,0,1,2.58.46A7,7,0,0,1,2571.61,2139.73Z"/><path class="cls-13" d="M2553.39,2174.53a62.86,62.86,0,0,1-85.72-.48c10.95-3.59,25.79-5.8,42.15-5.8C2526.9,2168.25,2542.33,2170.66,2553.39,2174.53Z"/><path class="cls-14" d="M2566.9,2132.25c-3.79,12.69-27.47,22.46-56.11,22.46s-52.33-9.77-56.12-22.46a7.19,7.19,0,0,1,2.58-.46h107.07A7.11,7.11,0,0,1,2566.9,2132.25Z"/><path class="cls-10" d="M2501.15,2101.42a51.09,51.09,0,0,0,4.93,1.46c1.66.39,3.31.77,5,1.06l.12,0,.63-.05a15.16,15.16,0,0,0,9.73-4.87,19.78,19.78,0,0,0,5.07-10.29,20.76,20.76,0,0,0,.13-5.89L2526,2078l-1.51-9.44c-1.06-6.29-2.12-12.58-3.27-18.85s-2.32-12.55-3.66-18.79a1.71,1.71,0,0,0-2.05-1.37,1.83,1.83,0,0,0-1.31,1.94c.49,6.38,1.15,12.74,1.83,19.09s1.45,12.69,2.23,19l1.24,9.49.59,4.64a12.82,12.82,0,0,1-.11,3.66,12.18,12.18,0,0,1-3.19,6.34,13.7,13.7,0,0,1-5.92,3.57l.75,0c-1.68,0-3.37,0-5.06.11a49.28,49.28,0,0,0-5.09.51,1.84,1.84,0,0,0-.29,3.49Z"/><path class="cls-25" d="M2747.61,2530.14c0-8.37-6.29-15.15-14.05-15.15H2568.14c-7.76,0-14,6.78-14,15.15v105.35h193.52Z"/><path class="cls-26" d="M2568.14,2660.16h165.42c7.76,0,14.05-6.78,14.05-15.14v-16.24H2554.09V2645C2554.09,2653.38,2560.38,2660.16,2568.14,2660.16Z"/><path class="cls-27" d="M2653.53,2532.09h-5.35a11.64,11.64,0,0,1-11.64-11.64v-24.27h28.63v24.27A11.64,11.64,0,0,1,2653.53,2532.09Z"/><rect class="cls-28" x="2642.31" y="2502.14" width="17.08" height="2.92"/><rect class="cls-28" x="2642.31" y="2509.03" width="17.08" height="2.92"/><rect class="cls-28" x="2642.31" y="2515.92" width="17.08" height="2.92"/><path class="cls-29" d="M2631.77,2608.06h-55.94v-68.68h55.94Zm-53.07-3.1h50.19v-62.49H2578.7Z"/><path class="cls-15" d="M2608.93,2568.89a12.05,12.05,0,0,0,5.92-10.55c0-6.58-4.95-11.91-11-11.91s-11.06,5.33-11.06,11.91a12.07,12.07,0,0,0,5.92,10.55c-8.88,2.46-15.45,11.13-15.45,21.47,0,12.26,41.17,12.26,41.17,0C2624.38,2580,2617.81,2571.35,2608.93,2568.89Z"/><path class="cls-30" d="M2730.82,2556.22h-82.18a5.62,5.62,0,0,1,0-11.2h82.18a5.62,5.62,0,0,1,0,11.2Z"/><path class="cls-30" d="M2712.9,2585.93h-64.26a5.61,5.61,0,0,1,0-11.19h64.26a5.61,5.61,0,0,1,0,11.19Z"/><path class="cls-31" d="M2443.61,2539.38v-21.81H2279.39v42.12h0v68.2c0,48.89,36.76,88.52,82.11,88.52h0c45.35,0,82.11-39.63,82.11-88.52v-88.51Zm-82.11,165.83c-39.55,0-71.73-34.68-71.73-77.32v-68.2h143.46v68.2C2433.23,2670.53,2401.05,2705.21,2361.5,2705.21Z"/><ellipse class="cls-32" cx="2434.23" cy="1868.7" rx="101.01" ry="46.54" transform="translate(-580.21 2443.74) rotate(-48.31)"/><ellipse class="cls-32" cx="2579.57" cy="1853.85" rx="54.18" ry="128.66" transform="translate(-578.37 2197.84) rotate(-41.92)"/><ellipse class="cls-14" cx="2447.11" cy="1998.01" rx="31.29" ry="26.75"/><ellipse class="cls-14" cx="2573.87" cy="1998.01" rx="31.29" ry="26.75"/><ellipse class="cls-35" cx="2449.27" cy="1998.97" rx="15.04" ry="16.22"/><ellipse cx="2449.27" cy="1998.97" rx="7.82" ry="8.43"/><ellipse class="cls-14" cx="2445.06" cy="1991.83" rx="6.02" ry="6.49"/><ellipse class="cls-35" cx="2571.71" cy="1998.97" rx="15.04" ry="16.22"/><ellipse cx="2571.71" cy="1998.97" rx="7.82" ry="8.43"/><ellipse class="cls-14" cx="2567.5" cy="1991.83" rx="6.02" ry="6.49"/><path class="cls-10" d="M2476.55,1988c-23.68-5.43-34.05-6.14-58.46,0,5.17-9.91,12.83-16.67,29.22-16.67S2470.31,1977.94,2476.55,1988Z"/><path class="cls-10" d="M2602.75,1988c-23.68-5.43-34.05-6.14-58.46,0,5.17-9.91,12.83-16.67,29.22-16.67S2596.51,1977.94,2602.75,1988Z"/><path class="cls-31" d="M2773.4,2644a3.05,3.05,0,0,1-3.08-3l-6-297.84a3.08,3.08,0,0,1,6.15-.09l5.95,297.83a3,3,0,0,1-3,3.07Z"/><path class="cls-31" d="M2246,2644a3,3,0,0,0,3.07-3l5.95-297.84a3.08,3.08,0,0,0-6.15-.09l-5.94,297.83a3,3,0,0,0,3,3.07Z"/><ellipse cx="2037.63" cy="2132.45" rx="188.47" ry="325.95"/><polygon class="cls-36" points="2481.29 2974.4 2422.66 2738.49 2379.75 2479.91 2247.42 2513.25 2310.42 2766.77 2344.92 2974.68 2481.29 2974.4"/><polygon class="cls-36" points="1595.96 2974.68 1654.65 2738.49 1697.57 2479.91 1829.9 2513.25 1766.9 2766.77 1732.4 2974.68 1595.96 2974.68"/><polygon class="cls-37" points="2289.89 2974.68 1787.46 2974.68 1798.07 2371.17 1941.3 2342.22 1971.91 2336.04 2105.59 2336.04 2136.2 2342.24 2279.28 2371.17 2289.89 2974.68"/><path class="cls-8" d="M2105.59,2250.27v54.44c-18,13.95-38.88,22.44-60.49,22.44h-14.94c-20.72,0-40.75-7.8-58.25-20.75v-56.13Z"/><path class="cls-37" d="M1792.65,2658.37s-49.78,1.52-87.69-6.42-79.78-57.07-79.78-57.07,129.68-207.13,140.18-212.58,32.71-11.13,32.71-11.13Z"/><path class="cls-37" d="M2284.67,2658.37s49.78,1.52,87.69-6.42,79.78-57.07,79.78-57.07S2322.46,2387.75,2312,2382.3s-32.71-11.13-32.71-11.13Z"/><polygon class="cls-38" points="2118.11 2342.38 2038.09 2417 1959.4 2342.38 1959.4 2190.09 2118.11 2190.09 2118.11 2342.38"/><path class="cls-39" d="M2118.11,2212.52v77.25c-21.39,19.8-46.16,31.85-71.82,31.85h-17.74c-24.59,0-48.37-11.06-69.15-29.44v-79.66Z"/><ellipse class="cls-38" cx="1897.77" cy="2084.11" rx="28.1" ry="60.73" transform="translate(-136.8 133.32) rotate(-3.88)"/><ellipse class="cls-38" cx="2178.61" cy="2084.11" rx="60.73" ry="28.1" transform="translate(-48.27 4116.57) rotate(-86.12)"/><path class="cls-38" d="M2044,2290c16.88,0,67.27-.16,110.65-114.39a147.66,147.66,0,0,0,9.36-47.17l4.3-123.16c0-68.6-36.82-133.16-99-133.16h-63.37c-62.14,0-99,64.56-99,133.16l4.28,122.49a149.67,149.67,0,0,0,10.46,50C1968,2293.8,2027.16,2290,2044,2290Z"/><path d="M2000.59,1991.61a116.28,116.28,0,0,0-60.73,16.64,2.94,2.94,0,0,0-1.15,3.85,2.52,2.52,0,0,0,3.13,1.16,105,105,0,0,1,57.39-4.68,8.54,8.54,0,0,0,3-16.8A8.68,8.68,0,0,0,2000.59,1991.61Z"/><path d="M2075.24,1991.61a116.25,116.25,0,0,1,60.73,16.64,2.93,2.93,0,0,1,1.15,3.85,2.52,2.52,0,0,1-3.13,1.16,105,105,0,0,0-57.39-4.68,8.54,8.54,0,0,1-3-16.8A8.76,8.76,0,0,1,2075.24,1991.61Z"/><path class="cls-12" d="M2094.68,2180.6a56.1,56.1,0,0,1-16.92,33.1,57.36,57.36,0,0,1-79.61-.46,56.08,56.08,0,0,1-16.45-32.64,6.82,6.82,0,0,1,6.77-7.55h99.44a6.56,6.56,0,0,1,2.4.44A6.66,6.66,0,0,1,2094.68,2180.6Z"/><path class="cls-13" d="M2077.76,2213.7a57.36,57.36,0,0,1-79.61-.46c10.17-3.41,23.95-5.51,39.14-5.51C2053.16,2207.73,2067.49,2210,2077.76,2213.7Z"/><path class="cls-14" d="M2090.31,2173.49c-3.52,12.06-25.51,21.36-52.12,21.36s-48.6-9.3-52.12-21.36a6.64,6.64,0,0,1,2.4-.44h99.44A6.56,6.56,0,0,1,2090.31,2173.49Z"/><path class="cls-39" d="M2029.24,2144.17a46.15,46.15,0,0,0,4.58,1.39c1.54.37,3.07.73,4.61,1l.12,0,.58,0a14,14,0,0,0,9-4.63,18.92,18.92,0,0,0,4.7-9.79,19.84,19.84,0,0,0,.13-5.6l-.71-4.59-1.4-9c-1-6-2-12-3-17.92s-2.16-11.93-3.41-17.87a1.58,1.58,0,0,0-1.9-1.3,1.73,1.73,0,0,0-1.22,1.84c.46,6.07,1.07,12.12,1.7,18.16s1.35,12.07,2.07,18.09l1.15,9,.56,4.42a12.22,12.22,0,0,1-.11,3.47,11.65,11.65,0,0,1-3,6,12.73,12.73,0,0,1-5.5,3.4l.69,0c-1.56,0-3.12,0-4.69.1a44.61,44.61,0,0,0-4.73.49,1.77,1.77,0,0,0-.27,3.32Z"/><ellipse cx="1967.08" cy="1922.84" rx="95.09" ry="43.67" transform="translate(-773.23 2162.42) rotate(-49.34)"/><ellipse cx="2102.07" cy="1908.72" rx="50.85" ry="121.1" transform="translate(-736.57 1845.24) rotate(-40.96)"/><ellipse class="cls-14" cx="1979.05" cy="2045.82" rx="29.06" ry="25.44"/><ellipse class="cls-14" cx="2096.78" cy="2045.82" rx="29.06" ry="25.44"/><ellipse class="cls-40" cx="1981.05" cy="2046.73" rx="13.97" ry="15.42"/><ellipse cx="1981.05" cy="2046.73" rx="7.27" ry="8.02"/><ellipse class="cls-14" cx="1977.14" cy="2039.95" rx="5.59" ry="6.17"/><ellipse class="cls-40" cx="2094.78" cy="2046.73" rx="13.97" ry="15.42"/><ellipse cx="2094.78" cy="2046.73" rx="7.27" ry="8.02"/><ellipse class="cls-14" cx="2090.87" cy="2039.95" rx="5.59" ry="6.17"/><path class="cls-41" d="M2282.11,2663.6a2.89,2.89,0,0,1-2.86-2.87l-5.52-287.8a2.86,2.86,0,1,1,5.71-.09l5.52,287.8a2.88,2.88,0,0,1-2.81,3Z"/><path class="cls-41" d="M1792.25,2663.6a2.89,2.89,0,0,0,2.86-2.87l5.52-287.8a2.86,2.86,0,1,0-5.71-.09l-5.52,287.8a2.88,2.88,0,0,0,2.81,3Z"/><path class="cls-39" d="M2006.39,2035.93c-22-5.16-31.63-5.83-54.3,0,4.81-9.42,11.92-15.85,27.14-15.85S2000.59,2026.39,2006.39,2035.93Z"/><path class="cls-39" d="M2123.6,2035.93c-22-5.16-31.62-5.83-54.29,0,4.8-9.42,11.92-15.85,27.14-15.85S2117.81,2026.39,2123.6,2035.93Z"/><path class="cls-34" d="M1664.41,2309.63v13.49c-23.68-19.53-55.26-29.42-94-29.42s-70.27,9.86-94,29.36v-13.48c24.8-17.41,56.33-26.21,94-26.21S1639.64,2292.18,1664.41,2309.63Z"/><path d="M1665.85,2208.53a11.24,11.24,0,0,0,2.84,2.8c1,.78,2.09,1.46,3.13,2.14,2.11,1.33,4.18,2.57,6.28,3.76l12.31,7c8,4.59,15.8,9.22,23.18,14.11a325.39,325.39,0,0,1,41.19,32c1.57,1.46,3.16,2.93,4.71,4.41l2.32,2.24,1.15,1.13.67.63c1.71,1.76,3.57,3.25,5.37,4.77a75.76,75.76,0,0,0,12,7.71,93.19,93.19,0,0,0,14.38,5.93,149.3,149.3,0,0,0,16.94,4.19,322.35,322.35,0,0,0,39.64,4.6c14.21.88,29.2,1.21,44.79,1.4,7.79.07,15.75.16,23.85.13l24.79,0h25.89c8.91,0,17.91,0,27.8-.2a93.71,93.71,0,0,1-7.5,14,142,142,0,0,1-9,12.53,188.55,188.55,0,0,1-20.58,21.78,219.09,219.09,0,0,1-47.88,32.86,211.6,211.6,0,0,1-54.86,19.05,183.08,183.08,0,0,1-61.14,1.93,167.07,167.07,0,0,1-32.3-8c-2.71-1-5.41-2-8.11-3.16s-5.4-2.37-8.08-3.64a152.28,152.28,0,0,1-15.86-9,147.9,147.9,0,0,1-29-24.59c-2.14-2.45-4.32-4.86-6.31-7.45l-3-3.85-2.84-4-1.39-2-.87-1.56-1.69-3.14c-1.11-2.11-2.22-4.2-3.28-6.38a257.53,257.53,0,0,1-11.62-26.95,240.35,240.35,0,0,1-8.72-29.46c-.57-2.6-1.1-5.18-1.61-7.82s-1-5.27-1.31-8a167.14,167.14,0,0,1-1.64-16.64,123.07,123.07,0,0,1,.3-17.54,72.46,72.46,0,0,1,1.42-9.1,39.2,39.2,0,0,1,1.34-4.54,15.65,15.65,0,0,1,1-2.19A6.24,6.24,0,0,1,1665.85,2208.53Z"/><polygon class="cls-33" points="2068.26 3006.9 2022.87 2824.24 1972.05 2517.95 1815.29 2557.45 1889.92 2857.75 1914.89 3008.24 2068.26 3006.9"/><polygon class="cls-33" points="1069.73 3008.24 1115.45 2824.24 1166.28 2517.95 1323.03 2557.45 1248.4 2857.75 1223.43 3008.24 1069.73 3008.24"/><polygon class="cls-22" points="1867.88 3008.24 1272.75 3008.24 1285.32 2389.15 1454.98 2354.87 1491.24 2347.54 1649.58 2347.54 1685.84 2354.88 1855.32 2389.15 1867.88 3008.24"/><path class="cls-8" d="M1649.59,2246v64.48c-21.35,16.52-46.06,26.58-71.66,26.58h-17.7c-24.53,0-48.26-9.24-69-24.57V2246Z"/><polygon class="cls-34" points="1734.22 2364.69 1569.03 2556.83 1406.6 2364.67 1488.77 2348.07 1657.54 2349.17 1734.22 2364.69"/><path class="cls-9" d="M1278.31,2760.35s-64.33,2-113.33-8.3-103.11-73.76-103.11-73.76,167.6-267.7,181.18-274.75,41.64-14.39,41.64-14.39Z"/><path class="cls-9" d="M1861.22,2759s64.33,2,113.33-8.3S2077.66,2677,2077.66,2677s-167.6-267.7-181.18-274.75-42.27-14.39-42.27-14.39Z"/><polygon class="cls-9" points="1869.1 3006.9 1682.68 3006.9 1682.68 2352.21 1686.58 2353.54 1856.5 2387.82 1869.1 3006.9"/><polygon class="cls-9" points="1458.83 2352.26 1458.83 3006.9 1272.42 3006.9 1285.02 2387.82 1455.12 2353.53 1458.83 2352.26"/><path class="cls-42" d="M1278.38,2759.12h-.05a3,3,0,0,1-2.81-3.2l5.34-363.24a3,3,0,0,1,2.86-3.1h0a3,3,0,0,1,2.8,3.2L1281.23,2756A3,3,0,0,1,1278.38,2759.12Z"/><path class="cls-42" d="M1861.78,2757.78a3,3,0,0,1-2.85-3.1l-5.34-363.24a3,3,0,0,1,2.81-3.21,3,3,0,0,1,2.9,3.1l5.34,363.25a3,3,0,0,1-2.81,3.2Z"/><path class="cls-25" d="M1830.3,2603.23c0-9.42-6.93-17.06-15.46-17.06h-182c-8.54,0-15.46,7.64-15.46,17.06v118.68H1830.3Z"/><path class="cls-26" d="M1632.85,2749.7h182c8.53,0,15.46-7.63,15.46-17.06v-18.29H1617.39v18.29C1617.39,2742.07,1624.31,2749.7,1632.85,2749.7Z"/><path class="cls-27" d="M1725.81,2605.43h-3.93a13.78,13.78,0,0,1-13.78-13.79V2565h31.49v26.67A13.78,13.78,0,0,1,1725.81,2605.43Z"/><rect class="cls-28" x="1714.45" y="2571.69" width="18.79" height="3.29"/><rect class="cls-28" x="1714.45" y="2579.45" width="18.79" height="3.29"/><rect class="cls-28" x="1714.45" y="2587.21" width="18.79" height="3.29"/><path class="cls-29" d="M1702.85,2691h-61.54v-77.37h61.54Zm-58.38-3.49h55.21v-70.39h-55.21Z"/><path class="cls-15" d="M1677.73,2646.88a13.63,13.63,0,0,0,6.51-11.88c0-7.41-5.45-13.42-12.16-13.42s-12.16,6-12.16,13.42a13.63,13.63,0,0,0,6.51,11.88c-9.77,2.78-17,12.54-17,24.19,0,13.8,45.3,13.8,45.3,0C1694.73,2659.42,1687.5,2649.66,1677.73,2646.88Z"/><path class="cls-30" d="M1811.82,2632.6h-90.41c-3.15,0-5.71-2.82-5.71-6.3s2.56-6.3,5.71-6.3h90.41a6.33,6.33,0,0,1,0,12.6Z"/><path class="cls-30" d="M1792.11,2666.08h-70.7c-3.15,0-5.71-2.82-5.71-6.3s2.56-6.3,5.71-6.3h70.7c3.16,0,5.71,2.82,5.71,6.3S1795.27,2666.08,1792.11,2666.08Z"/><path class="cls-42" d="M1433.64,2778.45v86.46c0,37.29-27.48,67.63-61.26,67.63s-61.27-30.34-61.27-67.63v-86.46h122.53m8-8.82H1303.12V2806h0v58.9c0,42.23,31,76.45,69.26,76.45h0c38.25,0,69.25-34.22,69.25-76.45v-76.44h0v-18.84Z"/><ellipse class="cls-19" cx="1723.84" cy="2515.7" rx="38.76" ry="42.78"/><ellipse class="cls-43" cx="1723.84" cy="2515.7" rx="24.2" ry="26.71"/><path class="cls-19" d="M1412.11,2446.88c31.12-.81,56.57,10,75.62,32s31.64,55.36,37.37,98.92c3.79,28.83,4.54,61.5,2.25,97.09-1.35,20.86-27.16,31.45-30.1,32.59a5.47,5.47,0,0,1-7.13-3.78,6.35,6.35,0,0,1,3.42-7.86c5.65-2.21,22-11,22.66-21.83,2.24-34.71,1.51-66.48-2.17-94.44-5.38-41-17-72-34.39-92.18-16.79-19.44-39.42-28.93-67.27-28.21-26.66.69-48.17,11-63.93,30.76-38.11,47.68-36,139.08-31.36,189.32,1.59,17.18,23.08,20.27,23.3,20.3a6.07,6.07,0,0,1,4.88,6.85,5.73,5.73,0,0,1-6.19,5.4,48.46,48.46,0,0,1-15.12-5.07c-10.71-5.75-16.94-14.82-18-26.23-4.83-52.24-6.82-147.53,34.09-198.73C1358,2459.4,1382.2,2447.65,1412.11,2446.88Z"/><path class="cls-44" d="M1485.45,2685c8.5-7.64,31.74,23.85,23.23,31.5-5.69,5.11-13,6.42-19.11,4.11a17.29,17.29,0,0,1-7.9-6,20.14,20.14,0,0,1-3.75-9.75A23.41,23.41,0,0,1,1485.45,2685Z"/><path class="cls-45" d="M1480.24,2704c4.28.62,10.85,9.52,10.55,14.28a1.37,1.37,0,0,1-1.88,1.27,17.3,17.3,0,0,1-6.64-5.5,19.92,19.92,0,0,1-3.53-8.28A1.44,1.44,0,0,1,1480.24,2704Z"/><path class="cls-44" d="M1355,2688.39c-8.83-7.2-30.7,25.46-21.88,32.66,5.9,4.81,13.25,5.74,19.27,3.12a17.63,17.63,0,0,0,7.64-6.43,20.42,20.42,0,0,0,3.33-9.93A23.2,23.2,0,0,0,1355,2688.39Z"/><path class="cls-45" d="M1361,2707.08c-4.25.85-10.43,10.08-9.93,14.81a1.36,1.36,0,0,0,1.93,1.18,17.78,17.78,0,0,0,6.4-5.84,20.24,20.24,0,0,0,3.18-8.46A1.43,1.43,0,0,0,1361,2707.08Z"/><path class="cls-43" d="M1727.67,2486.1a4.89,4.89,0,0,1-1.33,3A6,6,0,0,1,1722,2491h-.33a6.14,6.14,0,0,1-3.41-1.25,5,5,0,0,1-2-4.2c0-.15.08-4.5-.14-11.75-1-29.83-7.31-108.68-45.51-145.17-2-1.91-4.07-3.74-6.19-5.48-23.68-19.53-55.26-29.42-94-29.42s-70.27,9.86-94,29.36c-2.17,1.76-4.26,3.62-6.29,5.56-43,41-44.1,106-43.88,118.72,0,1.36.06,2.13.07,2.21a5.38,5.38,0,0,1-5.4,5.42,5.52,5.52,0,0,1-6-4.88c0-.33-.08-1.45-.12-3.24-.29-15.51,1.27-81.68,47-125.29a122.84,122.84,0,0,1,14.62-12c24.8-17.41,56.33-26.21,94-26.21s69.22,8.81,94,26.26a123.49,123.49,0,0,1,14.53,11.93c41,39.2,47.69,120,48.63,151.55C1727.8,2480.72,1727.7,2485.47,1727.67,2486.1Z"/><polygon class="cls-34" points="1664.41 2355.04 1569.63 2488.25 1476.42 2355.04 1476.42 2174.66 1664.41 2174.66 1664.41 2355.04"/><path class="cls-10" d="M1664.41,2201.23v91.51c-25.34,23.45-54.67,37.73-85.07,37.73h-21c-29.13,0-57.3-13.12-81.91-34.88v-94.36Z"/><ellipse cx="1567.3" cy="2015.55" rx="189.02" ry="247.19"/><ellipse class="cls-34" cx="1408.77" cy="2083.01" rx="31.85" ry="68.83" transform="translate(-137.85 100.2) rotate(-3.88)"/><ellipse class="cls-34" cx="1727.1" cy="2083.01" rx="68.83" ry="31.85" transform="translate(-468.1 3665.06) rotate(-86.12)"/><path class="cls-34" d="M1574.49,2316.32c19.13,0,76.25-.18,125.41-129.66a167,167,0,0,0,10.61-53.46l4.88-139.6c0-77.75-41.74-150.93-112.18-150.93h-71.82c-70.44,0-112.18,73.18-112.18,150.93l4.85,138.84a169.05,169.05,0,0,0,11.86,56.68C1488.39,2320.68,1555.43,2316.32,1574.49,2316.32Z"/><ellipse class="cls-14" cx="1500.9" cy="2040.64" rx="32.94" ry="26.39"/><ellipse class="cls-46" cx="1503.17" cy="2040.64" rx="15.84" ry="17.48"/><ellipse cx="1503.17" cy="2040.64" rx="8.24" ry="9.09"/><ellipse class="cls-14" cx="1498.74" cy="2032.95" rx="6.33" ry="6.99"/><path d="M1525.32,1978.16a131.9,131.9,0,0,0-68.84,18.86,3.34,3.34,0,0,0-1.3,4.37,2.85,2.85,0,0,0,3.55,1.32,118.94,118.94,0,0,1,65-5.31,9.67,9.67,0,0,0,3.43-19A10.29,10.29,0,0,0,1525.32,1978.16Z"/><ellipse class="cls-14" cx="1634.35" cy="2040.64" rx="32.94" ry="26.39"/><ellipse class="cls-46" cx="1632.08" cy="2040.64" rx="15.84" ry="17.48"/><ellipse cx="1632.08" cy="2040.64" rx="8.24" ry="9.09"/><ellipse class="cls-14" cx="1627.64" cy="2032.95" rx="6.33" ry="6.99"/><path d="M1609.93,1978.16a131.9,131.9,0,0,1,68.84,18.86,3.34,3.34,0,0,1,1.3,4.37,2.85,2.85,0,0,1-3.55,1.32,118.94,118.94,0,0,0-65-5.31,9.67,9.67,0,0,1-3.43-19A10.2,10.2,0,0,1,1609.93,1978.16Z"/><path class="cls-12" d="M1632,2192.38a63.68,63.68,0,0,1-19.18,37.52,65,65,0,0,1-90.24-.53,63.5,63.5,0,0,1-18.64-37,7.55,7.55,0,0,1,4.95-8.07,7.67,7.67,0,0,1,2.72-.49h112.71a7.71,7.71,0,0,1,7.68,8.56Z"/><path class="cls-13" d="M1612.79,2229.9a65,65,0,0,1-90.24-.53c11.52-3.86,27.14-6.24,44.37-6.24C1584.9,2223.13,1601.15,2225.72,1612.79,2229.9Z"/><path class="cls-14" d="M1627,2184.31c-4,13.68-28.92,24.22-59.07,24.22s-55.09-10.54-59.08-24.22a7.67,7.67,0,0,1,2.72-.49h112.71A7.63,7.63,0,0,1,1627,2184.31Z"/><path class="cls-10" d="M1557.79,2151.08a50.54,50.54,0,0,0,5.19,1.58c1.74.42,3.48.83,5.23,1.14l.13,0,.66-.05a15.83,15.83,0,0,0,10.24-5.25,21.46,21.46,0,0,0,5.34-11.09,22.91,22.91,0,0,0,.14-6.35l-.8-5.21-1.59-10.18c-1.11-6.78-2.23-13.56-3.44-20.32s-2.45-13.52-3.86-20.25a1.8,1.8,0,0,0-2.15-1.48,2,2,0,0,0-1.38,2.09c.51,6.89,1.21,13.74,1.93,20.58s1.52,13.68,2.34,20.51l1.3,10.24.63,5a13.67,13.67,0,0,1-.12,3.94,13.18,13.18,0,0,1-3.36,6.83,14.36,14.36,0,0,1-6.23,3.85l.79,0c-1.77,0-3.55,0-5.33.12a46.85,46.85,0,0,0-5.36.56,2,2,0,0,0-.3,3.75Z"/><ellipse cx="1487.33" cy="1900.22" rx="107.78" ry="49.5" transform="translate(-923.26 1790.58) rotate(-49.34)"/><ellipse cx="1640.34" cy="1884.21" rx="57.63" ry="137.27" transform="translate(-833.54 1536.57) rotate(-40.96)"/><path class="cls-10" d="M1532.88,2032.4c-25.71-5.91-37-6.68-63.5,0,5.62-10.78,13.94-18.15,31.74-18.15S1526.1,2021.47,1532.88,2032.4Z"/><path class="cls-10" d="M1666.1,2032.4c-25.72-5.91-37-6.68-63.5,0,5.62-10.78,13.94-18.15,31.74-18.15S1659.32,2021.47,1666.1,2032.4Z"/></g></svg>