<?xml version="1.0" encoding="utf-8"?>
<!-- Generator: Adobe Illustrator 24.0.3, SVG Export Plug-In . SVG Version: 6.00 Build 0)  -->
<svg version="1.1" id="Laag_1" xmlns="http://www.w3.org/2000/svg" xmlns:xlink="http://www.w3.org/1999/xlink" x="0px" y="0px"
	 viewBox="0 0 1959.3 282.6" style="enable-background:new 0 0 1959.3 282.6;" xml:space="preserve">
<style type="text/css">
	.st0{clip-path:url(#SVGID_2_);}
	.st1{fill:#FFB300;}
	.st2{fill:#FF491A;}
	.st3{fill:#FF9522;}
</style>
<g id="Laag_2_1_">
	<g id="Laag_1-2">
		<g>
			<defs>
				<rect id="SVGID_1_" y="-41.3" width="1959.3" height="323.6"/>
			</defs>
			<clipPath id="SVGID_2_">
				<use xlink:href="#SVGID_1_"  style="overflow:visible;"/>
			</clipPath>
			<g class="st0">
				<path class="st1" d="M1973.5,279.2H-18.3V86.3c0,0,336.2-85.5,995.7-85.5s996.1,85.5,996.1,85.5V279.2z"/>
				<path class="st2" d="M1975.8,152.2c-9.5-46.7-2005.2-43.2-1996.3-2.5c0.1,0.6,0-64.6,0-64.6S320.1,0.3,979.7,0.3
					s996,60.2,996,60.2V152.2z"/>
				<path class="st3" d="M-1,330.7c0.2-60.8,1960.9-57.5,1960.3-6.6c0,0.6,0-84.6,0-84.6c-1.6,0-372.9-32.5-961.7-30.6
					C338.1,211.1-1,238.9-1,238.9V330.7z"/>
			</g>
		</g>
	</g>
</g>
</svg>
