<?xml version="1.0" encoding="utf-8"?>
<!-- Generator: Adobe Illustrator 24.0.3, SVG Export Plug-In . SVG Version: 6.00 Build 0)  -->
<svg version="1.1" id="Laag_1" xmlns="http://www.w3.org/2000/svg" xmlns:xlink="http://www.w3.org/1999/xlink" x="0px" y="0px"
	 viewBox="0 0 1920 281" style="enable-background:new 0 0 1920 281;" xml:space="preserve">
<style type="text/css">
	.st0{clip-path:url(#SVGID_2_);}
	.st1{fill:#FF4E00;}
	.st2{fill:#FF0000;}
</style>
<title>consultatie_achtergrond</title>
<g id="Laag_2_1_">
	<g id="Laag_1-2">
		<g>
			<defs>
				<path id="SVGID_1_" d="M1920,281.5H0v-202c0,0,324.2-79,960-79s960,79,960,79V281.5z"/>
			</defs>
			<clipPath id="SVGID_2_">
				<use xlink:href="#SVGID_1_"  style="overflow:visible;"/>
			</clipPath>
			<g class="st0">
				<path class="st1" d="M1919.5,281H-0.5V79c0,0,324.2-79,960-79s960,79,960,79V281z"/>
				<path class="st2" d="M1739.7,258.3c0,0,85.6-26.7,94.2-46.2s-40-34-54.2-24.3S1696.9,241.3,1739.7,258.3z"/>
				<path class="st2" d="M1089.3,56.9c0,0,39.3-35.6,72.6-21.5s75.3,44.1,66.4,53.9s-39.8,16.6-73.3,6S1089.3,56.9,1089.3,56.9z"/>
				<path class="st2" d="M446.3,282.4c42.8,4.9,151.3,4.9,148.4-7.3S552,216.8,512,226.5s-74.2,12.2-74.2,24.3
					S446.3,282.4,446.3,282.4z"/>
				<path class="st2" d="M447.3,282.4c42.8,4.9,151.3,4.9,148.4-7.3S553,216.8,513,226.5s-74.2,12.2-74.2,24.3
					S447.3,282.4,447.3,282.4z"/>
				<path class="st2" d="M643.7,42.7c0,0,24.4,6.5,42.3-5.8s47.8-28.2,31.4-41.8s-58.3,9.5-64.2,18.2S643.7,42.7,643.7,42.7z"/>
				<path class="st2" d="M1385.4,197.4c0,0,23.8,8,42.7-3.2s50.1-25.3,34.8-39.8s-59,6-65.6,14.3S1385.4,197.4,1385.4,197.4z"/>
				<path class="st2" d="M802.4,189.5c0,0,45.7-14.6,42.8-21.9s-31.4-21.9-42.8-19.4S802.4,189.5,802.4,189.5z"/>
				<path class="st2" d="M110.1,164c0,0,77.6,1.9,83.4-20s-29.1-47.1-38.9-41.5S110.1,164,110.1,164z"/>
			</g>
		</g>
	</g>
</g>
</svg>
