<svg id="Laag_1" data-name="Laag 1" xmlns="http://www.w3.org/2000/svg" viewBox="0 0 198.07 300.88"><defs><style>.cls-1{fill:#868686;}.cls-2{fill:#3d3c3c;}.cls-3{fill:#e3d7c6;}.cls-4{fill:#e40424;}.cls-5{fill:#aaa194;}.cls-6{fill:#1f71b7;}.cls-7{fill:#1a284e;}.cls-8{fill:#01b3c9;}.cls-9{fill:#97e2ce;}.cls-10{fill:#fff;}.cls-11{fill:#c1b7ab;}.cls-12{fill:#680614;}</style></defs><title>raket</title><polygon class="cls-1" points="61.38 258.48 70.64 283.3 82.94 283.3 78.3 258.48 61.38 258.48"/><polygon class="cls-1" points="81.27 258.48 85.9 283.3 98.32 283.3 98.32 258.48 81.27 258.48"/><path class="cls-1" d="M47.69,258.48c3.12,8.79,6.79,17.11,10.4,24.82H67.5l-9.27-24.82Z"/><polygon class="cls-1" points="101.21 258.48 101.21 283.3 113.63 283.3 118.27 258.48 101.21 258.48"/><path class="cls-1" d="M141.3,258.48,132,283.3h10.15a200.67,200.67,0,0,0,9.42-24.82Z"/><polygon class="cls-1" points="121.23 258.48 116.59 283.3 128.89 283.3 138.16 258.48 121.23 258.48"/><polygon class="cls-2" points="58.23 258.48 67.5 283.3 70.64 283.3 61.38 258.48 58.23 258.48"/><polygon class="cls-2" points="78.3 258.48 82.94 283.3 85.9 283.3 81.27 258.48 78.3 258.48"/><rect class="cls-2" x="98.32" y="258.48" width="2.9" height="24.82"/><polygon class="cls-2" points="118.27 258.48 113.63 283.3 116.59 283.3 121.23 258.48 118.27 258.48"/><polygon class="cls-2" points="138.16 258.48 128.89 283.3 132.03 283.3 141.3 258.48 138.16 258.48"/><path class="cls-3" d="M182.25,173.06C182.25,77.48,118,0,99,0S15.72,77.48,15.72,173.06c0,34.84,13.24,67.29,25.94,94.42H159.54C171.24,241.74,182.25,207.9,182.25,173.06Z"/><path class="cls-4" d="M141.87,41.21A307.63,307.63,0,0,0,99,38.3a307.41,307.41,0,0,0-42.88,2.91C72.92,15.51,90.48,0,99,0S125.05,15.51,141.87,41.21Z"/><path class="cls-5" d="M182.39,159.36a667.9,667.9,0,0,0-166.8,0c-2.41.3-4.58-1.85-4.85-4.82s1.47-5.65,3.9-6a675.37,675.37,0,0,1,168.69,0c2.44.31,4.19,3,3.91,6S184.79,159.66,182.39,159.36Z"/><circle class="cls-6" cx="98.98" cy="88.57" r="35.26"/><circle class="cls-7" cx="98.98" cy="91.1" r="29.17"/><path class="cls-8" d="M128.81,88.57a29.82,29.82,0,1,1-5.07-16.64A29.83,29.83,0,0,1,128.81,88.57Z"/><path class="cls-9" d="M128.81,88.57a29.84,29.84,0,0,1-46.46,24.76,29.83,29.83,0,0,1,41.39-41.4A29.72,29.72,0,0,1,128.81,88.57Z"/><circle class="cls-10" cx="90.76" cy="80.34" r="9.72"/><circle class="cls-10" cx="100.48" cy="66.87" r="2.84"/><path class="cls-11" d="M118.74,259.73H79.35l-4.5-47.26a14.47,14.47,0,0,1,14.55-15.7h19.28a14.46,14.46,0,0,1,14.55,15.7Z"/><path class="cls-12" d="M6.56,300.88H1.47c-7.67-62.58,17.1-95.18,17.1-95.18a10,10,0,0,1,5.21-1.41c6.35,15.64,18.1,57,19.85,62.73C24.06,270.9,6.56,300.88,6.56,300.88Z"/><path class="cls-4" d="M11.54,300.88h-7c-5.45-62.46,19.21-96.59,19.21-96.59S39.56,223.41,48,263.87a3.28,3.28,0,0,1-2,3.84C27.48,273.57,11.54,300.88,11.54,300.88Z"/><path class="cls-12" d="M191.51,300.88h5.09c7.67-62.58-17.1-95.18-17.1-95.18a10,10,0,0,0-5.21-1.41c-6.35,15.64-18.1,57-19.85,62.73C174,270.9,191.51,300.88,191.51,300.88Z"/><path class="cls-4" d="M186.53,300.88h7c5.45-62.46-19.21-96.59-19.21-96.59s-15.78,19.12-24.19,59.58a3.28,3.28,0,0,0,2,3.84C170.59,273.57,186.53,300.88,186.53,300.88Z"/></svg>