<svg id="Laag_1" data-name="Laag 1" xmlns="http://www.w3.org/2000/svg" viewBox="0 0 238.79 228.94"><defs><style>.cls-1{fill:#f7df52;}.cls-2{fill:#f9f9a0;}.cls-3{fill:#f9afaf;stroke:#ffd2d2;}.cls-3,.cls-4,.cls-5{stroke-miterlimit:10;stroke-width:3px;}.cls-4{fill:#db2626;stroke:#f74b4b;}.cls-5{fill:#63b5e4;stroke:#a4d8ea;}</style></defs><title>concultatie svg</title><circle class="cls-1" cx="114.47" cy="114.47" r="114.47"/><circle class="cls-2" cx="116.01" cy="119.19" r="101.58"/><path class="cls-3" d="M109,49.26l13.92,7.1a1.6,1.6,0,0,1,.79,2.11h0a5.46,5.46,0,0,1-3.65,2.76,6.14,6.14,0,0,0-4.14,3.07c-1.78,3.49.57,8.24,5.25,10.63s9.92,1.5,11.69-2a6.07,6.07,0,0,0,.13-5,6.43,6.43,0,0,1,.23-5.18h0a1.13,1.13,0,0,1,1.53-.42l14.18,7.35-7.82,15.35a1.2,1.2,0,0,0,.47,1.64h0a7.07,7.07,0,0,0,5.65.31,6.73,6.73,0,0,1,5.41.19c3.83,2,4.85,7.59,2.3,12.59s-7.72,7.48-11.54,5.53a6.8,6.8,0,0,1-3.4-4.49,6,6,0,0,0-3.06-4h0a1.73,1.73,0,0,0-2.29.83l-7.59,14.88-13.75-7.12a1.62,1.62,0,0,1-.76-2.17h0a5.89,5.89,0,0,1,3.74-3,6.51,6.51,0,0,0,4.25-3.27c1.86-3.65-.42-8.55-5.1-10.94s-10-1.36-11.84,2.3a6.48,6.48,0,0,0-.23,5.15A6.86,6.86,0,0,1,103,99h0a1.14,1.14,0,0,1-1.55.46L87.14,92.14Z"/><path class="cls-4" d="M38.17,132.91l12.49-6.85L74.09,113.3l6.73,12.27a1,1,0,0,0,1.42.37h0a6.78,6.78,0,0,0,3.24-3.9,6.46,6.46,0,0,1,3-3.78c3.44-1.89,8-.17,10.19,3.83s1.19,8.77-2.24,10.66a6.51,6.51,0,0,1-5,.47,5.82,5.82,0,0,0-4.45.47h0a1.48,1.48,0,0,0-.63,2l6.53,11.9L80.48,154.3a1.4,1.4,0,0,1-2-.4h0a4.54,4.54,0,0,1-.11-4,5.12,5.12,0,0,0,0-4.46c-1.6-2.93-6.31-3.43-10.51-1.12s-6.3,6.54-4.7,9.46a5.08,5.08,0,0,0,3.54,2.41,5.3,5.3,0,0,1,3.66,2.58h0a1,1,0,0,1-.5,1.31L57,167.2Z"/><path class="cls-5" d="M152,189.26l-12.12-6.61a1.38,1.38,0,0,1-.67-1.83h0a4.54,4.54,0,0,1,3.21-2.23,5.17,5.17,0,0,0,3.67-2.47c1.58-2.92-.43-7.08-4.51-9.31s-8.67-1.66-10.26,1.26a5.08,5.08,0,0,0-.16,4.24,5.31,5.31,0,0,1-.25,4.42h0a1,1,0,0,1-1.34.3l-12.36-6.83,7-12.84a1.05,1.05,0,0,0-.4-1.43h0a6.41,6.41,0,0,0-4.95-.48,6,6,0,0,1-4.74-.37c-3.33-1.82-4.18-6.69-1.9-10.87s6.84-6.11,10.17-4.3a6.1,6.1,0,0,1,2.93,4,5.48,5.48,0,0,0,2.65,3.5h0a1.48,1.48,0,0,0,2-.63l6.79-12.45,12,6.62a1.44,1.44,0,0,1,.65,1.9h0a4.94,4.94,0,0,1-3.3,2.38,5.45,5.45,0,0,0-3.76,2.64c-1.67,3.06.29,7.34,4.36,9.57s8.74,1.54,10.41-1.52a5.46,5.46,0,0,0,.25-4.4,5.66,5.66,0,0,1,.34-4.6h0a1,1,0,0,1,1.36-.34l12.51,6.81Z"/></svg>