<svg xmlns="http://www.w3.org/2000/svg" xmlns:xlink="http://www.w3.org/1999/xlink" id="Laag_1" data-name="Laag 1" viewBox="0 0 359.3 299.51"><defs><style>.cls-1{fill:#7c7c7c}.cls-2{fill:#999}.cls-3,.cls-7{fill:#d0a68d}.cls-4{fill:#b5826a}.cls-5{fill:#c2947b}.cls-6{fill:#bea18d}.cls-7{opacity:.3}.cls-24,.cls-31,.cls-33,.cls-34,.cls-7{isolation:isolate}.cls-8{fill:#e6e6e6}.cls-9{fill:#231f20}.cls-10{fill:#f08932}.cls-11{fill:#d87021}.cls-12{fill:#841500}.cls-13{fill:#b82700}.cls-14{fill:#b03e00}.cls-15{fill:#7b2a00}.cls-16{fill:#fff}.cls-17{fill:#722100}.cls-18{fill:#994200}.cls-19{fill:#d47100}.cls-20{fill:none;stroke:#722100;stroke-linecap:round;stroke-miterlimit:10;stroke-width:2px}.cls-21{fill:#ccc}.cls-22{fill:#6ed0d2}.cls-23{fill:#303030}.cls-24,.cls-30{fill:#f1f1f1}.cls-24{opacity:.41}.cls-25{fill:gray}.cls-26{fill:#ffda5d}.cls-27{fill:#ff2c68}.cls-28{fill:#00c25f}.cls-29{fill:#2aabe2}.cls-31{fill:#e8e7c3;opacity:.58}.cls-32{fill:#ffff20}.cls-33{opacity:.9;fill:url(#Naamloos_verloop_4)}.cls-34{opacity:.8;fill:url(#Naamloos_verloop_5)}.cls-35{fill:#ed591b}</style><radialGradient id="Naamloos_verloop_4" cx="163.84" cy="275.63" r="13.82" gradientTransform="matrix(1, 0, 0, -1, 0, 426)" gradientUnits="userSpaceOnUse"><stop offset=".37" stop-color="#d2ea18"/><stop offset=".49" stop-color="#bbd214"/><stop offset=".71" stop-color="#95ab0e"/><stop offset=".89" stop-color="#7e930a"/><stop offset="1" stop-color="#758a09"/></radialGradient><radialGradient id="Naamloos_verloop_5" cx="149.14" cy="271.25" r="5.59" xlink:href="#Naamloos_verloop_4"/></defs><title>spelletjes</title><rect width="12.55" height="26" y="220.6" class="cls-1"/><rect width="12.55" height="26" x="346.75" y="220.6" class="cls-1"/><ellipse cx="179.65" cy="246.59" class="cls-1" rx="179.65" ry="52.92"/><ellipse cx="179.65" cy="220.6" class="cls-2" rx="179.65" ry="52.92"/><g id="Laag_2" data-name="Laag 2"><g id="Laag_3" data-name="Laag 3"><polygon points="276.16 59.55 130.61 59.55 88.19 97.25 130.61 139.67 130.61 188.68 276.16 59.7 276.16 59.55" class="cls-3"/><path d="M171.36,258.49a.37.37,0,0,1-.18,0,.44.44,0,0,1-.26-.41V209.22l-42.29-42.28a.45.45,0,0,1-.12-.33.43.43,0,0,1,.14-.32L171,128.58a.48.48,0,0,1,.3-.11H316.93a.45.45,0,0,1,.45.43h0v.19a.44.44,0,0,1-.15.32l-145.58,129A.4.4,0,0,1,171.36,258.49Zm-41.77-91.85,42.09,42.09a.43.43,0,0,1,.12.31v48L315.92,129.35H171.53Z" class="cls-4" transform="translate(-40.75 -69.36)"/><polygon points="276.16 59.55 130.61 59.55 88.19 97.25 130.61 139.67 130.61 188.68 276.16 59.7 276.16 59.55" class="cls-5"/><path d="M171.36,258.49a.37.37,0,0,1-.18,0,.44.44,0,0,1-.26-.41V209.22l-42.29-42.28a.45.45,0,0,1-.12-.33.43.43,0,0,1,.14-.32L171,128.58a.48.48,0,0,1,.3-.11H316.93a.45.45,0,0,1,.45.43h0v.19a.44.44,0,0,1-.15.32l-145.58,129A.4.4,0,0,1,171.36,258.49Zm-41.77-91.85,42.09,42.09a.43.43,0,0,1,.12.31v48L315.92,129.35H171.53Z" class="cls-4" transform="translate(-40.75 -69.36)"/><path d="M171.41,128.91V257.75a.54.54,0,0,1,0,.22v0L316.93,129.1v-.16Z" class="cls-6" transform="translate(-40.75 -69.36)"/><path d="M171.36,258.49a.37.37,0,0,1-.18,0,.44.44,0,0,1-.26-.41V258a.48.48,0,0,1,0-.2V128.91a.45.45,0,0,1,.45-.44H316.93a.45.45,0,0,1,.45.43h0v.19a.44.44,0,0,1-.15.32l-145.58,129A.4.4,0,0,1,171.36,258.49Zm.49-129.14V257L315.92,129.35Z" class="cls-4" transform="translate(-40.75 -69.36)"/><polygon points="130.61 188.68 130.61 205.1 196.03 205.1 233.75 242.81 276.16 205.1 276.16 59.7 130.61 188.68" class="cls-5"/><path d="M274.5,312.61a.47.47,0,0,1-.32-.12L236.6,274.91H171.36a.44.44,0,0,1-.44-.44h0V258a.44.44,0,0,1,.15-.33l145.55-129a.44.44,0,0,1,.62,0,.46.46,0,0,1,.11.3V274.46a.45.45,0,0,1-.15.34l-42.41,37.7A.44.44,0,0,1,274.5,312.61ZM171.8,274h65a.44.44,0,0,1,.31.13l37.42,37.41,41.93-37.29V130.05L171.8,258.24Z" class="cls-4" transform="translate(-40.75 -69.36)"/><polygon points="130.61 188.68 130.61 205.1 196.03 205.1 233.75 242.81 276.16 205.1 276.16 59.7 130.61 188.68" class="cls-7"/><polygon points="130.61 188.68 130.61 205.1 196.03 205.1 233.75 242.81 276.16 205.1 276.16 59.7 130.61 188.68" class="cls-7"/><polygon points="276.16 59.55 130.61 59.55 88.19 97.25 130.61 139.67 130.61 188.68 276.16 59.7 276.16 59.55" class="cls-3"/><path d="M171.36,258.49a.37.37,0,0,1-.18,0,.44.44,0,0,1-.26-.41V209.22l-42.29-42.28a.45.45,0,0,1-.12-.33.43.43,0,0,1,.14-.32L171,128.58a.48.48,0,0,1,.3-.11H316.93a.45.45,0,0,1,.45.43h0v.19a.44.44,0,0,1-.15.32l-145.58,129A.4.4,0,0,1,171.36,258.49Zm-41.77-91.85,42.09,42.09a.43.43,0,0,1,.12.31v48L315.92,129.35H171.53Z" class="cls-4" transform="translate(-40.75 -69.36)"/><polygon points="276.16 59.55 130.61 59.55 88.19 97.25 130.61 139.67 130.61 188.68 276.16 59.7 276.16 59.55" class="cls-5"/><path d="M171.36,258.49a.37.37,0,0,1-.18,0,.44.44,0,0,1-.26-.41V209.22l-42.29-42.28a.45.45,0,0,1-.12-.33.43.43,0,0,1,.14-.32L171,128.58a.48.48,0,0,1,.3-.11H316.93a.45.45,0,0,1,.45.43h0v.19a.44.44,0,0,1-.15.32l-145.58,129A.4.4,0,0,1,171.36,258.49Zm-41.77-91.85,42.09,42.09a.43.43,0,0,1,.12.31v48L315.92,129.35H171.53Z" class="cls-4" transform="translate(-40.75 -69.36)"/><path d="M171.41,128.91V257.75a.54.54,0,0,1,0,.22v0L316.93,129.1v-.16Z" class="cls-6" transform="translate(-40.75 -69.36)"/><path d="M171.36,258.49a.37.37,0,0,1-.18,0,.44.44,0,0,1-.26-.41V258a.48.48,0,0,1,0-.2V128.91a.45.45,0,0,1,.45-.44H316.93a.45.45,0,0,1,.45.43h0v.19a.44.44,0,0,1-.15.32l-145.58,129A.4.4,0,0,1,171.36,258.49Zm.49-129.14V257L315.92,129.35Z" class="cls-4" transform="translate(-40.75 -69.36)"/><polygon points="130.61 188.68 130.61 205.1 196.03 205.1 233.75 242.81 276.16 205.1 276.16 59.7 130.61 188.68" class="cls-5"/><path d="M274.5,312.61a.47.47,0,0,1-.32-.12L236.6,274.91H171.36a.44.44,0,0,1-.44-.44h0V258a.44.44,0,0,1,.15-.33l145.55-129a.44.44,0,0,1,.62,0,.46.46,0,0,1,.11.3V274.46a.45.45,0,0,1-.15.34l-42.41,37.7A.44.44,0,0,1,274.5,312.61ZM171.8,274h65a.44.44,0,0,1,.31.13l37.42,37.41,41.93-37.29V130.05L171.8,258.24Z" class="cls-4" transform="translate(-40.75 -69.36)"/><polygon points="130.61 188.68 130.61 205.1 196.03 205.1 233.75 242.81 276.16 205.1 276.16 59.7 130.61 188.68" class="cls-7"/><polygon points="130.61 188.68 130.61 205.1 196.03 205.1 233.75 242.81 276.16 205.1 276.16 59.7 130.61 188.68" class="cls-7"/><rect width="145.55" height="145.55" x="88.19" y="97.25" class="cls-3"/><path d="M274.5,312.61H128.94a.43.43,0,0,1-.43-.43h0V166.62a.44.44,0,0,1,.43-.44H274.5a.44.44,0,0,1,.44.44V312.17a.44.44,0,0,1-.44.44Zm-145.11-.87H274.05V167.06H129.39Z" class="cls-4" transform="translate(-40.75 -69.36)"/><polygon points="88.19 97.25 52.05 120.75 120.36 62.9 130.61 59.55 88.19 97.25" class="cls-3"/><path d="M92.8,190.55a.47.47,0,0,1-.36-.18.46.46,0,0,1,.07-.6l68.32-57.85a.53.53,0,0,1,.15-.08l10.24-3.32a.47.47,0,0,1,.53.2.46.46,0,0,1-.1.58L129.24,167,93.06,190.5A.47.47,0,0,1,92.8,190.55Zm68.53-57.9L98.43,186l30.27-19.68L169.48,130Z" class="cls-4" transform="translate(-40.75 -69.36)"/><polygon points="88.19 97.25 57.28 135.46 209.75 135.46 233.75 97.25 88.19 97.25" class="cls-3"/><path d="M250.51,205.27H98a.43.43,0,0,1-.44-.45.47.47,0,0,1,.09-.28l30.92-38.2a.44.44,0,0,1,.34-.16H274.5a.43.43,0,0,1,.38.23.41.41,0,0,1,0,.45l-24,38.2A.44.44,0,0,1,250.51,205.27ZM99,204.38h151.3l23.44-37.33H129.16Z" class="cls-4" transform="translate(-40.75 -69.36)"/><polygon points="263.85 124.11 233.75 97.25 276.16 59.7 303.73 83.81 263.85 124.11" class="cls-3"/><path d="M304.6,193.92a.48.48,0,0,1-.3-.11L274.2,167a.45.45,0,0,1-.15-.33.42.42,0,0,1,.16-.33l42.41-37.56a.47.47,0,0,1,.57,0l27.57,24.13a.43.43,0,0,1,.16.31.44.44,0,0,1-.14.33l-39.87,40.3A.43.43,0,0,1,304.6,193.92Zm-29.43-27.3,29.41,26.23,39.25-39.63-26.9-23.55Z" class="cls-4" transform="translate(-40.75 -69.36)"/><rect width="145.55" height="145.55" x="88.19" y="97.25" class="cls-7"/><path d="M299.13,159.46l-19-7.6L271,162.53l3.91,5.78a35.31,35.31,0,0,0,4.9.83,34.53,34.53,0,0,0,19-3.6A47.53,47.53,0,0,0,299.13,159.46Z" transform="translate(-40.75 -69.36)"/><path d="M300.7,106.23a34.47,34.47,0,0,0-14.25-4.6c-.81-.08-1.62-.12-2.43-.14,1.48,2.21,2.7,4.44,2.7,4.44C291,106.54,300.52,106.23,300.7,106.23Z" transform="translate(-40.75 -69.36)"/><path d="M304.1,131.59,309,148.18l6.46-1.55a33.6,33.6,0,0,0,.32-21.59l-4.22-3.22S305.64,130.07,304.1,131.59Z" transform="translate(-40.75 -69.36)"/><path d="M266,106a34.28,34.28,0,0,0-6.69,5l5-.31Z" transform="translate(-40.75 -69.36)"/><path d="M274.88,168.31l-3.9-5.78,9.19-10.67,19,7.6a47.53,47.53,0,0,1-.31,6.08,34.12,34.12,0,0,0,16.68-18.91l-6.45,1.55-4.94-16.59c1.53-1.52,7.5-9.76,7.5-9.76l4.21,3.22a34.09,34.09,0,0,0-15.12-18.82c-.18,0-9.69.31-14-.32,0,0-1.21-2.22-2.7-4.44A34.46,34.46,0,0,0,266,106l-1.72,4.66-5,.31A33.6,33.6,0,0,0,249,139.41l6.52,1L258,153.14l-2.75,2A34.3,34.3,0,0,0,274.88,168.31Z" class="cls-8" transform="translate(-40.75 -69.36)"/><path d="M255.56,140.37l-6.52-1a33.61,33.61,0,0,0,6.2,15.76l2.75-2Z" transform="translate(-40.75 -69.36)"/><path d="M293.11,128.13s-13.05,12.55-16.38,14.68c0,0-11.78-7.47-16.08-9.82,0,0,1.29-11.39,5.69-18.6a97.07,97.07,0,0,1,17.18-2.87A98.7,98.7,0,0,1,293.11,128.13Z" transform="translate(-40.75 -69.36)"/><path d="M279.78,169.19l-.61-.07c-.41-.05-1-.09-1.79-.24a33.87,33.87,0,0,1-6.63-1.73,35.28,35.28,0,0,1-9.28-5.14,34.13,34.13,0,0,1-9-10.4,34.91,34.91,0,0,1-3-7.3,32.85,32.85,0,0,1-1.15-8.36,33.47,33.47,0,0,1,4.65-17.4,35.42,35.42,0,0,1,33.51-17.23,38.38,38.38,0,0,1,5,.78,37.48,37.48,0,0,1,4.86,1.52,34.44,34.44,0,0,1,19.88,20.88,33.47,33.47,0,0,1,1.72,9.19c0,.77.06,1.52,0,2.3,0,.38,0,.76,0,1.15l-.09,1.15,0,.57-.07.54c0,.36-.09.72-.13,1.09-.14.73-.24,1.46-.41,2.17a32.82,32.82,0,0,1-2.82,8,33.85,33.85,0,0,1-15.21,15,35.66,35.66,0,0,1-10.12,3.26,34.06,34.06,0,0,1-6.84.45c-.8,0-1.4-.08-1.8-.11Zm0-.11.62,0c.4,0,1,.09,1.8.09a32.92,32.92,0,0,0,6.79-.53,29.18,29.18,0,0,0,4.7-1.2,33.87,33.87,0,0,0,5.23-2.3,34.17,34.17,0,0,0,17.2-22.84c.15-.69.26-1.38.38-2.08,0-.37.09-.72.13-1.09l.07-.54,0-.53c0-.36.05-.72.07-1.08s0-.73,0-1.09c0-.73,0-1.47,0-2.21a31.64,31.64,0,0,0-.53-4.44c-.12-.74-.32-1.48-.48-2.22a16.21,16.21,0,0,0-.65-2.2,33.52,33.52,0,0,0-10.69-15.44,34.35,34.35,0,0,0-18-7.54,39.72,39.72,0,0,0-5-.16,34.86,34.86,0,0,0-5,.58,34.27,34.27,0,0,0-9.36,3.27,33.31,33.31,0,0,0-13.59,13.26c-.39.66-.71,1.37-1.06,2a16.25,16.25,0,0,0-.89,2.11,32.42,32.42,0,0,0-1.34,4.3c-.15.73-.33,1.45-.43,2.17-.06.36-.13.72-.18,1.08l-.12,1.1c-.1.71-.11,1.44-.18,2.15a15.14,15.14,0,0,0,0,2.13,34.32,34.32,0,0,0,12.51,25.71,33.38,33.38,0,0,0,4.69,3.23,30.79,30.79,0,0,0,4.38,2.08,32.81,32.81,0,0,0,6.54,1.79c.77.15,1.38.2,1.78.26Z" transform="translate(-40.75 -69.36)"/><path d="M255.56,140.37a8.94,8.94,0,0,1,.52-1.33c.17-.38.4-.82.65-1.28.14-.23.26-.47.41-.7l.46-.71c.31-.47.64-.92,1-1.34s.67-.78,1-1.09.51-.47.78-.69a3.89,3.89,0,0,1,.31-.24l-.17.36c-.12.22-.3.51-.5.89s-.45.78-.72,1.23-.58.91-.87,1.38-.64.91-1,1.34-.61.8-.89,1.15A13.3,13.3,0,0,1,255.56,140.37Z" class="cls-9" transform="translate(-40.75 -69.36)"/><path d="M280.17,151.86a12.39,12.39,0,0,1-.82-1.3c-.23-.4-.47-.87-.72-1.38-.12-.27-.25-.53-.37-.8s-.22-.58-.34-.85c-.22-.58-.42-1.15-.57-1.68a7.27,7.27,0,0,1-.22-.8c-.06-.26-.11-.5-.16-.73-.1-.5-.18-1-.23-1.51a14.69,14.69,0,0,1,.73,1.35c.21.41.4.89.64,1.41s.47,1.07.69,1.64.4,1.14.58,1.67.33,1,.46,1.48A11.45,11.45,0,0,1,280.17,151.86Z" class="cls-9" transform="translate(-40.75 -69.36)"/><path d="M271,162.53a25.11,25.11,0,0,1-2.32-1c-.35-.16-.71-.35-1.09-.57s-.8-.42-1.2-.67-.84-.48-1.26-.75-.84-.57-1.26-.83-.82-.58-1.23-.89-.77-.62-1.15-.91-.7-.61-1-.91a11.83,11.83,0,0,1-.87-.86c-.27-.3-.49-.55-.69-.79a5.91,5.91,0,0,1-.49-.63c-.26-.36-.4-.57-.4-.57l.53.45c.17.15.37.32.61.51s.5.42.8.65l1,.73,1.08.79c.77.54,1.58,1.15,2.4,1.68.41.29.82.58,1.23.85s.81.57,1.2.81c.78.53,1.51,1,2.12,1.45C270.16,161.92,271,162.53,271,162.53Z" class="cls-9" transform="translate(-40.75 -69.36)"/><path d="M266.71,114.28a3.67,3.67,0,0,1-.61-.42,5.78,5.78,0,0,1-1-1.15,5.41,5.41,0,0,1-.68-1.36,2.92,2.92,0,0,1-.16-.71,3,3,0,0,1,.57.42,5.94,5.94,0,0,1,1.71,2.53A3.31,3.31,0,0,1,266.71,114.28Z" class="cls-9" transform="translate(-40.75 -69.36)"/><path d="M286.72,105.9a5.78,5.78,0,0,1-.27,1,13,13,0,0,1-2.21,3.88,6.47,6.47,0,0,1-.73.75,5.78,5.78,0,0,1,.27-1,12.52,12.52,0,0,1,.93-2,12.25,12.25,0,0,1,1.28-1.83A5.82,5.82,0,0,1,286.72,105.9Z" class="cls-9" transform="translate(-40.75 -69.36)"/><path d="M304.1,131.59l-.5-.1-1.27-.32c-.52-.14-1.15-.3-1.77-.51-.32-.1-.67-.19-1-.3l-1-.32-1-.33c-.34-.11-.66-.24-1-.33s-.63-.21-.92-.31l-.82-.3c-1-.33-1.72-.64-1.72-.64a15.91,15.91,0,0,1,1.83.14,5.81,5.81,0,0,1,.87.14l1,.2c.67.14,1.35.36,2.05.57.35.11.69.24,1,.36s.66.25,1,.38c.62.26,1.2.51,1.69.77A13.82,13.82,0,0,1,304.1,131.59Z" class="cls-9" transform="translate(-40.75 -69.36)"/><path d="M300.7,106.23l.17.13c.11.08.29.22.49.39s.47.38.74.64l.93.86c.36.32.68.68,1,1.07s.76.78,1.15,1.23.75.9,1.15,1.38c.18.24.38.48.58.72l.53.75c.34.52.69,1,1,1.53s.62,1,.91,1.52.58,1,.81,1.47c.12.23.25.45.36.68l.29.66c.72,1.72,1.14,2.87,1.14,2.87s-.69-1-1.6-2.61c-.11-.2-.23-.4-.36-.62l-.41-.64c-.3-.43-.58-.89-.91-1.37s-.66-1-1-1.48l-1-1.48-.51-.76h0c-.37-.47-1.26-1.67-1.61-2.12s-.68-.88-1-1.3-.62-.81-.92-1.15-.57-.67-.79-1-.43-.54-.61-.74Z" class="cls-9" transform="translate(-40.75 -69.36)"/><path d="M309,148.18a19.93,19.93,0,0,1-1.1,2.1c-.37.61-.81,1.31-1.32,2s-1.11,1.48-1.73,2.22c-.3.36-.62.71-.93,1.06s-.66.67-1,1-.65.57-1,.87a10.34,10.34,0,0,1-.9.73c-.28.22-.57.4-.8.57a6.31,6.31,0,0,1-.65.4c-.36.21-.58.31-.58.31s.17-.17.48-.45c.14-.15.33-.32.53-.52l.67-.69.77-.83c.27-.29.58-.61.85-.93s.58-.68.89-1l.9-1.06c.3-.37.61-.71.89-1.07l.87-1.05c.58-.68,1.09-1.31,1.54-1.85C308.4,148.89,309,148.18,309,148.18Z" class="cls-9" transform="translate(-40.75 -69.36)"/><path d="M270.11,69.45a.71.71,0,0,1,.79.07l-.81-.08Z" transform="translate(-40.75 -69.36)"/><path d="M252.43,126.28l-.46.22a24.77,24.77,0,0,0-2.46,1.4,29.3,29.3,0,0,0-2.37,1.78,35.91,35.91,0,0,0-3,2.87c-.48.51-.94,1-1.4,1.57l-.58.71c-.49.6-1,1.22-1.45,1.86-.64.88-1.27,1.8-1.87,2.73s-1.18,1.88-1.73,2.87c-.27.48-.53,1-.77,1.43-.13.24-.24.47-.35.69l-.16.34-.07.15v0h0a9.46,9.46,0,0,1-17.07-8.09,10.88,10.88,0,0,1,.52-1.09l.08-.13,0-.07.1-.15.18-.27.34-.49c.21-.33.44-.64.66-.95.44-.61.89-1.2,1.33-1.78.91-1.15,1.84-2.3,2.81-3.4s2-2.17,3-3.22,2.12-2.07,3.24-3a53.49,53.49,0,0,1,7.35-5.44,44.37,44.37,0,0,1,4.2-2.23,37.28,37.28,0,0,1,4.59-1.73,7.25,7.25,0,0,1,5.38,13.41Z" class="cls-10" transform="translate(-40.75 -69.36)"/><path d="M234.66,145.75v.73a9.46,9.46,0,0,1-16-9.61,10.49,10.49,0,0,1,16,8.88Z" class="cls-11" transform="translate(-40.75 -69.36)"/><path d="M302.87,149a9.45,9.45,0,0,1-11.78-2.16,8.24,8.24,0,0,1-1-1.52h0l0-.07-.07-.15-.16-.32c-.11-.23-.22-.47-.35-.7-.24-.48-.5-1-.77-1.43-.54-1-1.12-1.91-1.73-2.84s-1.22-1.85-1.87-2.74-1.23-1.6-1.87-2.36l-.17-.2c-.57-.69-1.19-1.36-1.81-2h0a31.91,31.91,0,0,0-2.62-2.45,27.28,27.28,0,0,0-2.38-1.78,23.8,23.8,0,0,0-2.45-1.4l-.46-.23a7.26,7.26,0,0,1,5.38-13.43,38,38,0,0,1,4.6,1.72,43.16,43.16,0,0,1,4.19,2.23,52.68,52.68,0,0,1,7.35,5.44q1.69,1.47,3.25,3c1,1,2,2.12,3,3.22s1.9,2.23,2.8,3.39c.46.58.9,1.15,1.35,1.79.21.31.44.62.66.94l.34.5.17.27.1.14.05.08.07.13a8.39,8.39,0,0,1,.52,1.09A9.47,9.47,0,0,1,302.87,149Z" class="cls-10" transform="translate(-40.75 -69.36)"/><path d="M291,146.11a5.86,5.86,0,0,0,0,.73,9.47,9.47,0,0,0,16-9.62A10.49,10.49,0,0,0,291,146.11Z" class="cls-11" transform="translate(-40.75 -69.36)"/><path d="M283,134.49c-.58-.7-1.2-1.37-1.81-2l.28,2.2-37.67.14.29-2.26c-.48.5-.94,1-1.4,1.56l-.58.71.9-7a19.83,19.83,0,0,1,9.53-14.5,7.07,7.07,0,0,1,2,1.55l.28-.15.17-.07.17-.08.2-.09.1,0,.09,0,.4-.16.48-.18.23-.09.48-.16.21-.06h.19l.35-.1.23-.06.2,0h.11l.51-.11.22,0h.29l.26,0,.2,0h.18l.37,0,.34,0h3.54a.7.7,0,0,1,.29,0h.62l.21,0,.41.07.41.08.41.09.32.08.19,0h.08l.12,0h.08l.24.06.09,0,.16.05h0l.85.3h0l.23.08.26.11.09,0h.08l.25.11.34.15.47.22.12.06.15.08.15.08h0l.08,0a7.19,7.19,0,0,1,2-1.5,21.38,21.38,0,0,1,2.48,1.86,19.79,19.79,0,0,1,6.56,12.34l.88,6.81Z" class="cls-11" transform="translate(-40.75 -69.36)"/><path d="M265.19,169.18h-5.08A18.23,18.23,0,0,1,242,148.62l1.78-13.78.29-2.27.47-3.65c.06-.51.15-1,.25-1.49l.05-.23v-.07a1.63,1.63,0,0,1,.07-.3c.07-.25.13-.5.21-.74a.61.61,0,0,1,0-.18l.08-.23c.13-.41.27-.82.43-1.22l.16-.38h0c0-.12.1-.24.15-.36h0c0-.12.12-.25.17-.37l.22-.43.15-.29.23-.4.18-.32c.06-.11.12-.19.18-.29s.18-.29.28-.43l.2-.3.24-.33c.23-.33.48-.65.74-1l.2-.24.37-.41.2-.21.25-.26.17-.16a7.34,7.34,0,0,1,.64-.61l.18-.16.45-.38.18-.15.44-.34.45-.32.18-.13.07,0,.2-.13.47-.3.23-.15.49-.27.19-.1.54-.29.29-.14.17-.07.16-.08.21-.09.1,0,.08,0,.4-.16.49-.19.22-.08.48-.16.21-.06h.21l.36-.1.22-.06.2,0h.12l.51-.11.21,0h.3l.26,0,.2,0h.18l.37,0,.33,0h3.57a.7.7,0,0,1,.29,0h.62l.21,0,.41.07.41.08.41.09.32.08.19,0h.08l.12,0h.08l.24.07.09,0,.16.05h0l.85.3h0l.23.08.26.11.09,0h.08l.25.1.34.15.47.23.12.06.15.08.15.08h0l.08,0h0l.43.23.38.23.16.1.3.19.09.06.35.23.54.39.34.26h0l.29.24.15.12.34.28a20.06,20.06,0,0,1,1.72,1.73c.26.3.52.61.77.93a18.21,18.21,0,0,1,3.7,8.72l.46,3.58.28,2.2,1.79,13.93A18.25,18.25,0,0,1,267.5,169,17.69,17.69,0,0,1,265.19,169.18Z" class="cls-10" transform="translate(-40.75 -69.36)"/><path d="M249.48,165.46l-2.21,1.1-.29.14-.3.13-.84.37-1,.46-.24.12-.26.13-.51.27c-1.39.71-2.84,1.51-4.3,2.37s-2.94,1.72-4.4,2.67l-2.2,1.41-1.08.71-1,.69a11.14,11.14,0,1,1-13-18.07,10.47,10.47,0,0,1,1.89-1.1l.52-.23c.53-.24.95-.41,1.41-.61l1.36-.58c.9-.38,1.81-.74,2.72-1.09,1.82-.71,3.66-1.4,5.54-2.06s3.8-1.3,5.85-1.89l.77-.22.39-.11.41-.11,1.65-.4c.56-.14,1.21-.26,1.81-.38l.25-.05.27,0,.52-.09,1.06-.15a8.81,8.81,0,0,1,5.2,16.59Z" class="cls-10" transform="translate(-40.75 -69.36)"/><path d="M226.76,177.88a11.15,11.15,0,0,1-11-17.87c3.95-1.87,9.23.37,12,5.23C230.38,169.88,229.89,175.24,226.76,177.88Z" class="cls-11" transform="translate(-40.75 -69.36)"/><path d="M269.41,165.48l2.21,1.1.29.13.3.13c.28.14.57.26.84.38l1,.46.24.12.25.13.52.26c1.39.72,2.84,1.51,4.3,2.38s2.94,1.72,4.4,2.67c.74.47,1.47.93,2.19,1.41l1.08.71c.35.23.74.49,1,.69A11.14,11.14,0,1,0,301,158a10.83,10.83,0,0,0-1.89-1.1l-.52-.24c-.53-.23-.95-.4-1.41-.61l-1.36-.57c-.9-.38-1.81-.75-2.72-1.09-1.82-.71-3.66-1.4-5.54-2.06s-3.8-1.3-5.85-1.89l-.77-.22-.39-.1-.41-.11-1.65-.42-1.79-.37-.26,0-.26,0-.53-.08-1.05-.15a8.81,8.81,0,0,0-5.2,16.59Z" class="cls-10" transform="translate(-40.75 -69.36)"/><path d="M292.16,177.92a11.14,11.14,0,0,0,11-17.87c-3.95-1.88-9.23.37-12,5.23C288.51,169.88,289,175.25,292.16,177.92Z" class="cls-11" transform="translate(-40.75 -69.36)"/><path d="M265.19,169.18h-5.08A18.23,18.23,0,0,1,242,148.62l1.78-13.78.29-2.27.47-3.65c.06-.51.15-1,.25-1.49l.05-.23v-.07a1.63,1.63,0,0,1,.07-.3c.07-.25.13-.5.21-.74a.61.61,0,0,1,0-.18l.08-.23c.13-.41.27-.82.43-1.22l.16-.38h0c0-.12.1-.24.15-.36h0c0-.12.12-.25.17-.37l.22-.43.15-.29.23-.4.18-.32c.06-.11.12-.19.18-.29s.18-.29.28-.43l.2-.3.24-.33c.23-.33.48-.65.74-1l.2-.24.37-.41.2-.21.25-.26.17-.16a7.34,7.34,0,0,1,.64-.61l.18-.16.45-.38.18-.15.44-.34.45-.32.18-.13.07,0,.2-.13.47-.3.23-.15.49-.27.19-.1.54-.29.29-.14.17-.07.16-.08.21-.09.1,0,.08,0,.4-.16.49-.19.22-.08.48-.16.21-.06h.21l.36-.1.22-.06.2,0h.12l.51-.11.21,0h.3l.26,0,.2,0h.18l.37,0,.33,0h3.57a.7.7,0,0,1,.29,0h.62l.21,0,.41.07.41.08.41.09.32.08.19,0h.08l.12,0h.08l.24.07.09,0,.16.05h0l.85.3h0l.23.08.26.11.09,0h.08l.25.1.34.15.47.23.12.06.15.08.15.08h0l.08,0h0l.43.23.38.23.16.1.3.19.09.06.35.23.54.39.34.26h0l.29.24.15.12.34.28a20.06,20.06,0,0,1,1.72,1.73c.26.3.52.61.77.93a18.21,18.21,0,0,1,3.7,8.72l.46,3.58h0l.28,2.2,1.79,13.93A18.25,18.25,0,0,1,267.5,169,17.69,17.69,0,0,1,265.19,169.18Z" class="cls-10" transform="translate(-40.75 -69.36)"/><ellipse cx="283.44" cy="83.2" class="cls-10" rx="9.94" ry="7.79" transform="translate(21.89 210.08) rotate(-57.99)"/><ellipse cx="283.71" cy="83.57" class="cls-12" rx="5.88" ry="4.61" transform="translate(21.7 210.48) rotate(-57.99)"/><ellipse cx="283.24" cy="84.04" class="cls-13" rx="5.88" ry="4.61" transform="matrix(0.53, -0.85, 0.85, 0.53, 21.09, 210.3)"/><ellipse cx="244.02" cy="82.56" class="cls-10" rx="7.79" ry="9.94" transform="translate(-47.41 72.53) rotate(-32.01)"/><ellipse cx="243.7" cy="82.19" class="cls-12" rx="4.68" ry="5.69" transform="translate(-47.27 72.31) rotate(-32.01)"/><ellipse cx="244.14" cy="82.91" class="cls-13" rx="4.61" ry="5.88" transform="translate(-47.58 72.65) rotate(-32.01)"/><ellipse cx="222.31" cy="28.53" class="cls-10" rx="25.15" ry="21.31"/><ellipse cx="209.27" cy="23.76" class="cls-14" rx="2.6" ry="2.54"/><ellipse cx="209.27" cy="24.38" class="cls-15" rx="2.6" ry="2.54"/><ellipse cx="208.85" cy="23.4" class="cls-16" rx="1.02" ry="1.07"/><ellipse cx="235.25" cy="24.32" class="cls-14" rx="2.66" ry="2.6"/><ellipse cx="235.25" cy="24.95" class="cls-15" rx="2.66" ry="2.6"/><ellipse cx="234.83" cy="23.95" class="cls-16" rx="1.04" ry="1.1"/><ellipse cx="221.1" cy="31.06" class="cls-17" rx="5.83" ry="4.58"/><ellipse cx="220.5" cy="30.29" class="cls-18" rx="4.84" ry="3.57"/><ellipse cx="219.44" cy="28.69" class="cls-19" rx="2.47" ry="1.83"/><path d="M262.12,104.91s1.1,6.6-2.3,6-7-1.88-8-4.8" class="cls-20" transform="translate(-40.75 -69.36)"/><path d="M250.65,106.93a2.6,2.6,0,0,1,2.34-1.38" class="cls-20" transform="translate(-40.75 -69.36)"/><path d="M262.12,104.91s-.33,6.16,2.93,6.07,7.08-1.88,8-4.8" class="cls-20" transform="translate(-40.75 -69.36)"/><path d="M274.22,107a2.62,2.62,0,0,0-2.35-1.39" class="cls-20" transform="translate(-40.75 -69.36)"/><path d="M176,116.55l2.6,11.06a.57.57,0,0,1-.43.65l-3,.63a.57.57,0,0,1-.69-.41l-2.6-11.06a.58.58,0,0,1,.43-.66l3-.62A.58.58,0,0,1,176,116.55Z" class="cls-21" transform="translate(-40.75 -69.36)"/><path d="M182.69,145.14l2.59,11a.57.57,0,0,1-.43.65l-3,.63a.57.57,0,0,1-.69-.42l-2.59-11a.58.58,0,0,1,.43-.66l3-.63A.58.58,0,0,1,182.69,145.14Z" class="cls-21" transform="translate(-40.75 -69.36)"/><path d="M172.72,111.6,184.58,162a3.44,3.44,0,0,1-2.63,4.1l-.12,0-18.9,4a3.66,3.66,0,0,1-4.34-2.65L146.71,117a3.45,3.45,0,0,1,2.63-4.1l.13,0,18.89-4A3.7,3.7,0,0,1,172.72,111.6Z" class="cls-22" transform="translate(-40.75 -69.36)"/><polygon points="132.15 52.75 139.32 83.24 120.23 87.27 113.07 56.77 132.15 52.75" class="cls-23"/><polygon points="135.75 68.03 116.16 56.11 122.99 54.68 134.22 61.51 135.75 68.03" class="cls-24"/><polygon points="137.28 83.57 134.06 84.25 117.11 73.94 116.39 70.87 137.28 83.57" class="cls-24"/><polygon points="130.85 84.93 129.57 85.19 118.13 78.24 117.83 77 130.85 84.93" class="cls-24"/><path d="M153.93,134.74l.83,3.53a.14.14,0,0,1-.1.17h0l-.8.17a.13.13,0,0,1-.17-.09v0l-.84-3.53a.14.14,0,0,1,.11-.16h0l.8-.18a.13.13,0,0,1,.16.09S153.93,134.73,153.93,134.74Z" class="cls-25" transform="translate(-40.75 -69.36)"/><path d="M156.35,145l.83,3.54a.13.13,0,0,1-.09.16h0l-.79.17a.13.13,0,0,1-.17-.1h0l-.82-3.54a.13.13,0,0,1,.09-.16h0l.79-.18A.17.17,0,0,1,156.35,145Z" class="cls-25" transform="translate(-40.75 -69.36)"/><ellipse cx="151.9" cy="122.44" class="cls-25" rx="2.31" ry="2.43" transform="translate(-19.55 197.92) rotate(-86.81)"/><ellipse cx="172.31" cy="164.6" class="cls-26" rx="2.07" ry="2.17" transform="translate(-42.38 258.12) rotate(-86.81)"/><ellipse cx="170.71" cy="157.88" class="cls-27" rx="2.07" ry="2.17" transform="translate(-37.18 250.18) rotate(-86.81)"/><ellipse cx="175.03" cy="160.5" class="cls-28" rx="2.07" ry="2.17" transform="translate(-35.72 256.96) rotate(-86.81)"/><ellipse cx="167.99" cy="161.98" class="cls-29" rx="2.07" ry="2.17" transform="translate(-43.84 251.34) rotate(-86.81)"/><path d="M163.06,121.73l-1.64.34a.31.31,0,0,1-.38-.22l-2-8.26a.3.3,0,0,1,.23-.36h0l1.63-.34a.32.32,0,0,1,.38.22l1.95,8.27A.3.3,0,0,1,163.06,121.73Z" class="cls-23" transform="translate(-40.75 -69.36)"/><path d="M165.64,115.72l.37,1.56a.3.3,0,0,1-.22.36h0l-8.66,1.82a.32.32,0,0,1-.38-.21l-.36-1.57a.29.29,0,0,1,.22-.36l8.66-1.82a.3.3,0,0,1,.38.22Z" class="cls-23" transform="translate(-40.75 -69.36)"/><path d="M193.65,96.21l35.22,58.93h0l-21.75,13a4.5,4.5,0,0,1-6.18-1.55h0l-30.59-51.24a4.52,4.52,0,0,1,1.55-6.18h0l21.75-13Z" class="cls-21" transform="translate(-40.75 -69.36)"/><path d="M221.62,84.84l30.5,51a4.6,4.6,0,0,1-1.56,6.31h0l-21.67,12.95h0L193.65,96.21h0l21.68-12.95a4.6,4.6,0,0,1,6.31,1.56v0Z" class="cls-2" transform="translate(-40.75 -69.36)"/><path d="M218.54,136l2.91,4.87a.27.27,0,0,1-.09.37l-1.23.73a.27.27,0,0,1-.37-.08L216.84,137a.3.3,0,0,1,.08-.38l1.25-.73A.29.29,0,0,1,218.54,136Z" class="cls-30" transform="translate(-40.75 -69.36)"/><path d="M202.91,109.85l2.91,4.89a.27.27,0,0,1-.08.37l-1.24.74a.28.28,0,0,1-.37-.09l-2.91-4.87a.27.27,0,0,1,.08-.37l1.24-.73A.28.28,0,0,1,202.91,109.85Z" class="cls-30" transform="translate(-40.75 -69.36)"/><rect width="21.91" height="36.52" x="188.8" y="114.39" class="cls-23" transform="translate(-80.51 51.88) rotate(-30.86)"/><polygon points="168.45 57.76 143.28 51.4 150.01 47.38 164.43 51.02 168.45 57.76" class="cls-31"/><polygon points="175.75 74.55 172.6 76.44 150.82 70.95 148.93 67.78 175.75 74.55" class="cls-31"/><polygon points="169.44 78.32 168.18 79.08 153.46 75.37 152.7 74.11 169.44 78.32" class="cls-31"/><rect width="21.97" height="36.6" x="213.42" y="99.89" class="cls-23" transform="translate(-69.62 62.26) rotate(-30.81)"/><polygon points="192.83 43.2 167.64 36.85 174.38 32.83 188.8 36.47 192.83 43.2" class="cls-31"/><polygon points="200.11 60 196.95 61.88 175.18 56.39 173.3 53.22 200.11 60" class="cls-31"/><polygon points="193.8 63.77 192.54 64.53 177.83 60.82 177.07 59.56 193.8 63.77" class="cls-31"/><path d="M184.25,132.15l2.18,3.64a.17.17,0,0,1-.05.23h0l-.78.46a.17.17,0,0,1-.23,0h0l-2.17-3.65a.16.16,0,0,1,.05-.23h0l.78-.46a.16.16,0,0,1,.23,0Z" class="cls-25" transform="translate(-40.75 -69.36)"/><path d="M190.57,142.73l2.17,3.64a.16.16,0,0,1-.05.23h0l-.78.46a.17.17,0,0,1-.23,0l-2.18-3.65a.19.19,0,0,1,.07-.24h0l.77-.46a.17.17,0,0,1,.23,0Z" class="cls-25" transform="translate(-40.75 -69.36)"/><circle cx="136.84" cy="49.8" r="2.72" class="cls-25"/><path d="M207.52,97a3.35,3.35,0,1,1,4.59,1.15A3.35,3.35,0,0,1,207.52,97Zm4.67-2.78a2.09,2.09,0,1,0-.73,2.87A2.13,2.13,0,0,0,212.19,94.24Z" class="cls-30" transform="translate(-40.75 -69.36)"/><path d="M234.59,142.35a3.35,3.35,0,1,1,4.6,1.15h0A3.37,3.37,0,0,1,234.59,142.35Zm4.65-2.79a2.09,2.09,0,1,0-3.58,2.17h0a2.09,2.09,0,1,0,3.58-2.15Z" class="cls-30" transform="translate(-40.75 -69.36)"/><circle cx="173.94" cy="89.57" r="2.43" class="cls-26"/><circle cx="169.8" cy="82.65" r="2.43" class="cls-27"/><circle cx="175.33" cy="84.05" r="2.43" class="cls-28"/><circle cx="168.41" cy="88.17" r="2.43" class="cls-29"/><path d="M189.18,114.43l-1.6,1a.35.35,0,0,1-.47-.11v0l-5.1-8.53a.36.36,0,0,1,.13-.48h0l1.59-1a.35.35,0,0,1,.48.13l5.1,8.52A.37.37,0,0,1,189.18,114.43Z" class="cls-23" transform="translate(-40.75 -69.36)"/><path d="M189.74,106.79l1,1.63a.35.35,0,0,1-.13.47h0L182,114a.33.33,0,0,1-.46-.11v0l-1-1.59a.35.35,0,0,1,.11-.48h0l8.53-5.09A.4.4,0,0,1,189.74,106.79Z" class="cls-23" transform="translate(-40.75 -69.36)"/><path d="M169.15,159a11.48,11.48,0,0,0-13.57-8.92l-.3.06a1.21,1.21,0,0,1-1.62.57l-.06,0a11.49,11.49,0,1,0,15.79,10.67,6.61,6.61,0,0,0,0-.77C168.56,160.16,168.93,159.37,169.15,159Z" class="cls-32" transform="translate(-40.75 -69.36)"/><path d="M169.12,159a11.48,11.48,0,0,0-13.58-8.92l-.29.06a1.21,1.21,0,0,1-1.62.57l-.06,0a11.49,11.49,0,1,0,15.79,10.67v-.77C168.53,160.16,168.9,159.37,169.12,159Z" class="cls-32" transform="translate(-40.75 -69.36)"/><path d="M169.1,159c-2.95.26-4.28,2.19-5.56,4a15.33,15.33,0,0,1-2.44,3,7.34,7.34,0,0,1-5.94,1.61,6.63,6.63,0,0,1-4.67-2.68c-1.64-3.08-.89-6.22,2.3-9.59,2.4-2.53,2.7-4.25,2.61-5.14a1,1,0,0,1-.52.43l-.13.09a1,1,0,0,1-.74.09h0c-.09.65-.57,1.82-2.21,3.57-3.63,3.82-4.48,7.61-2.52,11.27v0a8.06,8.06,0,0,0,5.68,3.36,9.59,9.59,0,0,0,1.42.1,8.47,8.47,0,0,0,5.67-2.06,16.68,16.68,0,0,0,2.68-3.25c1.26-1.84,2.21-3.22,4.44-3.45A1.1,1.1,0,0,1,169.1,159Z" class="cls-33" transform="translate(-40.75 -69.36)"/><path d="M169.12,159.08c-3.14.16-4.5,2.15-5.81,4.06a15.68,15.68,0,0,1-2.45,3,7.34,7.34,0,0,1-5.94,1.61,6.68,6.68,0,0,1-4.66-2.68c-1.65-3.08-.89-6.22,2.3-9.59,2.41-2.53,2.7-4.25,2.61-5.14a1.15,1.15,0,0,1-1.41.41c0,.57-.41,1.83-2.24,3.75-3.63,3.83-4.48,7.62-2.52,11.26v0a8,8,0,0,0,5.68,3.36,9.6,9.6,0,0,0,1.42.11,8.52,8.52,0,0,0,5.67-2.06,16.74,16.74,0,0,0,2.68-3.26c1.32-1.91,2.3-3.34,4.74-3.45A1,1,0,0,1,169.12,159.08Z" class="cls-16" transform="translate(-40.75 -69.36)"/><path d="M153.43,150.92l-.16.09-.43.25c-.19.11-.4.26-.65.43s-.52.38-.81.61-.58.49-.9.78l-.23.23-.23.23c-.16.16-.3.33-.46.5-.3.36-.59.75-.86,1.14-.14.2-.26.41-.39.62s-.12.21-.18.31a2.59,2.59,0,0,0-.17.33,9.35,9.35,0,0,0-.58,1.34c0,.11-.08.23-.11.34s-.07.23-.1.34a2.46,2.46,0,0,0-.09.34c0,.11-.05.23-.08.34a2.1,2.1,0,0,0-.06.33l-.05.34c0,.11,0,.22,0,.33a1.63,1.63,0,0,1,0,.31c0,.21,0,.42,0,.62v1.58a4.07,4.07,0,0,0,.08.78c0,.2.05.38.07.5l0,.17,0-.17a2.83,2.83,0,0,0-.11-.49c0-.21-.08-.48-.13-.78l0-.23v-.25a2.8,2.8,0,0,0,0-.53v-1.54a1,1,0,0,1,0-.34c0-.11,0-.22,0-.34a2,2,0,0,0,.06-.34l.06-.35.09-.35L147,158l.12-.35a9.89,9.89,0,0,1,.57-1.39c0-.11.12-.22.18-.33s.12-.22.19-.33.26-.42.41-.62a9.9,9.9,0,0,1,.9-1.15,10.65,10.65,0,0,1,1-.94l.24-.21.25-.2.46-.35c.3-.22.57-.4.85-.58s.49-.28.68-.38l.46-.22Z" class="cls-16" transform="translate(-40.75 -69.36)"/><path d="M149.74,157.08l-.09.16c-.06.1-.13.26-.22.46a10.71,10.71,0,0,0-.62,1.72,9.06,9.06,0,0,0-.25,1.15,8.51,8.51,0,0,0-.1,1.33,7.51,7.51,0,0,0,.14,1.42,2.41,2.41,0,0,0,.07.35c0,.11.07.23.1.35s.08.22.11.34l.15.34.09.17a.8.8,0,0,0,.08.16l.18.31a.76.76,0,0,0,.1.16l.09.15.11.15,0,.07.06.07a5.09,5.09,0,0,0,.46.58l.24.25.26.23a1.44,1.44,0,0,0,.27.22l.26.21.28.18.13.1.14.08.27.15.27.14.27.12.26.11a7.91,7.91,0,0,0,1,.33l.41.1.36.07.29,0,.22,0h-.52a1.23,1.23,0,0,1-.37,0h-.21l-.22,0a7.09,7.09,0,0,1-1-.25l-.28-.1c-.09,0-.19-.07-.28-.12l-.29-.12-.29-.16-.15-.07-.15-.09-.29-.18-.29-.2-.28-.22-.28-.24a3.31,3.31,0,0,1-.26-.27,1.66,1.66,0,0,1-.26-.27l-.25-.3-.06-.07,0-.08-.11-.16-.11-.15-.11-.17c-.14-.23-.27-.47-.39-.71l-.15-.35h0v-.14l-.06-.18c0-.12-.06-.25-.1-.37s-.05-.25-.07-.38a7.43,7.43,0,0,1-.11-1.49,7.21,7.21,0,0,1,.16-1.38,10,10,0,0,1,.32-1.19,9.44,9.44,0,0,1,.77-1.68c.11-.19.21-.33.28-.43A.35.35,0,0,0,149.74,157.08Z" class="cls-16" transform="translate(-40.75 -69.36)"/><path d="M153.36,151.42a16.16,16.16,0,0,1-2.41,3.33,11.82,11.82,0,0,0-2.77,4.88c-.46,1.26-1.41-.9,0-3.45S153.76,150.42,153.36,151.42Z" class="cls-34" transform="translate(-40.75 -69.36)"/><circle cx="169.25" cy="104.19" r="43.13" class="cls-16"/><path d="M206.74,156.24c.66-1,1.33-1.92,2-2.88,1-1.44,2.08-2.82,3.14-4.16,8.07,3.72,16.08,4.5,23.37,5.2,5.4.53,10.38,1,14.6,2.67.08.19.15.39.23.58l.11.26.21.58c0,.09.07.19.11.28s.14.38.2.58a.74.74,0,0,0,.08.22c.13.38.25.76.37,1.15a2.25,2.25,0,0,1,.08.24c.06.19.11.36.17.58s.06.22.09.34.1.35.15.53.06.23.09.36l.14.54.07.27c.08.35.16.69.23,1l.09.39.09.51c0,.16.06.28.09.42s0,.33.08.5.05.31.08.46l.08.58c0,.24.07.49.1.74l0,.44a4.88,4.88,0,0,0,.06.52c0,.17,0,.29,0,.44s0,.35,0,.53l0,.43c0,.22,0,.45,0,.68s0,.3,0,.45v3a7.55,7.55,0,0,1,0,1V176l-.05.73V177c0,.23,0,.45-.06.66l0,.35c0,.26-.06.52-.1.77V179c0,.32-.09.65-.13,1a1.26,1.26,0,0,1,0,.28l-.12.72a2,2,0,0,1-.06.34c0,.23-.09.46-.14.7a1.77,1.77,0,0,1-.06.3c-.07.33-.14.66-.22,1s-.16.69-.26,1c0,.18-.08.35-.13.52l-.14.51c-.06.23-.13.45-.2.67l-.1.33c-.08.25-.17.52-.25.78a.62.62,0,0,1-.07.19c-.09.29-.2.58-.3.86l0,.1c-.11.3-.23.61-.35.92s0,0,0,0c-.25.63-.5,1.25-.78,1.87C240.54,175.53,223.71,163.85,206.74,156.24Z" class="cls-35" transform="translate(-40.75 -69.36)"/><path d="M176.79,170.84c6-4.26,13.06-6.81,20.52-3.8-5.6,10.45-9.95,22-11.37,33.39a61.4,61.4,0,0,0-.48,8.57l-.1-.07-.78-.57-.21-.16-.67-.5-.24-.19-.61-.48-.26-.22-.58-.48-.27-.23-.57-.49-.26-.24-.54-.5-.26-.24-.52-.52-.25-.24-.51-.54-.23-.24-.53-.57-.2-.23-.53-.58-.18-.21-.57-.66-.14-.17c-.2-.24-.4-.5-.58-.75l-.06-.08q-1.34-1.76-2.49-3.62h0c-.19-.31-.37-.62-.58-.92l-.06-.11c-.16-.28-.31-.58-.47-.83l-.09-.17c-.13-.26-.28-.52-.41-.79a1.14,1.14,0,0,1-.1-.19c-.13-.26-.27-.51-.39-.77l-.11-.22-.36-.76a1.47,1.47,0,0,0-.1-.22c-.11-.26-.23-.52-.33-.78a2.14,2.14,0,0,1-.1-.22c-.11-.27-.22-.53-.32-.8l-.09-.21-.31-.82-.07-.19c-.1-.29-.21-.57-.3-.87,0,0,0-.1-.06-.16l-.3-.93s0-.07,0-.09a42.66,42.66,0,0,1-1.45-6.5h0A55.61,55.61,0,0,1,176.79,170.84Z" class="cls-35" transform="translate(-40.75 -69.36)"/><path d="M232.29,210.47h0q-.43.27-.87.51h0l-.9.5h0l-.91.48h0l-.93.46h0a43.71,43.71,0,0,1-5.84,2.3c-.15-.63-.3-1.26-.45-1.91-3.9-16.59-9.37-39.94-21.62-46.89,1.48-2.64,3-5.2,4.66-7.65l.27.12c17.15,7.67,34.14,19.53,42.42,35.44-.67,1.26-1.4,2.48-2.19,3.67h0c-.2.3-.4.57-.57.88h0l-.62.85h0c-.22.28-.42.58-.64.83h0c-.21.27-.43.55-.65.81h0c-.22.28-.44.54-.67.8h0l-.69.77h0l-.69.75h0l-.71.73h0l-.73.71h0l-1,.86h0l-.76.67h0c-.26.22-.51.44-.78.65h0c-.26.22-.51.43-.78.63h0l-.8.61h0l-.82.58h0l-.83.57h0l-.85.58h0A8.81,8.81,0,0,1,232.29,210.47Z" class="cls-35" transform="translate(-40.75 -69.36)"/><path d="M198.94,215.25l-.68-.18-.33-.09-.72-.22-.24-.08-.9-.29-.36-.13-.55-.2c-.14,0-.28-.1-.42-.15l-.49-.19-.43-.17-.57-.25-.7-.29-.33-.16-.54-.25-.28-.13-.57-.27h0l-1.37-.71-.07,0-.63-.35-.15-.09-.62-.36a58.12,58.12,0,0,1,.42-9.87c1.39-11.08,5.65-22.4,11.15-32.63,11.31,6.42,16.63,29.14,20.42,45.29l.47,2h-.07l-1,.24-.39.09-.75.15-.44.08c-.24,0-.47.09-.71.12l-.45.08-.74.1-.42.06-.92.1-.24,0-1.15.1h-.34l-.83,0h-2.84l-.85,0h-.33c-.4,0-.8,0-1.19-.07h-.24l-1-.09-.41,0-.79-.1-.46-.06-.76-.12-.45-.08c-.27,0-.55-.09-.82-.15l-.39-.08-1.19-.25-1-.25Z" class="cls-35" transform="translate(-40.75 -69.36)"/><path d="M189.5,135.63l.09,0c.9-.49,1.82-.94,2.75-1.36h.08c.94-.43,1.9-.81,2.87-1.15h.05l1.49-.5h0c.38,5,3.35,10.62,12.81,15.61-1,1.23-1.92,2.51-2.87,3.83-.77,1.08-1.53,2.18-2.3,3.29a129.68,129.68,0,0,0-28.19-8.52h0c.32-.41.66-.81,1-1.21l.05,0c.67-.77,1.37-1.53,2.1-2.3l.07-.06c.72-.73,1.47-1.43,2.24-2.09l.09-.08c.76-.66,1.56-1.3,2.37-1.91l.1-.06c.8-.61,1.64-1.19,2.5-1.73l.09-.06A25,25,0,0,1,189.5,135.63Z" class="cls-35" transform="translate(-40.75 -69.36)"/><path d="M221.13,131.9l1,.27h.1l1.07.33h0l1.12.38h0a85.84,85.84,0,0,0-13.21,13.21c-9-4.59-11.6-9.76-11.85-14.36h0c1.19-.31,2.4-.56,3.63-.76h.15l1-.16h.19l1.09-.13h.12c.82-.08,1.65-.15,2.48-.18h.13a9.57,9.57,0,0,0,1.07,0H212c.81,0,1.63.11,2.44.19l.33,0,.88.11.42.06c.27,0,.54.08.8.12l.44.07.84.16.38.07c.4.09.81.17,1.21.27s.77.18,1.15.29Z" class="cls-35" transform="translate(-40.75 -69.36)"/><path d="M235.51,152c-6.89-.67-14.5-1.4-22-4.74A76.78,76.78,0,0,1,227,133.93l.57.24.39.17.52.25.39.18.52.26.38.19.51.27.38.2.51.28.35.21.52.3.33.19c.17.11.35.21.52.33l.28.17c.93.6,1.83,1.22,2.71,1.88l.19.14.58.43.21.17.54.43.22.19.52.44.21.18.53.47.16.15.58.51.08.09a43.47,43.47,0,0,1,3.7,4l0,.05.54.67.05.07.52.69v0a42.15,42.15,0,0,1,3.89,6.26A72.46,72.46,0,0,0,235.51,152Z" class="cls-35" transform="translate(-40.75 -69.36)"/><path d="M168.37,162.35c.06-.23.12-.45.19-.68s.08-.29.13-.44.11-.39.17-.58.11-.33.16-.49.11-.35.17-.52l.18-.52c.07-.17.11-.31.18-.47l.2-.54c.07-.17.11-.3.17-.44l.22-.58.17-.41.25-.58.17-.38c.08-.19.17-.39.26-.58l.17-.35.29-.58.16-.32.32-.61.16-.29c.11-.21.22-.41.34-.61l.15-.27.37-.63.13-.23c.14-.22.27-.44.41-.65l.11-.19.44-.67.09-.14.48-.71h0a126.08,126.08,0,0,1,28.45,8.42q-2.38,3.65-4.6,7.56c-8.5-3.59-16.49-.79-23.14,4a54.9,54.9,0,0,0-8.36,7.54c-.06-.76-.09-1.51-.1-2.26V174c0-.68,0-1.37,0-2.06v-.28l0-.57v-.4a2.51,2.51,0,0,1,0-.52,7.53,7.53,0,0,1,.08-.83,1.39,1.39,0,0,1,0-.41,4,4,0,0,0,.07-.57l.05-.4a4.1,4.1,0,0,1,.1-.69,1.17,1.17,0,0,1,0-.26c0-.32.1-.63.15-.94l.05-.29c0-.24.09-.48.15-.72a1.47,1.47,0,0,1,.05-.29c.07-.32.14-.65.22-1s.16-.7.25-1.05A1,1,0,0,0,168.37,162.35Z" class="cls-35" transform="translate(-40.75 -69.36)"/><rect width="145.55" height="145.55" x="88.1" y="97.29" class="cls-3"/><path d="M274.43,312.65H128.86a.44.44,0,0,1-.44-.44V166.66a.42.42,0,0,1,.43-.44H274.43a.44.44,0,0,1,.44.44V312.21A.44.44,0,0,1,274.43,312.65Zm-145.13-.91H274V167.1H129.3Z" class="cls-4" transform="translate(-40.75 -69.36)"/><polygon points="88.11 97.3 57.19 135.5 209.66 135.5 233.65 97.3 88.11 97.3" class="cls-3"/><path d="M250.42,205.3H97.94a.43.43,0,0,1-.4-.25.45.45,0,0,1,0-.47l30.95-38.2a.45.45,0,0,1,.35-.16H274.43a.44.44,0,0,1,.44.44.42.42,0,0,1-.07.24l-24,38.2A.43.43,0,0,1,250.42,205.3Zm-151.56-.88H250.17l23.43-37.34H129.07Z" class="cls-4" transform="translate(-40.75 -69.36)"/><polygon points="263.76 124.15 233.65 97.3 276.07 59.74 303.63 83.85 263.76 124.15" class="cls-3"/><path d="M304.51,194a.42.42,0,0,1-.3-.12L274.11,167a.4.4,0,0,1-.14-.32.44.44,0,0,1,.14-.34l42.42-37.55a.44.44,0,0,1,.57,0l27.57,24.13a.42.42,0,0,1,0,.6l0,0-39.84,40.27A.48.48,0,0,1,304.51,194Zm-29.44-27.3,29.42,26.24,39.25-39.68-26.92-23.55Z" class="cls-4" transform="translate(-40.75 -69.36)"/><rect width="145.55" height="145.55" x="88.1" y="97.29" class="cls-7"/></g></g></svg>