<svg id="Laag_1" data-name="Laag 1" xmlns="http://www.w3.org/2000/svg" viewBox="0 0 64.04 123.87"><defs><style>.cls-1{fill:#f8b134;}.cls-2{fill:#fff794;}.cls-3{fill:#fffdea;}</style></defs><title>vuurstraal</title><path class="cls-1" d="M0,54.9c0,38.09,32,69,32,69S64,93,64,54.9,49.7,0,32,0,0,16.81,0,54.9Z"/><path class="cls-2" d="M7.17,44.6C7.17,72.17,32,94.52,32,94.52S56.86,72.17,56.86,44.6,45.74,4.86,32,4.86,7.17,17,7.17,44.6Z"/><path class="cls-3" d="M18.93,34.51c0,17.68,13.09,32,13.09,32s13.08-14.34,13.08-32S39.25,9,32,9,18.93,16.82,18.93,34.51Z"/></svg>