<svg id="Laag_1" data-name="Laag 1" xmlns="http://www.w3.org/2000/svg" viewBox="0 0 229.09 229.77"><defs><style>.cls-1{fill:#f7df52;}.cls-2{fill:#f9f9a0;}.cls-3{fill:#7a7a7a;}.cls-4{fill:#63b5e4;}.cls-5{fill:#686868;}.cls-5,.cls-6{opacity:0.6;}.cls-15,.cls-18,.cls-6{fill:#d5d4d9;}.cls-7{fill:#474747;}.cls-8{fill:#5e5e5e;}.cls-9{fill:#b1b1b1;}.cls-10{fill:#0071bc;}.cls-11{fill:#d0d0d0;}.cls-12{opacity:0.2;}.cls-13{fill:#4fa648;}.cls-14{fill:#74b8d5;}.cls-16{fill:#b2e3f8;}.cls-17{fill:#a1a0a8;}.cls-18{opacity:0.3;}.cls-19{fill:#af290e;}.cls-20{fill:#868a95;}.cls-21{fill:#5c6cbf;}</style></defs><title>concultatie svg</title><circle class="cls-1" cx="114.62" cy="114.47" r="114.47"/><circle class="cls-2" cx="116.16" cy="119.19" r="101.58"/><path class="cls-3" d="M184.46,155.66h2.63a0,0,0,0,1,0,0v2.81a1,1,0,0,1-1,1h-.56a1.07,1.07,0,0,1-1.07-1.07v-2.75A0,0,0,0,1,184.46,155.66Z" transform="translate(104.23 387.11) rotate(-110.74)"/><path class="cls-4" d="M136,170.12l30.48-11.55a8.16,8.16,0,0,1,1.75-.44l14.29-2a.82.82,0,0,1,.91.47l1.25,3.21a.83.83,0,0,1-.37,1l-12,8a8,8,0,0,1-1.65.84l-30.43,11.53a1.8,1.8,0,0,1-2.4-.75l-3.09-8.15A1.78,1.78,0,0,1,136,170.12Z"/><rect class="cls-5" x="146.15" y="166.5" width="6.41" height="9.76" transform="translate(41.98 371.75) rotate(-110.74)"/><rect class="cls-6" x="155.3" y="163.14" width="6.41" height="9.76" transform="translate(57.53 375.75) rotate(-110.74)"/><path class="cls-7" d="M85.91,114.9a.87.87,0,0,0-.13-1.34l-1.64-1.14a.85.85,0,0,0-1.3.33l-1.16,2.34,2.43,1.7Z"/><rect class="cls-8" x="81.48" y="115.2" width="1.8" height="2.96" transform="translate(-60.45 117.4) rotate(-55.06)"/><path class="cls-9" d="M113.06,146.9l.69-1.37L82.93,130a6.18,6.18,0,0,1-3.08-6.48,17.49,17.49,0,0,1,2.66-5.65L81.24,117a19.5,19.5,0,0,0-2.89,6.18,7.73,7.73,0,0,0,3.89,8.22Z"/><path class="cls-7" d="M91.5,106.9a.85.85,0,0,1-1.3.33l-1.64-1.14a.86.86,0,0,1-.13-1.33l1.8-1.9,2.43,1.7Z"/><rect class="cls-8" x="91.06" y="101.49" width="1.8" height="2.96" transform="translate(-45.12 119.39) rotate(-55.06)"/><path class="cls-9" d="M130.89,121.37l-25.17-23.6A7.74,7.74,0,0,0,96.66,97a19.31,19.31,0,0,0-4.81,4.84l1.27.89a17.72,17.72,0,0,1,4.39-4.44,6.21,6.21,0,0,1,7.15.66l25.18,23.6Z"/><path class="cls-10" d="M136.81,146.19l5.56,3.89a16.85,16.85,0,0,0,23.44-4.16l.19-.28a16.84,16.84,0,0,0-4.16-23.43L121.06,93.73c-6.35-4.44-8.91-11.77-5.73-16.33s11-4.67,17.3-.24l11,7.7,1.59-2.28-11-7.7c-7.61-5.31-17.1-4.9-21.17.92s-1.19,14.89,6.42,20.2l40.78,28.49a14.06,14.06,0,0,1,3.47,19.56l-.19.28A14.07,14.07,0,0,1,144,147.8l-5.56-3.88Z"/><path class="cls-7" d="M143.85,91.44a6.67,6.67,0,1,0-1.64-9.29A6.68,6.68,0,0,0,143.85,91.44Z"/><rect class="cls-11" x="140.5" y="77.69" width="2.78" height="8.49" transform="translate(-6.53 151.33) rotate(-55.06)"/><rect class="cls-12" x="138.98" y="143.76" width="2.78" height="6.45" transform="translate(-60.51 177.89) rotate(-55.06)"/><polygon class="cls-10" points="141 149.93 143.35 146.56 138.65 142.02 135.11 147.08 141 149.93"/><path class="cls-9" d="M113.52,145.86,82.7,130.34a6.19,6.19,0,0,1-3.08-6.49,17.63,17.63,0,0,1,2.65-5.65l.24-.33a17.49,17.49,0,0,0-2.66,5.65A6.18,6.18,0,0,0,82.93,130l30.82,15.53Z"/><path class="cls-9" d="M105.48,98.11a7.74,7.74,0,0,0-9.06-.82,18.85,18.85,0,0,0-4.57,4.51h0A19.31,19.31,0,0,1,96.66,97a7.74,7.74,0,0,1,9.06.82l25.17,23.6-.27.3Z"/><path class="cls-12" d="M143.21,84.55l1.36,1,1.59-2.28-1.36-.94a4.66,4.66,0,0,0-1,1A4.78,4.78,0,0,0,143.21,84.55Z"/><path class="cls-10" d="M135.55,148.88l4.94-7.07A10.4,10.4,0,0,0,139.38,129l-8.18-8.23-2,2,8.18,8.23a7.51,7.51,0,0,1,.8,9.24l-4.94,7.07a7.52,7.52,0,0,1-9,2.43l-10.54-4.85-1.16,2.53,10.54,4.84A10.39,10.39,0,0,0,135.55,148.88Z"/><path class="cls-11" d="M145.32,89.35a4.12,4.12,0,1,0-1-5.74A4.12,4.12,0,0,0,145.32,89.35Z"/><path class="cls-13" d="M139.15,129.36,131,121.13l-1.68,1.67-.06,0,2-2,8.18,8.23a10.4,10.4,0,0,1,1.11,12.79l-.24.34A10.4,10.4,0,0,0,139.15,129.36Z"/><rect class="cls-14" x="46.91" y="124.99" width="1.96" height="14.02" transform="translate(-88.48 98.5) rotate(-56.26)"/><polygon class="cls-15" points="92.7 69.78 93.61 68.43 89.12 65.43 88.22 66.78 84.49 65.74 56.16 108.13 66.77 115.22 95.1 72.83 92.7 69.78"/><polygon class="cls-4" points="70.4 87.97 84.78 66.44 88.52 67.49 89.65 65.79 93.08 68.08 91.95 69.78 94.34 72.83 79.96 94.35 70.4 87.97"/><rect class="cls-16" x="39.44" y="109.16" width="40.47" height="10.41" transform="translate(-68.57 100.45) rotate(-56.25)"/><rect class="cls-14" x="59.94" y="100.61" width="1.96" height="23.76" transform="translate(-66.46 100.65) rotate(-56.25)"/><path class="cls-17" d="M95.36,59.79l9.73-14.56,2-1.76-.88,2.47L96.44,60.51C95.67,61.49,94.74,60.87,95.36,59.79Z"/><polygon class="cls-3" points="93.17 59.67 96.7 58.94 97.38 62.49 93.47 68.34 89.26 65.52 93.17 59.67"/><rect class="cls-7" x="73.19" y="86.03" width="2.56" height="12.38" transform="translate(-43.59 102.87) rotate(-56.23)"/><rect class="cls-7" x="70.35" y="90.29" width="2.56" height="12.38" transform="translate(-48.38 102.4) rotate(-56.23)"/><rect class="cls-3" x="71.77" y="89.28" width="2.55" height="10.13" transform="translate(-45.99 102.64) rotate(-56.23)"/><rect class="cls-3" x="91.07" y="63.46" width="0.6" height="6.95" transform="translate(-15.06 105.67) rotate(-56.23)"/><rect class="cls-18" x="55.98" y="95.04" width="24.68" height="12.76" transform="translate(-53.96 101.88) rotate(-56.25)"/><path class="cls-16" d="M185.16,89.27c-1.57-1-5-1.7-6.12-3.13s-.95-4-1.73-5-7.77-7.48-9.15-9-3.07-3.47-5.6-1.52-1.09,4.06,0,5.79,5.61,10.16,6.39,11.16,3.38,1.62,4.42,3,.89,4.93,1.46,6.71,16.61,21.57,18.16,23.59,5,1.28,7.61-.76,4.24-5.14,2.68-7.16S186.73,90.26,185.16,89.27Z"/><path class="cls-19" d="M200.13,110.06c1.25,1.69,2.16,2.92,2.49,3.34,1.24,1.62-.38,4.25-2.53,5.91s-5.11,2.55-6.35.93L191.15,117c-3.87-4.83-13.82-17.28-15.28-19.76l9.06-7C187,92.28,196.45,105.09,200.13,110.06Z"/><path class="cls-16" d="M61.05,172c-3.42-1.56-3.13-5.12.21-12.41s5.86-9.84,9.28-8.28c1.35.62,25.15,10.73,26.73,12.26.79.76,2,4.59,2.68,5.34a6.76,6.76,0,0,0,1.49,1.11l.9.49c1,.5,1.8.87,1.8.87l-6,13s-.84-.4-1.83-.79c-.32-.13-.64-.25-1-.36a7.3,7.3,0,0,0-1.81-.41c-1,0-4.71,1.56-5.79,1.45C85.6,184.07,62.41,172.64,61.05,172Z"/><path class="cls-4" d="M63.83,172.37l-2.41-1.17c-2.35-1.07-3-3.26.65-11.23s5.74-8.92,8.09-7.84c.24.11,1.12.5,2.46,1.07,15.1,6.53,23.19,10.24,24,11a10,10,0,0,1,1,1.89l-7.69,16.78a8.69,8.69,0,0,1-2.07.5C86.71,183.26,78.63,179.55,63.83,172.37Z"/><path class="cls-20" d="M95.81,184.78l7.08-15.45a1.26,1.26,0,0,1,1.67-.58l1.74.8-8.1,17.67-1.74-.8A1.24,1.24,0,0,1,95.81,184.78Z"/><path class="cls-21" d="M98.07,187.5l8.36-18.23a1.25,1.25,0,0,1,1.67-.59l2.39,1.1a1.25,1.25,0,0,1,.64,1.64l-8.36,18.23a1.24,1.24,0,0,1-1.66.59l-2.39-1.1A1.25,1.25,0,0,1,98.07,187.5Z"/><path class="cls-12" d="M95.39,183.23l6-13.2.9.49-6,13.07C96,183.46,95.72,183.34,95.39,183.23Z"/></svg>