<svg xmlns="http://www.w3.org/2000/svg" viewBox="0 0 677.08 535.05"><defs><style>.cls-1{isolation:isolate}.cls-2,.cls-3{fill:#d9d9d9}.cls-12,.cls-3,.cls-4{mix-blend-mode:multiply}.cls-4{fill:#b2b2b0}.cls-12,.cls-4{opacity:.5}.cls-5{fill:#97e2ce}.cls-6{fill:#628a83}.cls-7{fill:#dac1ad}.cls-8{fill:#868686}.cls-9{fill:#fff}.cls-10{fill:#f5f5f5}.cls-11{fill:none;stroke:#868686;stroke-linecap:round;stroke-miterlimit:10;stroke-width:20px}.cls-13{fill:#8c7460}.cls-14{fill:#338dc9}</style></defs><title>ziekenhuis_v2</title><g class="cls-1"><g id="Laag_1" data-name="Laag 1"><rect width="289.14" height="53.56" x="284.65" y="156.87" class="cls-2"/><rect width="616.32" height="310.68" x="30.91" y="205.45" class="cls-2"/><rect width="163.11" height="190.8" x="30.11" y="8.02" class="cls-2"/><rect width="163.11" height="24" x="30.11" y="174.82" class="cls-3"/><polygon points="193.22 30.55 30.11 37.23 30.11 8.02 193.22 8.02 193.22 30.55" class="cls-3"/><polygon points="647.23 403.39 30.91 412.27 30.91 382.64 647.23 382.64 647.23 403.39" class="cls-4"/><rect width="289.14" height="13.19" x="284.65" y="156.87" class="cls-3"/><rect width="122.7" height="89.83" x="88.55" y="426.3" class="cls-5"/><rect width="122.7" height="11.36" x="88.55" y="426.3" class="cls-6"/><rect width="642.45" height="125.67" x="17.31" y="201.08" class="cls-7"/><rect width="46.23" height="63.57" x="53.56" y="228.95" class="cls-5"/><rect width="46.23" height="11.87" x="53.56" y="228.95" class="cls-6"/><rect width="46.23" height="63.57" x="119.03" y="228.95" class="cls-5"/><rect width="46.23" height="11.87" x="119.03" y="228.95" class="cls-6"/><rect width="46.23" height="63.57" x="184.49" y="228.95" class="cls-5"/><rect width="46.23" height="11.87" x="184.49" y="228.95" class="cls-6"/><rect width="46.23" height="63.57" x="249.96" y="228.95" class="cls-5"/><rect width="46.23" height="11.87" x="249.96" y="228.95" class="cls-6"/><rect width="46.23" height="63.57" x="315.43" y="228.95" class="cls-5"/><rect width="46.23" height="11.87" x="315.43" y="228.95" class="cls-6"/><rect width="46.23" height="63.57" x="380.89" y="228.95" class="cls-5"/><rect width="46.23" height="11.87" x="380.89" y="228.95" class="cls-6"/><rect width="46.23" height="63.57" x="446.36" y="228.95" class="cls-5"/><rect width="46.23" height="11.87" x="446.36" y="228.95" class="cls-6"/><rect width="46.23" height="63.57" x="511.82" y="228.95" class="cls-5"/><rect width="46.23" height="11.87" x="511.82" y="228.95" class="cls-6"/><rect width="46.23" height="63.57" x="577.29" y="228.95" class="cls-5"/><rect width="46.23" height="11.87" x="577.29" y="228.95" class="cls-6"/><rect width="202.49" height="20.56" x="11.75" class="cls-8" rx="10.28"/><rect width="3.5" height="125.67" x="50.07" y="201.08" class="cls-9"/><rect width="3.5" height="125.67" x="99.79" y="201.08" class="cls-9"/><rect width="3.5" height="125.67" x="115.53" y="201.08" class="cls-9"/><rect width="3.5" height="125.67" x="165.26" y="201.08" class="cls-9"/><rect width="3.5" height="125.67" x="181" y="201.08" class="cls-9"/><rect width="3.5" height="125.67" x="230.72" y="201.08" class="cls-9"/><rect width="3.5" height="125.67" x="246.46" y="201.08" class="cls-9"/><rect width="3.5" height="125.67" x="296.19" y="201.08" class="cls-9"/><rect width="3.5" height="125.67" x="311.93" y="201.08" class="cls-9"/><rect width="3.5" height="125.67" x="361.65" y="201.08" class="cls-9"/><rect width="3.5" height="125.67" x="377.39" y="201.08" class="cls-9"/><rect width="3.5" height="125.67" x="427.12" y="201.08" class="cls-9"/><rect width="3.5" height="125.67" x="442.86" y="201.08" class="cls-9"/><rect width="3.5" height="125.67" x="492.59" y="201.08" class="cls-9"/><rect width="3.5" height="125.67" x="508.33" y="201.08" class="cls-9"/><rect width="3.5" height="125.67" x="558.05" y="201.08" class="cls-9"/><rect width="3.5" height="125.67" x="573.79" y="201.08" class="cls-9"/><rect width="3.5" height="125.67" x="623.52" y="201.08" class="cls-9"/><rect width="677.08" height="58.62" y="326.75" class="cls-2"/><rect width="31.63" height="156.9" x="56.92" y="378.15" class="cls-10"/><rect width="31.63" height="156.9" x="211.25" y="378.15" class="cls-10"/><rect width="31.63" height="156.9" x="573.79" y="378.15" class="cls-10"/><rect width="2.95" height="89.83" x="148.42" y="426.3" class="cls-9"/><rect width="318.92" height="63.3" x="247.79" y="426.3" class="cls-5"/><rect width="318.92" height="8.01" x="247.79" y="426.3" class="cls-6"/><rect width="26.57" height="63.3" x="612.97" y="426.3" class="cls-5"/><rect width="26.57" height="8.01" x="612.97" y="426.3" class="cls-6"/><rect width="2.95" height="63.3" x="311.4" y="426.3" class="cls-9"/><rect width="2.95" height="63.3" x="405.71" y="426.3" class="cls-9"/><rect width="2.95" height="63.3" x="500.02" y="426.3" class="cls-9"/><rect width="677.08" height="7.59" y="378.15" class="cls-10"/><rect width="2.65" height="51.4" x="63.39" y="326.75" class="cls-8"/><rect width="2.65" height="51.4" x="141.84" y="326.75" class="cls-8"/><rect width="2.65" height="51.4" x="220.3" y="326.75" class="cls-8"/><rect width="2.65" height="51.4" x="298.76" y="326.75" class="cls-8"/><rect width="2.65" height="51.4" x="377.21" y="326.75" class="cls-8"/><rect width="2.65" height="51.4" x="455.67" y="326.75" class="cls-8"/><rect width="2.65" height="51.4" x="534.12" y="326.75" class="cls-8"/><rect width="2.65" height="51.4" x="612.58" y="326.75" class="cls-8"/><rect width="2.65" height="184.04" x="110.34" y="10.28" class="cls-8"/><rect width="163.11" height="2.65" x="30.11" y="100.97" class="cls-8"/><line x1="266.64" x2="591.81" y1="156.87" y2="156.87" class="cls-11"/><circle cx="111.66" cy="103.42" r="39.5" class="cls-9"/><g class="cls-12"><polygon points="17.31 224.42 659.77 215.07 659.77 201.08 17.31 201.08 17.31 224.42" class="cls-13"/></g><rect width="676.02" height="20.56" x="1.06" y="184.89" class="cls-8" rx="10.28"/><g class="cls-12"><rect width="642.45" height="10.31" x="17.31" y="316.44" class="cls-13"/></g><path d="M83.59,79.78c-11.41,9.85,15.22,59.77,25.06,59.84s44.5-36.57,36.79-48S95,69.93,83.59,79.78Z" class="cls-14"/><path d="M110.2,101.34c0,4.2-1.51,8.54-4.27,11.23a11.74,11.74,0,0,1-8.4,3.36c-6.13,0-9.32-4.48-9.32-9.73a16.14,16.14,0,0,1,4.45-11.34,11.78,11.78,0,0,1,8.26-3.29C107.22,91.57,110.2,96,110.2,101.34ZM95.77,97c-2.06,2.07-3.22,5.92-3.22,9,0,3.57,1.58,6.51,5.57,6.51a6.48,6.48,0,0,0,4.59-2c2-2,3.15-6.06,3.15-9,0-3.12-1.09-6.48-5.43-6.48A6.52,6.52,0,0,0,95.77,97Z" class="cls-9"/><path d="M112.89,115.55l4.72-24.86h4.1L117,115.55Z" class="cls-9"/><path d="M128.29,98.5l1.08,8.47c.21,2,.39,3.33.49,4.45H130c.42-1.09.91-2.31,1.85-4.34l4.24-8.58h4.51l-9.48,17H127l-2.9-17Z" class="cls-9"/></g></g></svg>