<svg xmlns="http://www.w3.org/2000/svg" viewBox="0 0 192.29 192.29"><defs><style>.cls-1{fill:#fff;stroke:#580787;stroke-miterlimit:10;stroke-width:8px}.cls-2{fill:#e6efe1}.cls-3{fill:#ff4950}.cls-4{fill:#7494ee}.cls-5{fill:#996233}.cls-6{fill:#fba9f5}</style></defs><title>badgrief_1</title><g id="Laag_2" data-name="Laag 2"><g id="icoontjes"><circle cx="96.14" cy="96.14" r="92.14" class="cls-1"/><path d="M49.15,91.35a3.67,3.67,0,0,0-2.29-.8,3.9,3.9,0,0,0-3.82,4v6.38a3.9,3.9,0,0,0,3.82,4,3.67,3.67,0,0,0,2.29-.8,3.65,3.65,0,0,0,4.57,0,3.67,3.67,0,0,0,4.58,0,3.67,3.67,0,0,0,4.58,0,3.67,3.67,0,0,0,2.29.8,3.9,3.9,0,0,0,3.81-4V94.54a3.9,3.9,0,0,0-3.81-4,3.67,3.67,0,0,0-2.29.8,3.67,3.67,0,0,0-4.58,0,3.67,3.67,0,0,0-4.58,0,3.65,3.65,0,0,0-4.57,0Z" class="cls-2"/><rect width="114.92" height="7" x="38.76" y="102.31" class="cls-3" rx=".95"/><path d="M150.09,58.22V85.75a4.92,4.92,0,0,1-5.48,4.69h0L63,82.28a4.84,4.84,0,0,1-4.6-4.68V66.37A4.85,4.85,0,0,1,63,61.69l81.59-8.15h0A4.91,4.91,0,0,1,150.09,58.22Z" class="cls-4"/><path d="M61,66.79V77.16a2,2,0,0,1-2,2h0L44.31,77a2,2,0,0,1-2-2h0V68.92a2,2,0,0,1,1.95-2h0L59,64.83A2,2,0,0,1,61,66.79Z" class="cls-2"/><path d="M103.82,141.54V124c0-1.87,1.17-3.39,2.61-3.39S109,122.11,109,124v17.56c0,1.88-1.17,3.4-2.61,3.4S103.82,143.42,103.82,141.54Z" class="cls-5"/><path d="M108.6,141.54V124c0-1.87,1.17-3.39,2.61-3.39s2.61,1.52,2.61,3.39v17.56c0,1.88-1.16,3.4-2.61,3.4S108.6,143.42,108.6,141.54Z" class="cls-5"/><path d="M113.39,141.54V124c0-1.87,1.17-3.39,2.61-3.39s2.61,1.52,2.61,3.39v17.56c0,1.88-1.17,3.4-2.61,3.4S113.39,143.42,113.39,141.54Z" class="cls-5"/><path d="M118.18,141.54V124c0-1.87,1.17-3.39,2.61-3.39s2.61,1.52,2.61,3.39v17.56c0,1.88-1.17,3.4-2.61,3.4S118.18,143.42,118.18,141.54Z" class="cls-5"/><path d="M123,141.54V124c0-1.87,1.17-3.39,2.62-3.39s2.61,1.52,2.61,3.39v17.56c0,1.88-1.17,3.4-2.61,3.4S123,143.42,123,141.54Z" class="cls-5"/><path d="M127.75,141.54V124c0-1.87,1.17-3.39,2.62-3.39S133,122.11,133,124v17.56c0,1.88-1.17,3.4-2.61,3.4S127.75,143.42,127.75,141.54Z" class="cls-5"/><path d="M132.54,141.54V124c0-1.87,1.17-3.39,2.61-3.39s2.62,1.52,2.62,3.39v17.56c0,1.88-1.17,3.4-2.62,3.4S132.54,143.42,132.54,141.54Z" class="cls-5"/><path d="M137.33,141.54V124c0-1.87,1.17-3.39,2.61-3.39s2.61,1.52,2.61,3.39v17.56c0,1.88-1.17,3.4-2.61,3.4S137.33,143.42,137.33,141.54Z" class="cls-5"/><path d="M147.5,131.22c-9.34.21-18.68-.13-28-.61-4.67-.26-9.34-.53-14-1s-9.35-1.16-14-1.74-9.34-1-14-1.2c-2.33-.09-4.67-.12-7-.06s-4.68.21-7,.31c-4.67.23-9.35.37-14,.55s-9.34.41-14,.71a5,5,0,0,1-.63-10h.63c4.67.29,9.34.5,14,.7s9.35.32,14,.55c2.33.11,4.67.26,7,.31s4.67,0,7-.06q7-.31,14-1.2c4.67-.58,9.34-1.23,14-1.73s9.34-.76,14-1c9.35-.48,18.69-.82,28-.62a8,8,0,0,1,0,16.07Z" class="cls-6"/></g></g></svg>