<svg xmlns="http://www.w3.org/2000/svg" viewBox="0 0 192.29 192.29"><defs><style>.cls-1{fill:#fff;stroke:#580787;stroke-miterlimit:10;stroke-width:8px;}.cls-2{fill:#ed591b;}</style></defs><title>bal</title><g id="Laag_2" data-name="Laag 2"><g id="icoontjes"><circle class="cls-1" cx="96.14" cy="96.14" r="92.14"/><path class="cls-2" d="M91.15,76.18q1.27-1.92,2.58-3.76c1.33-1.89,2.68-3.72,4-5.48,10.59,4.73,21,5.61,30.57,6.42,7,.59,13.56,1.15,19.08,3.25.11.24.21.49.31.74a3.65,3.65,0,0,1,.14.35c.1.24.2.48.29.72s.1.25.14.38.19.49.28.73.06.19.1.29q.27.74.51,1.5c0,.1.07.21.11.32s.15.47.22.71.09.29.13.44.14.47.2.7.09.31.13.46.13.47.19.7l.09.37c.11.44.22.89.32,1.34l.12.51c0,.22.09.44.13.66s.08.37.11.56.09.42.12.64.07.4.11.61l.12.73c.05.32.1.65.14,1s.06.39.08.58.05.44.08.66l.06.59c0,.23.05.45.07.68s0,.37,0,.56,0,.6.07.9l0,.58c0,.31,0,.63,0,1,0,.16,0,.33,0,.5s0,.52,0,.78v.51c0,.28,0,.55,0,.83v.44l0,1.24c0,.11,0,.22,0,.33,0,.31,0,.63,0,1l0,.46c0,.29-.05.57-.07.86s0,.3,0,.45c0,.34-.07.67-.1,1l0,.28c0,.42-.11.85-.17,1.27,0,.12,0,.24-.05.37l-.15.94c0,.15,0,.29-.07.44s-.11.61-.16.91c0,.13-.06.27-.08.4-.09.43-.17.87-.27,1.3s-.21.91-.32,1.36c-.06.23-.11.45-.17.67s-.11.45-.18.67-.16.59-.25.89l-.12.41c-.1.35-.21.69-.32,1,0,.08,0,.16-.08.25-.12.38-.24.75-.38,1.13l0,.12c-.14.4-.28.8-.43,1.2,0,0,0,0,0,0-.31.83-.64,1.65-1,2.45C135.56,100.8,113.41,85.83,91.15,76.18Z"/><path class="cls-2" d="M52.29,95.7C60,90.05,69.22,86.62,79,90.43c-7.14,13.71-12.61,28.87-14.29,43.72a81,81,0,0,0-.5,11.19l-.12-.09c-.35-.23-.69-.47-1-.71l-.27-.2-.88-.64-.32-.25-.8-.62-.34-.27-.76-.62-.35-.3-.73-.63-.34-.31c-.24-.21-.48-.42-.71-.64l-.34-.31-.7-.67-.32-.31-.69-.7-.3-.31-.69-.72-.27-.3-.7-.78-.24-.27-.72-.85-.18-.21-.8-1-.08-.1a54.82,54.82,0,0,1-3.31-4.68h0c-.25-.39-.49-.79-.73-1.19l-.09-.14c-.21-.36-.42-.72-.62-1.08l-.12-.21c-.19-.34-.38-.68-.56-1-.05-.08-.09-.17-.13-.25-.18-.33-.35-.67-.52-1l-.14-.27-.48-1c0-.09-.09-.19-.13-.28-.16-.34-.31-.67-.46-1,0-.1-.09-.19-.13-.29-.15-.34-.29-.68-.44-1,0-.09-.07-.18-.11-.27l-.42-1.07-.09-.25c-.14-.37-.28-.75-.41-1.13a1.18,1.18,0,0,1-.07-.2c-.15-.4-.28-.81-.41-1.22a.56.56,0,0,1,0-.12,55.85,55.85,0,0,1-2-8.45h0A73.76,73.76,0,0,1,52.29,95.7Z"/><path class="cls-2" d="M125.36,146.49l0,0-1.14.69h0l-1.17.67h0l-1.19.64h0c-.4.21-.8.42-1.21.62h0a56.92,56.92,0,0,1-7.59,3.09c-.2-.82-.41-1.64-.61-2.48C107,128.18,99.52,97.82,83.42,89c1.9-3.46,3.9-6.83,6-10l.36.15c22.49,9.73,44.84,25,55.9,45.54-.86,1.66-1.8,3.27-2.8,4.82h0c-.25.39-.5.77-.76,1.15h0c-.26.38-.52.76-.79,1.13h0l-.81,1.09s0,0,0,0l-.84,1.07h0l-.86,1.05,0,0c-.29.34-.58.68-.88,1l0,0q-.44.5-.9,1l0,0-.92,1,0,0c-.31.31-.62.63-.94.93l0,0c-.31.31-.63.61-1,.91l0,0-1,.89,0,0c-.33.29-.66.58-1,.86l0,0-1,.84,0,0-1,.81,0,0c-.35.27-.7.54-1.06.79l0,0-1.08.76,0,0-1.1.74,0,0Z"/><path class="cls-2" d="M81.93,153.25,81,153l-.43-.11-1-.28-.31-.09-1.17-.36L77.7,152l-.71-.25-.56-.2-.64-.23-.56-.22-.78-.31-.92-.38-.44-.2-.7-.31-.37-.17-.75-.35,0,0c-.6-.29-1.2-.59-1.79-.9l-.1-.06c-.28-.14-.55-.29-.82-.44l-.2-.11-.82-.46a75.45,75.45,0,0,1,.39-12.89c1.63-14.47,7-29.3,14-42.73,14.85,8.19,22.16,37.74,27.36,58.74.22.89.44,1.76.65,2.62l-.09,0-1.36.34-.5.11c-.33.07-.65.15-1,.21l-.57.12-.93.17-.58.1-1,.15-.54.08q-.6.09-1.2.15l-.31,0c-.5.06-1,.1-1.51.15l-.44,0-1.08.07-.57,0-1,0-.6,0H95.16l-1.12,0h-.43l-1.55-.08-.32,0-1.24-.1-.55-.06-1-.11-.6-.08-1-.14-.59-.09-1.07-.19-.5-.09c-.52-.1-1-.2-1.57-.32s-.85-.19-1.28-.3Z"/><path class="cls-2" d="M68.34,49.58a.41.41,0,0,0,.11-.07c1.17-.64,2.36-1.25,3.57-1.81l.1-.05c1.22-.56,2.47-1.09,3.73-1.56l.07,0c.63-.24,1.28-.47,1.92-.69h0c.59,6.56,4.54,13.8,17,20.16-1.24,1.63-2.48,3.31-3.7,5q-1.5,2.11-3,4.33A169.6,169.6,0,0,0,51.24,64.24h0c.41-.54.84-1.07,1.28-1.59l.06-.07c.87-1,1.77-2,2.71-3l.08-.09c.94-1,1.9-1.88,2.9-2.77l.1-.09c1-.88,2-1.72,3.07-2.53l.12-.09c1-.8,2.13-1.57,3.24-2.29l.12-.08C66,50.91,67.18,50.22,68.34,49.58Z"/><path class="cls-2" d="M109.53,44.2l1.29.34.12,0,1.4.41h0l1.47.47h0A110.58,110.58,0,0,0,96.82,63C85.06,57.08,81.54,50.38,81.14,44.38h0c1.55-.42,3.13-.77,4.72-1.05l.2,0,1.38-.22.24,0c.47-.06,1-.13,1.43-.18l.14,0c1.07-.12,2.15-.22,3.23-.28h.18l1.38,0h.39c.4,0,.8,0,1.2,0h.43l1.23,0h.37c1.06,0,2.12.11,3.19.21l.43,0,1.15.13L103,43q.53.06,1.05.15l.57.09,1.09.18.5.09,1.59.33,1.5.35Z"/><path class="cls-2" d="M128.61,70.18c-9-.77-18.93-1.6-28.81-5.84,6.14-7.65,12.24-13.75,17.44-17.58l.72.3.5.22.69.31.51.23.68.33.51.25.66.34.5.26.66.35.48.26.67.39.43.25.69.41.36.23c1.23.75,2.42,1.56,3.57,2.4l.26.18.72.55.29.22.7.56.29.23.7.58.26.22.71.61.21.19c.25.22.5.44.74.67l.11.1a55.16,55.16,0,0,1,4.89,5.14l.06.06.71.87.06.08.71.9,0,0a56.15,56.15,0,0,1,5.17,8.1C140.38,71.17,134.69,70.69,128.61,70.18Z"/><path class="cls-2" d="M41.21,84.77c.07-.3.15-.59.23-.88s.11-.4.17-.59l.21-.75c.07-.22.14-.43.2-.64s.14-.46.22-.69l.22-.67c.08-.21.15-.42.22-.63s.17-.47.26-.7l.21-.58.28-.72c.08-.19.15-.37.22-.55s.21-.49.31-.74.14-.33.22-.5.22-.51.34-.76l.21-.46c.12-.26.24-.52.37-.78l.21-.42c.13-.27.26-.53.4-.8s.13-.25.2-.38c.14-.28.29-.55.43-.82.07-.11.13-.23.19-.34l.47-.83.18-.3.51-.86.15-.24.56-.89.12-.18.61-.93h0A163.73,163.73,0,0,1,86.38,77.64c-2,3.19-4,6.52-5.86,9.94C69.38,83,59,86.81,50.4,93.12a72.13,72.13,0,0,0-10.79,10q-.12-1.47-.15-2.94a1.48,1.48,0,0,0,0-.21c0-.89,0-1.79,0-2.68,0-.13,0-.25,0-.37l0-.75,0-.51c0-.23,0-.45,0-.68s0-.72.09-1.08c0-.18,0-.36.05-.54s0-.49.07-.74,0-.35.07-.52.07-.6.11-.89c0-.12,0-.24,0-.36.05-.4.12-.81.19-1.22l.06-.37c.05-.32.11-.63.17-1,0-.12,0-.25.07-.38.09-.42.17-.85.27-1.27s.2-.92.32-1.37Z"/></g></g></svg>