<svg xmlns="http://www.w3.org/2000/svg" viewBox="0 0 192.29 192.29"><defs><style>.cls-1,.cls-8{fill:#fff;}.cls-1{stroke:#580787;stroke-width:8px;}.cls-1,.cls-12{stroke-miterlimit:10;}.cls-2{fill:#f08932;}.cls-3{fill:#d87021;}.cls-4{fill:#841500;}.cls-5{fill:#b82700;}.cls-6{fill:#b03e00;}.cls-7{fill:#7b2a00;}.cls-9{fill:#722100;}.cls-10{fill:#994200;}.cls-11{fill:#d47100;}.cls-12{fill:none;stroke:#722100;stroke-linecap:round;stroke-width:2px;}</style></defs><title>beer_1</title><g id="Laag_2" data-name="Laag 2"><g id="icoontjes"><circle class="cls-1" cx="96.14" cy="96.14" r="92.14"/><path d="M103.33,23.52a.89.89,0,0,1,1,.09l-1-.1Z"/><path class="cls-2" d="M81.7,93l-.56.28a32.38,32.38,0,0,0-3,1.71,36.13,36.13,0,0,0-2.91,2.18,40.85,40.85,0,0,0-3.71,3.53c-.59.62-1.16,1.26-1.72,1.92-.24.28-.47.57-.71.86q-.9,1.11-1.77,2.28c-.8,1.08-1.57,2.2-2.3,3.34s-1.44,2.3-2.1,3.47c-.33.58-.65,1.17-1,1.75-.15.29-.3.58-.43.85l-.19.41-.08.18a.36.36,0,0,0,0,.07l0,0h0a11.05,11.05,0,0,1-1.28,1.85,11.58,11.58,0,0,1-19-13.09l.09-.15.06-.09.11-.19.22-.32.41-.61.82-1.15c.54-.75,1.08-1.47,1.64-2.19Q46,97.82,47.76,95.8t3.67-3.94c1.28-1.28,2.6-2.53,4-3.73a64.34,64.34,0,0,1,9-6.65,52.19,52.19,0,0,1,5.13-2.73,47.56,47.56,0,0,1,5.6-2.13,8.83,8.83,0,0,1,6.73.62,8.94,8.94,0,0,1,2.45,1.89A8.86,8.86,0,0,1,81.7,93Z"/><path class="cls-3" d="M60,116.85c0,.3,0,.6,0,.89A11.57,11.57,0,0,1,40.35,106,12.81,12.81,0,0,1,60,116.85Z"/><path class="cls-2" d="M143.41,120.82a11.54,11.54,0,0,1-15.72-4.5h0v0s0,0,0-.07l-.07-.18-.2-.4c-.13-.28-.28-.57-.43-.86-.29-.57-.62-1.16-.94-1.75-.66-1.17-1.37-2.33-2.11-3.47s-1.5-2.26-2.3-3.34-1.5-2-2.28-2.9l-.2-.24c-.72-.85-1.46-1.67-2.22-2.45h0a42.76,42.76,0,0,0-3.21-3,32.28,32.28,0,0,0-2.91-2.17,30.36,30.36,0,0,0-3-1.72l-.56-.27a8.86,8.86,0,0,1-2.48-14,8.84,8.84,0,0,1,9.06-2.38,45.2,45.2,0,0,1,5.6,2.12,54.41,54.41,0,0,1,5.13,2.73,64.34,64.34,0,0,1,9,6.65c1.37,1.2,2.69,2.45,4,3.73s2.49,2.59,3.67,3.94,2.33,2.73,3.44,4.15c.55.72,1.09,1.44,1.64,2.19l.81,1.15.41.61.22.33.11.18.06.09.09.15c.24.44.45.89.64,1.34A11.58,11.58,0,0,1,143.41,120.82Z"/><path class="cls-3" d="M128.92,117.29c0,.29,0,.59,0,.89a11.58,11.58,0,0,0,19.59-11.76,12.82,12.82,0,0,0-19.63,10.87Z"/><path class="cls-3" d="M119.11,103.07c-.72-.85-1.46-1.67-2.22-2.45l.35,2.7-46.08.17.36-2.77c-.59.62-1.16,1.26-1.72,1.92-.24.28-.47.57-.71.86L70.19,95A24.18,24.18,0,0,1,81.85,77.24a8.94,8.94,0,0,1,2.45,1.89l.35-.17.2-.1.21-.09.25-.11.12-.06.11,0,.48-.2.59-.22.28-.1.59-.2.26-.08h.06l0,0,.07,0,.08,0,.44-.13.27-.07.25-.06h0l.14,0,.62-.13.26-.05.11,0h.1l.19,0,.31,0L91,77h.1l.12,0,.45-.05.41,0h.21l.41,0,.24,0h.33l.47,0h1l.52,0h0l.34,0h.17l.33,0h.34l.35,0a2.06,2.06,0,0,1,.26,0l.25,0,.26,0,.25,0,.5.08.5.1.5.11.39.1.23.06.1,0,.16,0,.09,0,.3.08.1,0,.2.07h0l1,.35.05,0,.28.11.31.12.11,0,.1,0,.31.14.41.18.57.27.15.08.18.09.19.1h0l.09,0a8.77,8.77,0,0,1,2.45-1.83,24.3,24.3,0,0,1,11,17.36l1.08,8.34Z"/><path class="cls-2" d="M97.32,145.49H91.1A22.29,22.29,0,0,1,69,120.34l2.17-16.85.36-2.77.57-4.47c.08-.62.19-1.22.32-1.82l.06-.28a.29.29,0,0,1,0-.09c0-.12.05-.24.08-.36.08-.31.16-.61.25-.91l.06-.21a2.47,2.47,0,0,1,.1-.29c.16-.51.34-1,.53-1.5l.19-.45a0,0,0,0,0,0,0c.07-.15.13-.3.2-.44h0l.21-.46.27-.53a3.9,3.9,0,0,1,.19-.35c.08-.17.17-.33.26-.49s.16-.26.23-.39l.22-.36.35-.53.24-.36.29-.4c.29-.4.59-.79.91-1.17l.25-.3.44-.5.24-.25.31-.32.21-.21c.26-.25.52-.5.79-.74l.22-.2.54-.46.23-.18c.18-.15.36-.28.54-.42s.36-.27.54-.39l.22-.15.09-.07.25-.16.57-.37.29-.17.59-.34.23-.13.67-.34.35-.17.2-.1.21-.09.25-.11.12-.06.11,0,.48-.2.59-.22.28-.1.59-.2.26-.08h.06s0,0,0,0h0l.07,0,.08,0,.44-.13.27-.07.25-.06h0l.14,0,.62-.13.26-.05.11,0h.1l.19,0,.31,0L91,77h.1l.12,0,.45-.05.41,0h.21l.41,0,.24,0h.33l.47,0h1l.52,0h0l.34,0h.17l.33,0h.34l.35,0a2.06,2.06,0,0,1,.26,0l.25,0,.26,0,.25,0,.5.08.5.1.5.11.39.1.23.06.1,0,.16,0,.09,0,.3.08.1,0,.2.07h0l1,.35.05,0,.28.11.31.12.11,0,.1,0,.31.14.41.18.57.27.15.08.18.09.19.1h0l.09,0,0,0,.52.29.47.28.2.12.36.23.12.08.42.28.65.47.42.32,0,0,.36.3.18.14.42.36A22.79,22.79,0,0,1,111,84.45c.33.37.64.76.94,1.15a22.25,22.25,0,0,1,4.37,10.65l.56,4.37.35,2.7,2.2,17A22.3,22.3,0,0,1,97.32,145.49Z"/><path class="cls-2" d="M78.1,141l-2.7,1.35-.35.17-.37.15c-.35.16-.69.32-1,.46l-1.17.57-.3.14-.31.16-.64.32c-1.69.87-3.46,1.85-5.25,2.91s-3.59,2.14-5.39,3.27l-2.68,1.72-1.32.87c-.42.29-.9.6-1.24.85a13.62,13.62,0,1,1-15.92-22.11,14.55,14.55,0,0,1,2.3-1.35l.64-.28c.64-.29,1.16-.5,1.73-.74l1.66-.69c1.11-.46,2.22-.9,3.33-1.33,2.22-.88,4.47-1.71,6.77-2.53s4.65-1.58,7.16-2.31l.95-.27.47-.13.5-.13c.67-.17,1.33-.34,2-.5l2.21-.47.31,0,.32,0,.65-.1,1.29-.19A10.77,10.77,0,0,1,78.1,141Z"/><path class="cls-3" d="M50.28,156.15a13.63,13.63,0,0,1-13.51-21.86c4.83-2.29,11.29.45,14.71,6.39C54.74,146.33,54.13,152.91,50.28,156.15Z"/><path class="cls-2" d="M102.48,141l2.7,1.35.35.17.37.16,1,.45,1.17.57.3.14.31.16.63.32c1.7.88,3.47,1.85,5.26,2.91s3.59,2.14,5.39,3.27l2.68,1.72,1.32.87c.42.29.89.6,1.24.85a13.62,13.62,0,1,0,15.92-22.11,14.2,14.2,0,0,0-2.31-1.35l-.63-.28c-.65-.29-1.16-.5-1.73-.74l-1.66-.69c-1.11-.46-2.22-.9-3.33-1.33-2.22-.88-4.47-1.71-6.77-2.53s-4.66-1.58-7.16-2.3l-1-.28-.47-.13-.5-.13c-.67-.17-1.33-.34-2-.5l-2.21-.47-.31,0-.32,0-.65-.1-1.29-.19A10.77,10.77,0,0,0,102.48,141Z"/><path class="cls-3" d="M130.3,156.17a13.63,13.63,0,0,0,13.51-21.86c-4.83-2.29-11.29.46-14.71,6.39C125.84,146.35,126.44,152.93,130.3,156.17Z"/><path class="cls-2" d="M97.32,145.49H91.1A22.29,22.29,0,0,1,69,120.34l2.17-16.85.36-2.77.57-4.47c.08-.62.19-1.22.32-1.82l.06-.28a.29.29,0,0,1,0-.09c0-.12.05-.24.08-.36.08-.31.16-.61.25-.91l.06-.21a2.47,2.47,0,0,1,.1-.29c.16-.51.34-1,.53-1.5l.19-.45a0,0,0,0,0,0,0c.07-.15.13-.3.2-.44h0l.21-.46.27-.53a3.9,3.9,0,0,1,.19-.35c.08-.17.17-.33.26-.49s.16-.26.23-.39l.22-.36.35-.53.24-.36.29-.4c.29-.4.59-.79.91-1.17l.25-.3.44-.5.24-.25.31-.32.21-.21c.26-.25.52-.5.79-.74l.22-.2.54-.46.23-.18c.18-.15.36-.28.54-.42s.36-.27.54-.39l.22-.15.09-.07.25-.16.57-.37.29-.17.59-.34.23-.13.67-.34.35-.17.2-.1.21-.09.25-.11.12-.06.11,0,.48-.2.59-.22.28-.1.59-.2.26-.08h.06s0,0,0,0h0l.07,0,.08,0,.44-.13.27-.07.25-.06h0l.14,0,.62-.13.26-.05.11,0h.1l.19,0,.31,0L91,77h.1l.12,0,.45-.05.41,0h.21l.41,0,.46,0h.11l.47,0h1l.52,0h0l.34,0h.17l.33,0h.34l.35,0a2.06,2.06,0,0,1,.26,0l.25,0,.26,0,.25,0,.5.08.5.1.5.11.39.1.23.06.1,0,.16,0,.09,0,.3.08.1,0,.2.07h0l1,.35.05,0,.28.11.31.12.11,0,.1,0,.31.14.41.18.57.27.15.08.18.09.19.1h0l.09,0,0,0,.52.29.47.28.2.12.36.23.12.08.42.28.65.47.42.32,0,0,.36.3.18.14.42.36A22.79,22.79,0,0,1,111,84.45c.33.37.64.76.94,1.15a22.25,22.25,0,0,1,4.37,10.65l.56,4.37h0l.35,2.7,2.2,17A22.3,22.3,0,0,1,97.32,145.49Z"/><ellipse class="cls-2" cx="119.66" cy="40.35" rx="12.15" ry="9.52" transform="translate(22.01 120.42) rotate(-57.99)"/><ellipse class="cls-4" cx="119.98" cy="40.81" rx="7.19" ry="5.64" transform="translate(21.77 120.9) rotate(-57.99)"/><ellipse class="cls-5" cx="119.41" cy="41.38" rx="7.19" ry="5.64" transform="translate(21.02 120.69) rotate(-57.99)"/><ellipse class="cls-2" cx="71.41" cy="39.54" rx="9.52" ry="12.15" transform="translate(-10.1 43.87) rotate(-32.01)"/><ellipse class="cls-4" cx="71.02" cy="39.09" rx="5.72" ry="6.96" transform="translate(-9.92 43.59) rotate(-32.01)"/><ellipse class="cls-5" cx="71.56" cy="39.97" rx="5.64" ry="7.19" transform="translate(-10.3 44.02) rotate(-32.01)"/><ellipse class="cls-2" cx="94.71" cy="58.31" rx="30.76" ry="26.06"/><ellipse class="cls-6" cx="78.76" cy="52.48" rx="3.18" ry="3.11"/><ellipse class="cls-7" cx="78.76" cy="53.24" rx="3.18" ry="3.11"/><ellipse class="cls-8" cx="78.25" cy="52.04" rx="1.24" ry="1.32"/><ellipse class="cls-6" cx="110.54" cy="53.16" rx="3.25" ry="3.17"/><ellipse class="cls-7" cx="110.54" cy="53.94" rx="3.25" ry="3.17"/><ellipse class="cls-8" cx="110.02" cy="52.71" rx="1.27" ry="1.34"/><ellipse class="cls-9" cx="93.23" cy="61.4" rx="7.13" ry="5.61"/><ellipse class="cls-10" cx="92.5" cy="60.46" rx="5.92" ry="4.37"/><ellipse class="cls-11" cx="91.21" cy="58.51" rx="3.02" ry="2.23"/><path class="cls-12" d="M93.55,66.89s1.36,8.07-2.8,7.38c-4-.66-8.63-2.3-9.78-5.87"/><path class="cls-12" d="M79.53,69.37a3.17,3.17,0,0,1,2.87-1.7"/><path class="cls-12" d="M93.55,66.89s-.39,7.53,3.59,7.42,8.63-2.3,9.78-5.86"/><path class="cls-12" d="M108.36,69.41a3.21,3.21,0,0,0-2.87-1.7"/></g></g></svg>