<svg xmlns="http://www.w3.org/2000/svg" viewBox="0 0 192.29 192.29"><defs><style>.cls-1,.cls-6{fill:#fff}.cls-1{stroke:#580787;stroke-miterlimit:10;stroke-width:8px}.cls-2{fill:#4f4a2e}.cls-3{fill:#f2f2f2}.cls-4{fill:#9d935c}.cls-5{fill:#d1c47a}.cls-7{fill:#b5b5b5}</style></defs><title>boek_1</title><g id="Laag_2" data-name="Laag 2"><g id="icoontjes"><circle cx="96.14" cy="96.14" r="92.14" class="cls-1"/><path d="M67.81,42.23H49.48L43,140.51a8.8,8.8,0,0,0,8.9,9.49h97.72L142.43,42.23Z" class="cls-2"/><path d="M145.77,146.85H53.27c-3.94,0-6.87-4.38-6.63-8.28l.08-1.26a7.5,7.5,0,0,1,7.42-6.93h90.62Z" class="cls-3"/><polygon points="145.69 145.42 141.25 145.42 135.25 39.15 139.11 39.15 145.69 145.42" class="cls-3"/><path d="M59.33,36.59c-5.23,0-9.72,3.69-10,8.29L43,139.17c.7-10.5,8.94-8.53,19.78-8.78l3.94-93.8Z" class="cls-4"/><polygon points="135.58 36.59 66.76 36.59 62.82 130.39 140.94 130.39 135.58 36.59" class="cls-5"/><path d="M117.21,66.14H80.93A3.26,3.26,0,0,1,77.49,63l.38-14.76a3.34,3.34,0,0,1,3.5-3h35.22a3.37,3.37,0,0,1,3.52,3L120.62,63A3.23,3.23,0,0,1,117.21,66.14Z" class="cls-6"/><path d="M114.15,50.35H83.85a.68.68,0,0,1-.72-.64h0a.71.71,0,0,1,.73-.65h30.25a.71.71,0,0,1,.75.65.67.67,0,0,1-.69.65Z" class="cls-4"/><path d="M114.28,55.15H83.77a.69.69,0,0,1-.74-.64v0a.71.71,0,0,1,.75-.65h30.46a.73.73,0,0,1,.76.65.68.68,0,0,1-.7.66Z" class="cls-4"/><path d="M98,60H83.68a.7.7,0,0,1-.74-.65v0a.72.72,0,0,1,.76-.66H98a.67.67,0,0,1,.75.58.68.68,0,0,1-.59.75Z" class="cls-4"/><path d="M62.67,133.85c3.15-.06,6.3-.08,9.44-.12l9.44-.07c6.3,0,12.59,0,18.88-.06s12.59,0,18.88.06l9.44.07c3.15,0,6.3.06,9.44.12-3.14.05-6.29.08-9.44.12l-9.44.07c-6.29,0-12.58,0-18.88.05s-12.58,0-18.88-.05L72.11,134C69,133.93,65.82,133.91,62.67,133.85Z" class="cls-7"/><path d="M62.52,137.6c2.85-.1,5.71-.16,8.56-.19s5.72,0,8.57-.06,5.71,0,8.57.06,5.71.09,8.56.19c-2.85.09-5.71.15-8.56.19s-5.72.05-8.57.05-5.71,0-8.57-.06S65.37,137.69,62.52,137.6Z" class="cls-7"/></g></g></svg>