<svg xmlns="http://www.w3.org/2000/svg" viewBox="0 0 192.29 192.29"><defs><style>.cls-1,.cls-2{fill:#fff;stroke:#580787;stroke-width:8px;stroke-miterlimit:10}.cls-2{fill:#f2ba5f;stroke:#f2ba5f;stroke-width:.75px}.cls-3{fill:#8c6239}.cls-11,.cls-4{fill:#666}.cls-10,.cls-4{opacity:.44}.cls-4{isolation:isolate}.cls-5{fill:#ffd126}.cls-6{fill:#ffb426}.cls-7{fill:#bf161c}.cls-8{fill:#ff1d25}.cls-9{fill:#edeaa4}.cls-12{fill:#7ac943}</style></defs><title>burger_1</title><g id="Laag_2" data-name="Laag 2"><g id="icoontjes"><circle cx="96.14" cy="96.14" r="92.14" class="cls-1"/><g id="Laag_1-2" data-name="Laag 1"><path d="M40.42,139.16c0,13.6,114.74,12.8,114.74,0,0-17,7.2-25-57.37-25S40.42,122.14,40.42,139.16Z" class="cls-2"/><path d="M158.72,119.77c0,5.77-1.76,10.87-7.43,12a307.11,307.11,0,0,1-107,0c-5.57-1.09-7.37-6-7.43-11.64v-.32a22.5,22.5,0,0,1,.19-3.07,14.3,14.3,0,0,1,1.18-4.25,8.14,8.14,0,0,1,6-4.68q3.31-.57,6.6-1.07a305.06,305.06,0,0,1,92-.26q4.17.61,8.37,1.33a8.32,8.32,0,0,1,6.5,5.76,13.86,13.86,0,0,1,.51,1.81,20.6,20.6,0,0,1,.4,3.33C158.71,119.06,158.72,119.43,158.72,119.77Z" class="cls-3"/><path d="M158.3,115.36a20.86,20.86,0,0,1,.4,3.34c-21.16,4.09-41.37,14-60.43,21.3a1.1,1.1,0,0,1-.51,0c-19.29-6.86-39.66-16.31-60.89-19.88v-.32a22.5,22.5,0,0,1,.19-3.07q-2.82-.48-5.65-.92L35.07,114l3.17-1.52q6.25-3,12.66-5.75a394.72,394.72,0,0,1,47.46-17,1.2,1.2,0,0,1,.65,0,395.78,395.78,0,0,1,43.91,16.72q7.19,3.24,14.18,6.74l.68.34,2.73,1.39C159.77,115.07,159,115.22,158.3,115.36Z" class="cls-4"/><path d="M162.62,114.55l-2.11.39-2.21.42a359.71,359.71,0,0,0-60,17.13.89.89,0,0,1-.51,0q-10.58-3.75-21.57-6.91h0q-5.72-1.64-11.54-3.07-9.06-2.27-18.38-4.09c-1.64-.32-3.28-.64-4.93-.94l-4.28-.75q-2.82-.48-5.65-.91l-2.28-.34a.92.92,0,0,1-.89-.94.9.9,0,0,1,.54-.81q3.12-1.59,6.27-3.13c1.48-.71,3-1.42,4.44-2.12l.34-.16.6-.28,3.29-1.52,1.58-.71h0q5.91-2.69,12-5.18h0q2.56-1,5.16-2.07l.53-.22h0q3-1.16,6-2.28,7.35-2.76,14.89-5.24l3.38-1.1Q92.7,88,98.34,86.31a.59.59,0,0,1,.23,0,1.2,1.2,0,0,1,.42,0c1.44.45,2.89.92,4.32,1.39a391.38,391.38,0,0,1,53.13,21.77l.64.31,1.16.59q2.35,1.18,4.71,2.42a.91.91,0,0,1-.33,1.76Z" class="cls-5"/><path d="M150.49,109.7c-20,3.94-34.26,9.48-52.28,16.38a1.06,1.06,0,0,1-.5,0c-19.24-6.85-36.18-12.15-57.41-15.63,19.32-9.41,36.45-17.34,58-23.54a1.16,1.16,0,0,1,.64,0C118.66,93.13,132.71,100.79,150.49,109.7Z" class="cls-6"/><path d="M95.71,107.88a5.29,5.29,0,0,0-4.43-5.21,27.69,27.69,0,0,0-2.8-2,3.38,3.38,0,0,0-.58-.27c-16.72-5.92-34.61-3.52-43.1,2.24a5.28,5.28,0,0,0-5,5.27v1.36a3.46,3.46,0,0,0,0,.46c-.26,3.2,1.88,6.69,7.22,10.07a2.12,2.12,0,0,0,.57.27c23.36,8.28,49,.31,48.13-10.33,0-.15,0-.3,0-.45Z" class="cls-7"/><ellipse cx="67.73" cy="106.58" class="cls-7" rx="23.62" ry="11.2"/><path d="M88.48,97a3.38,3.38,0,0,0-.58-.27,60.29,60.29,0,0,0-19-3.41c-13.71-.28-25.33,4.13-28.38,10.12a7.24,7.24,0,0,0-.7,2.12c0,.1,0,.21,0,.31a6.27,6.27,0,0,0,0,1.37h0c.28,2.71,2.29,5.59,6.48,8.41l.72.47a3,3,0,0,0,.57.27,60.41,60.41,0,0,0,17.09,3.36c14,.71,26.27-3.51,29.94-9.46a7,7,0,0,0,1.08-3h0s0,0,0,0C96,104,93.9,100.46,88.48,97Zm-12.63-1,.8.15.6.12.38.08.34.08.8.19,1.09.29c.36.1.73.21,1.08.34l.77.26h0l.53.19,1.12.44.53.23c.27.12.53.24.78.37l.37.18.37.19.36.2.53.31.22.14.26.16.07,0h0l.24.15.2.15.32.22.18.15a1.33,1.33,0,0,1,.19.14l.18.14.17.15a3.73,3.73,0,0,1,.36.32l.31.28,0,0,0,0,.26.27.24.27,0,0,0,0,.25.32h0l.25.34h0c.07.1.14.2.2.3.52.82-.7,1.67-2.52,1.72l-7.92.26-7.11.23c-1.66,0-3-.58-3-1.37v-.08l1-7.12s0,0,0,0c.13-.8,1.7-1.36,3.33-1.21l1,.14Zm-29.1,5.37h0l.34-.3.17-.14.18-.15.37-.28.32-.23.2-.14,0,0c.16-.11.34-.21.49-.32l.28-.17c.15-.09.31-.19.47-.27l.21-.12.42-.23.2-.1.47-.23.52-.25.11,0,.54-.23,1.12-.44.52-.19h0l.78-.26.47-.15.34-.1.27-.08.68-.18.61-.15.6-.15h.05l.68-.14.69-.14.68-.13,1.48-.23a6.18,6.18,0,0,1,1.36,0c1.17.13,2.1.6,2.2,1.21,0,0,0,0,0,0l1,7.13c.11.81-1.31,1.49-3,1.43l-15-.54a5.2,5.2,0,0,1-.68-.06,2.6,2.6,0,0,1-1.84-.92.68.68,0,0,1,0-.74l.19-.3h0a6.7,6.7,0,0,1,.54-.68l0,0c.07-.09.16-.18.24-.27l.26-.27,0,0,.34-.34h0Zm-.64,9.67-.25-.27,0,0,0,0-.25-.32h0l-.25-.34h0l-.19-.3c-.5-.79.6-1.6,2.3-1.7h.21l5.25-.17,9.79-.32a5,5,0,0,1,.86,0c1.3.14,2.25.72,2.15,1.39l-.06.46-1,6.67c-.12.84-1.83,1.41-3.54,1.21l-.29,0-1.22-.19-1.37-.26c-.44-.09-.89-.2-1.32-.3l-1.28-.34-.46-.14-.92-.29-.44-.15-.58-.21-.06,0-.62-.23-.25-.11-.49-.2-.64-.3c-.21-.09-.42-.19-.62-.3l-.49-.25-.47-.26-.42-.24,0,0c-.15-.09-.3-.18-.44-.28a4.38,4.38,0,0,1-.42-.28l-.41-.29-.39-.29-.35-.3-.35-.3-.3-.29-.07-.07Zm43.25,0-.27.27,0,0,0,0-.3.29-.34.3-.74.59-.41.29-.43.29-.43.27-.05,0-.41.24-1,.51c-.21.11-.41.21-.62.3l-.65.3-.48.2-.25.1-.63.24,0,0-.58.21-.45.15-.91.29-.47.13-.63.18-.65.16q-.64.16-1.32.3l-.68.14-.68.13h0l-.67.1c-.34.06-.68.1-1,.14-1.65.15-3.24-.41-3.35-1.22l-1-7.13c-.12-.81,1.31-1.48,3-1.43l6.59.21,7.7.25.74,0a6.39,6.39,0,0,1,1,.11c1.25.27,2,1,1.54,1.61l-.19.3h0l-.25.34h0c-.08.11-.17.21-.26.32l0,0,0,0-.07.08Z" class="cls-8"/><path d="M55.76,108.66a11.26,11.26,0,0,1,2-.06c.18,0,.24.07.13.14a5.08,5.08,0,0,1-1.43.68,2.13,2.13,0,0,1-1.55-.12C54.74,109.09,55.11,108.79,55.76,108.66Z" class="cls-9"/><path d="M56.94,109.78a10.62,10.62,0,0,1,1.94-.25c.18,0,.27,0,.19.13a3.36,3.36,0,0,1-1.11.79,2.19,2.19,0,0,1-1.56,0C56.12,110.3,56.36,110,56.94,109.78Z" class="cls-9"/><path d="M58.59,110.78a8.58,8.58,0,0,1,1.78-.44c.17,0,.29,0,.25.1a2.14,2.14,0,0,1-.74.89,2.06,2.06,0,0,1-1.52.18C58,111.36,58.11,111,58.59,110.78Z" class="cls-9"/><path d="M60.64,111.59a6.25,6.25,0,0,1,1.55-.61c.16,0,.29,0,.29.08a1.47,1.47,0,0,1-.34.94,1.78,1.78,0,0,1-1.41.34C60.32,112.21,60.27,111.88,60.64,111.59Z" class="cls-9"/><path d="M63,112.17a4.23,4.23,0,0,1,1.26-.74c.13-.06.28,0,.31,0s.24.71.08,1a1.36,1.36,0,0,1-1.23.46C63,112.81,62.77,112.5,63,112.17Z" class="cls-9"/><path d="M70.84,112.42c-.16-.23,0-.7.1-1,0-.09.18-.11.31,0a4,4,0,0,1,1.25.75c.22.32,0,.64-.43.71A1.36,1.36,0,0,1,70.84,112.42Z" class="cls-9"/><path d="M73.34,112a1.35,1.35,0,0,1-.32-.94c0-.09.13-.13.29-.08a6.18,6.18,0,0,1,1.54.61c.34.3.31.63-.11.74A1.8,1.8,0,0,1,73.34,112Z" class="cls-9"/><path d="M75.6,111.32a2.18,2.18,0,0,1-.73-.89c0-.08.08-.13.25-.11a9,9,0,0,1,1.77.45c.48.25.58.58.22.73A2,2,0,0,1,75.6,111.32Z" class="cls-9"/><path d="M77.51,110.44a3.35,3.35,0,0,1-1.1-.8c-.08-.07,0-.14.2-.13a11.48,11.48,0,0,1,1.93.26c.58.21.82.52.53.7A2.14,2.14,0,0,1,77.51,110.44Z" class="cls-9"/><path d="M79,109.4a5.49,5.49,0,0,1-1.42-.69c-.11-.07,0-.13.14-.14a11.12,11.12,0,0,1,2,.06c.66.14,1,.42.83.63A2.05,2.05,0,0,1,79,109.4Z" class="cls-9"/><path d="M79.73,104.5a12.27,12.27,0,0,1-2,0c-.18,0-.24-.08-.13-.15a5.38,5.38,0,0,1,1.44-.66c.66-.13,1.37-.08,1.54.13S80.39,104.36,79.73,104.5Z" class="cls-9"/><path d="M78.56,103.36a9.63,9.63,0,0,1-1.93.25c-.18,0-.28,0-.2-.13a3.67,3.67,0,0,1,1.12-.79,2.16,2.16,0,0,1,1.57,0C79.4,102.85,79.15,103.16,78.56,103.36Z" class="cls-9"/><path d="M76.93,102.37a8.49,8.49,0,0,1-1.79.43c-.17,0-.28,0-.24-.1a2.09,2.09,0,0,1,.75-.89,2.06,2.06,0,0,1,1.52-.17C77.53,101.78,77.42,102.11,76.93,102.37Z" class="cls-9"/><path d="M74.9,101.55a6.29,6.29,0,0,1-1.56.6c-.16,0-.3,0-.29-.08a1.47,1.47,0,0,1,.34-.94,1.79,1.79,0,0,1,1.41-.32C75.23,100.92,75.27,101.26,74.9,101.55Z" class="cls-9"/><path d="M72.55,101a4.37,4.37,0,0,1-1.26.75c-.14,0-.29,0-.32-.06s-.23-.71-.06-1a1.37,1.37,0,0,1,1.24-.45C72.6,100.33,72.78,100.63,72.55,101Z" class="cls-9"/><path d="M64.71,100.67c.15.23,0,.7-.11,1a.24.24,0,0,1-.32,0,3.86,3.86,0,0,1-1.23-.75c-.22-.32,0-.64.44-.71A1.33,1.33,0,0,1,64.71,100.67Z" class="cls-9"/><path d="M62.2,101.1a1.35,1.35,0,0,1,.31.94c0,.09-.14.13-.29.08a6,6,0,0,1-1.53-.61c-.34-.3-.3-.63.12-.74A1.69,1.69,0,0,1,62.2,101.1Z" class="cls-9"/><path d="M59.94,101.77a2,2,0,0,1,.72.89c0,.08-.08.13-.25.1a9,9,0,0,1-1.77-.45c-.47-.26-.57-.59-.2-.74A2,2,0,0,1,59.94,101.77Z" class="cls-9"/><path d="M58,102.64a3.42,3.42,0,0,1,1.09.8c.07.07,0,.13-.2.12A9.64,9.64,0,0,1,57,103.3c-.58-.21-.81-.52-.52-.69A2.25,2.25,0,0,1,58,102.64Z" class="cls-9"/><path d="M56.51,103.68a5,5,0,0,1,1.41.68c.11.07,0,.14-.14.14a10.27,10.27,0,0,1-2-.07c-.65-.14-1-.43-.82-.63A2.08,2.08,0,0,1,56.51,103.68Z" class="cls-9"/><path d="M149.11,107.45a5.3,5.3,0,0,0-4.49-5.16,26.21,26.21,0,0,0-2.83-2,2.8,2.8,0,0,0-.58-.27c-16.79-5.75-34.64-3.15-43.08,2.7a5.28,5.28,0,0,0-5,5.32v1.36a3.46,3.46,0,0,0,0,.46c-.21,3.2,2,6.66,7.32,10a3.38,3.38,0,0,0,.58.27c23.45,8,49-.22,48-10.85,0-.15,0-.3,0-.46Z" class="cls-7"/><ellipse cx="121.07" cy="106.53" class="cls-7" rx="23.62" ry="11.2" transform="translate(-1.06 1.22) rotate(-0.57)"/><path d="M141.18,96.41c-29.88-10.24-63.1,6-40.71,19.83a3.06,3.06,0,0,0,.58.27c29.87,10.23,63.09-6,40.7-19.84A2.44,2.44,0,0,0,141.18,96.41Zm0,8.36-15,.65c-1.7.07-3.14-.59-3-1.4l1-7.14c.11-.86,1.88-1.46,3.63-1.23,7.64,1,13.68,3.78,16,7.37.52.82-.69,1.67-2.51,1.74ZM117.91,97l1.09,7.13c.13.81-1.29,1.5-3,1.46l-15-.34c-1.82,0-3-.87-2.54-1.7,2.23-3.64,8.21-6.56,15.82-7.71C116,95.53,117.78,96.09,117.91,97ZM101,108.14l15-.65c1.71-.07,3.14.59,3,1.4l-.94,7.13c-.12.86-1.89,1.46-3.64,1.23-7.63-1-13.67-3.77-16-7.37C98,109.07,99.19,108.22,101,108.14ZM124.32,116l-1.11-7.1c-.12-.81,1.29-1.5,3-1.46l15,.32c1.82,0,3.05.87,2.54,1.71-2.23,3.63-8.21,6.55-15.82,7.7-1.74.26-3.51-.31-3.65-1.17Z" class="cls-8"/><path d="M109.17,108.66a10.31,10.31,0,0,1,2-.08c.18,0,.25.07.14.14a5.37,5.37,0,0,1-1.43.68,2,2,0,0,1-1.54-.11C108.16,109.08,108.51,108.8,109.17,108.66Z" class="cls-9"/><path d="M110.36,109.77a10.55,10.55,0,0,1,1.93-.27c.18,0,.28,0,.2.12a3.38,3.38,0,0,1-1.1.81,2.18,2.18,0,0,1-1.57,0C109.54,110.29,109.79,110,110.36,109.77Z" class="cls-9"/><path d="M112,110.75a7.77,7.77,0,0,1,1.78-.46c.17,0,.29,0,.25.1a2.21,2.21,0,0,1-.73.9,2.12,2.12,0,0,1-1.52.19C111.44,111.33,111.54,111,112,110.75Z" class="cls-9"/><path d="M114.07,111.53a6.7,6.7,0,0,1,1.55-.62c.15,0,.29,0,.29.08a1.47,1.47,0,0,1-.34.94,1.8,1.8,0,0,1-1.4.34C113.76,112.16,113.72,111.83,114.07,111.53Z" class="cls-9"/><path d="M116.43,112.09a4.31,4.31,0,0,1,1.25-.75c.13-.06.28,0,.32,0,.1.25.25.72.09,1a1.35,1.35,0,0,1-1.23.47C116.4,112.74,116.21,112.42,116.43,112.09Z" class="cls-9"/><path d="M124.28,112.27c-.16-.23,0-.71.09-1,0-.09.19-.11.32-.06a4.3,4.3,0,0,1,1.25.74c.22.32,0,.64-.42.72A1.38,1.38,0,0,1,124.28,112.27Z" class="cls-9"/><path d="M126.78,111.8a1.35,1.35,0,0,1-.34-.94c0-.08.13-.12.29-.08a6.61,6.61,0,0,1,1.55.59c.34.29.31.63-.11.74A1.73,1.73,0,0,1,126.78,111.8Z" class="cls-9"/><path d="M129,111.1a2.05,2.05,0,0,1-.74-.88c0-.08.08-.13.25-.1a8.38,8.38,0,0,1,1.78.42c.48.25.58.58.23.74A2.11,2.11,0,0,1,129,111.1Z" class="cls-9"/><path d="M130.94,110.22a3.56,3.56,0,0,1-1.1-.78c-.08-.08,0-.14.19-.13a8.94,8.94,0,0,1,1.93.24c.59.19.83.5.55.68A2.32,2.32,0,0,1,130.94,110.22Z" class="cls-9"/><path d="M132.41,109.14a5,5,0,0,1-1.43-.65c-.11-.07,0-.14.13-.15a11.26,11.26,0,0,1,2,0c.65.13,1,.41.83.62A2.09,2.09,0,0,1,132.41,109.14Z" class="cls-9"/><path d="M133.09,104.24a11.27,11.27,0,0,1-2,.07c-.18,0-.24-.07-.13-.14a5.08,5.08,0,0,1,1.43-.68,2,2,0,0,1,1.55.11C134.11,103.8,133.75,104.1,133.09,104.24Z" class="cls-9"/><path d="M131.91,103.12a9.64,9.64,0,0,1-1.93.26c-.18,0-.28,0-.2-.12a3.54,3.54,0,0,1,1.12-.8,2.1,2.1,0,0,1,1.56,0C132.75,102.6,132.5,102.91,131.91,103.12Z" class="cls-9"/><path d="M130.26,102.14a9.2,9.2,0,0,1-1.79.45c-.17,0-.29,0-.24-.1a2.14,2.14,0,0,1,.74-.89,2.07,2.07,0,0,1,1.52-.2C130.86,101.55,130.75,101.88,130.26,102.14Z" class="cls-9"/><path d="M128.23,101.35a6.17,6.17,0,0,1-1.56.61c-.15.05-.29,0-.28-.07a1.35,1.35,0,0,1,.34-.94,1.74,1.74,0,0,1,1.41-.34C128.55,100.72,128.59,101.05,128.23,101.35Z" class="cls-9"/><path d="M125.87,100.78a4.54,4.54,0,0,1-1.25.75c-.13.06-.28,0-.32,0-.09-.24-.24-.71-.08-1a1.39,1.39,0,0,1,1.24-.47C125.92,100.13,126.1,100.45,125.87,100.78Z" class="cls-9"/><path d="M118,100.58c.15.23,0,.71-.1,1s-.19.11-.32.06a4.23,4.23,0,0,1-1.24-.74c-.22-.35,0-.65.43-.72A1.36,1.36,0,0,1,118,100.58Z" class="cls-9"/><path d="M115.53,101a1.4,1.4,0,0,1,.31.94c0,.09-.13.12-.29.08a6.09,6.09,0,0,1-1.53-.6c-.35-.29-.31-.62.1-.74A1.77,1.77,0,0,1,115.53,101Z" class="cls-9"/><path d="M113.27,101.72a2.05,2.05,0,0,1,.72.88c0,.08-.08.14-.25.11a8.31,8.31,0,0,1-1.77-.43c-.48-.25-.58-.58-.22-.74A2.11,2.11,0,0,1,113.27,101.72Z" class="cls-9"/><path d="M111.35,102.61a3.47,3.47,0,0,1,1.1.79c.07.08,0,.14-.2.13a9.63,9.63,0,0,1-1.93-.25c-.58-.19-.82-.51-.53-.68A2.23,2.23,0,0,1,111.35,102.61Z" class="cls-9"/><path d="M109.86,103.67a5.4,5.4,0,0,1,1.42.66c.11.07,0,.14-.14.15a11.15,11.15,0,0,1-2-.06c-.66-.13-1-.41-.83-.62A2.08,2.08,0,0,1,109.86,103.67Z" class="cls-9"/><g class="cls-10"><path d="M157.1,109.8l1.16.58a5.45,5.45,0,0,1-4.33,2.67,17.62,17.62,0,0,1-10.43-3.11,9.78,9.78,0,0,0-11.22.12,18.48,18.48,0,0,1-20.8.19,9.78,9.78,0,0,0-11.22.1,20.88,20.88,0,0,1-4.55,2.35,10.54,10.54,0,0,1-1.12.35,18.68,18.68,0,0,1-4.7.58h-.37a17.53,17.53,0,0,1-10.06-3.11l0,0a9,9,0,0,0-5.59-1.71,8.68,8.68,0,0,0-5.59,1.83,30.44,30.44,0,0,1-2.65,1.54,16.17,16.17,0,0,1-5.38,1.61h0a20,20,0,0,1-2.05.15h-.28a17.68,17.68,0,0,1-10.43-3.12l-.06,0a9.91,9.91,0,0,0-3.28-1.49,10.33,10.33,0,0,0-2.29-.2,4.31,4.31,0,0,1-1.73-.34l-.3-.14c-.1,0-.19-.1-.29-.15l.34-.16a7.1,7.1,0,0,1,.69-2.1c-2.78-.84-5-4.47-5.33-9,.41-5.09,3.11-9,6.42-9a17.61,17.61,0,0,1,10.43,3.12A8.7,8.7,0,0,0,57.67,93a9,9,0,0,0,5.6-1.82,17.64,17.64,0,0,1,10.37-3.31,17.44,17.44,0,0,1,10.16,3l.26.16a8.79,8.79,0,0,0,5.63,1.71,9,9,0,0,0,5.6-1.82,17.81,17.81,0,0,1,8-3.17,20.06,20.06,0,0,1,2.32-.14,17.59,17.59,0,0,1,10.43,3.11,8.79,8.79,0,0,0,5.63,1.71,8.9,8.9,0,0,0,5.6-1.83,18.46,18.46,0,0,1,20.79-.19,8.79,8.79,0,0,0,5.63,1.7c3.38,0,6.19,4,6.62,9.21-.3,3.7-1.81,6.78-3.89,8.19Z" class="cls-11"/></g><path d="M160.4,99.78a15.14,15.14,0,0,1-.05,1.52c-.3,3.69-1.81,6.77-3.89,8.18a4.51,4.51,0,0,1-2.53.84,17.62,17.62,0,0,1-10.43-3.11,9.78,9.78,0,0,0-11.22.12,18.48,18.48,0,0,1-20.8.19,9.78,9.78,0,0,0-11.22.1A21,21,0,0,1,95.67,110h0a17.08,17.08,0,0,1-4.54.89c-.4,0-.81.05-1.24.05h-1c-.61,0-1.18-.07-1.73-.14A17.23,17.23,0,0,1,80,108.13l-.48-.29-.85-.51c-.27-.17-.45-.25-.68-.37a8.21,8.21,0,0,0-4.09-.84,8.06,8.06,0,0,0-4,.89,17.75,17.75,0,0,0-1.56.93,20.58,20.58,0,0,1-4.74,2.42,19.43,19.43,0,0,1-10.65.28,19.45,19.45,0,0,1-5.4-2.51l-.54-.32a10.54,10.54,0,0,0-1.84-.92l-.34-.11a7.53,7.53,0,0,0-1-.24,12.69,12.69,0,0,0-1.85-.13h0a4,4,0,0,1-1.29-.19c-2.78-.84-5-4.47-5.33-9q-.06-.62-.06-1.23c0-5.8,2.85-10.5,6.48-10.54a17.59,17.59,0,0,1,10.43,3.12,8.73,8.73,0,0,0,5.63,1.7,8.87,8.87,0,0,0,5.59-1.82,18.45,18.45,0,0,1,20.8-.2,10.21,10.21,0,0,0,3.12,1.47A9.6,9.6,0,0,0,89.7,90a8.81,8.81,0,0,0,5.59-1.82A25.53,25.53,0,0,1,98.6,86.3a17.3,17.3,0,0,1,7.06-1.45A17.61,17.61,0,0,1,116.09,88a8.75,8.75,0,0,0,5.63,1.7,8.93,8.93,0,0,0,5.59-1.82,18.45,18.45,0,0,1,20.8-.2,8.68,8.68,0,0,0,5.62,1.71C157.37,89.34,160.35,94,160.4,99.78Z" class="cls-12"/><path d="M37.57,90.06c0,14,120.44,13.46,120.44,0,0-32.25-27-47.26-60.22-47.26S37.57,57.81,37.57,90.06Z" class="cls-2"/><ellipse cx="48.91" cy="86.67" class="cls-9" rx="4.11" ry=".79" transform="translate(-43.38 123.9) rotate(-82.53)"/><ellipse cx="61.92" cy="79.23" class="cls-9" rx=".79" ry="4.11" transform="translate(-36.11 56.86) rotate(-39.14)"/><ellipse cx="87.14" cy="90.91" class="cls-9" rx="4.11" ry=".79" transform="translate(-38.61 84.29) rotate(-43.2)"/><ellipse cx="99.62" cy="76.3" class="cls-9" rx="4.11" ry=".79" transform="translate(-8.7 12.95) rotate(-7.13)"/><ellipse cx="84.13" cy="48.86" class="cls-9" rx="4.11" ry=".79" transform="translate(-7.35 15.73) rotate(-10.24)"/><ellipse cx="102.1" cy="59.46" class="cls-9" rx="4.1" ry=".79" transform="translate(-9.06 19.42) rotate(-10.41)"/><ellipse cx="85.64" cy="65.53" class="cls-9" rx=".79" ry="4.11" transform="translate(-0.18 130.83) rotate(-74.69)"/><ellipse cx="102.57" cy="91.8" class="cls-9" rx=".79" ry="4.11" transform="translate(9.41 193.14) rotate(-89.24)"/><ellipse cx="124.27" cy="93.2" class="cls-9" rx=".79" ry="4.11" transform="translate(-28.42 64.63) rotate(-26.27)"/><ellipse cx="114.3" cy="79.3" class="cls-9" rx="4.11" ry=".79" transform="translate(-23.82 95.94) rotate(-41.62)"/><ellipse cx="132.98" cy="81.53" class="cls-9" rx="4.11" ry=".79" transform="translate(-20.58 108.9) rotate(-41.62)"/><ellipse cx="115.09" cy="49.37" class="cls-9" rx=".79" ry="4.11" transform="translate(35.67 146.19) rotate(-73.86)"/><ellipse cx="124.93" cy="65.65" class="cls-9" rx=".79" ry="4.11" transform="matrix(0.28, -0.96, 0.96, 0.28, 26.93, 167.21)"/><ellipse cx="138.98" cy="66.88" class="cls-9" rx=".79" ry="4.11" transform="translate(36.1 181.79) rotate(-73.86)"/><ellipse cx="147.05" cy="83.86" class="cls-9" rx=".79" ry="4.11" transform="translate(25.61 201.81) rotate(-73.86)"/><ellipse cx="69.06" cy="61.33" class="cls-9" rx="4.11" ry=".79" transform="translate(-22.33 74.7) rotate(-49.93)"/><ellipse cx="80.47" cy="79.12" class="cls-9" rx=".79" ry="4.11" transform="translate(-10.38 12.18) rotate(-8.13)"/><ellipse cx="66.94" cy="90.8" class="cls-9" rx="4.11" ry=".79" transform="translate(-45.64 83.57) rotate(-49.93)"/><ellipse cx="52.12" cy="64.47" class="cls-9" rx="4.11" ry=".79" transform="translate(-30.77 62.86) rotate(-49.93)"/></g></g></g></svg>