<svg xmlns="http://www.w3.org/2000/svg" viewBox="0 0 192.29 192.29"><defs><style>.cls-1{fill:#fff;stroke:#580787;stroke-miterlimit:10;stroke-width:8px;}.cls-2{fill:#3d7dc5;}.cls-3{fill:#303030;}.cls-4{opacity:0.7;}.cls-5,.cls-8{fill:#f1f1f1;}.cls-6{fill:#ccc;}.cls-7{fill:#6ed0d2;}.cls-8{opacity:0.41;}.cls-15,.cls-8{isolation:isolate;}.cls-9{fill:gray;}.cls-10{fill:#ffda5d;}.cls-11{fill:#ff2c68;}.cls-12{fill:#00c25f;}.cls-13{fill:#2aabe2;}.cls-14{fill:#999;}.cls-15{fill:#e8e7c3;opacity:0.58;}</style></defs><title>games_1</title><g id="Laag_2" data-name="Laag 2"><g id="icoontjes"><circle class="cls-1" cx="96.14" cy="96.14" r="92.14"/><rect class="cls-2" x="85.09" y="44.97" width="76.36" height="101.82" rx="3.56" transform="translate(-22.18 39.04) rotate(-16.53)"/><path class="cls-3" d="M144.05,49l19.52,65.74a7.48,7.48,0,0,1-5,9.3h0l-49.44,14.69a7.46,7.46,0,0,1-9.29-5h0L80.27,67.92a7.49,7.49,0,0,1,5-9.3h0l49.44-14.68a7.47,7.47,0,0,1,9.29,5v0Z"/><g class="cls-4"><path class="cls-5" d="M126.81,46.3l-22.12,92.38a7.48,7.48,0,0,1-4.89-5l-2.26-7.58,18.34-76.55Z"/><path class="cls-5" d="M136.51,43.64,114.1,137.23l-3.85,1.14,22.48-93.82,2-.6A7.48,7.48,0,0,1,136.51,43.64Z"/><polygon class="cls-5" points="148.74 64.79 153 79.12 140.99 129.25 132.72 131.71 148.74 64.79"/></g><path class="cls-5" d="M137.2,142.78a4.93,4.93,0,1,1,3.32-6.13h0A4.93,4.93,0,0,1,137.2,142.78Zm-2.29-7.68a3.08,3.08,0,1,0,3.84,2.08,3.07,3.07,0,0,0-3.84-2.08Z"/><path class="cls-6" d="M33.46,74.44l12.59-3.71a.62.62,0,0,1,.78.45l.92,3.4a.67.67,0,0,1-.43.82l-12.6,3.72a.64.64,0,0,1-.78-.46L33,75.26A.67.67,0,0,1,33.46,74.44Z"/><path class="cls-6" d="M66,64.85l12.56-3.69a.62.62,0,0,1,.78.45L80.27,65a.67.67,0,0,1-.44.82l-12.55,3.7a.64.64,0,0,1-.79-.46l-.91-3.38A.68.68,0,0,1,66,64.85Z"/><path class="cls-7" d="M28,78.52,85.31,61.59a4,4,0,0,1,4.94,2.91L96,86.05a4.23,4.23,0,0,1-2.78,5.18l-57.36,17A4,4,0,0,1,31,105.27L25.18,83.72A4.26,4.26,0,0,1,28,78.52Z"/><polygon class="cls-3" points="40.07 77.63 74.8 67.4 80.67 89.17 45.94 99.39 40.07 77.63"/><polygon class="cls-8" points="57.48 72.49 44.99 95.87 42.89 88.08 50.04 74.69 57.48 72.49"/><polygon class="cls-8" points="75.31 69.73 76.29 73.4 65.5 93.62 62 94.65 75.31 69.73"/><polygon class="cls-8" points="77.29 77.06 77.67 78.52 70.39 92.17 68.97 92.59 77.29 77.06"/><path class="cls-9" d="M55.87,98.71l4-1.18a.15.15,0,0,1,.2.12l.25.91a.16.16,0,0,1-.12.2l-4,1.19a.16.16,0,0,1-.2-.12l-.25-.91A.16.16,0,0,1,55.87,98.71Z"/><path class="cls-9" d="M67.53,95.26l4-1.19a.17.17,0,0,1,.2.13l.25.9a.17.17,0,0,1-.12.21l-4,1.19a.17.17,0,0,1-.2-.12l-.25-.91A.17.17,0,0,1,67.53,95.26Z"/><ellipse class="cls-9" cx="41.79" cy="101.85" rx="2.68" ry="2.81"/><ellipse class="cls-10" cx="89.13" cy="75.59" rx="2.4" ry="2.51"/><ellipse class="cls-11" cx="81.48" cy="77.86" rx="2.4" ry="2.51"/><ellipse class="cls-12" cx="84.23" cy="72.72" rx="2.4" ry="2.51"/><ellipse class="cls-13" cx="86.39" cy="80.74" rx="2.4" ry="2.51"/><path class="cls-3" d="M40.26,89l.5,1.86a.38.38,0,0,1-.23.46l-9.42,2.79a.35.35,0,0,1-.43-.25L30.18,92a.38.38,0,0,1,.24-.46l9.41-2.79A.35.35,0,0,1,40.26,89Z"/><path class="cls-3" d="M33.16,86.42l1.78-.52a.35.35,0,0,1,.43.24L38,96a.37.37,0,0,1-.23.45L36,97a.35.35,0,0,1-.43-.25l-2.66-9.87A.36.36,0,0,1,33.16,86.42Z"/><path class="cls-6" d="M50,122.88l75.21,25.27h0l-9.32,27.76a5.21,5.21,0,0,1-6.59,3.28h0l-65.35-22a5.2,5.2,0,0,1-3.29-6.58h0L50,122.88Z"/><path class="cls-14" d="M66,91.88l65.15,21.9a5.31,5.31,0,0,1,3.34,6.71h0l-9.29,27.66h0L50,122.88h0l9.29-27.65A5.31,5.31,0,0,1,66,91.88Z"/><path class="cls-5" d="M101.75,139.12l6.22,2.09a.33.33,0,0,1,.21.39l-.54,1.57a.33.33,0,0,1-.39.21L101,141.29a.33.33,0,0,1-.21-.39l.54-1.57A.33.33,0,0,1,101.75,139.12Z"/><path class="cls-5" d="M68.37,127.9,74.59,130a.33.33,0,0,1,.21.39L74.26,132a.33.33,0,0,1-.39.21l-6.22-2.09a.32.32,0,0,1-.21-.39l.54-1.57A.33.33,0,0,1,68.37,127.9Z"/><rect class="cls-3" x="70.07" y="129.2" width="25.32" height="42.2" transform="translate(-86.09 180.86) rotate(-71.43)"/><polygon class="cls-15" points="86.88 138.34 60.01 151.68 62.9 143.09 78.29 135.44 86.88 138.34"/><polygon class="cls-15" points="105.9 147.59 104.56 151.62 81.32 163.16 77.28 161.8 105.9 147.59"/><polygon class="cls-15" points="103.2 155.65 102.66 157.26 86.96 165.06 85.35 164.53 103.2 155.65"/><rect class="cls-3" x="80.82" y="97.9" width="25.39" height="42.3" transform="translate(-49.17 169.67) rotate(-71.39)"/><polygon class="cls-15" points="97.33 107.23 70.46 120.59 73.35 112 88.74 104.36 97.33 107.23"/><polygon class="cls-15" points="116.36 116.5 114.99 120.53 91.75 132.08 87.73 130.71 116.36 116.5"/><polygon class="cls-15" points="113.65 124.56 113.11 126.17 97.41 133.98 95.8 133.44 113.65 124.56"/><path class="cls-9" d="M68.76,161.49l4.65,1.57a.19.19,0,0,1,.13.25l-.33,1a.2.2,0,0,1-.25.12l-4.65-1.57a.18.18,0,0,1-.12-.24l.33-1A.19.19,0,0,1,68.76,161.49Z"/><path class="cls-9" d="M82.25,166l4.65,1.57c.1.05.17.15.12.25l-.33,1a.18.18,0,0,1-.24.13L81.8,167.4a.2.2,0,0,1-.13-.25l.34-1A.19.19,0,0,1,82.25,166Z"/><circle class="cls-9" cx="53.15" cy="155.11" r="3.14"/><path class="cls-5" d="M62.77,113.18a3.87,3.87,0,1,1,4.9-2.44A3.89,3.89,0,0,1,62.77,113.18Zm2-6a2.41,2.41,0,1,0,1.53,3.08,2.45,2.45,0,0,0-1.53-3.08Z"/><path class="cls-5" d="M120.61,132.61a3.87,3.87,0,1,1,4.9-2.43h0A3.87,3.87,0,0,1,120.61,132.61Zm2-6a2.41,2.41,0,0,0-3,1.53,2.39,2.39,0,0,0,1.53,3.06,2.42,2.42,0,1,0,1.52-4.59Z"/><circle class="cls-10" cx="115.61" cy="162.13" r="2.81"/><circle class="cls-11" cx="106.77" cy="159.18" r="2.81"/><circle class="cls-12" cx="112.68" cy="156.24" r="2.81"/><circle class="cls-13" cx="109.7" cy="165.06" r="2.81"/><path class="cls-3" d="M59.76,142.24l-.68,2a.4.4,0,0,1-.52.25l-10.89-3.65a.4.4,0,0,1-.24-.52l.68-2.05a.4.4,0,0,1,.52-.24l10.88,3.65A.41.41,0,0,1,59.76,142.24Z"/><path class="cls-3" d="M54.51,135.11l2.05.68a.4.4,0,0,1,.24.52L53.15,147.2a.4.4,0,0,1-.52.24l-2-.68a.39.39,0,0,1-.25-.51L54,135.36A.44.44,0,0,1,54.51,135.11Z"/></g></g></svg>