<svg xmlns="http://www.w3.org/2000/svg" viewBox="0 0 192.29 192.29"><defs><style>.cls-1,.cls-14{fill:#fff;}.cls-1{stroke:#580787;stroke-miterlimit:10;stroke-width:8px;}.cls-2{fill:#b96e16;}.cls-3{fill:#d5a873;}.cls-4{fill:#b5441b;}.cls-5{fill:#f7931e;}.cls-6{fill:#b9470c;}.cls-7{fill:#fde9d2;}.cls-8{fill:#fabe78;}.cls-9{fill:#f15a24;}.cls-10{fill:gray;opacity:0.47;isolation:isolate;}.cls-11{fill:#ffbe88;}.cls-12{fill:#aeac6a;}.cls-13{fill:#e8e58d;}.cls-15{fill:#754c24;}.cls-16{fill:#ffacac;}.cls-17{fill:#42210b;}</style></defs><title>kat_1</title><g id="Laag_2" data-name="Laag 2"><g id="icoontjes"><circle class="cls-1" cx="96.14" cy="96.14" r="92.14"/><g id="Laag_1-2" data-name="Laag 1"><path class="cls-2" d="M85.43,106.42c0,.41,0,.65.08,1l0,.86c0,.58,0,1.14.07,1.7,0,1.13,0,2.24,0,3.35,0,2.21-.08,4.43-.22,6.64a98.37,98.37,0,0,1-1.69,13.25c-.46,2.2-1,4.4-1.63,6.58a62,62,0,0,1-2.32,6.5,50.33,50.33,0,0,1-3.17,6.26,43.23,43.23,0,0,1-4.26,5.8A5.13,5.13,0,0,1,64.32,152l.11-.16A32,32,0,0,0,67,147.32a40,40,0,0,0,1.91-5,52.93,52.93,0,0,0,1.28-5.4c.34-1.83.57-3.71.76-5.6a84.75,84.75,0,0,0,.24-11.49c-.09-1.93-.23-3.86-.44-5.77-.1-1-.21-1.91-.34-2.85-.06-.47-.13-.94-.2-1.39l-.12-.68c0-.2-.08-.47-.11-.58a7.81,7.81,0,0,1,15.09-4.06,7.69,7.69,0,0,1,.24,1.27Z"/><rect class="cls-3" x="56.53" y="148.33" width="16.6" height="12.26" rx="5.95"/><path class="cls-4" d="M64.09,160.58a.69.69,0,0,0-.11-.13,10.46,10.46,0,0,1-1.88-1.94,5.08,5.08,0,0,1-.77-2.39c-.09-1.79.84-4.24,2.85-4.88.44-.14.26-.69-.19-.63-2.45.33-3.78,2.95-3.89,5a6.46,6.46,0,0,0,2,4.94Z"/><path class="cls-5" d="M122.83,155.5c-6-18.87-26.37-29.07-41-42.16-3.06-2.55-5.36-5.36-8.43-7.66a17.63,17.63,0,0,0-5.66-3.35A19.69,19.69,0,0,1,87.48,82.69a19.29,19.29,0,0,1,5,.65l1,.15a58.52,58.52,0,0,1,11,5.68l.3.19c1.94,1.25,4,2.72,6.26,4.45q1.63,1.27,3.33,2.74c1.83,1.58,3.69,3.32,5.55,5.26q1.68,1.72,3.36,3.66,2.19,2.53,4.34,5.44,1.38,1.84,2.71,3.87L131,116h0a27.19,27.19,0,0,1-5.83,38A27.59,27.59,0,0,1,122.83,155.5Z"/><path class="cls-6" d="M110.94,93.8c-.06.09-.12.19-.19.28-5,7.65-11.91,12-12.3,11.74s.86-8.3,5.88-15.94l.34-.51C106.63,90.61,108.73,92.08,110.94,93.8Z"/><path class="cls-6" d="M119.83,101.81c-6,6.1-12.8,9-13.12,8.68s2-7.41,7.57-13.94C116.1,98.14,118,99.88,119.83,101.81Z"/><path class="cls-6" d="M127.53,110.91c-5.33,3.68-10.18,5.19-10.42,4.93s1.76-5.22,6.07-10.37C124.65,107.16,126.1,109,127.53,110.91Z"/><path class="cls-6" d="M132.89,118.89c-3.35,1.48-5.8,2-6,1.83s1-2.73,3.32-5.94c.26.39.52.78.77,1.18h0A29,29,0,0,1,132.89,118.89Z"/><path class="cls-7" d="M81.81,113.34c-3.06-2.55-5.36-5.36-8.43-7.66a17.63,17.63,0,0,0-5.66-3.35,19.36,19.36,0,0,0,.51,4.55c1.24,5.32,7.28,10.33,8.91,12.41s4.41,10.59,4.81,12.34.2,4.39.72,6.6a27.2,27.2,0,0,0,40.16,17.27C116.88,136.63,96.46,126.43,81.81,113.34Z"/><path class="cls-5" d="M94.62,106.42c0,.41.06.65.08,1l0,.86c0,.58,0,1.14.07,1.7,0,1.13,0,2.24,0,3.35,0,2.21-.07,4.43-.21,6.64A100,100,0,0,1,93,133.19c-.45,2.2-1,4.4-1.63,6.58a61.94,61.94,0,0,1-2.31,6.5,51.81,51.81,0,0,1-3.18,6.26,42.38,42.38,0,0,1-4.26,5.8A5.13,5.13,0,0,1,73.51,152l.11-.16a32,32,0,0,0,2.62-4.54,41.5,41.5,0,0,0,1.9-5,50.4,50.4,0,0,0,1.28-5.4c.35-1.83.58-3.71.77-5.6a86.4,86.4,0,0,0,.23-11.49c-.09-1.93-.23-3.86-.43-5.77-.1-1-.22-1.91-.35-2.85-.06-.47-.13-.94-.2-1.39l-.11-.68c0-.2-.08-.47-.11-.58a7.81,7.81,0,0,1,15.09-4.06,7.68,7.68,0,0,1,.23,1.27Z"/><path class="cls-8" d="M83,154.28v.35a5.94,5.94,0,0,1-3.23,5.22,6.42,6.42,0,0,1-3,.73H71.93a6.49,6.49,0,0,1-2.35-.44l-.25-.11a5.94,5.94,0,0,1-3.61-5.4v-.35a6,6,0,0,1,3.85-5.51,6.32,6.32,0,0,1,2.35-.44h4.89a6.13,6.13,0,0,1,2.39.46A6,6,0,0,1,83,154.28Z"/><path class="cls-9" d="M74.15,151.24l-.15,0a3.39,3.39,0,0,0-1.27.85,5.58,5.58,0,0,0-1.42,4,5,5,0,0,0,.59,2.11l.15.28.07.09a11,11,0,0,0,1.82,1.85,1.13,1.13,0,0,1,.1.13H72.12a5.32,5.32,0,0,1-1-1.19l-.11-.2a6.59,6.59,0,0,1-.91-3.57,5.91,5.91,0,0,1,2.23-4.36A3.7,3.7,0,0,1,74,150.6a.37.37,0,0,1,.38.15.3.3,0,0,1,0,.43A.35.35,0,0,1,74.15,151.24Z"/><path class="cls-10" d="M107.79,91.46c-6,3.73-17.58,5.11-26.58,5.27H79.86a38.73,38.73,0,0,1-10.68-1.79A19.69,19.69,0,0,1,92.44,83.33l1,.15A68.19,68.19,0,0,1,107.79,91.46Z"/><path class="cls-5" d="M115.57,78.86a55.49,55.49,0,0,0-6.18-5.17,4.92,4.92,0,0,1-2-4.18c0-.37,0-.74,0-1.12a26,26,0,1,0-52.09,0c0,.38,0,.75,0,1.12a4.92,4.92,0,0,1-2,4.18,55.49,55.49,0,0,0-6.18,5.17s15,15.21,33.55,15.58H82C100.61,94.07,115.57,78.86,115.57,78.86Z"/><path class="cls-5" d="M109,36.61c1.48,1.13,1.79,11.47-3.76,20.21a2.19,2.19,0,0,1-3,.65l-.15-.1L90.7,48.68a2.2,2.2,0,0,1-.42-3.07l.12-.14C97.4,37.85,107.47,35.47,109,36.61Z"/><path class="cls-11" d="M104.72,42.12c.82.64.66,6.64-2.63,12.2a2.2,2.2,0,0,1-3,.78L98.86,55l-5-3.83A2.21,2.21,0,0,1,93.44,48l.18-.2C98.13,43.2,103.89,41.49,104.72,42.12Z"/><path class="cls-5" d="M53.73,36.61c-1.48,1.13-1.79,11.47,3.76,20.21a2.19,2.19,0,0,0,3,.65l.15-.1L72,48.68a2.19,2.19,0,0,0,.41-3.07l-.11-.13C65.28,37.85,55.21,35.47,53.73,36.61Z"/><path class="cls-11" d="M58,42.12c-.82.64-.66,6.64,2.64,12.2a2.19,2.19,0,0,0,3,.78l.21-.15,5-3.84a2.19,2.19,0,0,0,.4-3.08,1.63,1.63,0,0,0-.17-.2C64.55,43.2,58.79,41.49,58,42.12Z"/><path class="cls-12" d="M100.92,62a18.71,18.71,0,0,1-.65,2.33c-.81,2.31-2.45,5.72-5.45,7.07-4.75,2.14-11.09-1.64-11.09-1.64A19.39,19.39,0,0,1,85.41,65a9.9,9.9,0,0,1,4.42-4.67C94.58,58.17,100.92,62,100.92,62Z"/><path class="cls-13" d="M100.27,64.29c-.81,2.31-2.45,5.72-5.45,7.07-4.75,2.14-11.09-1.64-11.09-1.64A19.39,19.39,0,0,1,85.41,65a10.56,10.56,0,0,1,5.75-3.58C94.62,60.78,98.11,62.72,100.27,64.29Z"/><ellipse cx="92.33" cy="65.84" rx="1.4" ry="4.7"/><circle class="cls-14" cx="94.24" cy="63.03" r="1.28"/><path class="cls-12" d="M61.77,62a18.71,18.71,0,0,0,.65,2.33c.81,2.31,2.45,5.72,5.45,7.07C72.62,73.5,79,69.72,79,69.72A19.37,19.37,0,0,0,77.28,65a9.9,9.9,0,0,0-4.42-4.67C68.11,58.17,61.77,62,61.77,62Z"/><path class="cls-13" d="M62.42,64.29c.81,2.31,2.45,5.72,5.45,7.07C72.62,73.5,79,69.72,79,69.72A19.37,19.37,0,0,0,77.28,65a10.6,10.6,0,0,0-5.75-3.58C68.08,60.78,64.58,62.72,62.42,64.29Z"/><ellipse cx="70.36" cy="65.84" rx="1.4" ry="4.7"/><circle class="cls-14" cx="72.02" cy="63.03" r="1.28"/><path class="cls-15" d="M81.76,84.23V79.12a.45.45,0,0,0-.9,0v5.11a.45.45,0,0,0,.9,0Z"/><path class="cls-15" d="M71.2,81.28a9.15,9.15,0,0,0,1.46,2.93A4.66,4.66,0,0,0,75.2,86a4.15,4.15,0,0,0,1.53.07,5.85,5.85,0,0,0,1.53-.45A11.36,11.36,0,0,0,81,83.88h0a.44.44,0,1,1,.57.66h0a12.11,12.11,0,0,1-3,1.79,7,7,0,0,1-1.73.44,4.57,4.57,0,0,1-1.8-.14,4.43,4.43,0,0,1-1.6-.82,6.12,6.12,0,0,1-1.22-1.27A8.7,8.7,0,0,1,71.34,83a10.54,10.54,0,0,1-.58-1.63.23.23,0,0,1,.16-.28.23.23,0,0,1,.28.15Z"/><path class="cls-15" d="M91.9,81.41A10.58,10.58,0,0,1,91.31,83a9.09,9.09,0,0,1-.87,1.51,6.08,6.08,0,0,1-1.21,1.27,4.7,4.7,0,0,1-1.6.83,4.8,4.8,0,0,1-1.81.14,7.27,7.27,0,0,1-1.72-.45,12.44,12.44,0,0,1-3-1.78.44.44,0,0,1-.06-.62.44.44,0,0,1,.59-.08h0a11.59,11.59,0,0,0,2.76,1.77,6.24,6.24,0,0,0,1.53.44A4.25,4.25,0,0,0,87.47,86,4.68,4.68,0,0,0,90,84.21a8.93,8.93,0,0,0,1.45-2.93h0a.23.23,0,0,1,.45.13Z"/><path class="cls-16" d="M84.21,77.12c0,1.33-2.29,2.4-2.87,2.4s-2.87-1.07-2.87-2.4S84.21,75.79,84.21,77.12Z"/><path class="cls-15" d="M77.59,87.65a3.67,3.67,0,0,0,.79.62,5.1,5.1,0,0,0,.92.42,6.3,6.3,0,0,0,2,.3,6.57,6.57,0,0,0,2-.33,4.37,4.37,0,0,0,.93-.43,4,4,0,0,0,.83-.59v0a.17.17,0,0,1,.24,0,.16.16,0,0,1,0,.23,4.54,4.54,0,0,1-1.83,1.28,6.09,6.09,0,0,1-2.19.42,5.75,5.75,0,0,1-2.21-.38,4.14,4.14,0,0,1-1.81-1.34.17.17,0,0,1,0-.23.18.18,0,0,1,.23,0Z"/><path class="cls-5" d="M152.88,125.55a33.9,33.9,0,0,1-.19,4.27c0,.31-.07.62-.12.94a24,24,0,0,1-1,4.59,21.06,21.06,0,0,1-1.13,2.74c-.09.17-.18.33-.26.5a17.84,17.84,0,0,1-1.29,2.07,20.76,20.76,0,0,1-1.92,2.27l-.12.12a23.25,23.25,0,0,1-2.05,1.79,30.5,30.5,0,0,1-4.59,2.84c-1.54.79-3,1.45-4.46,2.1A37.78,37.78,0,0,0,128,154l0,0a3,3,0,0,1-3.85-4.64c.67-.6,1.36-1.16,2.07-1.7s1.43-1,2.16-1.46c1.45-.92,2.9-1.72,4.29-2.49a46.58,46.58,0,0,0,6.35-3.9,12.17,12.17,0,0,0,.95-.8,11.49,11.49,0,0,0,3.63-6,16.27,16.27,0,0,0,.4-2.5,26.42,26.42,0,0,0-.07-4.79l-.06-.62c-.16-1.41-.4-2.83-.7-4.26,0-.21-.09-.42-.14-.63-.27-1.23-.58-2.45-.92-3.68l-.21-.74c-.65-2.28-1.42-4.56-2.24-6.83l-.39-1.05c-.39-1-.79-2.1-1.21-3.16q-1.17-2.94-2.45-5.87c-.59-1.34-1.2-2.69-1.81-4s-1.21-2.62-1.83-3.93h0a6,6,0,0,1,10.85-5.15c.07.14.13.29.19.43.49,1.29,1,2.58,1.45,3.88.53,1.47,1.06,2.94,1.58,4.42.74,2.15,1.47,4.34,2.14,6.53.38,1.21.74,2.42,1.09,3.65l.3,1.08c.68,2.45,1.3,4.92,1.82,7.45.08.37.16.75.23,1.12.26,1.3.48,2.62.67,4l.15,1c.21,1.69.36,3.42.43,5.17C152.88,124.82,152.88,125.18,152.88,125.55Z"/><path class="cls-6" d="M146,94.45a36.81,36.81,0,0,1-5.29,2.83,25,25,0,0,1-5.13,1.58c-.59-1.35-1.2-2.7-1.81-4a24.68,24.68,0,0,1,4.66-2.72,36.22,36.22,0,0,1,6-2.06C145,91.5,145.52,93,146,94.45Z"/><path class="cls-6" d="M149.57,105.71a39.45,39.45,0,0,1-4.88,2.07,24.08,24.08,0,0,1-5,1.15c-.12-.35-.25-.7-.38-1-.39-1.06-.79-2.11-1.21-3.16a24.1,24.1,0,0,1,4.77-2.3,38.12,38.12,0,0,1,5.35-1.46c.37,1.21.74,2.43,1.08,3.66C149.37,105,149.47,105.35,149.57,105.71Z"/><path class="cls-6" d="M152.29,118.23a39.21,39.21,0,0,1-4.25,1.28,24.85,24.85,0,0,1-5,.67c-.27-1.23-.58-2.45-.92-3.68l-.21-.74a23.34,23.34,0,0,1,4.8-1.74,39.08,39.08,0,0,1,4.69-.86c.08.37.15.74.23,1.12C151.87,115.58,152.1,116.9,152.29,118.23Z"/><path class="cls-6" d="M152.88,125.55a33.9,33.9,0,0,1-.19,4.27c0,.31-.07.62-.12.94a40.63,40.63,0,0,1-4.13.18,24.5,24.5,0,0,1-4.44-.46,26.33,26.33,0,0,0-.07-4.78,23.11,23.11,0,0,1,4.54-.42A38.11,38.11,0,0,1,152.88,125.55Z"/><path class="cls-6" d="M150.13,138.6a19.39,19.39,0,0,1-1.3,2.07,19.7,19.7,0,0,1-1.92,2.27l-.12.12c-.89-.23-1.81-.51-2.74-.83a24.22,24.22,0,0,1-5-2.41A10.33,10.33,0,0,0,140,139a11.82,11.82,0,0,0,2.47-3,22.54,22.54,0,0,1,3.44.88A39.1,39.1,0,0,1,150.13,138.6Z"/><path class="cls-6" d="M80.32,47.34c0,5.79-2.5,10.48-2.83,10.48s-2.82-4.69-2.82-10.47a34.5,34.5,0,0,1,.23-4.19A26.53,26.53,0,0,1,80,42.39,34.21,34.21,0,0,1,80.32,47.34Z"/><path class="cls-6" d="M88,47.34c0,5.79-2.5,10.48-2.83,10.48s-2.83-4.69-2.83-10.48a34.25,34.25,0,0,1,.33-5,25.77,25.77,0,0,1,5.09.77A36.65,36.65,0,0,1,88,47.34Z"/><path class="cls-5" d="M133.91,139.58a21,21,0,0,1-20.6,21H84.94a7.21,7.21,0,0,1-.28-14.42H97A21,21,0,0,1,96,139.57a33.53,33.53,0,0,1,.39-5.2,25.35,25.35,0,0,1,1.32-5.12,18.21,18.21,0,0,1,2.92-5.19,14.3,14.3,0,0,1,5-4,16.68,16.68,0,0,1,7.3-1.53h.29a21,21,0,0,1,18.87,12.36h0A21,21,0,0,1,133.91,139.58Z"/><path class="cls-6" d="M132.06,130.94h0a17.85,17.85,0,0,1-3.78,5.79,10.47,10.47,0,0,1-4.74,3.09c-.06-.29,4.41-7.33,4.08-15.23A21.15,21.15,0,0,1,132.06,130.94Z"/><path class="cls-6" d="M121.92,130.12a10.4,10.4,0,0,1-2.18,5.21c-.21-.2-.48-8.6-5.24-15a19.08,19.08,0,0,0-1.31-1.79,20.72,20.72,0,0,1,7.61,1.54A17.64,17.64,0,0,1,121.92,130.12Z"/><path class="cls-6" d="M114.08,133.76c-.29,0-5.23-6.84-12.75-9.41-.24-.11-.48-.2-.72-.29a14.21,14.21,0,0,1,5-4,17.68,17.68,0,0,1,7.35,8.11A10.48,10.48,0,0,1,114.08,133.76Z"/><path class="cls-6" d="M108.52,135.64c-.23.11-5.83-1.87-12.15-1.26a25.28,25.28,0,0,1,1.32-5.13,17.91,17.91,0,0,1,6.78,2.45A10.57,10.57,0,0,1,108.52,135.64Z"/><path class="cls-6" d="M96.78,146.25a21.34,21.34,0,0,1-1.2-7.64,30.3,30.3,0,0,1,1-7.69,19.68,19.68,0,0,1,3.41-7,15.21,15.21,0,0,1,2.82-2.79,14.94,14.94,0,0,1,3.46-2,18.27,18.27,0,0,1,7.78-1.17,21.28,21.28,0,0,1,14.05,6.32,21.54,21.54,0,0,1,4.38,6.45l0,.1v.1h0l0-.2a21.37,21.37,0,0,1,1.34,4.34,20.57,20.57,0,0,1,.37,4.5.31.31,0,0,1-.31.29h0a.31.31,0,0,1-.3-.29,22,22,0,0,0-.55-4.35,20.55,20.55,0,0,0-1.43-4.1l0-.09v-.11h0l0,.2a20.73,20.73,0,0,0-10.44-10.19,20.46,20.46,0,0,0-7.18-1.71,17.63,17.63,0,0,0-7.26,1,13.88,13.88,0,0,0-3.2,1.77,14.49,14.49,0,0,0-2.63,2.56,19.78,19.78,0,0,0-3.34,6.6,31.18,31.18,0,0,0-1.16,7.43,22.6,22.6,0,0,0,.11,3.77,22.08,22.08,0,0,0,.77,3.68.25.25,0,0,1-.16.33h0A.28.28,0,0,1,96.78,146.25Z"/><path class="cls-8" d="M105.25,153.39a7.26,7.26,0,0,1-7.27,7.2l-13.12,0a7.26,7.26,0,0,1-5.13-2.12,7.15,7.15,0,0,1-2.12-5.11,7.25,7.25,0,0,1,7.27-7.19l13.12,0a7.24,7.24,0,0,1,5.12,2.12A7.16,7.16,0,0,1,105.25,153.39Z"/><path class="cls-9" d="M88.64,149.25c-2.33.8-3.41,3.9-3.3,6.14a6.87,6.87,0,0,0,.88,3,10.15,10.15,0,0,0,1.93,2.19H85.88a8.75,8.75,0,0,1-2-5.81c.13-2.6,1.67-5.89,4.5-6.31a.41.41,0,0,1,.5.29.4.4,0,0,1-.28.5Z"/><path class="cls-17" d="M75.45,78.43a25.5,25.5,0,0,0-4.17-2.35c-.73-.34-1.47-.64-2.22-.93l-1.14-.41-1.15-.35a36.07,36.07,0,0,0-4.71-1.07c-.8-.14-1.61-.21-2.41-.29A12.09,12.09,0,0,0,58.44,73l-1.21-.06h0a.1.1,0,0,1-.09-.1h0a.1.1,0,0,1,.1-.09h0l1.22,0c.4,0,.81,0,1.22,0,.81.07,1.62.11,2.43.23a35.71,35.71,0,0,1,4.8.94l1.18.33,1.15.38c.77.27,1.54.56,2.3.88a26.38,26.38,0,0,1,4.37,2.3.38.38,0,0,1-.42.64h0Z"/><path class="cls-17" d="M74.73,80.48A27.31,27.31,0,0,0,70,79.87a35.6,35.6,0,0,0-9.65.84c-.79.16-1.57.4-2.35.62-.4.1-.77.25-1.16.37l-1.15.4h0a.09.09,0,0,1-.12-.06.09.09,0,0,1,0-.12l1.15-.43c.38-.14.76-.3,1.16-.42.77-.25,1.55-.51,2.35-.69A36.36,36.36,0,0,1,70,79.24a28,28,0,0,1,4.93.51.39.39,0,0,1,.31.45h0a.39.39,0,0,1-.46.3h0Z"/><path class="cls-17" d="M86.8,77.81a26.38,26.38,0,0,1,4.37-2.3c.75-.32,1.51-.61,2.29-.88l1.17-.38,1.18-.33a35.68,35.68,0,0,1,4.8-.93c.8-.13,1.62-.17,2.43-.23.4,0,.81,0,1.22-.05l1.22,0a.09.09,0,0,1,.09.09.1.1,0,0,1-.09.1h0l-1.21.06c-.4,0-.8,0-1.21.08-.8.09-1.6.15-2.4.3a33.35,33.35,0,0,0-4.73,1.07l-1.15.36-1.14.4c-.75.29-1.5.59-2.22.93a25.5,25.5,0,0,0-4.17,2.35h0a.38.38,0,0,1-.53-.09.37.37,0,0,1,.09-.53h0Z"/><path class="cls-17" d="M87.79,79.75a28,28,0,0,1,4.93-.51,36,36,0,0,1,9.74,1.14c.8.19,1.58.45,2.36.69.39.11.77.27,1.16.41l1.14.44a.09.09,0,0,1,.06.12.1.1,0,0,1-.12.06h0l-1.15-.4c-.39-.13-.77-.28-1.16-.38-.78-.21-1.56-.45-2.36-.61a36,36,0,0,0-9.65-.85,28.45,28.45,0,0,0-4.77.62h0a.38.38,0,0,1-.46-.29.38.38,0,0,1,.29-.46Z"/><circle class="cls-15" cx="74.67" cy="82.79" r="0.35"/><circle class="cls-15" cx="78.17" cy="80.38" r="0.35"/><circle class="cls-15" cx="77.82" cy="83.38" r="0.35"/><circle class="cls-15" cx="87.36" cy="82.79" r="0.35"/><circle class="cls-15" cx="83.87" cy="80.38" r="0.35"/><circle class="cls-15" cx="84.21" cy="83.38" r="0.35"/></g></g></g></svg>