<svg xmlns="http://www.w3.org/2000/svg" viewBox="0 0 192.29 192.29"><defs><style>.cls-1{fill:#fff;stroke:#580787;stroke-miterlimit:10;stroke-width:8px}.cls-2{fill:#ff4950}.cls-3{fill:#4d9d9a}.cls-4{fill:#71ddd8}.cls-5{fill:#00365f}.cls-6{fill:#ccc}.cls-7{fill:#b5b5b5}.cls-8{fill:#999}.cls-9{fill:#0072bf}.cls-10{fill:#f1f1f1}</style></defs><title>kledij_1</title><g id="Laag_2" data-name="Laag 2"><g id="icoontjes"><circle cx="96.14" cy="96.14" r="92.14" class="cls-1"/><path d="M118.92,53.21a1.85,1.85,0,0,0-1.29-2.41l-22.54-5h0l-9.18,2.28A1.72,1.72,0,0,0,84.6,50a10.53,10.53,0,0,1-20.38,5.07,1.72,1.72,0,0,0-2-1.08l-8.87,2.2h0l-.28.25L36.59,71a1.85,1.85,0,0,0-.09,2.62l.08.07L51,87.42a1.64,1.64,0,0,0,2.31,0,1.54,1.54,0,0,0,.23-.29l2.28-3.55a1.69,1.69,0,0,1,3.08.69l5.91,28.25a1.76,1.76,0,0,0,2.09,1.41l43-10.68A1.75,1.75,0,0,0,111,101l-8.13-28.19a1.69,1.69,0,0,1,2.36-2.07l4.59,2.45a1.63,1.63,0,0,0,2.21-.66,1.31,1.31,0,0,0,.12-.27Z" class="cls-2"/><path d="M133.3,148.61a.52.52,0,0,1-.37.32,16,16,0,0,1-15-4.34.52.52,0,0,1-.15-.47q4.92-25.2,11.72-49.85a.46.46,0,0,0,0-.2.52.52,0,0,0-.24-.37h0a.52.52,0,0,0-.21-.07.47.47,0,0,0-.36.1.58.58,0,0,0-.13.15q-12.63,22.26-27,43.56a.51.51,0,0,1-.43.23,16,16,0,0,1-13.71-7.56.53.53,0,0,1,0-.49q10.72-24.3,23.29-47.6l.44-.81q1.95-3.61,4-7.21l.45-.82h0l0-.05,1.91-4.63a.51.51,0,0,1,.66-.27h0L155,83.47a.53.53,0,0,1,.27.67l-2.14,5.18s0,0,0,.05l-.09.31h0q-1.12,4-2.3,7.92l-.24.82Q142.89,123.81,133.3,148.61Z" class="cls-3"/><polygon points="153.01 89.69 143.57 85.78 142.59 85.38 134.44 82 133.58 81.65 125.42 78.27 124.45 77.87 115.11 74 115.56 73.19 125.39 77.25 134.36 80.97 143.33 84.68 153.33 88.82 153.01 89.69" class="cls-4"/><path d="M110.73,82l.09.06.76.34a10.73,10.73,0,0,0,10.18-.74,13.86,13.86,0,0,0,3.68-3.4c.14-.19.22-.31.23-.33a.47.47,0,0,0-.17-.64h0l-.07,0a.51.51,0,0,0-.62.17s-.11.17-.32.45a13.22,13.22,0,0,1-3.34,3,9.73,9.73,0,0,1-9.9.34l-.07,0Z" class="cls-4"/><path d="M150.49,98.44a.78.78,0,0,1-.22,0l-.78-.3a10.69,10.69,0,0,1-6.68-7.73,13.84,13.84,0,0,1-.2-5,2.87,2.87,0,0,1,.07-.39.46.46,0,0,1,.57-.33h0l.08,0a.49.49,0,0,1,.32.55s0,.21-.09.55a13.35,13.35,0,0,0,.22,4.5,9.76,9.76,0,0,0,6.77,7.24.56.56,0,0,1,.17.09C150.65,97.89,150.57,98.16,150.49,98.44Z" class="cls-4"/><path d="M134.66,81.61l-5.1,12.33a.57.57,0,0,1-.08.13.49.49,0,0,0-.24-.37h0a.52.52,0,0,0-.21-.07.47.47,0,0,0-.36.1.4.4,0,0,1,0-.15l5.1-12.32a.47.47,0,0,1,.6-.29.46.46,0,0,1,.28.59.08.08,0,0,1,0,0Z" class="cls-4"/><path d="M62,107.77l-.58-4a2.77,2.77,0,1,0-5.49.8h0l0,.25L50,102a2.77,2.77,0,0,0-5.38.21l-4.95,10.19,32.94,16,6.06-12.48Z" class="cls-5"/><path d="M60.56,112.61a1.38,1.38,0,0,1-.64-1.85l2.3-4.74a1.39,1.39,0,1,1,2.54,1.12l-.05.09L62.41,112A1.38,1.38,0,0,1,60.56,112.61Z" class="cls-6"/><path d="M64.05,114.31a1.39,1.39,0,0,1-.64-1.85l2.3-4.75a1.39,1.39,0,0,1,2.53,1.15l0,.07-2.31,4.74A1.39,1.39,0,0,1,64.05,114.31Z" class="cls-6"/><path d="M67.55,116a1.39,1.39,0,0,1-.65-1.85l2.3-4.74a1.39,1.39,0,1,1,2.54,1.12.36.36,0,0,1,0,.09l-2.3,4.74A1.38,1.38,0,0,1,67.55,116Z" class="cls-6"/><path d="M71,117.7a1.38,1.38,0,0,1-.64-1.85h0l2.3-4.74a1.39,1.39,0,1,1,2.57,1,1.19,1.19,0,0,1-.08.16l-2.3,4.76A1.39,1.39,0,0,1,71,117.7Z" class="cls-6"/><path d="M85.13,134.41a13.86,13.86,0,0,0-6.41-18.53h0l-6.06,12.48Z" class="cls-7"/><rect width="4.72" height="51.59" x="60.25" y="97.83" class="cls-8" rx=".64" transform="translate(-75.95 125.98) rotate(-64.11)"/><path d="M54.19,108l-.57-4a2.78,2.78,0,0,0-5.5.8l0,.25-5.92-2.88a2.77,2.77,0,0,0-5.39.2l-5,10.2,32.94,16L70.9,116.1Z" class="cls-9"/><path d="M52.75,112.83a1.39,1.39,0,0,1-.64-1.86l2.3-4.73a1.37,1.37,0,0,1,1.84-.67,1.4,1.4,0,0,1,.67,1.85l0,0-2.3,4.74A1.39,1.39,0,0,1,52.75,112.83Z" class="cls-10"/><path d="M56.24,114.52a1.38,1.38,0,0,1-.64-1.85h0l2.3-4.74a1.39,1.39,0,0,1,2.54,1.12l0,.09-2.3,4.74A1.38,1.38,0,0,1,56.24,114.52Z" class="cls-10"/><path d="M59.73,116.22a1.38,1.38,0,0,1-.64-1.85h0l2.3-4.74a1.39,1.39,0,0,1,2.5,1.21l-2.3,4.74a1.39,1.39,0,0,1-1.85.64Z" class="cls-10"/><path d="M63.23,117.92a1.39,1.39,0,0,1-.65-1.85h0l2.31-4.74a1.38,1.38,0,1,1,2.53,1.12.36.36,0,0,1,0,.09l-2.3,4.74A1.38,1.38,0,0,1,63.23,117.92Z" class="cls-10"/><path d="M77.32,134.62a13.87,13.87,0,0,0-6.42-18.53h0l-6.06,12.48Z" class="cls-10"/><rect width="4.72" height="51.59" x="52.44" y="98.05" class="cls-6" rx=".64" transform="translate(-80.54 119.07) rotate(-64.11)"/></g></g></svg>