<svg xmlns="http://www.w3.org/2000/svg" viewBox="0 0 192.29 192.29"><defs><style>.cls-1,.cls-11{fill:#fff;}.cls-1{stroke:#580787;stroke-miterlimit:10;stroke-width:8px;}.cls-2{fill:#868686;}.cls-3{fill:#3b3939;}.cls-4{fill:#e7d7c6;}.cls-5{fill:#ff0020;}.cls-6{fill:#aea194;}.cls-7{fill:#0072ba;}.cls-8{fill:#08234e;}.cls-9{fill:#00b4ca;}.cls-10{fill:#67e2cd;}.cls-12{fill:#c5b7ab;}.cls-13{fill:#7a010d;}</style></defs><title>raket</title><g id="Laag_2" data-name="Laag 2"><g id="icoontjes"><circle class="cls-1" cx="96.14" cy="96.14" r="92.14"/><polygon class="cls-2" points="83.02 135.51 86.53 144.93 91.2 144.93 89.44 135.51 83.02 135.51"/><polygon class="cls-2" points="90.57 135.51 92.32 144.93 97.04 144.93 97.04 135.51 90.57 135.51"/><path class="cls-2" d="M77.82,135.51c1.19,3.34,2.58,6.49,4,9.42h3.57l-3.52-9.42Z"/><polygon class="cls-2" points="98.13 135.51 98.13 144.93 102.85 144.93 104.61 135.51 98.13 135.51"/><path class="cls-2" d="M113.35,135.51l-3.53,9.42h3.85a77,77,0,0,0,3.58-9.42Z"/><polygon class="cls-2" points="105.73 135.51 103.97 144.93 108.64 144.93 112.16 135.51 105.73 135.51"/><polygon class="cls-3" points="81.82 135.51 85.34 144.93 86.53 144.93 83.02 135.51 81.82 135.51"/><polygon class="cls-3" points="89.44 135.51 91.2 144.93 92.32 144.93 90.57 135.51 89.44 135.51"/><rect class="cls-3" x="97.04" y="135.51" width="1.1" height="9.42"/><polygon class="cls-3" points="104.61 135.51 102.85 144.93 103.97 144.93 105.73 135.51 104.61 135.51"/><polygon class="cls-3" points="112.16 135.51 108.64 144.93 109.83 144.93 113.35 135.51 112.16 135.51"/><path class="cls-4" d="M128.89,103.09c0-36.27-24.38-65.67-31.6-65.67s-31.6,29.4-31.6,65.67c0,13.23,5,25.54,9.84,35.84h44.74C124.71,129.16,128.89,116.32,128.89,103.09Z"/><path class="cls-5" d="M113.56,53.06a119.8,119.8,0,0,0-32.54,0c6.38-9.76,13-15.64,16.27-15.64S107.18,43.3,113.56,53.06Z"/><path class="cls-6" d="M128.94,97.89a254,254,0,0,0-63.3,0,1.81,1.81,0,0,1-1.84-1.83,2,2,0,0,1,1.48-2.27,255.89,255.89,0,0,1,64,0,2,2,0,0,1,1.48,2.27A1.8,1.8,0,0,1,128.94,97.89Z"/><circle class="cls-7" cx="97.29" cy="71.03" r="13.38"/><circle class="cls-8" cx="97.29" cy="71.99" r="11.07"/><path class="cls-9" d="M108.61,71a11.32,11.32,0,1,1-1.93-6.32A11.31,11.31,0,0,1,108.61,71Z"/><path class="cls-10" d="M108.61,71A11.33,11.33,0,0,1,91,80.43a11.32,11.32,0,0,1,15.7-15.72A11.31,11.31,0,0,1,108.61,71Z"/><circle class="cls-11" cx="94.17" cy="67.91" r="3.69"/><circle class="cls-11" cx="97.86" cy="62.79" r="1.08"/><path class="cls-12" d="M104.79,136h-15l-1.71-17.93a5.49,5.49,0,0,1,5-5.94l.52,0H101a5.48,5.48,0,0,1,5.54,5.43c0,.18,0,.35,0,.53Z"/><path class="cls-13" d="M62.21,151.6H60.28c-2.91-23.75,6.49-36.12,6.49-36.12a3.73,3.73,0,0,1,2-.53c2.41,5.93,6.87,21.63,7.53,23.8C68.85,140.22,62.21,151.6,62.21,151.6Z"/><path class="cls-5" d="M64.1,151.6H61.45C59.38,127.9,68.74,115,68.74,115s6,7.25,9.2,22.61a1.24,1.24,0,0,1-.76,1.45C70.15,141.24,64.1,151.6,64.1,151.6Z"/><path class="cls-13" d="M132.4,151.6h1.93c2.91-23.75-6.49-36.12-6.49-36.12a3.69,3.69,0,0,0-2-.53c-2.41,5.93-6.87,21.63-7.54,23.8C125.76,140.22,132.4,151.6,132.4,151.6Z"/><path class="cls-5" d="M130.51,151.6h2.66c2.07-23.7-7.29-36.65-7.29-36.65s-6,7.25-9.18,22.61a1.23,1.23,0,0,0,.76,1.45C124.46,141.24,130.51,151.6,130.51,151.6Z"/></g></g></svg>