<svg xmlns="http://www.w3.org/2000/svg" viewBox="0 0 315.28 241.44"><defs><style>.cls-1{fill:#ff787d;}.cls-2{fill:#fc233f;}.cls-3{fill:#fff;}.cls-4{fill:#580787;}.cls-5{fill:#b7233f;}.cls-6{fill:#e7abe3;}.cls-7{fill:#ae80ab;}.cls-8{fill:#4f4a2e;}.cls-9{fill:#f2f2f2;}.cls-10{fill:#9d935c;}.cls-11{fill:#d1c47a;}.cls-12{fill:#b5b5b5;}.cls-13{fill:#00ea60;}</style></defs><title>rugzak_juist</title><g id="Laag_2" data-name="Laag 2"><g id="Laag_6" data-name="Laag 6"><path class="cls-1" d="M101.17,67.49H81A28.45,28.45,0,0,1,58.12,55.81a31.89,31.89,0,0,1-4.93-28L54.92,22C58.71,9.1,69.89.44,82.72.44H99.44c12.84,0,24,8.66,27.81,21.54L129,27.83a31.89,31.89,0,0,1-4.93,28A28.45,28.45,0,0,1,101.17,67.49ZM82.72,13.73c-6.9,0-13,4.82-15.08,12l-1.73,5.85a18.54,18.54,0,0,0,2.83,16.27A15.3,15.3,0,0,0,81,54.21h20.17a15.32,15.32,0,0,0,12.26-6.35,18.54,18.54,0,0,0,2.83-16.27l-1.74-5.85c-2.12-7.19-8.17-12-15.09-12Z"/><path class="cls-2" d="M163.51,229.22c-.86.71-1.75,1.39-2.66,2a53.88,53.88,0,0,1-31.74,10.18h-76a54,54,0,0,1-31.74-10.16q-1.35-1-2.64-2a50.12,50.12,0,0,1-18.18-46l16-112C20.13,45.88,42.57,27,69.07,27h44c26.5,0,48.94,18.87,52.56,44.21l16,112A50.25,50.25,0,0,1,163.51,229.22Z"/><path class="cls-1" d="M91.08,99c-6.64,0-23-8-23-20.08,0-7.38,8.39-11.61,23-11.61s23,4.23,23,11.61C114.11,91,97.72,99,91.08,99Z"/><path class="cls-3" d="M91.09,96.19a8.85,8.85,0,0,1-2.35-.35.55.55,0,0,1-.4-.68.57.57,0,0,1,.68-.41,8.43,8.43,0,0,0,2.06.32h0a7.74,7.74,0,0,0,1.08-.1.56.56,0,1,1,.19,1.1h0A7.68,7.68,0,0,1,91.09,96.19Zm4.45-1.06a.56.56,0,0,1-.57-.55.55.55,0,0,1,.37-.53,30.85,30.85,0,0,0,3-1.39.56.56,0,1,1,.52,1,30,30,0,0,1-3.16,1.44.48.48,0,0,1-.2,0Zm-9.88-.39a.54.54,0,0,1-.22,0,32.41,32.41,0,0,1-3.12-1.56.56.56,0,0,1-.26-.75.58.58,0,0,1,.76-.26l.06,0a29.89,29.89,0,0,0,3,1.49.57.57,0,0,1,.29.74.56.56,0,0,1-.52.34ZM101.58,92a.56.56,0,0,1-.56-.56.55.55,0,0,1,.25-.47,32.44,32.44,0,0,0,2.7-2,.56.56,0,0,1,.79,0,.56.56,0,0,1,0,.79l-.06,0a31.35,31.35,0,0,1-2.79,2.06.57.57,0,0,1-.31.1Zm-21.87-.6a.5.5,0,0,1-.31-.1,30,30,0,0,1-2.72-2.16.56.56,0,1,1,.74-.83,32.89,32.89,0,0,0,2.63,2.08.56.56,0,0,1,.13.78.57.57,0,0,1-.44.23Zm27.11-3.77a.56.56,0,0,1-.56-.57.53.53,0,0,1,.15-.37,19.62,19.62,0,0,0,2-2.6.56.56,0,0,1,.77-.22.55.55,0,0,1,.21.76.09.09,0,0,1,0,.06,19.33,19.33,0,0,1-2.16,2.76.57.57,0,0,1-.4.18Zm-32.17-.78a.6.6,0,0,1-.43-.2,18.65,18.65,0,0,1-2-2.89.56.56,0,0,1,.26-.75.55.55,0,0,1,.72.21,17.44,17.44,0,0,0,1.89,2.7.56.56,0,0,1-.07.79h0a.52.52,0,0,1-.36.14Zm35.78-5a.48.48,0,0,1-.18,0,.56.56,0,0,1-.36-.71,9.5,9.5,0,0,0,.54-3.16.58.58,0,0,1,.57-.57h0a.57.57,0,0,1,.56.56h0a11.24,11.24,0,0,1-.6,3.54A.57.57,0,0,1,110.43,81.88Zm-39-1a.56.56,0,0,1-.54-.43,10.23,10.23,0,0,1-.3-2.46,4.06,4.06,0,0,1,.18-1.2.57.57,0,0,1,.69-.41.55.55,0,0,1,.4.68.14.14,0,0,1,0,.06,3.16,3.16,0,0,0-.13.87,9.67,9.67,0,0,0,.27,2.2.56.56,0,0,1-.42.67h0a.32.32,0,0,1-.14,0Zm38.09-5.3a.57.57,0,0,1-.38-.16,10,10,0,0,0-2.73-1.69.56.56,0,1,1,.46-1,11.11,11.11,0,0,1,3,1.88.56.56,0,0,1-.39,1Zm-36.11-.66a.57.57,0,0,1-.32-1,14.23,14.23,0,0,1,3.16-1.6.56.56,0,1,1,.39,1,13.33,13.33,0,0,0-2.92,1.47A.57.57,0,0,1,73.44,74.91Zm30-2.26a.39.39,0,0,1-.15,0c-1-.27-2.12-.51-3.28-.71a.56.56,0,0,1,.18-1.1c1.21.2,2.35.45,3.39.73a.57.57,0,0,1,.39.7.57.57,0,0,1-.53.4Zm-23.7-.25a.56.56,0,0,1-.13-1.11c1.06-.25,2.2-.46,3.41-.63a.56.56,0,0,1,.63.48.55.55,0,0,1-.47.63c-1.17.17-2.28.38-3.31.63Zm17-.91h0c-1.1-.11-2.23-.18-3.38-.23a.55.55,0,0,1-.5-.61.57.57,0,0,1,.55-.51c1.16,0,2.31.12,3.43.23a.57.57,0,0,1,.54.59.56.56,0,0,1-.59.53ZM86.48,71.4a.57.57,0,0,1,0-1.13c1.12-.08,2.28-.14,3.44-.16h0a.56.56,0,0,1,0,1.12c-1.14,0-2.27.08-3.38.16Z"/><path class="cls-4" d="M21.13,115.54c.19-9.83.77-19.61,1.45-29.37l.27-3.65L23,80.69l0-.46.07-.51.13-1a46.32,46.32,0,0,1,1.71-8.15l.68-2,.34-1a6.85,6.85,0,0,1,.38-1c.58-1.27,1.15-2.56,1.77-3.82l2.1-3.66c.79-1.17,1.6-2.32,2.43-3.46a51.11,51.11,0,0,1,28-18.23,36.94,36.94,0,0,1,4.18-.88l2.11-.32,1.06-.14C68.29,36,68.65,36,69,36l2.13-.12,1.06,0c.35,0,.74-.05,1-.05l3.66,0,14.64-.07,14.63.07,3.66.06c.29,0,.67,0,1,0l1.07,0L114,36c.35,0,.71,0,1.06.08l1.06.15,2.11.31a34.71,34.71,0,0,1,4.17.88,51,51,0,0,1,27.93,18.24c.81,1.15,1.64,2.29,2.42,3.46l2.08,3.66c.63,1.25,1.18,2.55,1.76,3.82s.94,2.63,1.4,4a47.08,47.08,0,0,1,1.69,8.14l.13,1,.06.5,0,.46.13,1.83.26,3.66c.32,4.88.63,9.77.87,14.66s.42,9.8.5,14.72a2.22,2.22,0,0,1-4.37.62q-2-7.11-3.65-14.26c-1.15-4.77-2.22-9.54-3.27-14.32L149.64,84l-.39-1.79-.1-.45-.11-.39-.21-.77A37.56,37.56,0,0,0,140,64.23c-.71-.76-1.46-1.46-2.19-2.2l-.28-.28-.31-.25-.6-.49-1.18-1a38.9,38.9,0,0,0-5.11-3.42,39.76,39.76,0,0,0-11.42-4.27,27.66,27.66,0,0,0-3-.52l-1.49-.15-.75-.09c-.25,0-.51,0-.77,0l-1.52,0-.76,0c-.26,0-.49,0-.81,0l-3.66.05-14.64.07-14.64-.06-3.67-.07H72.4l-.76,0-1.53,0a6.44,6.44,0,0,0-.76,0l-.76.09-1.51.18a25.4,25.4,0,0,0-3,.51,40.09,40.09,0,0,0-11.4,4.29,39.39,39.39,0,0,0-9.62,7.62,37.13,37.13,0,0,0-6.75,10.4,38.13,38.13,0,0,0-2,6l-.21.77-.11.39-.09.45L33.5,84l-.76,3.59c-2.09,9.56-4.26,19.11-6.84,28.6a2.43,2.43,0,0,1-4.78-.69Z"/><path class="cls-3" d="M24.69,118.37a.63.63,0,0,1-.3-1.19h0a1.77,1.77,0,0,0,.91-1.11l.32-1.11a.62.62,0,0,1,.76-.45.63.63,0,0,1,.46.77l-.32,1.11A3.05,3.05,0,0,1,25,118.31.58.58,0,0,1,24.69,118.37ZM158.07,118a.59.59,0,0,1-.4-.15,2.85,2.85,0,0,1-.95-1.45l-.47-1.73a.64.64,0,0,1,.45-.78.63.63,0,0,1,.77.45h0l.47,1.73a1.55,1.55,0,0,0,.53.8.64.64,0,0,1,.11.89.67.67,0,0,1-.51.24Zm2.9-.08a.63.63,0,0,1-.64-.62.64.64,0,0,1,.22-.48,1.59,1.59,0,0,0,.52-1.17l0-1.3a.63.63,0,0,1,.61-.65h0a.65.65,0,0,1,.63.63l0,1.27a2.85,2.85,0,0,1-.94,2.16A.64.64,0,0,1,161,117.88Zm-139.2,0a.63.63,0,0,1-.46-.2,3,3,0,0,1-.82-2.09v-.07c0-1,0-2.1.06-3.14a.64.64,0,0,1,.65-.62.63.63,0,0,1,.61.65c0,1,0,2.1-.07,3.16a1.81,1.81,0,0,0,.48,1.25.63.63,0,0,1-.46,1.07Zm5.25-5.2a.44.44,0,0,1-.16,0,.61.61,0,0,1-.45-.76h0l.78-3.06a.64.64,0,0,1,.77-.46.65.65,0,0,1,.46.78c-.26,1-.52,2-.79,3.06A.62.62,0,0,1,27,112.68Zm129-.64a.62.62,0,0,1-.61-.47c-.27-1-.54-2-.79-3.07a.63.63,0,0,1,1.22-.32c.26,1,.52,2,.79,3.06a.63.63,0,0,1-.45.77h0A.45.45,0,0,1,156.05,112Zm5.55-.27a.63.63,0,0,1-.62-.63c0-1-.06-2.1-.1-3.14a.63.63,0,0,1,.6-.65.61.61,0,0,1,.65.6c0,1,.08,2.1.1,3.17a.63.63,0,0,1-.6.65ZM21.3,109.85h0a.63.63,0,0,1-.61-.65h0l.12-3.16a.66.66,0,0,1,.66-.61.63.63,0,0,1,.61.65h0c0,1-.09,2.1-.13,3.14a.63.63,0,0,1-.63.63Zm7.26-3.3-.15,0a.64.64,0,0,1-.45-.76l.75-3.08a.63.63,0,0,1,.76-.46.62.62,0,0,1,.46.76h0c-.24,1-.49,2.05-.74,3.08A.62.62,0,0,1,28.56,106.55Zm125.93-.63a.63.63,0,0,1-.61-.48c-.25-1-.5-2-.74-3.08a.62.62,0,0,1,.46-.76.63.63,0,0,1,.76.47l.75,3.07a.63.63,0,0,1-.46.76h-.16Zm6.9-.46a.63.63,0,0,1-.63-.61c0-1-.09-2.09-.15-3.14a.63.63,0,0,1,.6-.66.63.63,0,0,1,.66.6c0,1,.1,2.1.14,3.16a.63.63,0,0,1-.59.66h0ZM21.56,103.54h0a.64.64,0,0,1-.6-.66h0c.06-1.05.11-2.1.17-3.16a.63.63,0,0,1,1.25.07h0c-.05,1-.11,2.1-.16,3.16a.62.62,0,0,1-.62.59ZM30,100.4l-.15,0a.63.63,0,0,1-.47-.75h0c.23-1,.47-2.05.71-3.08a.62.62,0,0,1,.75-.47.62.62,0,0,1,.48.75c-.23,1-.47,2.06-.71,3.09a.63.63,0,0,1-.61.49Zm123-.63a.63.63,0,0,1-.63-.49l-.71-3.08a.63.63,0,0,1,.47-.76.62.62,0,0,1,.76.47l.72,3.08a.63.63,0,0,1-.47.76H153Zm8.07-.63a.63.63,0,0,1-.63-.6c0-1.05-.11-2.1-.17-3.14a.63.63,0,1,1,1.26-.07c.06,1,.12,2.1.17,3.16a.63.63,0,0,1-.59.66h0ZM21.91,97.22h0a.64.64,0,0,1-.6-.66h0c.07-1,.13-2.1.2-3.16a.63.63,0,1,1,1.25.08c-.06,1-.13,2.1-.19,3.14A.62.62,0,0,1,21.91,97.22Zm9.51-3-.14,0a.62.62,0,0,1-.48-.74h0l.69-3.09a.63.63,0,1,1,1.23.27h0c-.22,1-.44,2.06-.67,3.09A.62.62,0,0,1,31.42,94.23Zm120.17-.63a.62.62,0,0,1-.63-.49L150.27,90a.63.63,0,1,1,1.23-.27l.69,3.08a.62.62,0,0,1-.47.75h-.13Zm9.11-.78a.63.63,0,0,1-.63-.59c-.06-1.06-.13-2.11-.2-3.15a.64.64,0,0,1,.59-.67.63.63,0,0,1,.67.59l.2,3.16a.63.63,0,0,1-.58.67h-.05ZM22.31,90.9h0a.63.63,0,0,1-.59-.67h0c.07-1,.14-2.1.21-3.15a.63.63,0,1,1,1.26.08l-.21,3.15A.64.64,0,0,1,22.31,90.9ZM32.8,88.05a.63.63,0,0,1-.64-.61.76.76,0,0,1,0-.15l.66-3.1a.63.63,0,0,1,1.24.27l-.66,3.09a.63.63,0,0,1-.62.5Zm117.44-.63a.62.62,0,0,1-.63-.5L149,83.83a.62.62,0,0,1,.48-.75.64.64,0,0,1,.76.49h0l.66,3.09a.64.64,0,0,1-.48.75h-.13Zm10.09-.92a.62.62,0,0,1-.63-.58l-.23-3.14a.63.63,0,1,1,1.25-.09l.23,3.14a.63.63,0,0,1-.57.68h0ZM22.74,84.59h0a.63.63,0,0,1-.58-.67h0l.24-3.14a.63.63,0,0,1,.68-.58.64.64,0,0,1,.58.68L23.37,84A.63.63,0,0,1,22.74,84.59Zm11.4-2.72a.63.63,0,0,1-.64-.62.57.57,0,0,1,0-.18l.16-.6c.19-.79.43-1.63.7-2.47a.64.64,0,0,1,1.21.39h0c-.26.81-.49,1.62-.68,2.4l-.17.63A.63.63,0,0,1,34.14,81.87Zm114.68-.63a.61.61,0,0,1-.62-.48c-.24-1-.52-1.94-.88-3a.63.63,0,0,1,.39-.8.64.64,0,0,1,.81.39c.37,1.07.67,2.09.91,3.09a.63.63,0,0,1-.46.76h0l-.12,0Zm11-1a.64.64,0,0,1-.63-.56l-.11-.85c-.08-.74-.18-1.49-.31-2.26a.63.63,0,0,1,1.25-.21c.14.8.25,1.57.32,2.33l.11.83a.64.64,0,0,1-.54.71h-.09ZM23.33,78.3a.11.11,0,0,1-.08,0,.63.63,0,0,1-.55-.7h0c.14-1,.32-2.06.57-3.16a.63.63,0,1,1,1.23.27h0c-.23,1.07-.41,2.07-.54,3.06a.63.63,0,0,1-.62.53Zm12.76-2.45a.47.47,0,0,1-.24,0A.62.62,0,0,1,35.5,75h0l.24-.57c.35-.8.72-1.57,1.12-2.35a.63.63,0,0,1,1.12.58h0c-.38.74-.74,1.51-1.08,2.27-.08.18-.15.36-.23.55A.62.62,0,0,1,36.09,75.85Zm110.71-.59a.6.6,0,0,1-.44-.19.52.52,0,0,1-.14-.19h0c-.41-.94-.87-1.89-1.36-2.8a.63.63,0,0,1,1.11-.6c.51,1,1,1.89,1.4,2.87a.08.08,0,0,1,0,0l0,.1v.1a.62.62,0,0,1-.18.48.69.69,0,0,1-.45.2Zm12-1.29a.64.64,0,0,1-.63-.49c-.21-.86-.45-1.76-.73-2.73l-.09-.26a.63.63,0,0,1,.39-.8.64.64,0,0,1,.81.39h0l.09.29c.3,1,.55,1.93.76,2.82a.63.63,0,0,1-.46.76h-.14ZM24.66,72.11a.62.62,0,0,1-.63-.62.57.57,0,0,1,0-.18c.08-.31.17-.63.27-.94l.71-2.1a.63.63,0,0,1,.8-.39.62.62,0,0,1,.39.8h0l-.7,2.07-.26.91A.6.6,0,0,1,24.66,72.11ZM39,70.25a.67.67,0,0,1-.34-.1.62.62,0,0,1-.21-.86h0c.57-.91,1.19-1.81,1.82-2.65a.64.64,0,0,1,.89-.12.62.62,0,0,1,.12.88c-.63.82-1.2,1.68-1.76,2.56A.62.62,0,0,1,39,70.25Zm104.81-.54a.63.63,0,0,1-.53-.29c-.57-.86-1.18-1.71-1.81-2.51a.63.63,0,0,1,.11-.89.64.64,0,0,1,.89.11c.65.84,1.28,1.72,1.88,2.61a.64.64,0,0,1-.17.88.65.65,0,0,1-.36.1Zm13.09-1.79a.64.64,0,0,1-.59-.4c-.08-.22-.17-.44-.26-.65l-.45-1-.54-1.21a.63.63,0,1,1,1.15-.53c.18.41.36.82.55,1.22l.45,1c.1.24.2.47.28.7a.63.63,0,0,1-.35.82h0a.59.59,0,0,1-.23,0ZM26.81,66.17a.58.58,0,0,1-.26-.06.63.63,0,0,1-.32-.83h0c.39-.87.83-1.86,1.3-2.8l.07-.12A.63.63,0,0,1,28.7,63h0l-.05.09c-.43.88-.87,1.86-1.25,2.71a.63.63,0,0,1-.59.38Zm16-1a.64.64,0,0,1-.47-1h0c.09-.11.19-.21.28-.31.63-.68,1.28-1.35,2-2a.62.62,0,0,1,.89,0,.63.63,0,0,1,0,.89c-.66.63-1.3,1.25-1.89,1.92l-.27.32a.7.7,0,0,1-.49.2Zm97.11-.47a.61.61,0,0,1-.45-.2c-.37-.39-.76-.76-1.14-1.13l-.94-.95-.16-.16a.63.63,0,0,1,.9-.89l.16.17c.32.31.62.63.92.91s.79.77,1.16,1.17a.63.63,0,0,1-.45,1.07Zm14.28-2.52a.59.59,0,0,1-.55-.31l-1.55-2.71a.63.63,0,1,1,1-.71l.2.28,1.42,2.49a.63.63,0,0,1-.23.86.62.62,0,0,1-.32.09ZM47.39,60.87a.61.61,0,0,1-.64-.61.6.6,0,0,1,.24-.51c.83-.67,1.7-1.31,2.59-1.91a.63.63,0,0,1,.88.11.62.62,0,0,1-.11.88l-.08.05c-.86.59-1.7,1.21-2.51,1.85a.65.65,0,0,1-.37.14Zm-17.66-.31a.64.64,0,0,1-.56-.94h0l.47-.83c.44-.65.87-1.26,1.29-1.86a.63.63,0,1,1,1,.73l-1.25,1.8-.45.79a.62.62,0,0,1-.55.32Zm105.51-.08a.68.68,0,0,1-.39-.13c-.89-.69-1.72-1.29-2.53-1.82a.64.64,0,1,1,.7-1.06c.84.56,1.69,1.17,2.6,1.89a.62.62,0,0,1,.14.87.65.65,0,0,1-.52.26ZM52.61,57.31A.63.63,0,0,1,52,56.7a.61.61,0,0,1,.33-.57l.08-.05c.91-.5,1.85-1,2.78-1.42A.65.65,0,0,1,56,55a.63.63,0,0,1-.31.84h0c-.9.43-1.81.89-2.69,1.38l-.07,0A.61.61,0,0,1,52.61,57.31ZM130,57a.68.68,0,0,1-.31-.08c-.92-.49-1.86-.94-2.79-1.38a.63.63,0,1,1,.51-1.15c1,.43,1.93.91,2.88,1.42a.63.63,0,0,1-.31,1.19Zm20.82-.12a.65.65,0,0,1-.52-.26l-.41-.56c-.47-.63-1-1.26-1.5-1.87a.64.64,0,0,1,1-.82c.53.63,1.06,1.29,1.55,1.94l.43.59a.64.64,0,0,1-.14.88.58.58,0,0,1-.38.12ZM33.33,55.36a.62.62,0,0,1-.63-.62.68.68,0,0,1,.14-.41c.66-.82,1.36-1.64,2.09-2.42a.64.64,0,0,1,.9,0,.63.63,0,0,1,0,.9c-.7.77-1.39,1.57-2,2.37a.63.63,0,0,1-.51.24Zm25-.72a.63.63,0,0,1-.65-.6.64.64,0,0,1,.43-.63c1-.37,2-.71,3.05-1a.63.63,0,0,1,.35,1.21c-1,.29-2,.61-3,1a.54.54,0,0,1-.22,0Zm65.84-.22a.52.52,0,0,1-.21,0c-1-.35-2-.66-3-.94a.64.64,0,0,1-.45-.77h0a.63.63,0,0,1,.76-.46h0c1,.27,2.06.59,3.07.94a.61.61,0,0,1,.41.78.63.63,0,0,1-.63.45ZM64.41,52.91a.63.63,0,1,1-.12-1.25l.45-.09a15,15,0,0,1,2.31-.36l.41-.06a.63.63,0,0,1,.15,1.26l-.45.06a14.28,14.28,0,0,0-2.16.34l-.47.09Zm53.66-.12h-.18a14.73,14.73,0,0,0-2-.32l-1-.11a.65.65,0,0,1-.55-.71.64.64,0,0,1,.7-.55h0l1,.11a17.16,17.16,0,0,1,2.13.34.66.66,0,0,1,.52.75.64.64,0,0,1-.59.49Zm-26.55-.58H89.66a.63.63,0,1,1,0-1.26h3.15a.63.63,0,1,1,0,1.26Zm4.46,0a.63.63,0,0,1-.62-.63.63.63,0,0,1,.62-.63h3.17a.63.63,0,0,1,.62.63.63.63,0,0,1-.62.63Zm-9.48,0h0l-3.17,0a.63.63,0,1,1,0-1.26H86.5a.63.63,0,0,1,0,1.26Zm-15.8,0a.63.63,0,1,1,0-1.25l1.91-.06c.2,0,.4,0,.66,0h.63a.63.63,0,1,1,0,1.25H72.67l-1.93.06Zm9.49,0H77a.63.63,0,1,1,0-1.25h3.17a.63.63,0,0,1,0,1.25Zm22.13,0a.63.63,0,0,1,0-1.25h3.17a.63.63,0,0,1,0,1.25Zm9.49,0h0l-1.39,0H110l-1.38,0a.65.65,0,0,1-.64-.63.63.63,0,0,1,.61-.65h1.82l1.36,0a.63.63,0,0,1,.62.64.61.61,0,0,1-.63.62Zm34.9-.08a.64.64,0,0,1-.45-.19c-.72-.74-1.47-1.47-2.24-2.18a.63.63,0,0,1-.05-.89.64.64,0,0,1,.9,0c.79.72,1.57,1.47,2.3,2.24a.62.62,0,0,1,0,.88.64.64,0,0,1-.45.19ZM37.61,50.71a.6.6,0,0,1-.46-.19.63.63,0,0,1,0-.89h0c.77-.74,1.57-1.46,2.38-2.14a.63.63,0,0,1,.82,1h0c-.8.67-1.58,1.37-2.33,2.09A.57.57,0,0,1,37.61,50.71ZM142,47.8a.62.62,0,0,1-.39-.14c-.81-.62-1.65-1.27-2.5-1.88a.62.62,0,0,1-.15-.88.63.63,0,0,1,.88-.16c.87.62,1.73,1.26,2.56,1.93a.63.63,0,0,1,.11.88.6.6,0,0,1-.51.24ZM42.43,46.65a.64.64,0,0,1-.51-.26.63.63,0,0,1,.13-.88h0c.85-.63,1.73-1.26,2.63-1.83a.63.63,0,1,1,.68,1.06c-.87.56-1.73,1.16-2.56,1.78a.72.72,0,0,1-.37.13Zm94.42-2.48a.64.64,0,0,1-.33-.1c-.89-.54-1.8-1.06-2.71-1.57a.62.62,0,0,1-.26-.85.63.63,0,0,1,.86-.26c.94.5,1.88,1,2.77,1.59a.62.62,0,0,1,.23.86.61.61,0,0,1-.56.31Zm-89.12-1a.64.64,0,0,1-.65-.61.65.65,0,0,1,.34-.58c.92-.52,1.89-1,2.83-1.48a.63.63,0,0,1,.55,1.13c-.94.46-1.86,1-2.76,1.46a.61.61,0,0,1-.3.08Zm83.54-2a.58.58,0,0,1-.26-.06c-.94-.43-1.91-.84-2.88-1.21a.63.63,0,0,1,.46-1.18c1,.38,2,.8,2.95,1.25a.63.63,0,0,1,.33.83.62.62,0,0,1-.6.38Zm-77.86-.77a.63.63,0,0,1-.24-1.21q1.48-.62,3-1.14a.63.63,0,0,1,.8.4.62.62,0,0,1-.39.8h0c-1,.34-2,.71-2.92,1.11A.69.69,0,0,1,53.41,40.42Zm72-1.51a.58.58,0,0,1-.19,0c-1-.31-1.94-.58-2.91-.82l-.09,0a.63.63,0,0,1-.46-.77.64.64,0,0,1,.77-.46l.09,0c1,.25,2,.53,3,.85a.63.63,0,0,1-.19,1.23Zm-66-.54a.63.63,0,0,1-.16-1.24l1.21-.32.93-.22.94-.23a.63.63,0,1,1,.29,1.23h0l-.94.23-.95.23c-.38.09-.78.19-1.17.31Zm59.87-1h-.11l-1-.14-2.13-.31a.64.64,0,0,1-.55-.71h0a.63.63,0,0,1,.7-.54l2.14.32a9.67,9.67,0,0,1,1,.15.63.63,0,1,1-.11,1.25Zm-53.68-.29a.63.63,0,1,1-.09-1.25l2.37-.34q.38,0,.75-.06h.07a.63.63,0,0,1,.07,1.26h-.07a4.89,4.89,0,0,0-.66.05l-2.34.34h-.1ZM113,36.6h0l-2.4-.13c-.25,0-.5,0-.71,0a.63.63,0,0,1-.64-.61v0a.63.63,0,0,1,.63-.63h0a7.23,7.23,0,0,1,.78,0l2.4.13a.63.63,0,0,1,0,1.26Zm-41.11-.12a.63.63,0,1,1,0-1.25l.58,0c.27,0,.55,0,.77,0l1.84,0a.65.65,0,0,1,.63.62.63.63,0,0,1-.63.63l-1.82,0h0c-.24,0-.49,0-.73,0l-.59,0Zm34.79-.09h0l-3.16,0a.63.63,0,0,1-.62-.63.63.63,0,0,1,.62-.63h0l3.17,0a.63.63,0,1,1,0,1.25Zm-28.46,0a.63.63,0,1,1,0-1.25h3.16a.63.63,0,1,1,0,1.25Zm22.14,0H97.16a.64.64,0,0,1-.63-.63.63.63,0,0,1,.63-.63h3.17a.63.63,0,0,1,.62.63A.63.63,0,0,1,100.33,36.36Zm-15.82,0a.64.64,0,0,1-.63-.63.63.63,0,0,1,.63-.63h3.16a.63.63,0,0,1,.63.63.63.63,0,0,1-.63.63Zm9.49,0H90.84a.63.63,0,1,1,0-1.25H94a.63.63,0,1,1,0,1.25Z"/><path class="cls-5" d="M131.63,211.08H50.53a18.59,18.59,0,0,1-18.32-21.75l9.61-55.8a18.6,18.6,0,0,1,18.33-15.44H122a18.59,18.59,0,0,1,18.32,15.44l9.62,55.8a18.6,18.6,0,0,1-18.33,21.75Z"/><path class="cls-6" d="M141.23,152.28h-2.88a.68.68,0,0,1-.64-.72s0-.05,0-.08l.48-3.33a.65.65,0,0,1,.62-.58h2a.65.65,0,0,1,.62.58l.48,3.33a.68.68,0,0,1-.55.79Z"/><path class="cls-7" d="M143.25,162.15l-.79-8.82c-.09-.89-.54-1.57-1.07-1.57h-3.21c-.53,0-1,.66-1.06,1.57l-.79,8.82c-.1,1.12.4,2.12,1.06,2.12h4.8C142.85,164.27,143.35,163.27,143.25,162.15Zm-2.31,1.19h-2.31a1.39,1.39,0,1,1-.13-2.77h2.44a1.39,1.39,0,1,1,.14,2.77Z"/><path class="cls-1" d="M90.88,212.34a1.25,1.25,0,0,1-1.26-1.25v-5.7a1.27,1.27,0,1,1,2.53,0v5.69a1.25,1.25,0,0,1-1.25,1.26Zm0-11.38a1.25,1.25,0,0,1-1.26-1.26V194a1.27,1.27,0,0,1,2.53,0v5.7A1.26,1.26,0,0,1,90.91,201Zm0-11.39a1.25,1.25,0,0,1-1.26-1.26v-5.7a1.27,1.27,0,0,1,2.53,0v5.7a1.26,1.26,0,0,1-1.25,1.26Zm0-11.38a1.26,1.26,0,0,1-1.26-1.26v-5.7a1.27,1.27,0,1,1,2.53,0v5.69a1.26,1.26,0,0,1-1.25,1.27Zm0-11.39a1.25,1.25,0,0,1-1.26-1.26v-5.7a1.27,1.27,0,0,1,2.53,0v5.7a1.26,1.26,0,0,1-1.25,1.26Zm0-11.38a1.26,1.26,0,0,1-1.26-1.26v-5.7a1.27,1.27,0,1,1,2.53,0v5.69a1.26,1.26,0,0,1-1.25,1.27Zm0-11.39a1.25,1.25,0,0,1-1.26-1.26v-5.7a1.27,1.27,0,1,1,2.53,0v5.71A1.26,1.26,0,0,1,90.89,144h0Z"/><path class="cls-4" d="M138,149H44.19c-5.34,0-9.34-4.55-8.29-9.43h0c3.4-15.81,4.43-27.19,21.75-27.19h66.86c17.33,0,18.36,11.38,21.75,27.19h0C147.31,144.46,143.31,149,138,149Z"/><path class="cls-1" d="M169.5,196.43,155.76,86.81C152.62,61.83,133,43,110,43H72.17C49.24,43,29.55,61.83,26.41,86.81L12.66,196.43a54.5,54.5,0,0,0,6,32.81q1.29,1.06,2.64,2a53,53,0,0,1-7.4-34.69L27.67,87c3-24.35,22.19-42.71,44.5-42.71H110c22.31,0,41.46,18.36,44.51,42.71l13.75,109.62a53,53,0,0,1-7.4,34.67c.91-.65,1.8-1.33,2.66-2A54.5,54.5,0,0,0,169.5,196.43Z"/><path class="cls-8" d="M112.58,29.37,98.92,36.18l31.64,75.66a7.33,7.33,0,0,0,10.16,3.77l72.82-36.3L168.19,1.66Z"/><path class="cls-9" d="M209.54,78.39,140.6,112.74c-2.94,1.47-6.75-.72-8-3.71l-.4-1a6.24,6.24,0,0,1,2.95-7.92l67.53-33.65Z"/><polygon class="cls-9" points="208.94 77.35 205.63 79 161.7 2.04 164.57 0.6 208.94 77.35"/><path class="cls-10" d="M104.16,28.32c-3.9,1.94-5.87,6.36-4.38,9.89l30.34,72.6c-3.37-8.08,3.5-9.68,11.48-13.88L109.7,25.56Z"/><polygon class="cls-11" points="160.99 0 109.7 25.56 141.6 96.93 199.82 67.92 160.99 0"/><path class="cls-3" d="M158.27,28.85l-27,13.47a2.71,2.71,0,0,1-3.74-1.09l-5.2-11.14a2.76,2.76,0,0,1,1.49-3.53L150,13.47a2.81,2.81,0,0,1,3.74.94l5.86,10.81A2.69,2.69,0,0,1,158.27,28.85Z"/><path class="cls-10" d="M150.13,18.21,127.55,29.47a.58.58,0,0,1-.78-.21h0a.59.59,0,0,1,.3-.75l22.55-11.24a.59.59,0,0,1,.8.21.56.56,0,0,1-.28.74Z"/><path class="cls-10" d="M152,21.74,129.27,33.08a.57.57,0,0,1-.79-.21h0a.59.59,0,0,1,.31-.77l22.7-11.31a.62.62,0,0,1,.81.21.56.56,0,0,1-.28.75Z"/><path class="cls-10" d="M141.71,31.4,131,36.74a.58.58,0,0,1-.79-.22h0a.6.6,0,0,1,.32-.77l10.69-5.33a.56.56,0,0,1,.61.93l-.12.06Z"/><path class="cls-12" d="M142.78,99.56c2.32-1.21,4.66-2.4,7-3.6l7-3.55c4.67-2.37,9.36-4.71,14.05-7.06s9.38-4.66,14.09-7L192,74.93c2.36-1.14,4.71-2.29,7.07-3.42-2.32,1.21-4.66,2.4-7,3.59l-7,3.56c-4.68,2.37-9.37,4.7-14.05,7s-9.39,4.67-14.09,7l-7.06,3.46Z"/><path class="cls-12" d="M144.05,102.41q3.13-1.69,6.32-3.33t6.36-3.22c2.12-1.06,4.26-2.11,6.4-3.14s4.29-2,6.46-3q-3.14,1.69-6.32,3.33t-6.36,3.22q-3.19,1.59-6.4,3.14C148.36,100.4,146.21,101.42,144.05,102.41Z"/><path class="cls-2" d="M160.91,230.92a54,54,0,0,1-31.74,10.18h-76a54.07,54.07,0,0,1-31.74-10.16h0A53,53,0,0,1,14,196.24L27.73,86.63c3.05-24.35,22.19-42.71,44.5-42.71h37.82c22.31,0,41.46,18.36,44.51,42.71l13.75,109.61A53,53,0,0,1,160.91,230.92Z"/><path class="cls-1" d="M163.51,229.22c-.86.71-1.75,1.39-2.66,2a53,53,0,0,0,7.4-34.67L154.5,87c-3.05-24.35-22.19-42.71-44.5-42.71H72.17c-22.31,0-41.45,18.36-44.5,42.71L13.92,196.59a53,53,0,0,0,7.4,34.68h0q-1.35-1-2.64-2h0a54.54,54.54,0,0,1-6-32.8L26.41,86.81C29.55,61.83,49.24,43,72.17,43H110c22.95,0,42.62,18.83,45.76,43.81L169.5,196.43A54.5,54.5,0,0,1,163.51,229.22Z"/><path class="cls-1" d="M92.12,101.75c-6.64,0-23-8-23-20.09,0-7.37,8.39-11.61,23-11.61s23,4.24,23,11.61C115.14,93.74,98.75,101.75,92.12,101.75Z"/><path class="cls-3" d="M92.12,98.94a9.4,9.4,0,0,1-2.35-.34.56.56,0,0,1,.28-1.09,8.49,8.49,0,0,0,2.07.31h0a6.57,6.57,0,0,0,1.08-.1.56.56,0,0,1,.18,1.11h0A7.66,7.66,0,0,1,92.12,98.94Zm4.45-1a.56.56,0,0,1-.2-1.09,27.8,27.8,0,0,0,3-1.39.56.56,0,0,1,.76.24.55.55,0,0,1-.23.75,31.2,31.2,0,0,1-3.17,1.45.65.65,0,0,1-.2,0Zm-9.88-.4a.54.54,0,0,1-.22,0,32.17,32.17,0,0,1-3.11-1.55.56.56,0,0,1-.26-.75.55.55,0,0,1,.75-.26l.06,0a32.27,32.27,0,0,0,3,1.5.57.57,0,0,1,.29.74.56.56,0,0,1-.51.33Zm15.93-2.76a.57.57,0,0,1-.57-.56.56.56,0,0,1,.25-.47,31.3,31.3,0,0,0,2.7-2,.56.56,0,0,1,.77.82l-.06,0a31.46,31.46,0,0,1-2.79,2.07.55.55,0,0,1-.3.09Zm-21.87-.59a.52.52,0,0,1-.32-.11,32.9,32.9,0,0,1-2.72-2.15.58.58,0,0,1,0-.8.56.56,0,0,1,.79,0,32.89,32.89,0,0,0,2.63,2.08.55.55,0,0,1,.13.78.56.56,0,0,1-.44.24Zm27.1-3.77a.57.57,0,0,1-.56-.57.61.61,0,0,1,.15-.38,17.7,17.7,0,0,0,2-2.6.57.57,0,0,1,1,.55.21.21,0,0,0,0,.06,20.59,20.59,0,0,1-2.17,2.76.6.6,0,0,1-.4.18Zm-32.16-.79a.57.57,0,0,1-.44-.2,18.56,18.56,0,0,1-2-2.88.58.58,0,0,1,.26-.76.56.56,0,0,1,.73.21,17.47,17.47,0,0,0,1.88,2.71.57.57,0,0,1-.06.79h0a.59.59,0,0,1-.36.13Zm35.77-5a.57.57,0,0,1-.18,0,.55.55,0,0,1-.35-.71,10,10,0,0,0,.54-3.16.56.56,0,0,1,.56-.56h0a.56.56,0,0,1,.56.55h0a10.92,10.92,0,0,1-.6,3.54A.55.55,0,0,1,111.46,84.63Zm-39-1A.57.57,0,0,1,72,83.2a11.43,11.43,0,0,1-.3-2.47,4.07,4.07,0,0,1,.19-1.2.56.56,0,0,1,.68-.41.58.58,0,0,1,.41.69s0,0,0,.06a2.53,2.53,0,0,0-.13.86,9.59,9.59,0,0,0,.26,2.2.55.55,0,0,1-.41.67h0l-.14,0Zm38.09-5.31a.58.58,0,0,1-.39-.15,9.84,9.84,0,0,0-2.72-1.69.56.56,0,1,1,.45-1,11,11,0,0,1,3,1.89.56.56,0,0,1,0,.79.59.59,0,0,1-.41.18Zm-36.12-.66a.56.56,0,0,1-.31-1A14.22,14.22,0,0,1,77.32,75a.54.54,0,0,1,.71.33.55.55,0,0,1-.33.72,13,13,0,0,0-2.91,1.47A.55.55,0,0,1,74.47,77.66Zm30-2.25-.15,0c-1-.27-2.11-.51-3.28-.71a.56.56,0,0,1-.41-.68.57.57,0,0,1,.6-.43c1.2.21,2.34.45,3.38.73a.57.57,0,0,1-.14,1.11Zm-23.69-.26A.56.56,0,0,1,80.65,74c1.06-.24,2.2-.46,3.4-.62a.56.56,0,1,1,.16,1.1c-1.17.17-2.28.38-3.31.63Zm17-.91h0c-1.1-.11-2.23-.18-3.38-.22a.57.57,0,0,1-.5-.62.56.56,0,0,1,.55-.5c1.16,0,2.32.12,3.44.23a.55.55,0,0,1,.53.58.56.56,0,0,1-.59.53Zm-10.22-.09a.56.56,0,0,1,0-1.12c1.13-.09,2.29-.14,3.44-.16h0a.56.56,0,0,1,0,1.12c-1.14,0-2.27.07-3.37.16Z"/><path class="cls-5" d="M132.66,213.83H51.57a18.59,18.59,0,0,1-18.33-21.75l9.61-55.79a18.61,18.61,0,0,1,18.33-15.44h61.87a18.61,18.61,0,0,1,18.33,15.44L151,192.08a18.6,18.6,0,0,1-18.33,21.75Z"/><path class="cls-1" d="M91.91,215.1a1.26,1.26,0,0,1-1.26-1.26v-5.7a1.27,1.27,0,1,1,2.53,0v5.69a1.25,1.25,0,0,1-1.24,1.27Zm0-11.39a1.26,1.26,0,0,1-1.26-1.25v-5.71a1.27,1.27,0,1,1,2.53,0v5.69a1.25,1.25,0,0,1-1.24,1.27Zm0-11.38a1.27,1.27,0,0,1-1.26-1.26v-5.7a1.27,1.27,0,1,1,2.53,0v5.69a1.25,1.25,0,0,1-1.25,1.27Zm0-11.39a1.26,1.26,0,0,1-1.26-1.26V174a1.27,1.27,0,0,1,2.53,0v5.69a1.25,1.25,0,0,1-1.24,1.27Zm0-11.39a1.26,1.26,0,0,1-1.26-1.25v-5.7a1.27,1.27,0,1,1,2.53,0v5.69a1.24,1.24,0,0,1-1.25,1.26Zm0-11.38a1.26,1.26,0,0,1-1.26-1.26v-5.7a1.27,1.27,0,0,1,2.53,0v5.69a1.25,1.25,0,0,1-1.24,1.27Zm0-11.39a1.26,1.26,0,0,1-1.26-1.25v-5.71a1.27,1.27,0,0,1,2.53,0v5.71a1.25,1.25,0,0,1-1.25,1.26h0Z"/><path class="cls-4" d="M139,151.76H45.22c-5.34,0-9.33-4.54-8.29-9.43h0c3.4-15.81,4.43-27.19,21.76-27.19h66.85c17.33,0,18.36,11.38,21.76,27.19h0C148.34,147.22,144.34,151.76,139,151.76Z"/><path class="cls-13" d="M217.35,190.2l-55.68-55.69a15,15,0,1,1,21.21-21.21l34.47,34.48,72.32-72.32a15,15,0,0,1,21.21,21.21Z"/><path class="cls-6" d="M24.59,121.9H21.71a.68.68,0,0,1-.64-.72.19.19,0,0,1,0-.08l.47-3.34a.68.68,0,0,1,.63-.59h1.93a.67.67,0,0,1,.63.59l.48,3.34a.69.69,0,0,1-.55.79Z"/><path class="cls-7" d="M26.62,131.79l-.8-8.84c-.08-.9-.53-1.57-1.06-1.57H21.54c-.53,0-1,.66-1.06,1.57l-.8,8.84c-.1,1.12.41,2.12,1.07,2.12h4.8C26.23,133.91,26.72,132.91,26.62,131.79ZM24.31,133H22a1.4,1.4,0,0,1-1.39-1.4A1.39,1.39,0,0,1,22,130.2h2.32a1.4,1.4,0,0,1,0,2.79Z"/><path class="cls-6" d="M139.38,156.13l-2.87-.19a.68.68,0,0,1-.6-.75s0-.06,0-.09l.69-3.3a.66.66,0,0,1,.67-.54l1.92.12a.66.66,0,0,1,.59.63l.26,3.36a.69.69,0,0,1-.6.76Z"/><path class="cls-7" d="M140.77,166.14l-.23-8.88c0-.9-.43-1.6-.95-1.64l-3.22-.2c-.53,0-1,.59-1.16,1.49l-1.36,8.78c-.18,1.1.26,2.14.92,2.18l4.79.31C140.24,168.23,140.79,167.26,140.77,166.14Zm-2.39,1-2.31-.15a1.39,1.39,0,1,1,.18-2.78l2.31.15a1.39,1.39,0,1,1-.18,2.78Z"/></g></g></svg>