<svg xmlns="http://www.w3.org/2000/svg" viewBox="0 0 285.07 241"><defs><style>.cls-1{fill:#f8000d}.cls-2{fill:#ff787d}.cls-3{fill:#fc233f}.cls-4{fill:#fff}.cls-5{fill:#580787}.cls-6{fill:#b7233f}.cls-7{fill:#e7abe3}.cls-8{fill:#ae80ab}.cls-9{fill:#f2ba5f;stroke:#f2ba5f;stroke-miterlimit:10;stroke-width:.75px}.cls-10{fill:#8c6239}.cls-11,.cls-18{fill:#666}.cls-11,.cls-17{opacity:.44}.cls-11{isolation:isolate}.cls-12{fill:#ffd126}.cls-13{fill:#ffb426}.cls-14{fill:#bf161c}.cls-15{fill:#ff1d25}.cls-16{fill:#edeaa4}.cls-19{fill:#7ac943}</style></defs><title>rugzak_fout</title><g id="Laag_2" data-name="Laag 2"><g id="Laag_6" data-name="Laag 6"><path d="M270.07,218.71a15,15,0,0,1-10.6-4.39l-82.93-82.93a15,15,0,1,1,21.22-21.21l82.92,82.92a15,15,0,0,1-10.61,25.61Z" class="cls-1"/><path d="M187.15,218.71a15,15,0,0,1-10.61-25.61l82.93-82.92a15,15,0,1,1,21.21,21.21l-82.92,82.93A15,15,0,0,1,187.15,218.71Z" class="cls-1"/><path d="M101.17,67.05H81A28.45,28.45,0,0,1,58.12,55.37a31.89,31.89,0,0,1-4.93-28l1.73-5.85C58.71,8.66,69.89,0,82.72,0H99.44c12.84,0,24,8.66,27.81,21.54L129,27.39a31.89,31.89,0,0,1-4.93,28A28.45,28.45,0,0,1,101.17,67.05ZM82.72,13.28c-6.9,0-13,4.83-15.08,12l-1.73,5.85a18.55,18.55,0,0,0,2.83,16.28A15.3,15.3,0,0,0,81,53.77h20.17a15.32,15.32,0,0,0,12.26-6.35,18.55,18.55,0,0,0,2.83-16.28l-1.74-5.85c-2.12-7.18-8.17-12-15.09-12Z" class="cls-2"/><path d="M163.51,228.78c-.86.71-1.75,1.39-2.66,2A53.88,53.88,0,0,1,129.11,241h-76a54,54,0,0,1-31.74-10.16q-1.35-1-2.64-2a50.13,50.13,0,0,1-18.18-46l16-112c3.62-25.34,26.06-44.21,52.56-44.21h44c26.5,0,48.94,18.87,52.56,44.21l16,112A50.25,50.25,0,0,1,163.51,228.78Z" class="cls-3"/><path d="M91.08,98.55c-6.64,0-23-8-23-20.09,0-7.37,8.39-11.6,23-11.6s23,4.23,23,11.6C114.11,90.55,97.72,98.55,91.08,98.55Z" class="cls-2"/><path d="M91.09,95.75a9.28,9.28,0,0,1-2.35-.35.55.55,0,0,1-.4-.68.57.57,0,0,1,.68-.41,8.43,8.43,0,0,0,2.06.32h0a7.74,7.74,0,0,0,1.08-.1.56.56,0,1,1,.19,1.1h0A7.68,7.68,0,0,1,91.09,95.75Zm4.45-1.06a.57.57,0,0,1-.57-.55.55.55,0,0,1,.37-.53,28.77,28.77,0,0,0,3-1.4.57.57,0,0,1,.76.24.57.57,0,0,1-.24.76,30,30,0,0,1-3.16,1.44.48.48,0,0,1-.2,0Zm-9.88-.4a.54.54,0,0,1-.22,0q-1.6-.7-3.12-1.56a.56.56,0,0,1-.26-.75.58.58,0,0,1,.76-.26l.06,0a28,28,0,0,0,3,1.5.57.57,0,0,1,.29.74.56.56,0,0,1-.52.34Zm15.92-2.75A.56.56,0,0,1,101,91a.55.55,0,0,1,.25-.47c.93-.62,1.83-1.29,2.7-2a.56.56,0,0,1,.79,0,.58.58,0,0,1,0,.8l-.06,0a33.45,33.45,0,0,1-2.79,2.06.67.67,0,0,1-.31.1Zm-21.87-.6a.57.57,0,0,1-.31-.1,30,30,0,0,1-2.72-2.16.56.56,0,0,1-.05-.79.57.57,0,0,1,.79,0,30.78,30.78,0,0,0,2.63,2.08.56.56,0,0,1-.31,1Zm27.11-3.77a.56.56,0,0,1-.56-.57.51.51,0,0,1,.15-.37,19.08,19.08,0,0,0,2-2.61.57.57,0,0,1,.77-.21.55.55,0,0,1,.21.76l0,.06A19.9,19.9,0,0,1,107.23,87a.57.57,0,0,1-.4.18Zm-32.17-.78a.58.58,0,0,1-.43-.21,18.56,18.56,0,0,1-2-2.88.55.55,0,0,1,.26-.75.55.55,0,0,1,.72.21,17.44,17.44,0,0,0,1.89,2.7.56.56,0,0,1-.07.79h0a.52.52,0,0,1-.36.14Zm35.78-5a.48.48,0,0,1-.18,0,.56.56,0,0,1-.36-.71,9.51,9.51,0,0,0,.54-3.17A.57.57,0,0,1,111,77h0a.57.57,0,0,1,.56.56h0a11.24,11.24,0,0,1-.6,3.54A.57.57,0,0,1,110.43,81.44Zm-39-1a.56.56,0,0,1-.54-.43,10.25,10.25,0,0,1-.3-2.47,4,4,0,0,1,.18-1.19.57.57,0,0,1,.69-.41.55.55,0,0,1,.4.68.14.14,0,0,1,0,.06,3.14,3.14,0,0,0-.13.86,9.53,9.53,0,0,0,.27,2.2.57.57,0,0,1-.42.68h0l-.14,0Zm38.09-5.31a.55.55,0,0,1-.38-.15,10,10,0,0,0-2.73-1.69.56.56,0,1,1,.46-1,10.87,10.87,0,0,1,3,1.88.56.56,0,0,1-.39,1Zm-36.11-.65a.56.56,0,0,1-.55-.58.55.55,0,0,1,.23-.44,14.71,14.71,0,0,1,3.16-1.61.57.57,0,0,1,.72.34.56.56,0,0,1-.33.72,12.9,12.9,0,0,0-2.92,1.47A.57.57,0,0,1,73.44,74.47Zm30-2.26-.15,0c-1-.27-2.12-.51-3.28-.71a.56.56,0,0,1,.18-1.1c1.21.2,2.35.45,3.39.73a.56.56,0,0,1-.14,1.1ZM79.74,72a.55.55,0,0,1-.57-.54.56.56,0,0,1,.44-.56c1.06-.25,2.2-.46,3.41-.63a.56.56,0,0,1,.16,1.11c-1.17.17-2.28.38-3.31.63Zm17-.9h0c-1.1-.11-2.23-.19-3.38-.23a.56.56,0,0,1,0-1.12c1.16,0,2.31.12,3.43.23a.57.57,0,0,1,.54.59.57.57,0,0,1-.59.53ZM86.48,71a.57.57,0,0,1,0-1.13c1.12-.08,2.28-.14,3.44-.16h0a.56.56,0,0,1,0,1.12c-1.14,0-2.27.08-3.38.16Z" class="cls-4"/><path d="M21.13,115.1c.19-9.83.77-19.61,1.45-29.37l.27-3.66L23,80.25l0-.46.07-.51.13-1a46.42,46.42,0,0,1,1.71-8.16l.68-2,.34-1a6.85,6.85,0,0,1,.38-1c.58-1.27,1.15-2.56,1.77-3.82l2.1-3.67q1.18-1.74,2.43-3.45A51.11,51.11,0,0,1,60.59,37a36.94,36.94,0,0,1,4.18-.88l2.11-.32,1.06-.14c.35,0,.71,0,1.07-.08l2.13-.12,1.06-.06c.35,0,.74,0,1,0l3.66,0,14.64-.07,14.63.07,3.66.06c.29,0,.67,0,1,0l1.07,0,2.13.13c.35,0,.71,0,1.06.07l1.06.16,2.11.31a32.87,32.87,0,0,1,4.17.88,51,51,0,0,1,27.93,18.24c.81,1.15,1.64,2.29,2.42,3.46l2.08,3.66c.63,1.25,1.18,2.54,1.76,3.82s.94,2.63,1.4,4a46.89,46.89,0,0,1,1.69,8.14l.13,1,.06.5,0,.46.13,1.83.26,3.66c.32,4.88.63,9.76.87,14.66s.42,9.8.5,14.71a2.22,2.22,0,0,1-4.37.63q-2-7.11-3.65-14.26c-1.15-4.77-2.22-9.54-3.27-14.32l-.77-3.57-.39-1.79-.1-.45L149,81l-.21-.77A37.65,37.65,0,0,0,140,63.78c-.71-.75-1.46-1.45-2.19-2.19l-.28-.28-.31-.25-.6-.49-1.18-1a38.9,38.9,0,0,0-5.11-3.42,39.76,39.76,0,0,0-11.42-4.27,27.66,27.66,0,0,0-3-.52l-1.49-.15-.75-.09c-.25,0-.51,0-.77,0l-1.52,0-.76,0c-.26,0-.49,0-.81,0l-3.66.05-14.64.07L76.88,51.1,73.21,51H72.4l-.76,0-1.53,0a6.44,6.44,0,0,0-.76,0l-.76.09-1.51.18a25.4,25.4,0,0,0-3,.51,40.37,40.37,0,0,0-11.4,4.28,39.67,39.67,0,0,0-9.62,7.63,37.13,37.13,0,0,0-6.75,10.4,38.13,38.13,0,0,0-2,6l-.21.77-.11.39-.09.45-.38,1.79-.76,3.59c-2.09,9.56-4.26,19.11-6.84,28.59a2.43,2.43,0,0,1-4.78-.68Z" class="cls-5"/><path d="M24.69,117.93a.63.63,0,0,1-.3-1.19h0a1.77,1.77,0,0,0,.91-1.11l.32-1.11a.63.63,0,0,1,1.22.31L26.52,116A3.05,3.05,0,0,1,25,117.87.72.72,0,0,1,24.69,117.93Zm133.38-.42a.58.58,0,0,1-.4-.14,2.85,2.85,0,0,1-.95-1.45l-.47-1.73a.63.63,0,1,1,1.22-.33h0l.47,1.73a1.55,1.55,0,0,0,.53.8.64.64,0,0,1,.11.89.63.63,0,0,1-.51.23Zm2.9-.07a.62.62,0,0,1-.42-1.1,1.6,1.6,0,0,0,.52-1.18l0-1.29a.63.63,0,0,1,.61-.65h0a.65.65,0,0,1,.63.63l0,1.27a2.86,2.86,0,0,1-.94,2.16A.64.64,0,0,1,161,117.44Zm-139.2,0a.63.63,0,0,1-.46-.2,3,3,0,0,1-.82-2.09v-.07c0-1,0-2.1.06-3.15a.63.63,0,0,1,.65-.61.63.63,0,0,1,.61.65c0,1,0,2.1-.07,3.16a1.81,1.81,0,0,0,.48,1.25.63.63,0,0,1-.46,1.07Zm5.25-5.2a.44.44,0,0,1-.16,0,.61.61,0,0,1-.45-.76h0l.78-3.06a.64.64,0,0,1,.77-.46.65.65,0,0,1,.46.77c-.26,1-.52,2-.79,3.07A.62.62,0,0,1,27,112.24Zm129-.64a.63.63,0,0,1-.61-.47c-.27-1-.54-2-.79-3.07a.63.63,0,0,1,1.22-.32c.26,1,.52,2,.79,3.06a.63.63,0,0,1-.45.77h0A.45.45,0,0,1,156.05,111.6Zm5.55-.28a.62.62,0,0,1-.62-.62c0-1-.06-2.1-.1-3.15a.64.64,0,0,1,.6-.65.63.63,0,0,1,.65.61c0,1,.08,2.1.1,3.17a.63.63,0,0,1-.6.65h0ZM21.3,109.41h0a.63.63,0,0,1-.61-.65h0l.12-3.16a.66.66,0,0,1,.66-.61.63.63,0,0,1,.61.65h0c0,1-.09,2.1-.13,3.14a.63.63,0,0,1-.63.63Zm7.26-3.3-.15,0a.64.64,0,0,1-.45-.76l.75-3.08a.63.63,0,0,1,.76-.46.62.62,0,0,1,.46.76h0c-.24,1-.49,2-.74,3.08A.63.63,0,0,1,28.56,106.11Zm125.93-.63a.63.63,0,0,1-.61-.48c-.25-1-.5-2-.74-3.08a.62.62,0,0,1,.46-.76.63.63,0,0,1,.76.47l.75,3.06a.64.64,0,0,1-.46.77h-.16Zm6.9-.46a.63.63,0,0,1-.63-.61c0-1-.09-2.1-.15-3.14a.63.63,0,0,1,1.26-.07c0,1.06.1,2.11.14,3.17a.63.63,0,0,1-.59.66h0ZM21.56,103.1h0a.64.64,0,0,1-.6-.66h0c.06-1.05.11-2.11.17-3.16a.61.61,0,0,1,.66-.59.62.62,0,0,1,.59.66h0c-.05,1-.11,2.1-.16,3.16a.62.62,0,0,1-.62.59ZM30,100l-.15,0a.63.63,0,0,1-.47-.75h0c.23-1,.47-2.05.71-3.08a.62.62,0,0,1,.75-.47.62.62,0,0,1,.48.75c-.23,1-.47,2.06-.71,3.09A.63.63,0,0,1,30,100Zm123-.63a.63.63,0,0,1-.63-.49l-.71-3.08a.63.63,0,0,1,1.23-.29l.72,3.08a.63.63,0,0,1-.47.76H153Zm8.07-.63a.63.63,0,0,1-.63-.6c0-1-.11-2.1-.17-3.14a.63.63,0,1,1,1.26-.07c.06,1,.12,2.1.17,3.16a.63.63,0,0,1-.59.66h0ZM21.91,96.78h0a.64.64,0,0,1-.6-.66h0c.07-1,.13-2.1.2-3.16a.63.63,0,1,1,1.25.08c-.06,1-.13,2.1-.19,3.14A.62.62,0,0,1,21.91,96.78Zm9.51-3-.14,0A.62.62,0,0,1,30.8,93h0l.69-3.09a.63.63,0,1,1,1.23.27h0c-.22,1-.44,2.06-.67,3.09A.62.62,0,0,1,31.42,93.79Zm120.17-.63a.62.62,0,0,1-.63-.49l-.69-3.09a.64.64,0,0,1,.48-.76.63.63,0,0,1,.75.48l.69,3.09a.62.62,0,0,1-.47.75h-.13Zm9.11-.78a.63.63,0,0,1-.63-.6c-.06-1-.13-2.1-.2-3.14a.63.63,0,0,1,1.26-.08l.2,3.16a.63.63,0,0,1-.58.67h-.05ZM22.31,90.46h0a.63.63,0,0,1-.59-.67h0c.07-1,.14-2.1.21-3.16a.64.64,0,0,1,.68-.58.63.63,0,0,1,.58.67l-.21,3.14A.64.64,0,0,1,22.31,90.46ZM32.8,87.61a.63.63,0,0,1-.64-.61.76.76,0,0,1,0-.15l.66-3.1a.63.63,0,0,1,.76-.48.63.63,0,0,1,.48.75l-.66,3.09a.63.63,0,0,1-.62.5ZM150.24,87a.62.62,0,0,1-.63-.5L149,83.39a.62.62,0,0,1,.48-.75.63.63,0,0,1,.76.48h0l.66,3.1a.64.64,0,0,1-.48.75h-.13Zm10.09-.92a.62.62,0,0,1-.63-.58l-.23-3.14a.63.63,0,1,1,1.25-.1l.23,3.15a.62.62,0,0,1-.57.67h0ZM22.74,84.15h0a.63.63,0,0,1-.58-.67h0l.24-3.14a.63.63,0,0,1,.68-.58.64.64,0,0,1,.58.68l-.24,3.14A.64.64,0,0,1,22.74,84.15Zm11.4-2.72a.64.64,0,0,1-.64-.62.57.57,0,0,1,0-.18l.16-.6c.19-.79.43-1.63.7-2.47A.64.64,0,0,1,35.6,78h0c-.26.81-.49,1.62-.68,2.4l-.17.63A.63.63,0,0,1,34.14,81.43Zm114.68-.63a.61.61,0,0,1-.62-.48c-.24-1-.52-1.94-.88-3a.63.63,0,0,1,.39-.8.64.64,0,0,1,.81.39,32.1,32.1,0,0,1,.91,3.09.63.63,0,0,1-.46.76h0l-.12,0Zm11-1a.64.64,0,0,1-.63-.56l-.11-.85c-.08-.74-.18-1.49-.31-2.26a.63.63,0,1,1,1.25-.21c.14.79.25,1.57.32,2.33l.11.83a.64.64,0,0,1-.54.71h-.09ZM23.33,77.86h-.08a.63.63,0,0,1-.55-.7h0c.14-1,.32-2.06.57-3.16a.63.63,0,1,1,1.23.27h0c-.23,1.07-.41,2.07-.54,3.06a.63.63,0,0,1-.62.53Zm12.76-2.45a.6.6,0,0,1-.24,0,.62.62,0,0,1-.35-.81h0l.24-.57c.35-.8.72-1.58,1.12-2.35A.63.63,0,1,1,38,72.2h0c-.38.74-.74,1.5-1.08,2.27-.08.18-.15.36-.23.55A.62.62,0,0,1,36.09,75.41Zm110.71-.59a.6.6,0,0,1-.44-.19.52.52,0,0,1-.14-.19h0c-.41-1-.87-1.89-1.36-2.8A.63.63,0,0,1,146,71c.51.95,1,1.89,1.4,2.87a.08.08,0,0,1,0,0l0,.1v.09a.63.63,0,0,1-.18.49.69.69,0,0,1-.45.2Zm12-1.29a.64.64,0,0,1-.63-.49c-.21-.86-.45-1.76-.73-2.73l-.09-.26a.63.63,0,1,1,1.2-.41h0l.09.28c.3,1,.55,1.94.76,2.83a.63.63,0,0,1-.46.76h-.14ZM24.66,71.67a.63.63,0,0,1-.63-.62.57.57,0,0,1,0-.18c.08-.31.17-.63.27-.94l.71-2.1a.63.63,0,0,1,1.19.41h0l-.7,2.07-.26.91A.62.62,0,0,1,24.66,71.67ZM39,69.81a.67.67,0,0,1-.34-.1.62.62,0,0,1-.21-.86h0c.57-.91,1.19-1.81,1.82-2.65a.63.63,0,1,1,1,.76c-.63.82-1.2,1.68-1.76,2.56A.64.64,0,0,1,39,69.81Zm104.81-.54a.63.63,0,0,1-.53-.29c-.57-.87-1.18-1.71-1.81-2.51a.63.63,0,0,1,.11-.89.64.64,0,0,1,.89.11c.65.83,1.28,1.71,1.88,2.61a.63.63,0,0,1-.17.87.59.59,0,0,1-.36.11Zm13.09-1.79a.64.64,0,0,1-.59-.41l-.26-.65-.45-1-.54-1.21a.63.63,0,1,1,1.15-.53c.18.41.36.81.55,1.22l.45,1c.1.24.2.47.28.7a.63.63,0,0,1-.35.82h0a.59.59,0,0,1-.23,0ZM26.81,65.73a.58.58,0,0,1-.26-.06.63.63,0,0,1-.32-.83h0c.39-.87.83-1.86,1.3-2.8l.07-.12a.63.63,0,1,1,1.09.63h0l-.05.08c-.43.89-.87,1.86-1.25,2.72a.64.64,0,0,1-.59.38Zm16-1a.68.68,0,0,1-.42-.17.63.63,0,0,1,0-.89h0c.09-.11.19-.21.28-.31.63-.68,1.28-1.35,2-2a.63.63,0,0,1,.89,0,.64.64,0,0,1,0,.9c-.66.63-1.3,1.25-1.89,1.92l-.27.32a.7.7,0,0,1-.49.2Zm97.11-.47a.65.65,0,0,1-.45-.2c-.37-.39-.76-.76-1.14-1.14l-.94-.94-.16-.16a.63.63,0,0,1,0-.89.62.62,0,0,1,.89,0l.16.17.92.91c.39.38.79.77,1.16,1.17a.61.61,0,0,1,0,.88.64.64,0,0,1-.45.19Zm14.28-2.52a.59.59,0,0,1-.55-.31l-1.55-2.71a.63.63,0,0,1,.16-.88.64.64,0,0,1,.88.16l.2.29,1.42,2.49a.63.63,0,0,1-.23.86.53.53,0,0,1-.32.08ZM47.39,60.43a.61.61,0,0,1-.64-.61A.63.63,0,0,1,47,59.3c.83-.66,1.7-1.3,2.59-1.9a.63.63,0,0,1,.77,1l-.08,0c-.86.59-1.7,1.21-2.51,1.85a.65.65,0,0,1-.37.14Zm-17.66-.31a.64.64,0,0,1-.56-.94h0l.47-.83c.44-.65.87-1.26,1.29-1.86a.63.63,0,1,1,1,.73L30.72,59l-.45.79a.62.62,0,0,1-.55.32ZM135.24,60a.62.62,0,0,1-.39-.14c-.89-.68-1.72-1.28-2.53-1.82a.63.63,0,0,1-.18-.87A.64.64,0,0,1,133,57c.84.56,1.69,1.17,2.6,1.88a.64.64,0,0,1,.14.88.65.65,0,0,1-.52.26ZM52.61,56.87a.63.63,0,0,1-.64-.61.61.61,0,0,1,.33-.57l.08,0c.91-.5,1.85-1,2.78-1.42a.64.64,0,0,1,.84.31.63.63,0,0,1-.31.84h0c-.9.42-1.81.89-2.69,1.38l-.07,0A.72.72,0,0,1,52.61,56.87ZM130,56.56a.68.68,0,0,1-.31-.08c-.92-.49-1.86-.94-2.79-1.38a.63.63,0,1,1,.51-1.15c1,.43,1.93.91,2.88,1.42a.62.62,0,0,1,.28.84.63.63,0,0,1-.59.35Zm20.82-.12a.63.63,0,0,1-.52-.27l-.41-.55c-.47-.63-1-1.26-1.5-1.87a.64.64,0,0,1,1-.82c.53.63,1.06,1.29,1.55,1.94l.43.59a.64.64,0,0,1-.14.88.58.58,0,0,1-.38.12ZM33.33,54.92a.63.63,0,0,1-.63-.62.68.68,0,0,1,.14-.41c.66-.82,1.36-1.64,2.09-2.43a.64.64,0,1,1,.94.86c-.7.77-1.39,1.57-2,2.37a.63.63,0,0,1-.51.24Zm25-.72A.63.63,0,0,1,58.12,53c1-.37,2-.71,3.05-1a.63.63,0,0,1,.35,1.21c-1,.29-2,.61-3,1a.54.54,0,0,1-.22.05ZM124.18,54a.78.78,0,0,1-.21,0c-1-.35-2-.66-3-.94a.64.64,0,0,1-.45-.77h0a.63.63,0,0,1,.76-.45h0c1,.27,2.06.59,3.07.94a.61.61,0,0,1,.41.78.63.63,0,0,1-.63.45ZM64.41,52.47a.63.63,0,1,1-.12-1.25l.45-.09a16.34,16.34,0,0,1,2.31-.37l.41,0A.63.63,0,0,1,67.61,52l-.45.05a15.68,15.68,0,0,0-2.16.35l-.47.09Zm53.66-.12h-.18a14.73,14.73,0,0,0-2-.32l-1-.12a.63.63,0,0,1,.15-1.25h0l1,.11a17.16,17.16,0,0,1,2.13.34.65.65,0,0,1,.52.75.64.64,0,0,1-.59.49Zm-26.55-.58H89.66a.63.63,0,0,1-.63-.63.63.63,0,0,1,.63-.63h3.15a.63.63,0,0,1,.63.63.63.63,0,0,1-.63.63Zm4.46,0a.63.63,0,0,1,0-1.25h3.17a.63.63,0,0,1,0,1.25Zm-9.48,0H83.33a.63.63,0,1,1,0-1.26H86.5a.63.63,0,0,1,0,1.26Zm-15.8,0a.63.63,0,1,1,0-1.25l1.91-.06c.2,0,.4,0,.66,0h.63a.63.63,0,1,1,0,1.25H72.67l-1.93.06Zm9.49,0H77a.63.63,0,1,1,0-1.25h3.17a.63.63,0,0,1,0,1.25Zm22.13,0a.63.63,0,0,1,0-1.25h3.17a.63.63,0,0,1,0,1.25Zm9.49,0h0l-1.39,0H110l-1.38,0a.66.66,0,0,1-.64-.63.63.63,0,0,1,.61-.65h1.82l1.36,0a.63.63,0,0,1,.62.64.62.62,0,0,1-.63.62Zm34.9-.07a.64.64,0,0,1-.45-.19c-.72-.74-1.47-1.47-2.24-2.18a.63.63,0,1,1,.85-.94c.79.72,1.57,1.47,2.3,2.23a.64.64,0,0,1-.46,1.08ZM37.61,50.27a.64.64,0,0,1-.46-.19.63.63,0,0,1,0-.89h0c.77-.74,1.57-1.46,2.38-2.14a.63.63,0,0,1,.82,1h0c-.8.67-1.58,1.37-2.33,2.09A.61.61,0,0,1,37.61,50.27ZM142,47.36a.62.62,0,0,1-.39-.14c-.81-.63-1.65-1.27-2.5-1.88a.62.62,0,0,1-.15-.88.63.63,0,0,1,.88-.16c.87.62,1.73,1.26,2.56,1.93a.63.63,0,0,1,.11.88.66.66,0,0,1-.51.24ZM42.43,46.2a.61.61,0,0,1-.51-.25.63.63,0,0,1,.13-.88h0c.85-.62,1.73-1.25,2.63-1.82a.63.63,0,1,1,.68,1.06c-.87.56-1.73,1.16-2.56,1.78a.63.63,0,0,1-.37.12Zm94.42-2.47a.64.64,0,0,1-.33-.1c-.89-.54-1.8-1.06-2.71-1.57a.63.63,0,0,1-.26-.86.65.65,0,0,1,.86-.26c.94.5,1.88,1,2.77,1.6a.62.62,0,0,1,.23.86.61.61,0,0,1-.56.31Zm-89.12-1a.64.64,0,0,1-.65-.61.65.65,0,0,1,.34-.58c.92-.52,1.89-1,2.83-1.49a.63.63,0,0,1,.84.29.62.62,0,0,1-.29.85c-.94.46-1.86.94-2.76,1.46a.61.61,0,0,1-.3.08Zm83.54-2a.58.58,0,0,1-.26-.06c-.94-.43-1.91-.84-2.88-1.21a.63.63,0,0,1,.46-1.18c1,.38,2,.8,2.95,1.25a.63.63,0,0,1,.33.83.62.62,0,0,1-.6.38ZM53.41,40a.63.63,0,0,1-.24-1.21q1.48-.62,3-1.14a.63.63,0,0,1,.8.4.62.62,0,0,1-.39.8h0c-1,.34-2,.71-2.92,1.11A.69.69,0,0,1,53.41,40Zm72-1.51a.58.58,0,0,1-.19,0c-1-.31-1.94-.58-2.91-.83l-.09,0a.63.63,0,0,1-.46-.77.64.64,0,0,1,.77-.46l.09,0c1,.25,2,.53,3,.85a.63.63,0,0,1-.19,1.23Zm-66-.54a.63.63,0,0,1-.65-.6.62.62,0,0,1,.49-.64c.4-.12.81-.22,1.21-.32l.93-.22.94-.23a.63.63,0,1,1,.29,1.23h0l-.94.23-.95.22c-.38.1-.78.2-1.17.32Zm59.87-1h-.11c-.32-.06-.63-.1-1-.14l-2.13-.31a.64.64,0,0,1-.55-.71h0a.63.63,0,0,1,.7-.54l2.14.32a9.67,9.67,0,0,1,1,.15.63.63,0,1,1-.11,1.25Zm-53.68-.29a.63.63,0,0,1-.68-.58.64.64,0,0,1,.59-.68L67.85,35q.38,0,.75-.06h.07a.63.63,0,0,1,.07,1.26h-.07a4.89,4.89,0,0,0-.66.05l-2.34.34h-.1Zm47.4-.45h0l-2.4-.13c-.25,0-.5,0-.71,0a.63.63,0,0,1-.64-.61v0a.63.63,0,0,1,.63-.63h0a7.23,7.23,0,0,1,.78,0l2.4.13a.63.63,0,0,1,0,1.26ZM71.86,36a.63.63,0,0,1-.64-.61.61.61,0,0,1,.61-.64l.58,0,.77,0,1.84,0a.67.67,0,0,1,.63.63A.63.63,0,0,1,75,36L73.2,36h0c-.24,0-.49,0-.73,0l-.59,0ZM106.65,36h0l-3.16,0a.63.63,0,0,1,0-1.26h0l3.17,0a.63.63,0,1,1,0,1.25Zm-28.46,0a.63.63,0,1,1,0-1.25h3.16a.63.63,0,1,1,0,1.25Zm22.14,0H97.16a.63.63,0,1,1,0-1.25h3.17a.63.63,0,0,1,0,1.25Zm-15.82,0a.63.63,0,1,1,0-1.25h3.16a.63.63,0,1,1,0,1.25Zm9.49,0H90.84a.63.63,0,1,1,0-1.25H94a.63.63,0,1,1,0,1.25Z" class="cls-4"/><path d="M131.63,210.64H50.53a18.6,18.6,0,0,1-18.32-21.76l9.61-55.79a18.6,18.6,0,0,1,18.33-15.44H122a18.59,18.59,0,0,1,18.32,15.44L150,188.88a18.6,18.6,0,0,1-18.33,21.76Z" class="cls-6"/><path d="M141.23,151.84h-2.88a.68.68,0,0,1-.64-.72s0-.05,0-.08l.48-3.33a.65.65,0,0,1,.62-.58h2a.65.65,0,0,1,.62.58l.48,3.33a.68.68,0,0,1-.55.79Z" class="cls-7"/><path d="M143.25,161.71l-.79-8.82c-.09-.89-.54-1.57-1.07-1.57h-3.21c-.53,0-1,.66-1.06,1.57l-.79,8.82c-.1,1.12.4,2.12,1.06,2.12h4.8C142.85,163.83,143.35,162.83,143.25,161.71Zm-2.31,1.19h-2.31a1.39,1.39,0,1,1-.13-2.77h2.44a1.39,1.39,0,1,1,.14,2.77Z" class="cls-8"/><path d="M90.88,211.9a1.25,1.25,0,0,1-1.26-1.25v-5.71a1.27,1.27,0,0,1,2.53,0v5.7a1.25,1.25,0,0,1-1.25,1.26Zm0-11.38a1.26,1.26,0,0,1-1.26-1.26v-5.71a1.27,1.27,0,0,1,2.53,0v5.69a1.26,1.26,0,0,1-1.24,1.28Zm0-11.39a1.25,1.25,0,0,1-1.26-1.26v-5.7a1.27,1.27,0,0,1,2.53,0v5.7a1.26,1.26,0,0,1-1.25,1.26Zm0-11.38a1.26,1.26,0,0,1-1.26-1.26v-5.7a1.27,1.27,0,1,1,2.53,0v5.69a1.26,1.26,0,0,1-1.25,1.27Zm0-11.39a1.25,1.25,0,0,1-1.26-1.26v-5.7a1.27,1.27,0,0,1,2.53,0v5.7a1.26,1.26,0,0,1-1.25,1.26Zm0-11.39a1.25,1.25,0,0,1-1.26-1.25V148a1.27,1.27,0,1,1,2.53,0v5.69A1.26,1.26,0,0,1,90.9,155Zm0-11.38a1.25,1.25,0,0,1-1.26-1.26v-5.7a1.27,1.27,0,1,1,2.53,0v5.71a1.25,1.25,0,0,1-1.26,1.25Z" class="cls-2"/><path d="M138,148.57H44.19c-5.34,0-9.34-4.55-8.29-9.43h0C39.3,123.33,40.33,112,57.65,112h66.86c17.33,0,18.36,11.38,21.75,27.19h0C147.31,144,143.31,148.57,138,148.57Z" class="cls-5"/><path d="M169.5,196,155.76,86.37C152.62,61.39,133,42.56,110,42.56H72.17c-22.93,0-42.62,18.83-45.76,43.81L12.66,196a54.5,54.5,0,0,0,6,32.81q1.29,1.06,2.64,2a53,53,0,0,1-7.4-34.69L27.67,86.53c3-24.35,22.19-42.71,44.5-42.71H110c22.31,0,41.46,18.36,44.51,42.71l13.75,109.62a53,53,0,0,1-7.4,34.67c.91-.65,1.8-1.33,2.66-2A54.51,54.51,0,0,0,169.5,196Z" class="cls-2"/><g id="Laag_1-2" data-name="Laag 1"><path d="M113.22,63c-4.77,9.73,77.57,49.44,82.06,40.28,6-12.17,13.91-15.31-32.27-38S119.2,50.81,113.22,63Z" class="cls-9"/><path d="M204.63,90.65c-2,4.13-5.07,7.15-9.52,6a244.83,244.83,0,0,1-76.52-37.56c-3.6-2.73-3.16-6.89-1.22-10.94l.11-.22a18.56,18.56,0,0,1,1.21-2.13A11.25,11.25,0,0,1,121,43.14a6.46,6.46,0,0,1,6-1.23q2.56.75,5.1,1.55A243,243,0,0,1,198,75.59c1.85,1.26,3.68,2.56,5.52,3.89a6.61,6.61,0,0,1,2.63,6.4,12.25,12.25,0,0,1-.27,1.47,16,16,0,0,1-.89,2.52C204.88,90.13,204.75,90.41,204.63,90.65Z" class="cls-10"/><path d="M205.88,87.35a16.41,16.41,0,0,1-.89,2.52c-16.56-4.5-34.49-4.52-50.69-6a.72.72,0,0,1-.36-.18C142.55,72,131.3,58.13,117.37,48.11l.11-.22a18.56,18.56,0,0,1,1.21-2.13q-1.84-1.34-3.71-2.64h3.24l2.81,0q5.5.06,11.07.33A312.72,312.72,0,0,1,172,48a1,1,0,0,1,.47.22A313.21,313.21,0,0,1,198,75.59q4,4.84,7.77,9.8l.37.48c.49.65,1,1.29,1.47,1.95Z" class="cls-11"/><path d="M209.25,88.28l-1.64-.46-1.73-.47a286.24,286.24,0,0,0-48.94-8.83.65.65,0,0,1-.37-.18q-6.24-6.39-13-12.51h0q-3.52-3.18-7.17-6.25-5.7-4.8-11.71-9.38l-3.2-2.4-2.8-2q-1.84-1.32-3.72-2.63l-1.51-1.05a.74.74,0,0,1-.31-1,.76.76,0,0,1,.68-.38c1.85,0,3.72,0,5.58,0l3.92,0h.82l2.89.07,1.38,0h0q5.18.15,10.36.5h0c1.47.1,2.95.2,4.42.32l.45,0h0c1.69.13,3.37.29,5.06.45q6.22.62,12.49,1.48L164,44q4.58.67,9.19,1.49a.61.61,0,0,1,.18,0,1,1,0,0,1,.28.17l2.61,2.52a312.94,312.94,0,0,1,30.35,34.22l.34.45.63.82c.85,1.13,1.69,2.25,2.52,3.39a.72.72,0,0,1-.06,1A.73.73,0,0,1,209.25,88.28Z" class="cls-12"/><path d="M202.29,80.56c-15.67-4.19-27.84-5.25-43.15-6.65a.68.68,0,0,1-.35-.17c-11.36-11.66-21.62-21.39-35.58-31.34,17.13.06,32.16.4,49.75,3.53a1,1,0,0,1,.45.22C185.33,57.53,192.7,67.94,202.29,80.56Z" class="cls-13"/><path d="M163.75,60a4.22,4.22,0,0,0-1.35-5.28,21.69,21.69,0,0,0-1.29-2.43,2.5,2.5,0,0,0-.31-.4c-9.88-10.1-23.52-14.67-31.62-13.54a4.23,4.23,0,0,0-5.46,2l-.48,1a2.33,2.33,0,0,0-.14.33c-1.31,2.2-1,5.45,1.62,9.74a2.08,2.08,0,0,0,.32.4c13.8,14.12,34.9,17.4,38.05,9.51,0-.11.12-.21.17-.32Z" class="cls-14"/><ellipse cx="144.19" cy="49.27" class="cls-14" rx="8.92" ry="18.82" transform="translate(36.42 156.99) rotate(-63.85)"/><path d="M162.38,49.72a2,2,0,0,0-.31-.4,48.43,48.43,0,0,0-12.39-9.11c-9.71-5-19.56-5.94-23.85-2.72a5.34,5.34,0,0,0-1.24,1.27c0,.07-.1.14-.14.21a4.61,4.61,0,0,0-.48,1h0c-.75,2-.33,4.81,1.68,8.3l.35.58a2,2,0,0,0,.31.4,48.27,48.27,0,0,0,11,8.4c9.8,5.44,20,6.72,24.74,3.75a5.82,5.82,0,0,0,1.84-1.79h0v0C165.32,57.36,165.05,54.08,162.38,49.72Zm-8.69-5.12.52.38.39.3.24.19.22.18.5.41.68.59c.22.2.44.41.65.63l.46.45h0l.31.32c.22.24.44.47.64.71l.3.35.43.54.2.26.2.27.19.26.26.41L160,51l.12.21,0,.06h0l.11.2.1.17.15.27.08.17a1.3,1.3,0,0,1,.08.17l.08.16.07.17L161,53c.05.12.08.21.12.32v.07l.09.29a2.76,2.76,0,0,1,.08.27V54c0,.11,0,.22.07.32h0l.06.33h0a2.66,2.66,0,0,1,0,.28c.09.77-1.08,1-2.4.35l-5.76-2.59-5.17-2.34c-1.2-.54-2-1.48-1.68-2l0,0,3.23-4.74h0c.38-.53,1.7-.38,2.81.3l.68.46ZM131,38.22h0l.35-.09.18-.05.17,0,.37-.07.31,0,.19,0h0l.47-.06.26,0,.43,0h1.73l.46,0,1,.07.44,0h0L138,38l.39.06.28,0,.22,0,.55.11.49.1.48.11,0,0a5.36,5.36,0,0,1,.54.14l.54.14.53.15,1.14.35a5.23,5.23,0,0,1,1,.48c.78.5,1.29,1.16,1.15,1.63v0l-1.77,5.45c-.2.62-1.45.61-2.66,0l-10.56-5.66a4.43,4.43,0,0,1-.46-.29,2,2,0,0,1-1-1.3.54.54,0,0,1,.27-.53l.24-.14h0c.2-.11.41-.21.62-.3l0,0,.26-.1.29-.11h0l.36-.12h0Zm-3.85,6.69c0-.1-.06-.19-.08-.28v-.07c0-.11-.05-.21-.07-.32h0l-.06-.33h0l0-.28c-.08-.74,1-.93,2.24-.41l.16.08L133.09,45l7.11,3.21a4.3,4.3,0,0,1,.6.32c.88.56,1.36,1.31,1.06,1.76l-.21.3-3,4.44c-.38.56-1.8.36-3-.38l-.2-.14-.8-.56c-.31-.22-.6-.45-.89-.67s-.57-.45-.84-.68-.54-.46-.79-.69l-.29-.26-.55-.53-.27-.26-.34-.36,0,0-.36-.39-.15-.16-.27-.32-.36-.43-.34-.44-.26-.35-.24-.35c-.08-.11-.15-.22-.21-.32l0,0a4.05,4.05,0,0,1-.21-.35L128,47l-.19-.35-.17-.34-.15-.34c0-.12-.1-.23-.14-.34l-.11-.31,0-.07Zm30.93,15.18-.28.11h-.08l-.31.1-.35.1-.74.16-.4.06-.4.06-.41,0h0l-.38,0c-.28,0-.57,0-.87,0h-.55l-.56,0-.42,0-.22,0-.53,0h-.05l-.48,0-.37,0-.76-.12-.38-.06-.51-.1-.52-.11L147.41,60l-.54-.14-.53-.15h0l-.52-.16-.78-.26c-1.23-.47-2.17-1.43-2-2l1.77-5.46c.2-.62,1.45-.6,2.66,0l4.64,2.47,5.41,2.87.53.28a4.88,4.88,0,0,1,.65.43c.8.63,1.08,1.36.54,1.69l-.24.15h0l-.3.15h0l-.29.14,0,0h0l-.08,0Z" class="cls-15"/><path d="M134.9,46.55a9.59,9.59,0,0,1,1.46.66c.13.07.15.14,0,.15a4.43,4.43,0,0,1-1.26,0c-.52-.13-1-.42-1.06-.63S134.38,46.42,134.9,46.55Z" class="cls-16"/><path d="M135.35,47.77a8.21,8.21,0,0,1,1.47.5c.13.06.18.13.1.16a2.8,2.8,0,0,1-1.07.18,1.71,1.71,0,0,1-1.13-.53C134.58,47.85,134.86,47.71,135.35,47.77Z" class="cls-16"/><path d="M136.18,49.06a6.88,6.88,0,0,1,1.43.31c.13,0,.2.12.14.17a1.73,1.73,0,0,1-.84.37,1.67,1.67,0,0,1-1.15-.4C135.56,49.27,135.75,49.07,136.18,49.06Z" class="cls-16"/><path d="M137.36,50.36a5.32,5.32,0,0,1,1.32.11c.13,0,.21.1.18.16a1.13,1.13,0,0,1-.57.55,1.42,1.42,0,0,1-1.13-.25C136.91,50.69,137,50.44,137.36,50.36Z" class="cls-16"/><path d="M138.84,51.6a3.46,3.46,0,0,1,1.16-.09c.11,0,.21.08.21.15s-.08.6-.28.71a1.1,1.1,0,0,1-1-.11C138.59,52.05,138.56,51.76,138.84,51.6Z" class="cls-16"/><path d="M144.36,54.54c0-.22.25-.51.41-.65s.17,0,.24.08a3.32,3.32,0,0,1,.63,1c0,.31-.21.47-.56.36A1.12,1.12,0,0,1,144.36,54.54Z" class="cls-16"/><path d="M146.3,55.11a1.09,1.09,0,0,1,.11-.79c0-.06.13,0,.23,0a5.13,5.13,0,0,1,.89,1c.14.34,0,.56-.34.5A1.45,1.45,0,0,1,146.3,55.11Z" class="cls-16"/><path d="M148.15,55.42a1.72,1.72,0,0,1-.21-.89c0-.07.11-.07.22,0a6.66,6.66,0,0,1,1.11.94c.26.35.21.62-.1.6A1.64,1.64,0,0,1,148.15,55.42Z" class="cls-16"/><path d="M149.83,55.46a2.82,2.82,0,0,1-.51-1c0-.09.06-.1.19,0a8.58,8.58,0,0,1,1.29.87c.34.35.4.65.14.69A1.74,1.74,0,0,1,149.83,55.46Z" class="cls-16"/><path d="M151.26,55.24a4.37,4.37,0,0,1-.78-1c0-.09,0-.11.15,0a8.62,8.62,0,0,1,1.41.74c.42.34.58.67.37.75A1.65,1.65,0,0,1,151.26,55.24Z" class="cls-16"/><path d="M153.5,52a8.65,8.65,0,0,1-1.45-.67c-.13-.06-.15-.14-.05-.15a4.16,4.16,0,0,1,1.27,0c.52.13,1,.42,1.06.63S154,52.12,153.5,52Z" class="cls-16"/><path d="M153.07,50.77a8.21,8.21,0,0,1-1.47-.5c-.13-.07-.18-.13-.1-.16a2.66,2.66,0,0,1,1.08-.17,1.71,1.71,0,0,1,1.13.53C153.84,50.7,153.56,50.83,153.07,50.77Z" class="cls-16"/><path d="M152.25,49.49a6.31,6.31,0,0,1-1.43-.32c-.13,0-.2-.12-.14-.16a1.46,1.46,0,0,1,2,0C152.88,49.28,152.69,49.48,152.25,49.49Z" class="cls-16"/><path d="M151.08,48.19a4.89,4.89,0,0,1-1.32-.12c-.13,0-.21-.1-.18-.16a1.13,1.13,0,0,1,.57-.55,1.39,1.39,0,0,1,1.12.27C151.54,47.86,151.45,48.11,151.08,48.19Z" class="cls-16"/><path d="M149.61,46.94a3.26,3.26,0,0,1-1.16.08c-.12,0-.22-.07-.21-.14s.09-.6.29-.71a1.12,1.12,0,0,1,1.05.11C149.87,46.51,149.89,46.79,149.61,46.94Z" class="cls-16"/><path d="M144.11,44c0,.22-.25.51-.42.64s-.17,0-.24-.08a3.27,3.27,0,0,1-.62-1c0-.3.23-.46.57-.35A1.07,1.07,0,0,1,144.11,44Z" class="cls-16"/><path d="M142.16,43.41a1.11,1.11,0,0,1-.11.78c0,.06-.14,0-.24,0a5.46,5.46,0,0,1-.88-1c-.14-.33,0-.56.35-.49A1.4,1.4,0,0,1,142.16,43.41Z" class="cls-16"/><path d="M140.31,43.09a1.62,1.62,0,0,1,.2.89c0,.07-.1.07-.21,0a6.33,6.33,0,0,1-1.11-.95c-.25-.35-.2-.62.11-.6A1.68,1.68,0,0,1,140.31,43.09Z" class="cls-16"/><path d="M138.62,43a2.63,2.63,0,0,1,.5,1c0,.08-.06.09-.19,0a8.49,8.49,0,0,1-1.28-.87c-.34-.34-.4-.65-.14-.67A1.77,1.77,0,0,1,138.62,43Z" class="cls-16"/><path d="M137.18,43.25a3.88,3.88,0,0,1,.77,1c.06.08,0,.11-.15,0a9,9,0,0,1-1.4-.75c-.42-.34-.59-.67-.37-.74A1.64,1.64,0,0,1,137.18,43.25Z" class="cls-16"/><path d="M202.08,78.46a4.21,4.21,0,0,0-1.4-5.27,18.8,18.8,0,0,0-1.32-2.41,2.08,2.08,0,0,0-.32-.4c-10-10-23.67-14.41-31.75-13.19a4.22,4.22,0,0,0-5.44,2.05l-.48,1a2.33,2.33,0,0,0-.14.33C160,62.77,160.29,66,163,70.26a2.08,2.08,0,0,0,.32.4c13.95,14,35.09,17,38.15,9.1l.18-.32Z" class="cls-14"/><ellipse cx="182.36" cy="67.96" class="cls-14" rx="8.92" ry="18.82" transform="translate(42.34 203.11) rotate(-64.43)"/><path d="M200.29,67.78c-17.77-17.81-47.22-17.89-36.08-.11a2.47,2.47,0,0,0,.32.39c17.77,17.81,47.22,17.89,36.08.11A2.37,2.37,0,0,0,200.29,67.78Zm-2.9,6-11-4.82c-1.25-.54-2-1.52-1.68-2.06l3.19-4.77c.39-.58,1.86-.38,3,.39,5.12,3.39,8.46,7.51,8.85,10.88.08.77-1.09,1-2.41.37ZM183.46,60l-1.72,5.48c-.2.63-1.45.62-2.66,0L168.44,60c-1.29-.67-1.88-1.69-1.22-2.11,2.88-1.82,8.18-1.81,14,0C182.59,58.31,183.67,59.34,183.46,60Zm-16,2.06,11,4.82c1.25.54,2,1.52,1.68,2.06l-3.18,4.77c-.38.57-1.86.38-3-.39-5.11-3.39-8.46-7.51-8.84-10.89C164.94,61.67,166.11,61.48,167.44,62.06Zm13.92,13.79,1.71-5.47c.2-.63,1.45-.62,2.66,0l10.64,5.52c1.29.66,1.88,1.69,1.22,2.11-2.87,1.82-8.17,1.8-14,0-1.34-.44-2.4-1.46-2.21-2.12Z" class="cls-15"/><path d="M173.1,65.3a9,9,0,0,1,1.46.65c.13.06.15.14.05.15a4.09,4.09,0,0,1-1.26,0c-.52-.12-1-.4-1.07-.62S172.58,65.17,173.1,65.3Z" class="cls-16"/><path d="M173.56,66.52A7.75,7.75,0,0,1,175,67c.13.06.17.13.09.16a2.78,2.78,0,0,1-1.07.19,1.74,1.74,0,0,1-1.13-.52C172.79,66.6,173.08,66.47,173.56,66.52Z" class="cls-16"/><path d="M174.4,67.8a6.26,6.26,0,0,1,1.43.29c.14,0,.21.12.15.17a1.74,1.74,0,0,1-.84.38,1.66,1.66,0,0,1-1.15-.39C173.78,68,174,67.81,174.4,67.8Z" class="cls-16"/><path d="M175.6,69.08a4.9,4.9,0,0,1,1.32.1c.13,0,.21.1.18.15a1.15,1.15,0,0,1-.57.56,1.42,1.42,0,0,1-1.13-.25C175.15,69.42,175.24,69.17,175.6,69.08Z" class="cls-16"/><path d="M177.09,70.31a3.37,3.37,0,0,1,1.15-.1c.12,0,.22.07.21.14s-.07.6-.26.71a1.09,1.09,0,0,1-1.05-.09C176.84,70.76,176.81,70.47,177.09,70.31Z" class="cls-16"/><path d="M182.64,73.19c0-.22.25-.5.4-.65s.17,0,.24.08a3.34,3.34,0,0,1,.64,1c0,.31-.2.47-.56.37A1.08,1.08,0,0,1,182.64,73.19Z" class="cls-16"/><path d="M184.59,73.73a1.14,1.14,0,0,1,.08-.79c0-.06.14,0,.24,0a5.13,5.13,0,0,1,.9,1c.14.33,0,.56-.33.5A1.37,1.37,0,0,1,184.59,73.73Z" class="cls-16"/><path d="M186.44,74a1.73,1.73,0,0,1-.22-.89c0-.07.1-.07.22,0a6.67,6.67,0,0,1,1.12.93c.26.34.22.61-.09.6A1.65,1.65,0,0,1,186.44,74Z" class="cls-16"/><path d="M188.12,74.07a2.94,2.94,0,0,1-.52-.95c0-.09.05-.1.19,0a8.54,8.54,0,0,1,1.3.85c.35.35.41.65.15.68A1.82,1.82,0,0,1,188.12,74.07Z" class="cls-16"/><path d="M189.55,73.81a4.4,4.4,0,0,1-.8-1c-.05-.09,0-.11.15-.06a8.71,8.71,0,0,1,1.42.74c.42.32.59.65.38.73S190,74.14,189.55,73.81Z" class="cls-16"/><path d="M191.75,70.54a9,9,0,0,1-1.46-.65c-.12-.06-.14-.14,0-.15a4.16,4.16,0,0,1,1.27,0c.52.12,1,.41,1.06.62S192.27,70.67,191.75,70.54Z" class="cls-16"/><path d="M191.31,69.33a8.56,8.56,0,0,1-1.48-.49c-.13-.07-.18-.13-.1-.16a2.89,2.89,0,0,1,1.08-.18A1.72,1.72,0,0,1,192,69C192.08,69.25,191.8,69.38,191.31,69.33Z" class="cls-16"/><path d="M190.47,68.05a7.11,7.11,0,0,1-1.44-.31c-.13,0-.2-.12-.14-.16a1.71,1.71,0,0,1,.85-.37,1.57,1.57,0,0,1,1.15.39C191.1,67.84,190.91,68,190.47,68.05Z" class="cls-16"/><path d="M189.29,66.77a4.88,4.88,0,0,1-1.32-.11c-.13,0-.21-.1-.18-.15a1.11,1.11,0,0,1,.57-.56,1.42,1.42,0,0,1,1.13.25C189.75,66.43,189.66,66.68,189.29,66.77Z" class="cls-16"/><path d="M187.81,65.53a3.46,3.46,0,0,1-1.16.1c-.12,0-.22-.07-.21-.15s.08-.59.28-.7a1.08,1.08,0,0,1,1,.1C188.07,65.08,188.09,65.38,187.81,65.53Z" class="cls-16"/><path d="M182.27,62.64c0,.22-.25.5-.41.64s-.17,0-.24-.07a3.12,3.12,0,0,1-.63-1c0-.32.21-.47.56-.36A1.08,1.08,0,0,1,182.27,62.64Z" class="cls-16"/><path d="M180.32,62.08a1.1,1.1,0,0,1-.1.78c0,.07-.14,0-.24,0a4.82,4.82,0,0,1-.89-1c-.14-.33,0-.55.34-.49A1.4,1.4,0,0,1,180.32,62.08Z" class="cls-16"/><path d="M178.46,61.78a1.62,1.62,0,0,1,.21.88c0,.08-.1.07-.21,0a6.22,6.22,0,0,1-1.12-.93c-.25-.34-.21-.61.1-.6A1.64,1.64,0,0,1,178.46,61.78Z" class="cls-16"/><path d="M176.78,61.75a2.77,2.77,0,0,1,.51.94c0,.09-.07.1-.19,0a8.61,8.61,0,0,1-1.3-.86c-.34-.34-.4-.65-.14-.67A1.79,1.79,0,0,1,176.78,61.75Z" class="cls-16"/><path d="M175.34,62a4.36,4.36,0,0,1,.79,1c.05.09,0,.11-.15.06a10,10,0,0,1-1.42-.74c-.42-.33-.58-.66-.37-.74A1.65,1.65,0,0,1,175.34,62Z" class="cls-16"/><g class="cls-17"><path d="M207,82.94l.63.83a4.38,4.38,0,0,1-4,.39,14.09,14.09,0,0,1-6.36-5.89,7.83,7.83,0,0,0-8.07-3.85,14.7,14.7,0,0,1-14.94-7.17,7.79,7.79,0,0,0-8.06-3.86,16.88,16.88,0,0,1-4.08.08,8,8,0,0,1-.92-.15,14.51,14.51,0,0,1-3.57-1.23L157.3,62a14.06,14.06,0,0,1-6.11-5.75l0,0A7.23,7.23,0,0,0,147.78,53a7,7,0,0,0-4.64-.66,22.25,22.25,0,0,1-2.44.18,13,13,0,0,1-4.41-.74h0c-.52-.18-1-.38-1.52-.61l-.2-.1a14.07,14.07,0,0,1-6.37-5.89l0-.05a8,8,0,0,0-1.82-2.21,8.31,8.31,0,0,0-1.57-.95,3.43,3.43,0,0,1-1.12-.85l-.16-.2-.15-.22h.3a5.83,5.83,0,0,1,1.22-1.26c-1.69-1.58-2-4.94-.65-8.3,2.07-3.49,5.38-5.35,7.76-4.21a14.07,14.07,0,0,1,6.37,5.89A6.92,6.92,0,0,0,141.77,36a7,7,0,0,0,4.64.66A14.07,14.07,0,0,1,155,38a13.85,13.85,0,0,1,6.23,5.68l.13.2a7,7,0,0,0,3.43,3.2,7.1,7.1,0,0,0,4.64.66,14.27,14.27,0,0,1,6.87.56A18.13,18.13,0,0,1,178,49a14,14,0,0,1,6.36,5.89,7,7,0,0,0,3.43,3.2,7.1,7.1,0,0,0,4.64.66,14.67,14.67,0,0,1,14.94,7.16,7,7,0,0,0,3.43,3.2c2.42,1.16,3,5,1.5,8.91-1.51,2.53-3.67,4.21-5.65,4.49Z" class="cls-18"/></g><path d="M212.85,77a8.3,8.3,0,0,1-.57,1.06c-1.51,2.53-3.67,4.2-5.65,4.49a3.64,3.64,0,0,1-2.11-.29,14.09,14.09,0,0,1-6.36-5.89,7,7,0,0,0-3.43-3.2,7.16,7.16,0,0,0-4.64-.66,14.67,14.67,0,0,1-14.94-7.16,7.75,7.75,0,0,0-8.06-3.86,17.13,17.13,0,0,1-4.11.08h0a13.77,13.77,0,0,1-3.57-1c-.29-.12-.59-.25-.9-.4l-.75-.37c-.43-.23-.82-.46-1.19-.7a13.92,13.92,0,0,1-4.19-4.42l-.24-.38c-.14-.24-.29-.45-.42-.66s-.24-.34-.36-.5a7.84,7.84,0,0,0-5.83-2.82,12.68,12.68,0,0,0-1.45.12,16.71,16.71,0,0,1-4.24.06,14.33,14.33,0,0,1-4.33-1.34A14.73,14.73,0,0,1,132.13,47a15.67,15.67,0,0,1-3-3.7l-.27-.42a8.33,8.33,0,0,0-1-1.3l-.2-.2a6.54,6.54,0,0,0-.65-.53,9,9,0,0,0-1.27-.74l0,0a3.21,3.21,0,0,1-.86-.59c-1.69-1.57-2-4.94-.65-8.3a8.74,8.74,0,0,1,.39-.9c2-4.16,5.72-6.51,8.33-5.26a14.07,14.07,0,0,1,6.37,5.89,6.92,6.92,0,0,0,3.42,3.19,7,7,0,0,0,4.64.66A14.71,14.71,0,0,1,162.3,41.9,8.52,8.52,0,0,0,164,44.05a7.52,7.52,0,0,0,1.71,1.06,7,7,0,0,0,4.64.66,20.32,20.32,0,0,1,3-.17A13.92,13.92,0,0,1,178.94,47a14.12,14.12,0,0,1,6.37,5.89,6.92,6.92,0,0,0,3.43,3.2,7.1,7.1,0,0,0,4.64.66A14.69,14.69,0,0,1,208.32,64a6.92,6.92,0,0,0,3.43,3.2C214.35,68.41,214.85,72.79,212.85,77Z" class="cls-19"/><path d="M128.42,26.86c-4.91,10,81.41,51.91,86.13,42.29,11.32-23.06-2.68-43.26-26.47-54.94S139.74,3.8,128.42,26.86Z" class="cls-9"/><ellipse cx="137.72" cy="28.42" class="cls-16" rx="3.28" ry=".63" transform="translate(37.81 127.38) rotate(-56.38)"/><ellipse cx="149.64" cy="27.67" class="cls-16" rx=".63" ry="3.28" transform="translate(-2.39 34.35) rotate(-12.99)"/><ellipse cx="163.57" cy="44.87" class="cls-16" rx="3.28" ry=".63" transform="translate(-5.97 49.94) rotate(-17.05)"/><ellipse cx="177.63" cy="38.81" class="cls-16" rx=".63" ry="3.28" transform="translate(83.06 194.1) rotate(-70.98)"/><ellipse cx="176.18" cy="13.74" class="cls-16" rx=".63" ry="3.28" transform="translate(114.68 179.41) rotate(-74.09)"/><ellipse cx="185.31" cy="27.63" class="cls-16" rx=".63" ry="3.27" transform="translate(108.45 198.5) rotate(-74.26)"/><ellipse cx="171.41" cy="26.2" class="cls-16" rx=".63" ry="3.28" transform="translate(38.29 137.32) rotate(-48.54)"/><ellipse cx="174.29" cy="50.93" class="cls-16" rx=".63" ry="3.28" transform="translate(50 183.31) rotate(-63.09)"/><ellipse cx="189.32" cy="59.55" class="cls-16" rx=".63" ry="3.28" transform="translate(-0.13 0.41) rotate(-0.12)"/><ellipse cx="187.08" cy="46.11" class="cls-16" rx="3.28" ry=".63" transform="translate(-5.52 51.58) rotate(-15.47)"/><ellipse cx="199.65" cy="54.26" class="cls-16" rx="3.28" ry=".63" transform="translate(-7.24 55.23) rotate(-15.47)"/><ellipse cx="198.14" cy="24.98" class="cls-16" rx=".63" ry="3.28" transform="translate(46.35 154.76) rotate(-47.71)"/><ellipse cx="199.47" cy="40.08" class="cls-16" rx=".63" ry="3.28" transform="translate(35.35 160.34) rotate(-47.59)"/><ellipse cx="209.08" cy="45.89" class="cls-16" rx=".63" ry="3.28" transform="translate(34.46 169.69) rotate(-47.71)"/><ellipse cx="208.89" cy="60.87" class="cls-16" rx=".63" ry="3.28" transform="translate(23.31 174.45) rotate(-47.71)"/><ellipse cx="161.03" cy="17.37" class="cls-16" rx="3.28" ry=".63" transform="translate(6.67 66.42) rotate(-23.78)"/><ellipse cx="162.94" cy="34.11" class="cls-16" rx="3.28" ry=".63" transform="translate(80.11 178.51) rotate(-71.98)"/><ellipse cx="149.16" cy="37.7" class="cls-16" rx="3.28" ry=".63" transform="translate(-2.54 63.36) rotate(-23.78)"/><ellipse cx="147.81" cy="13.68" class="cls-16" rx="3.28" ry=".63" transform="translate(7.04 60.77) rotate(-23.78)"/></g><path d="M160.88,230.48a53.87,53.87,0,0,1-31.74,10.17h-76A54,54,0,0,1,21.37,230.5l0,0A53,53,0,0,1,14,195.8L27.7,86.18c3.05-24.34,22.19-42.7,44.51-42.7H110c22.31,0,41.45,18.36,44.5,42.7L168.28,195.8A53,53,0,0,1,160.88,230.48Z" class="cls-3"/><path d="M91.12,101.31c-6.64,0-23-8-23-20.09,0-7.38,8.39-11.61,23-11.61s23,4.23,23,11.61C114.14,93.3,97.75,101.31,91.12,101.31Z" class="cls-2"/><path d="M91.12,98.5a9.4,9.4,0,0,1-2.35-.34.56.56,0,0,1,.28-1.09,8.49,8.49,0,0,0,2.07.31h0a6.57,6.57,0,0,0,1.08-.1.56.56,0,0,1,.18,1.11h0A7.66,7.66,0,0,1,91.12,98.5Zm4.45-1.06a.56.56,0,0,1-.57-.55.57.57,0,0,1,.37-.53,29.82,29.82,0,0,0,3-1.39.56.56,0,0,1,.53,1,31.2,31.2,0,0,1-3.17,1.45.64.64,0,0,1-.2,0Zm-9.88-.39a.54.54,0,0,1-.22,0,32.17,32.17,0,0,1-3.11-1.55.57.57,0,0,1-.26-.76.56.56,0,0,1,.75-.25l.06,0a29.89,29.89,0,0,0,3,1.49.58.58,0,0,1,.29.75.56.56,0,0,1-.51.33Zm15.93-2.76a.57.57,0,0,1-.57-.56.55.55,0,0,1,.25-.47,31.3,31.3,0,0,0,2.7-2,.56.56,0,1,1,.77.81l-.06,0a31.46,31.46,0,0,1-2.79,2.07.55.55,0,0,1-.3.09ZM79.75,93.7a.59.59,0,0,1-.32-.11,33,33,0,0,1-2.72-2.16.57.57,0,0,1,0-.79.56.56,0,0,1,.79,0,32.89,32.89,0,0,0,2.63,2.08.55.55,0,0,1,.13.78.56.56,0,0,1-.44.24Zm27.1-3.77a.57.57,0,0,1-.56-.57.61.61,0,0,1,.15-.38,18.24,18.24,0,0,0,2-2.6.57.57,0,0,1,1,.55.21.21,0,0,0,0,.06,20.59,20.59,0,0,1-2.17,2.76.6.6,0,0,1-.4.18Zm-32.16-.79a.57.57,0,0,1-.44-.2,18.65,18.65,0,0,1-2-2.89.57.57,0,0,1,.26-.75.56.56,0,0,1,.73.21,17.47,17.47,0,0,0,1.88,2.71.55.55,0,0,1-.06.78h0a.59.59,0,0,1-.36.13Zm35.77-5a.57.57,0,0,1-.18,0,.55.55,0,0,1-.35-.71,10,10,0,0,0,.54-3.16.56.56,0,0,1,.56-.56h0a.55.55,0,0,1,.56.55h0a10.92,10.92,0,0,1-.6,3.54A.56.56,0,0,1,110.46,84.19Zm-39-1a.57.57,0,0,1-.55-.43,11.43,11.43,0,0,1-.3-2.47,4.07,4.07,0,0,1,.19-1.2.56.56,0,0,1,.68-.41.57.57,0,0,1,.41.69s0,0,0,.06a2.53,2.53,0,0,0-.13.86,9.59,9.59,0,0,0,.26,2.2.55.55,0,0,1-.41.67h0a.32.32,0,0,1-.14,0Zm38.09-5.31a.58.58,0,0,1-.39-.15,10.11,10.11,0,0,0-2.72-1.7.56.56,0,1,1,.45-1,11,11,0,0,1,3,1.89.56.56,0,0,1,0,.79.59.59,0,0,1-.41.18Zm-36.12-.66a.55.55,0,0,1-.55-.57.54.54,0,0,1,.24-.45,14.22,14.22,0,0,1,3.16-1.6.54.54,0,0,1,.71.33.56.56,0,0,1-.33.72,13,13,0,0,0-2.91,1.47A.55.55,0,0,1,73.47,77.22Zm30-2.25a.4.4,0,0,1-.15,0c-1-.27-2.11-.5-3.28-.7a.56.56,0,0,1,.19-1.11c1.2.21,2.34.45,3.38.73a.57.57,0,0,1-.14,1.11Zm-23.69-.26a.57.57,0,0,1-.58-.55.57.57,0,0,1,.45-.56c1.06-.25,2.2-.46,3.4-.63a.56.56,0,0,1,.63.48.55.55,0,0,1-.47.63c-1.17.17-2.28.38-3.31.63A.48.48,0,0,1,79.78,74.71Zm17-.91h0c-1.1-.11-2.23-.18-3.38-.22a.57.57,0,0,1-.5-.62.56.56,0,0,1,.55-.5c1.16,0,2.32.12,3.44.22a.57.57,0,0,1,.53.59.56.56,0,0,1-.59.53Zm-10.22-.09a.56.56,0,0,1-.55-.58.55.55,0,0,1,.5-.54c1.13-.09,2.29-.14,3.44-.17h0a.58.58,0,0,1,.52.61.57.57,0,0,1-.52.52c-1.14,0-2.27.07-3.37.16Z" class="cls-4"/><path d="M131.66,213.39H50.57a18.59,18.59,0,0,1-18.33-21.75l9.61-55.8a18.6,18.6,0,0,1,18.33-15.43h61.87a18.6,18.6,0,0,1,18.33,15.43l9.61,55.8a18.6,18.6,0,0,1-18.33,21.75Z" class="cls-6"/><path d="M90.91,214.66a1.26,1.26,0,0,1-1.26-1.26v-5.7a1.27,1.27,0,1,1,2.53,0v5.69a1.25,1.25,0,0,1-1.24,1.27Zm0-11.39A1.26,1.26,0,0,1,89.65,202v-5.7a1.27,1.27,0,1,1,2.53,0V202a1.25,1.25,0,0,1-1.24,1.27Zm0-11.39a1.26,1.26,0,0,1-1.26-1.25v-5.7a1.27,1.27,0,1,1,2.53,0v5.69a1.25,1.25,0,0,1-1.25,1.26Zm0-11.38a1.26,1.26,0,0,1-1.26-1.26v-5.7a1.27,1.27,0,0,1,2.53,0v5.69a1.25,1.25,0,0,1-1.24,1.27Zm0-11.39a1.26,1.26,0,0,1-1.26-1.25v-5.7a1.27,1.27,0,1,1,2.53,0v5.69a1.25,1.25,0,0,1-1.25,1.26Zm0-11.38a1.26,1.26,0,0,1-1.26-1.26v-5.7a1.27,1.27,0,1,1,2.53,0v5.69a1.25,1.25,0,0,1-1.24,1.27Zm0-11.39a1.26,1.26,0,0,1-1.26-1.25v-5.71a1.27,1.27,0,0,1,2.53,0v5.71a1.25,1.25,0,0,1-1.25,1.26h0Z" class="cls-2"/><path d="M138,151.32H44.22c-5.34,0-9.33-4.54-8.29-9.43h0c3.4-15.81,4.43-27.19,21.76-27.19h66.85c17.33,0,18.36,11.38,21.76,27.19h0C147.34,146.78,143.34,151.32,138,151.32Z" class="cls-5"/><path d="M163.51,228.78c-.86.71-1.75,1.39-2.66,2a53,53,0,0,0,7.4-34.67L154.5,86.53c-3.05-24.35-22.19-42.71-44.5-42.71H72.17c-22.31,0-41.45,18.36-44.5,42.71L13.92,196.15a53,53,0,0,0,7.4,34.68h0q-1.35-1-2.64-2h0a54.54,54.54,0,0,1-6-32.8L26.41,86.37c3.14-25,22.83-43.81,45.76-43.81H110c22.95,0,42.62,18.83,45.76,43.81L169.5,196A54.51,54.51,0,0,1,163.51,228.78Z" class="cls-2"/><path d="M24.76,120.94H21.87a.69.69,0,0,1-.64-.72s0-.06,0-.08l.48-3.34a.66.66,0,0,1,.63-.59h1.93a.67.67,0,0,1,.63.59l.47,3.34a.68.68,0,0,1-.55.79Z" class="cls-7"/><path d="M26.78,130.83,26,122c-.08-.9-.54-1.57-1.06-1.57H21.7c-.53,0-1,.66-1.06,1.57l-.79,8.84c-.1,1.12.4,2.12,1.06,2.12h4.81C26.39,133,26.88,132,26.78,130.83ZM24.47,132H22.15a1.4,1.4,0,0,1,0-2.79h2.32a1.4,1.4,0,0,1,0,2.79Z" class="cls-8"/><path d="M139.15,156.05h-2.88a.69.69,0,0,1-.64-.72.28.28,0,0,1,0-.09l.47-3.33a.66.66,0,0,1,.63-.59h1.93a.66.66,0,0,1,.63.59l.48,3.33a.7.7,0,0,1-.55.8Z" class="cls-7"/><path d="M141.18,165.94l-.8-8.84c-.08-.9-.53-1.57-1.06-1.57H136.1c-.53,0-1,.66-1.06,1.57l-.8,8.84c-.1,1.12.41,2.12,1.06,2.12h4.81C140.79,168.06,141.27,167.06,141.18,165.94Zm-2.31,1.19h-2.32a1.39,1.39,0,0,1,0-2.78h2.32a1.39,1.39,0,0,1,0,2.78Z" class="cls-8"/></g></g></svg>