<svg xmlns="http://www.w3.org/2000/svg" viewBox="0 0 529.14 700"><defs><style>.cls-1{fill:#ff787d;}.cls-2{fill:#fc233f;}.cls-3{fill:#fff;}.cls-4{fill:#580787;}.cls-5{fill:#e7abe3;}.cls-6{fill:#ae80ab;}.cls-7{fill:#b7233f;}</style></defs><title>rugzak</title><g id="Laag_2" data-name="Laag 2"><g id="icoontjes"><path class="cls-1" d="M293.87,194.75H235.28c-26.12,0-50.35-12.37-66.47-33.92A92.58,92.58,0,0,1,154.5,79.55l5-17C170.53,25.14,203,0,240.27,0h48.57c37.29,0,69.75,25.14,80.78,62.56l5,17a92.54,92.54,0,0,1-14.3,81.28C344.2,182.38,320,194.75,293.87,194.75ZM240.27,38.59c-20,0-37.62,14-43.81,34.88l-5,17a53.84,53.84,0,0,0,8.22,47.27c8.77,11.72,21.73,18.44,35.59,18.44h58.61c13.84,0,26.81-6.72,35.59-18.44a53.84,53.84,0,0,0,8.22-47.27l-5.06-17c-6.16-20.87-23.73-34.88-43.81-34.88Z"/><path class="cls-2" d="M474.92,664.51c-2.5,2-5.07,4-7.72,5.93A156.51,156.51,0,0,1,375,700H154.14A156.79,156.79,0,0,1,62,670.49c-2.63-1.89-5.19-3.88-7.69-5.93C15.84,633-6.06,583.63,1.48,531L48,205.57C58.48,132,123.65,77.16,200.62,77.16H328.55c77,0,142.13,54.83,152.64,128.41L527.69,531C535.16,583.61,513.28,632.9,474.92,664.51Z"/><path class="cls-1" d="M492.33,569.26l-39.92-318.4c-9.12-72.54-66.25-127.25-132.92-127.25H209.63c-66.62,0-123.81,54.71-132.92,127.25L36.77,569.26a158.38,158.38,0,0,0,17.48,95.3c2.5,2.05,5.06,4,7.69,5.93-18.25-29.27-26-64.85-21.51-100.77l39.93-318.4c8.86-70.72,64.46-124,129.27-124H319.49c64.79,0,120.41,53.31,129.26,124l39.95,318.4c4.5,35.88-3.26,71.47-21.5,100.72,2.65-1.89,5.22-3.88,7.72-5.93A158.48,158.48,0,0,0,492.33,569.26Z"/><path class="cls-1" d="M264.55,286.25c-19.28,0-66.86-23.25-66.86-58.34,0-21.42,24.36-33.72,66.86-33.72s66.88,12.3,66.88,33.72C331.43,263,283.83,286.25,264.55,286.25Z"/><path class="cls-3" d="M264.56,278.1a26.49,26.49,0,0,1-6.8-1,1.63,1.63,0,0,1,.8-3.17,24.81,24.81,0,0,0,6,.91h0a19.3,19.3,0,0,0,3.14-.29,1.63,1.63,0,1,1,.54,3.21h0A22.56,22.56,0,0,1,264.56,278.1ZM277.5,275a1.62,1.62,0,0,1-.59-3.14,85,85,0,0,0,8.85-4.05,1.63,1.63,0,0,1,1.51,2.89,90.64,90.64,0,0,1-9.19,4.2,1.65,1.65,0,0,1-.58.1Zm-28.71-1.15a1.59,1.59,0,0,1-.64-.13,97.68,97.68,0,0,1-9-4.52,1.63,1.63,0,0,1,1.43-2.94l.18.1a93,93,0,0,0,8.71,4.35,1.62,1.62,0,0,1,.84,2.15,1.64,1.64,0,0,1-1.49,1Zm46.27-8a1.63,1.63,0,0,1-1.65-1.62,1.66,1.66,0,0,1,.73-1.37,90.38,90.38,0,0,0,7.83-5.79,1.63,1.63,0,0,1,2.25,2.37l-.17.14a95.37,95.37,0,0,1-8.11,6,1.63,1.63,0,0,1-.88.27Zm-63.52-1.72a1.68,1.68,0,0,1-.92-.3,93.8,93.8,0,0,1-7.91-6.27,1.63,1.63,0,0,1,2.16-2.43,90.43,90.43,0,0,0,7.64,6,1.63,1.63,0,0,1,.37,2.28,1.66,1.66,0,0,1-1.28.68Zm78.71-10.95a1.63,1.63,0,0,1-1.19-2.74,55.68,55.68,0,0,0,5.95-7.57,1.63,1.63,0,1,1,2.85,1.6,1,1,0,0,1-.12.17,57.91,57.91,0,0,1-6.29,8,1.65,1.65,0,0,1-1.15.53Zm-93.42-2.29a1.63,1.63,0,0,1-1.25-.58,52.79,52.79,0,0,1-5.84-8.38,1.64,1.64,0,0,1,2.86-1.58,49.53,49.53,0,0,0,5.47,7.86,1.62,1.62,0,0,1-.19,2.29h0a1.51,1.51,0,0,1-1,.39Zm103.91-14.37a1.82,1.82,0,0,1-.52-.08,1.64,1.64,0,0,1-1-2.07,28.21,28.21,0,0,0,1.57-9.19,1.64,1.64,0,0,1,1.64-1.63h0a1.62,1.62,0,0,1,1.62,1.62h0a31.78,31.78,0,0,1-1.74,10.27A1.63,1.63,0,0,1,320.74,236.54Zm-113.17-2.92a1.64,1.64,0,0,1-1.59-1.25,31.46,31.46,0,0,1-.86-7.17,11.68,11.68,0,0,1,.53-3.47,1.63,1.63,0,1,1,3.17.79.64.64,0,0,1-.06.18,8.52,8.52,0,0,0-.38,2.5,28,28,0,0,0,.77,6.39,1.63,1.63,0,0,1-1.2,2h0a1.43,1.43,0,0,1-.41.09ZM318.21,218.2a1.63,1.63,0,0,1-1.11-.43,28.93,28.93,0,0,0-7.93-4.92,1.63,1.63,0,0,1,1.33-3,32.06,32.06,0,0,1,8.81,5.48,1.62,1.62,0,0,1-1.1,2.82ZM213.3,216.3a1.64,1.64,0,0,1-.91-3,41.06,41.06,0,0,1,9.18-4.65,1.62,1.62,0,0,1,1.11,3,39.06,39.06,0,0,0-8.46,4.27A1.6,1.6,0,0,1,213.3,216.3Zm87.14-6.56a1.24,1.24,0,0,1-.43-.06c-2.94-.78-6.14-1.48-9.54-2.05a1.64,1.64,0,0,1,.55-3.22c3.5.6,6.8,1.31,9.84,2.13a1.63,1.63,0,0,1-.42,3.2ZM231.62,209a1.63,1.63,0,0,1-.38-3.22c3.08-.72,6.39-1.34,9.89-1.82a1.63,1.63,0,0,1,.46,3.22c-3.38.49-6.61,1.09-9.61,1.82A1.45,1.45,0,0,1,231.62,209Zm49.28-2.64h-.15c-3.19-.31-6.48-.53-9.81-.65a1.64,1.64,0,0,1,.13-3.26c3.38.13,6.74.35,10,.67a1.63,1.63,0,0,1-.16,3.25Zm-29.71-.27a1.63,1.63,0,0,1-.12-3.25c3.26-.25,6.63-.42,10-.48h0a1.63,1.63,0,0,1,0,3.26c-3.3.06-6.6.22-9.8.46Z"/><path class="cls-4" d="M61.38,334.31c.53-28.56,2.23-56.95,4.2-85.29l.78-10.63.42-5.31.1-1.33.18-1.48.38-3a134.56,134.56,0,0,1,5-23.68l2-5.77,1-2.89a21.63,21.63,0,0,1,1.12-2.83c1.68-3.7,3.33-7.44,5.13-11.1l6.09-10.64c2.29-3.38,4.67-6.72,7.06-10,20-26.06,49.15-44.91,81.22-52.94a106.74,106.74,0,0,1,12.13-2.57l6.14-.91,3.08-.43c1-.13,2.06-.15,3.09-.22l6.19-.35,3.09-.16c1,0,2.14-.12,3-.12l10.62-.13,42.52-.2,42.52.21,10.63.16c.82,0,1.93.07,3,.11l3.1.17,6.19.36c1,.08,2.06.1,3.08.22l3.08.44,6.13.91a98.68,98.68,0,0,1,12.13,2.56c32,8.09,61.25,26.89,81.1,53,2.37,3.34,4.76,6.65,7,10l6.05,10.63c1.83,3.65,3.43,7.4,5.1,11.1s2.74,7.65,4.06,11.47a136.12,136.12,0,0,1,4.92,23.65l.38,3,.17,1.47.1,1.33.4,5.31L465.7,249c.91,14.18,1.83,28.37,2.52,42.59s1.21,28.46,1.43,42.74A6.45,6.45,0,0,1,457,336.15q-5.69-20.67-10.6-41.43c-3.34-13.84-6.45-27.71-9.52-41.59l-2.22-10.37-1.14-5.2-.27-1.3-.32-1.14-.62-2.24a109.59,109.59,0,0,0-25.61-47.61c-2.06-2.18-4.26-4.24-6.39-6.39l-.78-.8-.91-.72-1.74-1.42-3.44-2.88a113.69,113.69,0,0,0-14.84-9.95,116.09,116.09,0,0,0-33.16-12.4,77.67,77.67,0,0,0-8.71-1.49l-4.33-.46-2.2-.26c-.73-.08-1.48,0-2.21-.08l-4.43-.11-2.21-.07c-.76,0-1.41-.06-2.36,0l-10.64.16-42.51.21-42.52-.2-10.66-.21h-2.36l-2.21.09-4.42.12c-.74,0-1.49,0-2.22.07l-2.19.27-4.4.52a75.93,75.93,0,0,0-8.72,1.47A117.21,117.21,0,0,0,153,163.19a114.31,114.31,0,0,0-27.93,22.16,107.88,107.88,0,0,0-19.62,30.2,112.69,112.69,0,0,0-5.87,17.34L99,235.12l-.31,1.14-.27,1.3-1.1,5.21L95.09,253.2C89,281,82.71,308.68,75.23,336.25a7.06,7.06,0,0,1-13.88-2Z"/><path class="cls-3" d="M71.7,342.54a1.84,1.84,0,0,1-.87-3.45l0,0a5.2,5.2,0,0,0,2.63-3.22l.92-3.22a1.83,1.83,0,1,1,3.55.91L77,336.78a8.93,8.93,0,0,1-4.48,5.57A1.83,1.83,0,0,1,71.7,342.54Zm387.42-1.21a1.86,1.86,0,0,1-1.17-.42,8.29,8.29,0,0,1-2.73-4.22l-1.37-5a1.83,1.83,0,1,1,3.54-1h0l1.37,5a4.56,4.56,0,0,0,1.53,2.34,1.83,1.83,0,0,1-1.17,3.26Zm8.43-.22a1.82,1.82,0,0,1-1.85-1.8,1.8,1.8,0,0,1,.61-1.39,4.69,4.69,0,0,0,1.52-3.42l-.07-3.77a1.83,1.83,0,0,1,1.77-1.88h.05a1.91,1.91,0,0,1,1.83,1.83l.06,3.7a8.34,8.34,0,0,1-2.74,6.27A1.8,1.8,0,0,1,467.55,341.11Zm-404.31,0a1.86,1.86,0,0,1-1.35-.58,8.92,8.92,0,0,1-2.39-6.08v-.2c.06-3,.12-6.1.2-9.13a1.83,1.83,0,0,1,3.65.1c-.08,3.06-.15,6.11-.21,9.17A5.3,5.3,0,0,0,64.55,338a1.83,1.83,0,0,1-1.34,3.1ZM78.48,326A2.42,2.42,0,0,1,78,326a1.82,1.82,0,0,1-1.32-2.22v0c.76-3,1.52-5.92,2.26-8.89a1.84,1.84,0,0,1,3.57.91q-1.12,4.45-2.28,8.91A1.84,1.84,0,0,1,78.48,326Zm374.77-1.88a1.82,1.82,0,0,1-1.77-1.36q-1.17-4.45-2.3-8.92a1.84,1.84,0,1,1,3.56-.91q1.13,4.43,2.29,8.88a1.82,1.82,0,0,1-1.29,2.23h0A1.5,1.5,0,0,1,453.25,324.14Zm16.14-.79a1.83,1.83,0,0,1-1.83-1.83q-.12-4.56-.28-9.12a1.83,1.83,0,0,1,3.65-.13c.11,3,.21,6.11.28,9.2a1.82,1.82,0,0,1-1.76,1.89h-.06ZM61.87,317.78h-.06A1.82,1.82,0,0,1,60,315.91v0q.15-4.61.35-9.19a1.9,1.9,0,0,1,1.91-1.77,1.84,1.84,0,0,1,1.77,1.89v0c-.13,3.06-.25,6.11-.36,9.13a1.83,1.83,0,0,1-1.84,1.81ZM83,308.2a2.12,2.12,0,0,1-.44-.05,1.83,1.83,0,0,1-1.31-2.22L83.38,297a1.84,1.84,0,0,1,3.57.86h0c-.71,3-1.43,5.95-2.16,8.93A1.82,1.82,0,0,1,83,308.2Zm365.77-1.83A1.81,1.81,0,0,1,447,305c-.75-3-1.47-6-2.17-8.94a1.83,1.83,0,0,1,3.57-.85q1.06,4.45,2.16,8.91a1.82,1.82,0,0,1-1.32,2.22h0a2.07,2.07,0,0,1-.43,0Zm20-1.35a1.83,1.83,0,0,1-1.83-1.76q-.18-4.56-.42-9.12a1.83,1.83,0,0,1,3.65-.19q.22,4.6.42,9.19a1.83,1.83,0,0,1-1.73,1.92h0ZM62.63,299.46h-.09a1.82,1.82,0,0,1-1.73-1.91v0c.14-3.06.3-6.12.46-9.18a1.84,1.84,0,0,1,1.92-1.73,1.82,1.82,0,0,1,1.73,1.92h0c-.16,3-.32,6.1-.46,9.17a1.83,1.83,0,0,1-1.82,1.72Zm24.58-9.13a2,2,0,0,1-.42-.05,1.83,1.83,0,0,1-1.37-2.19h0c.69-3,1.38-6,2-8.95a1.84,1.84,0,0,1,3.58.81c-.67,3-1.36,6-2,9a1.83,1.83,0,0,1-1.78,1.42Zm357.23-1.82a1.83,1.83,0,0,1-1.83-1.42l-2.08-9a1.84,1.84,0,1,1,3.59-.82l2.07,8.94a1.82,1.82,0,0,1-1.35,2.2h0a2.17,2.17,0,0,1-.36,0Zm23.43-1.83a1.82,1.82,0,0,1-1.82-1.74c-.16-3.06-.33-6.11-.5-9.13a1.83,1.83,0,1,1,3.65-.21q.26,4.59.5,9.18a1.83,1.83,0,0,1-1.71,1.94h0ZM63.63,281.09h-.11a1.82,1.82,0,0,1-1.73-1.91v0c.19-3,.37-6.1.56-9.17a1.83,1.83,0,1,1,3.65.22c-.18,3.06-.37,6.11-.55,9.12A1.82,1.82,0,0,1,63.63,281.09Zm27.63-8.67a2.73,2.73,0,0,1-.4-.05,1.82,1.82,0,0,1-1.4-2.17v0q1-4.49,2-9A1.84,1.84,0,0,1,95,262h0q-.95,4.5-2,9A1.84,1.84,0,0,1,91.26,272.42Zm349-1.83a1.82,1.82,0,0,1-1.82-1.43q-1-4.47-2-9a1.84,1.84,0,0,1,3.59-.8l2,9a1.83,1.83,0,0,1-1.38,2.19h0a1.3,1.3,0,0,1-.34,0Zm26.47-2.27a1.82,1.82,0,0,1-1.82-1.73c-.19-3-.39-6.1-.58-9.12a1.83,1.83,0,1,1,3.65-.24l.58,9.17a1.83,1.83,0,0,1-1.69,2h0Zm-402-5.58h-.12A1.82,1.82,0,0,1,63,260.81v0q.3-4.56.62-9.17a1.83,1.83,0,1,1,3.65.25c-.21,3-.41,6.09-.62,9.13A1.82,1.82,0,0,1,64.8,262.74Zm30.48-8.27a1.82,1.82,0,0,1-1.87-1.78,2,2,0,0,1,0-.43l1.92-9A1.83,1.83,0,1,1,99,244l-1.91,9a1.82,1.82,0,0,1-1.8,1.46Zm341.1-1.82a1.83,1.83,0,0,1-1.83-1.45l-1.92-9a1.84,1.84,0,0,1,3.59-.77h0l1.92,9a1.83,1.83,0,0,1-1.39,2.18h0a2.34,2.34,0,0,1-.38,0ZM465.67,250a1.82,1.82,0,0,1-1.82-1.69l-.67-9.13a1.83,1.83,0,0,1,3.65-.27l.67,9.13a1.83,1.83,0,0,1-1.67,2h-.16ZM66.05,244.42h-.13a1.83,1.83,0,0,1-1.7-1.95v0l.69-9.12a1.83,1.83,0,1,1,3.65.28l-.69,9.13A1.83,1.83,0,0,1,66.05,244.42Zm33.11-7.9a1.82,1.82,0,0,1-1.84-1.81,1.55,1.55,0,0,1,.07-.52l.47-1.74c.56-2.3,1.24-4.73,2-7.17a1.83,1.83,0,0,1,3.49,1.13h0c-.76,2.35-1.42,4.7-2,7l-.49,1.83A1.82,1.82,0,0,1,99.16,236.52Zm333.11-1.82a1.82,1.82,0,0,1-1.82-1.42c-.68-2.81-1.51-5.63-2.54-8.63a1.84,1.84,0,1,1,3.47-1.21c1.07,3.12,1.94,6.06,2.64,9a1.81,1.81,0,0,1-1.33,2.21h0a1.36,1.36,0,0,1-.35.07Zm31.9-3.07a1.83,1.83,0,0,1-1.83-1.61l-.31-2.47c-.22-2.15-.53-4.34-.91-6.56a1.85,1.85,0,0,1,3.65-.61c.38,2.3.7,4.56.91,6.75l.31,2.43a1.82,1.82,0,0,1-1.56,2.05h0Zm-396.4-5.48h-.25a1.83,1.83,0,0,1-1.58-2v0c.4-3,.91-6,1.64-9.19a1.83,1.83,0,1,1,3.58.79h0c-.68,3.11-1.2,6-1.58,8.89a1.84,1.84,0,0,1-1.78,1.55Zm37-7.12a1.82,1.82,0,0,1-1.7-2.51v0c.23-.56.45-1.11.69-1.66,1-2.3,2.1-4.57,3.25-6.81a1.84,1.84,0,1,1,3.26,1.69h0c-1.12,2.14-2.17,4.36-3.14,6.58-.22.52-.44,1.06-.66,1.59A1.81,1.81,0,0,1,104.81,219Zm321.58-1.72a1.8,1.8,0,0,1-1.29-.54,1.67,1.67,0,0,1-.39-.56h0c-1.2-2.74-2.53-5.48-4-8.12a1.83,1.83,0,0,1,3.23-1.74c1.47,2.74,2.83,5.47,4.07,8.33a.61.61,0,0,1,.05.12l.13.28v.28a1.9,1.9,0,0,1-1.84,2Zm34.73-3.75a1.81,1.81,0,0,1-1.82-1.41c-.61-2.51-1.3-5.11-2.12-7.94l-.27-.75a1.84,1.84,0,1,1,3.48-1.19h0l.28.83c.87,3,1.58,5.62,2.2,8.21a1.81,1.81,0,0,1-1.33,2.21h0A1.71,1.71,0,0,1,461.12,213.56ZM71.64,208.17a1.82,1.82,0,0,1-1.84-1.81,1.79,1.79,0,0,1,.07-.51l.78-2.74,2.08-6.1a1.83,1.83,0,1,1,3.46,1.21h0l-2,6c-.24.82-.49,1.73-.75,2.64A1.82,1.82,0,0,1,71.64,208.17Zm41.6-5.42a1.88,1.88,0,0,1-1-.27,1.82,1.82,0,0,1-.6-2.51l0,0c1.66-2.64,3.45-5.24,5.3-7.69a1.84,1.84,0,0,1,2.93,2.21c-1.83,2.37-3.5,4.87-5.11,7.44A1.83,1.83,0,0,1,113.24,202.75Zm304.43-1.56a1.81,1.81,0,0,1-1.53-.83c-1.66-2.52-3.42-5-5.26-7.3a1.83,1.83,0,1,1,2.89-2.26c1.9,2.43,3.74,5,5.48,7.59a1.83,1.83,0,0,1-1.54,2.84Zm38-5.19a1.84,1.84,0,0,1-1.72-1.18q-.36-.94-.75-1.89L451.93,190l-1.59-3.51a1.84,1.84,0,0,1,3.34-1.54c.54,1.18,1.07,2.37,1.6,3.54l1.31,2.92c.3.72.58,1.38.83,2.06a1.81,1.81,0,0,1-1,2.36h0a1.88,1.88,0,0,1-.66.12ZM77.87,190.92a1.75,1.75,0,0,1-.75-.17,1.82,1.82,0,0,1-.92-2.41v0c1.14-2.52,2.43-5.38,3.78-8.12l.2-.35a1.84,1.84,0,0,1,3.19,1.82h0l-.15.26c-1.27,2.57-2.54,5.4-3.65,7.89a1.83,1.83,0,0,1-1.71,1.1Zm46.43-2.81a1.84,1.84,0,0,1-1.37-3.05h0c.27-.31.56-.61.83-.91,1.83-2,3.71-3.91,5.69-5.77A1.83,1.83,0,1,1,132,181c-1.91,1.83-3.77,3.65-5.48,5.6l-.8.91a1.8,1.8,0,0,1-1.41.57Zm282.06-1.36a1.82,1.82,0,0,1-1.32-.57c-1.08-1.12-2.19-2.21-3.3-3.3L399,180.15l-.47-.47a1.83,1.83,0,0,1,2.61-2.58l.48.47c.91.92,1.77,1.83,2.67,2.66,1.13,1.11,2.27,2.24,3.37,3.39a1.83,1.83,0,0,1,0,2.58,1.89,1.89,0,0,1-1.32.53Zm41.46-7.3a1.81,1.81,0,0,1-1.59-.91l-4.51-7.88a1.84,1.84,0,0,1,3-2.07l.56.84,4.13,7.23a1.83,1.83,0,0,1-.67,2.49,1.78,1.78,0,0,1-.93.25Zm-310.18-3.92a1.83,1.83,0,0,1-1.87-1.78,1.86,1.86,0,0,1,.72-1.5c2.41-1.92,4.94-3.78,7.51-5.53a1.83,1.83,0,1,1,2,3c-2.5,1.7-5,3.5-7.3,5.37a1.86,1.86,0,0,1-1.09.39Zm-51.3-.91a1.85,1.85,0,0,1-1.6-2.74h0l1.37-2.42c1.28-1.89,2.51-3.65,3.75-5.41a1.84,1.84,0,1,1,3,2.13q-1.83,2.6-3.65,5.22l-1.31,2.3a1.82,1.82,0,0,1-1.58.94Zm306.46-.24a1.86,1.86,0,0,1-1.11-.38c-2.6-2-5-3.73-7.36-5.29a1.84,1.84,0,1,1,2-3.06c2.42,1.61,4.9,3.39,7.55,5.47a1.83,1.83,0,0,1-1.12,3.3Zm-240-9.19a1.82,1.82,0,0,1-1.87-1.78,1.8,1.8,0,0,1,1-1.65l.24-.14c2.64-1.47,5.35-2.86,8.07-4.12a1.83,1.83,0,1,1,1.54,3.33h0c-2.62,1.23-5.25,2.57-7.82,4l-.21.13A1.82,1.82,0,0,1,152.82,165.19Zm224.64-.91a1.89,1.89,0,0,1-.91-.23c-2.67-1.43-5.4-2.74-8.12-4a1.84,1.84,0,0,1,1.51-3.36c2.79,1.26,5.6,2.65,8.35,4.13a1.83,1.83,0,0,1-.91,3.46Zm60.46-.34a1.85,1.85,0,0,1-1.5-.78l-1.19-1.62c-1.37-1.83-2.85-3.65-4.36-5.42a1.84,1.84,0,1,1,2.8-2.38c1.56,1.83,3.08,3.74,4.52,5.63l1.23,1.72a1.83,1.83,0,0,1-1.5,2.91ZM96.81,159.52A1.82,1.82,0,0,1,95,157.71a1.84,1.84,0,0,1,.42-1.17c1.91-2.39,4-4.77,6.07-7.06a1.84,1.84,0,1,1,2.73,2.48c-2,2.24-4,4.57-5.91,6.88a1.83,1.83,0,0,1-1.47.72Zm72.65-2.1a1.83,1.83,0,0,1-.64-3.56c2.91-1.08,5.89-2.07,8.86-2.92a1.84,1.84,0,0,1,2.27,1.27,1.82,1.82,0,0,1-1.27,2.26c-2.87.83-5.75,1.77-8.57,2.83a1.68,1.68,0,0,1-.65.16Zm191.24-.65a1.65,1.65,0,0,1-.62-.1c-2.85-1-5.75-1.92-8.62-2.73a1.82,1.82,0,0,1-1.3-2.23v0a1.82,1.82,0,0,1,2.22-1.31h0c3,.79,6,1.73,8.9,2.73a1.83,1.83,0,0,1-.62,3.57Zm-173.61-4.36a1.83,1.83,0,0,1-.36-3.65l1.32-.26a47.26,47.26,0,0,1,6.69-1.05l1.2-.15a1.84,1.84,0,1,1,.43,3.65l-1.29.16a46,46,0,0,0-6.29,1l-1.34.28ZM343,152.05h-.52a43.6,43.6,0,0,0-5.79-.92l-3-.34a1.84,1.84,0,0,1,.43-3.65h0l2.88.33a48.32,48.32,0,0,1,6.21,1,1.91,1.91,0,0,1,1.5,2.19,1.83,1.83,0,0,1-1.71,1.42Zm-77.14-1.69h-5.4a1.83,1.83,0,0,1,0-3.65h9.16a1.83,1.83,0,1,1,0,3.65Zm13-.07a1.83,1.83,0,0,1,0-3.65H288a1.83,1.83,0,1,1,0,3.65Zm-27.56,0h0l-9.19,0a1.83,1.83,0,1,1,0-3.65h9.19a1.83,1.83,0,1,1,0,3.65Zm-45.89-.06a1.83,1.83,0,1,1,0-3.65l5.55-.17c.58,0,1.15,0,1.91,0h1.83a1.83,1.83,0,0,1,0,3.65h-3.52l-5.59.17Zm27.56,0h-9.19a1.83,1.83,0,0,1,0-3.65h9.19a1.83,1.83,0,1,1,0,3.65Zm64.31,0a1.83,1.83,0,1,1,0-3.65h9.18a1.83,1.83,0,1,1,0,3.65Zm27.55-.08h0l-4-.12h-1.09l-4,.06a1.88,1.88,0,0,1-1.87-1.82,1.82,1.82,0,0,1,1.78-1.87h5.28l4,.12a1.83,1.83,0,0,1,0,3.65Zm101.37-.21a1.8,1.8,0,0,1-1.31-.57c-2.08-2.14-4.27-4.27-6.51-6.31a1.84,1.84,0,0,1,2.47-2.74c2.3,2.1,4.56,4.28,6.67,6.49a1.82,1.82,0,0,1-1.32,3.11ZM109.23,146a1.83,1.83,0,0,1-1.28-3.14h0c2.23-2.14,4.57-4.23,6.92-6.22a1.83,1.83,0,0,1,2.36,2.8h0c-2.29,2-4.56,4-6.74,6.06A1.81,1.81,0,0,1,109.23,146Zm303.28-8.46a1.85,1.85,0,0,1-1.15-.4c-2.33-1.82-4.78-3.7-7.25-5.47a1.84,1.84,0,0,1,2.11-3c2.54,1.78,5,3.65,7.44,5.59a1.83,1.83,0,0,1,.33,2.56,1.86,1.86,0,0,1-1.48.71ZM123.25,134.2a1.83,1.83,0,0,1-1.11-3.3h0c2.48-1.82,5-3.65,7.64-5.31a1.84,1.84,0,1,1,2,3.08c-2.53,1.65-5,3.39-7.44,5.18a1.84,1.84,0,0,1-1.08.36ZM397.49,127a1.81,1.81,0,0,1-1-.27c-2.57-1.58-5.22-3.09-7.87-4.56a1.84,1.84,0,1,1,1.73-3.24c2.74,1.45,5.48,3,8.07,4.62a1.83,1.83,0,0,1-1,3.41Zm-258.84-2.81a1.83,1.83,0,0,1-.92-3.44c2.69-1.51,5.48-3,8.22-4.32a1.84,1.84,0,1,1,1.61,3.3c-2.73,1.32-5.41,2.74-8,4.23a1.81,1.81,0,0,1-.88.23Zm242.64-5.84a1.9,1.9,0,0,1-.77-.16c-2.73-1.25-5.54-2.44-8.36-3.53a1.84,1.84,0,0,1,1.33-3.43c2.88,1.12,5.77,2.33,8.57,3.65a1.83,1.83,0,0,1-.77,3.51Zm-226.14-2.22a1.82,1.82,0,0,1-1.89-1.76,1.84,1.84,0,0,1,1.18-1.77c2.86-1.18,5.78-2.29,8.7-3.29a1.84,1.84,0,1,1,1.2,3.47h0c-2.85,1-5.71,2.07-8.49,3.22A1.85,1.85,0,0,1,155.15,116.13Zm209-4.39a1.71,1.71,0,0,1-.55-.09c-2.8-.91-5.63-1.69-8.45-2.4l-.27-.06a1.84,1.84,0,1,1,.91-3.57l.27.06c2.91.73,5.82,1.56,8.69,2.48a1.82,1.82,0,0,1-.56,3.58Zm-191.65-1.57a1.83,1.83,0,0,1-.49-3.61c1.17-.33,2.35-.64,3.53-.91l2.69-.65,2.74-.68a1.84,1.84,0,0,1,.84,3.58h0c-.92.21-1.83.44-2.74.66l-2.74.67c-1.12.27-2.27.57-3.41.91A3,3,0,0,1,172.49,110.17Zm173.87-3h-.31c-.92-.16-1.83-.3-2.79-.41l-6.2-.91a1.82,1.82,0,0,1-1.58-2v0a1.81,1.81,0,0,1,2-1.56l6.22.91c.91.11,1.95.25,2.94.44a1.83,1.83,0,1,1-.32,3.65Zm-155.91-.84a1.83,1.83,0,1,1-.27-3.65l6.88-1c.75-.09,1.47-.13,2.19-.17h.21a1.83,1.83,0,0,1,.2,3.65h-.21a15.52,15.52,0,0,0-1.92.15l-6.79,1a1.18,1.18,0,0,1-.26,0ZM328.14,105H328l-6.95-.39c-.74,0-1.47-.08-2.07-.08a1.82,1.82,0,0,1-1.87-1.78v0a1.83,1.83,0,0,1,1.83-1.83h0c.65,0,1.45,0,2.26.08l7,.39a1.83,1.83,0,0,1-.1,3.65Zm-119.41-.34a1.83,1.83,0,0,1-.09-3.65l1.69-.09c.78,0,1.57-.08,2.21-.08l5.35-.07a1.91,1.91,0,0,1,1.83,1.83,1.82,1.82,0,0,1-1.83,1.82l-5.26.08h0c-.71,0-1.43,0-2.15.07l-1.69.09Zm101-.27h0l-9.18-.06a1.83,1.83,0,0,1,0-3.65h0l9.21.06a1.83,1.83,0,1,1,0,3.65Zm-82.68,0a1.83,1.83,0,1,1,0-3.65h9.18a1.83,1.83,0,1,1,0,3.65Zm64.3-.05h-9.19a1.83,1.83,0,0,1,0-3.66h9.19a1.83,1.83,0,1,1,0,3.66Zm-45.93,0a1.83,1.83,0,0,1,0-3.66h9.18a1.83,1.83,0,1,1,0,3.66Zm27.55-.07h-9.17a1.83,1.83,0,0,1,0-3.65h9.2a1.83,1.83,0,1,1,0,3.65Z"/><path class="cls-5" d="M71.9,351.27H63.53a2,2,0,0,1-1.86-2.08l0-.25,1.38-9.69a1.94,1.94,0,0,1,1.82-1.71h5.62a1.93,1.93,0,0,1,1.82,1.71l1.38,9.69a2,2,0,0,1-1.6,2.3Z"/><path class="cls-6" d="M77.79,380l-2.31-25.68c-.23-2.61-1.55-4.57-3.08-4.57H63c-1.54,0-2.84,1.93-3.08,4.57L57.65,380c-.29,3.24,1.18,6.16,3.08,6.16h14C76.66,386.17,78.07,383.25,77.79,380Zm-6.71,3.47H64.35a4,4,0,0,1,0-8.09h6.73a4,4,0,0,1,0,8.09Z"/><path class="cls-7" d="M382.33,611.81H146.78a54,54,0,0,1-53.23-63.18l27.92-162.06a54,54,0,0,1,53.23-44.84H354.41a54,54,0,0,1,53.23,44.84l27.92,162.06a54,54,0,0,1-53.23,63.18Z"/><path class="cls-5" d="M410.2,441h-8.36a2,2,0,0,1-1.85-2.09,1.81,1.81,0,0,1,0-.23L401.4,429a1.89,1.89,0,0,1,1.82-1.7h5.64a1.9,1.9,0,0,1,1.83,1.7l1.38,9.67a2,2,0,0,1-1.59,2.29Z"/><path class="cls-6" d="M416.07,469.7l-2.3-25.62c-.23-2.6-1.54-4.56-3.08-4.56h-9.33c-1.53,0-2.85,1.93-3.08,4.56L396,469.7c-.29,3.24,1.17,6.15,3.08,6.15H413C414.9,475.85,416.36,472.94,416.07,469.7Zm-6.69,3.46h-6.71a4,4,0,1,1-.39-8.06h7.1a4,4,0,0,1,.39,8.06Z"/><path class="cls-1" d="M264,615.49a3.66,3.66,0,0,1-3.65-3.65V595.27a3.68,3.68,0,0,1,7.35,0v16.54a3.66,3.66,0,0,1-3.62,3.68Zm0-33.08a3.65,3.65,0,0,1-3.65-3.65V562.19a3.68,3.68,0,0,1,7.35,0v16.53a3.65,3.65,0,0,1-3.61,3.69Zm0-33.07a3.66,3.66,0,0,1-3.65-3.65V529.13a3.68,3.68,0,0,1,7.35,0v16.54a3.65,3.65,0,0,1-3.63,3.67Zm0-33.07a3.65,3.65,0,0,1-3.65-3.65V496.06a3.68,3.68,0,0,1,7.35,0V512.6a3.65,3.65,0,0,1-3.62,3.67Zm0-33.07a3.65,3.65,0,0,1-3.65-3.65V463a3.68,3.68,0,0,1,7.35,0v16.54A3.65,3.65,0,0,1,264,483.2Zm0-33.07a3.65,3.65,0,0,1-3.65-3.65V429.92a3.68,3.68,0,0,1,7.35,0v16.54a3.65,3.65,0,0,1-3.62,3.67Zm0-33.07a3.65,3.65,0,0,1-3.65-3.65V396.85a3.68,3.68,0,1,1,7.35,0v16.58a3.66,3.66,0,0,1-3.65,3.65H264Z"/><path class="cls-4" d="M400.76,431.52H128.35c-15.51,0-27.11-13.2-24.07-27.38h0c9.86-45.93,12.86-79,63.18-79H361.65c50.32,0,53.32,33,63.18,79h0C427.87,418.32,416.25,431.52,400.76,431.52Z"/></g></g></svg>