<svg id="Laag_1" data-name="Laag 1" xmlns="http://www.w3.org/2000/svg" viewBox="0 0 667.18 667.18"><defs><style>.cls-1{fill:#fade22;}.cls-2{fill:#f7f992;}.cls-14,.cls-3{fill:#002846;stroke-width:4px;}.cls-3{stroke:#e20613;}.cls-14,.cls-24,.cls-3{stroke-miterlimit:10;}.cls-4{fill:#e6e6e6;}.cls-5{fill:#63b5e4;}.cls-6{fill:#d7916b;}.cls-7{fill:#bd1622;}.cls-8{fill:#d9d9d9;}.cls-9{fill:#e20613;}.cls-10{fill:#1d1d1b;}.cls-11{fill:#fff;}.cls-12{fill:#875232;}.cls-13{fill:#82c17a;}.cls-14{stroke:#ff777c;}.cls-15{fill:#d9893c;}.cls-16{fill:#c16f2c;}.cls-17{fill:#721c01;}.cls-18{fill:#9f2b00;}.cls-19{fill:#9a4002;}.cls-20{fill:#6b2e00;}.cls-21{fill:#632600;}.cls-22{fill:#87440a;}.cls-23{fill:#be7000;}.cls-24{fill:none;stroke:#632600;stroke-linecap:round;stroke-width:2px;}.cls-25{fill:#ccc;}.cls-26{fill:gray;}.cls-27{fill:#4c4c4c;}.cls-28{fill:#303030;}</style></defs><title>memory</title><circle class="cls-1" cx="333.59" cy="333.59" r="319.65"/><circle class="cls-2" cx="352.38" cy="321.93" r="283.65"/><rect class="cls-3" x="162.12" y="218.48" width="166.24" height="247.1" rx="26.54" transform="translate(-84.77 80.84) rotate(-16)"/><path class="cls-4" d="M201.22,377.09q5.81-1.66,10.27-8.95l-1.34-.82c-4.49,7.32-10.06,10-16.56,8-12.21-3.78-13.05-15.63-13.85-27.09-.21-3-.4-5.77-.79-8.45l-.11-.78c-.83-5.64-2-13.36,2.78-17,4.38-3.41,11.27.69,15.82,3.39l.77.46.8-1.36-.76-.45c-4.92-2.93-12.37-7.35-17.6-3.28-5.47,4.25-4.21,12.84-3.37,18.52l.11.77c.38,2.62.57,5.4.78,8.34.8,11.43,1.71,24.39,15,28.48A13.94,13.94,0,0,0,201.22,377.09Z"/><path class="cls-4" d="M297.24,351.82a10.33,10.33,0,0,0,4.17-2.73c9.76-9.62,14.35-25.8,3.61-36.85-5.82-6-11.08-11.33-16.55-15.93-2-1.66-3.71-2.33-5.33-2-2.71.48-4.37,3.41-6.31,6.8-.28.5-.58,1-.88,1.53l1.36.79c.31-.51.6-1,.89-1.54,1.74-3.05,3.24-5.67,5.21-6,1.13-.2,2.45.35,4,1.69,5.85,4.93,11.71,11,16.43,15.83,10,10.32,5.64,25.54-3.58,34.62-1.9,1.88-3.53,2.67-5,2.45-1.69-.27-3.31-2-5.07-5.33l-1.4.73c2,3.85,4,5.81,6.23,6.16A4.94,4.94,0,0,0,297.24,351.82Z"/><path class="cls-5" d="M212.38,369.71a184.67,184.67,0,0,0,75.44-21.63l-13-45.32a184.62,184.62,0,0,1-75.43,21.63Z"/><path class="cls-4" d="M270.56,317l-2.42,1.21c-1.54.79-3.77,1.81-6.45,3s-5.87,2.54-9.31,3.83-7.16,2.55-10.94,3.6-7.59,2-11.19,2.74-7,1.27-9.92,1.68-5.36.7-7.09.84l-2.69.26s1,.12,2.82.2,4.34.16,7.34,0a89.27,89.27,0,0,0,10.13-1A89.21,89.21,0,0,0,253,327.13a88.75,88.75,0,0,0,9.11-4.55c2.61-1.48,4.72-2.92,6.2-3.91S270.56,317,270.56,317Z"/><path class="cls-4" d="M273.48,327.21l-2.41,1.25c-1.52.81-3.74,1.88-6.42,3.13s-5.84,2.61-9.28,3.93-7.15,2.59-10.93,3.64-7.59,2-11.2,2.7-7,1.21-10,1.59-5.38.63-7.11.75l-2.7.21s1,.15,2.84.28,4.37.28,7.39.21a82.94,82.94,0,0,0,10.17-.81A82.51,82.51,0,0,0,256,337.74a82.93,82.93,0,0,0,9.05-4.7c2.6-1.54,4.69-3.06,6.15-4.09S273.48,327.21,273.48,327.21Z"/><path class="cls-4" d="M276.54,337.88l-2.41,1.25c-1.52.83-3.74,1.88-6.42,3.14s-5.84,2.62-9.28,3.94-7.15,2.59-10.92,3.64-7.59,2-11.2,2.7-7,1.21-10,1.58-5.38.63-7.11.74l-2.7.21s1,.15,2.84.28,4.37.29,7.39.23a81,81,0,0,0,10.18-.8,82.3,82.3,0,0,0,22.12-6.35,82.19,82.19,0,0,0,9.06-4.71c2.59-1.55,4.68-3.07,6.14-4.11S276.54,337.88,276.54,337.88Z"/><path class="cls-4" d="M208.86,369.8c1.41,0,2.12,0,3.52-.09l-13-45.32c-1.41.05-2.11.07-3.52.08Z"/><path class="cls-4" d="M287.82,348.08c1.22-.7,1.82-1.06,3-1.79l-13-45.32c-1.2.73-1.81,1.09-3,1.79Z"/><rect class="cls-3" x="215.27" y="197.68" width="166.24" height="247.1" rx="26.54" transform="translate(-35.05 36.55) rotate(-6.62)"/><path class="cls-6" d="M255.28,354c-7.46-18.92,1.9-36.94,1.9-36.94s-9.09,9.55-22.79,5.94c15.46-16.1,16.75-22,16.75-22s-6-1.31-16.68,7.27c-.31-16.59,13.4-25.1,13.4-25.1s-16.38.38-12-25.15c12.76,14.38,18.4,4.66,18.4,4.66s2.67-3-11.85-12.37c16.43-7.32,26.77-.35,26.77-.35s.65-11,11.35-13.45c-3.67,14.18,8.57,15.05,8.57,15.05s4.86-10,1.16-16.41c16.66,2.47,15.27,18.87,15.27,18.87s6.5-8,21.22-10.1c-7.61,16.51-5.16,25.91-5.44,26.3.19-.24,3.89,20.22,3.89,20.22.75,10.39,2,19-15.58,23.87L288,326l-1.29,4.32-7.86-.66S259.89,340,255.28,354Z"/><path class="cls-6" d="M315.68,365.59A67.88,67.88,0,0,1,294.74,368c-4.54-.28-10-4.71-11.47-9.2a77.73,77.73,0,0,1-3.64-21.53c0-4.66,4.43-10.47,9.17-12a68.06,68.06,0,0,1,22.88-2.65c5,.37,10.59,5,11.67,9.56A77.91,77.91,0,0,1,324.74,354C324.31,358.72,320,364.28,315.68,365.59Z"/><path class="cls-6" d="M350.66,345.81a4.56,4.56,0,0,0-3.73-3.28c-18.4-2.68-26.58-13.66-26.92-14.12a4.56,4.56,0,1,0-7.41,5.3c.42.59,10.58,14.57,33,17.84a4.55,4.55,0,0,0,5.17-3.85A4.44,4.44,0,0,0,350.66,345.81Z"/><path class="cls-6" d="M304,408.4l-30,3.48a2.41,2.41,0,0,1-2.62-2.94c1.93-8.2,13.95-15.63,22.53-16.63,8.86-1,11,5.14,12.15,13.37A2.39,2.39,0,0,1,304,408.4Z"/><path class="cls-6" d="M299.47,408a4.57,4.57,0,0,1-5-3.63L286,362.28a4.56,4.56,0,1,1,8.93-1.81l8.54,42.12a4.57,4.57,0,0,1-3.56,5.38Z"/><path class="cls-6" d="M316,407l30-3.48a2.4,2.4,0,0,0,1.87-3.46c-3.75-7.55-17.15-12-25.74-11-8.86,1-9.54,7.53-8.76,15.8A2.39,2.39,0,0,0,316,407Z"/><path class="cls-6" d="M320.3,405.61l-.39,0a4.56,4.56,0,0,1-4.7-4.41l-1.34-43A4.56,4.56,0,0,1,323,358l1.34,43A4.55,4.55,0,0,1,320.3,405.61Z"/><path class="cls-7" d="M307.41,406.45a2.62,2.62,0,0,1-2.29,3l-32.55,3.78a2.62,2.62,0,0,1-2.85-3.2l0-.14c1-4.09,4.33-8,8.51-11.11,4.88-3.65,10.95-6.24,15.94-6.82,9.29-1.08,11.79,5.12,13.07,13.58C307.32,405.81,307.36,406.13,307.41,406.45Z"/><path class="cls-8" d="M307.41,406.45a2.62,2.62,0,0,1-2.29,3l-32.55,3.78a2.62,2.62,0,0,1-2.85-3.2l0-.14,37.52-4.35C307.32,405.81,307.36,406.13,307.41,406.45Z"/><path class="cls-7" d="M305.5,398.26l-16.94-5-1.23-5.21a1.26,1.26,0,0,1,1.08-1.54l15.44-1.79a1.26,1.26,0,0,1,1.41,1.23Z"/><path class="cls-7" d="M312.45,405.86a2.62,2.62,0,0,0,2.91,2.36l32.55-3.78a2.61,2.61,0,0,0,2-3.76l-.06-.13c-1.93-3.75-6-6.79-10.83-8.87-5.58-2.44-12.08-3.56-17.08-3-9.29,1.08-10.3,7.68-9.61,16.21C312.4,405.22,312.42,405.54,312.45,405.86Z"/><path class="cls-8" d="M312.45,405.86a2.62,2.62,0,0,0,2.91,2.36l32.55-3.78a2.61,2.61,0,0,0,2-3.76l-.06-.13-37.52,4.36C312.4,405.22,312.42,405.54,312.45,405.86Z"/><path class="cls-7" d="M312.44,397.45l15.34-8.74v-5.36a1.26,1.26,0,0,0-1.41-1.25l-15.44,1.79a1.26,1.26,0,0,0-1.09,1.52Z"/><path class="cls-9" d="M338.55,370.44A167.69,167.69,0,0,1,273.88,378c1.52-15.46,7.63-32.87,6.4-48.13-.08-1,3.82-3.55,7.6-4.2,9.59-1.66,14.13-2.54,23.87-2.77,4.64-.12,8.72,3.45,10,6S330.48,355.71,338.55,370.44Z"/><circle class="cls-6" cx="350.95" cy="345.83" r="6.76"/><ellipse class="cls-6" cx="349.78" cy="338.52" rx="7.85" ry="3.71" transform="translate(-108.35 502.99) rotate(-63.81)"/><ellipse class="cls-6" cx="358.06" cy="342.03" rx="3.58" ry="9.04" transform="translate(2.65 686.82) rotate(-87.82)"/><ellipse class="cls-6" cx="357.93" cy="348.89" rx="3.58" ry="9.04" transform="translate(-62.43 619.33) rotate(-77.02)"/><ellipse class="cls-6" cx="353.78" cy="353.11" rx="3.58" ry="9.04" transform="translate(-127.28 488.86) rotate(-60.7)"/><path class="cls-6" d="M266.4,363.57a4.67,4.67,0,0,1-1.88-.18,4.56,4.56,0,0,1-3-5.72c6.77-21.63,22.17-29.46,22.83-29.78a4.56,4.56,0,0,1,4.06,8.16c-.55.28-12.65,6.64-18.19,24.35A4.58,4.58,0,0,1,266.4,363.57Z"/><circle class="cls-6" cx="265.7" cy="363.92" r="6.76"/><ellipse class="cls-6" cx="273.11" cy="363.92" rx="3.71" ry="7.85" transform="translate(-181.71 376.76) rotate(-54.73)"/><ellipse class="cls-6" cx="268.33" cy="371.54" rx="9.04" ry="3.58" transform="translate(-148.46 562.15) rotate(-78.74)"/><ellipse class="cls-6" cx="261.57" cy="370.33" rx="9.04" ry="3.58" transform="translate(-179.89 473.68) rotate(-67.94)"/><ellipse class="cls-6" cx="258.06" cy="365.57" rx="9.04" ry="3.58" transform="translate(-188.74 340.91) rotate(-51.62)"/><path class="cls-6" d="M318.49,271.6l7.37,9.8s7.11-8.1,5.15-16.34a.8.8,0,0,0-1.25-.46A86.35,86.35,0,0,1,318.49,271.6Z"/><circle class="cls-6" cx="296.57" cy="293.93" r="32.74"/><path class="cls-6" d="M288.52,313.69A14,14,0,0,0,304.09,326c18.24-2.87,36.18-12,33.89-20.59-.25-2.71-6.06-2-9.17-5.71C323.84,293.77,287.62,306,288.52,313.69Z"/><path class="cls-10" d="M334.71,306.25c.63,1.79,4,2.25,7.48,1s4.64-3.52,4-5.31-2.77-2.39-6.27-1.17S334.09,304.46,334.71,306.25Z"/><ellipse class="cls-11" cx="343.34" cy="301.63" rx="1.53" ry="0.76" transform="translate(-10.07 11.86) rotate(-1.95)"/><path class="cls-6" d="M282.48,277.74s-8.08-5.74-14.82-6c-.57,0-.71.74-.46,1.25,3,6.19,5.47,12.13,5.47,12.13"/><path class="cls-12" d="M272.72,285.54a.43.43,0,0,1-.47-.27c0-.06-2.49-6-5.46-12.11a1.58,1.58,0,0,1,0-1.47.93.93,0,0,1,.85-.43c6.79.29,14.73,5.87,15.06,6.11a.45.45,0,0,1,.11.64.46.46,0,0,1-.64.1c-.08-.05-8-5.66-14.57-5.94,0,0,0,0-.05,0a.67.67,0,0,0,0,.57c3,6.14,5.45,12.1,5.48,12.16a.46.46,0,0,1-.25.59Z"/><path class="cls-12" d="M322.76,319.5a15.57,15.57,0,0,1-12.65-4,.77.77,0,0,1,0-1.08.76.76,0,0,1,1.08,0c5.32,5.13,12.64,3.38,12.72,3.36a.76.76,0,0,1,.37,1.48A13.31,13.31,0,0,1,322.76,319.5Z"/><path class="cls-12" d="M297.48,284.12a.8.8,0,0,1-.58-.17c-.55-.42-5.6-4-14.09.37a.76.76,0,0,1-.7-1.36c9.32-4.8,15.09-.7,15.72-.21a.8.8,0,0,1,.29.44.74.74,0,0,1-.56.91Z"/><path class="cls-12" d="M308.41,283.49h-.1a.77.77,0,0,1-.54-1.27c.56-.64,5.38-5.77,15.44-2.94a.76.76,0,1,1-.41,1.46c-9.19-2.59-13.42,1.94-13.87,2.47A.8.8,0,0,1,308.41,283.49Z"/><path class="cls-10" d="M287.54,290.92a18,18,0,0,1-2.26-.89,18.77,18.77,0,0,1-2.13-1.12,14.94,14.94,0,0,1-1.94-1.4,9.06,9.06,0,0,1-1.57-1.77,8.75,8.75,0,0,0,1.78,1.49,13.26,13.26,0,0,0,2.05,1.06,21.48,21.48,0,0,0,2.17.76,20.79,20.79,0,0,0,2.22.51h0a.72.72,0,0,1,.58.81.7.7,0,0,1-.81.58Z"/><path class="cls-10" d="M286.51,292.79a22.63,22.63,0,0,1-2.36-.6,20.3,20.3,0,0,1-2.25-.84,14.66,14.66,0,0,1-2.1-1.14,9.18,9.18,0,0,1-1.78-1.56,8.74,8.74,0,0,0,2,1.25,14.08,14.08,0,0,0,2.17.79,19.6,19.6,0,0,0,2.25.48,22.19,22.19,0,0,0,2.26.23h0a.69.69,0,0,1,.67.72.7.7,0,0,1-.72.68Z"/><circle class="cls-11" cx="293.14" cy="295.59" r="9.72"/><circle class="cls-13" cx="290.12" cy="295.94" r="4.45"/><circle class="cls-10" cx="290.12" cy="295.94" r="2.51"/><circle class="cls-11" cx="290.82" cy="293.88" r="1.78"/><circle class="cls-11" cx="289.29" cy="298.26" r="0.69"/><path class="cls-10" d="M322.26,286.89a20.77,20.77,0,0,0,2-1.38,22.74,22.74,0,0,0,1.81-1.58,15,15,0,0,0,1.57-1.81,9,9,0,0,0,1.12-2.09,8.91,8.91,0,0,1-1.39,1.87,15.57,15.57,0,0,1-1.75,1.5,18.8,18.8,0,0,1-1.95,1.23,20.17,20.17,0,0,1-2,1h0a.71.71,0,0,0-.37.92.69.69,0,0,0,.91.38Z"/><path class="cls-10" d="M323.69,288.47a20.76,20.76,0,0,0,2.15-1.12,21,21,0,0,0,2-1.33,15.14,15.14,0,0,0,1.79-1.6,9,9,0,0,0,1.38-1.93,8.9,8.9,0,0,1-1.62,1.68,15.61,15.61,0,0,1-1.93,1.26,19.72,19.72,0,0,1-2.08,1,21.07,21.07,0,0,1-2.15.74h0a.7.7,0,1,0,.37,1.36Z"/><circle class="cls-11" cx="317.84" cy="292.72" r="9.72"/><circle class="cls-13" cx="314.82" cy="293.07" r="4.45"/><circle class="cls-10" cx="314.82" cy="293.07" r="2.51"/><circle class="cls-11" cx="315.52" cy="291.01" r="1.78"/><circle class="cls-11" cx="313.99" cy="295.39" r="0.69"/><rect class="cls-14" x="307.68" y="210.55" width="166.24" height="247.1" rx="26.54" transform="translate(24.73 -26.92) rotate(4.07)"/><path d="M409.15,262.35a1,1,0,0,1,1,.18l-1.05-.19Z"/><path class="cls-15" d="M380.26,336.24l-.64.26a35.18,35.18,0,0,0-3.39,1.63,36.25,36.25,0,0,0-3.33,2.14,47.47,47.47,0,0,0-4.32,3.56c-.67.63-1.38,1.27-2,1.95l-.83.88c-.73.77-1.4,1.54-2.11,2.34-.95,1.12-1.88,2.28-2.76,3.46s-1.74,2.39-2.55,3.61q-.61.93-1.17,1.83c-.19.31-.37.6-.54.9l-.23.42-.11.19v.08h0a12.63,12.63,0,0,1-21.95-12.38c.24-.47.51-.94.8-1.4l.11-.16v-.1l.14-.19.26-.34.5-.62c.32-.42.65-.81,1-1.22.64-.78,1.3-1.52,1.94-2.25q2-2.2,4.06-4.25c1.39-1.37,2.82-2.7,4.3-4s3-2.54,4.6-3.75a69.94,69.94,0,0,1,10.3-6.53,57.74,57.74,0,0,1,5.8-2.57,51.9,51.9,0,0,1,6.23-1.87,9.76,9.76,0,0,1,9.8,3.43,9.76,9.76,0,0,1-3.88,15Z"/><path class="cls-16" d="M354.79,360.46l-.07,1a12.62,12.62,0,0,1-20.39-14.36,14,14,0,0,1,20.5,13.34Z"/><path class="cls-15" d="M445.18,371.24a12.58,12.58,0,0,1-15.48-4,12.22,12.22,0,0,1-1.26-2.12h0v-.08l-.07-.21-.19-.45c-.12-.31-.25-.64-.4-1-.27-.65-.57-1.33-.89-2-.63-1.34-1.31-2.67-2-3.94s-1.46-2.57-2.31-3.81-1.47-2.25-2.25-3.34a1.89,1.89,0,0,1-.2-.27c-.73-1-1.46-1.92-2.22-2.83h0q-1.54-1.83-3.26-3.5c-1-.91-2-1.78-3-2.6a31,31,0,0,0-3.13-2.09l-.58-.34a9.64,9.64,0,0,1-4.09-11.81,9.65,9.65,0,0,1,12.51-5.51,50.33,50.33,0,0,1,5.92,2.74,55.49,55.49,0,0,1,5.37,3.37,70.57,70.57,0,0,1,9.25,7.92c1.42,1.39,2.74,2.88,4,4.36s2.52,3,3.7,4.58,2.36,3.14,3.4,4.77c.55.82,1.08,1.65,1.62,2.51.26.42.53.87.79,1.35l.4.7.21.36.11.22v.1l.1.16a12.71,12.71,0,0,1-6.15,16.76Z"/><path class="cls-16" d="M429.72,366.28l-.07,1a12.62,12.62,0,0,0,22.22-11.32,14,14,0,0,0-22.17,10.29Z"/><path class="cls-16" d="M420.15,350.06c-.73-1-1.46-1.92-2.22-2.83l.16,3L368,346.81l.6-3c-.68.63-1.38,1.27-2,1.95l-.84.88,1.86-9.18a26.36,26.36,0,0,1,14-18.36,9.46,9.46,0,0,1,2.52,2.24l.39-.16.22-.08L385,321l.28-.1.13-.05h.12l.55-.18.66-.2.31-.08.65-.18.29-.05h.27l.5-.11.3-.06.26,0h.15l.69-.1.28,0h.23l.21,0,.33,0,.27,0h.25l.49,0,.44,0,.23,0,.45,0,.63,0,.51,0,1.14.08.57,0,.56,0,.36,0,.37,0,.39,0,.27,0,.28,0,.27,0,.28,0,.53.14.54.14.53.17.43.13.24.09h.11l.17,0h.1l.31.12h.12l.21.08h0l1.11.47h0a1.35,1.35,0,0,1,.3.14l.33.15h.22l.32.17.44.23.61.34.15.1.18.11.2.12h.1a9.52,9.52,0,0,1,2.8-1.8,25,25,0,0,1,3.11,2.7,26.34,26.34,0,0,1,7.58,17l.52,9.14A2.49,2.49,0,0,1,420.15,350.06Z"/><path class="cls-15" d="M393.18,394.5l-6.77-.48a24.3,24.3,0,0,1-22.52-26,25.11,25.11,0,0,1,.43-3.1l3.67-18.2.6-3,1-4.82c.14-.66.3-1.27.49-1.95a3,3,0,0,1,0-.31v-.09a2.87,2.87,0,0,1,.13-.39c.1-.33.21-.64.34-1a1.62,1.62,0,0,1,0-.22.93.93,0,0,1,.13-.31c.21-.54.45-1.07.69-1.59.08-.16.17-.33.24-.48h0c.09-.16.17-.32.26-.47h0l.26-.48.33-.56.23-.37c.07-.12.22-.33.33-.5l.28-.41.27-.37.41-.55.3-.38.34-.41c.35-.42.7-.82,1.08-1.22l.3-.3.52-.5.27-.27.38-.32c0-.08.15-.13.23-.2l.92-.76.26-.19.62-.46.26-.19.61-.41.63-.38.25-.15.11-.05.28-.16.64-.36.34-.17.65-.31.27-.12.76-.34.38-.15.23-.09.24-.08.27-.1.14-.06h.11l.56-.18.66-.2.3-.08.66-.17.28-.06h.27l.5-.1.3-.06.26,0h.15l.7-.11.28,0h.43l.34,0,.27,0h.24l.49,0,.44,0h.23l.45,0,.81.05.51,0,1.15.08.56,0,.57,0,.36,0,.37,0,.38,0,.27,0,.28,0,.27,0,.29,0,.53.14.53.14.53.17.43.13.24.08h.38l.32.11h.11l.22.08h0l1.1.47h0a1.17,1.17,0,0,1,.3.14l.34.15h.22l.32.18.43.23.61.34.15.1.19.11.19.12h.11l.54.35.49.33.21.16.38.27.11.1.44.34.68.55.43.39h0l.37.35.18.18.42.42a22.14,22.14,0,0,1,2.11,2.43c.32.44.64.87.93,1.36a24.25,24.25,0,0,1,3.92,11.89l.28,4.81.17,2.95L419,368.79a24.3,24.3,0,0,1-22.79,25.72A23.26,23.26,0,0,1,393.18,394.5Z"/><path class="cls-15" d="M372.63,388.07l-3,1.26-.4.15-.41.15-1.15.42-1.33.51-.35.13-.34.16-.72.3c-1.9.81-3.91,1.74-5.94,2.75s-4,2.05-6.11,3.15c-1,.55-2,1.14-3,1.65l-1.46.85c-.48.28-1,.59-1.41.83a14.86,14.86,0,1,1-13-26.55l.72-.26,1.93-.68,1.86-.61,3.73-1.19q3.72-1.17,7.55-2.21c2.57-.71,5.18-1.38,8-2l1-.22.53-.1.55-.11L362,366l2.44-.33.34,0,.35,0,.72-.05,1.41-.1a11.73,11.73,0,0,1,5.35,22.54Z"/><path class="cls-16" d="M341.19,402.44a14.87,14.87,0,0,1-13-24.81c5.43-2.12,12.24,1.36,15.52,8.08C346.82,392.1,345.64,399.22,341.19,402.44Z"/><path class="cls-15" d="M399.13,390l2.83,1.68.37.2.39.21,1.08.57,1.24.71.32.18.33.2.66.39c1.77,1.09,3.62,2.29,5.49,3.57s3.69,2.6,5.6,4l2.78,2.08,1.37,1.06c.44.34.93.71,1.29,1a14.84,14.84,0,1,0,19-22.81,15.1,15.1,0,0,0-2.46-1.65l-.67-.35-1.82-.95-1.76-.87c-1.17-.59-2.34-1.15-3.51-1.71q-3.53-1.68-7.16-3.27c-2.44-1.05-4.94-2.08-7.62-3.06l-1-.37-.51-.17-.53-.18-2.15-.71-2.37-.67-.34-.09-.35,0-.69-.16-1.39-.29A11.74,11.74,0,0,0,399.06,390Z"/><path class="cls-16" d="M428.21,408.66a14.87,14.87,0,0,0,16.38-22.72c-5.08-2.86-12.31-.38-16.51,5.81C424.1,397.63,424.26,404.83,428.21,408.66Z"/><path class="cls-15" d="M393.18,394.5l-6.77-.48a24.3,24.3,0,0,1-22.52-26,25.11,25.11,0,0,1,.43-3.1l3.67-18.2.6-3,1-4.82c.14-.66.3-1.27.49-1.95a3,3,0,0,1,0-.31v-.09a2.87,2.87,0,0,1,.13-.39c.1-.33.21-.64.34-1a1.62,1.62,0,0,1,0-.22.93.93,0,0,1,.13-.31c.21-.54.45-1.07.69-1.59.08-.16.17-.33.24-.48h0c.09-.16.17-.32.26-.47h0l.26-.48.33-.56.23-.37c.07-.12.22-.33.33-.5l.28-.41.27-.37.41-.55.3-.38.34-.41c.35-.42.7-.82,1.08-1.22l.3-.3.52-.5.27-.27.38-.32c0-.08.15-.13.23-.2l.92-.76.26-.19.62-.46.26-.19.61-.41.63-.38.25-.15.11-.05.28-.16.64-.36.34-.17.65-.31.27-.12.76-.34.38-.15.23-.09.24-.08.27-.1.14-.06h.11l.56-.18.66-.2.3-.08.66-.17.28-.06h.27l.5-.1.3-.06.26,0h.15l.7-.11.28,0h.43l.34,0,.27,0h.24l.49,0,.44,0h.23l.45,0,.5,0,.31,0,.51,0,1.15.08.56,0,.57,0,.36,0,.37,0,.38,0,.27,0,.28,0,.27,0,.29,0,.53.14.53.14.53.17.43.13.24.08h.38l.32.11h.11l.22.08h0l1.1.47h0a1.17,1.17,0,0,1,.3.14l.34.15h.22l.32.18.43.23.61.34.15.1.19.11.19.12h.11l.54.35.49.33.21.16.38.27.11.1.44.34.68.55.43.39h0l.37.35.18.18.42.42a22.14,22.14,0,0,1,2.11,2.43c.32.44.64.87.93,1.36a24.25,24.25,0,0,1,3.92,11.89l.28,4.79h0l.17,3L419,368.78a24.31,24.31,0,0,1-22.79,25.73A23.42,23.42,0,0,1,393.18,394.5Z"/><ellipse class="cls-15" cx="425.54" cy="281.82" rx="13.24" ry="10.39" transform="translate(-52.85 459.73) rotate(-53.92)"/><ellipse class="cls-17" cx="425.85" cy="282.34" rx="7.84" ry="6.14" transform="translate(-53.14 460.2) rotate(-53.92)"/><ellipse class="cls-18" cx="425.18" cy="282.92" rx="7.84" ry="6.14" transform="translate(-53.88 459.9) rotate(-53.92)"/><ellipse class="cls-15" cx="373.23" cy="277.39" rx="10.39" ry="13.24" transform="translate(-86.46 207.17) rotate(-27.94)"/><ellipse class="cls-17" cx="372.82" cy="276.89" rx="6.23" ry="7.58" transform="translate(-86.27 206.92) rotate(-27.94)"/><ellipse class="cls-18" cx="373.35" cy="277.87" rx="6.14" ry="7.84" transform="translate(-86.67 207.29) rotate(-27.94)"/><ellipse class="cls-15" cx="397.08" cy="299.52" rx="28.41" ry="33.53" transform="matrix(0.07, -1, 1, 0.07, 70.11, 674.31)"/><ellipse class="cls-19" cx="380.2" cy="291.93" rx="3.38" ry="3.46" transform="translate(62 650.43) rotate(-85.93)"/><ellipse class="cls-20" cx="380.14" cy="292.76" rx="3.38" ry="3.46" transform="translate(61.11 651.14) rotate(-85.93)"/><ellipse class="cls-11" cx="379.68" cy="291.41" rx="1.43" ry="1.35" transform="translate(62.03 649.43) rotate(-85.93)"/><ellipse class="cls-19" cx="414.7" cy="295.13" rx="3.46" ry="3.54" transform="translate(90.84 687.81) rotate(-85.93)"/><ellipse class="cls-20" cx="414.64" cy="295.98" rx="3.46" ry="3.54" transform="matrix(0.07, -1, 1, 0.07, 89.94, 688.54)"/><ellipse class="cls-11" cx="414.17" cy="294.6" rx="1.47" ry="1.39" transform="translate(90.88 686.79) rotate(-85.93)"/><ellipse class="cls-21" cx="395.24" cy="302.75" rx="6.11" ry="7.77" transform="translate(65.17 675.48) rotate(-85.93)"/><ellipse class="cls-22" cx="394.51" cy="301.68" rx="4.76" ry="6.45" transform="translate(65.56 673.76) rotate(-85.93)"/><ellipse class="cls-23" cx="393.27" cy="299.45" rx="2.43" ry="3.29" transform="matrix(0.07, -1, 1, 0.07, 66.63, 670.45)"/><path class="cls-24" d="M395.16,308.7s.85,8.88-3.61,7.8-9.2-3.23-10.19-7.17"/><path class="cls-24" d="M379.71,310.36a3.52,3.52,0,0,1,3.27-1.63"/><path class="cls-24" d="M395.16,308.7s-1,8.16,3.28,8.35,9.56-1.84,11.1-5.67"/><path class="cls-24" d="M411.08,312.63a3.5,3.5,0,0,0-3-2.06"/><rect class="cls-3" x="369.37" y="228.48" width="166.24" height="247.1" rx="26.54" transform="translate(115.4 -111.7) rotate(16.1)"/><circle class="cls-25" cx="393.37" cy="341.4" r="11.51"/><circle class="cls-26" cx="393.37" cy="341.4" r="7.18"/><path class="cls-25" d="M477.14,384.85c-8.94-2.35-15.39-7.23-19.18-14.5s-4.89-16.91-3.28-28.64a122.84,122.84,0,0,1,6.6-25.27c1.94-5.27,10.1-5.88,11-5.94a1.66,1.66,0,0,1,.19,3.32c-1.78.1-7.08,1-8.09,3.77A119.4,119.4,0,0,0,458,342.17c-1.52,11-.53,20,2.93,26.65,3.34,6.4,9.09,10.72,17.08,12.82,7.66,2,14.56,1.12,20.53-2.68,14.42-9.18,20.64-33,23.07-46.33.82-4.57-5.08-7.14-5.14-7.16a1.66,1.66,0,0,1,1.29-3.06,15.28,15.28,0,0,1,3.93,2.55c2.63,2.37,3.73,5.23,3.18,8.26-2.52,13.9-9.06,38.68-24.55,48.54C493.51,386.07,485.72,387.11,477.14,384.85Z"/><path class="cls-27" d="M474,317.29c-3,1.27-7.28-8.78-4.28-10.05a6,6,0,0,1,5.76.51,5.12,5.12,0,0,1,2.14,5A6,6,0,0,1,474,317.29Z"/><path class="cls-28" d="M476.89,312.81c-1.18-.51-2.39-3.35-1.95-4.56a.41.41,0,0,1,.63-.17,5.06,5.06,0,0,1,1.49,2,5.23,5.23,0,0,1,.39,2.43A.4.4,0,0,1,476.89,312.81Z"/><path class="cls-27" d="M511.45,327.16c2,2.58,10.65-4.05,8.67-6.64a6,6,0,0,0-5.26-2.39,5,5,0,0,0-2.66,1,5.13,5.13,0,0,0-1.69,2.29A6,6,0,0,0,511.45,327.16Z"/><path class="cls-28" d="M511.13,321.83c1.27.13,3.73-1.74,3.94-3a.42.42,0,0,0-.47-.47,5.1,5.1,0,0,0-3.8,2.91A.4.4,0,0,0,511.13,321.83Z"/><path class="cls-26" d="M392.06,348l.09,0a1.52,1.52,0,0,1,1.13,1.85c-.07.19-8.84,28.68,1.32,44.31,5.19,8,13.92,13.79,26,17.26s22.55,3.22,31.21-.76c17-7.8,21.47-27.44,21.51-27.64a1.53,1.53,0,0,1,2-1,1.62,1.62,0,0,1,1.35,1.76c-.19.85-4.79,21-23,29.35-9.47,4.36-20.85,4.67-33.83.92s-22.43-10.07-28.1-18.8c-10.88-16.75-1.92-45.7-1.62-46.52A1.58,1.58,0,0,1,392.06,348Z"/></svg>