<svg xmlns="http://www.w3.org/2000/svg" viewBox="0 0 292.46 295.34"><defs><style>.cls-1{fill:#e18d63;}.cls-2{fill:#cd0014;}.cls-3{fill:#d8d8d8;}.cls-4{fill:#f50000;}.cls-5{fill:#1d1d1b;}.cls-6{fill:#fff;}.cls-7{fill:#8e4f2a;}.cls-8{fill:#6dc371;}.cls-9{fill:#ffad00;}.cls-10{fill:#fff783;}.cls-11{fill:#fffce7;}.cls-12{fill:#858585;}.cls-13{fill:#3d3c3c;}.cls-14{fill:#e6d7c3;}.cls-15{fill:#f8000d;}.cls-16{fill:#aba091;}.cls-17{fill:#0072bc;}.cls-18{fill:#172851;}.cls-19{fill:#00b5cc;}.cls-20{fill:#7ee5ce;}.cls-21{fill:#72000f;}</style></defs><title>olivia-racket</title><g id="Laag_2" data-name="Laag 2"><g id="Laag_2-2" data-name="Laag 2"><path class="cls-1" d="M145.86,117.39c-5.38-20.24,6.34-37.56,6.34-37.56s-10.44,8.69-24,3.37c17.73-14.64,19.74-20.47,19.74-20.47s-6-2.06-17.93,5.45c1.66-17,16.69-24.09,16.69-24.09s-16.8-1.56-9.33-27.15c11.35,16.22,18.27,7,18.27,7S158.7,21.12,145,9.83c17.67-5.54,27.42,2.82,27.42,2.82s2-11.13,13.21-12.41c-5.43,14.06,7,16.4,7,16.4S198.75,7,195.72,0c16.75,4.5,13.37,21.12,13.37,21.12s7.61-7.39,22.91-7.81c-9.74,16-8.35,25.88-8.69,26.25.23-.22,1.58,21.15,1.58,21.15-.47,10.72-.19,19.69-18.77,22.57l-23.46,9.44L180.83,97l-8-1.61S152.24,103.62,145.86,117.39Z"/><path class="cls-1" d="M206.28,136.46a70,70,0,0,1-21.72,0c-4.61-.82-9.64-6-10.64-10.77a80.37,80.37,0,0,1-1.17-22.46c.57-4.77,5.78-10.19,10.81-11.17a70.48,70.48,0,0,1,23.72,0c5,1,10.24,6.4,10.8,11.17a80.37,80.37,0,0,1-1.16,22.46C215.92,130.46,210.89,135.64,206.28,136.46Z"/><path class="cls-1" d="M244.41,120.38a4.72,4.72,0,0,0-3.43-3.8c-18.5-4.93-25.57-17.12-25.86-17.64a4.7,4.7,0,0,0-8.22,4.54c.36.66,9.1,16.17,31.66,22.18a4.69,4.69,0,0,0,5.74-3.33A4.63,4.63,0,0,0,244.41,120.38Z"/><path class="cls-1" d="M189.23,178.87H158.16a2.47,2.47,0,0,1-2.32-3.32c2.94-8.16,16.12-14.33,25-14.33,9.19,0,10.66,6.57,10.85,15.12A2.48,2.48,0,0,1,189.23,178.87Z"/><path class="cls-1" d="M184.65,178a4.7,4.7,0,0,1-4.67-4.3l-3.73-44.11a4.7,4.7,0,0,1,9.36-.79l3.72,44.11a4.69,4.69,0,0,1-4.28,5.08Z"/><path class="cls-1" d="M201.66,178.87h31.07a2.48,2.48,0,0,0,2.33-3.32c-2.95-8.16-16.12-14.33-25-14.33-9.18,0-10.65,6.57-10.84,15.12A2.47,2.47,0,0,0,201.66,178.87Z"/><path class="cls-1" d="M206.24,178h-.4a4.7,4.7,0,0,1-4.28-5.08l3.73-44.11a4.7,4.7,0,0,1,9.36.79l-3.73,44.11A4.7,4.7,0,0,1,206.24,178Z"/><path class="cls-2" d="M193,177.28a2.7,2.7,0,0,1-2.69,2.76H156.51a2.7,2.7,0,0,1-2.53-3.61.78.78,0,0,0,.05-.14c1.53-4.06,5.37-7.66,10-10.36,5.43-3.15,11.94-5.08,17.12-5.08,9.63,0,11.46,6.64,11.76,15.44Z"/><path class="cls-3" d="M193,177.28a2.7,2.7,0,0,1-2.69,2.76H156.51a2.7,2.7,0,0,1-2.53-3.61.78.78,0,0,0,.05-.14h38.9Z"/><path class="cls-2" d="M192,168.68l-16.73-7.13-.64-5.48a1.3,1.3,0,0,1,1.29-1.45h16a1.3,1.3,0,0,1,1.29,1.43Z"/><path class="cls-2" d="M198.19,177.28a2.69,2.69,0,0,0,2.69,2.76h33.75a2.69,2.69,0,0,0,2.53-3.61.78.78,0,0,0,0-.14c-1.52-4.06-5.37-7.66-10-10.36-5.42-3.15-11.94-5.08-17.12-5.08-9.63,0-11.45,6.64-11.75,15.44Z"/><path class="cls-3" d="M198.19,177.28a2.69,2.69,0,0,0,2.69,2.76h33.75a2.69,2.69,0,0,0,2.53-3.61.78.78,0,0,0,0-.14H198.22Z"/><path class="cls-2" d="M199.17,168.68l16.74-7.13.64-5.48a1.3,1.3,0,0,0-1.29-1.45h-16a1.3,1.3,0,0,0-1.29,1.43Z"/><path class="cls-4" d="M229.09,144.14a172.66,172.66,0,0,1-67,0c3.38-15.63,11.7-32.72,12.26-48.47,0-1.08,4.33-3.18,8.27-3.4,10-.56,14.76-.92,24.75,0,4.76.44,8.5,4.56,9.5,7.36S222.59,128.11,229.09,144.14Z"/><circle class="cls-1" cx="244.7" cy="120.44" r="6.97"/><ellipse class="cls-1" cx="244.37" cy="112.82" rx="8.09" ry="3.82" transform="translate(17.14 257.07) rotate(-57.19)"/><ellipse class="cls-1" cx="252.42" cy="117.39" rx="3.69" ry="9.31" transform="translate(97.78 348.88) rotate(-81.2)"/><ellipse class="cls-1" cx="251.48" cy="124.4" rx="3.69" ry="9.31" transform="translate(49.93 319.58) rotate(-70.4)"/><ellipse class="cls-1" cx="246.73" cy="128.23" rx="3.69" ry="9.31" transform="translate(-1.85 252.82) rotate(-54.08)"/><path class="cls-1" d="M156.1,128.54a4.63,4.63,0,0,1-1.91-.41,4.7,4.7,0,0,1-2.38-6.2c9.5-21.32,26.19-27.5,26.9-27.76a4.69,4.69,0,0,1,3.18,8.83c-.6.23-13.72,5.29-21.5,22.75A4.69,4.69,0,0,1,156.1,128.54Z"/><circle class="cls-1" cx="155.34" cy="128.82" r="6.97"/><ellipse class="cls-1" cx="162.92" cy="129.7" rx="3.82" ry="8.09" transform="translate(-42.42 164.37) rotate(-48.11)"/><ellipse class="cls-1" cx="157.13" cy="136.93" rx="9.31" ry="3.69" transform="translate(-21.44 244.41) rotate(-72.12)"/><ellipse class="cls-1" cx="150.36" cy="134.89" rx="9.31" ry="3.69" transform="translate(-40.14 202.06) rotate(-61.32)"/><ellipse class="cls-1" cx="147.33" cy="129.6" rx="9.31" ry="3.69" transform="translate(-48.49 142.14) rotate(-45)"/><path class="cls-1" d="M220.31,40.64l6.37,10.91s8.24-7.45,7.21-16.11a.82.82,0,0,0-1.22-.62A87.52,87.52,0,0,1,220.31,40.64Z"/><circle class="cls-1" cx="195.24" cy="60.89" r="33.72"/><path class="cls-1" d="M184.65,80.15a14.46,14.46,0,0,0,14.46,14.46c19-.77,38.45-8,37.12-17,.06-2.79-6-2.74-8.71-6.92C223.15,64,184.65,72.16,184.65,80.15Z"/><path class="cls-5" d="M232.79,78c.43,1.9,3.8,2.77,7.53,1.93s5.16-3,4.74-5-2.56-2.77-6.29-1.94S232.36,76.11,232.79,78Z"/><ellipse class="cls-6" cx="242.16" cy="74.31" rx="0.79" ry="1.57" transform="translate(148.38 309.62) rotate(-85.33)"/><path class="cls-1" d="M182.74,42.65s-7.58-6.83-14.45-7.93c-.57-.09-.8.67-.61,1.22C170,42.64,171.83,49,171.83,49"/><path class="cls-7" d="M171.83,49.47a.46.46,0,0,1-.45-.34c0-.06-1.83-6.43-4.14-13a1.6,1.6,0,0,1,.21-1.5,1,1,0,0,1,.92-.34c6.92,1.11,14.37,7.76,14.68,8a.47.47,0,0,1-.62.7c-.08-.07-7.57-6.75-14.21-7.81,0,0,0,0-.05,0a.75.75,0,0,0,0,.59c2.32,6.63,4.14,13,4.16,13.09a.47.47,0,0,1-.32.58Z"/><path class="cls-7" d="M219,90.15a16,16,0,0,1-12.47-5.59.79.79,0,0,1,.11-1.1.77.77,0,0,1,1.1.11c4.84,5.88,12.54,5,12.62,5a.78.78,0,0,1,.2,1.55A13.43,13.43,0,0,1,219,90.15Z"/><path class="cls-7" d="M197.33,51a.89.89,0,0,1-.58-.24c-.51-.5-5.25-4.78-14.45-1.31a.78.78,0,1,1-.55-1.46c10.1-3.81,15.51,1.07,16.1,1.65a.79.79,0,0,1-.44,1.35Z"/><path class="cls-7" d="M208.59,51.61h-.1a.78.78,0,0,1-.4-1.37c.64-.59,6.18-5.26,16.14-1.17a.78.78,0,0,1,.42,1,.78.78,0,0,1-1,.43c-9.1-3.74-14,.39-14.49.87A.8.8,0,0,1,208.59,51.61Z"/><path class="cls-5" d="M186.35,56.74c-.78-.36-1.49-.76-2.21-1.18a23.74,23.74,0,0,1-2-1.4,14.42,14.42,0,0,1-1.82-1.67,9.23,9.23,0,0,1-1.4-2,8.81,8.81,0,0,0,1.65,1.74,16.19,16.19,0,0,0,2,1.33,19.12,19.12,0,0,0,2.14,1,21.52,21.52,0,0,0,2.2.79h0a.72.72,0,0,1,.5.9.73.73,0,0,1-.9.5Z"/><path class="cls-5" d="M185.08,58.52a23.15,23.15,0,0,1-2.34-.89,21.87,21.87,0,0,1-2.21-1.13,14.87,14.87,0,0,1-2-1.42,9,9,0,0,1-1.64-1.8,9.2,9.2,0,0,0,1.85,1.51,15.71,15.71,0,0,0,2.13,1.07,21.77,21.77,0,0,0,4.53,1.25h0a.72.72,0,1,1-.22,1.43Z"/><circle class="cls-6" cx="191.53" cy="62.17" r="10.01"/><circle class="cls-8" cx="188.4" cy="62.17" r="4.59"/><circle class="cls-5" cx="188.4" cy="62.17" r="2.59"/><circle class="cls-6" cx="189.36" cy="60.15" r="1.83"/><circle class="cls-6" cx="187.27" cy="64.45" r="0.71"/><path class="cls-5" d="M222.35,56.74a24.37,24.37,0,0,0,2.21-1.18,23.74,23.74,0,0,0,2-1.4,14.42,14.42,0,0,0,1.82-1.67,9.23,9.23,0,0,0,1.4-2,8.81,8.81,0,0,1-1.65,1.74,15.45,15.45,0,0,1-2,1.33,19.85,19.85,0,0,1-2.13,1,22.57,22.57,0,0,1-2.21.79h0a.72.72,0,0,0-.5.9.73.73,0,0,0,.9.5Z"/><path class="cls-5" d="M223.62,58.52a23.15,23.15,0,0,0,2.34-.89,21.87,21.87,0,0,0,2.21-1.13,14.87,14.87,0,0,0,2-1.42,9,9,0,0,0,1.64-1.8A9.2,9.2,0,0,1,230,54.79a15.59,15.59,0,0,1-2.12,1.07,20.46,20.46,0,0,1-2.25.75,19.62,19.62,0,0,1-2.29.5h0a.72.72,0,1,0,.22,1.43Z"/><circle class="cls-6" cx="217.14" cy="62.17" r="10.01"/><circle class="cls-8" cx="214.01" cy="62.17" r="4.59"/><circle class="cls-5" cx="214.01" cy="62.17" r="2.59"/><circle class="cls-6" cx="214.97" cy="60.15" r="1.83"/><circle class="cls-6" cx="212.88" cy="64.45" r="0.71"/><path class="cls-9" d="M58.4,195C24.44,198.67,0,230.2,0,230.2s30.62,25.56,64.58,21.89,47.56-18.08,45.85-33.84S92.35,191.32,58.4,195Z"/><path class="cls-10" d="M68.27,200.4c-24.58,2.66-42.11,27-42.11,27s22.33,20,46.91,17.33,34.35-13.75,33-26S92.85,197.74,68.27,200.4Z"/><path class="cls-11" d="M78.4,209.91c-15.76,1.71-27.28,14.76-27.28,14.76s14,10.28,29.81,8.57,22.15-7.68,21.46-14.12S94.17,208.2,78.4,209.91Z"/><polygon class="cls-12" points="110.13 186.93 93.72 196 94.75 205.56 111.56 200.09 110.13 186.93"/><polygon class="cls-12" points="111.81 202.4 95 207.86 96.04 217.52 113.25 215.66 111.81 202.4"/><path class="cls-12" d="M109,176.29a180.19,180.19,0,0,0-16.32,9.94l.79,7.33,16.42-9.08Z"/><polygon class="cls-12" points="113.49 217.91 96.29 219.78 97.33 229.43 114.92 231.18 113.49 217.91"/><path class="cls-12" d="M116.86,249.09l-18-5.35.86,7.9a132.49,132.49,0,0,0,18,5.46Z"/><polygon class="cls-12" points="115.17 233.48 97.58 231.74 98.62 241.3 116.6 246.65 115.17 233.48"/><polygon class="cls-13" points="109.87 184.48 93.45 193.56 93.72 196 110.13 186.93 109.87 184.48"/><polygon class="cls-13" points="111.56 200.09 94.75 205.56 95 207.86 111.81 202.4 111.56 200.09"/><rect class="cls-13" x="96.12" y="216.58" width="17.3" height="2.27" transform="translate(-22.82 12.54) rotate(-6.18)"/><polygon class="cls-13" points="114.92 231.18 97.33 229.43 97.58 231.74 115.17 233.48 114.92 231.18"/><polygon class="cls-13" points="116.6 246.65 98.62 241.3 98.88 243.74 116.86 249.09 116.6 246.65"/><path class="cls-14" d="M179.5,274.54c66.24-7.17,114.52-63,112.92-77.75S231.72,137.84,165.48,145c-24.14,2.61-45.51,15.34-63.24,27.25L112.17,264C131,271.13,155.36,277.15,179.5,274.54Z"/><path class="cls-15" d="M267.47,233.24a268.66,268.66,0,0,0-1.59-33.57,268.92,268.92,0,0,0-5.63-33.14c19.23,11.15,31.45,23.65,32.17,30.26S283.87,218.23,267.47,233.24Z"/><path class="cls-16" d="M189,273.62a586,586,0,0,0-14-129.74,3.56,3.56,0,0,1,2.93-4.14,3.68,3.68,0,0,1,4.46,2.6,592,592,0,0,1,14.2,131.2,3.68,3.68,0,0,1-3.8,3.49A3.57,3.57,0,0,1,189,273.62Z"/><circle class="cls-17" cx="231.05" cy="203.44" r="24.58"/><circle class="cls-18" cx="229.29" cy="203.63" r="20.33"/><path class="cls-19" d="M233.28,224.1a20.76,20.76,0,1,1,11.15-4.75A20.78,20.78,0,0,1,233.28,224.1Z"/><path class="cls-20" d="M233.28,224.1a20.79,20.79,0,0,1-20.64-30.33,20.79,20.79,0,0,1,31.79,25.58A20.68,20.68,0,0,1,233.28,224.1Z"/><circle class="cls-6" cx="236.13" cy="197.12" r="6.77"/><circle class="cls-6" cx="246.19" cy="202.85" r="1.98"/><path class="cls-16" d="M114.1,231.64,110.78,201l32.37-7c5.77-1.25,11.38,3.44,12.11,10.14l1.62,15c.72,6.69-3.75,12.48-9.65,12.49Z"/><path class="cls-21" d="M76.14,147.47l-.43-3.95c42.72-10.67,67.4,6.16,67.4,6.16a8.48,8.48,0,0,1,1.41,3.94c-10.3,6.11-38,18.35-41.8,20.14C98.39,158.84,76.14,147.47,76.14,147.47Z"/><path class="cls-15" d="M76.56,151.34,76,145.92c42.82-8.92,68.55,7.7,68.55,7.7s-11.92,13.71-39.25,23.29a2.26,2.26,0,0,1-2.83-1.3C96.82,161.69,76.56,151.34,76.56,151.34Z"/><path class="cls-21" d="M91.71,291.32l.43,4c44,1.28,64.51-20.44,64.51-20.44a8.45,8.45,0,0,0,.55-4.15c-11.38-3.77-41-9.81-45.15-10.73C111,275.46,91.71,291.32,91.71,291.32Z"/><path class="cls-15" d="M91.29,287.46l.59,5.41c43.74-.44,65.32-22.18,65.32-22.18s-14.58-10.84-43.33-14.35a2.25,2.25,0,0,0-2.49,1.87C108.87,273,91.29,287.46,91.29,287.46Z"/></g></g></svg>