<svg id="Laag_1" data-name="Laag 1" xmlns="http://www.w3.org/2000/svg" viewBox="0 0 667.18 667.18"><defs><style>.cls-1{fill:#4d73e8;}.cls-2{fill:#99ccf2;}.cls-3{fill:#ff777c;}.cls-4{fill:#da2840;}.cls-5{fill:#fff;}.cls-6{fill:#4c1084;}.cls-7{fill:#d8aae1;}.cls-8{fill:#a280a9;}.cls-9{fill:#9e2840;}</style></defs><title>rugzak</title><circle class="cls-1" cx="333.59" cy="333.59" r="319.65"/><circle class="cls-2" cx="352.38" cy="321.93" r="283.65"/><path class="cls-3" d="M360,239.52H327.51a45.78,45.78,0,0,1-36.84-18.81,51.3,51.3,0,0,1-7.93-45.05l2.77-9.41c6.11-20.74,24.1-34.67,44.76-34.67h26.92c20.67,0,38.67,13.93,44.78,34.67l2.77,9.41a51.3,51.3,0,0,1-7.93,45.05A45.78,45.78,0,0,1,360,239.52ZM330.27,153c-11.1,0-20.85,7.77-24.28,19.34l-2.77,9.41a29.85,29.85,0,0,0,4.55,26.2,24.59,24.59,0,0,0,19.73,10.22H360a24.63,24.63,0,0,0,19.73-10.22,29.85,29.85,0,0,0,4.55-26.2l-2.8-9.41C378,160.73,368.31,153,357.18,153Z"/><path class="cls-4" d="M460.33,499.88c-1.39,1.14-2.81,2.24-4.28,3.29A86.74,86.74,0,0,1,405,519.55H282.54a86.93,86.93,0,0,1-51.09-16.35c-1.46-1.05-2.87-2.15-4.26-3.29-21.31-17.52-33.45-44.86-29.27-74.06l25.76-180.34c5.84-40.78,42-71.17,84.62-71.17h70.9c42.66,0,78.78,30.39,84.6,71.17l25.78,180.34C493.72,455,481.59,482.36,460.33,499.88Z"/><path class="cls-3" d="M470,447.09,447.85,270.61c-5.05-40.2-36.72-70.52-73.67-70.52H313.29c-36.92,0-68.62,30.32-73.67,70.52L217.48,447.09a87.76,87.76,0,0,0,9.7,52.82q2.07,1.71,4.25,3.29a85.39,85.39,0,0,1-11.92-55.86l22.14-176.47c4.9-39.19,35.72-68.75,71.64-68.75h60.89c35.91,0,66.74,29.56,71.65,68.75L468,447.34a85.44,85.44,0,0,1-11.92,55.83c1.47-1.05,2.89-2.15,4.28-3.29A87.89,87.89,0,0,0,470,447.09Z"/><path class="cls-3" d="M343.73,290.23c-10.68,0-37.06-12.89-37.06-32.34,0-11.87,13.51-18.68,37.06-18.68S380.8,246,380.8,257.89C380.8,277.34,354.42,290.23,343.73,290.23Z"/><path class="cls-5" d="M343.74,285.71a14.5,14.5,0,0,1-3.77-.55.9.9,0,0,1,.44-1.75,13.82,13.82,0,0,0,3.32.5h0a11.15,11.15,0,0,0,1.74-.16.9.9,0,1,1,.3,1.78h0A11.52,11.52,0,0,1,343.74,285.71Zm7.17-1.7a.9.9,0,0,1-.33-1.74,48.15,48.15,0,0,0,4.9-2.24.9.9,0,0,1,1.22.38.89.89,0,0,1-.38,1.22,47.6,47.6,0,0,1-5.09,2.32.87.87,0,0,1-.32.06ZM335,283.38a.94.94,0,0,1-.36-.08,55.67,55.67,0,0,1-5-2.5.91.91,0,0,1,.8-1.63l.09.05a49.39,49.39,0,0,0,4.83,2.41.91.91,0,0,1,.47,1.19.92.92,0,0,1-.83.55Zm25.64-4.45a.9.9,0,0,1-.51-1.65,52.85,52.85,0,0,0,4.34-3.21.91.91,0,0,1,1.28,0,.9.9,0,0,1,0,1.28l-.09.08a50.15,50.15,0,0,1-4.5,3.32.88.88,0,0,1-.49.15ZM325.43,278a.82.82,0,0,1-.5-.17,48.82,48.82,0,0,1-4.39-3.47.91.91,0,0,1-.07-1.28.9.9,0,0,1,1.27-.07,50.56,50.56,0,0,0,4.23,3.35.9.9,0,0,1,.21,1.26.93.93,0,0,1-.71.38Zm43.63-6.07a.91.91,0,0,1-.66-1.52,31,31,0,0,0,3.3-4.19.9.9,0,0,1,1.58.88.36.36,0,0,1-.07.1,31.87,31.87,0,0,1-3.49,4.44.89.89,0,0,1-.63.29Zm-51.78-1.27a.89.89,0,0,1-.69-.32,29.22,29.22,0,0,1-3.24-4.64.91.91,0,0,1,1.59-.88,27.38,27.38,0,0,0,3,4.36.9.9,0,0,1-.1,1.27h0a.84.84,0,0,1-.59.21Zm57.59-8a1,1,0,0,1-.29-.05.9.9,0,0,1-.56-1.15,15.94,15.94,0,0,0,.87-5.08.9.9,0,0,1,.9-.91h0a.89.89,0,0,1,.9.89h0a17.53,17.53,0,0,1-1,5.7A.91.91,0,0,1,374.87,262.68Zm-62.72-1.62a.91.91,0,0,1-.88-.69,17.74,17.74,0,0,1-.48-4,6.28,6.28,0,0,1,.3-1.93.9.9,0,1,1,1.75.44.19.19,0,0,1,0,.1,4.64,4.64,0,0,0-.21,1.39,15.66,15.66,0,0,0,.43,3.54.9.9,0,0,1-.67,1.08h0a1,1,0,0,1-.23.05Zm61.32-8.54a.9.9,0,0,1-.62-.25,15.67,15.67,0,0,0-4.39-2.72.91.91,0,0,1-.45-1.2.89.89,0,0,1,1.19-.45,17.73,17.73,0,0,1,4.88,3,.9.9,0,0,1,.06,1.27.91.91,0,0,1-.67.3Zm-58.14-1.06a.9.9,0,0,1-.89-.92.92.92,0,0,1,.38-.73,23.42,23.42,0,0,1,5.09-2.58.9.9,0,0,1,.62,1.7,21.08,21.08,0,0,0-4.69,2.37A.93.93,0,0,1,315.33,251.46Zm48.29-3.63a.59.59,0,0,1-.23,0c-1.63-.43-3.41-.82-5.29-1.14a.91.91,0,0,1,.3-1.78c1.94.33,3.77.73,5.46,1.18a.91.91,0,0,1-.24,1.78Zm-38.14-.42a.9.9,0,0,1-.21-1.78q2.57-.6,5.48-1a.9.9,0,0,1,.26,1.78c-1.88.28-3.67.61-5.33,1ZM352.79,246h-.08c-1.77-.17-3.59-.29-5.44-.36a.91.91,0,0,1,.08-1.81c1.87.08,3.73.2,5.53.37a.9.9,0,1,1-.09,1.8Zm-16.46-.15a.9.9,0,0,1-.07-1.8c1.81-.14,3.68-.23,5.54-.27h0a.91.91,0,0,1,0,1.81c-1.83,0-3.66.12-5.44.26Z"/><path class="cls-6" d="M231.13,316.87c.29-15.83,1.23-31.57,2.32-47.28l.44-5.89.23-2.94,0-.74.1-.82.21-1.67a75.51,75.51,0,0,1,2.76-13.13l1.09-3.2.55-1.59a12.63,12.63,0,0,1,.62-1.58c.93-2.05,1.84-4.12,2.85-6.15l3.37-5.9c1.27-1.87,2.58-3.72,3.91-5.56a82.21,82.21,0,0,1,45-29.34,56.91,56.91,0,0,1,6.72-1.42l3.4-.51,1.71-.24c.57-.07,1.14-.08,1.71-.12l3.43-.19,1.72-.09c.57,0,1.18-.07,1.64-.07l5.89-.07,23.56-.11,23.56.12,5.9.08c.45,0,1.07,0,1.63.07l1.72.09,3.43.2c.57,0,1.14.06,1.71.12l1.7.25,3.4.5a53.31,53.31,0,0,1,6.73,1.42,82,82,0,0,1,44.94,29.36c1.32,1.85,2.64,3.69,3.91,5.57l3.35,5.89c1,2,1.9,4.1,2.83,6.15s1.52,4.24,2.25,6.36a75.09,75.09,0,0,1,2.72,13.1l.22,1.66.09.81.06.74.21,2.94.43,5.89c.51,7.86,1,15.73,1.4,23.61s.66,15.77.79,23.69a3.58,3.58,0,0,1-7,1q-3.15-11.46-5.87-23c-1.85-7.67-3.58-15.35-5.27-23.05L438,266.13l-.63-2.89-.15-.72-.17-.63-.35-1.24a60.71,60.71,0,0,0-14.19-26.39c-1.15-1.21-2.36-2.35-3.54-3.54l-.44-.44-.5-.4-1-.79-1.9-1.59a62.88,62.88,0,0,0-8.23-5.52,64.31,64.31,0,0,0-18.37-6.88,46.83,46.83,0,0,0-4.83-.82l-2.4-.25-1.22-.15c-.41,0-.82,0-1.23,0l-2.45-.06-1.23,0c-.42,0-.78,0-1.31,0l-5.89.08-23.56.12-23.57-.11-5.91-.11h-1.31l-1.22,0-2.46.07c-.4,0-.82,0-1.22,0l-1.22.15-2.44.29a44.25,44.25,0,0,0-4.83.81,65.14,65.14,0,0,0-18.35,6.9,63.46,63.46,0,0,0-15.48,12.29A59.62,59.62,0,0,0,255.56,251a61.79,61.79,0,0,0-3.26,9.61l-.33,1.24-.18.63-.15.72-.6,2.89-1.23,5.78c-3.36,15.39-6.86,30.75-11,46a3.91,3.91,0,0,1-7.69-1.1Z"/><path class="cls-5" d="M236.85,321.43a1,1,0,0,1-.49-1.92h0a2.93,2.93,0,0,0,1.46-1.79l.5-1.78a1,1,0,0,1,2,.5l-.5,1.8a5,5,0,0,1-2.49,3.08A1,1,0,0,1,236.85,321.43Zm214.72-.67a1,1,0,0,1-.64-.24,4.52,4.52,0,0,1-1.52-2.33l-.76-2.79a1,1,0,1,1,2-.53h0l.76,2.78a2.54,2.54,0,0,0,.85,1.3,1,1,0,0,1,.17,1.42,1,1,0,0,1-.82.39Zm4.67-.12a1,1,0,0,1-1-1,1,1,0,0,1,.34-.77,2.6,2.6,0,0,0,.84-1.9l0-2.09a1,1,0,0,1,1-1h0a1,1,0,0,1,1,1l0,2.06a4.63,4.63,0,0,1-1.52,3.47A1.07,1.07,0,0,1,456.24,320.64Zm-224.08,0a1,1,0,0,1-.75-.33,5,5,0,0,1-1.33-3.37v-.11c0-1.68.07-3.38.12-5.06a1,1,0,0,1,1-1,1,1,0,0,1,1,1c-.05,1.69-.09,3.38-.12,5.08a2.93,2.93,0,0,0,.78,2,1,1,0,0,1-.74,1.71Zm8.45-8.37a1.09,1.09,0,0,1-.26,0,1,1,0,0,1-.74-1.23v0c.42-1.63.84-3.28,1.25-4.92a1,1,0,0,1,2,.5c-.41,1.65-.84,3.29-1.26,4.94A1,1,0,0,1,240.61,312.27Zm207.71-1a1,1,0,0,1-1-.76c-.44-1.64-.86-3.29-1.28-4.94a1,1,0,1,1,2-.5c.41,1.63.83,3.28,1.27,4.92a1,1,0,0,1-.72,1.23h0A1.17,1.17,0,0,1,448.32,311.23Zm8.94-.44a1,1,0,0,1-1-1c0-1.69-.09-3.37-.16-5.06a1,1,0,0,1,2-.07q.09,2.53.15,5.1a1,1,0,0,1-1,1.05h0ZM231.4,307.71h0a1,1,0,0,1-1-1v0c.06-1.7.12-3.39.19-5.09a1.05,1.05,0,0,1,1.07-1,1,1,0,0,1,1,1v0c-.07,1.7-.13,3.39-.19,5.06a1,1,0,0,1-1,1Zm11.69-5.31-.24,0a1,1,0,0,1-.73-1.23l1.2-4.95a1,1,0,1,1,2,.47h0c-.39,1.65-.78,3.3-1.19,5A1,1,0,0,1,243.09,302.4Zm202.73-1a1,1,0,0,1-1-.78q-.61-2.46-1.2-5a1,1,0,0,1,2-.47c.39,1.65.79,3.29,1.19,4.94a1,1,0,0,1-.73,1.23h0a.65.65,0,0,1-.24,0Zm11.09-.74a1,1,0,0,1-1-1c-.07-1.69-.15-3.37-.23-5.06a1,1,0,1,1,2-.1c.08,1.7.16,3.39.23,5.09a1,1,0,0,1-1,1.06h0Zm-225.09-3.09h0a1,1,0,0,1-1-1.06h0c.08-1.7.16-3.4.26-5.09a1,1,0,0,1,1.06-1,1,1,0,0,1,1,1.06h0c-.09,1.69-.18,3.39-.26,5.09a1,1,0,0,1-1,.95Zm13.62-5.06a.85.85,0,0,1-.23,0,1,1,0,0,1-.76-1.21h0l1.14-5a1,1,0,0,1,2,.45c-.37,1.66-.75,3.31-1.14,5a1,1,0,0,1-1,.79Zm198-1a1,1,0,0,1-1-.78l-1.15-5a1,1,0,0,1,2-.46l1.14,5a1,1,0,0,1-.74,1.22h-.22Zm13-1a1,1,0,0,1-1-1c-.08-1.69-.18-3.38-.28-5.06a1,1,0,0,1,2-.11c.09,1.69.19,3.39.28,5.09a1,1,0,0,1-.95,1.07h0Zm-224-3.1h-.06a1,1,0,0,1-1-1.06v0c.1-1.68.21-3.38.31-5.08a1,1,0,0,1,2,.12c-.11,1.7-.21,3.39-.31,5.06A1,1,0,0,1,232.37,287.37Zm15.32-4.81-.23,0a1,1,0,0,1-.77-1.21h0q.56-2.49,1.1-5a1,1,0,0,1,2,.43h0q-.53,2.49-1.08,5A1,1,0,0,1,247.69,282.56Zm193.45-1a1,1,0,0,1-1-.79c-.38-1.66-.75-3.31-1.12-5a1,1,0,0,1,2-.44l1.11,5a1,1,0,0,1-.76,1.21h0a.55.55,0,0,1-.18,0Zm14.67-1.26a1,1,0,0,1-1-1c-.1-1.69-.21-3.38-.31-5.05a1,1,0,1,1,2-.14l.32,5.09a1,1,0,0,1-.94,1.08h0ZM233,277.2H233a1,1,0,0,1-.95-1.07v0c.11-1.68.22-3.38.34-5.08a1,1,0,0,1,2,.14l-.34,5.06A1,1,0,0,1,233,277.2Zm16.89-4.58a1,1,0,0,1-1-1,1,1,0,0,1,0-.24l1.06-5a1,1,0,0,1,2,.42l-1.07,5a1,1,0,0,1-1,.81Zm189.06-1a1,1,0,0,1-1-.81l-1.07-5a1,1,0,1,1,2-.43h0l1.06,5a1,1,0,0,1-.77,1.21h0l-.21,0Zm16.23-1.49a1,1,0,0,1-1-.94l-.37-5.06a1,1,0,0,1,2-.14l.37,5.06a1,1,0,0,1-.93,1.09h-.09ZM233.72,267h-.08a1,1,0,0,1-.94-1.07v0l.38-5.06a1,1,0,0,1,2,.16l-.39,5.06A1,1,0,0,1,233.72,267Zm18.34-4.37a1,1,0,0,1-1-1,.9.9,0,0,1,0-.28l.26-1c.31-1.27.69-2.62,1.13-4a1,1,0,1,1,1.94.62h0c-.42,1.31-.79,2.61-1.09,3.86l-.28,1A1,1,0,0,1,252.06,262.67Zm184.63-1a1,1,0,0,1-1-.79c-.38-1.56-.84-3.12-1.41-4.78a1,1,0,0,1,1.93-.67c.59,1.73,1.07,3.36,1.46,5a1,1,0,0,1-.74,1.22h0l-.2,0Zm17.68-1.7a1,1,0,0,1-1-.89l-.17-1.37c-.13-1.2-.3-2.41-.51-3.64a1,1,0,1,1,2-.34c.22,1.27.39,2.53.51,3.74l.17,1.35a1,1,0,0,1-.87,1.13h-.14Zm-219.7-3h-.14a1,1,0,0,1-.88-1.13h0c.23-1.65.51-3.32.92-5.1a1,1,0,0,1,2,.44h0c-.38,1.72-.66,3.34-.88,4.93a1,1,0,0,1-1,.86ZM255.2,253a1.36,1.36,0,0,1-.39-.08,1,1,0,0,1-.56-1.32h0c.12-.31.25-.61.38-.92.56-1.28,1.17-2.53,1.8-3.77a1,1,0,1,1,1.81.93h0c-.62,1.19-1.2,2.42-1.74,3.65l-.37.88A1,1,0,0,1,255.2,253Zm178.23-1a1,1,0,0,1-.71-.3.93.93,0,0,1-.22-.31h0c-.67-1.52-1.4-3-2.19-4.5a1,1,0,1,1,1.79-1c.81,1.52,1.57,3,2.25,4.62l0,.07.07.16v.15a1,1,0,0,1-.3.78,1,1,0,0,1-.72.31Zm19.25-2.08a1,1,0,0,1-1-.78c-.34-1.39-.72-2.83-1.17-4.4l-.15-.42a1,1,0,0,1,.63-1.29,1,1,0,0,1,1.3.63h0l.15.46c.48,1.65.88,3.12,1.22,4.56a1,1,0,0,1-.74,1.22h-.23Zm-215.87-3a1,1,0,0,1-1-1,.9.9,0,0,1,0-.28c.14-.51.29-1,.44-1.52l1.14-3.38a1,1,0,1,1,1.93.67h0l-1.13,3.32c-.13.46-.28,1-.42,1.46A1,1,0,0,1,236.81,247Zm23.06-3a1,1,0,0,1-.54-.15,1,1,0,0,1-.34-1.39v0c.92-1.46,1.91-2.9,2.94-4.26a1,1,0,0,1,1.62,1.22c-1,1.32-1.94,2.7-2.83,4.13A1,1,0,0,1,259.87,244Zm168.73-.86a1,1,0,0,1-.85-.46c-.92-1.4-1.89-2.77-2.92-4a1,1,0,0,1,.18-1.43,1,1,0,0,1,1.43.18c1.05,1.34,2.07,2.76,3,4.2a1,1,0,0,1-.28,1.41,1.06,1.06,0,0,1-.57.17Zm21.08-2.88a1,1,0,0,1-.95-.65c-.14-.35-.27-.7-.42-1.05l-.72-1.6-.88-1.95a1,1,0,1,1,1.85-.85c.3.65.59,1.31.88,2l.73,1.62c.17.39.32.76.46,1.14a1,1,0,0,1-.57,1.31h0a.86.86,0,0,1-.36.07Zm-209.41-2.82a1,1,0,0,1-.42-.09,1,1,0,0,1-.51-1.34h0c.63-1.4,1.35-3,2.09-4.5l.12-.19a1,1,0,1,1,1.76,1h0l-.08.14c-.7,1.42-1.41,3-2,4.37a1,1,0,0,1-1,.61ZM266,235.84a1.07,1.07,0,0,1-.68-.26,1,1,0,0,1-.08-1.43h0l.46-.51c1-1.08,2.06-2.16,3.16-3.19a1,1,0,0,1,1.39,1.47c-1.06,1-2.08,2-3,3.1l-.45.51a1,1,0,0,1-.78.32Zm156.33-.76a1,1,0,0,1-.73-.31c-.6-.63-1.22-1.23-1.83-1.83l-1.52-1.52-.25-.26a1,1,0,0,1,0-1.43,1,1,0,0,1,1.44,0l.27.27c.5.5,1,1,1.48,1.47.62.61,1.26,1.24,1.86,1.87a1,1,0,0,1,0,1.44,1,1,0,0,1-.73.29Zm23-4a1,1,0,0,1-.88-.51l-2.5-4.36a1,1,0,1,1,1.68-1.15l.31.46,2.29,4a1,1,0,0,1-.37,1.38,1,1,0,0,1-.51.14Zm-171.92-2.18a1,1,0,0,1-1-1,1,1,0,0,1,.4-.83c1.33-1.07,2.73-2.1,4.16-3.07a1,1,0,0,1,1.42.17,1,1,0,0,1-.17,1.43l-.13.08c-1.39.94-2.74,1.94-4.05,3a1,1,0,0,1-.6.21Zm-28.43-.5a1,1,0,0,1-.89-1.52h0l.76-1.34c.71-1,1.39-2,2.07-3a1,1,0,0,1,1.67,1.18c-.68,1-1.35,1.93-2,2.9l-.72,1.28a1,1,0,0,1-.87.51Zm169.85-.13a1,1,0,0,1-.61-.22c-1.44-1.1-2.78-2.06-4.08-2.93a1,1,0,0,1-.29-1.41,1,1,0,0,1,1.42-.29c1.34.9,2.71,1.89,4.19,3a1,1,0,0,1,.21,1.41,1,1,0,0,1-.84.42Zm-133-5.1a1,1,0,0,1-1-1,1,1,0,0,1,.53-.92l.14-.08c1.46-.81,3-1.58,4.47-2.28a1,1,0,1,1,.85,1.84h0c-1.45.69-2.91,1.43-4.33,2.22l-.12.07A1,1,0,0,1,281.81,223.13Zm124.5-.5a1.14,1.14,0,0,1-.51-.13c-1.47-.79-3-1.52-4.49-2.22a1,1,0,0,1-.52-1.34,1,1,0,0,1,1.35-.52c1.55.7,3.11,1.47,4.63,2.29a1,1,0,0,1-.5,1.92Zm33.51-.19A1,1,0,0,1,439,222l-.66-.9c-.76-1-1.58-2-2.42-3a1,1,0,0,1,1.55-1.31c.87,1,1.71,2.07,2.51,3.11l.68,1a1,1,0,0,1-.21,1.42,1,1,0,0,1-.62.19ZM250.76,220a1,1,0,0,1-.79-1.65c1.07-1.33,2.2-2.64,3.37-3.91a1,1,0,1,1,1.51,1.37c-1.13,1.24-2.23,2.53-3.27,3.81a1,1,0,0,1-.82.4ZM291,218.83a1,1,0,0,1-.36-2q2.43-.9,4.91-1.61a1,1,0,1,1,.56,1.95c-1.59.46-3.19,1-4.75,1.57a1.19,1.19,0,0,1-.36.09Zm106-.36a1,1,0,0,1-.34-.06c-1.58-.56-3.19-1.07-4.78-1.52a1,1,0,0,1-.72-1.23h0a1,1,0,0,1,1.23-.73h0c1.64.44,3.31,1,4.94,1.51a1,1,0,0,1-.35,2Zm-96.22-2.42a1,1,0,1,1-.2-2l.73-.15a25.79,25.79,0,0,1,3.71-.58l.67-.08a1,1,0,1,1,.23,2l-.71.09a24.14,24.14,0,0,0-3.49.55L301,216Zm86.39-.2a.74.74,0,0,1-.21,0h-.08a24.81,24.81,0,0,0-3.22-.51l-1.64-.19a1,1,0,0,1-.9-1.13,1,1,0,0,1,1.13-.89h0l1.6.18a28.3,28.3,0,0,1,3.44.54,1.06,1.06,0,0,1,.83,1.22,1,1,0,0,1-.94.79Zm-42.76-.94h-3a1,1,0,0,1,0-2h5.08a1,1,0,0,1,0,2Zm7.2,0a1,1,0,1,1,0-2h5.08a1,1,0,1,1,0,2Zm-15.28,0h0l-5.09,0a1,1,0,1,1,0-2h5.09a1,1,0,0,1,0,2Zm-25.43,0a1,1,0,0,1-1-1,1,1,0,0,1,1-1l3.08-.1c.32,0,.64,0,1.06,0h1a1,1,0,0,1,0,2h-2l-3.1.1Zm15.27,0H321.1a1,1,0,0,1,0-2h5.09a1,1,0,0,1,0,2Zm35.64,0a1,1,0,0,1,0-2h5.09a1,1,0,0,1,0,2Zm15.27,0h0l-2.23-.07h-.6l-2.22,0a1.06,1.06,0,0,1-1-1,1,1,0,0,1,1-1h2.93l2.2.06a1,1,0,1,1,0,2Zm56.19-.12a1,1,0,0,1-.73-.31c-1.15-1.19-2.36-2.37-3.61-3.5a1,1,0,0,1-.07-1.45,1,1,0,0,1,1.44-.07c1.28,1.16,2.53,2.37,3.7,3.59a1,1,0,0,1-.73,1.73Zm-175.64-2.17a1,1,0,0,1-.71-1.75h0c1.24-1.18,2.53-2.34,3.84-3.45a1,1,0,0,1,1.31,1.56h0c-1.28,1.07-2.53,2.2-3.74,3.36A1,1,0,0,1,257.65,212.51Zm168.09-4.69a1.05,1.05,0,0,1-.64-.22c-1.29-1-2.65-2.06-4-3a1,1,0,0,1-.24-1.42,1,1,0,0,1,1.41-.24c1.41,1,2.8,2,4.13,3.09a1,1,0,0,1,.18,1.42,1,1,0,0,1-.82.39ZM265.42,206a1,1,0,0,1-.62-1.83h0c1.37-1,2.79-2,4.23-2.94a1,1,0,0,1,1.11,1.71c-1.4.91-2.79,1.87-4.13,2.87a1,1,0,0,1-.59.2Zm152-4a1.12,1.12,0,0,1-.53-.15c-1.42-.88-2.89-1.72-4.36-2.53a1,1,0,1,1,1-1.8c1.52.81,3,1.67,4.47,2.57a1,1,0,0,1,.37,1.38,1,1,0,0,1-.91.5ZM274,200.41a1,1,0,0,1-1.05-1,1,1,0,0,1,.54-.93c1.49-.84,3-1.64,4.56-2.4a1,1,0,0,1,.89,1.84q-2.28,1.09-4.44,2.34a1.05,1.05,0,0,1-.49.13Zm134.49-3.24a1,1,0,0,1-.43-.09c-1.52-.69-3.07-1.35-4.63-2a1,1,0,1,1,.73-1.9c1.6.61,3.2,1.29,4.75,2a1,1,0,0,1-.42,1.94Zm-125.35-1.23a1,1,0,0,1-.38-1.95c1.58-.66,3.2-1.27,4.82-1.83a1,1,0,0,1,1.29.63,1,1,0,0,1-.63,1.3h0c-1.58.54-3.16,1.14-4.71,1.78A1,1,0,0,1,283.09,195.94Zm115.84-2.43a1.12,1.12,0,0,1-.31,0c-1.55-.51-3.12-.94-4.68-1.33l-.15,0a1,1,0,1,1,.51-2l.14,0q2.43.61,4.82,1.37a1,1,0,0,1-.31,2Zm-106.22-.88a1,1,0,0,1-.27-2q1-.28,1.95-.51l1.49-.36,1.52-.37a1,1,0,0,1,1.22.76,1,1,0,0,1-.75,1.22h0l-1.52.36-1.52.37c-.62.16-1.26.32-1.89.51A.91.91,0,0,1,292.71,192.63ZM389.08,191a.54.54,0,0,1-.18,0c-.51-.09-1-.17-1.54-.23l-3.44-.5a1,1,0,0,1-.88-1.13v0a1,1,0,0,1,1.13-.86l3.44.5c.51.07,1.08.15,1.63.25a1,1,0,1,1-.17,2Zm-86.42-.46a1,1,0,0,1-.15-2l3.82-.54c.41,0,.81-.07,1.21-.1h.11a1,1,0,1,1,.11,2h-.11a7.45,7.45,0,0,0-1.06.08l-3.77.55h-.16Zm76.32-.73h-.07l-3.85-.22c-.4,0-.81,0-1.14,0a1,1,0,0,1-1-1v0a1,1,0,0,1,1-1h0c.36,0,.81,0,1.26,0l3.86.21a1,1,0,0,1-.06,2Zm-66.19-.19a1,1,0,0,1-1-1,1,1,0,0,1,1-1l.94-.05c.43,0,.87-.05,1.23-.05l3,0a1,1,0,0,1,1,1,1,1,0,0,1-1,1l-2.92,0h0c-.39,0-.79,0-1.19,0l-.93,0Zm56-.15h0l-5.09,0a1,1,0,0,1,0-2h0l5.11,0a1,1,0,0,1,0,2Zm-45.83,0a1,1,0,1,1,0-2h5.09a1,1,0,1,1,0,2Zm35.65,0h-5.1a1,1,0,0,1,0-2h5.1a1,1,0,0,1,0,2Zm-25.46,0a1,1,0,0,1,0-2h5.09a1,1,0,0,1,0,2Zm15.27,0h-5.09a1,1,0,0,1,0-2h5.1a1,1,0,1,1,0,2Z"/><path class="cls-7" d="M237,326.27h-4.65a1.09,1.09,0,0,1-1-1.16.57.57,0,0,1,0-.13l.77-5.38a1.05,1.05,0,0,1,1-.94h3.11a1.06,1.06,0,0,1,1,.94L238,325a1.09,1.09,0,0,1-.88,1.27Z"/><path class="cls-8" d="M240.22,342.19,238.94,328c-.13-1.45-.86-2.53-1.71-2.53h-5.18c-.86,0-1.58,1.07-1.71,2.53l-1.28,14.23c-.16,1.8.65,3.42,1.71,3.42h7.74C239.59,345.61,240.38,344,240.22,342.19Zm-3.72,1.93h-3.73a2.25,2.25,0,0,1,0-4.49h3.73a2.25,2.25,0,0,1,0,4.49Z"/><path class="cls-9" d="M409,470.67H278.46a29.91,29.91,0,0,1-29.5-35l15.47-89.82A29.93,29.93,0,0,1,293.93,321h99.61A29.93,29.93,0,0,1,423,345.83l15.47,89.82a29.9,29.9,0,0,1-29.5,35Z"/><path class="cls-7" d="M424.46,376h-4.63a1.08,1.08,0,0,1-1-1.15s0-.09,0-.13l.77-5.36a1,1,0,0,1,1-.94h3.13a1.06,1.06,0,0,1,1,.94l.77,5.36a1.1,1.1,0,0,1-.89,1.27Z"/><path class="cls-8" d="M427.71,391.91l-1.27-14.2c-.13-1.44-.86-2.53-1.71-2.53h-5.17c-.85,0-1.58,1.07-1.71,2.53l-1.28,14.2c-.15,1.79.66,3.41,1.71,3.41H426C427.06,395.32,427.87,393.7,427.71,391.91ZM424,393.82h-3.72a2.23,2.23,0,1,1-.21-4.46H424a2.23,2.23,0,0,1,.22,4.46Z"/><path class="cls-3" d="M343.41,472.71a2,2,0,0,1-2-2v-9.18a2,2,0,1,1,4.07,0v9.16a2,2,0,0,1-2,2Zm0-18.33a2,2,0,0,1-2-2v-9.18a2,2,0,1,1,4.07,0v9.16a2,2,0,0,1-2,2.05Zm0-18.33a2,2,0,0,1-2-2v-9.17a2,2,0,1,1,4.07,0V434a2,2,0,0,1-2,2Zm0-18.33a2,2,0,0,1-2-2v-9.18a2,2,0,1,1,4.07,0v9.16a2,2,0,0,1-2,2Zm0-18.33a2,2,0,0,1-2-2v-9.18a2,2,0,1,1,4.07,0v9.17a2,2,0,0,1-2,2Zm0-18.33a2,2,0,0,1-2-2v-9.18a2,2,0,1,1,4.07,0V379a2,2,0,0,1-2,2Zm0-18.33a2,2,0,0,1-2-2v-9.18a2,2,0,1,1,4.07,0v9.19a2,2,0,0,1-2,2h0Z"/><path class="cls-6" d="M419.22,370.74h-151c-8.6,0-15-7.31-13.34-15.17h0c5.47-25.45,7.13-43.78,35-43.78H397.55c27.89,0,29.55,18.33,35,43.78h0C434.25,363.43,427.81,370.74,419.22,370.74Z"/></svg>