<svg id="Laag_1" data-name="Laag 1" xmlns="http://www.w3.org/2000/svg" xmlns:xlink="http://www.w3.org/1999/xlink" viewBox="0 0 667.18 667.18"><defs><style>.cls-1{fill:none;}.cls-2{fill:#68993d;}.cls-3{fill:#a2ca83;}.cls-4{clip-path:url(#clip-path);}.cls-5{fill:#276e6f;}.cls-6{fill:#67babb;}.cls-7{fill:#fff;}.cls-8{fill:#9d328e;}.cls-9{fill:#0f3435;}.cls-10{fill:#c6d6a2;}.cls-11{fill:#7c895b;}.cls-12{fill:#fff591;}.cls-13{fill:#cf2d26;}.cls-14{fill:#7f231e;}.cls-15{fill:#786a5a;}.cls-16{fill:#853959;}.cls-17{fill:#fffce1;}.cls-18{fill:#ff9080;}.cls-19{fill:#cf2b2f;}.cls-20{fill:#50b5ad;}.cls-21{fill:#175752;}.cls-22{fill:#593f69;}.cls-23{fill:#131162;}.cls-24{fill:#6aa9a9;}.cls-25{fill:#295b5c;}.cls-26{fill:#3c3c3b;}</style><clipPath id="clip-path"><circle class="cls-1" cx="352.38" cy="319.43" r="283.65"/></clipPath></defs><title>virusspel</title><circle class="cls-2" cx="333.59" cy="333.59" r="319.65"/><circle class="cls-3" cx="352.38" cy="321.93" r="283.65"/><g class="cls-4"><circle class="cls-5" cx="568.33" cy="371.68" r="67.7"/><circle class="cls-6" cx="568.33" cy="371.68" r="61.56"/><circle class="cls-7" cx="568.33" cy="355.38" r="31.83"/><circle class="cls-8" cx="568.33" cy="355.38" r="15.51"/><circle class="cls-9" cx="568.33" cy="355.38" r="9.75"/><circle class="cls-7" cx="561.82" cy="357.33" r="4.47"/><path class="cls-5" d="M534.53,399a24.65,24.65,0,0,0,4.53,4.15,41.14,41.14,0,0,0,13.69,6.45,55.06,55.06,0,0,0,14.45,1.83,58.31,58.31,0,0,0,16.29-2.24,49.65,49.65,0,0,0,13.94-6.4A31.68,31.68,0,0,0,602,399.1a3.84,3.84,0,0,0,.53-3.63c-.45-1.25-1.41-1.65-2.15-.9a22.79,22.79,0,0,1-2.38,2,47.93,47.93,0,0,1-16.86,7.84,56.27,56.27,0,0,1-13.94,1.7,53.55,53.55,0,0,1-12-1.31,38.71,38.71,0,0,1-16.72-8,18.6,18.6,0,0,1-2.05-2,1.2,1.2,0,0,0-.93-.53c-.48,0-1,.37-1.26,1.06A3.93,3.93,0,0,0,534.53,399Z"/><circle class="cls-5" cx="304.04" cy="515.9" r="67.7"/><circle class="cls-6" cx="304.04" cy="515.9" r="61.56"/><circle class="cls-7" cx="307.65" cy="500" r="31.83"/><circle class="cls-8" cx="307.65" cy="500" r="15.51"/><circle class="cls-9" cx="307.65" cy="500" r="9.75"/><circle class="cls-7" cx="300.87" cy="500.46" r="4.47"/><path class="cls-5" d="M265,535a24.54,24.54,0,0,0,3.5,5,41.41,41.41,0,0,0,11.92,9.32,54.93,54.93,0,0,0,13.69,5,58.27,58.27,0,0,0,16.38,1.43,50.12,50.12,0,0,0,15-3.16,30.21,30.21,0,0,0,5.26-2.54,3.81,3.81,0,0,0,1.32-3.42c-.16-1.31-1-1.92-1.89-1.35a26.25,26.25,0,0,1-2.76,1.41,48,48,0,0,1-18.18,3.9,56.34,56.34,0,0,1-14-1.42,53.71,53.71,0,0,1-11.44-4,38.73,38.73,0,0,1-14.52-11.56,16.78,16.78,0,0,1-1.55-2.41,1.21,1.21,0,0,0-.8-.72,1.49,1.49,0,0,0-1.46.75A4,4,0,0,0,265,535Z"/><circle class="cls-10" cx="358.06" cy="137.44" r="77"/><path class="cls-11" d="M358.06,216.68a79.24,79.24,0,1,1,79.25-79.24A79.33,79.33,0,0,1,358.06,216.68Zm0-154a74.77,74.77,0,1,0,74.77,74.76A74.85,74.85,0,0,0,358.06,62.68Z"/><path class="cls-10" d="M387.13,197.76c0,.43-.05.85-.05,1.29a14.67,14.67,0,1,0,21.84-12.79"/><path class="cls-11" d="M401.74,215.28a16.25,16.25,0,0,1-16.23-16.23c0-.48,0-1,.06-1.42a1.57,1.57,0,1,1,3.12.27c0,.38-.05.76-.05,1.15a13.1,13.1,0,1,0,19.51-11.43,1.57,1.57,0,0,1,1.54-2.73,16.24,16.24,0,0,1-7.95,30.39Z"/><path class="cls-10" d="M339.29,202.57c-.18.25-.35.51-.52.77a10.66,10.66,0,1,0,18.39.35"/><path class="cls-11" d="M350.68,220.56a12,12,0,0,1-13.05-17.91,8.85,8.85,0,0,1,.59-.87,1.33,1.33,0,1,1,2.15,1.58c-.16.22-.31.45-.45.68A9.31,9.31,0,0,0,343,216.85a9.31,9.31,0,0,0,13-12.51,1.34,1.34,0,0,1,2.34-1.3,12,12,0,0,1-7.65,17.52Z"/><path class="cls-10" d="M296.23,169.17c-.32,0-.64,0-1,0a11.09,11.09,0,1,0,9.67,16.52"/><path class="cls-11" d="M295.26,192.69a12.48,12.48,0,0,1,0-25c.37,0,.74,0,1.09.05a1.39,1.39,0,1,1-.24,2.77c-.28,0-.56,0-.85,0A9.69,9.69,0,1,0,303.72,185a1.39,1.39,0,1,1,2.43,1.36A12.51,12.51,0,0,1,295.26,192.69Z"/><path class="cls-10" d="M288.28,118.06c-.15-.17-.3-.34-.46-.5a7.7,7.7,0,1,0-3.36,12.86"/><path class="cls-11" d="M282.39,131.67a8.67,8.67,0,1,1,6.12-14.79c.17.18.35.36.51.56a1,1,0,0,1-1.48,1.24c-.13-.15-.26-.3-.4-.44a6.74,6.74,0,1,0-2.94,11.25,1,1,0,0,1,.52,1.86A8.5,8.5,0,0,1,282.39,131.67Z"/><path class="cls-10" d="M333.65,77.86c.05-.5.07-1,.07-1.5a17.16,17.16,0,1,0-25.55,15"/><path class="cls-11" d="M308.17,92.88a1.53,1.53,0,0,1-.77-.2,18.72,18.72,0,1,1,27.89-16.32c0,.54,0,1.1-.08,1.64a1.57,1.57,0,0,1-3.12-.28c0-.45.06-.91.06-1.36A15.59,15.59,0,1,0,308.94,90a1.57,1.57,0,0,1,.59,2.14A1.54,1.54,0,0,1,308.17,92.88Z"/><path class="cls-10" d="M420.07,102.33a7.56,7.56,0,0,0,.83,0,9.58,9.58,0,1,0-8.35-14.26"/><path class="cls-11" d="M420.9,103.57c-.31,0-.63,0-.94,0a1.2,1.2,0,0,1,.21-2.39c.24,0,.49,0,.73,0a8.37,8.37,0,1,0-7.3-12.47,1.2,1.2,0,0,1-2.1-1.18,10.78,10.78,0,1,1,9.4,16Z"/><path class="cls-10" d="M381.79,70.5c.18-.21.36-.42.53-.65a9.58,9.58,0,1,0-16.44-1.69"/><path class="cls-11" d="M383.29,70.56c-.19.25-.39.5-.59.73a1.2,1.2,0,1,1-1.81-1.58c.16-.18.31-.38.46-.57A8.37,8.37,0,1,0,367,67.66a1.2,1.2,0,1,1-2.19,1,10.78,10.78,0,1,1,18.51,1.91Z"/><path class="cls-10" d="M425.15,156.87a8.3,8.3,0,0,0,.64.69,10.68,10.68,0,1,0,4.66-17.85"/><path class="cls-11" d="M433.34,162a11.94,11.94,0,0,1-8.5-3.52,10.41,10.41,0,0,1-.71-.78,1.34,1.34,0,0,1,2.05-1.73,8.09,8.09,0,0,0,.56.61A9.34,9.34,0,1,0,430.82,141a1.34,1.34,0,1,1-.73-2.58A12,12,0,1,1,433.34,162Z"/><path class="cls-12" d="M389.6,105.18a32.88,32.88,0,1,1-63.75-11.33,36.35,36.35,0,0,0,15,8.82,47.48,47.48,0,0,0,5.67,1.44,1.54,1.54,0,0,1,.17-.19,1.5,1.5,0,0,0,0,.22,52.76,52.76,0,0,0,7.35.86c.88,0,1.77.06,2.66.06a54.08,54.08,0,0,0,10-.92,47.61,47.61,0,0,0,5.82-1.47,36.35,36.35,0,0,0,15-8.82A32.73,32.73,0,0,1,389.6,105.18Z"/><path class="cls-13" d="M372.75,105.18a16,16,0,1,1-31.86-2.51,47.48,47.48,0,0,0,5.67,1.44,1.54,1.54,0,0,1,.17-.19,1.5,1.5,0,0,0,0,.22,52.76,52.76,0,0,0,7.35.86c.88,0,1.77.06,2.66.06a54.08,54.08,0,0,0,10-.92,47.61,47.61,0,0,0,5.82-1.47A15.94,15.94,0,0,1,372.75,105.18Z"/><path class="cls-14" d="M366.79,105.18a10.07,10.07,0,0,1-20.14,0,8.94,8.94,0,0,1,.06-1,52.76,52.76,0,0,0,7.35.86c.88,0,1.77.06,2.66.06a54.08,54.08,0,0,0,10-.92A8.94,8.94,0,0,1,366.79,105.18Z"/><path class="cls-7" d="M354.62,107.19a4.62,4.62,0,0,1-4.62,4.62,4.56,4.56,0,0,1-.92-.09,4.62,4.62,0,0,1-2.52-7.61,1.54,1.54,0,0,1,.17-.19,1.5,1.5,0,0,0,0,.22,52.76,52.76,0,0,0,7.35.86A4.63,4.63,0,0,1,354.62,107.19Z"/><path class="cls-12" d="M346.73,103.92a1.5,1.5,0,0,0,0,.22l-.15,0A1.54,1.54,0,0,1,346.73,103.92Z"/><path class="cls-1" d="M329.68,166.54l-1.83,3.38a80.86,80.86,0,0,1,8.58-2l-.44-1.08C334.75,163.85,331.24,163.66,329.68,166.54Z"/><path class="cls-1" d="M381.21,166.88l-.69,1.68a67,67,0,0,1,9.56,2.71l-2.57-4.73C386,163.66,382.45,163.85,381.21,166.88Z"/><path class="cls-15" d="M329.68,166.54c1.56-2.88,5.07-2.69,6.31.34l.44,1.08a119.51,119.51,0,0,1,20.49-1.69,115.88,115.88,0,0,1,23.6,2.29l.69-1.68c1.24-3,4.74-3.22,6.3-.34l2.57,4.73a36.59,36.59,0,0,1,5.34,2.46c.18-.28.36-.55.53-.84h0c4.54-7.63-1.7-19.56-14.92-22.86a99.71,99.71,0,0,0-48.23,0c-13.22,3.3-19.46,15.23-14.92,22.86h0c.17.29.35.57.53.84a43.83,43.83,0,0,1,9.44-3.81Z"/><path class="cls-16" d="M393,176.61a17,17,0,0,0,2.45-2.88,36.59,36.59,0,0,0-5.34-2.46Z"/><path class="cls-16" d="M336.43,168l5.36,13.09a67.32,67.32,0,0,1,31.43.27c.63.15,1.27.27,1.92.37l5.38-13.13a115.88,115.88,0,0,0-23.6-2.29A119.51,119.51,0,0,0,336.43,168Z"/><path class="cls-16" d="M323.21,178.48l4.64-8.56a43.83,43.83,0,0,0-9.44,3.81A17.36,17.36,0,0,0,323.21,178.48Z"/><path class="cls-17" d="M393,176.61l-5.46-10.07c-1.56-2.88-5.06-2.69-6.3.34l-6.07,14.81C381.45,182.62,388.34,181,393,176.61Z"/><path class="cls-17" d="M329.68,166.54l-6.47,11.94a22.65,22.65,0,0,0,17.4,2.84l1.18-.27L336,166.88C334.75,163.85,331.24,163.66,329.68,166.54Z"/><path class="cls-18" d="M135.84,172.56a12.2,12.2,0,0,1,20.78,0c10.7,17,22.75,34.23,34,51.53S212.4,258.73,220,275.84c3.45,7.83-4.79,17.5-13.81,17.49h-120c-9,0-17.22-9.66-13.73-17.49,7.7-17.11,18.22-34.45,29.48-51.75S125.22,189.53,135.84,172.56Z"/><path class="cls-19" d="M135.61,172.43a12.73,12.73,0,0,1,5.07-4.64,13,13,0,0,1,3.26-1.13,13.21,13.21,0,0,1,3.44-.18,12.71,12.71,0,0,1,6.49,2.4,13.31,13.31,0,0,1,2.57,2.46c.37.46.72,1,1,1.43l1,1.42q1.94,2.82,3.91,5.67t4,5.67q4.06,5.68,8.23,11.39c5.52,7.62,11.07,15.31,16.29,23.1s10.22,15.66,14.75,23.57q3.39,5.94,6.45,11.89t5.71,11.89q1.35,3,2.58,5.92c.21.49.41,1,.62,1.48a16.17,16.17,0,0,1,.58,1.59,10.33,10.33,0,0,1,.37,3.52c-.25,4.87-3.94,9.82-8.63,12.32a15.28,15.28,0,0,1-7.3,1.91c-2.25,0-4.51,0-6.77,0-4.52,0-9,0-13.56.09l-6.78.09-6.78.13c-4.52.08-9,.21-13.55.31l-13.51.34-6.75.17-6.74.14c-9,.17-18,.26-26.92.36l-13.44.14-3.36,0c-.58,0-1.07,0-1.81,0a15,15,0,0,1-2.08-.22,17.33,17.33,0,0,1-4.2-1.28A19.7,19.7,0,0,1,75.84,292a19.1,19.1,0,0,1-5.72-7,14.48,14.48,0,0,1-1.26-4.1,11.93,11.93,0,0,1,.09-4.05c.07-.33.13-.65.23-1a9,9,0,0,1,.31-.92c.06-.16.13-.31.19-.46l0-.11,0-.09.09-.18.33-.73c.44-1,.89-1.94,1.36-2.91q1.38-2.91,2.88-5.82c4-7.76,8.51-15.55,13.4-23.31s10.25-15.44,15.75-23.1c2.75-3.82,5.53-7.64,8.3-11.46,1.39-1.91,2.78-3.81,4.16-5.72l4.1-5.73C125.58,187.78,130.79,180.1,135.61,172.43Zm.45.26c-4.79,7.69-9.75,15.5-14.65,23.42-1.22,2-2.45,4-3.69,5.95s-2.43,4-3.65,6q-3.64,6-7.26,12c-4.81,8-9.54,16-14.12,23.89s-8.93,15.74-12.81,23.54q-1.47,2.92-2.83,5.83-.69,1.45-1.35,2.91c-.11.24-.22.49-.32.73l-.09.18,0,.09,0,.07-.12.29c-.08.19-.14.39-.2.58a4,4,0,0,0-.15.6,7.35,7.35,0,0,0-.1,2.48,8.9,8.9,0,0,0,.72,2.54,11.48,11.48,0,0,0,1.43,2.38,12.18,12.18,0,0,0,2,2,11.55,11.55,0,0,0,5.08,2.37,14.5,14.5,0,0,0,3,.19l3.43,0,13.71.14c9.14.1,18.27.19,27.39.36l6.84.14,6.83.17,13.65.34c4.54.11,9.08.24,13.61.31l6.8.14,6.8.08c4.53.07,9.07.06,13.61.09h6.8a12.92,12.92,0,0,0,6.37-1.74,14.71,14.71,0,0,0,5-4.65,10.94,10.94,0,0,0,2-6,8.41,8.41,0,0,0-.48-2.88c-.31-.86-.84-1.84-1.29-2.79q-1.43-2.86-3-5.73-3.06-5.73-6.49-11.48c-2.26-3.84-4.62-7.69-7-11.56-4.82-7.74-9.84-15.56-14.89-23.43s-10.05-15.81-15-23.76c-2.43-4-4.86-7.95-7.25-11.91-1.19-2-2.38-4-3.55-5.93s-2.36-3.92-3.52-5.88c-.59-1-1.14-2-1.74-2.87a11.65,11.65,0,0,0-5-4,11.73,11.73,0,0,0-9.57.32A11.87,11.87,0,0,0,136.06,172.69Z"/><path class="cls-12" d="M170,225.9a24.66,24.66,0,1,1-47.8-8.49A27.3,27.3,0,0,0,133.48,224a34.29,34.29,0,0,0,4.25,1.08.86.86,0,0,1,.13-.14.78.78,0,0,0,0,.16,39,39,0,0,0,5.51.65c.66,0,1.32,0,2,0a40.53,40.53,0,0,0,7.5-.7,34.9,34.9,0,0,0,4.37-1.1,27.43,27.43,0,0,0,11.28-6.61A24.65,24.65,0,0,1,170,225.9Z"/><path class="cls-20" d="M157.36,225.9a12,12,0,1,1-24,0,11.73,11.73,0,0,1,.15-1.88,34.29,34.29,0,0,0,4.25,1.08.86.86,0,0,1,.13-.14.78.78,0,0,0,0,.16,39,39,0,0,0,5.51.65c.66,0,1.32,0,2,0a40.53,40.53,0,0,0,7.5-.7,34.9,34.9,0,0,0,4.37-1.1A13,13,0,0,1,157.36,225.9Z"/><path class="cls-21" d="M152.89,225.9a7.55,7.55,0,1,1-15.09,0,6.79,6.79,0,0,1,0-.78,39,39,0,0,0,5.51.65c.66,0,1.32,0,2,0a40.53,40.53,0,0,0,7.5-.7A6.79,6.79,0,0,1,152.89,225.9Z"/><path class="cls-7" d="M143.77,227.41a3.47,3.47,0,0,1-3.47,3.47,3.94,3.94,0,0,1-.69-.07,3.46,3.46,0,0,1-1.88-5.71.86.86,0,0,1,.13-.14.78.78,0,0,0,0,.16,39,39,0,0,0,5.51.65A3.36,3.36,0,0,1,143.77,227.41Z"/><path class="cls-12" d="M137.86,225a.78.78,0,0,0,0,.16l-.11,0A.86.86,0,0,1,137.86,225Z"/><path class="cls-12" d="M161.8,196a16.45,16.45,0,1,1-31.9-5.67,18.15,18.15,0,0,0,7.53,4.41,22.52,22.52,0,0,0,2.83.72l.09-.09a.34.34,0,0,0,0,.1,25.54,25.54,0,0,0,3.68.44c.43,0,.88,0,1.33,0a26.37,26.37,0,0,0,5-.47,22.11,22.11,0,0,0,2.91-.73,18.18,18.18,0,0,0,7.52-4.41A16.38,16.38,0,0,1,161.8,196Z"/><path class="cls-20" d="M153.36,196a8,8,0,0,1-16,0,7.48,7.48,0,0,1,.1-1.26,22.52,22.52,0,0,0,2.83.72l.09-.09a.34.34,0,0,0,0,.1,25.54,25.54,0,0,0,3.68.44c.43,0,.88,0,1.33,0a26.37,26.37,0,0,0,5-.47,22.11,22.11,0,0,0,2.91-.73A8.69,8.69,0,0,1,153.36,196Z"/><path class="cls-21" d="M150.38,196a5,5,0,0,1-10.07,0,4.71,4.71,0,0,1,0-.53,25.54,25.54,0,0,0,3.68.44c.43,0,.88,0,1.33,0a26.37,26.37,0,0,0,5-.47C150.37,195.68,150.38,195.85,150.38,196Z"/><path class="cls-7" d="M144.29,197a2.31,2.31,0,1,1-4-1.55l.09-.09a.34.34,0,0,0,0,.1,25.54,25.54,0,0,0,3.68.44A2.36,2.36,0,0,1,144.29,197Z"/><path class="cls-12" d="M140.35,195.4a.34.34,0,0,0,0,.1h-.08Z"/><path class="cls-12" d="M181.88,276.15a152.51,152.51,0,0,1-8.67,13q-6.56-4.83-12.36-10.07a155.31,155.31,0,0,1-10.35,11.83,154.7,154.7,0,0,1-10.85-11.44c-3.72,3.63-7.69,7.15-11.91,10.52a155.31,155.31,0,0,1-9.21-12.63c-4.19,3.16-8.64,6.17-13.31,9a177.93,177.93,0,0,1-5.55-25.69c3.27,2.61,6.7,5.12,10.28,7.5a145.07,145.07,0,0,0,12-9.26,138.5,138.5,0,0,0,7.92,12.47,145.47,145.47,0,0,0,10.61-10.61,142.08,142.08,0,0,0,9.56,11.42,141,141,0,0,0,9.06-11.77,146.75,146.75,0,0,0,11.07,10.21,136.42,136.42,0,0,0,7.39-12.75q5.31,4.68,11.25,9,2.93-2.53,5.67-5.18a149.69,149.69,0,0,1-7.13,17.69Q184.59,277.8,181.88,276.15Z"/><path class="cls-18" d="M505.28,138.79a13.07,13.07,0,0,1,22.25,0C539,157,551.88,175.44,564,194s23.3,37.09,31.47,55.41c3.7,8.37-5.12,18.73-14.79,18.72H452.16c-9.67,0-18.43-10.35-14.7-18.72C445.7,231.05,457,212.49,469,194S493.92,157,505.28,138.79Z"/><path class="cls-19" d="M505,138.65a13.68,13.68,0,0,1,8.91-6.17,14.28,14.28,0,0,1,3.69-.2,13.57,13.57,0,0,1,7,2.57,14.33,14.33,0,0,1,2.75,2.64c.4.49.76,1,1.1,1.53s.68,1,1,1.51q2.07,3,4.18,6.08t4.32,6.07c2.9,4,5.85,8.12,8.81,12.19,5.92,8.16,11.85,16.39,17.44,24.74s10.94,16.76,15.8,25.22q3.62,6.36,6.9,12.73T593,240.3c1,2.11,1.87,4.23,2.75,6.34.23.52.45,1.05.66,1.57a14.2,14.2,0,0,1,.62,1.71,11,11,0,0,1,.41,3.77c-.27,5.21-4.22,10.52-9.25,13.19a16.21,16.21,0,0,1-7.81,2c-2.41,0-4.83,0-7.25,0-4.84,0-9.67,0-14.52.09l-7.25.09-7.26.14c-4.84.09-9.68.23-14.51.34l-14.47.36-7.22.19-7.21.14c-9.62.19-19.23.28-28.83.39l-14.39.15-3.6,0c-.61,0-1.14,0-1.93,0a15.62,15.62,0,0,1-2.23-.23,19,19,0,0,1-4.5-1.38,21.46,21.46,0,0,1-4.2-2.52,20.51,20.51,0,0,1-6.13-7.46,15.72,15.72,0,0,1-1.35-4.38,12.86,12.86,0,0,1,.1-4.34,8.6,8.6,0,0,1,.25-1c.1-.34.2-.68.33-1l.2-.48.05-.12,0-.1.09-.2.36-.77c.47-1,1-2.08,1.45-3.12q1.49-3.1,3.08-6.23c4.28-8.31,9.12-16.65,14.36-24.95s11-16.54,16.85-24.73q4.42-6.15,8.9-12.27c1.48-2.05,3-4.09,4.45-6.13s2.93-4.09,4.38-6.13C494.3,155.08,499.88,146.87,505,138.65Zm.48.28c-5.13,8.23-10.44,16.59-15.68,25.08l-3.95,6.37-3.91,6.4q-3.92,6.42-7.77,12.85c-5.15,8.57-10.22,17.12-15.12,25.58s-9.57,16.86-13.72,25.2q-1.56,3.14-3,6.25c-.49,1-1,2.07-1.44,3.11l-.35.78-.09.19,0,.1,0,.08-.12.31a6.5,6.5,0,0,0-.22.62c-.07.21-.11.42-.16.64a8.15,8.15,0,0,0-.11,2.66,10.13,10.13,0,0,0,.77,2.71,12.94,12.94,0,0,0,1.53,2.56,13.56,13.56,0,0,0,2.17,2.18,12.34,12.34,0,0,0,5.44,2.53,15.65,15.65,0,0,0,3.16.21l3.67,0,14.68.15c9.78.1,19.56.2,29.32.39l7.33.14,7.31.18,14.61.37c4.86.11,9.72.25,14.57.34l7.28.14,7.28.09c4.85.08,9.71.06,14.57.09,2.42,0,4.86,0,7.29,0a13.88,13.88,0,0,0,6.82-1.85,16,16,0,0,0,5.39-5,11.69,11.69,0,0,0,2.1-6.4,9.31,9.31,0,0,0-.52-3.08c-.33-.92-.9-2-1.38-3-1-2-2.08-4.09-3.17-6.13-2.18-4.09-4.51-8.19-6.94-12.29s-4.95-8.24-7.54-12.38c-5.16-8.29-10.54-16.66-15.94-25.08s-10.76-16.93-16-25.44q-3.92-6.39-7.76-12.75-1.92-3.18-3.8-6.35t-3.77-6.3c-.63-1-1.22-2.13-1.87-3.07a12.45,12.45,0,0,0-2.4-2.52,12,12,0,0,0-3-1.78,12.68,12.68,0,0,0-3.39-.85,12.51,12.51,0,0,0-6.85,1.19A12.88,12.88,0,0,0,505.52,138.93Z"/><path class="cls-12" d="M541.85,195.9a26.39,26.39,0,1,1-52.78,0,26.06,26.06,0,0,1,1.61-9.09,29.34,29.34,0,0,0,12.07,7.08A38.32,38.32,0,0,0,507.3,195l.14-.15c0,.06,0,.11,0,.17a41.54,41.54,0,0,0,5.91.69q1,.06,2.13.06a42.76,42.76,0,0,0,8-.75,37.5,37.5,0,0,0,4.67-1.17,29.38,29.38,0,0,0,12.08-7.08A26.29,26.29,0,0,1,541.85,195.9Z"/><path class="cls-20" d="M528.33,195.9a12.87,12.87,0,0,1-25.73,0,13.2,13.2,0,0,1,.15-2A38.32,38.32,0,0,0,507.3,195l.14-.15c0,.06,0,.11,0,.17a41.54,41.54,0,0,0,5.91.69q1,.06,2.13.06a42.76,42.76,0,0,0,8-.75,37.5,37.5,0,0,0,4.67-1.17A13.19,13.19,0,0,1,528.33,195.9Z"/><path class="cls-21" d="M523.54,195.9a8.08,8.08,0,0,1-16.16,0c0-.28,0-.56,0-.84a41.54,41.54,0,0,0,5.91.69q1,.06,2.13.06a42.76,42.76,0,0,0,8-.75A7.87,7.87,0,0,1,523.54,195.9Z"/><path class="cls-7" d="M513.77,197.52a3.71,3.71,0,0,1-3.71,3.71,3.65,3.65,0,0,1-.74-.08,3.71,3.71,0,0,1-2-6.11l.14-.15c0,.06,0,.11,0,.17a41.54,41.54,0,0,0,5.91.69A3.77,3.77,0,0,1,513.77,197.52Z"/><path class="cls-12" d="M507.44,194.89c0,.06,0,.11,0,.17l-.12,0Z"/><path class="cls-12" d="M533.07,163.91a17.61,17.61,0,1,1-34.15-6.06,19.52,19.52,0,0,0,8.06,4.72,26,26,0,0,0,3,.77l.09-.1a.49.49,0,0,0,0,.12,27.75,27.75,0,0,0,3.94.46c.47,0,.94,0,1.42,0a29,29,0,0,0,5.36-.49,26.34,26.34,0,0,0,3.12-.79,19.52,19.52,0,0,0,8.06-4.72A17.63,17.63,0,0,1,533.07,163.91Z"/><path class="cls-20" d="M524.05,163.91A8.59,8.59,0,1,1,507,162.57a26,26,0,0,0,3,.77l.09-.1a.49.49,0,0,0,0,.12,27.75,27.75,0,0,0,3.94.46c.47,0,.94,0,1.42,0a29,29,0,0,0,5.36-.49,26.34,26.34,0,0,0,3.12-.79A8.55,8.55,0,0,1,524.05,163.91Z"/><path class="cls-21" d="M520.85,163.91a5.39,5.39,0,0,1-5.39,5.4,5.41,5.41,0,0,1-5.39-5.4,5.07,5.07,0,0,1,0-.55,27.75,27.75,0,0,0,3.94.46c.47,0,.94,0,1.42,0a29,29,0,0,0,5.36-.49A5.07,5.07,0,0,1,520.85,163.91Z"/><path class="cls-7" d="M514.33,165a2.48,2.48,0,0,1-2.47,2.47,2.54,2.54,0,0,1-.49-.05,2.47,2.47,0,0,1-2-2.42,2.5,2.5,0,0,1,.64-1.66l.09-.1a.49.49,0,0,0,0,.12,27.75,27.75,0,0,0,3.94.46A2.45,2.45,0,0,1,514.33,165Z"/><path class="cls-12" d="M510.11,163.24a.49.49,0,0,0,0,.12l-.08,0Z"/><path class="cls-12" d="M554.57,249.7a165.08,165.08,0,0,1-9.27,13.88q-7-5.18-13.24-10.78-5.12,6.48-11.08,12.67-6.22-6-11.62-12.25a170.1,170.1,0,0,1-12.75,11.26A165.76,165.76,0,0,1,486.76,251c-4.5,3.38-9.25,6.61-14.26,9.65a190.79,190.79,0,0,1-5.94-27.49q5.25,4.19,11,8a158.49,158.49,0,0,0,12.89-9.92,145.45,145.45,0,0,0,8.48,13.34,154,154,0,0,0,11.36-11.35,153.76,153.76,0,0,0,10.23,12.23,154,154,0,0,0,9.7-12.6,153.43,153.43,0,0,0,11.85,10.92A149,149,0,0,0,550,230.13q5.67,5,12,9.61c2.1-1.81,4.12-3.66,6.08-5.55a159.85,159.85,0,0,1-7.63,18.94C558.47,252,556.5,250.87,554.57,249.7Z"/><circle class="cls-5" cx="287.51" cy="288.08" r="56.61"/><circle class="cls-6" cx="287.51" cy="288.08" r="51.47"/><path class="cls-5" d="M301.41,308.94a51.62,51.62,0,0,0-25,0c-6.84,1.71-10.07,7.88-7.72,11.83h0l.27.43a8.83,8.83,0,0,0,2.49,2.46h0a11.65,11.65,0,0,0,9,1.47l.61-.14a34.91,34.91,0,0,1,16.26.14c.33.08.66.14,1,.19h0a11.24,11.24,0,0,0,9.22-2.62h0a9.16,9.16,0,0,0,1.27-1.5c.09-.14.19-.28.27-.43h0C311.48,316.82,308.25,310.65,301.41,308.94Z"/><path class="cls-5" d="M268.73,298a5.45,5.45,0,0,1-3.85-9.3l40.42-40.42a5.45,5.45,0,0,1,7.71,7.7l-40.43,40.42A5.39,5.39,0,0,1,268.73,298Z"/><path class="cls-5" d="M309.15,298a5.42,5.42,0,0,1-3.85-1.6l-40.42-40.42a5.44,5.44,0,0,1,7.7-7.7L313,288.65a5.45,5.45,0,0,1-3.86,9.3Z"/><path class="cls-8" d="M232.66,522.24c-13.33,1.84-15.65-15-29-13.17s-11,18.69-24.33,20.53-15.66-15-29-13.17c-8,1.1-17.8,16.28-24.77,13.42-7.17-2.94-3.55-20.83-8.33-26.93-4.64-5.93-23-6.71-24.05-14.67-1.84-13.33,15-15.66,13.17-29s-18.69-11-20.53-24.33,15-15.66,13.17-29c-1.1-8-16.28-17.8-13.42-24.77,2.93-7.17,20.82-3.55,26.93-8.32,5.93-4.64,6.71-23,14.67-24.05,13.33-1.85,15.66,15,29,13.17s11-18.7,24.33-20.54,15.66,15,29,13.17c8-1.1,17.8-16.28,24.77-13.42,7.17,2.94,3.55,20.83,8.32,26.93,4.64,5.93,23,6.72,24,14.68,1.84,13.32-15,15.65-13.17,29s18.7,11,20.54,24.33-15,15.66-13.17,29c1.1,8,16.28,17.8,13.42,24.77-2.94,7.17-20.83,3.55-26.93,8.33C241.4,502.83,240.62,521.14,232.66,522.24Z"/><ellipse class="cls-22" cx="203.27" cy="488.13" rx="16.48" ry="10.06"/><ellipse class="cls-22" cx="183.12" cy="496.64" rx="2.87" ry="4.7" transform="translate(-105.82 53.14) rotate(-12.84)"/><ellipse class="cls-22" cx="122.24" cy="452.76" rx="9.97" ry="16.34" transform="translate(-284.35 219.05) rotate(-45)"/><ellipse class="cls-22" cx="253.86" cy="482.76" rx="6.46" ry="10.58" transform="translate(-267.01 320.9) rotate(-45)"/><ellipse class="cls-22" cx="249.34" cy="439.43" rx="7.09" ry="11.61" transform="translate(-237.7 305.02) rotate(-45)"/><ellipse class="cls-22" cx="104.78" cy="389.64" rx="6.45" ry="10.56" transform="translate(-244.83 188.21) rotate(-45)"/><ellipse class="cls-22" cx="225.65" cy="364.57" rx="6.45" ry="10.56" transform="translate(-191.69 266.34) rotate(-45)"/><ellipse class="cls-22" cx="128.24" cy="517.66" rx="9.21" ry="6.45" transform="translate(-404.54 541.41) rotate(-78.64)"/><ellipse class="cls-22" cx="169.25" cy="376.65" rx="22" ry="13.43" transform="translate(-194.98 182.09) rotate(-37.69)"/><ellipse class="cls-22" cx="198.79" cy="389.64" rx="6.53" ry="10.69" transform="translate(-61.76 38.29) rotate(-9.53)"/><ellipse class="cls-22" cx="102.09" cy="488.13" rx="2.4" ry="3.94" transform="translate(-79.4 23.64) rotate(-9.53)"/><ellipse class="cls-22" cx="108.81" cy="480.52" rx="3.9" ry="6.39" transform="translate(-266.28 161.07) rotate(-36.82)"/><path class="cls-17" d="M146.38,455.8c-2.63-3-6.14-1.43-6.32,2.9l-1,25.57a103.12,103.12,0,0,1,23-10.36Z"/><path class="cls-23" d="M225,466.2a33,33,0,0,0-6.83-2,78,78,0,0,0-19.53-1.1,125.21,125.21,0,0,0-19.76,2.8,133.49,133.49,0,0,0-21.53,6.59,95.56,95.56,0,0,0-17.62,9.2,46.29,46.29,0,0,0-5.52,4.24,2.16,2.16,0,0,0,3,3.13,36.4,36.4,0,0,1,2.85-2.28,91.53,91.53,0,0,1,21.32-11.21,130.24,130.24,0,0,1,18.45-5.46,123.18,123.18,0,0,1,16.41-2.5c11.92-1,19.88.43,23.9,1.48a24.19,24.19,0,0,1,3.1,1,2.22,2.22,0,0,0,1.36.15,2.16,2.16,0,0,0,.43-4.07Z"/><circle class="cls-12" cx="140.56" cy="417.24" r="21.89"/><circle class="cls-24" cx="140.56" cy="417.24" r="10.67"/><circle class="cls-25" cx="140.56" cy="417.24" r="6.7"/><circle class="cls-7" cx="136.09" cy="418.58" r="3.08"/><path class="cls-26" d="M161.75,416.35l-48-26.38,7.61-16.46L164,407.14a1.8,1.8,0,0,0,2.34-.09l4.58-4.22,1.16,5.72c1.16,5.72-4.68,10.52-10,8A4,4,0,0,1,161.75,416.35Z"/><circle class="cls-12" cx="219.3" cy="417.24" r="21.89"/><circle class="cls-24" cx="219.3" cy="417.24" r="10.67"/><circle class="cls-25" cx="219.3" cy="417.24" r="6.7"/><circle class="cls-7" cx="214.82" cy="418.58" r="3.08"/><path class="cls-26" d="M198.11,416.35l48-26.38-7.61-16.46-42.68,33.63a1.82,1.82,0,0,1-2.35-.09l-4.57-4.22-1.17,5.72c-1.16,5.72,4.69,10.52,10,8A3.84,3.84,0,0,0,198.11,416.35Z"/><path class="cls-8" d="M539.39,530.89c-9,1.25-10.6-10.16-19.62-8.92s-7.45,12.66-16.48,13.91-10.6-10.17-19.63-8.92c-5.39.75-12.05,11-16.77,9.09s-2.4-14.1-5.64-18.24-15.53-4.54-16.28-9.93c-1.25-9,10.16-10.6,8.92-19.63S441.23,480.8,440,471.78s10.17-10.61,8.92-19.63c-.74-5.39-11-12-9.09-16.77s14.11-2.41,18.24-5.64,4.55-15.54,9.93-16.28c9-1.25,10.61,10.16,19.63,8.91s7.45-12.65,16.48-13.9,10.6,10.16,19.62,8.92c5.39-.75,12.06-11,16.77-9.09s2.41,14.1,5.64,18.23,15.54,4.55,16.29,9.94c1.24,9-10.17,10.6-8.92,19.63s12.66,7.45,13.9,16.47-10.16,10.6-8.91,19.63c.74,5.39,11,12.05,9.08,16.77s-14.1,2.41-18.23,5.64S544.78,530.15,539.39,530.89Z"/><ellipse class="cls-22" cx="519.49" cy="507.8" rx="11.16" ry="6.81"/><ellipse class="cls-22" cx="505.85" cy="513.56" rx="1.94" ry="3.18" transform="translate(-101.51 125.3) rotate(-12.84)"/><ellipse class="cls-22" cx="464.62" cy="483.85" rx="6.75" ry="11.06" transform="translate(-206.05 470.25) rotate(-45)"/><ellipse class="cls-22" cx="553.74" cy="504.16" rx="4.37" ry="7.16" transform="translate(-194.31 539.22) rotate(-45)"/><ellipse class="cls-22" cx="550.68" cy="474.83" rx="4.8" ry="7.86" transform="translate(-174.46 528.47) rotate(-45)"/><ellipse class="cls-22" cx="452.8" cy="441.11" rx="4.36" ry="7.15" transform="translate(-179.29 449.38) rotate(-45)"/><ellipse class="cls-22" cx="534.65" cy="424.13" rx="4.36" ry="7.15" transform="translate(-143.31 502.28) rotate(-45)"/><ellipse class="cls-22" cx="468.69" cy="527.79" rx="6.23" ry="4.36" transform="translate(-141.09 883.33) rotate(-78.64)"/><ellipse class="cls-22" cx="496.45" cy="432.32" rx="14.9" ry="9.1" transform="translate(-160.72 393.77) rotate(-37.69)"/><ellipse class="cls-22" cx="516.46" cy="441.11" rx="4.42" ry="7.24" transform="translate(-65.9 91.59) rotate(-9.53)"/><ellipse class="cls-22" cx="450.98" cy="507.8" rx="1.63" ry="2.66" transform="translate(-77.84 81.67) rotate(-9.53)"/><ellipse class="cls-22" cx="455.53" cy="502.64" rx="2.64" ry="4.33" transform="matrix(0.8, -0.6, 0.6, 0.8, -210.37, 373.28)"/><path class="cls-17" d="M481,485.91c-1.78-2.06-4.16-1-4.28,2L476,505.19a69.49,69.49,0,0,1,15.59-7Z"/><path class="cls-23" d="M534.22,493a22.64,22.64,0,0,0-4.62-1.33,53.43,53.43,0,0,0-13.23-.74A84.94,84.94,0,0,0,503,492.77a90.49,90.49,0,0,0-14.57,4.46,64.8,64.8,0,0,0-11.93,6.24,31,31,0,0,0-3.74,2.87,1.46,1.46,0,0,0,2,2.11,23.22,23.22,0,0,1,1.93-1.54,61.92,61.92,0,0,1,14.44-7.59,88.56,88.56,0,0,1,12.49-3.7,83.87,83.87,0,0,1,11.11-1.69,49.2,49.2,0,0,1,16.18,1,14.63,14.63,0,0,1,2.1.68,1.47,1.47,0,0,0,.92.09,1.45,1.45,0,0,0,.29-2.75Z"/><circle class="cls-12" cx="477.03" cy="459.8" r="14.82"/><circle class="cls-24" cx="477.03" cy="459.8" r="7.22"/><circle class="cls-25" cx="477.03" cy="459.8" r="4.54"/><circle class="cls-7" cx="474" cy="460.71" r="2.08"/><path class="cls-26" d="M491.38,459.2l-32.51-17.87L464,430.19,492.92,453a1.24,1.24,0,0,0,1.59-.06l3.1-2.85.78,3.86a4.85,4.85,0,0,1-6.73,5.43A2.44,2.44,0,0,1,491.38,459.2Z"/><circle class="cls-12" cx="530.34" cy="459.8" r="14.82"/><circle class="cls-24" cx="530.34" cy="459.8" r="7.22"/><circle class="cls-25" cx="530.34" cy="459.8" r="4.54"/><circle class="cls-7" cx="527.31" cy="460.71" r="2.08"/><path class="cls-26" d="M516,459.2l32.51-17.87-5.16-11.14L514.46,453a1.24,1.24,0,0,1-1.59-.06l-3.1-2.85-.79,3.86a4.86,4.86,0,0,0,6.74,5.43Z"/><circle class="cls-10" cx="404.48" cy="362.44" r="64.71"/><path class="cls-11" d="M404.48,429a66.6,66.6,0,1,1,66.59-66.59A66.67,66.67,0,0,1,404.48,429Zm0-129.42a62.83,62.83,0,1,0,62.83,62.83A62.89,62.89,0,0,0,404.48,299.61Z"/><path class="cls-10" d="M428.9,413.13c0,.35,0,.71,0,1.08a12.33,12.33,0,1,0,18.36-10.75"/><path class="cls-11" d="M441.18,427.85a13.66,13.66,0,0,1-13.64-13.64c0-.4,0-.8,0-1.2a1.32,1.32,0,0,1,2.63.23c0,.32,0,.65,0,1a11,11,0,1,0,16.39-9.6,1.32,1.32,0,0,1,1.29-2.3,13.64,13.64,0,0,1-6.68,25.54Z"/><path class="cls-10" d="M388.7,417.17c-.15.21-.3.42-.44.65a9,9,0,1,0,15.46.29"/><path class="cls-11" d="M398.27,432.28a10.08,10.08,0,0,1-11-15c.16-.25.32-.5.5-.73a1.12,1.12,0,0,1,1.57-.24,1.13,1.13,0,0,1,.24,1.58,5.72,5.72,0,0,0-.39.57,7.83,7.83,0,1,0,13.52.25,1.12,1.12,0,0,1,2-1.1,10.07,10.07,0,0,1-6.43,14.72Z"/><path class="cls-10" d="M352.52,389.1a7.38,7.38,0,0,0-.82,0,9.32,9.32,0,1,0,8.13,13.88"/><path class="cls-11" d="M351.7,408.87a10.49,10.49,0,1,1,0-21c.31,0,.62,0,.92,0a1.17,1.17,0,0,1-.21,2.33c-.23,0-.47,0-.71,0a8.15,8.15,0,1,0,7.11,12.14,1.16,1.16,0,0,1,1.59-.45,1.18,1.18,0,0,1,.45,1.59A10.53,10.53,0,0,1,351.7,408.87Z"/><path class="cls-10" d="M345.83,346.15a5.14,5.14,0,0,0-.38-.42,6.47,6.47,0,1,0-2.83,10.8"/><path class="cls-11" d="M340.88,357.59A7.29,7.29,0,1,1,346,345.15a6.29,6.29,0,0,1,.43.47.81.81,0,1,1-1.24,1.05c-.11-.13-.22-.25-.34-.37a5.66,5.66,0,1,0-2.47,9.45.82.82,0,0,1,.44,1.57A7.35,7.35,0,0,1,340.88,357.59Z"/><path class="cls-10" d="M384,312.36q.06-.62.06-1.26a14.42,14.42,0,1,0-21.47,12.57"/><path class="cls-11" d="M362.54,325a1.25,1.25,0,0,1-.64-.17,15.73,15.73,0,1,1,23.43-13.72c0,.46,0,.93-.06,1.38a1.32,1.32,0,1,1-2.62-.23c0-.38.05-.76.05-1.15a13.1,13.1,0,1,0-19.51,11.43,1.31,1.31,0,0,1-.65,2.46Z"/><path class="cls-10" d="M456.58,332.93c.23,0,.47,0,.7,0a8,8,0,1,0-7-12"/><path class="cls-11" d="M457.28,334c-.26,0-.53,0-.79,0a1,1,0,1,1,.18-2l.61,0a7,7,0,1,0-6.13-10.48,1,1,0,1,1-1.76-1A9.06,9.06,0,1,1,457.28,334Z"/><path class="cls-10" d="M424.42,306.18c.15-.17.3-.36.44-.55A8,8,0,1,0,411,304.21"/><path class="cls-11" d="M425.67,306.23c-.15.21-.32.42-.49.62a1,1,0,0,1-1.43.09,1,1,0,0,1-.09-1.42c.13-.16.26-.32.38-.49A7,7,0,1,0,412,303.79a1,1,0,1,1-1.84.84,9.06,9.06,0,1,1,15.55,1.6Z"/><path class="cls-10" d="M460.86,378.76a5.78,5.78,0,0,0,.53.58,9,9,0,1,0,3.92-15"/><path class="cls-11" d="M467.74,383.1a10,10,0,0,1-7.15-3c-.21-.21-.41-.43-.6-.65a1.13,1.13,0,0,1,1.73-1.45c.15.17.3.34.47.51a7.85,7.85,0,1,0,3.42-13.12,1.13,1.13,0,1,1-.6-2.17,10.11,10.11,0,1,1,2.73,19.84Z"/><path class="cls-12" d="M431,335.32a27.63,27.63,0,1,1-53.58-9.51,30.67,30.67,0,0,0,12.64,7.4,37.81,37.81,0,0,0,4.77,1.21l.15-.15a1,1,0,0,0,0,.18,45.38,45.38,0,0,0,6.19.72c.73,0,1.48.06,2.23.06a45.89,45.89,0,0,0,8.41-.78,38.84,38.84,0,0,0,4.89-1.24,30.61,30.61,0,0,0,12.64-7.4A27.5,27.5,0,0,1,431,335.32Z"/><path class="cls-13" d="M416.81,335.32a13.47,13.47,0,1,1-26.93,0,14.65,14.65,0,0,1,.16-2.11,37.81,37.81,0,0,0,4.77,1.21l.15-.15a1,1,0,0,0,0,.18,45.38,45.38,0,0,0,6.19.72c.73,0,1.48.06,2.23.06a45.89,45.89,0,0,0,8.41-.78,38.84,38.84,0,0,0,4.89-1.24A13.35,13.35,0,0,1,416.81,335.32Z"/><path class="cls-14" d="M411.81,335.32a8.46,8.46,0,1,1-16.92,0,8.31,8.31,0,0,1,0-.87,45.38,45.38,0,0,0,6.19.72c.73,0,1.48.06,2.23.06a45.89,45.89,0,0,0,8.41-.78A8.3,8.3,0,0,1,411.81,335.32Z"/><path class="cls-7" d="M401.58,337a3.88,3.88,0,0,1-3.88,3.88,4,4,0,0,1-.78-.08,3.88,3.88,0,0,1-2.11-6.4l.15-.15a1,1,0,0,0,0,.18,45.38,45.38,0,0,0,6.19.72A4,4,0,0,1,401.58,337Z"/><path class="cls-12" d="M395,334.27a1,1,0,0,0,0,.18l-.12,0Z"/><path class="cls-1" d="M380.63,386.89l-1.55,2.84a69.06,69.06,0,0,1,7.22-1.65l-.38-.91A2.81,2.81,0,0,0,380.63,386.89Z"/><path class="cls-1" d="M423.92,387.17l-.58,1.42a57.4,57.4,0,0,1,8,2.27l-2.16-4A2.82,2.82,0,0,0,423.92,387.17Z"/><path class="cls-15" d="M380.63,386.89a2.81,2.81,0,0,1,5.29.28l.38.91a101.23,101.23,0,0,1,17.21-1.41,97.14,97.14,0,0,1,19.83,1.92l.58-1.42a2.82,2.82,0,0,1,5.3-.28l2.16,4a32,32,0,0,1,4.49,2.07c.15-.23.3-.46.44-.7h0c3.82-6.41-1.42-16.44-12.53-19.22a83.71,83.71,0,0,0-40.53,0c-11.11,2.78-16.36,12.81-12.54,19.22h0c.14.24.29.47.44.7a37.08,37.08,0,0,1,7.93-3.2Z"/><path class="cls-16" d="M433.81,395.35a14.09,14.09,0,0,0,2.06-2.42,32,32,0,0,0-4.49-2.07Z"/><path class="cls-16" d="M386.3,388.08l4.5,11a56.67,56.67,0,0,1,26.41.23c.53.13,1.07.23,1.62.31l4.51-11a97.14,97.14,0,0,0-19.83-1.92A101.23,101.23,0,0,0,386.3,388.08Z"/><path class="cls-16" d="M375.19,396.92l3.89-7.19a37.08,37.08,0,0,0-7.93,3.2A14.47,14.47,0,0,0,375.19,396.92Z"/><path class="cls-17" d="M433.81,395.35l-4.59-8.46a2.82,2.82,0,0,0-5.3.28l-5.09,12.45C424.13,400.4,429.92,399,433.81,395.35Z"/><path class="cls-17" d="M380.63,386.89l-5.44,10a19,19,0,0,0,14.62,2.39l1-.23-4.88-11.91A2.81,2.81,0,0,0,380.63,386.89Z"/></g></svg>