<svg xmlns="http://www.w3.org/2000/svg" viewBox="0 0 168.19 168.44"><defs><style>.cls-1{fill:#e1fffb;opacity:0.55;}.cls-2{fill:#ffe7fe;opacity:0.75;}.cls-3{fill:#fff;}.cls-4{fill:#eee7d5;}.cls-5{fill:#c8c2b3;}.cls-6{fill:#e6e6e6;}.cls-7{fill:gray;}.cls-8{fill:#53798b;}.cls-9{fill:#eceee5;}.cls-10{fill:#9da190;}.cls-11{fill:#6a6b5f;}.cls-12{fill:#ecebe6;}.cls-13{fill:#dad6cc;}.cls-14{fill:#a29980;}.cls-15{fill:#999;}.cls-16{fill:#99f6bf;}.cls-17{fill:#ff0042;}.cls-18{fill:#00ace4;}.cls-19{fill:#b7ccd4;}</style></defs><title>CTSCAN</title><g id="Laag_2" data-name="Laag 2"><g id="Laag_2-2" data-name="Laag 2"><ellipse class="cls-1" cx="84.1" cy="84.22" rx="84.56" ry="83.75" transform="translate(-34.58 93.2) rotate(-49.37)"/><ellipse class="cls-2" cx="88.67" cy="87.84" rx="76.63" ry="74.33" transform="translate(-35.74 97.93) rotate(-49.37)"/><ellipse class="cls-3" cx="123.18" cy="85.74" rx="14.25" ry="14.11" transform="translate(-22.11 123.38) rotate(-49.37)"/></g><g id="icoontjes"><ellipse class="cls-4" cx="112.45" cy="86.98" rx="14.01" ry="34.28"/><rect class="cls-4" x="85.75" y="52.7" width="26.7" height="68.57"/><ellipse class="cls-5" cx="86.22" cy="86.98" rx="14.47" ry="34.28"/><ellipse class="cls-6" cx="85.75" cy="86.98" rx="12.01" ry="29.39"/><path class="cls-7" d="M94.23,87c0,.4,0,.8,0,1.2A41.87,41.87,0,0,1,92.37,100a16.86,16.86,0,0,1-3.08,5.89,4.25,4.25,0,0,1-7.07,0A16.69,16.69,0,0,1,79.13,100a41.87,41.87,0,0,1-1.85-11.78c0-.4,0-.8,0-1.2,0-11.46,3.8-20.76,8.48-20.76S94.23,75.52,94.23,87Z"/><ellipse class="cls-8" cx="60.38" cy="120.02" rx="11.61" ry="4.38"/><rect class="cls-8" x="48.77" y="98.28" width="23.22" height="21.74"/><path class="cls-9" d="M94.22,88.18A41.87,41.87,0,0,1,92.37,100H37.83L21.61,88.18Z"/><polygon class="cls-10" points="37.84 105.85 21.61 94.07 21.61 88.18 37.84 99.96 37.84 105.85"/><path class="cls-11" d="M92.37,100a16.86,16.86,0,0,1-3.08,5.89H37.84V100Z"/><polygon class="cls-12" points="110.86 129.04 101.43 121.3 101.43 73.26 110.86 80.99 110.86 129.04"/><polygon class="cls-13" points="109.31 111.02 102.97 105.81 102.97 79.93 109.31 85.13 109.31 111.02"/><polygon class="cls-4" points="110.86 80.99 101.43 73.26 125.24 72.95 136.61 81 110.86 80.99"/><rect class="cls-14" x="110.86" y="80.99" width="25.75" height="48.04"/><polygon class="cls-15" points="108.31 106.54 103.98 102.99 103.98 82.36 108.31 85.92 108.31 106.54"/><ellipse class="cls-16" cx="105.16" cy="94.52" rx="0.61" ry="1.13"/><ellipse class="cls-17" cx="107.03" cy="95.65" rx="0.61" ry="1.13"/><polygon class="cls-18" points="107.64 92.89 104.55 90.45 104.55 84.31 107.64 86.75 107.64 92.89"/><polygon class="cls-19" points="107.9 105.12 104.39 102.24 104.39 96.81 107.9 99.69 107.9 105.12"/></g></g></svg>