<svg xmlns="http://www.w3.org/2000/svg" viewBox="0 0 314.26 451.47"><defs><style>.cls-1,.cls-8{fill:#d7916b}.cls-2{fill:#bd1622}.cls-3{fill:#d9d9d9}.cls-4{fill:#e20613}.cls-5{fill:#fff}.cls-6{fill:#6dc371}.cls-7{fill:#1d1d1b}.cls-8,.cls-9{stroke:#875232;stroke-linecap:round}.cls-15,.cls-8,.cls-9{stroke-miterlimit:10}.cls-8{stroke-width:4px}.cls-15,.cls-9{fill:none}.cls-9{stroke-width:5px}.cls-10{fill:#921f37}.cls-11{fill:#ff9697}.cls-12{fill:#f18a10}.cls-13{fill:#d7d7d7}.cls-14{fill:#b0b0b0}.cls-15{stroke:#f18a10;stroke-width:.5px}</style></defs><title>oloviabellenblaas_1</title><g id="Laag_2" data-name="Laag 2"><g id="Laag_2-2" data-name="Laag 2"><path d="M205.63,340.53a178,178,0,0,1-55.29,0c-11.73-2.08-24.54-15.28-27.08-27.42-3.49-19.06-4.86-38.05-3-57.17C121.72,243.8,135,230,147.8,227.51a178.89,178.89,0,0,1,60.37,0C221,230,234.25,243.8,235.68,255.94c1.89,19.12.53,38.11-3,57.17C230.17,325.26,217.37,338.45,205.63,340.53Z" class="cls-1"/><path d="M284.15,251.88A11.94,11.94,0,0,0,271.78,256c-30.5,38-66.17,41.94-67.67,42.09a12,12,0,1,0,2.14,23.81c1.9-.17,47-4.59,84.17-50.95a11.94,11.94,0,0,0-6.27-19Z" class="cls-1"/><path d="M162.24,448.51H83.15a6.31,6.31,0,0,1-5.93-8.45c7.5-20.79,41-36.5,63.71-36.5,23.39,0,27.13,16.72,27.61,38.49A6.32,6.32,0,0,1,162.24,448.51Z" class="cls-1"/><path d="M150.58,446.16a12,12,0,0,1-11.9-10.94l-9.49-112.29a12,12,0,0,1,23.82-2l9.49,112.3a11.94,11.94,0,0,1-10.9,12.91C151.26,446.15,150.92,446.16,150.58,446.16Z" class="cls-1"/><path d="M193.89,448.51H273a6.31,6.31,0,0,0,5.93-8.45c-7.5-20.79-41.05-36.5-63.71-36.5-23.39,0-27.13,16.72-27.61,38.49A6.32,6.32,0,0,0,193.89,448.51Z" class="cls-1"/><path d="M205.55,446.16c-.34,0-.68,0-1,0a11.94,11.94,0,0,1-10.9-12.91l9.49-112.3a12,12,0,0,1,23.82,2l-9.49,112.29A12,12,0,0,1,205.55,446.16Z" class="cls-1"/><path d="M171.72,444.45a6.85,6.85,0,0,1-6.84,7H78.94a6.85,6.85,0,0,1-6.44-9.18l.13-.36c3.88-10.34,13.67-19.5,25.51-26.38,13.8-8,30.39-12.92,43.59-12.92,24.51,0,29.15,16.89,29.93,39.3C171.68,442.76,171.71,443.6,171.72,444.45Z" class="cls-2"/><path d="M171.72,444.45a6.85,6.85,0,0,1-6.84,7H78.94a6.85,6.85,0,0,1-6.44-9.18l.13-.36h99C171.68,442.76,171.71,443.6,171.72,444.45Z" class="cls-3"/><path d="M169.22,422.55l-42.61-18.14L125,390.47a3.3,3.3,0,0,1,3.28-3.69H169a3.3,3.3,0,0,1,3.29,3.62Z" class="cls-2"/><path d="M185,444.45a6.85,6.85,0,0,0,6.85,7h85.93a6.85,6.85,0,0,0,6.44-9.18c0-.12-.08-.24-.13-.36-3.87-10.34-13.67-19.5-25.5-26.38-13.81-8-30.4-12.92-43.59-12.92-24.51,0-29.16,16.89-29.93,39.3C185.08,442.76,185.06,443.6,185,444.45Z" class="cls-2"/><path d="M185,444.45a6.85,6.85,0,0,0,6.85,7h85.93a6.85,6.85,0,0,0,6.44-9.18c0-.12-.08-.24-.13-.36h-99C185.08,442.76,185.06,443.6,185,444.45Z" class="cls-3"/><path d="M187.55,422.55l42.6-18.14,1.63-13.94a3.31,3.31,0,0,0-3.29-3.69H187.74a3.3,3.3,0,0,0-3.29,3.62Z" class="cls-2"/><path d="M265.5,360.09a448.81,448.81,0,0,1-172.47,0c8.71-39.8,30.1-83.3,31.55-123.41.1-2.73,11.13-8.09,21.27-8.65,25.76-1.42,38-2.34,63.66,0,12.26,1.12,21.88,11.62,24.45,18.74S248.76,319.29,265.5,360.09Z" class="cls-4"/><circle cx="285.6" cy="251.66" r="17.73" class="cls-1"/><path d="M258.14,234.8c4.18-3.37,9.21-3.4,16.35,5.45S284,259,279.83,262.39s-13.36-1.07-20.5-9.93S254,238.18,258.14,234.8Z" class="cls-1"/><ellipse cx="281.44" cy="236.37" class="cls-1" rx="17.17" ry="9.4" transform="translate(-57.27 379.06) rotate(-62.87)"/><ellipse cx="294.42" cy="244.27" class="cls-1" rx="15.31" ry="8.1" transform="translate(-79.23 326.36) rotate(-52.07)"/><ellipse cx="299.98" cy="257.34" class="cls-1" rx="16.24" ry="9.4" transform="translate(-93.83 223.78) rotate(-35.75)"/><path d="M77.89,320.37a11.8,11.8,0,0,1-4.85-1A12,12,0,0,1,67,303.55c24.18-54.29,66.66-70,68.46-70.67a12,12,0,0,1,8.12,22.48c-1.53.57-34.95,13.46-54.74,57.92A12,12,0,0,1,77.89,320.37Z" class="cls-1"/><circle cx="75.96" cy="321.09" r="17.73" class="cls-1"/><ellipse cx="95.25" cy="323.32" class="cls-1" rx="9.73" ry="20.59" transform="translate(-209.03 178.34) rotate(-48.11)"/><path d="M80.23,348a19.61,19.61,0,0,0-3.74-1.19c-2.62-.58-6.62-2.71-4.12-10.46,3.58-11.07,10.48-18.75,15.41-17.16s6,11.86,2.48,22.93C87.72,350,82.84,349.13,80.23,348Z" class="cls-1"/><path d="M60.46,344.56c-3.93-2.15-8.64-2.21-3-12.53s13.41-16.94,17.34-14.79,2.54,12.26-3.1,22.58S64.39,346.71,60.46,344.56Z" class="cls-1"/><path d="M49.21,330.16c-3.67-3.66-6.79-7.23,1.48-15.51s18-12,21.63-8.34-.06,13.35-8.34,21.63S52.88,333.83,49.21,330.16Z" class="cls-1"/><path d="M33.47,249.56C28.53,197.62,48.07,182,48.07,182S31.2,187.34,0,168.71C49.56,140,44.56,138.2,44.56,138.2s-3.73-6.69-36.11,6.9c11-41.12,40.68-53.21,40.68-53.21S8.49,81.19,37.31,21.35C58.57,65.86,79.37,45.91,79.37,45.91S88.08,40.37,59,7c45.71-6.38,66.23,18.16,66.23,18.16S134.58-1.4,162.73.06c-19.11,32.33,10.45,43.18,10.45,43.18s19.1-21.31,14.52-39.62C227,21.53,211.91,61,211.91,61s11.7-19,49.49-13.82c-30.48,35.28-21.11,64.2-22.09,65,.64-.45-4.77,52.62-4.77,52.62-5.54,26.14-8.54,48.31-55.37,47.78l-37.25,18.53L59.7,264.23l8.83-42S54.78,218.33,33.47,249.56Z" class="cls-1"/><path d="M234.22,102.07l15.86,27.16s20.53-18.55,18-40.14a2,2,0,0,0-3-1.52A221.89,221.89,0,0,1,234.22,102.07Z" class="cls-1"/><circle cx="171.74" cy="152.5" r="84.01" class="cls-1"/><path d="M145.37,200.48a36,36,0,0,0,36,36c47.35-1.92,95.79-20,92.47-42.47.16-7-14.87-6.83-21.69-17.24C241.28,160.16,145.37,180.58,145.37,200.48Z" class="cls-1"/><circle cx="162.51" cy="155.7" r="24.94" class="cls-5"/><circle cx="162.51" cy="155.7" r="11.43" class="cls-6"/><circle cx="162.51" cy="155.7" r="6.45" class="cls-7"/><circle cx="164.9" cy="150.66" r="4.57" class="cls-5"/><circle cx="159.69" cy="161.38" r="1.78" class="cls-5"/><circle cx="226.31" cy="157.08" r="24.94" class="cls-5"/><circle cx="226.31" cy="157.08" r="11.43" class="cls-6"/><circle cx="226.31" cy="157.08" r="6.45" class="cls-7"/><circle cx="228.7" cy="152.04" r="4.57" class="cls-5"/><circle cx="223.49" cy="162.76" r="1.78" class="cls-5"/><path d="M143.35,109s-18.89-17-36-19.75c-1.44-.23-2,1.66-1.53,3,5.84,16.69,10.34,32.54,10.34,32.54" class="cls-8"/><path d="M208.06,125.86s9.14-13.73,27.45-5" class="cls-9"/><path d="M171.85,124.11s-11-12.32-27.88-1.09" class="cls-9"/><path d="M225,210.88a16.15,16.15,0,0,1-1.92,7.67,16.33,16.33,0,0,1-28.26,1,16.14,16.14,0,0,1-2.49-8.65,16.34,16.34,0,1,1,32.67,0Z" class="cls-10"/><path d="M223.07,218.55a16.33,16.33,0,0,1-28.26,1,16.33,16.33,0,0,1,28.26-1Z" class="cls-11"/><path d="M85.42,341.26H63.85c-1.46,0-2.64-1.59-2.64-3.56V286H88.06V337.7C88.06,339.67,86.88,341.26,85.42,341.26Z" class="cls-12"/><path d="M59.87,280.52v-1.64c0-.9.45-1.63,1.42-1.63H88c1,0,1.42.73,1.42,1.63v1.64Z" class="cls-13"/><path d="M61.29,277.25v-9.5a2.09,2.09,0,0,1,1.76-2.3H86.22a2.09,2.09,0,0,1,1.76,2.3v9.5Z" class="cls-13"/><rect width="32.12" height="5.5" x="58.58" y="280.52" class="cls-12"/><path d="M63.23,275.94a.49.49,0,0,1-.44-.54v-8.1a.49.49,0,0,1,.44-.54.5.5,0,0,1,.44.54v8.1A.5.5,0,0,1,63.23,275.94Z" class="cls-14"/><path d="M65.51,275.94a.5.5,0,0,1-.44-.54v-8.1a.45.45,0,1,1,.88,0v8.1A.5.5,0,0,1,65.51,275.94Z" class="cls-14"/><path d="M67.79,275.94a.5.5,0,0,1-.44-.54v-8.1a.45.45,0,1,1,.88,0v8.1A.5.5,0,0,1,67.79,275.94Z" class="cls-14"/><path d="M70.07,275.94a.5.5,0,0,1-.44-.54v-8.1a.45.45,0,1,1,.88,0v8.1A.5.5,0,0,1,70.07,275.94Z" class="cls-14"/><path d="M72.35,275.94a.5.5,0,0,1-.44-.54v-8.1a.5.5,0,0,1,.44-.54.49.49,0,0,1,.44.54v8.1A.49.49,0,0,1,72.35,275.94Z" class="cls-14"/><path d="M74.63,275.94a.5.5,0,0,1-.44-.54v-8.1a.5.5,0,0,1,.44-.54.49.49,0,0,1,.44.54v8.1A.49.49,0,0,1,74.63,275.94Z" class="cls-14"/><path d="M76.92,275.94a.49.49,0,0,1-.44-.54v-8.1a.49.49,0,0,1,.44-.54.5.5,0,0,1,.44.54v8.1A.5.5,0,0,1,76.92,275.94Z" class="cls-14"/><path d="M79.2,275.94a.49.49,0,0,1-.44-.54v-8.1a.49.49,0,0,1,.44-.54.5.5,0,0,1,.44.54v8.1A.5.5,0,0,1,79.2,275.94Z" class="cls-14"/><path d="M81.48,275.94a.5.5,0,0,1-.44-.54v-8.1a.45.45,0,1,1,.88,0v8.1A.5.5,0,0,1,81.48,275.94Z" class="cls-14"/><path d="M83.76,275.94a.5.5,0,0,1-.44-.54v-8.1a.45.45,0,1,1,.88,0v8.1A.5.5,0,0,1,83.76,275.94Z" class="cls-14"/><path d="M86,275.94a.5.5,0,0,1-.44-.54v-8.1a.5.5,0,0,1,.44-.54.49.49,0,0,1,.44.54v8.1A.49.49,0,0,1,86,275.94Z" class="cls-14"/><path d="M57,329.3s4.27-4.88,8.92-4,5.55,3.13,10,1.93,11.07-1.2,13-1.2.44,6.35,0,10-.56,10.71-5.52,9.26-12.13-4.08-12.13-4.08l-10.05.09Z" class="cls-1"/><path d="M303.34,249.91l-.59-6.76a14.68,14.68,0,0,0-4.88,1.12c-3.4,1.2-10.47,1.2-13.43,1.2H272.59c-3,0-8.36-1.86-8.36.7s4,7.74,11.32,7.52,20.74-1.48,20.74-1.48Z" class="cls-1"/><path d="M300.25,248.23s-.13-10.63-3.09-10.63a6.52,6.52,0,0,1-4.78-2.39l8.77-.92Z" class="cls-1"/><path d="M274,248.11a80.29,80.29,0,0,1-3.82-7.34c-.7-2-1-5.84-1.67-6.28s-2.51-1.83-3.44,0c-1.83,3.65-.87,8.66-.87,8.66l10.09,9.67Z" class="cls-1"/><path d="M263.91,196.9c.82,3.65,7.26,5.31,14.4,3.71s9.88-5.85,9.07-9.49-4.89-5.31-12-3.71S263.09,193.26,263.91,196.9Z" class="cls-7"/><ellipse cx="281.85" cy="189.82" class="cls-5" rx="1.5" ry="3.01" transform="translate(69.7 455.27) rotate(-85.33)"/><ellipse cx="283.07" cy="183.86" class="cls-15" rx="8.03" ry="9.78"/><path d="M294.56,183.85c0-7.72-5.14-14-11.49-14s-11.49,6.27-11.49,14c0,7.27,4.56,13.26,10.4,13.93v3.51a4.84,4.84,0,0,0,0,9.42v5.5a3.4,3.4,0,0,0-2.29,3.21,3.36,3.36,0,0,0,2.29,3.19v13.68h2.37V222.61h-.17a3.39,3.39,0,0,0,.17-6.33v-5.62a4.83,4.83,0,0,0,0-9.32v-3.59C290.09,197,294.56,191.05,294.56,183.85Zm-9.11,35.57A2.43,2.43,0,1,1,283,217,2.43,2.43,0,0,1,285.45,219.42Zm1-13.42a3.48,3.48,0,1,1-3.47-3.47A3.47,3.47,0,0,1,286.47,206Zm-3.4-12.36c-4.43,0-8-4.37-8-9.78s3.6-9.77,8-9.77,8,4.38,8,9.77S287.5,193.64,283.07,193.64Z" class="cls-12"/><ellipse cx="283.07" cy="183.86" class="cls-15" rx="8.03" ry="9.78"/><path d="M286.47,206a3.48,3.48,0,1,1-3.47-3.47A3.47,3.47,0,0,1,286.47,206Z" class="cls-15"/><path d="M286.47,206a3.48,3.48,0,1,1-3.47-3.47A3.47,3.47,0,0,1,286.47,206Z" class="cls-15"/><path d="M285.45,219.42A2.43,2.43,0,1,1,283,217,2.43,2.43,0,0,1,285.45,219.42Z" class="cls-15"/><path d="M285.45,219.42A2.43,2.43,0,1,1,283,217,2.43,2.43,0,0,1,285.45,219.42Z" class="cls-15"/><path d="M298.46,235.08v10.75a2.35,2.35,0,0,1-2,2.59H270.26a2.35,2.35,0,0,1-2-2.59V235.08Z" class="cls-13"/><path d="M296.27,236.56a.56.56,0,0,1,.49.61v9.17a.51.51,0,1,1-1,0v-9.17A.56.56,0,0,1,296.27,236.56Z" class="cls-14"/><path d="M293.69,236.56a.56.56,0,0,1,.49.61v9.17a.51.51,0,1,1-1,0v-9.17A.56.56,0,0,1,293.69,236.56Z" class="cls-14"/><path d="M291.1,236.56a.56.56,0,0,1,.5.61v9.17a.51.51,0,1,1-1,0v-9.17A.56.56,0,0,1,291.1,236.56Z" class="cls-14"/><path d="M288.52,236.56a.56.56,0,0,1,.5.61v9.17a.51.51,0,1,1-1,0v-9.17A.56.56,0,0,1,288.52,236.56Z" class="cls-14"/><path d="M285.94,236.56a.56.56,0,0,1,.5.61v9.17a.51.51,0,1,1-1,0v-9.17A.56.56,0,0,1,285.94,236.56Z" class="cls-14"/><path d="M283.36,236.56a.56.56,0,0,1,.5.61v9.17a.56.56,0,0,1-.5.61.57.57,0,0,1-.5-.61v-9.17A.57.57,0,0,1,283.36,236.56Z" class="cls-14"/><path d="M280.78,236.56a.56.56,0,0,1,.5.61v9.17a.56.56,0,0,1-.5.61.57.57,0,0,1-.5-.61v-9.17A.57.57,0,0,1,280.78,236.56Z" class="cls-14"/><path d="M278.2,236.56a.56.56,0,0,1,.5.61v9.17a.56.56,0,0,1-.5.61.57.57,0,0,1-.5-.61v-9.17A.57.57,0,0,1,278.2,236.56Z" class="cls-14"/><path d="M275.62,236.56a.56.56,0,0,1,.5.61v9.17a.51.51,0,1,1-1,0v-9.17A.56.56,0,0,1,275.62,236.56Z" class="cls-14"/><path d="M273,236.56a.57.57,0,0,1,.5.61v9.17a.57.57,0,0,1-.5.61.56.56,0,0,1-.5-.61v-9.17A.56.56,0,0,1,273,236.56Z" class="cls-14"/><path d="M270.46,236.56a.57.57,0,0,1,.5.61v9.17a.57.57,0,0,1-.5.61.56.56,0,0,1-.5-.61v-9.17A.56.56,0,0,1,270.46,236.56Z" class="cls-14"/></g></g></svg>