<svg xmlns="http://www.w3.org/2000/svg" viewBox="0 0 210 210"><defs><style>.cls-1{fill:#e1fffb;opacity:0.55;}.cls-2{fill:#ffe7fe;opacity:0.75;}.cls-3{fill:#fff;}.cls-4{fill:#999998;}.cls-5{fill:#b3b3b2;}.cls-6{fill:#666;}.cls-7{fill:gray;}.cls-8{fill:#ccc;}.cls-9{fill:#e6e6e6;}</style></defs><title>ECHO</title><g id="Laag_2" data-name="Laag 2"><g id="Laag_2-2" data-name="Laag 2"><circle class="cls-1" cx="105" cy="105" r="105"/><ellipse class="cls-2" cx="112.3" cy="104.72" rx="93.19" ry="95.15"/><circle class="cls-3" cx="143.43" cy="74.83" r="17.69"/></g><g id="icoontjes"><path class="cls-4" d="M114.44,137.87,77.38,138a2.21,2.21,0,0,1-2.22-2.21l0-8.79a2.23,2.23,0,0,1,2.21-2.23l37.06-.08a2.23,2.23,0,0,1,2.23,2.22v8.79A2.22,2.22,0,0,1,114.44,137.87Z"/><path class="cls-5" d="M101.59,131.16l-11.38,0a2.36,2.36,0,0,1-2.36-2.35l0-13.21,16.08,0,0,6.18v7A2.35,2.35,0,0,1,101.59,131.16Z"/><path class="cls-6" d="M130.21,118.64l-68.68.15A3.77,3.77,0,0,1,57.74,115l-.11-46.64a3.79,3.79,0,0,1,3.78-3.79H67l63.09-.14a3.77,3.77,0,0,1,3.79,3.77l.11,46.64A3.79,3.79,0,0,1,130.21,118.64Z"/><path d="M122.9,112.43l-54.09.12A3.77,3.77,0,0,1,65,108.78l-.08-35A3.79,3.79,0,0,1,68.72,70l19,0,35.09-.08a3.77,3.77,0,0,1,3.79,3.78l.08,35A3.79,3.79,0,0,1,122.9,112.43Z"/><path class="cls-7" d="M150.63,151.77l-53.94.12a1.16,1.16,0,0,1-1.16-1.16l0-10.18a1.16,1.16,0,0,1,2.32,0l0,9,51.62-.11-.09-40.35a1.16,1.16,0,0,1,2.32,0l.09,41.5A1.16,1.16,0,0,1,150.63,151.77Z"/><path class="cls-8" d="M160.56,82.27c-1.9,1.11-5.7,1.87-10.08,1.88s-8.18-.74-10.08-1.84A8.14,8.14,0,0,0,139,86.85h0A8.28,8.28,0,0,0,141.85,93,6.65,6.65,0,0,1,144.09,98v2.68a3.93,3.93,0,0,0,3.94,3.93h5a3.92,3.92,0,0,0,3.92-3.94V97.93A6.64,6.64,0,0,1,159.16,93,8.27,8.27,0,0,0,162,86.8h0A8.1,8.1,0,0,0,160.56,82.27Z"/><path class="cls-9" d="M160.56,82.27a9.35,9.35,0,0,0-7.82-4H148.2a9.35,9.35,0,0,0-7.8,4.08c1.9,1.1,5.71,1.85,10.08,1.84S158.66,83.38,160.56,82.27Z"/><path class="cls-3" d="M119.21,103.46a75.63,75.63,0,0,1-46.74.11q4.43-13.75,8.86-27.49A46.83,46.83,0,0,0,110.22,76Q114.72,89.73,119.21,103.46Z"/></g></g></svg>