<svg id="Laag_1" data-name="Laag 1" xmlns="http://www.w3.org/2000/svg" viewBox="0 0 1471.8 1471.8"><defs><style>.cls-1{fill:#e1fffb;}.cls-1,.cls-2{opacity:0.55;}.cls-2,.cls-3{fill:#fff;}.cls-4{fill:#e9d0ba;}.cls-5{fill:#56649a;}.cls-6{fill:#999;}.cls-7{fill:#333;}</style></defs><title>EEG</title><circle class="cls-1" cx="735.9" cy="735.9" r="735.9"/><ellipse class="cls-2" cx="787.09" cy="733.93" rx="653.14" ry="666.85"/><ellipse class="cls-2" cx="723.96" cy="698.41" rx="548.79" ry="560.31"/><circle class="cls-3" cx="1005.21" cy="524.49" r="123.97"/><circle class="cls-4" cx="735.9" cy="692.63" r="329.34"/><path class="cls-4" d="M1058.72,720.89s1.52,3.88,4.25,10.36c5.89,48.7,63.41,101.32,75.09,125.51s-38,48.91-50,59.78c3,12.5,18.21,7.06,20.11,25s-20.38,32.33-20.38,32.33,13,6,14.4,19-33.15,26.9-33.69,75.27-4.89,69-39.13,67.39-120.1-2.17-125,23.37,1.63,61.47,1.63,61.47H546.78s69.9-153.7-31.08-282.82S1058.72,720.89,1058.72,720.89Z"/><path d="M779.93,717.94l214.63,424.54a31.93,31.93,0,0,1-55.1,32l-.89-1.35-261.91-395-.09-.13a59.89,59.89,0,1,1,99.83-66.2A67.78,67.78,0,0,1,779.93,717.94Z"/><path class="cls-5" d="M1090.45,558.13c43.39,206-702.72,363.16-746.1,157.13S432.81,307,638.84,263.64,1047.09,352.1,1090.45,558.13Z"/><circle class="cls-6" cx="648.38" cy="308.98" r="80.56"/><circle class="cls-7" cx="648.38" cy="308.98" r="49.87"/><circle class="cls-3" cx="648.38" cy="308.98" r="22.19"/><circle class="cls-6" cx="438.34" cy="412.86" r="80.56"/><circle class="cls-7" cx="438.34" cy="412.86" r="49.87"/><circle class="cls-3" cx="438.34" cy="412.86" r="22.19"/><circle class="cls-6" cx="358.93" cy="621.34" r="80.56"/><circle class="cls-7" cx="358.93" cy="621.34" r="49.87"/><circle class="cls-3" cx="358.93" cy="621.34" r="22.19"/><circle class="cls-6" cx="1047.13" cy="499.09" r="80.56"/><circle class="cls-7" cx="1047.13" cy="499.09" r="49.87"/><circle class="cls-3" cx="1047.13" cy="499.09" r="22.19"/><circle class="cls-6" cx="882.2" cy="326.18" r="80.56"/><circle class="cls-7" cx="882.2" cy="326.18" r="49.87"/><circle class="cls-3" cx="882.2" cy="326.18" r="22.19"/><circle class="cls-6" cx="690.93" cy="511.03" r="80.56"/><circle class="cls-7" cx="690.93" cy="511.03" r="49.87" transform="translate(75.82 1111.18) rotate(-80.78)"/><circle class="cls-3" cx="690.93" cy="511.03" r="22.19"/><circle class="cls-6" cx="869.18" cy="655.27" r="80.56"/><circle class="cls-7" cx="869.18" cy="655.27" r="49.87"/><circle class="cls-3" cx="869.18" cy="655.27" r="22.19"/><circle class="cls-6" cx="591.65" cy="713.71" r="80.56"/><circle class="cls-7" cx="591.65" cy="713.71" r="49.87"/><circle class="cls-3" cx="591.65" cy="713.71" r="22.19"/></svg>