<svg xmlns="http://www.w3.org/2000/svg" viewBox="0 0 141.01 141.01"><defs><style>.cls-1,.cls-2{fill:#e1fffb;opacity:.55}.cls-2{fill:#fff}.cls-3{fill:#999998}.cls-4{fill:#b3b3b2}.cls-5{fill:#53798b}.cls-6{fill:#00ea60}</style></defs><title>EKG</title><g id="Laag_2" data-name="Laag 2"><g id="Laag_2-2" data-name="Laag 2"><circle cx="70.5" cy="70.5" r="70.5" class="cls-1"/><ellipse cx="65.6" cy="70.66" class="cls-2" rx="63.89" ry="62.57" transform="translate(-5.47 135.81) rotate(-89.64)"/></g><g id="icoontjes"><path d="M81.85,104.47H49.11a2,2,0,0,1-2-2V94.74a2,2,0,0,1,2-2H81.85a2,2,0,0,1,2,2v7.77A2,2,0,0,1,81.85,104.47Z" class="cls-3"/><path d="M70.51,98.51H60.45a2.08,2.08,0,0,1-2.07-2.08V84.76h14.2V96.43A2.08,2.08,0,0,1,70.51,98.51Z" class="cls-4"/><path d="M95.82,87.51H35.14a3.35,3.35,0,0,1-3.35-3.35V43a3.35,3.35,0,0,1,3.35-3.35H95.82A3.35,3.35,0,0,1,99.17,43v41.2A3.35,3.35,0,0,1,95.82,87.51Z" class="cls-5"/><path d="M89.37,82H41.58a3.35,3.35,0,0,1-3.34-3.35V47.77a3.34,3.34,0,0,1,3.34-3.34H89.37a3.34,3.34,0,0,1,3.35,3.34V78.66A3.35,3.35,0,0,1,89.37,82Z"/><polygon points="66.6 75.88 55.12 57.51 50.04 64.82 38.21 64.82 38.21 62.53 48.84 62.53 55.22 53.34 66.65 71.64 72.65 62.53 92.75 62.53 92.75 64.82 73.89 64.82 66.6 75.88" class="cls-6"/><path d="M76.55,50.28c0,3.35,5.87,8.16,5.87,8.16s5.87-4.81,5.87-8.16c0-3-4.82-4-5.73-1.65a.15.15,0,0,1-.28,0C81.38,46.23,76.55,47.25,76.55,50.28Z" class="cls-6"/></g></g></svg>