<svg xmlns="http://www.w3.org/2000/svg" viewBox="0 0 155.19 155.19"><defs><style>.cls-1{fill:#ffe7fe;opacity:.55}.cls-2{fill:#ffe8e7;opacity:.75}.cls-3{fill:#fff}.cls-4{fill:#878787}.cls-5{fill:#999}.cls-6{fill:#edf5e7}.cls-7{fill:#d9effd}.cls-8{fill:#c4e7c6}.cls-9{fill:#d1d1d1}</style></defs><title>INFUUS</title><g id="Laag_2" data-name="Laag 2"><g id="Laag_2-2" data-name="Laag 2"><circle cx="77.59" cy="77.59" r="77.59" class="cls-1"/><ellipse cx="81.72" cy="74.11" class="cls-2" rx="68.86" ry="70.31" transform="translate(-28.29 65.87) rotate(-37.92)"/><circle cx="86.3" cy="42.56" r="13.07" class="cls-3"/></g><g id="icoontjes"><path d="M102.57,115.13a1.79,1.79,0,0,1-1.78-1.79V37.58H84.24c-1.78.83-9.37,4.15-16,4.15A28,28,0,0,1,54,37.27,1.79,1.79,0,0,1,55,34a1.82,1.82,0,0,1,1,.31c.05,0,5.76,3.84,12.21,3.84,6.62,0,14.79-3.93,14.87-4a1.78,1.78,0,0,1,.78-.18h18.73a1.79,1.79,0,0,1,1.79,1.79v77.54A1.79,1.79,0,0,1,102.57,115.13Z" class="cls-4"/><rect width="1.61" height="25.05" x="69.62" y="88.54" class="cls-5"/><rect width=".8" height="25.05" x="70.02" y="88.54" class="cls-6"/><path d="M70.42,67.31c2.32-.61,6.35-3.6,10.59-3.6a18.27,18.27,0,0,1,2.34.15v-15c0-3.27-5.79-5.91-12.93-5.91h0C63.29,43,57.5,45.6,57.5,48.87V67.64a14.94,14.94,0,0,1,3.7-.45C64.22,67.19,68.11,67.91,70.42,67.31Z" class="cls-7"/><path d="M70.42,46h0a1.6,1.6,0,0,0,1.76-1.34V37.81a1.59,1.59,0,0,0-1.76-1.35h0a1.59,1.59,0,0,0-1.75,1.35v6.84A1.59,1.59,0,0,0,70.42,46Z" class="cls-7"/><path d="M81,63.62c-4.24,0-8.27,3-10.59,3.6s-6.2-.12-9.22-.12a14.93,14.93,0,0,0-3.7.46V78.83c0,2.3,2.88,4.3,7.08,5.27,1.52.36,2.54,1.33,2.54,2.42v3.11c0,.58,6.61.58,6.61,0V86.52c0-1.09,1-2.06,2.54-2.42,4.2-1,7.08-3,7.08-5.27V63.77A18.27,18.27,0,0,0,81,63.62Z" class="cls-8"/><path d="M74.39,87.26H66.46a.78.78,0,0,1-.8-.76h0a.78.78,0,0,1,.8-.76h7.93a.78.78,0,0,1,.8.76h0A.78.78,0,0,1,74.39,87.26Z" class="cls-5"/><path d="M73.8,97.28v10.41c0,1.13-1.51,2-3.38,2s-3.37-.91-3.37-2V97.28c0-1.13,1.51-2,3.37-2S73.8,96.15,73.8,97.28Z" class="cls-7"/><path d="M73.8,104.38v3.29c0,1.14-1.51,2-3.38,2s-3.37-.91-3.37-2v-3.29Z" class="cls-8"/><path d="M72.19,95.81H68.66c-.2,0-.36-.26-.36-.58h0c0-.32.16-.58.36-.58h3.53c.2,0,.36.26.36.58h0C72.55,95.55,72.39,95.81,72.19,95.81Z" class="cls-5"/><path d="M70.42,61.89h0c5.1,0,9.23-.8,9.23-1.79V51c0-1-4.13-1.79-9.23-1.79h0c-5.09,0-9.22.8-9.22,1.79V60.1C61.2,61.09,65.33,61.89,70.42,61.89Z" class="cls-3"/><path d="M77.68,53.7H63.17a.65.65,0,0,1,0-1.3H77.68a.65.65,0,0,1,0,1.3Z" class="cls-9"/><path d="M77.68,56.81H63.17a.65.65,0,0,1,0-1.3H77.68a.65.65,0,0,1,0,1.3Z" class="cls-9"/><path d="M68.91,59.61H63.17a.65.65,0,1,1,0-1.3h5.74a.65.65,0,0,1,0,1.3Z" class="cls-9"/></g></g></svg>