<svg xmlns="http://www.w3.org/2000/svg" viewBox="0 0 164.85 164.85"><defs><style>.cls-1{fill:#e1fffb;opacity:0.55;}.cls-2{fill:#e7ffe8;opacity:0.75;}.cls-3{fill:#fff;}.cls-11,.cls-4{opacity:0.8;}.cls-5{fill:#8beefc;}.cls-6{fill:#4f649d;}.cls-7{fill:#1a284e;}.cls-8{fill:#61b77f;}.cls-9{opacity:0.65;}.cls-10{fill:#d4f7fd;}.cls-11{fill:#3ca4b0;}.cls-12{fill:#ccc;}.cls-13{fill:#a0a0a0;}.cls-14{fill:#999;}.cls-15{fill:#4c4c4c;}.cls-16{fill:#b3b3b3;}</style></defs><title>KALINOX</title><g id="Laag_2" data-name="Laag 2"><g id="Laag_2-2" data-name="Laag 2"><circle class="cls-1" cx="82.43" cy="82.43" r="82.4"/><ellipse class="cls-2" cx="80.62" cy="76.98" rx="74.67" ry="73.14" transform="translate(-18.21 25.42) rotate(-16.13)"/><circle class="cls-3" cx="51.31" cy="60.03" r="13.88"/></g><g id="icoontjes"><g class="cls-4"><path class="cls-5" d="M81.21,39.32a5,5,0,0,0-5,5V81.6H86.24V44.35A5,5,0,0,0,81.21,39.32Z"/></g><path class="cls-6" d="M81.44,54.28v7.79h1.35V54.28Z"/><path class="cls-6" d="M74.85,55.68v6.39h1.2V54.42Z"/><path class="cls-6" d="M83.12,54.28v7.79h1.36V54.28Z"/><path class="cls-6" d="M79.75,54.28v7.79H81.1V54.28Z"/><path class="cls-6" d="M78.07,54.28v7.79h1.35V54.28Z"/><path class="cls-6" d="M76.38,54.28v7.79h1.35V54.28Z"/><path class="cls-6" d="M87.58,55.68l-1.09-1.14v7.53h1.09Z"/><path class="cls-6" d="M84.81,54.28v7.79h1.35V54.28Z"/><path class="cls-7" d="M76.18,54.28l-.13.14v7.65h.33V54.28Z"/><path class="cls-7" d="M77.73,54.28v7.79h.34V54.28Z"/><path class="cls-7" d="M79.42,54.28v7.79h.33V54.28Z"/><path class="cls-7" d="M81.1,54.28v7.79h.34V54.28Z"/><path class="cls-7" d="M82.79,54.28v7.79h.33V54.28Z"/><path class="cls-7" d="M84.48,54.28v7.79h.33V54.28Z"/><path class="cls-7" d="M86.25,54.28h-.09v7.79h.33V54.54Z"/><path class="cls-8" d="M98.06,35.87,87,15.18a7.52,7.52,0,0,0-11.53,0L64.36,35.87a10,10,0,0,0,0,12.82s7,10.61,16.85,10.61S98.06,48.69,98.06,48.69A10,10,0,0,0,98.06,35.87Zm-4.22,10.9s-5.25,8.32-12.63,8.32-12.62-8.32-12.62-8.32a8.14,8.14,0,0,1,0-10.06L76.9,20.47a5.46,5.46,0,0,1,8.63,0l8.31,16.24A8.14,8.14,0,0,1,93.84,46.77Z"/><g class="cls-9"><path class="cls-10" d="M95.39,36.48,86.06,18.54a6.2,6.2,0,0,0-9.7,0L67,36.48A8.87,8.87,0,0,0,67,47.6s5.9,9.2,14.17,9.2,14.18-9.2,14.18-9.2A8.87,8.87,0,0,0,95.39,36.48Z"/></g><circle class="cls-11" cx="81.23" cy="44.42" r="4.58"/><path class="cls-12" d="M72.48,142.73A4.7,4.7,0,0,1,67.79,138V97.53A12.19,12.19,0,0,1,80,85.36h2.49A12.18,12.18,0,0,1,94.63,97.53V138A4.69,4.69,0,0,1,90,142.73Z"/><path class="cls-13" d="M82.46,86A11.52,11.52,0,0,1,94,97.53V138a4,4,0,0,1-4,4H72.48a4,4,0,0,1-4-4V97.53A11.52,11.52,0,0,1,80,86h2.49m0-1.3H80A12.84,12.84,0,0,0,67.14,97.53V138a5.35,5.35,0,0,0,5.34,5.34H90A5.35,5.35,0,0,0,95.29,138V97.53A12.84,12.84,0,0,0,82.46,84.71Z"/><path class="cls-12" d="M91.31,73.33c0-4-1.8-7.17-6.84-7.17H78c-5,0-6.83,3.21-6.83,7.17l-1,10.49H92.32Z"/><path class="cls-6" d="M73.17,87.63H89.26c1.76,0,3.19-1.12,3.19-2.51l-.13-1.3H70.11L70,85.12C70,86.51,71.41,87.63,73.17,87.63Z"/><path class="cls-14" d="M81.21,85.57h0a4.42,4.42,0,0,1-4.41-4.41V73.85a4.41,4.41,0,0,1,4.41-4.41h0a4.4,4.4,0,0,1,4.41,4.41v7.31A4.41,4.41,0,0,1,81.21,85.57Z"/><path class="cls-6" d="M81.21,83.74h0a3.17,3.17,0,0,1-2.86-3.41V74.68a3.17,3.17,0,0,1,2.86-3.41h0a3.17,3.17,0,0,1,2.87,3.41v5.65A3.17,3.17,0,0,1,81.21,83.74Z"/><circle class="cls-15" cx="81.21" cy="74.33" r="2.22"/><circle class="cls-3" cx="81.21" cy="74.33" r="1.38"/><circle class="cls-16" cx="81.21" cy="74.33" r="0.7"/><circle class="cls-15" cx="81.21" cy="80.41" r="1.48"/><circle class="cls-3" cx="81.21" cy="80.41" r="0.92"/><circle class="cls-16" cx="81.21" cy="80.41" r="0.47"/><path class="cls-3" d="M90.06,125a57,57,0,0,0-17.69,0l-.66.11V96.79l.48-.08a57.71,57.71,0,0,1,18,0l.48.08V125.1Z"/><path class="cls-6" d="M81.21,96.57a57,57,0,0,1,8.94.7v27.16a57.37,57.37,0,0,0-17.87,0V97.27a57,57,0,0,1,8.93-.7m0-1.14a57.88,57.88,0,0,0-9.11.72l-1,.15v29.46l1.32-.21a55.89,55.89,0,0,1,17.51,0l1.32.21V96.3l-1-.15a58,58,0,0,0-9.12-.72Z"/><path class="cls-6" d="M82.12,107.14h.09l.08,0a.13.13,0,0,1,.06.07.52.52,0,0,1,0,.14.51.51,0,0,1,0,.13l0,.07a.09.09,0,0,1-.06,0H80.91a.28.28,0,0,1-.12,0,.22.22,0,0,1-.1-.09.29.29,0,0,1,0-.14.21.21,0,0,1,0-.12l.9-1.23h-.77l-.08,0a.12.12,0,0,1-.06-.08.46.46,0,0,1,0-.14.34.34,0,0,1,0-.15.11.11,0,0,1,.06-.07l.07,0h1.26a.28.28,0,0,1,.13,0,.2.2,0,0,1,.09.09.23.23,0,0,1,0,.14.16.16,0,0,1,0,.12l-.89,1.24Z"/><path class="cls-6" d="M84.85,104.84H85l.1,0a.16.16,0,0,1,.08.1.47.47,0,0,1,0,.18.42.42,0,0,1,0,.17.23.23,0,0,1,0,.1l-.08,0a.18.18,0,0,1-.09,0H83.22a.37.37,0,0,1-.17,0,.3.3,0,0,1-.12-.13.35.35,0,0,1-.05-.18.25.25,0,0,1,.05-.16l1.2-1.67h-1l-.11,0a.14.14,0,0,1-.08-.1.5.5,0,0,1,0-.19.47.47,0,0,1,0-.19.15.15,0,0,1,.08-.11l.1,0h1.7a.35.35,0,0,1,.17,0,.49.49,0,0,1,.12.13.35.35,0,0,1,0,.18.29.29,0,0,1,0,.17l-1.2,1.66Z"/><path class="cls-6" d="M88.31,101.23h.21l.17.06a.3.3,0,0,1,.13.16,1.23,1.23,0,0,1,0,.31,1,1,0,0,1,0,.27.79.79,0,0,1-.08.16.25.25,0,0,1-.13.09l-.14,0h-2.8a.48.48,0,0,1-.28-.08.43.43,0,0,1-.2-.2.55.55,0,0,1-.08-.29.46.46,0,0,1,.08-.27l2-2.7H85.48a.32.32,0,0,1-.17-.06.26.26,0,0,1-.15-.16,1.21,1.21,0,0,1,0-.3,1.34,1.34,0,0,1,0-.33.33.33,0,0,1,.13-.17l.17-.06h2.76a.54.54,0,0,1,.27.07.48.48,0,0,1,.2.2.58.58,0,0,1,.08.3.46.46,0,0,1-.08.27l-2,2.7Z"/><path class="cls-6" d="M79.84,119.28c-.43,0-.78-.23-.78-.51s.35-.51.78-.51.77.23.77.51S80.26,119.28,79.84,119.28Z"/><path class="cls-6" d="M79.84,122.37a6.76,6.76,0,1,1,6.75-6.75A6.76,6.76,0,0,1,79.84,122.37Zm0-12.8a6,6,0,1,0,6,6.05A6.05,6.05,0,0,0,79.84,109.57Z"/><path class="cls-6" d="M75.82,113.52a.25.25,0,0,1,.25.25,1.33,1.33,0,1,0,2.66,0,.25.25,0,0,1,.5,0,1.83,1.83,0,1,1-3.66,0A.25.25,0,0,1,75.82,113.52Z"/><path class="cls-6" d="M80.69,113.52a.25.25,0,0,1,.25.25,1.33,1.33,0,0,0,2.66,0,.25.25,0,0,1,.5,0,1.83,1.83,0,0,1-3.66,0A.25.25,0,0,1,80.69,113.52Z"/></g></g></svg>