<svg xmlns="http://www.w3.org/2000/svg" viewBox="0 0 159.78 159.78"><defs><style>.cls-1{fill:#e1fffb;opacity:0.55;}.cls-2{fill:#e7feff;opacity:0.75;}.cls-3{fill:#fff;}.cls-4{fill:#4c4c4c;}.cls-5{fill:#e0ddc8;}.cls-6{fill:#999;}.cls-7{fill:#131313;}.cls-8{fill:#e6e6e6;}.cls-9{fill:#4f649d;}.cls-10{fill:#b7d3e2;}.cls-11{fill:#e2f3fd;}.cls-12{fill:#839dab;}</style></defs><title>lactosetest</title><g id="Laag_2" data-name="Laag 2"><g id="Laag_2-2" data-name="Laag 2"><circle class="cls-1" cx="79.89" cy="79.89" r="79.89"/><ellipse class="cls-2" cx="76.13" cy="75.8" rx="72.39" ry="70.9" transform="translate(-30.97 67.39) rotate(-40.39)"/><circle class="cls-3" cx="43.47" cy="72.49" r="13.46"/></g><g id="icoontjes"><path class="cls-4" d="M96.78,36.09H64.26c-16.56,0-17.05,10.49-17.05,16.2l3.61,48a17.11,17.11,0,0,0,1.82,5.77c2.29,4.64,12,17.62,34.05,12.35A24.7,24.7,0,0,0,104.56,105a10.23,10.23,0,0,0,1-4.55l1.51-54A10.34,10.34,0,0,0,96.78,36.09Z"/><path class="cls-5" d="M96.78,36.09H64.26A10.33,10.33,0,0,0,53.93,46.43l1.5,54a10.23,10.23,0,0,0,1,4.55c2.3,4.64,8.81,14,24,14s21.75-9.34,24-14a10.23,10.23,0,0,0,1-4.55l1.51-54A10.34,10.34,0,0,0,96.78,36.09Z"/><path class="cls-6" d="M96.13,77.64a50,50,0,0,0-31.22,0,3.32,3.32,0,0,1-4.33-3.1c0-9.27-1.5-18.54-1.5-27.81a3.21,3.21,0,0,1,3.25-3.17H98.71A3.22,3.22,0,0,1,102,46.73l-1.51,27.81A3.32,3.32,0,0,1,96.13,77.64Z"/><circle class="cls-7" cx="80.52" cy="100.69" r="7.08"/><path class="cls-7" d="M94.41,71.93H66.64a2.77,2.77,0,0,1-2.77-2.76l-1.5-18.49a2.77,2.77,0,0,1,2.76-2.77H95.91a2.77,2.77,0,0,1,2.77,2.77L97.17,69.17A2.76,2.76,0,0,1,94.41,71.93Z"/><polygon class="cls-8" points="67.9 70.47 71.84 70.47 79.55 48.61 75.61 48.61 67.9 70.47"/><polygon class="cls-8" points="74.91 70.47 76.6 70.47 84.31 48.61 82.62 48.61 74.91 70.47"/><polygon class="cls-8" points="85.48 70.47 86.99 70.47 93.91 48.61 92.39 48.61 85.48 70.47"/><path class="cls-3" d="M80.52,87.81a20.49,20.49,0,0,1-9.22-2c-2.58-1.34-4-3.15-4-5.11,0-1.16,1.44-2,4.39-2.56a50.22,50.22,0,0,1,8.83-.69,50.22,50.22,0,0,1,8.83.69c3,.56,4.39,1.4,4.39,2.56,0,2-1.42,3.77-4,5.11A20.46,20.46,0,0,1,80.52,87.81Z"/><path class="cls-9" d="M80.52,78c6.35,0,12.7.9,12.7,2.72,0,3.62-5.69,6.56-12.7,6.56s-12.69-2.94-12.69-6.56c0-1.82,6.34-2.72,12.69-2.72m0-1.06a50.18,50.18,0,0,0-8.92.7c-2.07.4-4.83,1.15-4.83,3.08,0,2.16,1.53,4.15,4.29,5.58A23,23,0,0,0,90,86.3c2.77-1.43,4.29-3.42,4.29-5.58,0-1.93-2.75-2.68-4.82-3.08a50.38,50.38,0,0,0-8.93-.7Z"/><path class="cls-9" d="M80.52,86.5A.52.52,0,0,1,80,86V79.29a.52.52,0,0,1,.52-.53.53.53,0,0,1,.53.53V86A.53.53,0,0,1,80.52,86.5Z"/><path class="cls-7" d="M86,84.27a.23.23,0,0,1-.24-.23v-3a.24.24,0,0,1,.48,0v3A.23.23,0,0,1,86,84.27Z"/><path class="cls-7" d="M86,85.11a2.57,2.57,0,1,1,2.57-2.57A2.58,2.58,0,0,1,86,85.11Zm0-4.68a2.12,2.12,0,1,0,2.12,2.11A2.11,2.11,0,0,0,86,80.43Z"/><path class="cls-7" d="M74.34,85a2.57,2.57,0,1,1,2.57-2.57A2.58,2.58,0,0,1,74.34,85Zm0-4.68a2.12,2.12,0,1,0,2.12,2.11A2.11,2.11,0,0,0,74.34,80.34Z"/><path class="cls-7" d="M74.34,84.34l-1.72-3h3.44Zm-.94-2.53.94,1.63.94-1.63Z"/><path class="cls-10" d="M108.9,78.14l-32.62,16v0a7.66,7.66,0,0,0,7.36,13.41l.35-.18,30.29-18.76Z"/><circle class="cls-11" cx="111.46" cy="83.55" r="5.92"/><circle class="cls-12" cx="111.46" cy="83.55" r="4.56"/></g></g></svg>