<svg xmlns="http://www.w3.org/2000/svg" viewBox="0 0 160.5 160.5"><defs><style>.cls-1{fill:#e1fffb;}.cls-1,.cls-2{opacity:0.55;}.cls-2{fill:#e7ffe8;}.cls-3{fill:#d9effd;}.cls-4{fill:#4f649d;}.cls-5{fill:#fff;}.cls-6{fill:#e8f5fe;}.cls-7{fill:#a0c5d9;}.cls-8{fill:#292d95;}</style></defs><title>MRI</title><g id="Laag_2" data-name="Laag 2"><g id="Laag_2-2" data-name="Laag 2"><circle class="cls-1" cx="80.25" cy="80.25" r="80.25"/><ellipse class="cls-2" cx="85.83" cy="80.03" rx="71.22" ry="72.72"/></g><g id="icoontjes"><circle class="cls-3" cx="80.79" cy="77.68" r="42.71"/><circle class="cls-4" cx="80.79" cy="77.68" r="28.34"/><path class="cls-5" d="M80.79,91.2A13.53,13.53,0,1,1,94.31,77.68,13.54,13.54,0,0,1,80.79,91.2Zm0-26.28A12.76,12.76,0,1,0,93.54,77.68,12.77,12.77,0,0,0,80.79,64.92Z"/><path class="cls-5" d="M80.79,96.14A18.47,18.47,0,1,1,99.26,77.68,18.49,18.49,0,0,1,80.79,96.14Zm0-35.65A17.19,17.19,0,1,0,98,77.68,17.21,17.21,0,0,0,80.79,60.49Z"/><path class="cls-5" d="M80.79,102.11a24.44,24.44,0,1,1,24.44-24.43A24.47,24.47,0,0,1,80.79,102.11Zm0-47.08a22.65,22.65,0,1,0,22.64,22.65A22.67,22.67,0,0,0,80.79,55Z"/><circle class="cls-6" cx="80.79" cy="77.68" r="9.38"/><polygon class="cls-7" points="111.92 103.14 49.67 103.14 71.41 77.68 90.17 77.68 111.92 103.14"/><rect class="cls-8" x="58.98" y="111.23" width="43.63" height="11.28"/><rect class="cls-4" x="49.67" y="103.14" width="62.25" height="9.53"/><rect class="cls-5" x="73.91" y="37.58" width="13.77" height="9.84" rx="4"/></g></g></svg>