<svg xmlns="http://www.w3.org/2000/svg" viewBox="0 0 130.52 130.52"><defs><style>.cls-1{fill:#e1fffb;opacity:.55}.cls-2{fill:#ffe7fe;opacity:.75}.cls-3{fill:#fff}.cls-4{fill:#89b0b6}.cls-5{fill:#2b7b85}</style></defs><title>NPA</title><g id="Laag_2" data-name="Laag 2"><g id="Laag_2-2" data-name="Laag 2"><circle cx="65.26" cy="65.26" r="65.25" class="cls-1"/><ellipse cx="69.23" cy="67.47" class="cls-2" rx="59.13" ry="57.91" transform="translate(-24.37 91.63) rotate(-58.73)"/><circle cx="95.4" cy="61.63" r="10.99" class="cls-3"/></g><g id="icoontjes"><path d="M93.51,38.89c-.89.42-1.78.84-2.66,1.28A119,119,0,0,0,78.79,47c-1.73,1.13-3.43,2.32-5.1,3.55A107.23,107.23,0,0,0,58.54,64.08q-2,2.2-3.83,4.52a95.19,95.19,0,0,0-9.64,14.62s0,0,0,0c-.6,1.17-1.17,2.35-1.71,3.55A47.47,47.47,0,0,0,40.59,94c-.66,2.45-7.88,1.38-8.35.4a4.81,4.81,0,0,1-.16-3.52s0,0,0-.07a45.25,45.25,0,0,1,1.68-4.7,89.43,89.43,0,0,1,5.75-11.45,96.79,96.79,0,0,1,9.92-13.88A110.83,110.83,0,0,1,65.93,45,123.47,123.47,0,0,1,85.51,32.7c1.35-.69,2.72-1.35,4.09-2a4.53,4.53,0,1,1,3.91,8.18Z" class="cls-4"/><path d="M93.51,38.89c-.89.42-1.78.84-2.66,1.28-.81-1-1.65-2.18-2.54-3.39a42.41,42.41,0,0,1-2.8-4.08c1.35-.69,2.72-1.35,4.09-2a4.53,4.53,0,1,1,3.91,8.18Z" class="cls-5"/><path d="M86.46,28.64c2-1.43,7.63-.63,10.22,2.92s1.13,8.52-.83,10S91.67,39.59,89.07,36,84.5,30.06,86.46,28.64Z" class="cls-4"/><path d="M90.57,31.11c.91-.66,3.54-.29,4.74,1.36a3.65,3.65,0,0,1-.38,4.62c-.91.66-2-.89-3.15-2.54S89.66,31.78,90.57,31.11Z" class="cls-5"/></g></g></svg>