<svg xmlns="http://www.w3.org/2000/svg" viewBox="0 0 160.5 160.5"><defs><style>.cls-1{fill:#e1fffb;opacity:.55}.cls-2{fill:#e7feff;opacity:.75}.cls-3{fill:#fff}.cls-4{fill:none;stroke:#4f649d;stroke-miterlimit:10;stroke-width:3px}.cls-5{fill:#4f649d}.cls-6{fill:#ccc}.cls-7{fill:#828282}.cls-8{fill:#d9effd}</style></defs><title>RUGGENPRIK</title><g id="Laag_2" data-name="Laag 2"><g id="Laag_2-2" data-name="Laag 2"><circle cx="80.25" cy="80.25" r="80.25" class="cls-1"/><ellipse cx="85.83" cy="80.03" class="cls-2" rx="71.22" ry="72.72"/><circle cx="109.62" cy="57.2" r="13.52" class="cls-3"/></g><g id="icoontjes"><path d="M73.4,109.35a3.86,3.86,0,0,0-1.56.33v-2c0-2.61-1.71-4.39-3.83-4.1a85,85,0,0,1-21.5,0c-2.12-.29-3.83,1.49-3.83,4.1v1.88a3.81,3.81,0,0,0-1.35-.25,4,4,0,0,0,0,8,3.81,3.81,0,0,0,1.35-.25v2.63a3.89,3.89,0,0,0,3.83,4.09,99.06,99.06,0,0,0,21.5,0c2.12.3,3.83-1.48,3.83-4.09V117a3.86,3.86,0,0,0,1.56.33,4,4,0,0,0,0-8Z" class="cls-4"/><path d="M73.4,83.09a3.86,3.86,0,0,0-1.56.33v-2c0-2.61-1.71-4.37-3.83-4.09a81.45,81.45,0,0,1-21.5,0c-2.12-.28-3.83,1.48-3.83,4.09v1.88a3.8,3.8,0,0,0-1.35-.24,4,4,0,0,0,0,8,3.81,3.81,0,0,0,1.35-.25v2.62a3.9,3.9,0,0,0,3.83,4.1,99.06,99.06,0,0,0,21.5,0c2.12.29,3.83-1.49,3.83-4.1V90.77a3.71,3.71,0,0,0,1.56.34,4,4,0,0,0,0-8Z" class="cls-4"/><path d="M73.4,56.82a3.71,3.71,0,0,0-1.56.34v-2c0-2.61-1.71-4.39-3.83-4.09a85.94,85.94,0,0,1-21.5,0c-2.12-.3-3.83,1.48-3.83,4.09v1.88a3.81,3.81,0,0,0-1.35-.25,4,4,0,0,0,0,8,4,4,0,0,0,1.35-.24v2.62a3.89,3.89,0,0,0,3.83,4.09,99.06,99.06,0,0,0,21.5,0c2.12.3,3.83-1.48,3.83-4.09V64.51a3.86,3.86,0,0,0,1.56.33,4,4,0,0,0,0-8Z" class="cls-4"/><path d="M48.56,69.85a.82.82,0,0,1-.81-.82V56.33l-1.88-1.68a.82.82,0,0,1-.06-1.15A.8.8,0,0,1,47,53.44l2.15,1.92a.81.81,0,0,1,.27.61V69A.82.82,0,0,1,48.56,69.85Z" class="cls-5"/><path d="M48.56,96.06a.82.82,0,0,1-.81-.82V82.54l-1.88-1.68a.82.82,0,0,1-.06-1.15A.81.81,0,0,1,47,79.64l2.15,1.93a.81.81,0,0,1,.27.61V95.24A.82.82,0,0,1,48.56,96.06Z" class="cls-5"/><path d="M48.56,122.27a.82.82,0,0,1-.81-.82v-12.7l-1.88-1.68a.82.82,0,0,1-.06-1.15.81.81,0,0,1,1.15-.07l2.15,1.93a.81.81,0,0,1,.27.61v13.06A.82.82,0,0,1,48.56,122.27Z" class="cls-5"/><rect width="3.37" height="12.56" x="122.62" y="97.3" class="cls-6" transform="translate(276.52 48.7) rotate(120.37)"/><polygon points="74.73 74.52 114.28 96.3 113.06 98.38 74.73 74.52" class="cls-7"/><path d="M132.73,101.62h0a1.85,1.85,0,0,1,.46,2.56l-2,3.42-2,3.43a1.84,1.84,0,0,1-2.45.85h0a1.84,1.84,0,0,1-.46-2.55l4-6.86A1.85,1.85,0,0,1,132.73,101.62Z" class="cls-5"/><path d="M107.92,95.18l1.06-1.8c.26-.45,1.52-.22,2.86.54l11.62,6.55c1.44.81,2.4,1.89,2.11,2.38L124.29,105c-.28.48-1.7.17-3.1-.68l-11.4-6.94C108.48,96.62,107.65,95.64,107.92,95.18Z" class="cls-8"/></g></g></svg>