<?xml version="1.0" encoding="utf-8"?>
<!-- Generator: Adobe Illustrator 24.0.2, SVG Export Plug-In . SVG Version: 6.00 Build 0)  -->
<svg version="1.1" id="Laag_1" xmlns="http://www.w3.org/2000/svg" xmlns:xlink="http://www.w3.org/1999/xlink" x="0px" y="0px"
	 viewBox="0 0 77 97.3" style="enable-background:new 0 0 77 97.3;" xml:space="preserve">
<style type="text/css">
	.st0{fill:#F50000;}
</style>
<title>Tekengebied 3</title>
<path class="st0" d="M28.7,53.7l0.1-1c0-3.6,1-6.5,3.1-8.6c1.8-2,4.2-3.4,6.8-4.2c2.4-0.7,4.7-1.8,6.7-3.4c2-1.5,3.2-4,3.1-6.5
	c0.1-2.4-0.7-4.7-2.3-6.4c-1.6-1.5-3.9-2.3-7-2.3s-5.4,0.5-6.9,1.5c-1.2,0.7-2.2,1.7-2.7,3l-0.4,1.5c-0.6,1.8-1.5,3.5-2.7,5
	c-1,1.1-2.4,1.7-3.9,1.7c-2.2-0.1-4.3-0.6-6.3-1.5c-5.1-2-7.6-4.4-7.6-7.3c0-1.3,0.3-2.6,0.8-3.8l1.3-3.3c0.8-1.6,1.7-3.2,2.7-4.6
	c1.4-2.1,3.1-4.1,5-5.7c2.4-1.9,5.1-3.5,8-4.5c3.7-1.4,7.6-2.1,11.6-2.1c8.9,0,16.2,2.9,21.8,8.6c5.4,5.2,8.5,12.4,8.4,19.9
	c0,3.4-0.7,6.8-2,10c-1.1,2.7-2.7,5.2-4.7,7.3c-3.7,3.5-7.1,5.9-10.3,7.1l-2,0.6c0,1.1,0,2.2-0.2,3.3c-0.2,0.9-0.6,1.7-1.1,2.5
	c-0.8,1-1.9,1.6-3.2,1.9c-1.9,0.4-3.9,0.6-5.9,0.6c-2,0.1-4-0.1-5.9-0.6c-1.3-0.3-2.4-1-3.1-2.2c-0.5-0.8-0.9-1.7-1.1-2.7
	C28.7,56.2,28.7,54.9,28.7,53.7z M28.2,76.2c0.8-1.4,2.1-2.4,3.6-2.8c2.7-0.7,5.4-1,8.1-0.9c3.7,0,6.4,0.8,8,2.4
	c1.6,1.7,2.4,4.8,2.4,9.5c0,3.3-0.4,5.8-1.3,7.5c-0.8,1.6-2.2,2.8-3.8,3.3c-2.6,0.6-5.3,0.9-8,0.8c-3.6,0-6.4-0.9-8.3-2.7
	c-1.4-1.4-2.1-3.9-2.1-7.3v-2c0-1.5,0-2.9,0.2-4.4C27.2,78.5,27.6,77.3,28.2,76.2L28.2,76.2z"/>
</svg>
