<svg id="Laag_1" data-name="Laag 1" xmlns="http://www.w3.org/2000/svg" viewBox="0 0 738.1 738.1"><defs><style>.cls-1{fill:#000203;}.cls-2{fill:#010202;}.cls-3{fill:#74c8da;}</style></defs><title>info-icon</title><path class="cls-1" d="M342.8,9.27l-.75.88c-.08-.29-.16-.59-.25-.88Z" transform="translate(0)"/><path class="cls-2" d="M392.79,9.27l-.06.69-.94-.69Z" transform="translate(0)"/><path class="cls-1" d="M341.8,729.08c-.29-.4-.25-.84.24-.85.25,0,.51.55.76.85Z" transform="translate(0)"/><path class="cls-2" d="M391.79,729.08l.94-.69.06.69Z" transform="translate(0)"/><path class="cls-3" d="M369.82,0C166.27,0,0,166.27,0,369.82S166.27,738.1,369.82,738.1,738.1,573.38,738.1,369.82,573.38,0,369.82,0Zm0,671.28c-166.26,0-301.45-135.19-301.45-301.46S203.56,68.37,369.82,68.37,671.28,203.56,671.28,369.82,536.09,671.28,369.82,671.28Zm0,0" transform="translate(0)"/><path class="cls-3" d="M419.55,501.9l-31.08,14,40.4-206.67c4.66-21.75-18.65-45.06-43.51-31.08l-76.14,42c-14,7.77-18.64,26.41-10.87,40.41s26.41,18.64,40.39,10.87l18.65-9.33L318.55,559.4c-3.12,17.09,10.88,35.73,29.52,35.73a29.24,29.24,0,0,0,12.44-3.1l82.35-35.74c15.54-6.22,21.75-23.31,15.54-38.85s-23.31-21.75-38.85-15.54Zm0,0" transform="translate(0)"/><path class="cls-3" d="M399.35,222.2a42,42,0,1,0-42-41.95,41.77,41.77,0,0,0,42,41.95Zm0,0" transform="translate(0)"/></svg>