<svg id="Laag_1" data-name="Laag 1" xmlns="http://www.w3.org/2000/svg" viewBox="0 0 136.56 61.47"><defs><style>.cls-1{fill:#e7e6e6;}.cls-2{fill:#44b7e9;}</style></defs><title>Tekengebied 3</title><path class="cls-1" d="M16.54,60.38q6-.06,12.28-5.9l-1.08-1.15c-6.27,5.88-12.36,7-18.09,3.34C-1.13,49.8,1.21,38.15,3.47,26.88,4.06,24,4.61,21.21,5,18.52l.1-.77c.7-5.66,1.65-13.41,7.2-15.7C17.38-.08,22.93,5.69,26.61,9.51l.62.64,1.13-1.09-.62-.64c-4-4.13-10-10.37-16.09-7.83-6.4,2.65-7.46,11.26-8.17,17l-.09.78c-.33,2.63-.88,5.35-1.46,8.24C-.33,37.81-2.89,50.55,8.8,58A13.91,13.91,0,0,0,16.54,60.38Z"/><path class="cls-1" d="M115.82,61.47A10.22,10.22,0,0,0,120.57,60c12-6.68,20.67-21.07,13.24-34.58A229.56,229.56,0,0,0,122.08,5.63c-1.46-2.13-3-3.23-4.6-3.39-2.74-.24-5.12,2.13-7.88,4.89l-1.25,1.24,1.1,1.13,1.26-1.25c2.49-2.48,4.63-4.61,6.63-4.44,1.14.11,2.27,1,3.44,2.71,4.34,6.31,8.4,13.68,11.65,19.61,6.94,12.62-1.33,26.13-12.63,32.44-2.33,1.3-4.11,1.64-5.44,1-1.57-.71-2.67-2.77-3.48-6.48l-1.54.33c.92,4.25,2.31,6.66,4.37,7.59A4.94,4.94,0,0,0,115.82,61.47Z"/><path class="cls-2" d="M29.26,56.23a184.73,184.73,0,0,0,78.47-.85l-.52-47.15a184.56,184.56,0,0,1-78.47.86Z"/><path class="cls-1" d="M99.32,20.84l-2.65.52c-1.69.36-4.11.76-7,1.22s-6.32.9-10,1.23-7.58.56-11.5.57-7.84-.09-11.52-.32-7.09-.63-10-1-5.36-.75-7-1.07l-2.67-.46s1,.38,2.67.93,4.14,1.31,7.07,2a87,87,0,0,0,10,1.76,93.77,93.77,0,0,0,11.51.61,94.73,94.73,0,0,0,11.5-.87,85.79,85.79,0,0,0,10-2c2.91-.74,5.33-1.57,7-2.13S99.32,20.84,99.32,20.84Z"/><path class="cls-1" d="M99.44,31.45,96.79,32c-1.69.39-4.11.82-7,1.32s-6.33,1-10,1.33-7.58.6-11.5.62-7.85-.11-11.52-.37-7.09-.69-10-1.11-5.36-.82-7.06-1.17L37,32.13s1,.41,2.67,1,4.14,1.43,7.06,2.17a82,82,0,0,0,10,1.91,86.47,86.47,0,0,0,11.52.68A87.33,87.33,0,0,0,79.8,37a82.41,82.41,0,0,0,10-2.13c2.91-.8,5.32-1.71,7-2.32S99.44,31.45,99.44,31.45Z"/><path class="cls-1" d="M99.56,42.54l-2.65.58c-1.69.39-4.11.82-7,1.32s-6.32,1-10,1.34-7.58.6-11.5.61-7.84-.1-11.51-.36-7.1-.7-10-1.12-5.36-.82-7.06-1.17l-2.66-.51s1,.41,2.67,1,4.14,1.44,7.07,2.18a81.69,81.69,0,0,0,10,1.92A84.8,84.8,0,0,0,68.42,49a85.5,85.5,0,0,0,11.5-.94A80.36,80.36,0,0,0,89.9,46c2.91-.8,5.32-1.71,7-2.33S99.56,42.54,99.56,42.54Z"/><path class="cls-1" d="M25.84,55.38c1.36.35,2.05.53,3.42.85L28.74,9.09c-1.37-.33-2-.5-3.41-.86Z"/><path class="cls-1" d="M107.73,55.38c1.36-.36,2-.55,3.39-.93L110.61,7.3c-1.36.39-2,.58-3.4.93Z"/></svg>