<svg id="Laag_1" data-name="Laag 1" xmlns="http://www.w3.org/2000/svg" viewBox="0 0 1000 1000"><defs><style>.cls-1{fill:#deeefc;}.cls-2{fill:#56649a;}.cls-3{fill:#fff;}.cls-4{fill:#ebf5fd;}.cls-5{fill:#aac4d7;}.cls-6{fill:#2e3192;}</style></defs><title>MRI</title><circle class="cls-1" cx="500" cy="487.89" r="487.89"/><circle class="cls-2" cx="500" cy="487.89" r="323.72"/><path class="cls-3" d="M500,642.35c-85.17,0-154.46-69.29-154.46-154.46S414.83,333.43,500,333.43s154.46,69.29,154.46,154.46S585.17,642.35,500,642.35Zm0-300.12c-80.32,0-145.66,65.34-145.66,145.66S419.68,633.55,500,633.55s145.66-65.34,145.66-145.66S580.32,342.23,500,342.23Z"/><path class="cls-3" d="M500,698.84c-116.32,0-211-94.63-211-211s94.64-211,211-211,211,94.64,211,211S616.32,698.84,500,698.84Zm0-407.24c-108.23,0-196.29,88.06-196.29,196.29S391.77,684.17,500,684.17s196.29-88,196.29-196.28S608.23,291.6,500,291.6Z"/><path class="cls-3" d="M500,767.07c-153.94,0-279.18-125.24-279.18-279.18S346.06,208.71,500,208.71,779.18,334,779.18,487.89,653.94,767.07,500,767.07Zm0-537.83c-142.62,0-258.65,116-258.65,258.65S357.38,746.54,500,746.54s258.65-116,258.65-258.65S642.62,229.24,500,229.24Z"/><circle class="cls-4" cx="500" cy="487.89" r="107.12"/><polygon class="cls-5" points="855.56 778.78 144.44 778.78 392.88 487.89 607.12 487.89 855.56 778.78"/><rect class="cls-6" x="250.81" y="871.16" width="498.38" height="128.84"/><rect class="cls-2" x="144.44" y="778.78" width="711.11" height="108.86"/><rect class="cls-3" x="421.35" y="29.84" width="157.3" height="112.36" rx="8.17"/></svg>