<svg id="Laag_1" data-name="Laag 1" xmlns="http://www.w3.org/2000/svg" viewBox="0 0 79.93 60.89"><defs><style>.cls-1{fill:none;stroke:#74c8da;stroke-linecap:round;stroke-linejoin:round;stroke-width:5px;}.cls-2{fill:#74c8da;}</style></defs><title>sound_on</title><path class="cls-1" d="M60.8,32s11.47,9.19,0,22" transform="translate(-5.33 -13.6)"/><path class="cls-1" d="M65.94,25.78s19.09,15.3,0,36.53" transform="translate(-5.33 -13.6)"/><path class="cls-1" d="M71.12,19s26.18,21,0,50.12" transform="translate(-5.33 -13.6)"/><path class="cls-2" d="M52.11,17.06V71a3.46,3.46,0,0,1-5.11,3L19.22,59a3.47,3.47,0,0,0-1.81-.41L9,59.06a3.47,3.47,0,0,1-3.62-3.31V32.54A3.47,3.47,0,0,1,8.8,29.07l.33,0,8.43.81a3.45,3.45,0,0,0,2-.42L46.94,14.05a3.47,3.47,0,0,1,4.72,1.31A3.51,3.51,0,0,1,52.11,17.06Z" transform="translate(-5.33 -13.6)"/></svg>