<svg xmlns="http://www.w3.org/2000/svg" viewBox="0 0 79.93 60.89"><defs><style>.cls-1{fill:#74c8da;}.cls-2{fill:none;stroke:#74c8da;stroke-linecap:round;stroke-linejoin:round;stroke-width:5px;}</style></defs><title>sound_off</title><g id="Laag_1" data-name="Laag 1"><path class="cls-1" d="M52.11,17.06V71a3.46,3.46,0,0,1-5.11,3L19.22,59a3.47,3.47,0,0,0-1.81-.41L9,59.06a3.47,3.47,0,0,1-3.62-3.31V32.54A3.47,3.47,0,0,1,8.8,29.07l.33,0,8.43.81a3.45,3.45,0,0,0,2-.42L46.94,14.05a3.47,3.47,0,0,1,4.72,1.31A3.51,3.51,0,0,1,52.11,17.06Z" transform="translate(-5.33 -13.6)"/></g><g id="Laag_2" data-name="Laag 2"><line class="cls-2" x1="53.64" y1="17.91" x2="77.43" y2="41.7"/><line class="cls-2" x1="77.43" y1="17.91" x2="53.64" y2="41.7"/></g></svg>