<svg xmlns="http://www.w3.org/2000/svg" viewBox="0 0 1923 1080.11"><defs><style>.cls-1,.cls-13,.cls-14{fill:#002747;}.cls-1,.cls-14,.cls-16,.cls-2,.cls-3{stroke:#002747;}.cls-1,.cls-14,.cls-15,.cls-2,.cls-3,.cls-7{stroke-miterlimit:10;}.cls-2{fill:#0a456d;}.cls-16,.cls-3,.cls-7{fill:none;}.cls-14,.cls-3{stroke-width:7px;}.cls-4{fill:#8da5c6;}.cls-5{opacity:0.8;}.cls-6{fill:#3d7d93;}.cls-7{stroke:#b4c4c5;stroke-width:5px;}.cls-8{fill:#b4c4c5;}.cls-9{fill:#caf7ef;}.cls-10{fill:#223337;}.cls-11{fill:#5db0a9;}.cls-12{fill:#f5ffff;}.cls-15{fill:#c3d3dd;stroke:#33627c;stroke-width:9px;}.cls-16{stroke-linecap:round;stroke-linejoin:round;stroke-width:8px;}</style></defs><title>achtergrond</title><g id="Laag_2" data-name="Laag 2"><g id="Laag_4" data-name="Laag 4"><rect class="cls-1" x="0.5" y="0.5" width="1920" height="1079.11"/></g><g id="achtertbrond"><rect class="cls-2" x="1563" y="254.2" width="298.41" height="627.33"/><rect class="cls-3" x="1596.93" y="288.68" width="238.26" height="567.18"/><rect class="cls-4" x="4" y="882" width="1919" height="198"/><g class="cls-5"><rect class="cls-6" x="45" y="566" width="210" height="337.44"/><rect class="cls-7" x="61.6" y="592.47" width="176.79" height="79.87"/><rect class="cls-8" x="117.69" y="624.33" width="65.51" height="14.36"/><rect class="cls-7" x="61.6" y="695.68" width="176.79" height="79.87"/><rect class="cls-8" x="117.69" y="730.23" width="65.51" height="14.36"/><rect class="cls-7" x="61.6" y="801.58" width="176.79" height="79.87"/><rect class="cls-8" x="117.69" y="835.23" width="65.51" height="14.36"/></g><path class="cls-9" d="M702.73,1014.32V1025H214.87v-10.68a32.85,32.85,0,0,1,32.85-32.85H356.13a31.21,31.21,0,0,1,31.21-31.21H520.4a31.21,31.21,0,0,1,31.21,31.21H669.88A32.85,32.85,0,0,1,702.73,1014.32Z"/><path class="cls-10" d="M590.21,809A40.25,40.25,0,0,1,550,849.24h-54.2v101H421.84v-101h-50.1A40.25,40.25,0,0,1,331.49,809Z"/><path class="cls-11" d="M96.6,782.71H821a0,0,0,0,1,0,0v0A26.28,26.28,0,0,1,794.72,809H118.85A22.26,22.26,0,0,1,96.6,786.73v-4a0,0,0,0,1,0,0Z"/><path class="cls-12" d="M812.79,761.93v20.78H96.6V726.83a9.8,9.8,0,0,1,12-9.55l178.56,40.79H808.93A3.86,3.86,0,0,1,812.79,761.93Z"/><circle class="cls-13" cx="1635.94" cy="558.44" r="8.44"/><circle class="cls-13" cx="1635.94" cy="657.56" r="8.44"/><line class="cls-14" x1="1636" y1="558" x2="1636" y2="658"/><rect class="cls-15" x="179.5" y="254.5" width="152" height="152" rx="27.11"/><polyline class="cls-16" points="214.5 332.5 257.5 332.5 274.5 282.5"/></g></g></svg>