<svg xmlns="http://www.w3.org/2000/svg" viewBox="0 0 724.4 307.97"><defs><style>.cls-1{fill:#caf7ef;}.cls-2{fill:#223337;}.cls-3{fill:#5db0a9;}.cls-4{fill:#f5ffff;}</style></defs><title>bed</title><g id="Laag_2" data-name="Laag 2"><g id="achtertbrond"><path class="cls-1" d="M606.13,297.3V308H118.27V297.3a32.86,32.86,0,0,1,32.85-32.86H259.54a31.21,31.21,0,0,1,31.21-31.21H423.8A31.21,31.21,0,0,1,455,264.44H573.28A32.86,32.86,0,0,1,606.13,297.3Z"/><path class="cls-2" d="M493.61,92a40.24,40.24,0,0,1-40.24,40.24H399.16v101H325.24v-101h-50.1A40.25,40.25,0,0,1,234.9,92Z"/><path class="cls-3" d="M0,65.68H724.4a0,0,0,0,1,0,0v0A26.28,26.28,0,0,1,698.12,92H22.26A22.26,22.26,0,0,1,0,69.71v-4a0,0,0,0,1,0,0Z"/><path class="cls-4" d="M716.19,44.9V65.68H0V9.8A9.8,9.8,0,0,1,12,.25L190.55,41H712.33A3.86,3.86,0,0,1,716.19,44.9Z"/></g></g></svg>