<svg xmlns="http://www.w3.org/2000/svg" viewBox="0 0 139.78 139.89"><defs><style>.cls-1{fill:#603813;}</style></defs><title>DIKKE DARM</title><g id="Organen"><path class="cls-1" d="M75.16,139.89c-.85,0-1.65-.08-2.29-.14-1.89-.19-4.3-.55-6.63-.91s-5.52-.83-7.06-.92a5.16,5.16,0,0,1-3,.13c-3.44-.88-5-5.15-3.24-8.29,1.38-2.41,4.14-2.8,6.24-2.77-1.84-1.77-4-4.69-1.9-8.2,1.73-2.91,4.47-3,6.69-2.46-1-2.09-1.56-4.81.72-7.2a5.32,5.32,0,0,1,6.06-1.26,5.59,5.59,0,0,1,2-6,5.18,5.18,0,0,1,5.59-.67,5.44,5.44,0,0,1,2.57-5.09,5.11,5.11,0,0,1,5.23-.36,5.37,5.37,0,0,1,2.79-4.52A5.09,5.09,0,0,1,93.76,91a5.31,5.31,0,0,1,2.75-4,5.19,5.19,0,0,1,3.79-.65,5.29,5.29,0,0,1,1.83-2.8,8,8,0,0,1,.27-.88,5.05,5.05,0,0,1,3.11-3.36,5.62,5.62,0,0,1-.83-4.64,5.44,5.44,0,0,1,3.4-4,5.62,5.62,0,0,1-1.51-5.1,5.48,5.48,0,0,1,3.36-4.23,5.64,5.64,0,0,1-1.82-5.15,5.54,5.54,0,0,1,3.24-4.38,5.83,5.83,0,0,1,1-9.57,5.82,5.82,0,0,1,.42-9.37,5.57,5.57,0,0,1-1.7-2.09,6.11,6.11,0,0,1-2.68.37c-3.82-.28-5.36-3.25-6.54-8-1.69,4.67-3.59,7.47-7.48,7.34s-5.58-3.12-6.94-8c-1.57,4.78-3.39,7.69-7.25,7.69h-.08c-3.92,0-5.68-3-7.15-7.89-1.49,4.87-3.25,7.85-7.18,7.88h-.07c-3.87,0-5.68-2.93-7.24-7.73-1.39,4.88-3.08,7.88-7,8S45.69,27.66,44,22.94c-1.23,4.83-2.82,7.82-6.67,8.06-3.69.24-5.71-2.25-7.51-6.5a15.28,15.28,0,0,1-1.69,5.12A5.54,5.54,0,0,1,29.74,33a5.66,5.66,0,0,1-2.09,5.24,5.27,5.27,0,0,1,3.49,4.47,5.7,5.7,0,0,1-2.07,5.47,5.28,5.28,0,0,1,3.76,4.47,5.39,5.39,0,0,1-2.06,5.59,5.28,5.28,0,0,1,3.89,4.46,5.43,5.43,0,0,1-2,5.66,5.24,5.24,0,0,1,4,4.44,5.45,5.45,0,0,1-2.09,5.74,5.57,5.57,0,0,1,4,4.48c.72,3.8-2,6-4.25,7.25,5.36.61,7.12,7,7.13,8.89a5.4,5.4,0,0,1-5.32,5.48,9.17,9.17,0,0,1-2.46-.22c-.81-.09-1.8-.33-3.14-.44-11.15-.84-17.88-1.34-18.91-7.21-.44-2.54-.31-7.43,1.06-8.63a5.33,5.33,0,0,1-3.86-4.46A5.71,5.71,0,0,1,10.86,78a5.32,5.32,0,0,1-4-4.5A5.4,5.4,0,0,1,9,67.73,5.32,5.32,0,0,1,4.9,63.19a5.43,5.43,0,0,1,2.25-5.78A5.29,5.29,0,0,1,3.07,52.8,5.46,5.46,0,0,1,5.48,47a5.29,5.29,0,0,1-4.09-4.73,5.94,5.94,0,0,1,2.87-6A5.77,5.77,0,0,1,0,31.13C-.43,26,4.75,24.39,7,23.7c.71-.22-6.21-1.81-6.21-6.09S3.38,6.72,6.92,6.26s9.26,2.39,10.79,3.25c1.06-7.7,4.93-7.48,10.17-8C32.08,1.18,34,4.4,36,9.7,37.28,4.19,38.91.76,43.13.58h.33c3.88,0,5.69,3.12,7.36,8.15C52.26,3.45,54,.2,58.09.13s5.9,3.08,7.5,8.24C67.12,3.18,68.88,0,73,0h0c4.09,0,5.85,3.19,7.37,8.37C82,3.22,83.72.07,87.85.16S93.7,3.51,95.13,8.8c1.73-5.18,3.59-8.33,7.7-8.14,4.34.21,6,3.81,7.27,9.57,2.07-5.51,4-8.9,8.32-8.38A6.52,6.52,0,0,1,123,4.62c2.12,3,1.89,7.4.83,13.47,7.36-2,10.67-2.47,13.33-.59a6,6,0,0,1,2.5,4.34c.32,3.46-2,5.21-4,6.13,2.12,1,4.29,2.67,4.15,6a5.68,5.68,0,0,1-3.66,5.18A5.81,5.81,0,0,1,139,44.81a5.66,5.66,0,0,1-3.75,4.91,5.4,5.4,0,0,1,2.57,5.66,5.62,5.62,0,0,1-3.9,4.76,5.75,5.75,0,0,1,2.36,5.73,5.67,5.67,0,0,1-4.13,4.66A5.87,5.87,0,0,1,129.67,81a5.85,5.85,0,0,1,2.08,6.26c-1.16,4.12-5.07,4.46-7.65,4.35,1.67,1.43,4.91,4.66,2.48,8.7l-1.19,2-2.3.54c-2,.46-3.5-.06-6.64-2.11.88,2.27,2.81,7.41-1.51,10.06a5.05,5.05,0,0,1-5.12.29,5.41,5.41,0,0,1-2.82,4.32,5,5,0,0,1-4.53.37,5.32,5.32,0,0,1-2.61,3.78,5,5,0,0,1-4.13.62,5.38,5.38,0,0,1-2.32,3.56,5.18,5.18,0,0,1-3.67,1A5.4,5.4,0,0,1,87.88,128a5.22,5.22,0,0,1-2.94,1.38,5.56,5.56,0,0,1-1.2,3A6,6,0,0,1,81.92,134a6.22,6.22,0,0,1-.49,2.24C80.2,139.3,77.48,139.89,75.16,139.89Zm-12.5-6ZM29.8,96a5.53,5.53,0,0,0,.47,2.22A5.62,5.62,0,0,1,29.8,96Z"/></g></svg>