<svg xmlns="http://www.w3.org/2000/svg" viewBox="0 0 99.64 106.28"><defs><style>.cls-1{fill:#93278f;}</style></defs><title>DUNNE DARM</title><g id="Organen"><path class="cls-1" d="M53.75,106.28c-7.15,0-14.23-.51-20.52-1l-3.44-.24c-7.92-.55-19.31,0-19.42,0-3.81.19-7-3.23-7.22-7.63S6,89.32,9.78,89.13c.49,0,12.2-.59,20.84,0l3.47.24C60.19,91.25,86.93,87.5,84.46,77c-2.81-7.53-18.11-1.12-27.35.12C37.54,79.8,17.29,82.54,7.34,72.36,3.57,68.52,1.57,63.17,1.56,56.9S3.49,45.13,7.18,41.06c9.66-10.65,29.41-9.55,48.5-8.49,7.84.44,15.24.85,21.17.41,6.53-.49,8.47-1.88,8.89-2.25,0-.91-.16-1.11-.42-1.39-.85-.9-4.74-3.79-19.15-3.43-10.23.26-22,2-32.33,3.53C24.3,30.86,16.77,32,12,31.74a11,11,0,0,1-8.32-4.57C-.5,21.61-.06,8.77.09,7.13.5,2.75,3.92-.42,7.72.05s6.54,4.38,6.15,8.74c-.06.8.08,6.21.18,7,4-.12,10.84-1.13,18-2.2,29.26-4.33,52.45-6.79,62.63,4a18.65,18.65,0,0,1,4.88,13.85,16.62,16.62,0,0,1-4.44,11c-7.49,7.88-22.62,7-40.12,6.06-13.89-.77-32.9-1.83-38.27,4.09-.66.73-1.34,1.81-1.34,4.25,0,2.13.54,3,1.12,3.56,5.31,5.43,24.77,2.8,39,.87,18.66-2.52,33.41-4.51,40.49,3.6,2,2.22,4.14,6.16,3.55,12.31C97.2,101.69,75.21,106.28,53.75,106.28Zm32-75.41Z"/></g></svg>