<svg xmlns="http://www.w3.org/2000/svg" viewBox="0 0 599.57 90.25"><defs><style>.cls-1{fill:#ff0042;}.cls-2{font-size:35.11px;}.cls-2,.cls-3{fill:#fff;font-family:FredokaOne-Regular, Fredoka One;}.cls-3{font-size:64.77px;letter-spacing:0.02em;}.cls-4{fill:#f8000d;}</style></defs><title>lichaamspel_svg1</title><g id="Laag_2" data-name="Laag 2"><g id="icoontjes"><path class="cls-1" d="M0,24.17c0,27.1,42.82,66.08,42.82,66.08s42.81-39,42.81-66.08C85.63-.4,50.45-8.44,43.87,10.78a1.08,1.08,0,0,1-2.09,0C35.24-8.63,0-.42,0,24.17Z"/><rect class="cls-1" x="202.06" y="7.81" width="220" height="62.02" rx="23.76"/><text class="cls-2" transform="translate(249.63 47.5)">Longen</text></g><g id="Laag_6" data-name="Laag 6"><text class="cls-3" transform="translate(126.82 57.88)">+</text><text class="cls-3" transform="translate(473.46 57.88)">=</text><path class="cls-4" d="M589.47,83.14a10.08,10.08,0,0,1-7.14-3L526.5,24.35a10.1,10.1,0,0,1,14.28-14.28L596.61,65.9a10.1,10.1,0,0,1-7.14,17.24Z"/><path class="cls-4" d="M533.64,83.14A10.1,10.1,0,0,1,526.5,65.9l55.83-55.83a10.1,10.1,0,0,1,14.28,14.28L540.78,80.18A10.06,10.06,0,0,1,533.64,83.14Z"/></g></g></svg>