<svg xmlns="http://www.w3.org/2000/svg" viewBox="0 0 656.57 97.37"><defs><style>.cls-1{fill:#ff0042}.cls-2{fill:#ff9300}.cls-3{font-size:35.11px}.cls-3,.cls-5{fill:#fff;font-family:FredokaOne-Regular,Fredoka One}.cls-4{fill:#00ea60}.cls-5{font-size:64.77px;letter-spacing:.02em}</style></defs><title>lichaamspel_svg2</title><g id="Laag_2" data-name="Laag 2"><g id="icoontjes"><path d="M0,31.29c0,27.1,42.82,66.08,42.82,66.08s42.81-39,42.81-66.08c0-24.56-35.18-32.6-41.76-13.38a1.08,1.08,0,0,1-2.09,0C35.24-1.5,0,6.71,0,31.29Z" class="cls-1"/><rect width="242" height="62.02" x="197.04" y="25.14" class="cls-2" rx="23.76"/><text class="cls-3" transform="translate(279.4 64.84)">Hart</text></g><g id="Laag_6" data-name="Laag 6"><path d="M584.93,87.16,544.19,46.42A11,11,0,1,1,559.71,30.9l25.22,25.22L637.84,3.21a11,11,0,0,1,15.52,15.52Z" class="cls-4"/><text class="cls-5" transform="translate(126.82 65)">+</text><text class="cls-5" transform="translate(473.46 65)">=</text></g></g></svg>