<svg xmlns="http://www.w3.org/2000/svg" viewBox="0 0 599.57 90.25"><defs><style>.cls-1{fill:#ff0042}.cls-2,.cls-3{fill:#fff}.cls-3{font-size:64.77px;font-family:FredokaOne-Regular,Fredoka One;letter-spacing:.02em}.cls-4{fill:#f8000d}</style></defs><title>lichaamspel_svg1_1</title><g id="Laag_2" data-name="Laag 2"><g id="icoontjes"><path d="M0,24.17c0,27.1,42.82,66.08,42.82,66.08s42.81-39,42.81-66.08C85.63-.4,50.45-8.44,43.87,10.78a1.08,1.08,0,0,1-2.09,0C35.24-8.63,0-.42,0,24.17Z" class="cls-1"/><rect width="220" height="62.02" x="202.06" y="7.81" class="cls-1" rx="23.76"/><path d="M257.24,42.31h9.55a4.13,4.13,0,0,1,1.69.26,1.35,1.35,0,0,1,.7.83,6.61,6.61,0,0,1,0,3,1.23,1.23,0,0,1-.6.77,3.85,3.85,0,0,1-1.82.35H254.12c-1.64,0-2.6-.44-2.88-1.33a5.51,5.51,0,0,1-.21-1.79V24.86a11.57,11.57,0,0,1,.05-1.21,2.88,2.88,0,0,1,.34-.93c.32-.63,1.24-.95,2.73-.95s2.61.43,2.92,1.3a7,7,0,0,1,.17,1.83Z" class="cls-2"/><path d="M274.06,31.32a9.65,9.65,0,0,1,13.45,0,9.1,9.1,0,0,1,2.91,6.94,9.07,9.07,0,0,1-1.51,5.17,9.55,9.55,0,0,1-3.67,3.34,10,10,0,0,1-4.47,1.07,9.58,9.58,0,0,1-4.5-1.14,10.07,10.07,0,0,1-3.67-3.37,8.91,8.91,0,0,1-1.49-5A9.06,9.06,0,0,1,274.06,31.32Zm4.39,9.46a3.75,3.75,0,0,0,2.28.86,3.83,3.83,0,0,0,2.32-.88,3,3,0,0,0,1.16-2.59,3.06,3.06,0,0,0-1.09-2.57,3.78,3.78,0,0,0-2.35-.84,3.66,3.66,0,0,0-2.36.88,3.12,3.12,0,0,0-1.09,2.58A3,3,0,0,0,278.45,40.78Z" class="cls-2"/><path d="M303,29a7.43,7.43,0,0,1,5.84,2.69,9.62,9.62,0,0,1,2.34,6.55v6.17a9.1,9.1,0,0,1-.06,1.22,2.78,2.78,0,0,1-.29.89c-.33.63-1.25.95-2.74.95-1.66,0-2.62-.43-2.88-1.3a5.72,5.72,0,0,1-.21-1.79V38.2a3,3,0,0,0-.83-2.25,3,3,0,0,0-2.21-.8,3.1,3.1,0,0,0-2.25.84,3,3,0,0,0-.86,2.21v6.21a9.49,9.49,0,0,1,0,1.22,2.33,2.33,0,0,1-.33.89c-.31.63-1.21.95-2.7.95s-2.38-.32-2.71-.95a3.54,3.54,0,0,1-.3-.93,11.57,11.57,0,0,1-.05-1.21V32a11,11,0,0,1,.05-1.17,2.59,2.59,0,0,1,.34-.9c.32-.58,1.23-.88,2.7-.88s2.31.27,2.63.81a2.75,2.75,0,0,1,.35,1.44,3.83,3.83,0,0,1,.64-.7,5.82,5.82,0,0,1,.94-.74A4.62,4.62,0,0,1,303,29Z" class="cls-2"/><path d="M325.7,45.19a5,5,0,0,1-4.25,1.75A7.49,7.49,0,0,1,316,44.26a9,9,0,0,1,0-12.55A7.63,7.63,0,0,1,321.63,29a5.37,5.37,0,0,1,2.18.44,3.83,3.83,0,0,1,1.93,1.49,2.15,2.15,0,0,1,.72-1.49,3.07,3.07,0,0,1,2-.51,6.9,6.9,0,0,1,2,.21,1.5,1.5,0,0,1,.9.72,2.84,2.84,0,0,1,.31.9A8.87,8.87,0,0,1,331.7,32V46.49A8.26,8.26,0,0,1,328.9,53a9.32,9.32,0,0,1-6.32,2.47,10.56,10.56,0,0,1-5.09-1.3c-1.62-.86-2.43-1.65-2.43-2.35a3.3,3.3,0,0,1,1.06-2.42,9.36,9.36,0,0,1,1-1,1.37,1.37,0,0,1,.86-.28,1.65,1.65,0,0,1,1,.42,5.83,5.83,0,0,0,3.65,1.3,2.67,2.67,0,0,0,2.18-1,3.94,3.94,0,0,0,.84-2.53ZM319.45,38a2.85,2.85,0,0,0,.9,2.05,2.91,2.91,0,0,0,2.17.91,2.75,2.75,0,0,0,2.13-.93,3,3,0,0,0,.84-2,3.15,3.15,0,0,0-.81-2.07,2.67,2.67,0,0,0-2.17-1,2.84,2.84,0,0,0-2.22,1A3.08,3.08,0,0,0,319.45,38Z" class="cls-2"/><path d="M352.35,36a4.29,4.29,0,0,1-1.07,3.2,3.36,3.36,0,0,1-2.37,1h-8.32a1.91,1.91,0,0,0,1.15,1.65,4.6,4.6,0,0,0,2.32.67,9.75,9.75,0,0,0,3.2-.42l.38-.14a3.51,3.51,0,0,1,1.41-.39c.75,0,1.39.53,1.93,1.58a3.91,3.91,0,0,1,.45,1.62Q351.43,48,344,48a11.4,11.4,0,0,1-4.62-.89,7.8,7.8,0,0,1-3.14-2.38A10,10,0,0,1,334,38.34a9.15,9.15,0,0,1,2.86-7.07A10.08,10.08,0,0,1,344,28.62c3.25,0,5.64,1.14,7.16,3.44A7.08,7.08,0,0,1,352.35,36Zm-7.41,1c.89,0,1.33-.38,1.33-1.13a1.59,1.59,0,0,0-.61-1.3,2.81,2.81,0,0,0-1.76-.49,3.54,3.54,0,0,0-2.26.93,2.6,2.6,0,0,0-1.12,2Z" class="cls-2"/><path d="M364.91,29a7.44,7.44,0,0,1,5.85,2.69,9.61,9.61,0,0,1,2.33,6.55v6.17a9.49,9.49,0,0,1,0,1.22,2.6,2.6,0,0,1-.3.89c-.32.63-1.24.95-2.73.95-1.67,0-2.63-.43-2.88-1.3a5.72,5.72,0,0,1-.21-1.79V38.2a3,3,0,0,0-.83-2.25,3.44,3.44,0,0,0-4.46,0,3,3,0,0,0-.86,2.21v6.21a11.79,11.79,0,0,1,0,1.22,2.72,2.72,0,0,1-.33.89c-.31.63-1.21.95-2.71.95s-2.37-.32-2.7-.95a3.2,3.2,0,0,1-.3-.93,11.57,11.57,0,0,1-.05-1.21V32a11,11,0,0,1,.05-1.17,2.77,2.77,0,0,1,.33-.9c.33-.58,1.23-.88,2.71-.88s2.3.27,2.63.81a2.84,2.84,0,0,1,.35,1.44,4.08,4.08,0,0,1,.63-.7,6.33,6.33,0,0,1,.95-.74A4.59,4.59,0,0,1,364.91,29Z" class="cls-2"/></g><g id="Laag_6" data-name="Laag 6"><text class="cls-3" transform="translate(126.82 57.88)">+</text><text class="cls-3" transform="translate(473.46 57.88)">=</text><path d="M589.47,83.14a10.08,10.08,0,0,1-7.14-3L526.5,24.35a10.1,10.1,0,0,1,14.28-14.28L596.61,65.9a10.1,10.1,0,0,1-7.14,17.24Z" class="cls-4"/><path d="M533.64,83.14A10.1,10.1,0,0,1,526.5,65.9l55.83-55.83a10.1,10.1,0,0,1,14.28,14.28L540.78,80.18A10.06,10.06,0,0,1,533.64,83.14Z" class="cls-4"/></g></g></svg>