<svg xmlns="http://www.w3.org/2000/svg" viewBox="0 0 656.57 97.37"><defs><style>.cls-1{fill:#ff0042}.cls-2{fill:#ff9300}.cls-3,.cls-5{fill:#fff}.cls-4{fill:#00ea60}.cls-5{font-size:64.77px;font-family:FredokaOne-Regular,Fredoka One;letter-spacing:.02em}</style></defs><title>lichaamspel_svg2_1</title><g id="Laag_2" data-name="Laag 2"><g id="icoontjes"><path d="M0,31.29c0,27.1,42.82,66.08,42.82,66.08s42.81-39,42.81-66.08c0-24.56-35.18-32.6-41.76-13.38a1.08,1.08,0,0,1-2.09,0C35.24-1.5,0,6.71,0,31.29Z" class="cls-1"/><rect width="242" height="62.02" x="197.04" y="25.14" class="cls-2" rx="23.76"/><path d="M296.71,40.05a1.53,1.53,0,0,1,1-.73,5.64,5.64,0,0,1,1.68-.21,6.31,6.31,0,0,1,1.62.17,3,3,0,0,1,.91.42,1.64,1.64,0,0,1,.49.71,6.72,6.72,0,0,1,.18,1.82V61.72a9,9,0,0,1-.06,1.21,2.62,2.62,0,0,1-.33.93c-.33.63-1.24.94-2.74.94s-2.6-.43-2.88-1.29a5.92,5.92,0,0,1-.21-1.83V54.55H287v7.17a11.71,11.71,0,0,1,0,1.21,2.88,2.88,0,0,1-.34.93c-.32.63-1.24.94-2.74.94s-2.59-.43-2.87-1.29a5.92,5.92,0,0,1-.21-1.83V42.2a9.22,9.22,0,0,1,.05-1.21,2.72,2.72,0,0,1,.33-.94c.33-.63,1.24-.94,2.74-.94s2.61.43,2.91,1.3a6.72,6.72,0,0,1,.18,1.82v7.16h9.3V42.2a11.43,11.43,0,0,1,.05-1.21A3,3,0,0,1,296.71,40.05Z" class="cls-3"/><path d="M317.35,48.3c.14-1.31,1.07-2,2.77-2a7.26,7.26,0,0,1,2,.21,1.5,1.5,0,0,1,.93.74,3,3,0,0,1,.32.93,11.57,11.57,0,0,1,0,1.21V61.72a11.71,11.71,0,0,1,0,1.21,3.54,3.54,0,0,1-.3.93c-.33.61-1.13.91-2.41.91a4.8,4.8,0,0,1-2.56-.47,1.91,1.91,0,0,1-.75-1.39,4.93,4.93,0,0,1-4.34,1.86A7.65,7.65,0,0,1,307.42,62a9.25,9.25,0,0,1,0-12.87,7.82,7.82,0,0,1,5.74-2.76,5.34,5.34,0,0,1,2.18.43,4.83,4.83,0,0,1,1.37.79A4.4,4.4,0,0,1,317.35,48.3ZM311,55.61a3,3,0,0,0,.91,2.09,3,3,0,0,0,2.22.93,2.79,2.79,0,0,0,2.15-1,3,3,0,0,0,.87-2.09,3.23,3.23,0,0,0-.83-2.12,2.73,2.73,0,0,0-2.21-1,2.84,2.84,0,0,0-2.25,1A3.2,3.2,0,0,0,311,55.61Z" class="cls-3"/><path d="M338.84,46.55a2.36,2.36,0,0,1,1.1.72,2.48,2.48,0,0,1,.44,1.63,5.5,5.5,0,0,1-.67,2.46,2.08,2.08,0,0,1-1.93,1.33,2.72,2.72,0,0,1-1.21-.28,3.6,3.6,0,0,0-1.53-.28,2.74,2.74,0,0,0-1.77.67,2,2,0,0,0-.82,1.61v7.38a9,9,0,0,1-.06,1.21,2.62,2.62,0,0,1-.33.93c-.35.61-1.26.91-2.74.91a3.85,3.85,0,0,1-2.42-.6,2,2,0,0,1-.63-1.51V49.39a9.31,9.31,0,0,1,.05-1.21,2.75,2.75,0,0,1,.3-.89c.33-.64,1.24-.95,2.74-.95s2.28.27,2.63.81a2,2,0,0,1,.39,1.15,5.09,5.09,0,0,1,.5-.59,6.55,6.55,0,0,1,1.43-1,4.06,4.06,0,0,1,1.91-.6,7.63,7.63,0,0,1,2.62.39Z" class="cls-3"/><path d="M353.05,52.55l-2.28-.14v4.85a2.44,2.44,0,0,0,.3,1.37,1.29,1.29,0,0,0,1.12.42,10.59,10.59,0,0,1,1.27.05,2.55,2.55,0,0,1,.93.33c.53.31.8,1.09.8,2.36,0,1.47-.32,2.37-1,2.7a3.54,3.54,0,0,1-.93.3,11.11,11.11,0,0,1-1.17,0,8.21,8.21,0,0,1-5.55-1.65q-1.9-1.65-1.9-5.58v-5.2a9.16,9.16,0,0,1-1.44.11,1.62,1.62,0,0,1-1.28-.6,3.17,3.17,0,0,1-.51-2,8.52,8.52,0,0,1,.18-2.08,1.84,1.84,0,0,1,.49-.93,2.11,2.11,0,0,1,1.4-.46l1.16.14V42.93a11.13,11.13,0,0,1,0-1.19,2.22,2.22,0,0,1,.34-.84c.3-.59,1.2-.88,2.7-.88s2.54.43,2.85,1.3a6.88,6.88,0,0,1,.17,1.79v3.44c1-.09,1.81-.14,2.34-.14a11.41,11.41,0,0,1,1.19.05,2.88,2.88,0,0,1,.93.34c.61.3.91,1.2.91,2.7s-.31,2.37-.95,2.7a3.2,3.2,0,0,1-.93.3A9.31,9.31,0,0,1,353.05,52.55Z" class="cls-3"/></g><g id="Laag_6" data-name="Laag 6"><path d="M584.93,87.16,544.19,46.42A11,11,0,1,1,559.71,30.9l25.22,25.22L637.84,3.21a11,11,0,0,1,15.52,15.52Z" class="cls-4"/><text class="cls-5" transform="translate(126.82 65)">+</text><text class="cls-5" transform="translate(473.46 65)">=</text></g></g></svg>