<svg id="Lichaam" xmlns="http://www.w3.org/2000/svg" viewBox="0 0 627.19 1000"><defs><style>.cls-1{fill:#e9d0ba;}.cls-2{fill:#d6ac8e;}.cls-3{fill:#b8585e;}.cls-4{fill:#ff95bd;}.cls-5{fill:#fff;}.cls-6{fill:#29abe2;}.cls-7{fill:#543f2f;}</style></defs><title>LICHAAM</title><path class="cls-1" d="M406.5,535.5H219s4.22-48.77.4-94.28c-1.49-17.82-10.54-35.14-12.06-48.84C202,343.71,186,292.12,186,292.12c-2-40.94,14.24-75.3,52.95-75.3l35-13.78H351.6l35,13.78c38.7,0,55,34.36,52.94,75.3,0,0-16.65,56.49-21.15,100.26-1.31,12.7-9.25,30.58-10.79,48.84C403.82,485.93,406.5,535.5,406.5,535.5Z"/><path class="cls-1" d="M345.45,172.9V197c-8.82,6.18-19,10-29.61,10h-7.31c-10.14,0-19.94-3.46-28.51-9.2V172.9Z"/><polygon class="cls-1" points="351.58 257.35 312.41 307.22 273.89 257.35 273.89 146.21 351.58 146.21 351.58 257.35"/><path class="cls-2" d="M351.58,156.16v34.26c-10.47,8.78-22.6,14.12-35.16,14.12h-8.68c-12,0-23.68-4.91-33.85-13V156.16Z"/><ellipse class="cls-1" cx="243.73" cy="99.22" rx="13.75" ry="26.94" transform="translate(-7.11 19.67) rotate(-4.55)"/><ellipse class="cls-1" cx="381.19" cy="99.22" rx="26.94" ry="13.75" transform="translate(252.02 471.33) rotate(-85.45)"/><path class="cls-1" d="M308.84,188.41h7.31c30.41,0,57.8-31.13,57.8-61.55l2.49-64.71c0-30.42-21.33-59-64.13-59s-63.77,28.63-63.77,59.05L251,126.86C251,157.28,278.42,188.41,308.84,188.41Z"/><path class="cls-3" d="M347.06,145.36a30.18,30.18,0,0,1-10.36,18.37,37.81,37.81,0,0,1-48.77-.25,30.17,30.17,0,0,1-10.07-18.12,3.67,3.67,0,0,1,2.68-3.94,4.39,4.39,0,0,1,1.46-.25h60.92a4.49,4.49,0,0,1,1.47.25A3.67,3.67,0,0,1,347.06,145.36Z"/><path class="cls-4" d="M336.7,163.73a37.81,37.81,0,0,1-48.77-.25,85.42,85.42,0,0,1,24-3.06C321.63,160.42,330.41,161.69,336.7,163.73Z"/><path class="cls-5" d="M344.39,141.42c-2.16,6.69-15.63,11.85-31.93,11.85s-29.77-5.16-31.92-11.85a4.39,4.39,0,0,1,1.46-.25h60.92A4.49,4.49,0,0,1,344.39,141.42Z"/><path class="cls-2" d="M321.44,129.79c-.7.37-1.41.67-2.12,1s-1.44.55-2.16.79l-.06,0-.28,0a7.13,7.13,0,0,1-4.69-1.34,8.07,8.07,0,0,1-3.39-6.38l0-2.07.07-4c.06-2.69.13-5.39.24-8.08s.22-5.39.42-8.09a.77.77,0,0,1,.83-.71.76.76,0,0,1,.71.71c.2,2.7.32,5.39.43,8.09s.17,5.39.23,8.08l.07,4,0,2a5.12,5.12,0,0,0,.29,1.51,4.94,4.94,0,0,0,1.85,2.42,6.37,6.37,0,0,0,2.89,1.07l-.34,0c.75-.13,1.52-.22,2.28-.31s1.53-.14,2.32-.14a.76.76,0,0,1,.36,1.43Z"/><ellipse class="cls-5" cx="283.77" cy="87.62" rx="15.95" ry="12.57"/><circle class="cls-6" cx="284.86" cy="87.62" r="7.67"/><circle cx="284.86" cy="87.62" r="3.99"/><circle class="cls-5" cx="282.72" cy="84.25" r="3.07"/><path class="cls-7" d="M297.87,62.17a68.84,68.84,0,0,0-33.32,8.27,1.38,1.38,0,0,0-.63,1.91,1.44,1.44,0,0,0,1.72.58,63.38,63.38,0,0,1,31.49-2.33,4.63,4.63,0,0,0,5.31-3.19,4.24,4.24,0,0,0-3.65-5.16A5.82,5.82,0,0,0,297.87,62.17Z"/><path class="cls-2" d="M297.51,81.06c-11.13-1.93-16-2.18-27.49,0,2.93-3.57,8-5.93,13.74-5.93S294.58,77.49,297.51,81.06Z"/><path class="cls-5" d="M357.55,87.62c0,6.94-7.14,12.57-15.95,12.57s-15.94-5.63-15.94-12.57a11,11,0,0,1,3.58-7.94,18.86,18.86,0,0,1,24.73,0A11.08,11.08,0,0,1,357.55,87.62Z"/><circle class="cls-6" cx="340.5" cy="87.62" r="7.67"/><circle cx="340.5" cy="87.62" r="3.99"/><circle class="cls-5" cx="338.36" cy="84.25" r="3.07"/><path class="cls-7" d="M327.73,62.17a68.9,68.9,0,0,1,33.33,8.27,1.39,1.39,0,0,1,.63,1.91,1.45,1.45,0,0,1-1.72.58,63.39,63.39,0,0,0-31.49-2.33,4.64,4.64,0,0,1-5.32-3.19,4.26,4.26,0,0,1,3.66-5.16A5.69,5.69,0,0,1,327.73,62.17Z"/><path class="cls-2" d="M355.51,81.06c-11.26-1.93-16.2-2.18-27.82,0,3-3.57,8.09-5.93,13.91-5.93S352.54,77.49,355.51,81.06Z"/><path class="cls-1" d="M278.7,903.16l-1.22,38.26S294.25,998,258,994.73s-51-1.15-51-1.15-38.79,7.81-54.17,6.2-23.87-6-25.48-5.74-18.13,7.35-27.54.69-3.91-18.36,1.14-20,17.22.46,17.22.46,51.65-16.28,59.68-21.91,35.72-22.49,38.47-28.23,3-21.36,3-21.36Z"/><path class="cls-1" d="M278.47,906.62l-59.22-.18,2.53-190.31-3.21-194s1.88-45,47.41-43.36S309.2,524,309.2,524l-22,191.37Z"/><path class="cls-1" d="M346.9,906.62l59.22-.18-2.53-190.31,3.21-194s-1.88-45-47.41-43.36S316.17,524,316.17,524l22,191.37Z"/><path class="cls-1" d="M346.74,903.16,348,941.42S331.19,998,367.46,994.73s51-1.15,51-1.15,38.79,7.81,54.17,6.2,23.88-6,25.48-5.74,18.14,7.35,27.55.69,3.9-18.36-1.15-20-17.22.46-17.22.46-51.64-16.28-59.68-21.91-35.71-22.49-38.47-28.23-3-21.36-3-21.36Z"/><path class="cls-1" d="M107.2,496,69.09,476.35l64.65-122.48L199,233.37s16.77-27,44.52-10,11.2,43,11.2,43l-74.3,115.12Z"/><path class="cls-1" d="M64.28,593.92a5.11,5.11,0,0,1-3.58-6.09s9.5-30.66,8.46-31.23-21.08,39.26-21.08,39.26a4.89,4.89,0,0,1-6.28,2,5,5,0,0,1-2.87-6.39s17.38-39.74,16-40.52-24.3,43.24-24.3,43.24A4.91,4.91,0,0,1,24.25,596a5,5,0,0,1-2.71-6.45S41,545.55,40,545s-25.59,33.59-25.59,33.59a5,5,0,0,1-6.54,1A4.89,4.89,0,0,1,5.92,573L31,531.24a9.37,9.37,0,0,1,.85-2.09s11-16.95,10.74-18-13,5-13,5l-.58.24L11.8,521.16A6.29,6.29,0,0,1,4.65,518a5.32,5.32,0,0,1,2.47-7.48l16.18-7.21-.57.23L39.41,492.7l1.38-.5,14.37-3.12c.55-.19,2.92-.58,3.51-.67a29.35,29.35,0,0,1,3.88-.31l9.29-16.69,37.45,20.83L100,509a10.29,10.29,0,0,1,.49,10.49L86.63,549.37l-16.38,41.9A4.82,4.82,0,0,1,64.28,593.92Z"/><ellipse class="cls-1" cx="120.03" cy="428.31" rx="63.6" ry="27.97" transform="translate(-317.52 348.29) rotate(-63.98)"/><path class="cls-1" d="M520,496l38.11-19.64L493.45,353.87l-65.21-120.5s-16.77-27-44.52-10-11.2,43-11.2,43l74.31,115.12Z"/><path class="cls-1" d="M562.91,593.92a5.11,5.11,0,0,0,3.58-6.09S557,557.17,558,556.6s21.08,39.26,21.08,39.26a4.9,4.9,0,0,0,6.28,2,5,5,0,0,0,2.87-6.39s-17.38-39.74-16-40.52,24.3,43.24,24.3,43.24a4.91,4.91,0,0,0,6.36,1.85,5,5,0,0,0,2.71-6.45s-19.46-44-18.44-44.58,25.59,33.59,25.59,33.59a5,5,0,0,0,6.55,1,4.89,4.89,0,0,0,1.93-6.66l-25.11-41.72a9.37,9.37,0,0,0-.85-2.09s-11-16.95-10.73-18,13,5,13,5l.58.24,17.24,4.81a6.31,6.31,0,0,0,7.16-3.13,5.33,5.33,0,0,0-2.48-7.48l-16.18-7.21.58.23L587.78,492.7l-1.38-.5L572,489.08c-.55-.19-2.91-.58-3.51-.67a29.21,29.21,0,0,0-3.88-.31l-9.28-16.69L517.9,492.24,527.2,509a10.26,10.26,0,0,0-.48,10.49l13.84,29.91L557,591.27A4.8,4.8,0,0,0,562.91,593.92Z"/><ellipse class="cls-1" cx="507.16" cy="428.31" rx="27.97" ry="63.6" transform="translate(-136.49 265.89) rotate(-26.02)"/><circle class="cls-1" cx="314.66" cy="514.92" r="38.85"/></svg>