<svg xmlns="http://www.w3.org/2000/svg" viewBox="0 0 199.41 159.9"><defs><style>.cls-1{fill:#93278f}.cls-2{fill:#ff7bac}</style></defs><title>LONGEN</title><g id="Organen"><rect width="15.1" height="66.06" x="92.22" class="cls-1"/><polygon points="137.71 87.46 127.57 96.04 92.22 66.11 102.36 57.53 137.71 87.46" class="cls-1"/><polygon points="61.77 87.46 71.91 96.04 107.26 66.11 97.12 57.53 61.77 87.46" class="cls-1"/><path d="M83.74,137.36C87.25,121,89.07,34.55,70.52,37.22,22.7,44.09,3.74,131,.23,147.44s34.37,9.08,52.9,11.92S80.23,153.77,83.74,137.36Z" class="cls-2"/><path d="M115.67,137.36c-3.51-16.4-5.33-102.81,13.22-100.14,47.82,6.87,66.78,93.82,70.29,110.22s-34.37,9.08-52.9,11.92S119.18,153.77,115.67,137.36Z" class="cls-2"/></g></svg>