<svg xmlns="http://www.w3.org/2000/svg" viewBox="0 0 121.03 140.25"><defs><style>.cls-1{fill:#22b573;}</style></defs><title>MAAG</title><g id="Organen"><path class="cls-1" d="M111.33,61.32c-8.62-5.66-9.49-6.68-14.09-10a3.94,3.94,0,0,1-1.61-4C99.14,31.5,94.47,14.54,77.16,1.31a7.28,7.28,0,0,0-8.32,0,3.82,3.82,0,0,0,.1,6.32c17.31,13.31,16.2,31.57,9.75,47.63-3.19,5.53-5.92,12.15-8.2,14.26-4.67,4.34-16,19.06-18.89,29-3.58,12.52-5.6,14-21,15.62S11.53,114,2.9,120.48C-1.3,123.64.29,130.67.31,135.23c0,2.53,4.22,5,7.45,5h0c3.21,0,8-1.43,8-3.94,0-2.11-1.28-6.44.65-7.89,5.27-4,10.14-3.29,24.29-3.56s53.22-1,65.68-11.81C121.83,99.61,127.49,72,111.33,61.32Z"/></g></svg>