<svg xmlns="http://www.w3.org/2000/svg" viewBox="0 0 154.66 95.65"><defs><style>.cls-1{fill:#56649a}</style></defs><title>NIEREN</title><g id="Organen"><path d="M0,23.13C0,35.42,8.39,49.26,20.57,45.38s3.25-18.46,3.25-22.25S33.16,5.46,20.57.87,0,10.83,0,23.13Z" class="cls-1"/><path d="M22.22,20.71a31.94,31.94,0,0,1,6.85-1.05,23.8,23.8,0,0,1,7.07.67A14.61,14.61,0,0,1,42.89,24a13.65,13.65,0,0,1,3.61,7,22.77,22.77,0,0,1,.21,7.25l-.9,6.47L44,57.51,42.18,70.33l-.91,6.41-.45,3.15a16.87,16.87,0,0,0-.16,2.91,8.65,8.65,0,0,0,1.68,5.06A10.44,10.44,0,0,0,46.94,91a33,33,0,0,0,6,1.6,44.64,44.64,0,0,1,6.38,1.48.8.8,0,0,1,.48,1,.78.78,0,0,1-.91.52h-.06c-3.93-.88-8.37-.7-12.73-2A13.09,13.09,0,0,1,40,89.9a11,11,0,0,1-2-3.22,14.49,14.49,0,0,1-.85-3.6,19.29,19.29,0,0,1,0-3.56c.08-1.19.22-2.18.33-3.28l.73-6.43,1.47-12.87,1.46-12.87.72-6.38a18.05,18.05,0,0,0-.25-5.63,8.62,8.62,0,0,0-6.72-6.69,27.26,27.26,0,0,0-11.45,0l-.13,0a2.39,2.39,0,0,1-1-4.65Z" class="cls-1"/><path d="M154.66,23.13c0,12.29-8.39,26.13-20.57,22.25s-3.25-18.46-3.25-22.25S121.5,5.46,134.09.87,154.66,10.83,154.66,23.13Z" class="cls-1"/><path d="M132.44,20.71a31.94,31.94,0,0,0-6.85-1.05,23.8,23.8,0,0,0-7.07.67A14.61,14.61,0,0,0,111.77,24a13.58,13.58,0,0,0-3.61,7,22.77,22.77,0,0,0-.21,7.25l.9,6.47,1.81,12.82,1.82,12.82.9,6.41.45,3.15A16.89,16.89,0,0,1,114,82.8a8.65,8.65,0,0,1-1.68,5.06,10.44,10.44,0,0,1-4.6,3.15,33,33,0,0,1-6,1.6,44.64,44.64,0,0,0-6.38,1.48.8.8,0,0,0-.48,1,.78.78,0,0,0,.91.52h.06c3.93-.88,8.37-.7,12.73-2a13.09,13.09,0,0,0,6.1-3.69,11.2,11.2,0,0,0,2-3.22,14.49,14.49,0,0,0,.85-3.6,20.2,20.2,0,0,0,0-3.56c-.08-1.19-.22-2.18-.33-3.28l-.73-6.43L115,56.94l-1.46-12.87-.72-6.38a18.05,18.05,0,0,1,.25-5.63,8.62,8.62,0,0,1,6.72-6.69,27.26,27.26,0,0,1,11.45,0l.13,0a2.39,2.39,0,0,0,1-4.65Z" class="cls-1"/></g></svg>